<?xml version="1.0" encoding="UTF-8"?>
<svg width="980px" height="680px" viewBox="0 0 980 680" version="1.1" xmlns="http://www.w3.org/2000/svg" xmlns:xlink="http://www.w3.org/1999/xlink">
    <title>AE postpay</title>
    <defs>
        <rect id="path-1" x="0" y="0" width="900" height="600" rx="80"></rect>
        <filter x="-6.7%" y="-10.0%" width="113.3%" height="120.0%" filterUnits="objectBoundingBox" id="filter-3">
            <feMorphology radius="2.5" operator="dilate" in="SourceAlpha" result="shadowSpreadOuter1"></feMorphology>
            <feOffset dx="0" dy="0" in="shadowSpreadOuter1" result="shadowOffsetOuter1"></feOffset>
            <feGaussianBlur stdDeviation="17.5" in="shadowOffsetOuter1" result="shadowBlurOuter1"></feGaussianBlur>
            <feColorMatrix values="0 0 0 0 0   0 0 0 0 0   0 0 0 0 0  0 0 0 0.5 0" type="matrix" in="shadowBlurOuter1"></feColorMatrix>
        </filter>
    </defs>
    <g id="AE-postpay" stroke="none" stroke-width="1" fill="none" fill-rule="evenodd">
        <g transform="translate(40, 40)">
            <mask id="mask-2" fill="white">
                <use xlink:href="#path-1"></use>
            </mask>
            <g id="Rectangle">
                <use fill="black" fill-opacity="1" filter="url(#filter-3)" xlink:href="#path-1"></use>
                <use fill="#141414" fill-rule="evenodd" xlink:href="#path-1"></use>
            </g>
            <g id="Logo" mask="url(#mask-2)" fill="#00DFFF" fill-rule="nonzero">
                <g transform="translate(50, 212)" id="Shape">
                    <path d="M716.970222,176.904378 L739.873733,176.904378 C741.574226,176.904378 743.115297,176.054132 743.752982,174.300499 L799.709819,32.0967992 C800.560065,29.7054813 799.497257,28.3769715 797.10594,28.3769715 L773.352183,28.3769715 C771.59855,28.3769715 770.110618,29.2803582 769.472934,30.9808509 L744.390667,100.435348 L719.095838,30.9808509 C718.458154,29.2272178 716.917082,28.3769715 715.216589,28.3769715 L691.462832,28.3769715 C689.071515,28.3769715 688.008707,29.7054813 688.858953,32.0967992 L729.723918,135.614291 L714.366343,173.18455 C713.303535,175.575868 714.578905,176.904378 716.970222,176.904378 M585.607164,81.8893502 C585.607164,64.8312831 597.298051,53.2998172 613.027608,53.2998172 C628.757165,53.2998172 639.810368,64.6718619 639.810368,81.8893502 C639.810368,99.1068385 628.810306,110.478883 613.027608,110.478883 C597.24491,110.478883 585.607164,99.1068385 585.607164,81.8893502 M606.810182,138.005608 C622.592879,138.005608 634.018064,131.256778 641.404579,120.309856 L641.829703,132.107024 C641.829703,134.073219 643.105072,135.401729 645.071267,135.401729 L666.008583,135.401729 C667.974777,135.401729 669.462708,134.073219 669.462708,132.107024 L669.462708,31.671676 C669.462708,29.7054813 668.187339,28.3769715 666.221144,28.3769715 L645.018126,28.3769715 C643.051932,28.3769715 641.776562,29.7054813 641.776562,31.671676 L641.351439,43.4688439 C634.230626,32.3093608 622.7523,25.773092 606.757041,25.773092 C576.945279,25.773092 556.433086,50.2176742 556.433086,81.8893502 C556.433086,113.561026 576.945279,138.005608 606.757041,138.005608 M458.070213,81.8893502 C458.070213,64.6187215 469.070275,53.2998172 485.065534,53.2998172 C501.060794,53.2998172 512.273417,64.8844235 512.273417,81.8893502 C512.273417,98.8942769 500.58253,110.478883 485.065534,110.478883 C469.548539,110.478883 458.070213,99.1068385 458.070213,81.8893502 M431.712577,176.904378 L455.253772,176.904378 C457.166827,176.904378 458.495336,175.575868 458.495336,173.609674 L458.495336,122.701174 C465.828711,132.319586 476.881913,138.005608 491.336101,138.005608 C520.935302,138.005608 541.447495,113.773588 541.447495,81.8893502 C541.447495,50.0051126 520.935302,25.773092 491.336101,25.773092 C475.12828,25.773092 463.915657,32.3093608 456.741703,43.4688439 L456.31658,31.671676 C456.31658,29.7054813 455.041211,28.3769715 453.075016,28.3769715 L431.659436,28.3769715 C429.693242,28.3769715 428.417872,29.7054813 428.417872,31.671676 L428.417872,173.609674 C428.417872,175.575868 429.693242,176.904378 431.659436,176.904378 M391.485297,136.730239 C398.60611,136.730239 409.446751,135.401729 409.446751,130.406532 L409.446751,114.464413 C409.446751,112.285657 407.95882,111.169708 405.567502,111.38227 C402.963623,111.594832 400.838007,111.594832 398.871812,111.594832 C393.23893,111.594832 389.572243,108.512689 389.572243,102.188981 L389.572243,51.7587457 L406.205187,51.7587457 C408.171381,51.7587457 409.446751,50.4302358 409.446751,48.4640411 L409.446751,31.671676 C409.446751,29.7054813 408.171381,28.3769715 406.205187,28.3769715 L389.572243,28.3769715 L389.572243,3.29470455 C389.572243,1.3285099 388.296873,0 386.330679,0 L362.789483,0 C360.823289,0 359.547919,1.3285099 359.547919,3.29470455 L359.547919,28.4301118 L346.156539,28.4301118 C344.190345,28.4301118 342.914975,29.7586217 342.914975,31.7248164 L342.914975,48.5171815 C342.914975,50.4833762 344.190345,51.8118861 346.156539,51.8118861 L359.547919,51.8118861 L359.547919,105.536826 C359.547919,128.918601 374.692932,136.783379 391.538438,136.783379 M292.803582,138.111889 C314.0066,138.111889 332.340036,126.952406 332.552598,105.324265 C332.76516,88.9570229 322.190221,79.5511728 308.798841,74.077712 L293.86639,68.179128 C288.020946,66.0003718 283.716574,63.1839308 283.716574,57.9230316 C283.716574,53.3529576 286.958138,49.4205683 293.86639,49.4205683 C300.136956,49.4205683 306.194962,52.5027112 313.103213,58.4012952 C315.069408,59.9423667 316.557339,60.1549282 318.09841,58.4012952 L327.610541,46.8166889 C328.673349,45.488179 329.098472,43.7345459 327.823103,42.2466148 C318.948657,31.5653952 306.194962,25.8793728 292.378459,25.8793728 C272.716512,25.8793728 255.445883,37.6765407 255.445883,58.1887336 C255.445883,73.0149041 264.958014,82.2081926 278.561956,87.6816534 L291.953335,93.1551141 C299.711833,96.4498187 302.953397,98.8411365 302.953397,104.102036 C302.953397,110.213181 298.223902,113.029622 291.049949,113.029622 C282.813187,113.029622 275.479813,109.309795 266.605367,102.560964 C264.851734,101.232454 262.938679,100.807331 261.185046,103.411211 L253.63911,114.09243 C252.151179,116.483748 251.938617,118.875066 253.213987,120.416137 C261.66331,130.459672 275.05469,138.111889 292.750441,138.111889 M156.604747,81.995631 C156.604747,64.5124407 168.295634,53.6186595 183.387507,53.6186595 C198.479379,53.6186595 209.957704,64.5124407 209.957704,81.995631 C209.957704,99.4788213 198.266817,110.372602 183.387507,110.372602 C168.508196,110.372602 156.604747,99.4256809 156.604747,81.995631 M183.387507,138.111889 C215.165463,138.111889 238.706659,113.667307 238.706659,81.995631 C238.706659,50.323955 215.165463,25.8793728 183.387507,25.8793728 C151.60955,25.8793728 127.855793,50.323955 127.855793,81.995631 C127.855793,113.667307 151.396988,138.111889 183.387507,138.111889 M29.5992006,81.8893502 C29.5992006,64.6187215 40.5992625,53.2998172 56.5945217,53.2998172 C72.5897809,53.2998172 83.8024045,64.8844235 83.8024045,81.8893502 C83.8024045,98.8942769 72.1646577,110.478883 56.5945217,110.478883 C41.0243857,110.478883 29.5992006,99.1068385 29.5992006,81.8893502 M3.24156415,176.904378 L26.7827596,176.904378 C28.7489542,176.904378 30.0243237,175.575868 30.0243237,173.609674 L30.0243237,122.701174 C37.3576984,132.319586 48.4109007,138.005608 62.8650884,138.005608 C92.464289,138.005608 112.976482,113.773588 112.976482,81.8893502 C112.976482,50.0051126 92.464289,25.773092 62.8650884,25.773092 C46.6572677,25.773092 35.4446441,32.3093608 28.2706907,43.4688439 L27.8455675,31.671676 C27.8455675,29.7054813 26.570198,28.3769715 24.6040033,28.3769715 L3.24156415,28.3769715 C1.2753695,28.3769715 0,29.7054813 0,31.671676 L0,173.609674 C0,175.575868 1.2753695,176.904378 3.24156415,176.904378"></path>
                </g>
            </g>
        </g>
    </g>
</svg>