<?xml version="1.0" encoding="UTF-8"?>
<svg width="980px" height="680px" viewBox="0 0 980 680" version="1.1" xmlns="http://www.w3.org/2000/svg" xmlns:xlink="http://www.w3.org/1999/xlink">
    <title>AT Bankomat text</title>
    <defs>
        <linearGradient x1="50%" y1="0%" x2="50%" y2="100%" id="linearGradient-1">
            <stop stop-color="#FFFFFF" offset="0%"></stop>
            <stop stop-color="#EDEDED" offset="100%"></stop>
        </linearGradient>
        <rect id="path-2" x="0" y="0" width="900" height="600" rx="80"></rect>
        <filter x="-6.7%" y="-10.0%" width="113.3%" height="120.0%" filterUnits="objectBoundingBox" id="filter-4">
            <feMorphology radius="2.5" operator="dilate" in="SourceAlpha" result="shadowSpreadOuter1"></feMorphology>
            <feOffset dx="0" dy="0" in="shadowSpreadOuter1" result="shadowOffsetOuter1"></feOffset>
            <feGaussianBlur stdDeviation="17.5" in="shadowOffsetOuter1" result="shadowBlurOuter1"></feGaussianBlur>
            <feColorMatrix values="0 0 0 0 0   0 0 0 0 0   0 0 0 0 0  0 0 0 0.5 0" type="matrix" in="shadowBlurOuter1"></feColorMatrix>
        </filter>
    </defs>
    <g id="AT-Bankomat-text" stroke="none" stroke-width="1" fill="none" fill-rule="evenodd">
        <g transform="translate(40, 40)">
            <mask id="mask-3" fill="white">
                <use xlink:href="#path-2"></use>
            </mask>
            <g id="Rectangle">
                <use fill="black" fill-opacity="1" filter="url(#filter-4)" xlink:href="#path-2"></use>
                <use fill="url(#linearGradient-1)" fill-rule="evenodd" xlink:href="#path-2"></use>
            </g>
            <g id="Logo" mask="url(#mask-3)">
                <rect id="Rectangle" fill="#003375" x="0" y="0" width="900" height="600"></rect>
                <path d="M286.98802,85.2203558 C371.988009,85.2338404 456.994606,85.2269646 541.994661,85.2269646 C553.716956,85.6075386 565.118757,89.6261629 575.078636,95.707604 C585.612813,102.183037 594.751597,110.981367 601.467284,121.381966 C613.663477,140.360469 616.647455,164.846447 609.638177,186.261664 C605.806335,198.13763 599.237644,209.112128 590.632839,218.137628 C581.36041,226.708922 570.479237,233.838493 558.263017,237.356651 C551.460615,239.4192 544.35107,240.153579 537.268294,240.253713 C453.836996,240.260388 370.412508,240.240495 286.981211,240.267131 C286.971988,188.584828 286.961318,136.902725 286.98802,85.2203558 L286.98802,85.2203558 Z" id="path4" fill="#ACD261"></path>
                <path d="M286.981211,254.132282 C340.379068,254.172202 393.783733,253.998704 447.18159,254.272336 C477.895872,254.26566 508.616762,254.279145 539.337652,254.26566 C551.433912,253.86506 563.283043,257.950506 573.643522,263.971934 C590.846457,274.252373 604.838445,290.75424 610.011942,310.327068 C614.190847,324.819723 613.937108,340.540682 609.344319,354.899893 C605.959806,365.774324 600.178833,375.854496 592.715482,384.439274 C589.971891,387.696817 586.607406,390.35376 583.276365,392.983866 C573.750265,400.42719 562.562082,405.941341 550.592791,408.003891 C542.68892,409.519244 534.618094,409.092142 526.620765,409.145546 C446.740936,409.138871 366.86104,409.158764 286.981211,409.138871 C286.967926,357.469986 286.967926,305.801101 286.981211,254.132216 L286.981211,254.132282 Z" id="path6" fill="#00ADEF"></path>
                <path d="M287.194829,432.730256 C292.95591,432.750349 298.71699,432.730256 304.477871,432.743741 C304.471195,443.91203 304.437951,455.080053 304.497897,466.241733 C314.985346,455.086929 325.399163,443.851817 335.93314,432.737132 C343.469922,432.737132 351.006703,432.750349 358.543351,432.730256 C347.241617,444.038799 335.93314,455.353884 324.618188,466.648943 C336.587479,482.937192 348.483339,499.278979 360.439212,515.580645 C352.915848,515.494197 345.392485,515.640993 337.869121,515.507414 C329.511312,503.351208 320.879804,491.381717 312.42847,479.292466 C309.784946,482.069368 307.134813,484.839728 304.48468,487.610022 C304.451168,496.929313 304.471262,506.241661 304.477871,515.560953 C298.71699,515.560953 292.962518,515.540726 287.201638,515.574237 C287.194829,487.957418 287.214922,460.347075 287.194829,432.730256 Z M373.002628,457.716968 C378.249623,453.497943 385.252359,452.583391 391.774321,452.523444 C398.449954,452.396608 405.505895,453.404686 411.100086,457.296541 C415.178857,460.086861 417.508697,465.020105 417.421848,469.926579 C417.421848,481.482052 417.415172,493.037257 417.421848,504.59293 C417.528723,507.70341 417.769044,511.535519 420.906493,513.150939 C420.913169,513.951941 420.919911,514.759751 420.933129,515.574237 C415.138804,515.547334 409.344412,515.547334 403.556629,515.574237 C402.755628,513.224371 402.25496,510.794331 402.101489,508.324305 C397.535402,513.584851 390.85316,517.102808 383.803628,517.069297 C378.283068,517.429978 372.348489,516.014557 368.376394,511.962622 C364.785006,508.551541 363.409906,503.411355 363.576795,498.58492 C363.563353,492.703479 366.180199,486.635656 371.213509,483.364628 C377.008035,479.325777 384.330998,479.412626 391.01324,478.150811 C393.963907,477.503281 397.274988,477.736992 399.911903,476.061358 C402.34181,474.345804 401.954627,470.767701 400.465975,468.551479 C398.957231,466.455352 396.240342,465.874444 393.837138,465.61423 C390.512572,465.267034 386.814442,465.45395 384.090677,467.610225 C382.188207,469.185592 381.594015,471.728982 381.106766,474.03212 C375.886473,474.045337 370.666246,474.03212 365.452629,474.045337 C366.060039,467.997407 368.122856,461.668837 373.002628,457.716968 L373.002628,457.716968 Z M386.934602,489.873172 C384.1575,490.600742 381.193615,492.149407 380.279062,495.080181 C379.377794,498.084186 379.691546,501.922703 382.361705,503.952009 C385.272252,506.181648 389.27105,505.700807 392.555296,504.659686 C396.98133,503.297603 400.946616,499.619566 401.547417,494.866763 C401.801022,491.889193 401.574119,488.891997 401.680862,485.907685 C397.174921,488.51129 391.847752,488.571504 386.934602,489.873172 L386.934602,489.873172 Z M438.95055,456.315166 C445.07872,452.536662 452.575381,452.176181 459.564766,452.67024 C465.64614,453.204285 472.108155,454.746274 476.580718,459.185593 C480.299076,462.710359 481.954483,467.863829 482.301679,472.863762 C477.034723,472.790397 471.77431,472.863762 466.513964,472.830518 C465.986594,470.026713 464.691534,467.016032 461.841134,465.921173 C457.802283,464.339264 453.129453,464.466033 449.064033,465.887862 C445.906423,466.809023 444.497945,471.682253 447.475315,473.624843 C450.352351,475.614229 453.937263,476.081452 457.268237,476.86256 C464.538063,478.404616 472.301747,479.539395 478.436526,484.058754 C482.548675,487.049541 484.578114,492.263159 484.130784,497.269967 C484.010624,503.304412 480.953281,509.292395 475.752881,512.490192 C468.302949,517.182848 459.090734,517.603476 450.55936,516.762555 C443.650215,515.908015 436.347145,513.558149 431.834396,507.943931 C428.990671,504.55281 427.94254,500.100207 427.62218,495.787524 C433.176251,495.794333 438.736932,495.780848 444.297745,495.787524 C444.43119,498.604947 445.559361,501.548805 448.216303,502.890594 C452.568772,505.066695 457.788998,505.300206 462.481922,504.245867 C465.339064,503.604746 468.343069,501.155013 467.85582,497.930514 C467.388396,495.554013 464.831721,494.466162 462.782389,493.771636 C453.930454,491.067965 444.037398,490.954614 436.173447,485.587525 C431.24027,482.416631 429.137534,476.121572 430.052086,470.494069 C430.679523,464.746473 433.943942,459.279051 438.95055,456.315166 L438.95055,456.315166 Z M501.867764,457.096141 C507.241662,453.19761 514.130713,452.309759 520.606146,452.530053 C527.108015,452.716969 534.010684,453.825113 539.264288,457.957289 C543.797064,461.475245 546.046597,467.216233 546.360348,472.830518 C541.100136,472.837193 535.83298,472.837193 530.579443,472.830518 C529.965157,470.233722 529.003875,467.316366 526.347133,466.154884 C522.375038,464.352481 517.708817,464.459424 513.590059,465.69427 C511.487189,466.301747 509.678177,468.26443 509.918497,470.560692 C509.684786,473.197607 512.521902,474.452547 514.598136,475.166899 C523.309617,477.903881 532.942526,478.110891 540.91322,482.970703 C545.218893,485.473774 548.156143,490.200141 548.149467,495.227043 C548.45661,500.934519 546.513953,506.949338 542.068026,510.714224 C536.580777,515.480579 528.997267,517.069297 521.901206,517.069297 C513.917095,517.236186 505.39253,515.928042 498.89707,510.954745 C494.230849,507.403143 491.827645,501.562022 491.694268,495.787524 C497.214828,495.767831 502.742197,495.827844 508.262957,495.754213 C508.623438,498.077377 509.124105,500.620968 511.166828,502.109619 C514.544732,504.739726 519.130713,504.899806 523.236186,504.79313 C526.687521,504.606148 531.12003,503.224372 531.88772,499.345801 C532.528641,496.515494 529.678108,494.713091 527.381846,493.985121 C518.683583,491.101476 508.963825,491.095001 501.026643,486.101477 C496.861156,483.564895 494.030649,478.878648 494.130783,473.958688 C493.696871,467.523375 496.513893,460.814498 501.867764,457.096141 L501.867764,457.096141 Z M564.571294,459.078851 C570.192188,454.045407 577.995925,452.26303 585.379102,452.530053 C593.623426,452.570173 602.148125,455.994605 607.027964,462.850546 C612.522022,470.480651 613.516614,480.273774 613.162809,489.405949 C599.204133,489.372638 585.245657,489.405949 571.287047,489.392732 C571.500665,494.265962 573.162882,499.666362 577.64212,502.249673 C582.241652,504.679779 588.356404,504.986655 592.748994,501.922703 C594.317685,500.867964 595.25894,499.19213 595.993319,497.496602 C601.547324,497.496602 607.101395,497.476576 612.662075,497.509887 C610.933103,503.544933 607.308404,509.125506 601.974627,512.570232 C594.878366,517.316226 585.859742,517.810552 577.655538,516.495599 C570.906473,515.400472 564.371094,511.85588 560.559278,506.061488 C555.63271,498.618164 554.718158,489.332385 555.118758,480.620837 C555.699533,472.690264 558.516555,464.499344 564.571294,459.078851 L564.571294,459.078851 Z M576.433842,468.364497 C573.409811,470.874643 572.228235,474.819836 571.647528,478.558087 C579.985311,478.584722 588.329702,478.558087 596.667551,478.571505 C596.206937,475.467366 595.359007,472.289663 593.262946,469.873242 C589.197526,465.120172 581.313682,464.552682 576.433842,468.364497 Z" id="path8" fill="#FFFFFF"></path>
            </g>
        </g>
    </g>
</svg>