<?xml version="1.0" encoding="UTF-8"?>
<svg width="980px" height="680px" viewBox="0 0 980 680" version="1.1" xmlns="http://www.w3.org/2000/svg" xmlns:xlink="http://www.w3.org/1999/xlink">
    <title>AT eps alt</title>
    <defs>
        <rect id="path-1" x="0" y="0" width="900" height="600" rx="80"></rect>
        <filter x="-6.7%" y="-10.0%" width="113.3%" height="120.0%" filterUnits="objectBoundingBox" id="filter-3">
            <feMorphology radius="2.5" operator="dilate" in="SourceAlpha" result="shadowSpreadOuter1"></feMorphology>
            <feOffset dx="0" dy="0" in="shadowSpreadOuter1" result="shadowOffsetOuter1"></feOffset>
            <feGaussianBlur stdDeviation="17.5" in="shadowOffsetOuter1" result="shadowBlurOuter1"></feGaussianBlur>
            <feColorMatrix values="0 0 0 0 0   0 0 0 0 0   0 0 0 0 0  0 0 0 0.5 0" type="matrix" in="shadowBlurOuter1"></feColorMatrix>
        </filter>
    </defs>
    <g id="AT-eps-alt" stroke="none" stroke-width="1" fill="none" fill-rule="evenodd">
        <g transform="translate(40, 40)">
            <mask id="mask-2" fill="white">
                <use xlink:href="#path-1"></use>
            </mask>
            <g id="Rectangle">
                <use fill="black" fill-opacity="1" filter="url(#filter-3)" xlink:href="#path-1"></use>
                <use fill="#C8036F" fill-rule="evenodd" xlink:href="#path-1"></use>
            </g>
            <g id="Logo" mask="url(#mask-2)">
                <g transform="translate(50, 53.5)" id="Clipped">
                    <g transform="translate(446.6121, 172.2153)">
                        <path d="M180.855223,73.8808931 L180.855223,73.8808931 L117.117865,73.8808931 C110.028421,73.8808931 104.261549,68.2326468 104.261549,61.1619331 C104.261549,54.0912195 110.029461,47.8664941 117.117865,47.8664941 L214.153654,47.8664941 L214.153654,0 L117.117865,0 C83.250239,0 55.694747,27.6106425 55.694747,61.3939816 C55.694747,95.1773206 83.250239,122.787963 117.117865,122.787963 L179.989464,122.787963 C187.078908,122.787963 192.846821,128.413317 192.846821,135.48403 C192.846821,142.554744 187.077868,147.761786 179.989464,147.761786 L45.1693212,147.761786 C33.7229857,169.613881 22.5940258,188.344249 0,197.709432 L180.855223,197.709432 C214.153654,197.229727 241.39177,169.049889 241.39177,135.565195 C241.39177,102.082583 214.153654,74.3605986 180.855223,73.8808931" id="Path" fill="#FFFFFF" fill-rule="nonzero"></path>
                    </g>
                    <g transform="translate(285.1178, 172.2153)">
                        <path d="M98.0191336,0 C43.9986733,0 0,44.2608984 0,98.6466009 L0,100.727753 L0,303.84818 L48.9070701,303.84818 L48.9070701,197.709432 L97.9171571,197.709432 C151.938658,197.709432 195.782285,152.859568 195.782285,98.4738653 C195.782285,44.0881628 152.041675,0 98.0191336,0 M98.0191336,147.761786 L48.9070701,147.761786 L48.9070701,98.4738653 C48.9070701,70.9319008 70.8351272,48.5241381 98.0191336,48.5241381 C125.204181,48.5241381 147.318501,70.9319008 147.318501,98.4738653 C147.318501,126.01687 125.204181,147.761786 98.0191336,147.761786" id="Shape" fill="#FFFFFF" fill-rule="nonzero"></path>
                    </g>
                    <g transform="translate(0, 140.998)">
                        <path d="M130.283232,228.926711 C84.0400362,228.926711 45.1620372,195.974792 34.6418142,152.926165 C34.6418142,152.926165 31.6022919,138.693167 31.6022919,129.320699 C31.6022919,119.948231 34.4794844,105.568512 34.4794844,105.568512 C45.0756694,62.6260235 83.9058019,30.6491243 130.073035,30.6491243 C184.37133,30.6491243 228.926711,74.7882753 228.926711,129.085529 L228.926711,152.964666 L84.6664629,152.964666 C93.1856583,169.613881 110.414474,178.979065 130.283232,178.979065 L259.966051,178.979065 L260.14399,38.1693667 C260.14399,17.1757468 242.969283,0 221.975664,0 L38.1704073,0 C17.1767874,0 0,16.6554588 0,37.6490788 L0,221.454335 C0,242.447955 17.1767874,260.14399 38.1704073,260.14399 L221.975664,260.14399 C240.815291,260.14399 256.53111,246.616502 259.567511,228.926711 L130.283232,228.926711 Z" id="Path" fill="#FFFFFF" fill-rule="nonzero"></path>
                    </g>
                    <g transform="translate(84.5145, 218.3711)">
                        <path d="M45.5574561,0 C25.7657013,0 8.55353438,12.1164665 0,27.7251058 L91.1169933,27.7251058 C82.5634589,12.1164665 65.3523325,0 45.5574561,0" id="Path" fill="#FFFFFF" fill-rule="nonzero"></path>
                    </g>
                    <g transform="translate(46.8201, 0)">
                        <path d="M166.498004,81.2263188 C166.498004,36.3660486 129.216249,0 83.2279943,0 C38.0014414,0 1.21812179,35.1766703 0.0100131058,79.0088514 C-0.00975783745,79.1940739 0.00585080193,79.3740936 0.00585080193,79.564519 L0.00585080193,103.97435 C0.00585080193,106.894206 2.38356687,109.780764 5.37626333,109.780764 L36.0118601,109.780764 C39.0045566,109.780764 41.6288892,106.894206 41.6288892,103.97435 L41.6288892,81.2263188 C41.6288892,58.8247995 60.2864161,40.5991116 83.2519275,40.5991116 C106.217439,40.5991116 124.874966,58.8247995 124.874966,81.2263188 L124.874966,103.97435 C124.874966,106.894206 127.30263,109.780764 130.295326,109.780764 L160.931963,109.780764 C163.92466,109.780764 166.498004,106.894206 166.498004,103.97435 L166.498004,81.2263188 Z" id="Path" fill="#FFFFFF" fill-rule="nonzero"></path>
                    </g>
                    <g transform="translate(396.6641, 421.1211)">
                        <path d="M41.3434658,12.2798369 L36.9147745,37.3556363 C34.7004289,50.0298515 26.3955921,55.8341842 15.1386414,55.8341842 C5.60488449,55.8341842 -1.77696136,49.6198646 0.3759903,37.3764479 L4.803641,12.2808775 L11.632941,12.2808775 L7.20216859,37.3566769 C5.84837927,45.1724429 9.35512025,49.6219457 15.9991977,49.6219457 C22.8274572,49.6219457 28.6713318,45.5605778 30.0844339,37.3764479 L34.5141658,12.2808775 L41.3434658,12.2808775 L41.3434658,12.2798369 Z M14.5226205,4.4276507 C14.5226205,6.51920838 16.1230263,7.50151209 17.8451795,7.50151209 C19.9981312,7.50151209 22.3363053,5.9645814 22.3363053,3.07386138 C22.3363053,1.04473826 20.9804349,0 19.1968877,0 C16.9856638,0 14.5226205,1.41414273 14.5226205,4.4276507 M29.2873527,4.36625672 C29.2873527,6.51816781 30.948112,7.50151209 32.7326997,7.50151209 C34.6390349,7.50151209 37.1624316,5.9645814 37.1624316,3.13629594 C37.1624316,1.1082134 35.6837732,0 34.0240545,0 C31.8097089,0 29.2873527,1.41414273 29.2873527,4.36625672" id="Shape" fill="#FFFFFF" fill-rule="nonzero"></path>
                    </g>
                    <g transform="translate(440.608, 433.3999)">
                        <path d="M13.9020948,0 L10.8261523,17.3266303 C13.4702558,13.7605765 18.760544,11.8760934 22.4514669,11.8760934 C30.0788887,11.8760934 35.3691768,16.3453672 35.3691768,24.6470822 C35.3691768,36.3962253 27.1881687,43.4617361 16.7324614,43.4617361 C12.672134,43.4617361 9.22574645,41.9529009 7.13522935,38.1402306 L5.96666255,42.6636143 L0,42.6636143 L7.5660278,0 L13.9020948,0 Z M9.10503964,29.2422656 C8.85946371,34.2859373 12.1185476,37.5460617 16.8542088,37.5460617 C22.8208714,37.5460617 28.6023114,32.9300668 28.9727564,25.9207471 C29.2183323,20.8146409 25.8978545,17.7990518 21.2818595,17.7990518 C15.3765909,17.7990518 9.47132238,22.5367941 9.10503964,29.2422656" id="Shape" fill="#FFFFFF" fill-rule="nonzero"></path>
                    </g>
                    <g transform="translate(481.9573, 445.1813)">
                        <path d="M6.45885498,18.3953018 C6.21223847,22.5576056 9.47236295,25.9561267 15.0092676,25.9561267 C18.0852102,25.9561267 22.1434564,24.7542615 24.357802,22.6627038 L27.803149,26.6439474 C24.0529133,30.0872133 18.514968,31.8000013 13.8407008,31.8000013 C5.10714681,31.8000013 0,26.5700665 0,18.5721997 C0,7.93022938 8.36519013,0 19.0675139,0 C28.8489279,0 34.3858326,5.90839029 31.0632735,18.3953018 L6.45885498,18.3953018 L6.45885498,18.3953018 Z M25.8968139,13.192422 C26.3890063,7.98954221 23.3141044,5.87197014 18.2069576,5.87197014 C13.5940843,5.87197014 9.35061557,7.98954221 7.50359324,13.192422 L25.8968139,13.192422 Z" id="Shape" fill="#FFFFFF" fill-rule="nonzero"></path>
                    </g>
                    <g transform="translate(518.6907, 445.2281)">
                        <path d="M11.2569507,0.658684582 L10.9478997,4.6701049 C13.9031354,0.789797153 17.4702298,0 20.7282731,0 C23.6803871,0 26.3244906,1.04785999 27.7407145,2.58375011 L23.9280442,8.12065478 C22.5742549,6.89381573 21.2204655,6.27883534 18.8822913,6.27883534 C14.514994,6.27883534 10.2101313,8.89796502 9.22574645,14.4952231 L6.33710759,30.8353874 L0,30.8353874 L5.35168216,0.658684582 L11.2569507,0.658684582 Z" id="Path" fill="#FFFFFF" fill-rule="nonzero"></path>
                    </g>
                    <g transform="translate(549.5781, 445.8868)">
                        <polygon id="Path" fill="#FFFFFF" fill-rule="nonzero" points="27.3744317 0 30.5721217 23.864569 42.1370829 0 49.2098777 0 33.3400537 30.1767028 25.8978545 30.1767028 22.8843465 10.2694441 18.0238162 20.159078 12.7345686 30.1767028 5.35272273 30.1767028 0 0 7.13626993 0 10.2736064 23.864569 21.8989211 0"></polygon>
                    </g>
                    <g transform="translate(600.4664, 445.1813)">
                        <path d="M6.45885498,18.3953018 C6.21223847,22.5576056 9.47236295,25.9561267 15.0092676,25.9561267 C18.0852102,25.9561267 22.1434564,24.7542615 24.3567615,22.6627038 L27.803149,26.6439474 C24.0529133,30.0872133 18.514968,31.8000013 13.8407008,31.8000013 C5.10610623,31.8000013 0,26.5700665 0,18.5721997 C0,7.93022938 8.36519013,0 19.0685544,0 C28.8489279,0 34.3858326,5.90839029 31.0632735,18.3953018 L6.45885498,18.3953018 L6.45885498,18.3953018 Z M25.8957733,13.192422 C26.3879657,7.98954221 23.3130638,5.87197014 18.205917,5.87197014 C13.5940843,5.87197014 9.34957499,7.98954221 7.50255266,13.192422 L25.8957733,13.192422 Z" id="Shape" fill="#FFFFFF" fill-rule="nonzero"></path>
                    </g>
                    <g transform="translate(637.1998, 433.1137)">
                        <path d="M11.6877492,12.7730699 L6.33710759,42.9497727 L0,42.9497727 L5.35272273,12.7730699 L11.6877492,12.7730699 Z M6.09049109,4.55251982 C6.09049109,6.7044309 7.69089691,7.8168066 9.41305012,7.8168066 C11.8729717,7.8168066 14.1497519,6.21431963 14.1497519,3.20185223 C14.1497519,1.16960738 12.61074,0 10.9510214,0 C8.67320062,0 6.09049109,1.47865844 6.09049109,4.55251982" id="Shape" fill="#FFFFFF" fill-rule="nonzero"></path>
                    </g>
                    <g transform="translate(652.0291, 445.1105)">
                        <path d="M24.9748636,8.24136159 C23.0050533,6.02701595 20.4858189,5.41203556 17.4712703,5.41203556 C13.2860738,5.41203556 10.3350004,6.82721887 10.3350004,9.47132238 C10.3350004,11.685668 12.733528,12.6117806 16.301663,12.91771 C21.8375271,13.4088618 28.9113624,15.2558841 27.4347852,23.0674879 C26.3900469,28.7261399 20.7303543,32.0476584 12.8552754,32.0476584 C7.93543226,32.0476584 3.1987305,30.939445 0,26.4504003 L4.1206808,21.960315 C6.39642042,25.0955704 10.3953538,26.3890063 13.9624482,26.4504003 C16.9759562,26.4504003 20.5451317,25.3432275 21.0976776,22.5139014 C21.651264,19.8073634 19.2527364,18.7626251 14.8240451,18.3297455 C9.6565449,17.8375531 3.99893341,15.9332991 3.99893341,10.2111719 C3.99893341,2.64514409 12.1778604,0 18.3307861,0 C23.0040127,0 26.4504003,1.04473826 29.2797263,4.05928682 L24.9748636,8.24136159 Z" id="Path" fill="#FFFFFF" fill-rule="nonzero"></path>
                    </g>
                    <g transform="translate(687.4507, 445.8868)">
                        <path d="M9.552083,0 L6.66344414,16.2506747 C5.74045326,21.4192155 8.07862744,24.9894317 13.3668345,24.9894317 C18.3491122,24.9894317 22.5936215,20.8614668 23.4531372,15.8188357 L26.2210693,0 L32.5571363,0 L27.2075353,30.1767028 L21.4864487,30.1767028 L21.9162065,25.8042026 C18.3480716,29.1871151 14.8413306,30.782318 10.5989024,30.782318 C3.15566258,30.782318 -1.2730287,25.4462445 0.325295973,16.2839732 L3.21705656,0 L9.552083,0 Z" id="Path" fill="#FFFFFF" fill-rule="nonzero"></path>
                    </g>
                    <g transform="translate(724.8205, 445.4279)">
                        <path d="M23.0050533,30.6355968 L25.8957733,14.4837768 C26.8177236,9.25488258 25.0362576,5.79080521 19.2527364,5.79080521 C14.2090647,5.79080521 9.96247423,9.84801087 9.10295849,14.8302886 L6.33502644,30.6355968 L0,30.6355968 L5.35376331,0.458893998 L11.1341628,0.458893998 L10.7044049,4.86885491 C14.2111459,1.60873043 17.8385937,0 21.7740519,0 C29.1579789,0 33.9560747,5.13628293 32.296356,14.4255045 L29.4025143,30.6355968 L23.0050533,30.6355968 Z" id="Path" fill="#FFFFFF" fill-rule="nonzero"></path>
                    </g>
                    <g transform="translate(762.9577, 445.2344)">
                        <path d="M6.34321584,34.9914478 C5.91345797,39.1537516 9.11114789,40.8374035 14.4659518,40.8374035 C19.1412596,40.8374035 24.1859718,38.2265984 25.3545386,31.5846021 L26.2754483,26.4025338 C23.5085569,30.2776387 18.4638446,31.8072853 14.7136089,31.8072853 C6.96131796,31.8072853 1.5492824,27.1912904 1.5492824,18.8229785 C1.5492824,6.89173458 10.4056244,0 20.4315737,0 C24.6781642,0 28.4918751,2.01663621 29.8456644,5.46094263 L30.8924839,0.65140055 L37.0422878,0.65140055 L31.750959,31.7250798 C29.7842705,43.2296876 21.2338578,46.7988632 13.4222541,46.7988632 C4.07059794,46.7988632 -1.09378054,42.2733983 0.195493074,34.9893666 L6.34321584,34.9893666 L6.34321584,34.9914478 Z M8.12780361,17.5930177 C8.12780361,22.7573962 11.5117566,25.8957733 16.3743681,25.8957733 C29.4731383,25.8957733 32.9809198,5.78144003 19.8769468,5.78144003 C13.6636677,5.7824806 8.12780361,10.3932727 8.12780361,17.5930177" id="Shape" fill="#FFFFFF" fill-rule="nonzero"></path>
                    </g>
                </g>
            </g>
        </g>
    </g>
</svg>