<?xml version="1.0" encoding="UTF-8"?>
<svg width="980px" height="680px" viewBox="0 0 980 680" version="1.1" xmlns="http://www.w3.org/2000/svg" xmlns:xlink="http://www.w3.org/1999/xlink">
    <title>AT Post Nachnahme</title>
    <defs>
        <linearGradient x1="50%" y1="0%" x2="50%" y2="100%" id="linearGradient-1">
            <stop stop-color="#FFFFFF" offset="0%"></stop>
            <stop stop-color="#EDEDED" offset="100%"></stop>
        </linearGradient>
        <rect id="path-2" x="0" y="0" width="900" height="600" rx="80"></rect>
        <filter x="-6.7%" y="-10.0%" width="113.3%" height="120.0%" filterUnits="objectBoundingBox" id="filter-3">
            <feMorphology radius="2.5" operator="dilate" in="SourceAlpha" result="shadowSpreadOuter1"></feMorphology>
            <feOffset dx="0" dy="0" in="shadowSpreadOuter1" result="shadowOffsetOuter1"></feOffset>
            <feGaussianBlur stdDeviation="17.5" in="shadowOffsetOuter1" result="shadowBlurOuter1"></feGaussianBlur>
            <feColorMatrix values="0 0 0 0 0   0 0 0 0 0   0 0 0 0 0  0 0 0 0.5 0" type="matrix" in="shadowBlurOuter1"></feColorMatrix>
        </filter>
    </defs>
    <g id="AT-Post-Nachnahme" stroke="none" stroke-width="1" fill="none" fill-rule="evenodd">
        <g transform="translate(40, 40)">
            <g id="Rectangle">
                <use fill="black" fill-opacity="1" filter="url(#filter-3)" xlink:href="#path-2"></use>
                <use fill="url(#linearGradient-1)" fill-rule="evenodd" xlink:href="#path-2"></use>
            </g>
            <path d="M895,345 L895,520 C895,540.710678 886.605339,559.460678 873.033009,573.033009 C859.460678,586.605339 840.710678,595 820,595 L80,595 C59.2893219,595 40.5393219,586.605339 26.9669914,573.033009 C13.3946609,559.460678 5,540.710678 5,520 L5,345 L895,345 Z" id="Path" stroke="#333333" stroke-width="10" fill="#FF6600"></path>
            <g id="NACHNAHME" transform="translate(164.6, 415.3)" fill="#333333" fill-rule="nonzero">
                <polygon id="Path" points="5.68434189e-14 107.7 5.68434189e-14 0.9 14.7 0.9 37.8 65.25 38.1 65.25 38.1 0.9 53.4 0.9 53.4 107.7 39 107.7 15.6 43.5 15.3 43.5 15.3 107.7"></polygon>
                <path d="M98.1,70.35 L90.6,31.65 L90.3,31.65 L82.8,70.35 L98.1,70.35 Z M60.3,107.7 L84.15,0.9 L96.9,0.9 L120.75,107.7 L105.45,107.7 L100.95,84.75 L80.1,84.75 L75.6,107.7 L60.3,107.7 Z" id="Shape"></path>
                <path d="M176.85,77.25 L176.85,83.85 C176.85,87.15 176.225,90.275 174.975,93.225 C173.725,96.175 172,98.8 169.8,101.1 C167.6,103.4 165.025,105.225 162.075,106.575 C159.125,107.925 155.95,108.6 152.55,108.6 C149.65,108.6 146.7,108.2 143.7,107.4 C140.7,106.6 138,105.2 135.6,103.2 C133.2,101.2 131.225,98.625 129.675,95.475 C128.125,92.325 127.35,88.3 127.35,83.4 L127.35,24.6 C127.35,21.1 127.95,17.85 129.15,14.85 C130.35,11.85 132.05,9.25 134.25,7.05 C136.45,4.85 139.075,3.125 142.125,1.875 C145.175,0.625 148.55,0 152.25,0 C159.45,0 165.3,2.35 169.8,7.05 C172,9.35 173.725,12.075 174.975,15.225 C176.225,18.375 176.85,21.8 176.85,25.5 L176.85,31.5 L161.55,31.5 L161.55,26.4 C161.55,23.4 160.7,20.8 159,18.6 C157.3,16.4 155,15.3 152.1,15.3 C148.3,15.3 145.775,16.475 144.525,18.825 C143.275,21.175 142.65,24.15 142.65,27.75 L142.65,82.35 C142.65,85.45 143.325,88.05 144.675,90.15 C146.025,92.25 148.45,93.3 151.95,93.3 C152.95,93.3 154.025,93.125 155.175,92.775 C156.325,92.425 157.4,91.85 158.4,91.05 C159.3,90.25 160.05,89.15 160.65,87.75 C161.25,86.35 161.55,84.6 161.55,82.5 L161.55,77.25 L176.85,77.25 Z" id="Path"></path>
                <polygon id="Path" points="189.3 107.7 189.3 0.9 204.6 0.9 204.6 46.65 223.5 46.65 223.5 0.9 238.8 0.9 238.8 107.7 223.5 107.7 223.5 60.15 204.6 60.15 204.6 107.7"></polygon>
                <polygon id="Path" points="252.6 107.7 252.6 0.9 267.3 0.9 290.4 65.25 290.7 65.25 290.7 0.9 306 0.9 306 107.7 291.6 107.7 268.2 43.5 267.9 43.5 267.9 107.7"></polygon>
                <path d="M350.7,70.35 L343.2,31.65 L342.9,31.65 L335.4,70.35 L350.7,70.35 Z M312.9,107.7 L336.75,0.9 L349.5,0.9 L373.35,107.7 L358.05,107.7 L353.55,84.75 L332.7,84.75 L328.2,107.7 L312.9,107.7 Z" id="Shape"></path>
                <polygon id="Path" points="380.85 107.7 380.85 0.9 396.15 0.9 396.15 46.65 415.05 46.65 415.05 0.9 430.35 0.9 430.35 107.7 415.05 107.7 415.05 60.15 396.15 60.15 396.15 107.7"></polygon>
                <polygon id="Path" points="444.75 107.7 444.75 0.9 459.45 0.9 479.1 57.45 479.4 57.45 498.9 0.9 513.75 0.9 513.75 107.7 498.45 107.7 498.45 42.75 498.15 42.75 483 88.65 475.35 88.65 460.35 42.75 460.05 42.75 460.05 107.7"></polygon>
                <polygon id="Path" points="528.15 107.7 528.15 0.9 573.75 0.9 573.75 15.3 543.45 15.3 543.45 46.65 569.85 46.65 569.85 61.05 543.45 61.05 543.45 92.4 573.75 92.4 573.75 107.7"></polygon>
            </g>
            <g id="Logo" transform="translate(204, 50)" fill-rule="nonzero">
                <path d="M17.2371808,11.7554859 C12.5084204,11.7554859 9.13452931,13.0173742 7.19520621,15.5145848 C4.35263674,19.2604006 5.68094023,24.3876521 5.73407237,24.6134637 C7.9124901,31.3745285 38.4501876,83.4041762 47.7748781,99.1844217 L55.4790383,112.826099 C58.7200988,49.0409649 105.68891,11.6757877 105.68891,11.6757877 M87.1856426,124.993358 C87.1856426,190.252909 140.224802,243.3452 205.43122,243.3452 C260.555815,243.3452 311.323575,216.287657 370.061155,155.597471 C396.427979,128.367249 467.213272,47.0750757 481.12061,31.0690186 C487.562882,24.0290101 486.46039,19.1142872 485.676691,17.3343606 C484.53435,14.6910366 481.705063,13.0173742 478.304607,13.0040912 L353.523777,12.9775251 L348.316827,20.2699113 C327.914085,48.8550024 273.70602,124.833962 268.299825,132.059933 L262.641252,139.843792 C248.946443,159.037777 234.786728,178.829499 205.484353,178.829499 C176.620318,178.829499 152.431911,155.039583 151.568514,125.790341 C151.15674,111.776739 156.908294,97.6967217 167.335476,87.149992 C177.696244,76.6829605 191.616864,70.8384252 205.510919,71.1040859 C215.778705,71.2900484 235.039105,74.3717124 248.787046,92.7421497 L252.532862,97.7631369 L290.309814,42.7182403 L287.108602,40.1014824 C267.290314,23.9360289 235.437596,6.66808352 205.43122,6.66808352 C140.224802,6.66808352 87.1856426,59.747091 87.1856426,124.993358" id="path2441" fill="#FFDD00"></path>
                <path d="M51.8262037,95.2526433 L11.6583062,24.5736146 C11.6583062,24.5736146 9.99792658,22.2623665 11.3926455,19.4729292 C11.3926455,19.4729292 11.990382,17.0819829 16.4800478,17.2280963 L91.8479879,17.2280963 C91.8479879,17.2280963 60.314063,47.6196801 51.8262037,95.2526433 M121.801233,6.13676213 L18.0075968,6.01721481 C18.0075968,6.01721481 6.46463929,5.41947824 2.02810563,13.3494501 C2.02810563,13.3494501 -3.37808958,21.7576112 3.4626734,32.9286435 L60.1679496,132.524839 C60.1679496,132.524839 52.2379778,55.1511609 121.801233,6.13676213 M477.746719,28.1201849 C466.668668,40.8586154 393.864354,124.581584 366.859944,152.475958 C309.038893,212.196483 259.254078,238.842251 205.457787,238.842251 C142.722013,238.842251 91.6885915,187.768981 91.6885915,124.993358 C91.6885915,62.2177355 142.722013,11.1577493 205.457787,11.1577493 C233.04665,11.1577493 264.168801,27.0841082 284.584825,43.754317 L251.789012,89.3948249 C236.420541,69.9351788 217.399235,66.8269486 205.617183,66.601137 C190.474523,66.3089103 175.371712,72.6582009 164.147548,83.9886297 C152.870251,95.3987567 146.667074,110.674247 147.105414,125.936454 C148.021944,157.56336 174.216088,183.319165 205.510919,183.319165 C237.111259,183.319165 252.599277,161.641252 266.280803,142.473832 L271.91281,134.743106 C277.744062,126.932682 340.466553,38.9989905 355.848308,17.4539079 L478.291324,17.4804739 C479.911854,17.4804739 481.598799,18.5165507 481.744913,20.4293077 C481.86446,22.1162531 482.063705,23.3117263 477.70687,28.0803358 L477.746719,28.1201849 Z M350.083471,6.32272462 C349.286489,7.45178258 269.442166,119.427767 262.986611,128.06174 L257.208491,136.004994 C243.925456,154.614526 231.372988,172.174698 205.510919,172.174698 C180.180171,172.174698 158.980447,151.267202 158.223314,125.591095 C157.877955,113.383986 162.925509,101.083896 172.07752,91.8256203 C181.176399,82.6470432 193.30381,77.5065087 205.391371,77.7456033 C216.482705,77.9581319 236.885447,81.810212 248.773763,105.294618 L249.06599,105.799373 L250.99203,109.81085 L299.52824,41.9478242 C278.142554,21.7310451 239.528771,0 205.457787,0 C136.571967,0 80.5441252,56.0544073 80.5441252,124.993358 C80.5441252,193.919027 136.571967,250 205.457787,250 C279.404442,250 337.557569,198.754051 374.856331,160.23325 C404.158706,129.947931 486.792466,34.7085702 487.616014,33.7521917 L487.562882,33.6990596 C494.855268,24.6400298 493.008926,17.4539079 491.786887,14.6644705 C489.595186,9.61691727 484.574199,6.468838 478.610116,6.34929069 L478.610116,6.33600765 L478.27804,6.33600765 L350.229584,6.30944158" id="path2445" fill="#231F20"></path>
            </g>
        </g>
    </g>
</svg>