<?xml version="1.0" encoding="UTF-8"?>
<svg width="980px" height="680px" viewBox="0 0 980 680" version="1.1" xmlns="http://www.w3.org/2000/svg" xmlns:xlink="http://www.w3.org/1999/xlink">
    <title>BE Bancontact</title>
    <defs>
        <linearGradient x1="50%" y1="0%" x2="50%" y2="100%" id="linearGradient-1">
            <stop stop-color="#FFFFFF" offset="0%"></stop>
            <stop stop-color="#EDEDED" offset="100%"></stop>
        </linearGradient>
        <rect id="path-2" x="0" y="0" width="900" height="600" rx="80"></rect>
        <filter x="-6.7%" y="-10.0%" width="113.3%" height="120.0%" filterUnits="objectBoundingBox" id="filter-4">
            <feMorphology radius="2.5" operator="dilate" in="SourceAlpha" result="shadowSpreadOuter1"></feMorphology>
            <feOffset dx="0" dy="0" in="shadowSpreadOuter1" result="shadowOffsetOuter1"></feOffset>
            <feGaussianBlur stdDeviation="17.5" in="shadowOffsetOuter1" result="shadowBlurOuter1"></feGaussianBlur>
            <feColorMatrix values="0 0 0 0 0   0 0 0 0 0   0 0 0 0 0  0 0 0 0.5 0" type="matrix" in="shadowBlurOuter1"></feColorMatrix>
        </filter>
    </defs>
    <g id="BE-Bancontact" stroke="none" stroke-width="1" fill="none" fill-rule="evenodd">
        <g transform="translate(40, 40)">
            <mask id="mask-3" fill="white">
                <use xlink:href="#path-2"></use>
            </mask>
            <g id="Rectangle">
                <use fill="black" fill-opacity="1" filter="url(#filter-4)" xlink:href="#path-2"></use>
                <use fill="url(#linearGradient-1)" fill-rule="evenodd" xlink:href="#path-2"></use>
            </g>
            <g id="Logo" mask="url(#mask-3)">
                <g transform="translate(72.4852, 141.0968)">
                    <polygon id="Path" fill="#2D78BB" points="199.424575 131.143768 337.898371 131.143768 415.421388 48.1232295 554.333392 48.1232295 436.335871 179.745042 0 179.745042 0 91.8245397 234.043024 91.8245397"></polygon>
                    <polygon id="Path" fill="#F8E14B" points="554.333392 48.1232295 415.381551 48.1232295 337.858534 131.621813 198.428647 131.621813 316.426169 0 753.240085 0 753.240085 87.4424575 519.236898 87.4424575"></polygon>
                    <path d="M697.189271,311.572592 C690.85517,315.516466 682.569051,317.468484 674.760977,317.468484 C652.332684,317.468484 632.334455,300.776735 632.334455,277.671211 C632.334455,254.565687 650.380666,237.873938 673.287004,237.873938 C681.573123,237.873938 690.85517,239.347911 697.189271,243.291785 L697.189271,267.831445 C692.329143,263.409525 684.999115,261.935552 676.712996,261.935552 C668.904922,261.935552 659.662712,268.30949 659.662712,278.627302 C659.662712,287.47114 668.944759,292.888987 676.712996,292.888987 C685.47716,292.888987 690.85517,292.410942 697.189271,287.47114 L697.189271,311.572592 L697.189271,311.572592 Z M754.236013,292.888987 L754.236013,311.572592 C734.237783,326.312323 711.331445,314.042493 711.331445,296.832861 L711.331445,262.453435 L701.571353,262.453435 L701.571353,239.865793 L711.331445,239.865793 L711.331445,221.700071 L738.619865,206.96034 L738.619865,239.865793 L754.236013,239.865793 L754.236013,260.501416 L740.093839,260.501416 L740.093839,292.410942 C740.093839,298.306834 749.853931,297.788952 754.236013,292.888987 L754.236013,292.888987 Z M556.763456,264.405453 L561.145538,243.291785 C588.433959,233.969901 627.43449,239.347911 627.43449,263.927408 L627.43449,315.994511 L602.137925,315.994511 L601.141997,313.52461 C589.429887,320.894476 546.525319,324.320467 552.381374,290.458924 C555.807365,270.301346 578.713704,265.401381 592.855878,265.401381 C600.185907,265.401381 603.094016,258.509561 593.851806,258.031516 C585.52585,257.513633 568.953612,258.509561 556.763456,264.405453 Z M96.5651558,264.405453 L100.469193,243.291785 C127.757613,233.969901 166.758144,239.347911 166.758144,263.927408 L166.758144,315.994511 L140.90386,315.994511 L140.425814,313.52461 C129.231586,320.894476 84.8530453,324.320467 91.6651912,290.458924 C95.0911827,270.301346 117.519476,265.401381 131.66165,265.401381 C138.991678,265.401381 141.899788,258.509561 133.135623,258.031516 C124.809667,257.513633 107.759384,258.509561 96.5651558,264.405453 Z M409.04745,278.627302 C409.04745,301.692989 390.005312,317.906693 367.098973,317.906693 C344.192635,317.906693 324.67245,300.697061 324.67245,277.631374 C324.67245,255.043732 344.152797,237.356055 366.581091,237.356055 C390.045149,237.395892 409.04745,255.083569 409.04745,278.627302 L409.04745,278.627302 Z M547.521246,292.888987 L547.521246,311.572592 C527.044972,326.312323 504.616678,314.042493 504.616678,296.832861 L504.616678,262.453435 L494.856586,262.453435 L494.856586,239.865793 L504.616678,239.865793 L504.616678,221.700071 L532.383144,206.96034 L532.383144,239.865793 L547.481409,239.865793 L547.481409,260.501416 L532.86119,260.501416 L532.86119,292.410942 C532.901027,298.306834 543.139164,297.788952 547.521246,292.888987 Z" id="Shape" fill="#2D78BB"></path>
                    <path d="M51.2305241,201.542493 C76.5669263,201.542493 95.0911827,235.443874 71.7067989,256.557542 C100.947238,274.723265 87.8009915,314.998584 55.1345609,315.516466 L0.517882436,315.516466 L0.517882436,201.58233 L51.2305241,201.58233 L51.2305241,201.542493 Z M319.85216,311.572592 C313.518059,315.516466 306.188031,317.468484 297.901912,317.468484 C274.995574,317.468484 255.47539,300.776735 255.47539,277.671211 C255.47539,254.565687 273.521601,237.873938 295.949894,237.873938 C304.236013,237.873938 313.478222,239.347911 319.85216,243.291785 L319.85216,267.831445 C314.47415,263.409525 308.14005,261.935552 299.853931,261.935552 C291.567812,261.935552 282.285765,268.30949 282.285765,278.627302 C282.285765,287.47114 292.045857,292.888987 299.853931,292.888987 C308.14005,292.888987 313.518059,292.410942 319.85216,287.47114 L319.85216,311.572592 L319.85216,311.572592 Z M250.137217,266.357472 L250.137217,315.954674 L222.848796,315.954674 L222.848796,273.249292 C222.848796,258.031516 200.898548,258.509561 200.898548,273.249292 L200.898548,315.994511 L173.610127,315.994511 L173.610127,239.825956 L201.376593,239.825956 L201.376593,246.199894 C224.282932,229.030099 250.137217,244.765758 250.137217,266.357472 L250.137217,266.357472 Z M490.95255,266.357472 L490.95255,315.954674 L463.664129,315.954674 L463.664129,273.249292 C463.664129,258.031516 441.713881,258.509561 441.713881,273.249292 L441.713881,315.994511 L414.42546,315.994511 L414.42546,239.825956 L441.713881,239.825956 L441.713881,246.199894 C465.138102,229.030099 490.95255,244.765758 490.95255,266.357472 Z M593.851806,258.031516 C603.133853,258.509561 600.185907,265.401381 592.855878,265.401381 C578.713704,265.401381 555.807365,270.301346 552.381374,290.458924 C546.525319,324.360305 589.429887,320.894476 601.141997,313.52461 L602.137925,315.994511 L627.474327,315.994511 L627.474327,263.887571 C627.474327,239.347911 588.473796,233.930064 561.185375,243.251948 L556.803293,264.365616 C568.953612,258.509561 585.52585,257.513633 593.851806,258.031516 Z" id="Shape" fill="#2D78BB"></path>
                    <path d="M133.095786,258.031516 C141.85995,258.509561 138.951841,265.401381 131.621813,265.401381 C117.479639,265.401381 95.0513456,270.301346 91.6253541,290.458924 C84.8132082,324.360305 129.151912,320.894476 140.385977,313.52461 L140.864023,315.994511 L166.718307,315.994511 L166.718307,263.887571 C166.718307,239.347911 127.717776,233.930064 100.429356,243.251948 L96.5253187,264.365616 C107.759384,258.509561 124.809667,257.513633 133.095786,258.031516 Z M366.660765,237.395892 C344.232472,237.395892 324.752125,255.083569 324.752125,277.671211 C324.752125,300.736898 344.232472,317.94653 367.178647,317.94653 C390.084986,317.94653 409.127125,301.732826 409.127125,278.667139 C409.04745,255.083569 390.045149,237.395892 366.660765,237.395892 L366.660765,237.395892 Z M532.901027,292.410942 L532.901027,260.501416 L547.521246,260.501416 L547.521246,239.865793 L532.422982,239.865793 L532.422982,206.96034 L504.656516,221.700071 L504.656516,239.865793 L494.896424,239.865793 L494.896424,262.453435 L504.656516,262.453435 L504.656516,296.832861 C504.656516,314.042493 527.084809,326.312323 547.561084,311.572592 L547.561084,292.888987 C543.139164,297.788952 532.901027,298.306834 532.901027,292.410942 L532.901027,292.410942 Z" id="Shape" fill="#2D78BB"></path>
                    <path d="M0.517882436,201.542493 L0.517882436,315.476629 L55.1345609,315.476629 C87.8009915,314.998584 100.947238,274.723265 71.7067989,256.517705 C95.0911827,235.404037 76.5669263,201.502656 51.2305241,201.502656 L0.517882436,201.502656 L0.517882436,201.542493 Z M319.85216,287.47114 C313.518059,292.371105 308.14005,292.888987 299.853931,292.888987 C292.045857,292.888987 282.285765,287.47114 282.285765,278.627302 C282.285765,268.30949 291.527975,261.935552 299.853931,261.935552 C308.14005,261.935552 314.47415,263.409525 319.85216,267.831445 L319.85216,243.291785 C313.518059,239.347911 304.236013,237.873938 295.949894,237.873938 C273.521601,237.873938 255.47539,254.565687 255.47539,277.671211 C255.47539,300.736898 274.955737,317.468484 297.901912,317.468484 C306.188031,317.468484 313.518059,315.516466 319.85216,311.572592 L319.85216,287.47114 Z M201.376593,246.239731 L201.376593,239.865793 L173.57029,239.865793 L173.57029,315.994511 L200.858711,315.994511 L200.858711,273.249292 C200.858711,258.509561 222.808959,258.031516 222.808959,273.249292 L222.808959,315.994511 L250.097426,315.994511 L250.097426,266.357472 C250.137217,244.765758 224.282932,229.030099 201.376593,246.239731 L201.376593,246.239731 Z M441.713881,246.239731 L441.713881,239.865793 L414.42546,239.865793 L414.42546,315.994511 L441.713881,315.994511 L441.713881,273.249292 C441.713881,258.509561 463.664129,258.031516 463.664129,273.249292 L463.664129,315.994511 L490.95255,315.994511 L490.95255,266.357472 C490.95255,244.765758 465.138102,229.030099 441.713881,246.239731 L441.713881,246.239731 Z M697.189271,287.47114 C690.85517,292.371105 685.47716,292.888987 676.712996,292.888987 C668.904922,292.888987 659.662712,287.47114 659.662712,278.627302 C659.662712,268.30949 668.944759,261.935552 676.712996,261.935552 C684.999115,261.935552 692.329143,263.409525 697.189271,267.831445 L697.189271,243.291785 C690.85517,239.347911 681.573123,237.873938 673.287004,237.873938 C650.380666,237.873938 632.334455,254.565687 632.334455,277.671211 C632.334455,300.736898 652.332684,317.468484 674.760977,317.468484 C682.569051,317.468484 690.85517,315.516466 697.189271,311.572592 L697.189271,287.47114 Z M740.093839,292.410942 L740.093839,260.501416 L754.236013,260.501416 L754.236013,239.865793 L738.619865,239.865793 L738.619865,206.96034 L711.331445,221.700071 L711.331445,239.865793 L701.571353,239.865793 L701.571353,262.453435 L711.331445,262.453435 L711.331445,296.832861 C711.331445,314.042493 734.237783,326.312323 754.236013,311.572592 L754.236013,292.888987 C749.853931,297.788952 740.093839,298.306834 740.093839,292.410942 L740.093839,292.410942 Z M382.71512,278.627302 C382.71512,286.993095 375.385092,293.845078 367.098973,293.845078 C358.812854,293.845078 352.000708,286.953258 352.000708,277.631374 C352.000708,267.791608 358.812854,262.413598 367.098973,262.413598 C375.424929,262.453435 382.71512,267.831445 382.71512,278.627302 Z" id="Shape" fill="#2D78BB"></path>
                    <path d="M31.7103399,269.783463 L43.9004958,269.783463 C58.9987606,269.783463 60.4727337,292.84915 44.3785411,292.84915 L31.7103399,292.84915 L31.7103399,269.783463 Z M139.429887,282.571176 L139.429887,291.893059 C139.429887,302.210871 118.953612,305.158817 118.953612,294.36296 C118.953612,284.523194 133.613669,281.575248 139.429887,282.571176 Z M600.185907,282.571176 L600.185907,291.893059 C600.185907,302.210871 580.187677,305.158817 580.187677,294.36296 C580.187677,284.523194 594.807897,281.575248 600.185907,282.571176 Z M43.9004958,224.60818 C58.04267,230.982118 53.1427054,246.239731 44.3785411,246.239731 L31.7103399,246.239731 L31.7103399,224.60818 C31.7103399,224.130135 40.4745042,223.652089 43.9004958,224.60818 L43.9004958,224.60818 Z" id="Shape" fill="#2D78BB"></path>
                    <path d="M367.13881,262.453435 C358.852691,262.453435 352.040545,267.871282 352.040545,277.671211 C352.040545,286.993095 358.852691,293.884915 367.13881,293.884915 C375.424929,293.884915 382.754958,286.993095 382.754958,278.667139 C382.71512,267.831445 375.424929,262.453435 367.13881,262.453435 Z M580.187677,294.36296 C580.187677,305.158817 600.185907,302.210871 600.185907,291.893059 L600.185907,282.571176 C594.807897,281.575248 580.187677,284.523194 580.187677,294.36296 Z M31.7103399,224.60818 L31.7103399,246.239731 L44.3785411,246.239731 C53.1427054,246.239731 58.04267,231.021955 43.9004958,224.60818 C40.4745042,223.652089 31.7103399,224.130135 31.7103399,224.60818 Z M118.953612,294.36296 C118.953612,305.158817 139.429887,302.210871 139.429887,291.893059 L139.429887,282.571176 C133.613669,281.575248 118.953612,284.523194 118.953612,294.36296 Z M31.7103399,292.888987 L44.3785411,292.888987 C60.4727337,292.888987 58.9987606,269.8233 43.9004958,269.8233 L31.7103399,269.8233 L31.7103399,292.888987 Z" id="Shape" fill="#FFFFFF"></path>
                </g>
            </g>
        </g>
    </g>
</svg>