<?xml version="1.0" encoding="UTF-8"?>
<svg width="980px" height="680px" viewBox="0 0 980 680" version="1.1" xmlns="http://www.w3.org/2000/svg" xmlns:xlink="http://www.w3.org/1999/xlink">
    <title>BE Bancontact Mister Cash</title>
    <defs>
        <linearGradient x1="50%" y1="0%" x2="50%" y2="100%" id="linearGradient-1">
            <stop stop-color="#FFFFFF" offset="0%"></stop>
            <stop stop-color="#EDEDED" offset="100%"></stop>
        </linearGradient>
        <rect id="path-2" x="0" y="0" width="900" height="600" rx="80"></rect>
        <filter x="-6.7%" y="-10.0%" width="113.3%" height="120.0%" filterUnits="objectBoundingBox" id="filter-4">
            <feMorphology radius="2.5" operator="dilate" in="SourceAlpha" result="shadowSpreadOuter1"></feMorphology>
            <feOffset dx="0" dy="0" in="shadowSpreadOuter1" result="shadowOffsetOuter1"></feOffset>
            <feGaussianBlur stdDeviation="17.5" in="shadowOffsetOuter1" result="shadowBlurOuter1"></feGaussianBlur>
            <feColorMatrix values="0 0 0 0 0   0 0 0 0 0   0 0 0 0 0  0 0 0 0.5 0" type="matrix" in="shadowBlurOuter1"></feColorMatrix>
        </filter>
    </defs>
    <g id="BE-Bancontact-Mister-Cash" stroke="none" stroke-width="1" fill="none" fill-rule="evenodd">
        <g transform="translate(40, 40)">
            <mask id="mask-3" fill="white">
                <use xlink:href="#path-2"></use>
            </mask>
            <g id="Rectangle">
                <use fill="black" fill-opacity="1" filter="url(#filter-4)" xlink:href="#path-2"></use>
                <use fill="url(#linearGradient-1)" fill-rule="evenodd" xlink:href="#path-2"></use>
            </g>
            <path d="M820,0 C864.18278,0 900,35.81722 900,80 L900,520 C900,564.18278 864.18278,600 820,600 L80,600 C35.81722,600 0,564.18278 0,520 L0,80 C0,35.81722 35.81722,0 80,0 L820,0 Z M80,30 C52.3857625,30 30,52.3857625 30,80 L30,520 C30,547.614237 52.3857625,570 80,570 L820,570 C847.614237,570 870,547.614237 870,520 L870,80 C870,52.3857625 847.614237,30 820,30 L80,30 Z" id="Rectangle" fill="#2D78BB" fill-rule="nonzero" mask="url(#mask-3)"></path>
            <g id="Logo" mask="url(#mask-3)">
                <g transform="translate(72.4852, 76.5995)">
                    <polygon id="Path" fill="#2D78BB" points="199.424575 273.641112 337.898371 273.641112 415.421388 190.620574 554.333392 190.620574 436.335871 322.242387 0 322.242387 0 234.321884 234.043024 234.321884"></polygon>
                    <polygon id="Path" fill="#F8E14B" points="554.333392 190.620574 415.381551 190.620574 337.858534 274.119157 198.428647 274.119157 316.426169 142.497344 753.240085 142.497344 753.240085 229.939802 519.236898 229.939802"></polygon>
                    <path d="M697.189271,110.069936 C690.85517,114.01381 682.569051,115.965829 674.760977,115.965829 C652.332684,115.965829 632.334455,99.2740793 632.334455,76.1685552 C632.334455,53.0630312 650.380666,36.3712819 673.287004,36.3712819 C681.573123,36.3712819 690.85517,37.845255 697.189271,41.7891289 L697.189271,66.328789 C692.329143,61.9068697 684.999115,60.4328966 676.712996,60.4328966 C668.904922,60.4328966 659.662712,66.8068343 659.662712,77.1246459 C659.662712,85.9684844 668.944759,91.3863314 676.712996,91.3863314 C685.47716,91.3863314 690.85517,90.9082861 697.189271,85.9684844 L697.189271,110.069936 L697.189271,110.069936 Z M754.236013,91.3863314 L754.236013,110.069936 C734.237783,124.809667 711.331445,112.539837 711.331445,95.3302054 L711.331445,60.950779 L701.571353,60.950779 L701.571353,38.3631374 L711.331445,38.3631374 L711.331445,20.197415 L738.619865,5.45768414 L738.619865,38.3631374 L754.236013,38.3631374 L754.236013,58.9987606 L740.093839,58.9987606 L740.093839,90.9082861 C740.093839,96.8041785 749.853931,96.286296 754.236013,91.3863314 L754.236013,91.3863314 Z M556.763456,62.9027975 L561.145538,41.7891289 C588.433959,32.467245 627.43449,37.845255 627.43449,62.4247521 L627.43449,114.491856 L602.137925,114.491856 L601.141997,112.021955 C589.429887,119.39182 546.525319,122.817812 552.381374,88.9562677 C555.807365,68.7986898 578.713704,63.8987252 592.855878,63.8987252 C600.185907,63.8987252 603.094016,57.0069051 593.851806,56.5288598 C585.52585,56.0109773 568.953612,57.0069051 556.763456,62.9027975 Z M96.5651558,62.9027975 L100.469193,41.7891289 C127.757613,32.467245 166.758144,37.845255 166.758144,62.4247521 L166.758144,114.491856 L140.90386,114.491856 L140.425814,112.021955 C129.231586,119.39182 84.8530453,122.817812 91.6651912,88.9562677 C95.0911827,68.7986898 117.519476,63.8987252 131.66165,63.8987252 C138.991678,63.8987252 141.899788,57.0069051 133.135623,56.5288598 C124.809667,56.0109773 107.759384,57.0069051 96.5651558,62.9027975 Z M409.04745,77.1246459 C409.04745,100.190333 390.005312,116.404037 367.098973,116.404037 C344.192635,116.404037 324.67245,99.1944051 324.67245,76.1287181 C324.67245,53.5410765 344.152797,35.8533994 366.581091,35.8533994 C390.045149,35.8932365 409.04745,53.5809136 409.04745,77.1246459 L409.04745,77.1246459 Z M547.521246,91.3863314 L547.521246,110.069936 C527.044972,124.809667 504.616678,112.539837 504.616678,95.3302054 L504.616678,60.950779 L494.856586,60.950779 L494.856586,38.3631374 L504.616678,38.3631374 L504.616678,20.197415 L532.383144,5.45768414 L532.383144,38.3631374 L547.481409,38.3631374 L547.481409,58.9987606 L532.86119,58.9987606 L532.86119,90.9082861 C532.901027,96.8041785 543.139164,96.286296 547.521246,91.3863314 Z" id="Shape" fill="#2D78BB"></path>
                    <path d="M51.2305241,0.0398371105 C76.5669263,0.0398371105 95.0911827,33.9412181 71.7067989,55.0548867 C100.947238,73.2206091 87.8009915,113.495928 55.1345609,114.01381 L0.517882436,114.01381 L0.517882436,0.079674221 L51.2305241,0.079674221 L51.2305241,0.0398371105 Z M319.85216,110.069936 C313.518059,114.01381 306.188031,115.965829 297.901912,115.965829 C274.995574,115.965829 255.47539,99.2740793 255.47539,76.1685552 C255.47539,53.0630312 273.521601,36.3712819 295.949894,36.3712819 C304.236013,36.3712819 313.478222,37.845255 319.85216,41.7891289 L319.85216,66.328789 C314.47415,61.9068697 308.14005,60.4328966 299.853931,60.4328966 C291.567812,60.4328966 282.285765,66.8068343 282.285765,77.1246459 C282.285765,85.9684844 292.045857,91.3863314 299.853931,91.3863314 C308.14005,91.3863314 313.518059,90.9082861 319.85216,85.9684844 L319.85216,110.069936 L319.85216,110.069936 Z M250.137217,64.8548159 L250.137217,114.452018 L222.848796,114.452018 L222.848796,71.746636 C222.848796,56.5288598 200.898548,57.0069051 200.898548,71.746636 L200.898548,114.491856 L173.610127,114.491856 L173.610127,38.3233003 L201.376593,38.3233003 L201.376593,44.697238 C224.282932,27.5274433 250.137217,43.263102 250.137217,64.8548159 L250.137217,64.8548159 Z M490.95255,64.8548159 L490.95255,114.452018 L463.664129,114.452018 L463.664129,71.746636 C463.664129,56.5288598 441.713881,57.0069051 441.713881,71.746636 L441.713881,114.491856 L414.42546,114.491856 L414.42546,38.3233003 L441.713881,38.3233003 L441.713881,44.697238 C465.138102,27.5274433 490.95255,43.263102 490.95255,64.8548159 Z M593.851806,56.5288598 C603.133853,57.0069051 600.185907,63.8987252 592.855878,63.8987252 C578.713704,63.8987252 555.807365,68.7986898 552.381374,88.9562677 C546.525319,122.857649 589.429887,119.39182 601.141997,112.021955 L602.137925,114.491856 L627.474327,114.491856 L627.474327,62.384915 C627.474327,37.845255 588.473796,32.4274079 561.185375,41.7492918 L556.803293,62.8629603 C568.953612,57.0069051 585.52585,56.0109773 593.851806,56.5288598 Z" id="Shape" fill="#2D78BB"></path>
                    <path d="M133.095786,56.5288598 C141.85995,57.0069051 138.951841,63.8987252 131.621813,63.8987252 C117.479639,63.8987252 95.0513456,68.7986898 91.6253541,88.9562677 C84.8132082,122.857649 129.151912,119.39182 140.385977,112.021955 L140.864023,114.491856 L166.718307,114.491856 L166.718307,62.384915 C166.718307,37.845255 127.717776,32.4274079 100.429356,41.7492918 L96.5253187,62.8629603 C107.759384,57.0069051 124.809667,56.0109773 133.095786,56.5288598 Z M366.660765,35.8932365 C344.232472,35.8932365 324.752125,53.5809136 324.752125,76.1685552 C324.752125,99.2342422 344.232472,116.443874 367.178647,116.443874 C390.084986,116.443874 409.127125,100.23017 409.127125,77.164483 C409.04745,53.5809136 390.045149,35.8932365 366.660765,35.8932365 L366.660765,35.8932365 Z M532.901027,90.9082861 L532.901027,58.9987606 L547.521246,58.9987606 L547.521246,38.3631374 L532.422982,38.3631374 L532.422982,5.45768414 L504.656516,20.197415 L504.656516,38.3631374 L494.896424,38.3631374 L494.896424,60.950779 L504.656516,60.950779 L504.656516,95.3302054 C504.656516,112.539837 527.084809,124.809667 547.561084,110.069936 L547.561084,91.3863314 C543.139164,96.286296 532.901027,96.8041785 532.901027,90.9082861 L532.901027,90.9082861 Z" id="Shape" fill="#2D78BB"></path>
                    <path d="M0.517882436,0.0398371105 L0.517882436,113.973973 L55.1345609,113.973973 C87.8009915,113.495928 100.947238,73.2206091 71.7067989,55.0150496 C95.0911827,33.901381 76.5669263,2.84217094e-14 51.2305241,2.84217094e-14 L0.517882436,2.84217094e-14 L0.517882436,0.0398371105 Z M319.85216,85.9684844 C313.518059,90.868449 308.14005,91.3863314 299.853931,91.3863314 C292.045857,91.3863314 282.285765,85.9684844 282.285765,77.1246459 C282.285765,66.8068343 291.527975,60.4328966 299.853931,60.4328966 C308.14005,60.4328966 314.47415,61.9068697 319.85216,66.328789 L319.85216,41.7891289 C313.518059,37.845255 304.236013,36.3712819 295.949894,36.3712819 C273.521601,36.3712819 255.47539,53.0630312 255.47539,76.1685552 C255.47539,99.2342422 274.955737,115.965829 297.901912,115.965829 C306.188031,115.965829 313.518059,114.01381 319.85216,110.069936 L319.85216,85.9684844 Z M201.376593,44.7370751 L201.376593,38.3631374 L173.57029,38.3631374 L173.57029,114.491856 L200.858711,114.491856 L200.858711,71.746636 C200.858711,57.0069051 222.808959,56.5288598 222.808959,71.746636 L222.808959,114.491856 L250.097426,114.491856 L250.097426,64.8548159 C250.137217,43.263102 224.282932,27.5274433 201.376593,44.7370751 L201.376593,44.7370751 Z M441.713881,44.7370751 L441.713881,38.3631374 L414.42546,38.3631374 L414.42546,114.491856 L441.713881,114.491856 L441.713881,71.746636 C441.713881,57.0069051 463.664129,56.5288598 463.664129,71.746636 L463.664129,114.491856 L490.95255,114.491856 L490.95255,64.8548159 C490.95255,43.263102 465.138102,27.5274433 441.713881,44.7370751 L441.713881,44.7370751 Z M697.189271,85.9684844 C690.85517,90.868449 685.47716,91.3863314 676.712996,91.3863314 C668.904922,91.3863314 659.662712,85.9684844 659.662712,77.1246459 C659.662712,66.8068343 668.944759,60.4328966 676.712996,60.4328966 C684.999115,60.4328966 692.329143,61.9068697 697.189271,66.328789 L697.189271,41.7891289 C690.85517,37.845255 681.573123,36.3712819 673.287004,36.3712819 C650.380666,36.3712819 632.334455,53.0630312 632.334455,76.1685552 C632.334455,99.2342422 652.332684,115.965829 674.760977,115.965829 C682.569051,115.965829 690.85517,114.01381 697.189271,110.069936 L697.189271,85.9684844 Z M740.093839,90.9082861 L740.093839,58.9987606 L754.236013,58.9987606 L754.236013,38.3631374 L738.619865,38.3631374 L738.619865,5.45768414 L711.331445,20.197415 L711.331445,38.3631374 L701.571353,38.3631374 L701.571353,60.950779 L711.331445,60.950779 L711.331445,95.3302054 C711.331445,112.539837 734.237783,124.809667 754.236013,110.069936 L754.236013,91.3863314 C749.853931,96.286296 740.093839,96.8041785 740.093839,90.9082861 L740.093839,90.9082861 Z M382.71512,77.1246459 C382.71512,85.4904391 375.385092,92.3424221 367.098973,92.3424221 C358.812854,92.3424221 352.000708,85.450602 352.000708,76.1287181 C352.000708,66.2889518 358.812854,60.9109419 367.098973,60.9109419 C375.424929,60.950779 382.71512,66.328789 382.71512,77.1246459 Z" id="Shape" fill="#2D78BB"></path>
                    <path d="M31.7103399,68.2808074 L43.9004958,68.2808074 C58.9987606,68.2808074 60.4727337,91.3464943 44.3785411,91.3464943 L31.7103399,91.3464943 L31.7103399,68.2808074 Z M139.429887,81.0685198 L139.429887,90.3904037 C139.429887,100.708215 118.953612,103.656161 118.953612,92.8603045 C118.953612,83.0205382 133.613669,80.0725921 139.429887,81.0685198 Z M600.185907,81.0685198 L600.185907,90.3904037 C600.185907,100.708215 580.187677,103.656161 580.187677,92.8603045 C580.187677,83.0205382 594.807897,80.0725921 600.185907,81.0685198 Z M43.9004958,23.1055241 C58.04267,29.4794618 53.1427054,44.7370751 44.3785411,44.7370751 L31.7103399,44.7370751 L31.7103399,23.1055241 C31.7103399,22.6274788 40.4745042,22.1494334 43.9004958,23.1055241 L43.9004958,23.1055241 Z" id="Shape" fill="#2D78BB"></path>
                    <path d="M367.13881,60.950779 C358.852691,60.950779 352.040545,66.3686261 352.040545,76.1685552 C352.040545,85.4904391 358.852691,92.3822592 367.13881,92.3822592 C375.424929,92.3822592 382.754958,85.4904391 382.754958,77.164483 C382.71512,66.328789 375.424929,60.950779 367.13881,60.950779 Z M580.187677,92.8603045 C580.187677,103.656161 600.185907,100.708215 600.185907,90.3904037 L600.185907,81.0685198 C594.807897,80.0725921 580.187677,83.0205382 580.187677,92.8603045 Z M31.7103399,23.1055241 L31.7103399,44.7370751 L44.3785411,44.7370751 C53.1427054,44.7370751 58.04267,29.5192989 43.9004958,23.1055241 C40.4745042,22.1494334 31.7103399,22.6274788 31.7103399,23.1055241 Z M118.953612,92.8603045 C118.953612,103.656161 139.429887,100.708215 139.429887,90.3904037 L139.429887,81.0685198 C133.613669,80.0725921 118.953612,83.0205382 118.953612,92.8603045 Z M31.7103399,91.3863314 L44.3785411,91.3863314 C60.4727337,91.3863314 58.9987606,68.3206445 43.9004958,68.3206445 L31.7103399,68.3206445 L31.7103399,91.3863314 Z" id="Shape" fill="#FFFFFF"></path>
                    <path d="M339.332507,424.90262 C339.332507,398.371105 328.616324,381.20131 301.766112,381.20131 C276.42971,381.20131 261.291608,400.36296 261.291608,421.954674 C261.291608,445.538244 279.337819,462.708038 304.674221,462.708038 C326.624469,462.708038 337.818697,453.8642 337.818697,453.8642 L337.818697,431.276558 C328.53665,436.176523 318.33835,439.124469 311.008322,439.124469 C296.388102,439.124469 288.580028,435.180595 288.580028,424.862783 L339.332507,424.90262 L339.332507,424.90262 Z M53.1427054,428.846494 L75.5709986,396.419086 L75.5709986,460.75602 L104.811438,460.75602 L105.289483,349.251948 L75.5311615,349.251948 L53.1028683,382.635446 L30.1965297,349.251948 L0.438208215,349.251948 L0.916253541,460.75602 L30.1566926,460.75602 L30.1566926,396.419086 L53.1427054,428.846494 L53.1427054,428.846494 Z M371.042847,416.058782 C373.950956,409.684844 380.285057,404.266997 388.571176,404.266997 C392.953258,404.266997 397.853222,406.219016 401.239377,408.688916 L401.239377,384.627302 C398.809313,381.679356 394.905276,380.683428 391.001239,380.683428 C384.189093,380.683428 374.907047,384.627302 371.00301,389.527266 L371.00301,381.679356 L344.67068,381.679356 L344.67068,460.75602 L371.00301,460.75602 L371.00301,416.058782 L371.042847,416.058782 Z M146.759915,455.856055 C156.041962,459.799929 167.23619,461.273902 174.566218,461.273902 C202.850567,461.273902 211.136686,446.534171 211.136686,434.264341 C211.136686,420.002656 196.516466,412.154745 183.330382,410.202727 C181.378364,410.202727 176.000354,408.728754 176.000354,406.258853 C176.000354,404.306834 177.474327,401.836933 183.808428,401.836933 C189.186438,401.836933 198.906693,403.788952 203.806657,406.258853 L202.850567,385.623229 C195.520538,383.153329 185.282401,381.20131 177.514164,381.20131 C161.419972,381.20131 147.277797,391.041076 147.277797,406.736898 C147.277797,419.006728 156.041962,425.420503 170.184136,428.368449 C176.040191,428.846494 181.378364,431.316395 181.378364,434.264341 C181.378364,438.208215 177.474327,439.164306 173.57029,439.164306 C170.144299,439.164306 161.380135,440.160234 146.759915,434.264341 L146.759915,455.856055 L146.759915,455.856055 Z" id="Shape" fill="#2D78BB"></path>
                    <path d="M246.711225,436.694405 L246.711225,404.266997 L261.80949,404.266997 L261.80949,383.153329 L245.715297,383.153329 L245.715297,349.251948 L217.908994,363.991678 L217.908994,383.153329 L208.148902,383.153329 L208.148902,405.74097 L217.908994,405.74097 L217.908994,441.116324 C217.908994,458.804001 240.815333,470.595786 261.80949,455.856055 L261.80949,436.694405 C257.427408,441.116324 246.711225,442.112252 246.711225,436.694405 L246.711225,436.694405 Z M141.899788,459.760092 L141.899788,383.153329 L112.659348,383.153329 L112.659348,459.760092 L141.899788,459.760092 Z M127.279568,380.683428 C136.043732,380.683428 143.373761,373.313562 143.373761,364.469724 C143.373761,356.143768 136.043732,349.251948 127.279568,349.251948 C118.993449,349.251948 112.181129,356.143768 112.181129,364.469724 C112.141466,373.313562 118.953612,380.683428 127.279568,380.683428 Z M607.954143,455.856055 C617.23619,459.799929 628.430418,461.273902 635.760446,461.273902 C664.044795,461.273902 672.808959,446.534171 672.808959,434.264341 C672.808959,420.002656 658.188739,412.154745 644.52461,410.202727 C642.572592,410.202727 637.194582,408.728754 637.194582,406.258853 C637.194582,404.306834 638.668555,401.836933 645.480701,401.836933 C650.818874,401.836933 660.100921,403.788952 665.478931,406.258853 L664.044795,385.623229 C656.714766,383.153329 646.476629,381.20131 638.668555,381.20131 C622.574363,381.20131 608.432188,391.041076 608.432188,406.736898 C608.432188,419.006728 617.196353,425.420503 631.338527,428.368449 C637.194582,428.846494 642.532755,431.316395 642.532755,434.264341 C642.532755,438.208215 638.628718,439.164306 634.724681,439.164306 C631.29869,439.164306 622.534525,440.160234 607.914306,434.264341 L607.954143,455.856055 L607.954143,455.856055 Z M522.184844,428.328612 C512.902797,435.180595 505.612606,436.654568 493.42245,436.654568 C474.898194,436.654568 458.325956,421.436792 458.325956,405.701133 C458.325956,388.491501 467.608003,372.317635 493.42245,372.317635 C505.134561,372.317635 514.894653,374.269653 522.184844,381.161473 L522.184844,354.629958 C512.902797,349.21211 500.234596,347.738137 489.040368,347.738137 C455.37801,347.738137 429.563562,371.799752 429.563562,404.705205 C429.563562,437.132613 457.847911,461.672273 490.992387,461.672273 C502.186615,461.672273 512.942635,459.202373 522.184844,453.824363 L522.184844,428.328612 Z M568.953612,400.36296 C578.235659,400.841006 575.287712,408.210871 567.957684,408.210871 C553.337465,408.210871 529.953081,413.110836 527.005135,433.268414 C520.671034,467.64784 564.531693,464.699894 576.243803,457.330028 L577.239731,459.282047 L603.572061,459.282047 L603.572061,406.219016 C603.572061,381.161473 563.575602,376.261508 535.331091,385.583392 L531.427054,406.697061 C543.61721,400.841006 560.667493,399.845078 568.953612,400.36296 L568.953612,400.36296 Z M704.001416,389.049221 L704.001416,349.251948 L676.712996,349.251948 L676.712996,460.75602 L704.001416,460.75602 L704.001416,417.05471 C704.001416,402.314979 726.42971,401.836933 726.42971,417.05471 L726.42971,460.75602 L754.236013,460.75602 L754.236013,410.16289 C754.236013,387.575248 727.903683,371.839589 704.001416,389.049221 L704.001416,389.049221 Z" id="Shape" fill="#2D78BB"></path>
                    <path d="M287.663775,409.684844 C289.137748,402.314979 294.993803,399.884915 300.331976,399.884915 C305.670149,399.884915 312.522132,402.354816 312.522132,409.684844 L287.663775,409.684844 Z M575.32755,425.380666 L575.32755,434.70255 C575.32755,445.498407 554.851275,447.968307 554.851275,437.17245 C554.851275,427.372521 569.94954,424.90262 575.32755,425.380666 L575.32755,425.380666 Z" id="Shape" fill="#FFFFFF"></path>
                </g>
            </g>
        </g>
    </g>
</svg>