<?xml version="1.0" encoding="UTF-8"?>
<svg width="980px" height="680px" viewBox="0 0 980 680" version="1.1" xmlns="http://www.w3.org/2000/svg" xmlns:xlink="http://www.w3.org/1999/xlink">
    <title>BE Belfius</title>
    <defs>
        <linearGradient x1="50%" y1="0%" x2="50%" y2="100%" id="linearGradient-1">
            <stop stop-color="#FFFFFF" offset="0%"></stop>
            <stop stop-color="#EDEDED" offset="100%"></stop>
        </linearGradient>
        <rect id="path-2" x="0" y="0" width="900" height="600" rx="80"></rect>
        <filter x="-6.7%" y="-10.0%" width="113.3%" height="120.0%" filterUnits="objectBoundingBox" id="filter-4">
            <feMorphology radius="2.5" operator="dilate" in="SourceAlpha" result="shadowSpreadOuter1"></feMorphology>
            <feOffset dx="0" dy="0" in="shadowSpreadOuter1" result="shadowOffsetOuter1"></feOffset>
            <feGaussianBlur stdDeviation="17.5" in="shadowOffsetOuter1" result="shadowBlurOuter1"></feGaussianBlur>
            <feColorMatrix values="0 0 0 0 0   0 0 0 0 0   0 0 0 0 0  0 0 0 0.5 0" type="matrix" in="shadowBlurOuter1"></feColorMatrix>
        </filter>
    </defs>
    <g id="BE-Belfius" stroke="none" stroke-width="1" fill="none" fill-rule="evenodd">
        <g transform="translate(40, 40)">
            <mask id="mask-3" fill="white">
                <use xlink:href="#path-2"></use>
            </mask>
            <g id="Rectangle">
                <use fill="black" fill-opacity="1" filter="url(#filter-4)" xlink:href="#path-2"></use>
                <use fill="url(#linearGradient-1)" fill-rule="evenodd" xlink:href="#path-2"></use>
            </g>
            <g id="Logo" mask="url(#mask-3)" fill-rule="nonzero">
                <g transform="translate(50, 214)">
                    <path d="M83.9291007,1.68376998 C66.499583,1.68376998 49.039347,1.78206828 31.6098292,1.9663776 C12.429373,2.1629742 0.172803376,15.1260628 0.0990796489,34.3740992 C-0.0299368731,68.710925 -0.036080517,103.139905 0.0990796489,137.519737 C0.17894702,157.314557 12.5829641,169.50969 32.4453648,169.595702 C53.5856435,169.694 74.6952039,169.644851 95.7924771,169.644851 C117.620844,169.644851 139.49836,169.460541 161.339014,169.737005 C166.40752,169.804585 168.004868,168.551282 167.980571,163.286179 C167.765265,120.286816 167.943431,77.3120264 167.795984,34.3310937 C167.795984,15.0584828 155.527127,2.15068692 136.377389,1.95409031 C118.874147,1.77592464 101.518353,1.67148269 84.0089681,1.67148269 L83.9291007,1.68376998 Z M84.0212554,50.4458716 C94.569892,50.4458716 105.08781,50.4765899 115.62416,50.5380263 C125.097659,50.5933191 129.207756,54.2917927 129.27617,62.1802315 C129.34906,70.056383 124.532443,74.2954973 115.157243,74.3815083 C104.627037,74.4736629 94.0784004,74.3815083 83.5604821,74.3815083 L83.5174766,74.3815083 C73.2207294,74.3815083 62.8994076,74.455232 52.6088041,74.3323591 C43.6820895,74.2156299 39.0436384,70.0133775 39.0003014,62.4075463 C38.9576273,54.4822457 43.0984433,50.5933191 52.3753456,50.5318827 C62.9116949,50.4704462 73.4726188,50.4458716 84.0212554,50.4458716 L84.0212554,50.4458716 Z M83.9291007,96.916191 C94.6128975,96.916191 105.278263,96.9102505 115.96206,96.9655433 C124.507869,97.0085488 129.201613,101.690005 129.054165,109.449428 C128.919005,116.809513 124.47715,120.919611 115.96206,121.042484 C105.179965,121.196075 94.3548644,121.091633 83.5543384,121.091633 L83.5113329,121.091633 C72.9626963,121.091633 62.4017725,121.202218 51.8531359,121.042484 C43.3196145,120.913467 38.8900473,116.803369 38.7610307,109.400279 C38.6197269,101.634713 43.3196145,97.0024051 51.8961414,96.9655433 C62.5799381,96.916191 73.245304,96.916191 83.9291007,96.916191 L83.9291007,96.916191 Z" id="Shape" fill="#AA0024"></path>
                    <path d="M248.658625,2.19369242 C242.521124,2.19369242 236.420486,2.24284158 230.282986,2.28584708 C219.384161,2.36571445 215.667257,6.06418808 215.648826,16.8708577 C215.60582,39.915666 215.648826,62.9973361 215.648826,86.0728626 L215.648826,86.1220118 C215.648826,109.658312 215.556671,133.22533 215.648826,156.773917 C215.685688,166.124543 219.29815,169.755436 228.550478,169.866022 C241.556572,170.013469 254.581097,169.792298 267.587192,169.958176 C289.298829,170.23464 305.260016,160.238932 313.836543,140.917172 C322.634241,121.060915 319.1938,102.046337 303.785541,85.9745643 C301.64141,83.7444216 300.584703,82.4665437 303.177321,79.5237382 C316.263282,64.6438327 319.113933,47.472348 311.170201,29.6434934 C302.907,11.0589706 287.382012,2.32270895 267.077269,2.24898522 C260.945913,2.218267 254.796125,2.19983607 248.658625,2.19369242 L248.658625,2.19369242 Z M243.872726,25.1156278 C252.209651,25.3920918 260.552719,24.9128876 268.889644,25.3490863 C282.374942,26.0556053 291.799292,35.9407284 291.510541,48.4921929 C291.215646,62.0143531 282.030898,70.7874766 267.808363,70.9779296 C259.956786,71.0885152 252.080634,70.7936203 244.241345,71.1192334 C239.940794,71.2973991 238.699778,69.7492008 238.914805,65.6513903 C239.221988,59.7657794 239.00696,53.8678813 239.00696,47.9822704 C239.00696,42.0905159 239.172839,36.1926178 238.957811,30.3131506 C238.828794,26.6515388 239.824065,24.9866113 243.866582,25.1217715 L243.866582,25.1156278 L243.872726,25.1156278 Z M243.639268,94.5080857 C252.449253,94.7046823 261.265382,94.2193345 270.06308,94.7415442 C284.248754,95.5770798 295.18444,107.05955 295.172163,120.415832 C295.166009,133.587805 284.727958,144.935115 270.769599,146.028683 C261.763017,146.735203 252.694999,146.212993 243.657699,146.452595 C240.161965,146.54475 238.890231,145.285303 238.982386,141.777282 C239.172839,134.687517 239.031535,127.603895 239.031535,120.501843 C239.031535,113.399791 239.166695,106.279307 238.982386,99.1833987 C238.890231,95.693809 240.143534,94.434362 243.657699,94.5080857 L243.639268,94.5080857 Z" id="Shape" fill="#2D3C49"></path>
                    <path d="M374.935081,45.1070451 C353.032991,45.5555311 330.528823,64.932584 331.966436,91.8171697 C332.556226,102.838867 332.316624,113.934288 331.966436,124.974416 C331.438083,141.40252 338.509417,153.7451 351.374207,163.261605 C369.82357,176.931212 401.125435,173.613645 414.457143,156.620326 C419.568654,150.095776 419.488787,144.646364 414.223684,139.651581 C409.050736,134.748953 403.201987,135.068423 397.347094,140.542409 C388.309794,148.98992 378.105202,150.869875 368.453537,145.918098 C358.218226,140.665282 354.163421,132.266921 355.127974,119.641733 C355.441299,115.629933 357.468702,115.500917 360.411507,115.525492 C368.269228,115.599215 376.108517,115.525492 383.978525,115.525492 L397.25494,115.525492 C420.760521,115.525492 422.812498,113.387503 421.700499,89.8512036 C420.465626,63.5072586 400.603226,44.5786917 374.935081,45.1070451 L374.935081,45.1070451 Z M377.27581,68.624914 C388.475673,68.8092233 397.175072,76.9249769 397.936884,87.5043317 C398.194917,91.0860761 397.046056,92.3516667 393.49503,92.2287938 C387.867452,92.0383409 382.209156,92.1796447 376.575434,92.1796447 C371.187459,92.1796447 365.781052,92.0076226 360.39922,92.2287938 C356.627023,92.3823849 355.177123,91.3502528 355.582603,87.221724 C356.657741,76.2430324 365.572168,68.4160301 377.27581,68.6126267 L377.27581,68.624914 Z" id="Shape" fill="#2D3C49"></path>
                    <path d="M704.707455,95.2883285 C704.707455,106.3346 705.100649,117.399303 704.615301,128.421 C703.810483,146.686053 694.957492,160.447816 678.36351,167.838619 C660.958567,175.585754 644.253999,172.974706 629.748856,160.165208 C620.680838,152.166184 615.569326,141.912442 615.415735,129.797176 C615.114696,106.236302 615.182276,82.6692839 615.305149,59.083835 C615.342011,51.8097606 619.931313,47.2143149 626.480437,47.0422929 C633.238446,46.8641272 638.190223,51.6623131 638.245516,59.2497134 C638.40525,81.3361132 638.116499,103.4348 638.380676,125.539631 C638.577272,141.94316 652.013422,152.141609 666.500134,147.374142 C675.844616,144.30232 680.870117,137.384577 680.937697,126.70078 C681.072857,105.836965 680.962272,84.9731504 680.999133,64.0970484 C681.005277,61.6518781 680.99299,59.1575587 681.435332,56.7738249 C682.651774,50.2001259 687.210357,46.9501383 693.458443,47.2081713 C699.694242,47.4662043 704.375699,50.9803687 704.547721,57.7260897 C704.86719,70.2345487 704.639875,82.7614386 704.639875,95.2760412 L704.707455,95.2760412 L704.707455,95.2883285 L704.707455,95.2883285 Z" id="Path" fill="#2D3C49"></path>
                    <path d="M519.783774,117.405447 C519.783774,130.411541 519.814492,143.417635 519.771487,156.423729 C519.746912,165.553184 515.925565,169.847591 508.012552,169.810964 C500.382146,169.773867 496.333485,165.172278 496.315054,156.12269 C496.253618,129.858613 496.130745,103.600679 496.42564,77.3611756 C496.487076,71.9486253 495.270635,70.1976868 489.63077,70.4495762 C480.654906,70.8427694 475.758422,66.3456221 475.7338,59.0039676 C475.715416,51.9387771 481.06653,46.747398 489.667631,47.4170552 C498.127429,48.0744251 496.487076,42.7724604 496.247474,38.2507385 C494.637839,8.42334734 521.878756,-4.49673579 543.547388,1.38887507 C552.252932,3.75417798 557.726919,9.03771173 558.310565,15.79572 C559.127669,25.2385007 551.902744,30.5896145 543.080471,26.7559808 C537.526617,24.3415287 532.144785,22.4738609 526.142445,24.9436058 C521.012503,27.0508757 516.761101,42.0843723 520.176967,46.3234866 C521.270536,47.6873755 522.88017,47.1774531 524.274777,47.195884 C530.160388,47.2450332 536.052143,47.1590222 541.943897,47.2327459 C551.165507,47.3433315 555.619649,51.1523907 555.681085,58.8442329 C555.748665,66.9231246 551.736866,70.4925817 542.330947,70.5970236 C536.439192,70.6584601 530.541294,70.8304821 524.661827,70.5294436 C520.809762,70.332847 519.624039,71.5370012 519.685476,75.4505023 C519.925078,89.4395795 519.783774,103.4348 519.783774,117.423877 L519.783774,117.405447 L519.783774,117.405447 Z" id="Path" fill="#2D3C49"></path>
                    <path d="M761.843344,44.9104485 C772.084798,45.3343599 783.290804,50.5626009 792.10079,60.7610498 C796.616368,65.9892907 796.579506,74.0866134 792.149939,78.0369764 C786.510074,83.0686208 779.856508,82.927317 774.720421,76.7038057 C768.88396,69.6324716 761.788051,67.3900415 753.143944,68.9751017 C748.425625,69.8352118 744.917605,72.4769787 743.848611,77.2874519 C742.804191,82.011914 745.433671,85.1636033 749.230443,87.5964863 C754.630706,91.0615015 760.528604,93.4390917 766.512513,95.6139416 C772.060223,97.6290568 777.313039,100.203244 782.369258,103.23206 C795.221761,110.93619 800.972212,122.2835 799.866356,137.132687 C798.772787,151.895863 790.38057,161.559815 777.485061,167.414708 C760.147698,175.290859 737.317917,171.61696 725.18422,159.538556 C718.880842,153.265896 717.830279,146.557037 722.327426,141.291934 C727.561811,135.160577 734.325963,135.234301 740.813651,141.488531 C748.996984,149.376969 761.714327,150.685566 770.413727,144.535778 C778.928817,138.515007 778.990254,129.231961 770.389152,123.426218 C763.637288,118.867634 755.865578,116.453182 748.413338,113.350642 C735.935597,108.140832 724.477701,101.825166 721.190852,86.9391164 C716.116202,63.9618882 733.170958,44.7199955 761.843344,44.9104485 L761.843344,44.9104485 Z" id="Path" fill="#2D3C49"></path>
                    <path d="M462.647886,86.0728626 C462.654029,109.375704 462.727753,132.684689 462.623311,155.98753 C462.580305,165.485604 458.273611,169.927458 450.120996,169.460541 C443.436711,169.079635 439.621508,165.559327 439.609221,158.789032 C439.504779,110.21124 439.510923,61.6580218 439.59079,13.0617985 C439.596934,6.4020885 444.124799,2.13225598 450.637062,1.94794667 C457.499512,1.75135006 462.518869,6.4020885 462.574162,13.9403396 C462.752327,37.9804182 462.635598,62.0266404 462.647886,86.0728626 L462.647886,86.0728626 Z" id="Path" fill="#2D3C49"></path>
                    <path d="M593.507501,108.189981 C593.507501,124.151168 593.550506,140.106211 593.48907,156.061254 C593.452208,165.540897 589.882751,169.681713 582.000456,169.687863 C574.185741,169.694 570.339819,165.467173 570.315245,156.085829 C570.216947,124.415344 570.229234,92.7448599 570.309101,61.1050938 C570.333676,52.2582466 574.781674,47.1528785 581.969737,47.1467292 C589.249955,47.1405912 593.458351,52.1415174 593.48907,61.0805192 C593.550506,76.7898167 593.507501,92.5052578 593.507501,108.214555 L593.507501,108.189981 Z" id="Path" fill="#2D3C49"></path>
                    <path d="M593.507501,16.6496865 C593.525932,29.5759133 589.305248,34.5768394 579.973053,33.4402653 C572.053896,32.4695696 568.398428,24.2125122 570.468836,11.931368 C571.722139,4.49755889 577.663043,0.510333994 585.041559,2.37800174 C593.003722,4.39926059 593.931412,10.5490481 593.507501,16.6496865 Z" id="Path" fill="#2E3D4A"></path>
                </g>
            </g>
        </g>
    </g>
</svg>