<?xml version="1.0" encoding="UTF-8"?>
<svg width="980px" height="680px" viewBox="0 0 980 680" version="1.1" xmlns="http://www.w3.org/2000/svg" xmlns:xlink="http://www.w3.org/1999/xlink">
    <title>CH Carte Blanche</title>
    <defs>
        <linearGradient x1="50%" y1="0%" x2="50%" y2="100%" id="linearGradient-1">
            <stop stop-color="#FFFFFF" offset="0%"></stop>
            <stop stop-color="#EDEDED" offset="100%"></stop>
        </linearGradient>
        <rect id="path-2" x="2.84217094e-14" y="0" width="900" height="600" rx="80"></rect>
        <filter x="-6.7%" y="-10.0%" width="113.3%" height="120.0%" filterUnits="objectBoundingBox" id="filter-3">
            <feMorphology radius="2.5" operator="dilate" in="SourceAlpha" result="shadowSpreadOuter1"></feMorphology>
            <feOffset dx="0" dy="0" in="shadowSpreadOuter1" result="shadowOffsetOuter1"></feOffset>
            <feGaussianBlur stdDeviation="17.5" in="shadowOffsetOuter1" result="shadowBlurOuter1"></feGaussianBlur>
            <feColorMatrix values="0 0 0 0 0   0 0 0 0 0   0 0 0 0 0  0 0 0 0.5 0" type="matrix" in="shadowBlurOuter1"></feColorMatrix>
        </filter>
    </defs>
    <g id="CH-Carte-Blanche" stroke="none" stroke-width="1" fill="none" fill-rule="evenodd">
        <g transform="translate(40, 40)">
            <g id="Rectangle">
                <use fill="black" fill-opacity="1" filter="url(#filter-3)" xlink:href="#path-2"></use>
                <use fill="url(#linearGradient-1)" fill-rule="evenodd" xlink:href="#path-2"></use>
            </g>
            <g id="Logo" transform="translate(99.5022, 49.66)" fill-rule="nonzero">
                <path d="M349.699579,500 C400.865114,500 523.537234,497.67212 574.702768,488.376543 C693.297111,460.465895 702.60066,393.021142 700.280752,334.887911 C697.773497,272.130808 678.357221,187.63752 651.443098,104.650977 C623.53245,18.6031123 565.399219,9.29956312 514.233684,6.97566887 C483.939351,5.60046558 398.537234,0 352.023474,0 C305.509713,0 216.615776,5.60046558 186.329414,6.97566887 C135.167866,9.29956312 77.0266624,18.6031123 49.1200008,104.650977 C22.2058773,187.633534 2.79358735,272.130808 0.286332652,334.887911 C-2.0415477,393.021142 7.26200152,460.465895 125.868303,488.376543 C177.029851,497.67212 298.538031,500 349.699579,500 Z" id="Path" fill="#33348E"></path>
                <path d="M349.791259,471.348233 C396.436561,471.348233 507.87586,471.527313 554.525148,463.040913 C664.158746,445.601741 672.924172,380.664243 670.807555,327.661118 C668.519535,270.444689 648.166527,193.991358 624.102462,118.179789 C599.376705,40.2834912 545.656083,37.4214739 499.006796,35.3008706 C471.383147,34.0492363 394.27211,31.147358 351.860044,31.147358 C309.455949,31.147358 227.653277,34.0452502 200.041586,35.3008706 C153.392299,37.4214739 100.385188,39.7294238 74.9419339,118.179789 C50.3995378,193.839886 31.0629837,267.953379 28.7709782,325.169808 C26.6503749,378.172933 36.8268792,443.110431 147.540709,463.040913 C196.302628,470.514844 303.145958,471.348233 349.791259,471.348233 Z" id="Path" fill="#FFFFFF"></path>
                <path d="M349.121595,458.138015 C385.167866,458.138015 494.287257,459.305941 558.244176,447.674511 C633.194748,434.050033 658.15967,391.821327 655.919484,326.744316 C653.591604,259.299563 626.848882,168.607896 605.913904,112.790586 C584.986897,56.9772633 545.452792,51.1615485 496.615138,48.8376543 C454.223002,46.8246755 390.983581,44.1858797 349.121595,44.1858797 C307.263596,44.1858797 244.996783,46.8246755 202.608632,48.8376543 C153.770978,51.1615485 114.236873,56.9772633 93.3058805,112.790586 C72.3748878,168.60391 45.6321664,259.299563 43.3082721,326.744316 C41.0601137,391.821327 66.0330082,434.050033 140.979595,447.674511 C204.936513,459.305941 313.075325,458.138015 349.121595,458.138015 Z" id="Path" fill="#33348E"></path>
                <path d="M92.915243,294.014478 L131.36513,294.014478 C148.963746,294.014478 166.917124,298.227781 166.917124,319.198635 C166.917124,327.154884 162.942986,334.987563 154.982752,337.518735 L154.982752,338.244204 C164.868271,341.740011 171.134415,348.97079 171.134415,359.816958 C171.134415,378.503779 153.77895,384.893492 137.874425,384.893492 L92.915243,384.893492 L92.915243,294.014478 Z M251.446287,213.953729 C245.630572,208.142001 238.072933,208.142001 230.144587,208.142001 C220.263054,208.142001 210.162285,217.93584 210.162285,227.825345 C210.162285,237.826461 220.625789,247.102108 230.515294,247.102108 C238.108808,247.102108 240.982783,245.938168 245.630572,243.614273 L253.188211,269.193055 C247.886703,271.724226 235.167069,275.008769 225.090217,274.713798 C199.184576,273.952454 178.923247,254.587997 178.923247,228.670398 C178.923247,202.150898 199.774518,180.936892 226.413601,180.936892 C233.887532,180.936892 241.604614,182.268248 248.592242,184.675851 L251.446287,213.953729 L251.446287,213.953729 Z M266.178899,376.578494 L265.461402,376.578494 C259.793173,382.613444 254.73083,386.464014 245.933515,386.464014 C228.578051,386.464014 218.935684,368.869384 218.935684,353.315635 C218.935684,337.167958 228.697634,319.573328 246.774582,319.573328 C254.491664,319.573328 260.873405,322.343665 265.461402,328.613795 L266.178899,328.613795 L265.979595,320.86881 L292.802038,321.016295 L292.802038,385.021047 L265.979595,385.021047 L266.178899,376.578494 Z" id="Shape" fill="#FFFFFF"></path>
                <path d="M257.756277,363.886763 C264.899362,363.886763 267.821171,358.194617 267.821171,352.2075 C267.821171,346.236328 263.735422,341.859594 257.756277,341.859594 C251.777133,341.859594 247.982365,346.818298 247.982365,352.502471 C247.978383,358.633088 250.896205,363.886763 257.756277,363.886763 L257.756277,363.886763 Z" id="Path" fill="#33348E"></path>
                <path d="M444.496926,343.605504 C441.252244,340.827195 437.505313,340.11767 433.052843,340.11767 C427.033837,340.11767 420.050196,345.638413 420.050196,351.430211 C420.050196,356.492554 427.384614,362.212602 432.44297,362.212602 C437.270133,362.212602 440.881537,361.829937 444.49294,359.302752 L444.469023,381.927836 C439.641861,383.494372 432.925288,384.941325 427.504197,384.941325 C406.772509,384.941325 391.940244,373.246118 391.940244,351.792946 C391.940244,332.874932 405.799901,318.050639 424.973025,318.050639 C431.474349,318.050639 438.230782,319.250454 444.488954,321.295322 L444.488954,343.605504 L444.496926,343.605504 L444.496926,343.605504 Z M486.908993,286.883351 L457.260407,286.883351 L457.260407,384.626423 L486.331009,384.626423 L486.331009,351.609586 C486.331009,347.623489 489.436178,344.012086 494.263341,344.012086 C498.715811,344.012086 501.442301,348.233362 501.442301,351.609586 L501.442301,384.626423 L525.865114,384.626423 L525.865114,345.343442 C525.865114,331.236647 523.911927,319.190663 507.999429,319.190663 C499.086518,319.190663 492.692819,319.043177 486.908993,325.911222 L486.908993,286.883351 Z M388.065758,231.978858 C380.001885,231.978858 368.888648,234.302752 368.888648,249.669154 L368.888648,274.251411 L344.653181,274.251411 L344.653181,210.258618 L368.888648,210.258618 L368.888648,218.816767 C372.826911,212.821678 381.165825,210.832616 388.065758,209.887911 L388.065758,231.978858 L388.065758,231.978858 Z M429.927743,202.756784 L439.817249,202.621257 L439.817249,226.167129 L429.927743,226.139226 L429.927743,274.482605 L406.987758,274.482605 L406.987758,226.139226 L396.795309,226.167129 L396.795309,202.621257 L406.987758,202.756784 L406.987758,182.555247 L429.927743,182.555247 L429.927743,202.756784 L429.927743,202.756784 Z M182.845566,294.18588 L210.317743,294.18588 L210.317743,385.08881 L182.845566,385.08881 L182.845566,294.18588 Z M565.299566,358.322172 C565.299566,363.500112 566.148605,369.29191 572.657901,369.29191 C575.910555,369.29191 581.07255,366.995918 581.682423,363.982429 L609.178517,363.982429 C605.084796,379.412609 587.844928,386.527791 573.140218,386.527791 C553.006445,386.527791 534.570749,376.155968 534.570749,354.100896 C534.570749,332.886891 550.957591,319.629134 571.334517,319.629134 C594.115058,319.629134 612.076409,334.333844 610.501901,358.322172 L565.299566,358.322172 L565.299566,358.322172 Z" id="Shape" fill="#FFFFFF"></path>
                <path d="M579.884694,345.056443 C579.884694,340.727542 576.76358,336.741446 572.303138,336.741446 C567.599544,336.741446 565.303553,340.603973 565.303553,345.056443 L579.884694,345.056443 Z" id="Path" fill="#33348E"></path>
                <path d="M335.748242,330.81412 L337.976469,330.985522 C344.003447,323.993909 348.579486,319.290315 358.584588,319.290315 C374.489113,319.290315 380.763229,331.224688 380.763229,345.323512 L380.763229,384.74202 L353.187414,384.74202 L353.187414,353.522912 C353.187414,349.791926 349.66769,344.482445 344.366182,344.482445 C339.176285,344.482445 336.473711,349.791926 336.473711,353.522912 L336.473711,384.74202 L308.080746,384.74202 L308.080746,320.737268 L335.748242,320.737268 L335.748242,330.81412 L335.748242,330.81412 Z M304.55305,266.111802 L303.835553,266.111802 C298.167324,272.146752 293.104981,275.997321 284.307666,275.997321 C266.952202,275.997321 257.313821,258.402691 257.313821,242.848943 C257.313821,226.701266 267.071785,209.106636 285.152719,209.106636 C292.865815,209.106636 299.251542,211.876973 303.835553,218.147103 L304.55305,218.147103 L304.644731,210.406104 L331.096467,210.553589 L331.096467,274.550368 L304.644731,274.550368 L304.55305,266.111802 L304.55305,266.111802 Z" id="Shape" fill="#FFFFFF"></path>
                <path d="M296.126442,253.420071 C303.269527,253.420071 306.191336,247.731911 306.191336,241.74878 C306.191336,235.773622 302.105587,231.392902 296.126442,231.392902 C290.147298,231.392902 286.352534,236.359578 286.352534,242.039765 C286.352534,248.166396 289.270356,253.420071 296.126442,253.420071 L296.126442,253.420071 Z" id="Path" fill="#33348E"></path>
                <path d="M477.513763,246.113556 C477.513763,251.287509 478.35483,257.075321 484.872098,257.075321 C488.11678,257.075321 493.278775,254.795274 493.888648,251.773813 L521.392714,251.773813 C517.29102,267.203992 500.051153,274.311203 485.346443,274.311203 C465.220642,274.311203 446.776973,263.947352 446.776973,241.89228 C446.776973,220.68226 463.171788,207.424503 483.540741,207.424503 C506.329255,207.424503 524.282634,222.129213 522.708125,246.117542 L477.513763,246.117542 L477.513763,246.113556 L477.513763,246.113556 Z" id="Path" fill="#FFFFFF"></path>
                <path d="M492.094904,232.851813 C492.094904,228.51494 488.965819,224.540802 484.505377,224.540802 C479.809755,224.540802 477.513763,228.395357 477.513763,232.851813 L492.094904,232.851813 Z M126.545939,328.964572 C131.36513,328.964572 136.782235,328.482254 136.782235,322.21611 C136.782235,315.475621 130.635674,315.949967 125.82047,315.949967 L123.528464,315.949967 L123.528464,328.968558 L126.545939,328.968558 L126.545939,328.964572 L126.545939,328.964572 Z M123.528464,363.193182 L127.263437,363.193182 C132.6925,363.193182 140.52518,363.077585 140.52518,355.603654 C140.52518,348.006155 132.086613,348.121651 126.785105,348.121651 L123.528464,348.121651 L123.528464,363.193182 L123.528464,363.193182 Z" id="Shape" fill="#33348E"></path>
                <path d="M613.156625,379.675691 C613.165086,376.385056 614.480665,373.232611 616.813849,370.912136 C619.147033,368.591661 622.306616,367.29332 625.597248,367.302796 C628.87873,367.302796 632.025811,368.606411 634.34617,370.92677 C636.666528,373.247128 637.970184,376.394209 637.970184,379.675691 C637.982801,382.967288 636.685486,386.128716 634.364323,388.462591 C632.04316,390.796467 628.888865,392.111029 625.597248,392.116314 C622.296172,392.1216 619.128774,390.812599 616.794557,388.478382 C614.46034,386.144166 613.15134,382.976768 613.156625,379.675691 L613.156625,379.675691 Z" id="Path" fill="#FFFFFF"></path>
                <path d="M636.475306,379.675691 C636.475306,373.667261 631.605678,368.795849 625.597248,368.793601 C622.70563,368.785174 619.92954,369.92793 617.881859,371.969628 C615.834178,374.011326 614.683304,376.78406 614.683316,379.675691 C614.607907,383.618131 616.668021,387.2938 620.07026,389.28711 C623.4725,391.280421 627.686122,391.280421 631.088361,389.28711 C634.490601,387.2938 636.550715,383.618131 636.475306,379.675691 L636.475306,379.675691 Z" id="Path" fill="#33348E"></path>
                <path d="M631.763739,386.627443 L629.746775,386.627443 L625.784595,380.229759 L622.671453,380.229759 L622.671453,386.627443 L620.981348,386.627443 L620.981348,372.755828 L627.024271,372.755828 C628.200169,372.755828 629.360123,372.827577 630.404481,373.441436 C631.448838,374.023406 631.963044,375.263082 631.963044,376.423036 C631.963044,379.165471 630.049718,380.165981 627.578338,380.229759 L631.763739,386.627443 Z" id="Path" fill="#FFFFFF"></path>
                <path d="M625.270388,378.898402 C627.215603,378.898402 630.237064,379.225262 630.237064,376.391148 C630.237064,374.250614 628.351641,373.991518 626.633633,373.991518 L622.671453,373.991518 L622.671453,378.894416 L625.270388,378.894416 L625.270388,378.898402 Z" id="Path" fill="#33348E"></path>
                <path d="M293.667021,102.000223 C313.238755,76.8878153 331.30773,70.7053796 340.738834,67.2055869 C351.772349,63.1038936 365.341022,65.9579387 369.303202,71.1876973 C371.7306,69.4259574 374.380433,67.9931443 377.183715,66.9265602 C384.705479,64.028668 394.001056,63.8453076 396.663768,64.1243343 C402.830259,63.5622947 412.217517,67.7676265 414.182662,69.1707325 C419.647601,66.3645206 424.554485,66.6475334 428.20575,66.6475334 C429.608856,66.6475334 430.166909,68.1861667 428.20575,68.1861667 C425.256038,67.9071399 424.693999,68.1861667 422.453812,68.4691795 C415.585768,70.0117988 418.671007,73.3720782 419.7911,75.058197 C422.593326,78.7014892 425.678565,82.0657546 423.721391,93.2786441 C422.258494,101.601614 412.783542,106.73172 411.10141,107.855799 C409.419277,108.975892 408.861223,110.937052 410.822383,112.340158 C413.624609,115.42141 423.155365,122.711981 421.473233,137.847189 C419.7911,152.982397 402.973759,161.114034 388.40059,161.397047 C373.819449,161.676074 369.753631,144.998246 371.997803,137.424663 C372.699356,136.165056 371.85829,135.603017 371.017223,136.862623 C368.354511,140.928442 353.358816,154.947543 342.149912,159.710928 C331.925575,162.672598 325.36446,159.316305 322.247333,151.862304 C319.018595,155.366083 302.484266,165.881406 292.534969,159.431902 C268.427058,140.653401 288.891677,108.413852 291.127877,105.049587 C291.518515,104.523422 291.873277,103.949424 292.259929,103.435218 C286.663449,101.402309 281.963842,98.4645556 279.356934,95.9373705 C262.679107,76.875857 280.126251,66.1532574 286.643519,65.5234542 C296.178262,64.6823878 307.526678,69.5852865 308.650758,70.5698524 C309.770851,71.5504321 309.352311,72.2519851 308.371731,71.4109187 C302.627766,67.624127 291.693903,66.2250072 286.647505,67.2055869 C283.693807,67.7955292 278.671326,70.5379636 276.136168,77.7169234 C271.946781,91.002583 283.833321,98.6359578 293.667021,102.000223 L293.667021,102.000223 Z M342.819577,91.9353296 C342.536564,90.2332664 342.616286,88.112663 343.118534,85.840588 C343.9596,82.0577825 346.199787,82.3368092 347.188338,82.8988488 C347.861989,83.2815141 350.859533,84.9118275 342.819577,91.9353296 L342.819577,91.9353296 Z M385.442907,110.578303 C389.847543,111.574827 399.800826,112.451768 405.209959,110.650053 C408.992765,113.591792 417.821968,123.545075 410.535384,139.943876 C402.742565,157.478714 392.876976,159.846456 388.532131,159.846456 C384.187286,159.846456 374.509044,157.183743 375.772636,148.215026 C377.036229,139.246309 384.187286,126.721994 390.776304,125.462387 C400.30706,123.361714 402.547247,130.931312 400.446574,136.81479 C398.537234,142.160145 395.822702,145.08594 394.280082,147.186613 C393.439016,148.450206 394.419596,150.128352 395.539689,149.008259 C397.779875,147.186613 401.144141,143.120795 403.1053,136.675277 C405.947387,127.335853 400.865114,122.381135 394.838136,122.381135 C394.355818,122.381135 385.028352,122.145955 378.152336,128.172933 C377.31127,128.874486 376.478176,128.45196 377.179728,127.05284 C379.435859,122.684078 381.719892,116.134921 383.119012,111.985395 C383.409997,110.789566 384.259036,110.371026 385.442907,110.578303 L385.442907,110.578303 Z M388.392618,100.557256 C390.596929,95.0444848 401.566667,78.693517 408.012185,74.767212 C414.457703,70.844893 415.298769,73.364106 416.980902,77.0073982 C419.193186,81.790714 416.701875,89.9024204 415.298769,93.2666858 C413.895663,96.6309512 411.093437,103.706273 404.926946,105.667432 C399.880548,104.264326 393.43503,104.479575 389.791738,104.758602 C387.555538,105.045601 387.272525,103.363468 388.392618,100.557256 L388.392618,100.557256 Z M339.339714,119.016869 C338.658092,122.652189 337.007848,126.985076 335.692436,130.556619 C333.771138,135.794349 327.943465,143.559265 323.63848,148.027679 C323.188051,141.845244 325.384391,134.16005 327.285759,130.835645 C329.027683,127.782295 333.954498,121.552027 339.339714,119.016869 L339.339714,119.016869 Z M368.05954,73.9939092 C369.163688,76.7642463 368.892634,80.6387321 366.524893,87.3832074 C365.101856,91.4490258 363.005169,93.8606142 360.848691,95.6344271 C359.66482,94.0041137 358.927393,91.6563028 359.098795,88.7863133 C359.345933,84.557065 362.164103,79.3073759 368.05954,73.9939092 Z M341.428429,118.203705 C343.871906,117.569916 346.343286,117.825026 348.587458,119.61877 C355.59103,125.223221 348.025419,134.897478 346.622313,137.416691 C343.118534,142.885615 345.362706,141.482509 348.025419,138.118244 C349.384678,136.404222 357.831216,123.541089 349.986578,118.215664 C348.595431,117.33075 345.494247,116.019325 341.583887,116.425906 C341.835011,111.881756 339.90574,110.749705 339.196215,109.944514 C333.30875,103.917536 320.413728,111.770146 314.809277,118.777703 C309.786795,125.059791 308.503272,130.971173 308.503272,135.316018 C308.503272,137.982716 309.623365,139.102809 309.762878,136.719124 C311.305498,129.711566 315.92937,122.141969 317.751016,119.758283 C324.993753,109.410377 334.572343,108.545394 338.072136,111.491119 C339.371603,112.579323 339.730352,114.536497 339.531047,116.916196 C335.182216,118.028317 330.068054,121.312861 325.320613,129.432539 C323.439176,133.462483 319.241816,142.132243 321.485988,150.000797 C321.011643,150.415351 320.652894,150.762142 320.274215,151.013266 C317.192962,153.253452 302.894834,163.629261 295.04621,157.179757 C289.975895,152.376511 284.905581,132.840652 304.983549,105.82289 C305.824615,105.84282 306.538126,105.930514 307.379193,105.882681 C317.380309,105.300711 332.120894,102.936956 341.444373,95.9812175 C342.297398,97.9742658 344.015406,99.6484263 346.622313,100.55327 C350.2098,101.800918 355.467461,101.127268 359.99168,98.0539877 C360.637428,98.5522498 361.526328,99.0385535 362.459074,99.2936637 C371.846331,101.856724 379.702928,89.9064065 380.675535,88.359801 C381.664087,86.8211678 380.396508,86.2591282 379.702928,87.3792213 C376.621675,92.8481457 370.164199,98.1735706 365.2613,98.1735706 C364.017638,98.1735706 362.730129,97.6354476 361.681785,96.6349373 C364.507928,94.1515992 367.031127,90.5720846 368.765079,85.7010747 C370.168185,81.7747696 371.778568,75.8354858 370.136296,72.3954845 C377.701907,66.3685066 390.63679,65.2364552 396.799295,65.5194681 C399.601521,65.5194681 407.450145,67.2016008 409.132278,70.5658663 C403.603562,73.5833413 386.865943,86.1913645 375.210597,105.603654 C370.243921,113.882777 357.273163,138.963296 350.827645,148.21104 C344.37814,157.458784 336.529516,161.947128 328.122839,156.621703 C325.902583,155.214611 324.579199,152.922606 323.989257,150.19213 C327.465133,146.955419 332.559364,141.992729 338.355149,128.168947 C340.16085,123.863962 341.077653,120.627252 341.428429,118.203705 L341.428429,118.203705 Z M340.898278,93.521796 C340.548871,93.8224877 340.191318,94.1135813 339.826018,94.3947511 C332.116908,100.393826 317.384295,104.192576 306.542112,104.160887 C307.09618,103.339552 307.379193,102.618068 308.220259,101.681336 C314.669763,92.1505788 339.056702,63.8413215 358.393256,67.7636404 C362.634462,68.859817 365.84327,69.9998406 367.485542,72.6027616 C362.339491,76.9356485 359.170545,82.3726841 358.110243,87.3832074 C357.667786,89.4878663 356.858609,94.2074046 359.106767,97.1371855 C354.255688,99.9473835 349.08572,99.0026787 347.463379,98.5960968 C346.239647,98.2891674 344.573459,96.7664785 343.568963,94.2273351 C344.612644,93.2772258 345.563009,92.2294214 346.407064,91.0982493 C351.309962,84.5092318 349.631816,80.7264262 347.180366,80.2361364 C345.354734,79.9531235 343.325811,80.4473995 341.639692,86.0518511 C340.922195,88.4873561 340.547502,91.1221659 340.898278,93.521796 L340.898278,93.521796 Z" id="Shape" fill="#FFFFFF"></path>
            </g>
        </g>
    </g>
</svg>