<?xml version="1.0" encoding="UTF-8"?>
<svg width="980px" height="680px" viewBox="0 0 980 680" version="1.1" xmlns="http://www.w3.org/2000/svg" xmlns:xlink="http://www.w3.org/1999/xlink">
    <title>CH Carte Blanche alt</title>
    <defs>
        <linearGradient x1="50%" y1="0%" x2="50%" y2="100%" id="linearGradient-1">
            <stop stop-color="#FFFFFF" offset="0%"></stop>
            <stop stop-color="#EDEDED" offset="100%"></stop>
        </linearGradient>
        <rect id="path-2" x="0" y="0" width="900" height="600" rx="80"></rect>
        <filter x="-6.7%" y="-10.0%" width="113.3%" height="120.0%" filterUnits="objectBoundingBox" id="filter-3">
            <feMorphology radius="2.5" operator="dilate" in="SourceAlpha" result="shadowSpreadOuter1"></feMorphology>
            <feOffset dx="0" dy="0" in="shadowSpreadOuter1" result="shadowOffsetOuter1"></feOffset>
            <feGaussianBlur stdDeviation="17.5" in="shadowOffsetOuter1" result="shadowBlurOuter1"></feGaussianBlur>
            <feColorMatrix values="0 0 0 0 0   0 0 0 0 0   0 0 0 0 0  0 0 0 0.5 0" type="matrix" in="shadowBlurOuter1"></feColorMatrix>
        </filter>
    </defs>
    <g id="CH-Carte-Blanche-alt" stroke="none" stroke-width="1" fill="none" fill-rule="evenodd">
        <g transform="translate(40, 40)">
            <g id="Rectangle">
                <use fill="black" fill-opacity="1" filter="url(#filter-3)" xlink:href="#path-2"></use>
                <use fill="url(#linearGradient-1)" fill-rule="evenodd" xlink:href="#path-2"></use>
            </g>
            <g id="Group-6" transform="translate(129.0512, 50.3979)">
                <path d="M320.005725,499.966088 C409.781976,500.656116 506.751296,490.636777 538.970894,486.22972 C663.475168,472.486033 641.150755,327.373266 638.576452,294.741228 C635.140671,254.389944 620.542543,168.520753 591.349665,98.1114518 C561.517997,26.1793592 507.773528,17.4235227 458.253686,8.8098584 C423.79931,1.18942874 371.00078,-0.753122041 320.038664,0.240112622 C269.080208,1.24432692 217.931719,1.18942874 183.481004,8.8098584 C133.954123,17.4235227 80.2059949,26.1793592 50.3889664,98.1114518 C21.1924281,168.520753 6.59795961,254.389944 3.16217849,294.741228 C0.584216523,327.376926 -21.7401965,472.489693 102.767737,486.22972 C134.980015,490.636777 230.236793,499.2724 320.005725,499.966088 Z" id="Fill-2" fill="#33348E"></path>
                <path d="M278.416698,193.328028 C277.394184,194.229766 276.291716,195.102506 275.141388,195.997205 C251.531514,214.37824 206.40437,226.003984 173.180558,225.906071 C174.882119,223.393365 175.75486,221.180546 178.332822,218.317958 C198.079273,189.125361 272.786398,102.39807 332.033352,114.418237 C345.028454,117.770404 354.847062,121.264743 359.88953,129.242996 C344.123056,142.515685 334.406642,159.169539 331.171591,174.523573 C329.809554,180.968056 327.341388,195.427672 334.224211,204.402538 C319.374114,213.012542 303.519803,210.117016 298.546592,208.868153 C294.796624,207.933476 289.702918,203.256151 286.621301,195.482288 C289.816374,192.567899 292.729637,189.358749 295.32252,185.897349 C310.344069,165.723537 305.192086,154.127071 297.684831,152.62258 C292.102109,151.764479 285.876375,153.268971 280.724392,170.44112 C278.489614,177.911776 277.346887,185.974206 278.416698,193.328028 Z M280.056042,268.93689 C287.530358,266.99068 295.099831,267.775864 301.982654,273.278351 C323.448967,290.450781 300.266453,320.067079 295.972571,327.800684 C285.237303,344.545753 292.105769,340.25159 300.266453,329.947625 C304.428861,324.693165 330.317151,285.294857 306.276536,268.980809 C302.018972,266.271373 292.518209,262.254797 280.54168,263.496341 C281.308565,249.58092 275.400677,246.10854 273.217137,243.651073 C255.186606,225.193462 215.686384,249.237736 198.513954,270.700389 C183.126981,289.943184 179.194582,308.050291 179.194582,321.363239 C179.194582,329.527583 182.630363,332.952666 183.057725,325.657121 C187.782346,304.190809 201.946075,281.004635 207.532738,273.70177 C229.722017,242.004409 259.053408,239.357191 269.785016,248.375976 C273.761333,251.713503 274.853103,257.705287 274.25795,264.993512 C260.934022,268.403674 245.273122,278.459612 230.718912,303.332708 C224.957137,315.678041 212.093228,342.227079 218.979711,366.34061 C217.530118,367.604112 216.423709,368.673923 215.266343,369.451788 C205.820197,376.319972 162.029472,408.090531 137.981537,388.336478 C122.452392,373.625175 106.922966,313.783068 168.426657,231.028434 C171.000959,231.09037 173.187877,231.353319 175.762179,231.203545 C206.39705,229.421748 251.546435,222.18476 280.10362,200.88258 C282.721841,206.98416 287.983338,212.106863 295.976231,214.889215 C306.970505,218.712381 323.069184,216.634696 336.926328,207.236128 C339.185036,208.962465 341.749484,210.247082 344.484539,211.022413 C373.239077,218.869474 397.294331,182.260837 400.295713,177.535935 C403.304414,172.814692 399.441272,171.09849 397.294331,174.534553 C387.851845,191.272302 368.105112,207.590292 353.072585,207.590292 C349.256739,207.590292 345.328001,205.943628 342.111249,202.880029 C350.746591,195.274238 358.476536,184.301923 363.811231,169.382289 C368.105112,157.362122 373.023707,139.170838 368.002917,128.625884 C391.181771,110.160954 430.781091,106.699272 449.673101,107.557372 C458.261147,107.557372 482.301761,112.709636 487.457403,123.013601 C470.518642,132.251697 419.235301,170.875801 383.557682,230.345726 C368.338781,255.69348 328.600949,332.521645 308.858158,360.863743 C289.108047,389.198239 265.063773,402.930947 239.303297,386.623937 C232.508029,382.315415 228.447817,375.290138 226.64772,366.932102 C237.28417,357.018618 252.897211,341.807038 270.642835,299.458586 C276.160242,286.280772 278.967932,276.370948 280.056042,268.93689 Z M361.624031,133.511259 C365.005195,142.000769 364.161734,153.871443 356.932067,174.530893 C352.575967,186.98574 346.156822,194.364899 339.529627,199.801789 C335.914794,194.8069 333.654678,187.62087 334.172973,178.821115 C334.936198,165.87331 343.58252,149.796591 361.624031,133.511259 Z M273.648158,271.419695 C271.555834,282.560083 266.498727,295.832773 262.482151,306.765111 C256.585242,322.816492 238.741084,346.594159 225.55961,360.286608 C224.179272,341.350679 230.905003,317.795702 236.721675,307.626871 C242.06003,298.279261 257.154776,279.200878 273.648158,271.419695 L273.648158,271.419695 Z M423.912626,214.889215 C430.667635,197.998033 464.27123,147.912317 484.017962,135.891869 C503.771733,123.871702 506.346035,131.597987 511.494358,142.760334 C518.256687,157.405759 510.639917,182.260556 506.346035,192.564802 C502.051872,202.869049 493.467487,224.550731 474.575476,230.561096 C459.115587,226.266932 439.365195,226.913323 428.206789,227.771424 C421.338324,228.629243 420.473185,223.477261 423.912626,214.889215 Z M414.890181,245.589964 C428.367261,248.631604 458.848979,251.322741 475.429917,245.801674 C487.019344,254.80976 514.06866,285.298517 491.747625,335.526687 C467.878744,389.242157 437.648994,396.493784 424.339987,396.493784 C411.030699,396.493784 381.399761,388.336478 385.273883,360.863743 C389.133365,333.387066 411.034359,295.03323 431.208171,291.166428 C460.404428,284.725324 467.272611,307.911497 460.831507,325.945688 C454.974857,342.318295 446.66074,351.271483 441.939497,357.716247 C439.365195,361.583049 442.366577,366.724052 445.806299,363.291931 C452.674483,357.716247 462.97873,345.25774 468.992473,325.507348 C477.701012,296.895264 462.116969,281.712962 443.659358,281.712962 C442.184146,281.712962 413.608661,281.000975 392.569428,299.454926 C389.987806,301.609187 387.413786,300.316687 389.568046,296.026465 C396.505486,282.640319 403.476147,262.579682 407.781008,249.869488 C408.664728,246.229035 411.246068,244.950893 414.890181,245.589964 Z M284.309947,188.475311 C283.440866,183.25745 283.689175,176.765389 285.230265,169.80965 C287.807946,158.220223 294.67613,159.081702 297.685113,160.797903 C299.747876,161.97385 308.934734,166.9724 284.309947,188.475311 L284.309947,188.475311 Z M133.742272,219.292894 C193.697835,142.373232 249.052368,123.437303 277.93838,112.709636 C311.746365,100.152313 353.317233,108.886471 365.439595,124.904914 C372.876749,119.518981 380.987321,115.130505 389.564386,111.851536 C412.619086,102.982243 441.081396,102.40905 449.235042,103.26715 C468.127052,101.547289 496.896229,114.429216 502.906313,118.72338 C519.651663,110.131674 534.676871,110.993435 545.839219,110.993435 C550.133101,110.993435 551.849302,115.714678 545.839219,115.714678 C536.816493,114.856577 535.107893,115.714678 528.239427,116.572497 C507.200476,121.2974 516.64268,131.601647 520.082403,136.753629 C528.670448,147.915976 538.112934,158.220223 532.106229,192.568462 C527.640615,218.06599 498.616091,233.785167 493.467487,237.220948 C488.311844,240.657011 486.591983,246.667094 492.606007,250.957597 C501.193771,260.399802 530.390309,282.728156 525.241705,329.096844 C520.086063,375.465531 468.569053,400.364246 423.916286,401.225725 C379.2638,402.080166 366.812612,350.982916 373.680796,327.807722 C375.827737,323.94092 373.253717,322.224718 370.679414,326.087861 C362.52239,338.539048 316.584443,381.479274 282.236203,396.070083 C250.911023,405.140106 230.817447,394.865138 221.269106,372.029468 C211.392221,382.757135 160.729652,414.962093 130.251593,395.215642 C56.4028503,337.684889 119.085867,238.93715 125.957711,228.633185 C127.148016,227.022838 128.232466,225.262718 129.419111,223.69629 C112.26132,217.463517 97.871242,208.466692 89.8929889,200.722108 C38.7993988,142.332973 92.2519212,109.488944 112.217402,107.557372 C141.41394,104.98307 176.185881,120.0049 179.618002,123.013601 C183.054065,126.014983 181.768603,128.165866 178.759901,125.587904 C161.164051,113.991157 127.673631,109.696994 112.217402,112.709636 C103.165678,114.517053 87.775327,122.922386 80.0161035,144.907275 C67.2107524,185.616383 103.614999,209.006946 133.742272,219.292894 Z" id="Fill-4" fill="#FFFFFF"></path>
            </g>
        </g>
    </g>
</svg>