<?xml version="1.0" encoding="UTF-8"?>
<svg width="980px" height="680px" viewBox="0 0 980 680" version="1.1" xmlns="http://www.w3.org/2000/svg" xmlns:xlink="http://www.w3.org/1999/xlink">
    <title>CH Manor</title>
    <defs>
        <linearGradient x1="50%" y1="0%" x2="50%" y2="100%" id="linearGradient-1">
            <stop stop-color="#FFFFFF" offset="0%"></stop>
            <stop stop-color="#EDEDED" offset="100%"></stop>
        </linearGradient>
        <rect id="path-2" x="2.84217094e-14" y="0" width="900" height="600" rx="80"></rect>
        <filter x="-6.7%" y="-10.0%" width="113.3%" height="120.0%" filterUnits="objectBoundingBox" id="filter-3">
            <feMorphology radius="2.5" operator="dilate" in="SourceAlpha" result="shadowSpreadOuter1"></feMorphology>
            <feOffset dx="0" dy="0" in="shadowSpreadOuter1" result="shadowOffsetOuter1"></feOffset>
            <feGaussianBlur stdDeviation="17.5" in="shadowOffsetOuter1" result="shadowBlurOuter1"></feGaussianBlur>
            <feColorMatrix values="0 0 0 0 0   0 0 0 0 0   0 0 0 0 0  0 0 0 0.5 0" type="matrix" in="shadowBlurOuter1"></feColorMatrix>
        </filter>
        <polygon id="path-4" points="0 0 799.972711 0 799.972711 174.070623 0 174.070623"></polygon>
    </defs>
    <g id="CH-Manor" stroke="none" stroke-width="1" fill="none" fill-rule="evenodd">
        <g transform="translate(40, 40)">
            <g id="Rectangle">
                <use fill="black" fill-opacity="1" filter="url(#filter-3)" xlink:href="#path-2"></use>
                <use fill="url(#linearGradient-1)" fill-rule="evenodd" xlink:href="#path-2"></use>
            </g>
            <g id="Logo" transform="translate(50, 213)">
                <g id="g4406" transform="translate(400, 87.0421) scale(-1, 1) rotate(-180) translate(-400, -87.0421)translate(0, 0)">
                    <g id="g3770" transform="translate(734.4719, 105.3753)" fill="#ED1C24" fill-rule="nonzero">
                        <path d="M38.8017508,47.7986402 L44.8309459,58.2537933 L38.8017508,68.7089464 L26.7263048,68.7089464 L20.6971097,58.2537933 L26.7263048,47.7986402 L38.8017508,47.7986402 Z M18.1046411,35.8511121 L24.1338362,46.3062652 L18.1046411,56.7528904 L6.02919512,56.7528904 L0,46.3062652 L6.02919512,35.8511121 L18.1046411,35.8511121 Z M47.4148867,35.8511121 L59.4903326,35.8511121 L65.5280556,46.3062652 L59.4903326,56.7528904 L47.4148867,56.7528904 L41.3856915,46.3062652 L47.4148867,35.8511121 Z M18.1046411,32.8493064 L6.02919512,32.8493064 L0,22.411209 L6.02919512,11.956056 L18.1046411,11.956056 L24.1338362,22.411209 L18.1046411,32.8493064 Z M47.4148867,32.8493064 L41.3856915,22.411209 L47.4148867,11.956056 L59.4903326,11.956056 L65.5280556,22.411209 L59.4903326,32.8493064 L47.4148867,32.8493064 Z M26.7263048,20.9017783 L20.6971097,10.4551531 L26.7263048,0 L38.8017508,0 L44.8309459,10.4551531 L38.8017508,20.9017783 L26.7263048,20.9017783 Z" id="path3772"></path>
                    </g>
                    <g id="g3776-Clipped">
                        <mask id="mask-5" fill="white">
                            <use xlink:href="#path-4"></use>
                        </mask>
                        <g id="path3780"></g>
                        <g id="g3776" mask="url(#mask-5)">
                            <g transform="translate(0.0171, 0.0392)">
                                <g id="g3782" transform="translate(466.2759, 3.3438)">
                                    <path d="M58.0576526,13.9686303 C28.7900463,13.9686303 14.1306596,37.9404372 14.1306596,67.0460142 C14.1306596,96.3392041 28.448932,120.123398 58.0576526,120.123398 C87.6834289,120.123398 101.984646,96.3392041 101.984646,67.0460142 C101.984646,37.9404372 87.3337867,13.9686303 58.0576526,13.9686303 M58.0576526,134.083501 C21.2514204,134.083501 0,103.869302 0,66.8839849 C0,29.702527 21.2514204,0 58.0576526,0 C94.8724126,0 116.123833,29.702527 116.123833,66.8839849 C116.123833,103.869302 94.8724126,134.083501 58.0576526,134.083501" id="path3784" fill="#231F20" fill-rule="nonzero"></path>
                                </g>
                                <g id="g3786" transform="translate(317.9484, -0)">
                                    <polygon id="path3788" fill="#231F20" fill-rule="nonzero" points="100.679883 34.9386314 0 140.445282 0 5.81599869 14.3694396 5.81599869 14.3694396 105.336094 115.049323 0 115.049323 134.96187 100.679883 134.96187"></polygon>
                                </g>
                                <g id="g3790" transform="translate(613.68, 5.8169)">
                                    <path d="M85.0142095,0 L102.990933,0 L63.1487834,53.0262168 C83.5218345,56.7273068 98.3517784,69.3400078 98.3517784,90.8472639 L98.3517784,91.205434 C98.3517784,101.413279 94.6592162,110.495447 88.3571296,116.789006 C80.1959702,124.950165 67.4127121,129.776933 51.4656189,129.776933 L0,129.776933 L0,0 L14.6508589,0 L14.6508589,116.234695 L50.3569974,116.234695 C71.301415,116.234695 83.5218345,106.598216 83.5218345,90.6596511 L83.5218345,90.2929532 C83.5218345,73.8938836 70.0989871,63.9589298 51.1671439,63.6263434 L51.1671439,63.592232 L38.0001322,63.054977 L85.0142095,0 Z" id="path3792" fill="#231F20" fill-rule="nonzero"></path>
                                </g>
                                <g id="g3794" transform="translate(171.5899, 5.8194)">
                                    <path d="M31.9965206,37.7187129 L59.2344969,101.745866 L86.0716638,37.7187129 L31.9965206,37.7187129 Z M0,0 L15.7338967,0 L26.0526041,24.5943405 L91.623299,24.4664226 L101.694698,0 L117.60768,0 L59.5670833,135.311512 L0,0 Z" id="path3796" fill="#231F20" fill-rule="nonzero"></path>
                                </g>
                                <g id="g3798" transform="translate(0, 5.8143)">
                                    <polygon id="path3800" fill="#231F20" fill-rule="nonzero" points="74.0218015 18.9233154 114.904349 94.6847997 133.153964 3.78712942e-15 148.043603 3.78712942e-15 121.539022 136.087547 74.0218015 48.2676724 26.4875248 136.087547 0 3.78712942e-15 14.881111 3.78712942e-15 33.1307257 94.6847997"></polygon>
                                </g>
                            </g>
                        </g>
                    </g>
                </g>
            </g>
        </g>
    </g>
</svg>