<?xml version="1.0" encoding="UTF-8"?>
<svg width="980px" height="680px" viewBox="0 0 980 680" version="1.1" xmlns="http://www.w3.org/2000/svg" xmlns:xlink="http://www.w3.org/1999/xlink">
    <title>CH Post Nachnahme</title>
    <defs>
        <rect id="path-1" x="0" y="0" width="900" height="600" rx="80"></rect>
        <filter x="-6.7%" y="-10.0%" width="113.3%" height="120.0%" filterUnits="objectBoundingBox" id="filter-2">
            <feMorphology radius="2.5" operator="dilate" in="SourceAlpha" result="shadowSpreadOuter1"></feMorphology>
            <feOffset dx="0" dy="0" in="shadowSpreadOuter1" result="shadowOffsetOuter1"></feOffset>
            <feGaussianBlur stdDeviation="17.5" in="shadowOffsetOuter1" result="shadowBlurOuter1"></feGaussianBlur>
            <feColorMatrix values="0 0 0 0 0   0 0 0 0 0   0 0 0 0 0  0 0 0 0.5 0" type="matrix" in="shadowBlurOuter1"></feColorMatrix>
        </filter>
    </defs>
    <g id="CH-Post-Nachnahme" stroke="none" stroke-width="1" fill="none" fill-rule="evenodd">
        <g transform="translate(40, 40)">
            <g id="Rectangle">
                <use fill="black" fill-opacity="1" filter="url(#filter-2)" xlink:href="#path-1"></use>
                <use fill="#FFCC00" fill-rule="evenodd" xlink:href="#path-1"></use>
            </g>
            <path d="M895,345 L895,520 C895,540.710678 886.605339,559.460678 873.033009,573.033009 C859.460678,586.605339 840.710678,595 820,595 L80,595 C59.2893219,595 40.5393219,586.605339 26.9669914,573.033009 C13.3946609,559.460678 5,540.710678 5,520 L5,345 L895,345 Z" id="Path" stroke="#333333" stroke-width="10" fill="#FF6600"></path>
            <g id="NACHNAHME" transform="translate(164.6, 415.3)" fill="#333333" fill-rule="nonzero">
                <polygon id="Path" points="5.68434189e-14 107.7 5.68434189e-14 0.9 14.7 0.9 37.8 65.25 38.1 65.25 38.1 0.9 53.4 0.9 53.4 107.7 39 107.7 15.6 43.5 15.3 43.5 15.3 107.7"></polygon>
                <path d="M98.1,70.35 L90.6,31.65 L90.3,31.65 L82.8,70.35 L98.1,70.35 Z M60.3,107.7 L84.15,0.9 L96.9,0.9 L120.75,107.7 L105.45,107.7 L100.95,84.75 L80.1,84.75 L75.6,107.7 L60.3,107.7 Z" id="Shape"></path>
                <path d="M176.85,77.25 L176.85,83.85 C176.85,87.15 176.225,90.275 174.975,93.225 C173.725,96.175 172,98.8 169.8,101.1 C167.6,103.4 165.025,105.225 162.075,106.575 C159.125,107.925 155.95,108.6 152.55,108.6 C149.65,108.6 146.7,108.2 143.7,107.4 C140.7,106.6 138,105.2 135.6,103.2 C133.2,101.2 131.225,98.625 129.675,95.475 C128.125,92.325 127.35,88.3 127.35,83.4 L127.35,24.6 C127.35,21.1 127.95,17.85 129.15,14.85 C130.35,11.85 132.05,9.25 134.25,7.05 C136.45,4.85 139.075,3.125 142.125,1.875 C145.175,0.625 148.55,0 152.25,0 C159.45,0 165.3,2.35 169.8,7.05 C172,9.35 173.725,12.075 174.975,15.225 C176.225,18.375 176.85,21.8 176.85,25.5 L176.85,31.5 L161.55,31.5 L161.55,26.4 C161.55,23.4 160.7,20.8 159,18.6 C157.3,16.4 155,15.3 152.1,15.3 C148.3,15.3 145.775,16.475 144.525,18.825 C143.275,21.175 142.65,24.15 142.65,27.75 L142.65,82.35 C142.65,85.45 143.325,88.05 144.675,90.15 C146.025,92.25 148.45,93.3 151.95,93.3 C152.95,93.3 154.025,93.125 155.175,92.775 C156.325,92.425 157.4,91.85 158.4,91.05 C159.3,90.25 160.05,89.15 160.65,87.75 C161.25,86.35 161.55,84.6 161.55,82.5 L161.55,77.25 L176.85,77.25 Z" id="Path"></path>
                <polygon id="Path" points="189.3 107.7 189.3 0.9 204.6 0.9 204.6 46.65 223.5 46.65 223.5 0.9 238.8 0.9 238.8 107.7 223.5 107.7 223.5 60.15 204.6 60.15 204.6 107.7"></polygon>
                <polygon id="Path" points="252.6 107.7 252.6 0.9 267.3 0.9 290.4 65.25 290.7 65.25 290.7 0.9 306 0.9 306 107.7 291.6 107.7 268.2 43.5 267.9 43.5 267.9 107.7"></polygon>
                <path d="M350.7,70.35 L343.2,31.65 L342.9,31.65 L335.4,70.35 L350.7,70.35 Z M312.9,107.7 L336.75,0.9 L349.5,0.9 L373.35,107.7 L358.05,107.7 L353.55,84.75 L332.7,84.75 L328.2,107.7 L312.9,107.7 Z" id="Shape"></path>
                <polygon id="Path" points="380.85 107.7 380.85 0.9 396.15 0.9 396.15 46.65 415.05 46.65 415.05 0.9 430.35 0.9 430.35 107.7 415.05 107.7 415.05 60.15 396.15 60.15 396.15 107.7"></polygon>
                <polygon id="Path" points="444.75 107.7 444.75 0.9 459.45 0.9 479.1 57.45 479.4 57.45 498.9 0.9 513.75 0.9 513.75 107.7 498.45 107.7 498.45 42.75 498.15 42.75 483 88.65 475.35 88.65 460.35 42.75 460.05 42.75 460.05 107.7"></polygon>
                <polygon id="Path" points="528.15 107.7 528.15 0.9 573.75 0.9 573.75 15.3 543.45 15.3 543.45 46.65 569.85 46.65 569.85 61.05 543.45 61.05 543.45 92.4 573.75 92.4 573.75 107.7"></polygon>
            </g>
            <g id="Logo" transform="translate(51, 96)" fill-rule="nonzero">
                <polygon id="Path" fill="#FFFFFF" points="615.53153 203.661006 626.342361 152.925321 10.796082 152.925321 -3.52997532e-13 203.661006"></polygon>
                <g id="Group" transform="translate(23.5914, 62.9034)" fill="#000000">
                    <polygon id="Path" points="144.357037 1.14155293 121.466984 1.14155293 98.709669 106.949056 121.607097 106.949056"></polygon>
                    <polygon id="Path" points="224.575466 1.14155293 160.573283 1.14155293 137.963456 106.949056 202.673578 106.949056 206.803227 87.7535629 164.975784 87.7535629 170.661426 61.4344259 206.935966 61.4344259 211.065615 42.3864207 174.791074 42.3864207 179.48855 20.34442 220.445817 20.34442"></polygon>
                    <path d="M74.1566941,55.9235573 C71.4576736,68.4304938 63.9136901,83.6659483 47.4172179,86.9327955 C44.017632,87.5006222 40.8761491,87.6481096 38.1771286,87.6481096 L27.3662979,87.6481096 L41.5914633,20.7920448 L51.3993792,20.7920448 C53.8255479,20.7920448 57.0997695,20.9321578 59.6586769,21.3598715 C74.7318952,23.9187789 77.8586293,39.2795977 74.1566941,55.9235573 M65.2779491,1.84728073 C60.8680741,1.27207964 55.0423195,1.13934093 51.4804973,1.13934093 L22.6172017,1.13934093 L0,106.946844 L38.125508,106.946844 C41.5324683,106.946844 45.7948558,106.80673 48.7962256,106.393766 C78.6476872,102.684456 93.1604531,81.070169 97.4228406,59.020794 C103.403457,28.3065308 92.6000007,5.8294421 65.2779491,1.84728073" id="Shape"></path>
                    <polygon id="Path" points="604.895472 1.14155293 524.691792 1.14155293 520.422034 20.7573849 549.145213 20.7573849 530.665035 106.949056 553.555088 106.949056 572.050015 20.7573849 600.640462 20.7573849"></polygon>
                    <path d="M412.103557,54.2163897 C408.401622,71.288063 401.440214,89.0603017 382.097234,89.0603017 C363.454819,89.0603017 360.903286,71.5682892 364.745334,54.2163897 C368.432521,37.1520908 375.408678,19.379852 394.744283,19.379852 C413.386698,19.379852 415.95298,36.8571159 412.103557,54.2163897 M396.410892,0 C359.708638,0 345.763699,24.8885086 339.923195,54.0467791 C333.957328,83.1976753 346.3389,108.086184 379.759558,108.086184 C416.454437,108.086184 430.392002,83.1976753 436.225131,54.0467791 C442.190999,24.8885086 429.824175,0 396.410892,0" id="Shape"></path>
                    <path d="M447.887702,32.28058 C447.887702,44.7875165 455.571798,50.9156204 462.813432,56.4611488 L474.907404,65.4210119 C477.326198,67.2719795 479.60488,68.8353466 481.30836,70.8264273 C482.871727,72.5299074 484.147493,74.2333876 484.147493,76.9397824 C484.147493,80.7744563 482.3039,83.1932507 479.737618,84.9041052 C474.907404,88.0382137 467.378169,88.0382137 462.813432,88.0382137 C455.571798,88.0382137 444.340628,85.9070199 440.056118,84.188791 L433.234823,103.539146 C441.479372,106.518392 454.708997,107.801533 464.244061,107.801533 C475.762831,107.801533 484.00738,106.24554 490.983537,103.251545 C503.490473,97.9862427 509.751313,88.1709524 509.751313,76.6595562 C509.751313,69.8382613 507.480006,65.2808988 504.353272,61.1586244 C501.78699,57.8844028 497.664719,54.3225807 492.974618,50.7681329 L482.023674,42.523584 C476.478145,38.4013095 472.341122,35.267201 472.341122,30.4296124 C472.341122,25.8869987 475.475231,21.9048373 481.30836,21.1895231 C484.870182,20.7618095 488.137029,20.7618095 493.542444,20.7618095 L510.886966,20.7618095 L515.156731,1.13860318 L495.813751,1.13860318 C490.268223,1.13860318 483.01184,1.13860318 476.765746,1.8465436 C461.832641,3.55002312 447.887702,14.2207407 447.887702,32.28058" id="Path"></path>
                    <path d="M311.901315,38.4020473 C310.485436,47.2144229 304.504819,52.6272126 296.828097,54.4781803 C294.977129,54.8911451 291.55542,55.1787457 289.579088,55.1787457 L280.331625,55.1787457 L287.728121,20.6224342 L297.67615,20.6224342 C300.515283,20.6224342 302.653852,20.9026604 304.364706,21.4704871 C310.050348,23.3214547 313.472057,28.8743575 311.901315,38.4020473 M308.486981,1.84728073 C305.78796,1.4195671 301.938537,1.13934093 298.103864,1.13934093 L269.240568,1.13934093 L246.483253,106.946844 L269.240568,106.946844 L276.201976,74.6692133 L289.431601,74.6692133 C296.393009,74.6692133 300.950371,73.9538991 305.367621,72.6707582 C321.716606,67.6930565 332.24721,54.0430922 334.65863,39.5303263 C338.220452,19.7670069 328.272423,5.11412793 308.486981,1.84728073" id="Shape"></path>
                </g>
                <path d="M735.724966,63.957936 C735.724966,63.957936 749.234817,0.3539699 749.301183,0 L663.330744,0 C663.293869,0.221231188 645.462641,83.4189062 645.388897,83.7655017 L666.671331,83.7655017 C666.722955,83.5368961 680.372923,19.8149403 680.372923,19.8149403 L723.800602,19.8149403 C723.800602,19.8149403 710.165389,83.4189062 710.084268,83.7655017 L774.565785,83.7655017 L766.004141,123.7641 L701.861845,123.7641 C701.810221,124.00008 689.052556,183.585014 689.052556,183.585014 L640.455439,183.585014 C640.411193,183.813619 636.30367,203.333584 636.22992,203.665431 L706.116855,203.665431 C706.161101,203.4442 718.99251,143.711779 718.99251,143.711779 L782.891455,143.711779 C782.943072,143.483174 799.926256,64.2971572 800,63.957936 L735.724966,63.957936 Z" id="Path" fill="#FF0000"></path>
            </g>
        </g>
    </g>
</svg>