<?xml version="1.0" encoding="UTF-8"?>
<svg width="980px" height="680px" viewBox="0 0 980 680" version="1.1" xmlns="http://www.w3.org/2000/svg" xmlns:xlink="http://www.w3.org/1999/xlink">
    <title>CH Postfinance alt</title>
    <defs>
        <rect id="path-1" x="0" y="0" width="900" height="600" rx="80"></rect>
        <filter x="-6.7%" y="-10.0%" width="113.3%" height="120.0%" filterUnits="objectBoundingBox" id="filter-2">
            <feMorphology radius="2.5" operator="dilate" in="SourceAlpha" result="shadowSpreadOuter1"></feMorphology>
            <feOffset dx="0" dy="0" in="shadowSpreadOuter1" result="shadowOffsetOuter1"></feOffset>
            <feGaussianBlur stdDeviation="17.5" in="shadowOffsetOuter1" result="shadowBlurOuter1"></feGaussianBlur>
            <feColorMatrix values="0 0 0 0 0   0 0 0 0 0   0 0 0 0 0  0 0 0 0.5 0" type="matrix" in="shadowBlurOuter1"></feColorMatrix>
        </filter>
    </defs>
    <g id="CH-Postfinance-alt" stroke="none" stroke-width="1" fill="none" fill-rule="evenodd">
        <g transform="translate(40, 40)">
            <g id="Rectangle">
                <use fill="black" fill-opacity="1" filter="url(#filter-2)" xlink:href="#path-1"></use>
                <use fill="#FFCC00" fill-rule="evenodd" xlink:href="#path-1"></use>
            </g>
            <g id="Logo" transform="translate(49.6893, 183.2642)" fill-rule="nonzero">
                <g id="g3686" transform="translate(400, 116.6891) scale(-1, 1) rotate(-180) translate(-400, -116.6891)translate(0, 0)">
                    <g id="g3692" transform="translate(0, 137.0555)" fill="#231F20">
                        <path d="M18.3020281,49.0079699 L24.7125042,49.0079699 C33.8516028,49.0079699 42.0851324,52.0225618 42.0851324,62.6034218 C42.0851324,73.1842818 34.1137413,76.8542198 24.7125042,76.8542198 L18.3020281,76.8542198 L18.3020281,49.0079699 Z M0,91.2241715 L23.1396736,91.2241715 C43.0026169,91.2241715 61.1735759,85.4690416 61.1735759,63.6519755 C61.1735759,42.3472709 45.6120858,34.6261027 26.0112809,34.6261027 L18.3020281,34.6261027 L18.3020281,0 L0,0 L0,91.2241715 Z" id="path3694"></path>
                    </g>
                    <g id="g3696" transform="translate(65.0842, 135.4922)" fill="#231F20">
                        <path d="M35.162295,13.5835365 C48.6266776,13.5835365 52.153631,25.6180733 52.153631,36.842364 C52.153631,47.1730009 46.6606395,56.8482919 35.162295,56.8482919 C23.7831043,56.8482919 18.3020281,46.9108625 18.3020281,36.842364 C18.3020281,25.7372271 21.8289815,13.5835365 35.162295,13.5835365 M35.162295,70.4437438 C55.1563075,70.4437438 70.4556591,56.9793611 70.4556591,34.7571719 C70.4556591,15.4185055 57.5155533,0 35.162295,0 C12.9401058,0 0,15.4185055 0,34.7571719 C0,56.9793611 15.2993517,70.4437438 35.162295,70.4437438" id="path3698"></path>
                    </g>
                    <g id="g3700" transform="translate(144.9471, 135.4862)" fill="#231F20">
                        <path d="M44.3013937,54.7630998 C38.9513867,56.5861534 35.0193104,57.6347071 28.6207497,57.6347071 C23.9141735,57.6347071 18.2901128,55.9427228 18.2901128,50.1875928 C18.2901128,39.4637482 48.7458315,46.2674318 48.7458315,21.9600507 C48.7458315,6.26749141 34.7571719,0 20.5182894,0 C13.8456749,0 7.05390668,1.16770753 0.643430677,2.87160728 L1.69198437,17.2534745 C7.18497589,14.501021 12.9401058,12.8090366 18.9454588,12.8090366 C23.3898966,12.8090366 30.4438033,14.501021 30.4438033,21.0425662 C30.4438033,34.2448105 0,25.2248656 0,49.5322467 C0,64.0451831 12.6779674,70.4437438 26.3925731,70.4437438 C34.6261027,70.4437438 39.988025,69.1330516 45.4810166,67.9653441 L44.3013937,54.7630998 Z" id="path3702"></path>
                    </g>
                    <g id="g3704" transform="translate(198.1338, 135.4898)" fill="#231F20">
                        <path d="M12.9401058,56.0618766 L0,56.0618766 L0,68.8709132 L12.9401058,68.8709132 L12.9401058,82.3352959 L30.4557187,87.9474412 L30.4557187,68.8709132 L46.0052934,68.8709132 L46.0052934,56.0618766 L30.4557187,56.0618766 L30.4557187,24.7005888 C30.4557187,18.9454588 32.0166339,13.5835365 38.6892483,13.5835365 C41.822994,13.5835365 44.8256705,14.2388826 46.6606395,15.4185055 L47.1849163,1.56091516 C43.5268938,0.512361465 39.4637482,0 34.2448105,0 C20.5182894,0 12.9401058,8.48375263 12.9401058,21.8170661 L12.9401058,56.0618766 Z" id="path3706"></path>
                    </g>
                    <g id="g3708" transform="translate(255.7708, 137.0543)" fill="#231F20">
                        <polygon id="path3710" points="0 91.2241715 50.7118697 91.2241715 50.7118697 76.8423044 18.3020281 76.8423044 18.3020281 54.3698922 49.1390391 54.3698922 49.1390391 39.9999404 18.3020281 39.9999404 18.3020281 0 0 0"></polygon>
                    </g>
                    <path d="M317.984632,204.364307 L335.500245,204.364307 L335.500245,137.054309 L317.984632,137.054309 L317.984632,204.364307 Z M317.984632,233.378264 L335.500245,233.378264 L335.500245,216.649067 L317.984632,216.649067 L317.984632,233.378264 Z" id="path3712" fill="#231F20"></path>
                    <g id="g3714" transform="translate(353.925, 137.0531)" fill="#231F20">
                        <path d="M0,67.309998 L16.5981284,67.309998 L16.5981284,58.158984 L16.8602668,58.158984 C22.3532583,65.8682367 29.7884573,68.8828286 38.9513867,68.8828286 C54.8822537,68.8828286 61.8170065,57.6347071 61.8170065,42.4783401 L61.8170065,0 L44.3013937,0 L44.3013937,35.9487102 C44.3013937,44.1822398 44.1703244,55.2873767 32.9341184,55.2873767 C20.2442356,55.2873767 17.5036975,41.5608556 17.5036975,32.9341184 L17.5036975,0 L0,0 L0,67.309998 Z" id="path3716"></path>
                    </g>
                    <g id="g3718" transform="translate(428.1495, 135.4839)" fill="#231F20">
                        <path d="M27.8462499,12.8090366 C33.1962568,12.8090366 37.3904716,15.1563671 40.1310096,18.826305 C43.0026169,22.6153968 43.7890322,27.4411268 43.7890322,32.6719799 L36.2108487,32.6719799 C28.3705267,32.6719799 16.741113,31.3732032 16.741113,21.0425662 C16.741113,15.2874363 21.5787584,12.8090366 27.8462499,12.8090366 M7.32796049,65.3439599 C14.1197287,68.489621 23.2707428,70.4437438 30.7178571,70.4437438 C51.2361465,70.4437438 59.7318145,61.9480757 59.7318145,42.0851324 L59.7318145,33.4703106 C59.7318145,26.6666269 59.8628837,21.5668431 59.9939529,16.5981284 C60.1250222,11.4983445 60.3871606,6.79176826 60.7803682,1.57283054 L45.3618627,1.57283054 C44.7065167,5.09978388 44.7065167,9.54422171 44.5754475,11.6294137 L44.313309,11.6294137 C40.2620788,4.1822994 31.5042724,0 23.5328812,0 C11.6294137,0 0,7.19689128 0,20.0059279 C0,30.0625111 4.83764546,35.9487102 11.5102599,39.2135252 C18.1709589,42.4783401 26.7976962,43.1336861 34.1137413,43.1336861 L43.7890322,43.1336861 C43.7890322,53.9766846 38.9513867,57.6347071 28.6326651,57.6347071 C21.1736354,57.6347071 13.7265211,54.7630998 7.85223734,50.318662 L7.32796049,65.3439599 Z" id="path3720"></path>
                    </g>
                    <g id="g3722" transform="translate(505.1312, 137.0531)" fill="#231F20">
                        <path d="M0,67.309998 L16.5981284,67.309998 L16.5981284,58.158984 L16.8602668,58.158984 C22.3532583,65.8682367 29.8003727,68.8828286 38.9513867,68.8828286 C54.8941691,68.8828286 61.8170065,57.6347071 61.8170065,42.4783401 L61.8170065,0 L44.313309,0 L44.313309,35.9487102 C44.313309,44.1822398 44.1703244,55.2873767 32.9341184,55.2873767 C20.2561509,55.2873767 17.5156129,41.5608556 17.5156129,32.9341184 L17.5156129,0 L0,0 L0,67.309998 Z" id="path3724"></path>
                    </g>
                    <g id="g3726" transform="translate(580.6735, 135.4946)" fill="#231F20">
                        <path d="M47.9713316,54.3579768 C44.8256705,55.7997382 41.4417018,56.8482919 36.0678641,56.8482919 C25.2248656,56.8482919 18.3020281,48.2215546 18.3020281,35.5435872 C18.3020281,23.1277582 24.1763119,13.5835365 36.4729871,13.5835365 C41.4417018,13.5835365 46.9227779,15.4185055 49.9254544,16.7291976 L50.723785,2.20434584 C45.6120858,0.643430677 40.3931481,0 33.1962568,0 C11.1051369,0 0,15.0252978 0,35.5435872 C0,55.0133229 11.5102599,70.4318284 32.5409107,70.4318284 C39.6067328,70.4318284 44.7065167,69.6573285 49.5441621,68.2155671 L47.9713316,54.3579768 Z" id="path3728"></path>
                    </g>
                    <g id="g3730" transform="translate(637.3884, 135.4851)" fill="#231F20">
                        <path d="M46.5295703,41.822994 C46.0052934,50.318662 42.0970478,57.6347071 32.2906877,57.6347071 C22.4843275,57.6347071 17.5156129,50.8429389 16.741113,41.822994 L46.5295703,41.822994 Z M58.2900532,5.36192231 C51.8914926,1.83496897 44.5754475,0 35.162295,0 C12.9520212,0 0,12.8090366 0,34.8882412 C0,54.3698922 10.330637,70.4437438 31.242134,70.4437438 C56.2048612,70.4437438 63.2587679,53.3213385 63.2587679,29.8003727 L16.741113,29.8003727 C17.5156129,18.9454588 25.1057118,12.8090366 35.9487102,12.8090366 C44.4443782,12.8090366 51.7604234,15.9427823 58.2900532,19.6008049 L58.2900532,5.36192231 Z" id="path3732"></path>
                    </g>
                    <g id="g3734" transform="translate(715.651, 0.0048)" fill="#ED1C24">
                        <polygon id="path3736" points="13.9529134 105.248577 58.409207 105.248577 51.3791311 72.2906281 84.3489956 72.2906281 75.6745969 30.9204186 42.8358016 30.932334 36.2942563 0 0 0 2.21626122 10.6880985 27.4530422 10.6880985 33.8516028 41.3940402 66.8929596 41.3225479 71.2063283 61.8289219 38.1530561 61.8289219 44.9567397 94.5962249 22.7702967 94.6081403 15.9189516 61.8289219 4.70657625 61.8289219"></polygon>
                    </g>
                    <g id="g3738" transform="translate(390.8043, 0)" fill="#FFFFFF">
                        <polygon id="path3740" points="311.503855 0 317.306647 27.1551576 5.91002992 27.1551576 0 0"></polygon>
                    </g>
                    <g id="g3742" transform="translate(529.6245, 17.8921)" fill="#231F20">
                        <path d="M20.8876662,43.9439322 L23.7473581,43.9439322 C26.0946886,43.9439322 28.287119,43.0860246 29.7646265,41.6085171 C31.1587263,40.2263327 31.8736493,38.367533 31.8736493,36.2346794 C31.8736493,30.0863418 26.0112809,26.7738654 20.506374,26.7738654 L17.396459,26.7738654 L20.8876662,43.9439322 Z M20.5182894,53.2141001 L11.7128214,53.2141001 L11.3791907,53.2141001 L11.295783,53.2141001 L11.2719522,53.118777 L11.2004599,52.7970617 L0.142984595,0.631515294 L0.0357461487,0.142984595 L0,0 L0.166815361,0 L0.65534606,0 L11.1051369,0 L11.4387676,0 L11.546006,0 L11.5579214,0.0953230633 L11.6294137,0.405123019 C11.6294137,0.405123019 15.1563671,16.4432284 15.3827593,17.4917821 L21.0187355,17.4917821 C28.0011498,17.4917821 34.3877951,19.8748587 38.5343483,24.0094966 C42.0136401,27.4887884 43.8366937,32.1000416 43.8366937,37.3547254 C43.8366937,41.4655325 42.5498324,44.8614166 39.9761097,47.423224 C35.1980411,52.2132079 26.76195,53.2141001 20.5182894,53.2141001" id="path3744"></path>
                    </g>
                    <g id="g3746" transform="translate(574.0903, 16.7947)" fill="#231F20">
                        <path d="M22.436666,9.28208329 C19.541228,9.28208329 17.1581514,10.1995678 15.370844,11.9987906 C13.1784135,14.1793057 11.9630444,17.5990206 11.9630444,21.6145046 C11.9630444,29.002042 14.8942286,36.6993794 19.4220741,41.2391402 C22.4247506,44.2299014 25.951704,45.7550704 29.9076111,45.7550704 C32.8864568,45.7550704 35.3291103,44.8256705 37.1640793,42.9907015 C39.332679,40.8340172 40.5242173,37.4500485 40.5242173,33.5060567 C40.5242173,23.6043735 34.0779951,9.28208329 22.436666,9.28208329 M46.553401,49.2224468 C42.7047323,53.0711155 37.2117408,55.0252383 30.2054957,55.0252383 C20.9472432,55.0252383 14.4176133,52.0583079 8.35268342,45.1354705 C2.96693034,38.8322329 0,30.7059418 0,22.2102737 C0,15.5853208 2.20434584,9.73486784 6.19599911,5.74321456 C9.94934473,1.98986895 15.0967901,-1.32287325e-15 21.0902277,-1.32287325e-15 C30.5629572,-1.32287325e-15 38.3437022,3.09799956 43.5983861,8.9246218 C49.3296852,15.3470132 52.4753463,23.6758658 52.4753463,32.3740954 C52.4753463,39.6186482 50.4973928,45.2903704 46.553401,49.2224468" id="path3748"></path>
                    </g>
                    <g id="g3750" transform="translate(402.6875, 17.891)" fill="#231F20">
                        <path d="M20.8161739,43.9450731 L21.5191815,43.9450731 C27.3577192,44.00465 31.5876801,42.7297041 34.0779951,40.1798121 C35.9963718,38.2018586 36.8900255,35.4374897 36.7708717,31.9343672 C36.1512717,16.2656386 29.6216419,9.25939348 15.5614901,9.25939348 L13.5597057,9.25939348 L20.8161739,43.9450731 Z M24.9150657,53.215241 L11.6413291,53.215241 L11.3076984,53.215241 L11.2123753,53.215241 L11.1885446,53.119918 L11.1289676,52.7982026 L0.131069212,0.632656258 L0.0357461487,0.144125559 L0,0.00114096368 L0.154899978,0.00114096368 L0.643430677,0.00114096368 L18.2186205,0.00114096368 C28.7875651,-0.0703513338 36.8185332,3.21829435 42.0374709,9.75983957 C46.9227779,15.8486002 48.3049623,23.4863607 48.6028469,28.8125368 C49.4607545,43.8974116 41.5012787,52.1071104 24.9150657,53.215241" id="path3752"></path>
                    </g>
                    <g id="g3754" transform="translate(624.7104, 16.7935)" fill="#231F20">
                        <path d="M41.4297864,52.6779078 C37.5572869,54.2507384 32.9460337,55.0252383 27.7151806,55.0252383 C18.5045897,55.0252383 7.74499889,50.7595312 7.74499889,38.7369098 C7.74499889,30.8012648 13.3094827,27.6913499 18.2067051,24.9508118 C22.1506968,22.746466 25.5346656,20.8519201 25.5346656,16.9079283 C25.5346656,11.6413291 20.8161739,9.28208329 16.1334285,9.28208329 C11.5936676,9.28208329 7.25646819,11.1170523 3.56269949,12.820952 L3.14566109,13.0115981 L3.01459188,13.0830904 L2.96693034,12.9401058 L2.83586113,12.5111521 L0.154899978,3.59844564 L0.0476615316,3.24098415 L0,3.12183032 L0.119153829,3.08608417 L0.476615316,2.95501496 C5.82662224,1.00089216 10.89066,0 15.5257439,0 C23.151589,0 29.1807727,2.01369971 32.9579491,5.79087609 C35.972541,8.80546797 37.49771,12.9043597 37.49771,17.9445667 C37.49771,26.4878962 31.4208647,30.0744265 26.5474731,32.9579491 C22.8775352,35.1265488 19.7199587,36.9853485 19.7199587,40.297825 C19.7199587,41.5608556 20.1489125,42.63324 21.0068201,43.4911476 C23.1158428,45.588255 26.8334423,45.7550704 27.9296575,45.7550704 C31.397034,45.7550704 35.2695334,44.8018397 38.5343483,43.1217707 L38.9633021,42.8953785 L39.1062867,42.8358016 L39.1420329,42.9787862 L39.2731021,43.4434861 L41.7515017,52.0463925 L41.8468248,52.3800233 L41.8706555,52.4991771 L41.7753325,52.5468386 L41.4297864,52.6779078 Z" id="path3756"></path>
                    </g>
                    <g id="g3758" transform="translate(474.4014, 17.879)" fill="#231F20">
                        <polygon id="path3760" points="42.3472709 53.2260155 11.6413291 53.2260155 11.3076984 53.2260155 11.2123753 53.2260155 11.1885446 53.118777 11.1170523 52.808977 0.131069212 0.631515294 0.0357461487 0.154899978 0 0 0.154899978 0 0.643430677 0 31.7425801 0 32.0642954 0 32.1596185 0 32.1834492 0.107238446 32.2549415 0.417038402 34.042249 8.63865261 34.1614028 9.11526792 34.1852336 9.28208329 34.0303336 9.28208329 33.5298875 9.28208329 13.5477904 9.28208329 16.3836515 22.8775352 34.2805566 22.8775352 34.6141873 22.8775352 34.7095104 22.8775352 34.7333412 22.9728582 34.7929181 23.2945736 36.4372409 31.5161878 36.5444794 31.9928031 36.5563948 32.1477031 36.4134102 32.1477031 35.9248795 32.1477031 18.3258589 32.1477031 20.8042586 43.9439322 40.7744403 43.9439322 41.108071 43.9439322 41.2153095 43.9439322 41.2391402 44.0511706 41.2987172 44.3848013 42.8715477 52.6064155 42.9549554 53.0711155 42.9787862 53.2260155 42.8358016 53.2260155"></polygon>
                    </g>
                    <g id="g3762" transform="translate(452.7667, 17.8862)" fill="#231F20">
                        <polygon id="path3764" points="23.1635044 53.0711155 23.1992505 53.2141001 23.0443505 53.2141001 22.5558198 53.2141001 11.6413291 53.2141001 11.3076984 53.2141001 11.2004599 53.2141001 11.1766292 53.118777 11.1289676 52.808977 0.131069212 0.631515294 0.0357461487 0.142984595 0 0 0.154899978 0 0.643430677 0 11.5579214 0 11.8915521 0 11.9868752 0 11.9987906 0.107238446 12.0821983 0.417038402 23.0562659 52.5945002"></polygon>
                    </g>
                    <g id="g3766" transform="translate(667.713, 17.8909)" fill="#231F20">
                        <path d="M43.2170938,53.2141001 L42.7166477,53.2141001 L2.4426535,53.2141001 L2.12093816,53.2141001 L2.01369971,53.2141001 L1.98986895,53.118777 L1.91837665,52.808977 L0.131069212,44.5873628 L0.0238307658,44.0988321 L0,43.9439322 L0.154899978,43.9439322 L0.643430677,43.9439322 L14.7154979,43.9439322 L5.36192231,0.631515294 L5.25468386,0.154899978 L5.21893771,0 L5.37383769,0 L5.87428377,0 L16.7768591,0 L17.1104899,0 L17.2177283,0 L17.2177283,0.0953230633 L17.301136,0.405123019 C17.301136,0.405123019 26.2615039,41.8468248 26.7142885,43.9439322 L41.0008326,43.9439322 L41.3344633,43.9439322 L41.417871,43.9439322 L41.4536171,44.0511706 L41.5251094,44.372886 L43.2409246,52.5825848 L43.3362476,53.0711155 L43.3719938,53.2141001 L43.2170938,53.2141001 Z" id="path3768"></path>
                    </g>
                </g>
            </g>
        </g>
    </g>
</svg>