<?xml version="1.0" encoding="UTF-8"?>
<svg width="980px" height="680px" viewBox="0 0 980 680" version="1.1" xmlns="http://www.w3.org/2000/svg" xmlns:xlink="http://www.w3.org/1999/xlink">
    <title>CH Postfinance Pay</title>
    <defs>
        <rect id="path-1" x="2.84217094e-14" y="-2.84217094e-14" width="900" height="600" rx="80"></rect>
        <filter x="-6.7%" y="-10.0%" width="113.3%" height="120.0%" filterUnits="objectBoundingBox" id="filter-2">
            <feMorphology radius="2.5" operator="dilate" in="SourceAlpha" result="shadowSpreadOuter1"></feMorphology>
            <feOffset dx="0" dy="0" in="shadowSpreadOuter1" result="shadowOffsetOuter1"></feOffset>
            <feGaussianBlur stdDeviation="17.5" in="shadowOffsetOuter1" result="shadowBlurOuter1"></feGaussianBlur>
            <feColorMatrix values="0 0 0 0 0   0 0 0 0 0   0 0 0 0 0  0 0 0 0.5 0" type="matrix" in="shadowBlurOuter1"></feColorMatrix>
        </filter>
    </defs>
    <g id="CH-Postfinance-Pay" stroke="none" stroke-width="1" fill="none" fill-rule="evenodd">
        <g transform="translate(40, 40)">
            <g id="Rectangle">
                <use fill="black" fill-opacity="1" filter="url(#filter-2)" xlink:href="#path-1"></use>
                <use fill="#FFCC00" fill-rule="evenodd" xlink:href="#path-1"></use>
            </g>
            <g id="Logo" transform="translate(50, 170)" fill="#16191A">
                <polygon id="Fill-1" points="209.580718 0.00262800434 166.008406 200.74274 210.7896 200.74274 227.963609 123.361152 294.189318 123.361152 302.178451 85.4390492 236.241822 85.4390492 246.359639 37.9378707 315.988614 37.9378707 324.569048 0.00262800434"></polygon>
                <g id="Group-10">
                    <path d="M65.3190479,102.757598 L79.7205117,36.7421287 L98.1428222,36.7421287 C118.378456,36.7421287 128.180912,44.810102 128.180912,63.6397532 C128.180912,87.8305331 112.544286,102.757598 83.7282184,102.757598 M57.6452753,139.497099 L76.9742472,139.497099 C138.627229,139.497099 172.975246,109.93205 172.975246,60.6438282 C172.975246,23.8911875 146.274722,0.00262800434 100.573726,0.00262800434 L43.546032,0.00262800434 L0,200.7296 L44.150473,200.7296" id="Fill-2"></path>
                    <path d="M409.955537,94.4373361 C412.320741,94.8183967 414.554545,95.015497 416.656949,95.015497 L422.806479,95.015497 C438.850445,95.015497 451.569986,92.0458521 460.965102,86.0934223 C470.360217,80.1409924 475.051205,69.7735153 475.051205,54.9909909 C475.051205,49.616722 473.960583,45.1096945 471.7662,41.4567685 C469.584956,37.8169825 466.483911,34.8867577 462.476204,32.679234 C458.455358,30.4848504 453.58041,28.9343278 447.83822,28.0802264 C442.096031,27.212985 435.7494,26.7793643 428.824609,26.7793643 L423.082419,26.7793643 M389.168023,200.963492 L356.344249,200.963492 L396.828656,0 L433.752117,0 C443.226072,0 452.489788,0.775261281 461.516983,2.31264382 C470.531038,3.85002636 478.467611,6.62257094 485.300422,10.6565576 C492.146373,14.6905443 497.652042,20.0648132 501.856849,26.7793643 C506.048516,33.5070554 508.15092,42.0349295 508.15092,52.4024066 C508.15092,64.4912266 506.048516,74.9638239 501.856849,83.7939185 C497.652042,92.610873 491.739033,99.864165 484.0784,105.527514 C476.417767,111.190864 467.206612,115.356251 456.458074,118.049955 C445.696397,120.74366 433.752117,122.070802 420.625235,122.070802 L413.371943,122.070802 C410.914759,122.070802 408.129074,121.886841 405.028029,121.505781" id="Fill-4"></path>
                    <path d="M601.979873,130.413402 C596.513624,129.79582 591.152495,129.4936 585.883346,129.4936 C575.568429,129.4936 566.804035,130.308281 559.616443,131.950784 C552.415711,133.580147 546.594681,135.77453 542.140214,138.520795 C537.685747,141.280199 534.492721,144.552065 532.561138,148.336391 C530.642695,152.107577 529.683473,156.128424 529.683473,160.425211 C529.683473,167.166042 531.864717,172.369491 536.214064,176.035557 C540.563411,179.714763 546.187341,181.554366 553.072712,181.554366 C559.340502,181.554366 565.227232,180.227224 570.706621,177.572939 C576.15973,174.918655 581.021538,171.292009 585.278905,166.693001 C589.536272,162.107134 593.123498,156.693445 596.066863,150.465075 C598.997088,144.236704 600.968091,137.561573 601.979873,130.413402 M576.475091,195.91641 C568.420257,200.147497 559.550743,202.27618 549.866547,202.27618 C536.687105,202.27618 525.991127,198.504994 517.765474,191.002042 C509.52668,183.485949 505.413853,173.289292 505.413853,160.398931 C505.413853,150.570195 507.568817,142.344541 511.865604,135.70883 C516.162391,129.059979 521.91772,123.67257 529.157872,119.533464 C536.371744,115.394357 544.728798,112.411572 554.255314,110.585109 C563.75555,108.745506 573.728826,107.825704 584.148863,107.825704 C587.079088,107.825704 590.561194,107.891404 594.568901,107.970244 C598.602887,108.088505 602.163833,108.325025 605.264878,108.692946 C606.013859,105.43422 606.36864,101.965254 606.36864,98.2991884 C606.36864,90.2180751 603.661796,84.0028448 598.274387,79.6797777 C592.886978,75.3435705 585.331465,73.1754669 575.647269,73.1754669 C569.248079,73.1754669 562.480967,73.9507282 555.345936,75.4881107 C548.210904,77.0386333 538.395308,81.07262 531.444236,84.3444854 L537.238986,55.8569183 C543.638176,53.5442745 550.549828,51.7703716 557.9608,50.5089295 C565.358632,49.2606274 572.533084,48.6299064 579.484156,48.6299064 C597.223185,48.6299064 610.941368,52.5850529 620.638704,60.4822059 C630.33604,68.379359 635.184708,80.0214182 635.184708,95.4215237 C635.184708,101.584194 634.356886,109.376227 632.714384,118.810762 C631.058741,128.245298 629.232278,137.587853 627.221854,146.825289 C625.750172,153.56612 624.56757,159.334589 623.660909,164.143837 C622.741107,168.953085 622.018406,173.341852 621.453385,177.296999 C620.914644,181.239005 620.546723,184.944492 620.362763,188.400317 C620.178803,191.869283 620.099963,195.719309 620.099963,199.950396 L594.03016,199.950396 C594.21412,195.91641 594.568901,191.724743 595.133921,187.401676 C595.672662,183.052328 596.224543,178.965782 596.776424,175.115755 L596.224543,175.115755 C591.099935,184.747391 584.516784,191.685323 576.475091,195.91641" id="Fill-6"></path>
                    <path d="M696.627449,54.2906277 C698.887533,73.0282987 701.016216,90.6359278 702.750699,105.116232 C704.485182,119.609676 705.851744,131.186035 706.850386,139.819029 C707.849028,148.452023 708.532309,154.746094 708.913369,158.67496 C709.26815,162.603827 709.544091,165.731152 709.728051,168.030656 L710.266792,168.030656 C711.002633,166.493273 711.817314,164.62739 712.737116,162.419866 C713.643777,160.212343 715.01034,157.282118 716.836803,153.629192 C718.663266,149.989406 720.975909,145.337838 723.814154,139.674489 C726.639259,134.011139 730.147645,127.007508 734.339311,118.650454 C738.530978,110.30654 743.550467,100.372684 749.384636,88.8488848 C755.218806,77.3382258 759.147672,69.6513131 767.176226,54.2906277 L800,54.2906277 L716.560862,206.609759 C711.633354,215.820915 706.797826,223.744348 702.067418,230.366919 C697.32387,236.98949 692.448922,242.495159 687.429434,246.923346 C682.409946,251.338393 677.035677,254.597119 671.293487,256.712662 C665.551298,258.815066 659.125827,259.879407 652.017075,259.879407 C648.54811,259.879407 645.000304,259.629747 641.347378,259.156706 C637.707592,258.670525 633.949546,257.619324 630.83536,256.660102 L636.143929,230.511459 C638.522273,231.470681 640.926897,232.088262 643.397221,232.377342 C645.854405,232.666422 648.088209,232.810963 650.098632,232.810963 C658.311146,232.810963 665.235937,230.222378 670.886147,225.03207 C676.536356,219.854901 682.002605,211.786928 687.298034,200.85443 L664.355556,54.2906277" id="Fill-8"></path>
                </g>
            </g>
        </g>
    </g>
</svg>