<?xml version="1.0" encoding="UTF-8"?>
<svg width="980px" height="680px" viewBox="0 0 980 680" version="1.1" xmlns="http://www.w3.org/2000/svg" xmlns:xlink="http://www.w3.org/1999/xlink">
    <title>CH swisscom pay</title>
    <defs>
        <linearGradient x1="50%" y1="0%" x2="50%" y2="100%" id="linearGradient-1">
            <stop stop-color="#FFFFFF" offset="0%"></stop>
            <stop stop-color="#EDEDED" offset="100%"></stop>
        </linearGradient>
        <rect id="path-2" x="2.84217094e-14" y="0" width="900" height="600" rx="80"></rect>
        <filter x="-6.7%" y="-10.0%" width="113.3%" height="120.0%" filterUnits="objectBoundingBox" id="filter-3">
            <feMorphology radius="2.5" operator="dilate" in="SourceAlpha" result="shadowSpreadOuter1"></feMorphology>
            <feOffset dx="0" dy="0" in="shadowSpreadOuter1" result="shadowOffsetOuter1"></feOffset>
            <feGaussianBlur stdDeviation="17.5" in="shadowOffsetOuter1" result="shadowBlurOuter1"></feGaussianBlur>
            <feColorMatrix values="0 0 0 0 0   0 0 0 0 0   0 0 0 0 0  0 0 0 0.5 0" type="matrix" in="shadowBlurOuter1"></feColorMatrix>
        </filter>
        <linearGradient x1="58.010416%" y1="101.152981%" x2="46.3171926%" y2="-0.0281214848%" id="linearGradient-4">
            <stop stop-color="#350706" offset="0%"></stop>
            <stop stop-color="#3F0808" offset="36%"></stop>
            <stop stop-color="#5B0C0E" offset="98%"></stop>
            <stop stop-color="#5C0C0E" offset="100%"></stop>
        </linearGradient>
        <radialGradient cx="98.120142%" cy="91.5342167%" fx="98.120142%" fy="91.5342167%" r="199.561764%" gradientTransform="translate(0.9812, 0.9153), scale(1, 0.4754), translate(-0.9812, -0.9153)" id="radialGradient-5">
            <stop stop-color="#003789" offset="0%"></stop>
            <stop stop-color="#5FC7FF" stop-opacity="0.98" offset="100%"></stop>
        </radialGradient>
        <radialGradient cx="45.9875185%" cy="20.6971732%" fx="45.9875185%" fy="20.6971732%" r="83.1990567%" gradientTransform="translate(0.4599, 0.207), scale(1, 0.8215), translate(-0.4599, -0.207)" id="radialGradient-6">
            <stop stop-color="#EC0A1C" offset="0%"></stop>
            <stop stop-color="#BB0E15" offset="100%"></stop>
        </radialGradient>
        <radialGradient cx="84.5792373%" cy="11.0762254%" fx="84.5792373%" fy="11.0762254%" r="98.3192034%" gradientTransform="translate(0.8458, 0.1108), scale(1, 0.7338), translate(-0.8458, -0.1108)" id="radialGradient-7">
            <stop stop-color="#5BC0FF" stop-opacity="0.98" offset="0%"></stop>
            <stop stop-color="#003789" offset="100%"></stop>
        </radialGradient>
        <radialGradient cx="12.6039315%" cy="20.7659293%" fx="12.6039315%" fy="20.7659293%" r="138.015299%" gradientTransform="translate(0.126, 0.2077), scale(1, 0.6463), translate(-0.126, -0.2077)" id="radialGradient-8">
            <stop stop-color="#42B4F3" stop-opacity="0.98" offset="0%"></stop>
            <stop stop-color="#003A80" offset="100%"></stop>
        </radialGradient>
        <radialGradient cx="70.6066648%" cy="27.6871709%" fx="70.6066648%" fy="27.6871709%" r="135.972657%" gradientTransform="translate(0.7061, 0.2769), scale(1, 0.4509), translate(-0.7061, -0.2769)" id="radialGradient-9">
            <stop stop-color="#5FC7FF" offset="0%"></stop>
            <stop stop-color="#003785" stop-opacity="0.98" offset="100%"></stop>
        </radialGradient>
        <radialGradient cx="30.4248216%" cy="31.3565891%" fx="30.4248216%" fy="31.3565891%" r="161.989804%" gradientTransform="translate(0.3042, 0.3136), scale(1, 0.6602), translate(-0.3042, -0.3136)" id="radialGradient-10">
            <stop stop-color="#EC0A1C" offset="0%"></stop>
            <stop stop-color="#9E0D18" offset="100%"></stop>
        </radialGradient>
    </defs>
    <g id="CH-swisscom-pay" stroke="none" stroke-width="1" fill="none" fill-rule="evenodd">
        <g transform="translate(40, 40)">
            <g id="Rectangle">
                <use fill="black" fill-opacity="1" filter="url(#filter-3)" xlink:href="#path-2"></use>
                <use fill="url(#linearGradient-1)" fill-rule="evenodd" xlink:href="#path-2"></use>
            </g>
            <g id="Logo" transform="translate(49.8461, 191.8279)" fill-rule="nonzero">
                <path d="M524.548206,86.2312785 C519.380875,84.27743 513.932422,83.1691488 508.412423,82.9490654 C502.271508,82.9490654 497.464654,84.5584086 497.464654,90.1487586 C497.464654,103.362313 531.472617,95.230895 531.472617,122.420325 C531.472617,140.821894 516.543841,147.831007 499.709264,147.831007 C492.06931,147.81737 484.472133,146.690277 477.157284,144.485267 L478.491344,128.349484 C485.093076,130.523597 491.961128,131.78464 498.904592,132.09756 C505.426667,132.09756 510.762911,129.980003 510.762911,124.368477 C510.762911,110.223198 476.776123,119.286341 476.776123,92.2239643 C476.776123,75.2835096 491.027281,68.3590987 506.760728,68.3590987 C514.012735,68.2731398 521.227804,69.4040733 528.105701,71.7048385 L524.548206,86.2312785 Z M462.397912,86.2312785 C457.234948,84.2877387 451.79514,83.1797619 446.283305,82.9490654 C440.14239,82.9490654 435.208483,84.5584086 435.208483,90.1487586 C435.208483,103.362313 469.343499,95.230895 469.343499,122.420325 C469.343499,140.821894 454.28767,147.831007 437.580146,147.831007 C429.858242,147.798635 422.179883,146.67219 414.774059,144.485267 L416.235173,128.349484 C422.881919,130.518105 429.791165,131.778865 436.775475,132.09756 C443.128145,132.09756 448.50674,129.980003 448.50674,124.368477 C448.50674,110.223198 414.371723,119.286341 414.371723,92.2239643 C414.371723,75.2835096 428.77111,68.3590987 444.356328,68.3590987 C451.69703,68.2917716 458.999595,69.4218453 465.976583,71.7048385 L462.397912,86.2312785 Z M776.53747,68.2320453 C791.360368,68.2320453 800,76.2364102 800,93.6427274 L800,146.179313 L780.26437,146.179313 L780.26437,97.7719633 C780.26437,89.9158274 777.998584,84.7066375 769.676586,84.7066375 C761.354588,84.7066375 753.943139,92.0333842 753.943139,105.225763 L753.943139,146.306366 L734.63102,146.306366 L734.63102,97.7719633 C734.63102,90.4452166 732.217005,84.7066375 723.810305,84.7066375 C715.022444,84.7066375 708.225086,92.8380558 708.225086,106.030435 L708.225086,146.264015 L688.23535,146.264015 L688.23535,69.8413885 C701.2795,68.2320453 706.213407,73.5682885 706.763972,82.1020426 C711.469639,73.3509542 720.695777,67.9888245 730.628838,68.2320453 C744.350606,68.2320453 749.813903,75.8340744 751.804406,83.0549432 C755.12897,75.4740897 763.662725,68.2320453 776.600997,68.2320453 L776.53747,68.2320453 Z M374.540479,69.8413885 C370.305365,92.4992467 359.336421,128.243606 352.41201,146.242839 L331.617602,146.242839 L316.942933,95.4214752 L316.688826,95.4214752 L302.014157,146.242839 L281.346802,146.242839 C274.676498,128.497713 262.669951,91.5675217 259.218333,69.8413885 L278.805734,69.8413885 L291.744006,122.377974 L292.019289,122.377974 L307.477454,69.8413885 L327.08603,69.8413885 L342.141859,121.975638 L342.417142,121.975638 L355.482467,69.8413885 L374.540479,69.8413885 Z M247.487068,86.2312785 C242.319738,84.27743 236.871285,83.1691488 231.351285,82.9490654 C225.21037,82.9490654 220.551745,84.5584086 220.551745,90.1487586 C220.551745,103.362313 254.432655,95.230895 254.432655,122.420325 C254.432655,140.821894 239.503879,147.831007 222.669302,147.831007 C215.036153,147.819239 207.44569,146.692084 200.138497,144.485267 L201.324329,128.349484 C207.971075,130.518105 214.880321,131.778865 221.864631,132.09756 C228.386706,132.09756 233.722949,129.980003 233.722949,124.368477 C233.722949,110.223198 199.842039,119.286341 199.842039,92.2239643 C199.842039,75.2835096 214.093197,68.3590987 229.826644,68.3590987 C237.077791,68.2850296 244.290901,69.4156561 251.171617,71.7048385 L247.487068,86.2312785 Z M639.468016,147.831007 C617.741882,147.831007 602.537824,135.972689 602.537824,109.312648 C602.537824,85.4477824 618.546554,68.2320453 641.733802,68.2320453 C663.332881,68.2320453 677.329932,80.3868216 677.329932,106.348068 C677.329932,131.292888 662.147049,147.809831 639.468016,147.809831 L639.468016,147.831007 Z M640.272687,85.0666222 C631.484826,85.0666222 623.078126,91.5886973 623.078126,108.359747 C623.078126,122.886187 628.541422,131.017606 640.01858,131.017606 C649.759342,131.017606 657.234318,123.16147 657.234318,107.72448 C657.234318,92.9015825 651.898074,85.0666222 640.293863,85.0666222 L640.272687,85.0666222 Z M383.476569,146.264015 L403.085145,146.264015 L403.085145,69.8413885 C393.873773,68.9096635 383.476569,71.4507317 383.476569,85.8501182 L383.476569,146.264015 Z M394.191406,60.248856 C397.495925,60.3630906 400.706917,59.1400926 403.098144,56.8564712 C405.48937,54.5728498 406.858816,51.42153 406.896748,48.1152553 C406.622662,41.5016208 401.18129,36.2810817 394.561979,36.2810817 C387.942668,36.2810817 382.501295,41.5016208 382.22721,48.1152553 C382.293765,54.7230998 387.585151,60.0894079 394.191406,60.248856 L394.191406,60.248856 Z M577.127142,147.5769 C554.448108,147.5769 539.646386,136.247971 539.646386,109.185595 C539.646386,86.2312785 552.351727,68.5073277 580.176424,68.5073277 C586.537242,68.5189442 592.850847,69.5998448 598.853275,71.7048385 L594.618162,87.7135683 C590.202134,85.9748513 585.514051,85.0286326 580.76934,84.9183932 C566.497007,84.9183932 560.631374,94.2356433 560.631374,108.211518 C560.631374,121.827409 565.967618,130.890552 579.964668,130.890552 C585.292004,130.844442 590.55322,129.705713 595.422833,127.544812 L597.688619,143.27826 C593.877017,145.71345 585.745599,147.5769 577.211844,147.5769 L577.127142,147.5769 Z" id="Shape" fill="#001155"></path>
                <path d="M72.1321861,55.5267042 L72.1321861,55.5267042 C67.1879967,56.1095311 62.9649872,59.364259 61.1420661,63.9969316 C59.1939138,68.3379231 58.1351354,73.1236016 55.2764337,77.0199062 C49.3472745,85.1513245 33.9738118,83.2455233 31.6233237,94.4050479 C28.1717061,110.794938 49.4955035,114.246556 55.8269984,125.660187 C60.4644479,134.130414 58.1986621,147.153389 66.9653474,153.061372 C68.305749,153.940067 69.7785526,154.597824 71.3275145,155.009525 C71.5987423,155.084217 71.874632,155.140809 72.1533617,155.178929 C72.1533617,155.178929 72.1321861,55.5267042 72.1321861,55.5267042 Z" id="Path" fill="#FFFFFF"></path>
                <path d="M72.1533617,155.22128 L71.3275145,155.051876 C69.7717994,154.64057 68.2919608,153.982864 66.9441719,153.103724 C58.1774865,147.19574 60.4432724,134.045712 55.8269984,125.702538 C54.1870296,122.991936 52.0282256,120.631643 49.4743279,118.756952 L49.2413967,118.566371 C48.2249694,119.582799 46.721504,121.170966 44.2863136,123.606157 C42.3940958,125.538183 40.6192321,127.581751 38.971246,129.725896 L38.971246,129.725896 C44.6376628,135.433987 49.3557469,142.01071 52.9471211,149.207419 C57.1822348,158.715249 58.3257155,169.070102 61.6291042,178.853215 C62.735576,182.526047 64.3919365,186.010116 66.5418361,189.186892 C67.9277364,191.258352 69.8841987,192.883833 72.1745373,193.866693 L72.1745373,155.115403 L72.1533617,155.22128 Z" id="Path" fill="url(#linearGradient-4)"></path>
                <path d="M61.734982,34.6475938 C62.6667071,35.664021 63.8525389,36.892204 64.9113173,37.9933336 C65.9700957,39.0944631 67.4100344,40.5767529 68.9558509,42.0590427 C69.9087515,42.9695921 71.0734077,44.1765995 72.0686594,45.0236223 L72.0686594,0.237295042 C71.0309082,0.027666138 69.9699561,-0.0435387013 68.9134997,0.0255393579 C66.2442222,0.177014214 63.6116018,0.719234144 61.099715,1.63488256 C58.8566964,2.41944954 56.7704233,3.59521857 54.9376246,5.10767578 C52.8711024,6.78403146 51.4371392,9.11422153 50.8719154,11.7144531 C50.3012209,15.3432226 50.9255004,19.0591719 52.6506632,22.3022374 C53.7013836,24.5308788 54.9560919,26.657503 56.3987388,28.6549079 C56.3987388,28.6549079 57.4575172,29.9466176 58.0504331,30.6030602 C59.2574405,31.8312431 60.5067991,33.2288307 61.734982,34.6475938 Z" id="Path" fill="url(#radialGradient-5)"></path>
                <path d="M133.202526,69.2908237 C132.679379,62.5082706 130.966246,55.870776 128.141565,49.6822473 C125.655424,44.3497287 122.258857,39.4913473 118.104345,35.3252119 C117.702009,34.9228761 117.278498,34.4993648 116.854987,34.1182045 C114.524034,31.9398317 112.000933,29.976632 109.316484,28.2525721 C106.673335,26.5554841 103.889067,25.0889615 100.994486,23.8692294 C96.2285557,21.8588312 91.1767914,20.6083945 86.023359,20.1635049 C81.2870525,19.6216992 76.4919369,20.352662 72.1321861,22.2810618 L72.1321861,44.93892 L72.1321861,44.93892 C74.6732544,47.2682325 77.7225362,50.0634076 79.2683527,51.4398195 C80.3483067,52.3927201 81.3859095,53.3032695 82.4658635,54.2349946 L85.6210232,56.8819406 L88.9032363,59.6559401 C90.2584727,60.7994208 95.1288535,64.7380765 95.7005938,65.2251146 L96.6534944,65.987435 L108.9565,75.9611278 L109.231782,76.1728835 C110.883476,77.5069443 119.374879,84.3466529 123.546466,87.9253239 C127.718053,91.503995 130.852037,94.2779945 131.148495,94.595628 C131.972474,90.8778427 132.587529,87.1168159 132.99077,83.3302256 C133.480254,78.6661258 133.551122,73.9675642 133.202526,69.2908237 Z" id="Path" fill="url(#radialGradient-6)"></path>
                <path d="M159.883742,134.998613 C158.402302,129.430957 156.05876,124.129406 152.938155,119.286341 C148.523554,112.515787 143.359365,106.264774 137.543517,100.651841 C135.42596,98.5342837 133.308403,96.6284826 131.190847,94.6168036 C130.979091,95.5697041 130.449702,97.83549 129.390923,101.287108 C128.840358,103.087031 127.845107,106.051611 127.463946,107.173916 C126.892206,108.804434 125.791077,111.726663 125.049932,113.526586 C124.033504,116.173532 122.424161,119.879257 120.984223,122.97089 C118.909017,127.417759 117.744361,129.535316 115.436224,133.77043 C114.398621,135.655055 113.509247,137.454979 112.217537,139.699589 C111.77285,140.461909 111.306988,141.266581 110.756423,142.155955 C110.523492,142.515939 107.85537,146.835755 107.580088,147.322793 C107.050698,148.148641 106.457783,149.101541 106.097798,149.63093 C102.900287,154.522487 102.625005,154.755418 102.116791,155.475387 C100.930959,157.08473 102.540302,154.882471 100.295692,158.037631 L94.9806245,165.533782 C94.1971285,166.613736 91.5501824,170.086529 88.627954,173.707552 C85.7057255,177.328574 82.6987948,181.288405 81.364734,182.876573 L72.0263083,193.887868 L72.0263083,216.016337 C75.964964,215.698704 80.0730243,215.148139 84.2869624,214.385819 C89.6813371,213.376439 95.0124596,212.054264 100.253341,210.425987 C104.845175,208.993569 109.355246,207.311129 113.763354,205.386202 C117.723245,203.655107 121.583225,201.703908 125.325214,199.541745 C130.130621,196.767161 134.680071,193.571208 138.919929,189.991564 C143.692201,185.97188 147.901593,181.328016 151.43469,176.185093 C155.122979,170.808435 157.832716,164.82264 159.439055,158.503494 C160.350906,154.890622 160.89017,151.193827 161.048398,147.471022 C161.263737,143.279141 160.871455,139.078155 159.883742,134.998613 L159.883742,134.998613 Z" id="Path" fill="url(#radialGradient-7)"></path>
                <path d="M66.5206605,189.29277 C64.3707609,186.115994 62.7144004,182.631925 61.6079286,178.959093 C58.30454,169.091278 57.2457615,158.736425 52.9259456,149.313297 C49.3388381,142.11937 44.6281995,135.543061 38.971246,129.831774 C37.4826179,131.76232 36.1175975,133.785096 34.8843613,135.887986 C33.7646652,137.807154 32.8287822,139.82781 32.0891862,141.923023 C31.7042667,143.109671 31.3930979,144.318986 31.1574612,145.544046 C30.920479,146.802098 30.7789054,148.07626 30.7339498,149.355648 C30.6761395,151.005963 30.7754057,152.658036 31.0304078,154.289555 C31.3198454,156.091806 31.7734795,157.863815 32.3856442,159.583448 C33.1809421,161.792937 34.1879342,163.920385 35.3925749,165.936118 L35.9219641,166.804316 C38.4146422,170.810584 41.450443,174.45212 44.9427563,177.625032 C46.9108962,179.444204 48.9824951,181.148147 51.1471978,182.728344 C52.608312,183.765947 54.0906018,184.845901 55.6152428,185.714099 C57.7327996,186.984633 59.7444786,188.170465 61.8620354,189.271594 C64.7419128,190.753884 69.2734844,192.807914 72.1745373,193.972571 L72.1745373,193.972571 C69.8764226,192.993178 67.912237,191.367392 66.5206605,189.29277 L66.5206605,189.29277 Z" id="Path" fill="url(#radialGradient-8)"></path>
                <path d="M131.148495,94.595628 C130.852037,94.3203456 127.442771,91.2498882 123.546466,87.9253239 C119.650162,84.6007597 110.841125,77.5069443 109.231782,76.1728835 L108.9565,75.9611278 L96.6534944,66.0086106 C96.1876319,65.6486259 95.8699984,65.3733436 95.7005938,65.2251146 C95.1288535,64.7592521 90.2584727,60.8205963 88.9032363,59.6771156 L85.6210232,56.9242917 L82.4870391,54.3196968 C81.3435584,53.3879718 80.3694823,52.4774224 79.2683527,51.5033462 C77.7225362,50.1481098 74.6732544,47.2682325 72.1321861,45.0236223 L72.1321861,45.0236223 C71.15811,44.1130728 70.0146293,42.9060654 69.0405531,42.0802183 C67.4947367,40.5979285 66.3089048,39.4120966 64.9960196,38.0145091 C63.6831343,36.6169216 62.7514093,35.6851966 61.8196843,34.6687693 C60.5067991,33.2500062 59.2574405,31.8524187 58.1351354,30.5395335 L56.8646013,29.0572437 L56.8646013,29.0572437 C57.6057462,30.2642511 59.1515627,32.4876858 59.9350587,33.5888153 C62.0526156,36.7227995 61.6502798,36.0663568 63.7678366,39.2426921 C65.2077753,41.3602489 67.6429656,45.2989047 68.9770264,47.5435149 C69.1486235,47.8238624 69.3041614,48.1137285 69.4428889,48.4117132 C70.264329,49.9459484 70.9720816,51.5383917 71.5604458,53.1762161 C71.8428708,53.9247093 72.0210032,54.7084916 72.089835,55.5055287 L72.089835,55.5055287 C72.089835,55.5055287 72.089835,155.136578 72.089835,155.200105 L72.089835,155.200105 L72.089835,193.951395 L81.4282607,182.9401 C82.7623215,181.351932 85.8116034,177.476803 88.6914807,173.771078 C91.571358,170.065354 94.1547773,166.677263 95.0441512,165.597309 L100.359219,158.016455 C102.603829,154.861296 100.994486,157.063555 102.180318,155.454212 C102.688531,154.734242 102.963814,154.501311 106.161325,149.609755 L107.643614,147.301618 C107.918897,146.81458 110.587018,142.494764 110.81995,142.113604 C111.370514,141.245405 111.836377,140.440734 112.281064,139.678413 C113.572774,137.433803 114.398621,135.63388 115.49975,133.749254 C117.807887,129.51414 118.930192,127.396584 121.005398,122.992065 C122.445337,119.858081 124.05468,116.173532 125.071107,113.547762 C125.812252,111.705487 126.913382,108.762083 127.463946,107.195091 C127.866282,106.051611 128.861534,103.108207 129.412099,101.308283 C130.470877,97.83549 131.000266,95.5697041 131.212022,94.6168036 L131.212022,94.6168036 L131.148495,94.595628 Z" id="Path" fill="url(#radialGradient-9)"></path>
                <path d="M38.9500704,129.725896 C40.5980565,127.581751 42.3729203,125.538183 44.2651381,123.606157 C46.7003284,121.170966 48.2037938,119.603974 49.2202211,118.566371 C40.7499937,111.896067 28.9975532,106.898633 31.6233237,94.447399 C33.9738118,83.2878744 49.3472745,85.1936756 55.2764337,77.0622573 C58.1351354,73.1659527 59.1939138,68.3802743 61.1420661,64.0392827 C62.9649872,59.4066102 67.1879967,56.1518822 72.1321861,55.5690554 L72.1321861,55.5690554 C72.0655518,54.7648046 71.8873819,53.97373 71.6027969,53.2185673 C71.0183712,51.5859989 70.3104723,50.0003054 69.4852401,48.4752399 C69.3510891,48.1681818 69.1954141,47.8709842 69.0193776,47.5858661 C67.6853168,45.3624314 65.2501264,41.4661268 63.8101877,39.2850432 C61.6926309,36.108708 62.1584934,36.7651506 59.9774099,33.652342 C59.1939138,32.5300369 57.6480973,30.3066022 56.9069524,29.0995948 L56.9069524,29.0995948 C56.7683851,28.9540954 56.6409714,28.7983675 56.5257922,28.6337323 C55.0791039,26.638974 53.8241662,24.511961 52.7777166,22.2810618 L52.2271518,20.947001 L45.3662676,26.0291374 C39.9453221,30.0101443 34.4820255,33.9488 29.2093089,38.120387 C25.7365157,40.8520353 22.3272492,43.6895615 19.0662116,46.5906143 C15.842013,49.4852223 12.8208835,52.5983299 10.0242439,55.9078645 C4.79387851,62.260535 0.664642669,69.375526 0.0717267529,77.5069443 C-0.0239089176,78.8322235 -0.0239089176,80.1626719 0.0717267529,81.4879511 C0.150330963,82.9113222 0.334356954,84.3269067 0.622291532,85.7230648 C1.6464966,90.6530033 3.77505058,95.2865902 6.84790865,99.2754286 C10.2889241,103.67039 14.1936668,107.681626 18.4944713,111.239625 L20.6120281,113.12425 C25.5882867,117.359364 30.6492476,121.594478 35.434926,126.253103 C36.7901624,127.523637 38.0818721,128.857698 39.3735818,130.212934 L38.971246,129.768247 L38.9500704,129.725896 Z" id="Path" fill="url(#radialGradient-10)"></path>
            </g>
        </g>
    </g>
</svg>