<?xml version="1.0" encoding="UTF-8"?>
<svg width="980px" height="680px" viewBox="0 0 980 680" version="1.1" xmlns="http://www.w3.org/2000/svg" xmlns:xlink="http://www.w3.org/1999/xlink">
    <title>CH TWINT text alt2</title>
    <defs>
        <linearGradient x1="50%" y1="0%" x2="50%" y2="100%" id="linearGradient-1">
            <stop stop-color="#FFFFFF" offset="0%"></stop>
            <stop stop-color="#EDEDED" offset="100%"></stop>
        </linearGradient>
        <rect id="path-2" x="2.84217094e-14" y="0" width="900" height="600" rx="80"></rect>
        <filter x="-6.7%" y="-10.0%" width="113.3%" height="120.0%" filterUnits="objectBoundingBox" id="filter-3">
            <feMorphology radius="2.5" operator="dilate" in="SourceAlpha" result="shadowSpreadOuter1"></feMorphology>
            <feOffset dx="0" dy="0" in="shadowSpreadOuter1" result="shadowOffsetOuter1"></feOffset>
            <feGaussianBlur stdDeviation="17.5" in="shadowOffsetOuter1" result="shadowBlurOuter1"></feGaussianBlur>
            <feColorMatrix values="0 0 0 0 0   0 0 0 0 0   0 0 0 0 0  0 0 0 0.5 0" type="matrix" in="shadowBlurOuter1"></feColorMatrix>
        </filter>
        <radialGradient cx="22.45%" cy="8.76%" fx="22.45%" fy="8.76%" r="113.287%" gradientTransform="translate(0.2245, 0.0876), scale(1, 0.8859), translate(-0.2245, -0.0876)" id="radialGradient-4">
            <stop stop-color="#FFCC00" offset="0%"></stop>
            <stop stop-color="#FFC800" offset="9.157%"></stop>
            <stop stop-color="#FFBD00" offset="17.39%"></stop>
            <stop stop-color="#FFAB00" offset="25.28%"></stop>
            <stop stop-color="#FF9100" offset="32.95%"></stop>
            <stop stop-color="#FF7000" offset="40.46%"></stop>
            <stop stop-color="#FF4700" offset="47.86%"></stop>
            <stop stop-color="#FF1800" offset="55.03%"></stop>
            <stop stop-color="#FF0000" offset="58.22%"></stop>
            <stop stop-color="#FF0000" offset="100%"></stop>
        </radialGradient>
        <radialGradient cx="2.431%" cy="14.525%" fx="2.431%" fy="14.525%" r="139.175%" gradientTransform="translate(0.0243, 0.1453), scale(1, 0.6605), translate(-0.0243, -0.1453)" id="radialGradient-5">
            <stop stop-color="#00B4E6" offset="0%"></stop>
            <stop stop-color="#00B0E3" offset="20.1%"></stop>
            <stop stop-color="#01A5DB" offset="38.98%"></stop>
            <stop stop-color="#0292CD" offset="57.37%"></stop>
            <stop stop-color="#0377BA" offset="75.46%"></stop>
            <stop stop-color="#0455A1" offset="93.16%"></stop>
            <stop stop-color="#054696" offset="100%"></stop>
        </radialGradient>
    </defs>
    <g id="CH-TWINT-text-alt2" stroke="none" stroke-width="1" fill="none" fill-rule="evenodd">
        <g transform="translate(40, 40)">
            <g id="Rectangle">
                <use fill="black" fill-opacity="1" filter="url(#filter-3)" xlink:href="#path-2"></use>
                <use fill="url(#linearGradient-1)" fill-rule="evenodd" xlink:href="#path-2"></use>
            </g>
            <g id="Logo" transform="translate(50.6457, 170.9071)" fill-rule="nonzero">
                <g id="Group">
                    <path d="M227.365714,189.167143 C227.365714,192.538571 224.977143,196.618571 222.034286,198.304286 L119.017143,257.892857 C116.068571,259.578571 111.297143,259.578571 108.348571,257.892857 L5.33142857,198.304286 C2.38285714,196.618571 0,192.544286 0,189.167143 L0,69.99 C0,66.6185714 2.38857143,62.5385714 5.33142857,60.8528571 L108.348571,1.26428571 C111.297143,-0.421428571 116.068571,-0.421428571 119.017143,1.26428571 L222.034286,60.8528571 C224.982857,62.5385714 227.365714,66.6128571 227.365714,69.99 L227.365714,189.167143 L227.365714,189.167143 Z M799.291429,78.5614286 L707.08,78.5614286 L707.08,100.624286 L740.2,100.624286 L740.2,194.927143 L766.302857,194.927143 L766.302857,100.624286 L799.285714,100.624286 L799.291429,78.5614286 Z M380.348571,78.5614286 L288,78.5614286 L288,100.624286 L321.12,100.624286 L321.12,194.927143 L347.222857,194.927143 L347.222857,100.624286 L380.342857,100.624286 L380.348571,78.5614286 Z M647.291429,74.91 C618.24,74.91 602.097143,93.4585714 602.097143,120.304286 L602.097143,194.932857 L627.92,194.932857 L627.92,119.744286 C627.92,108.081429 634.8,99.0871429 647.571429,99.0871429 C660.342857,99.0871429 667.08,109.767143 667.08,119.744286 L667.08,194.932857 L692.902857,194.932857 L692.902857,120.304286 C693.045714,93.4585714 676.342857,74.91 647.291429,74.91 Z M549.891429,78.5614286 L549.891429,194.927143 L575.714286,194.927143 L575.714286,78.5614286 L549.891429,78.5614286 Z M462.314286,124.658571 L463.154286,129.858571 L487.434286,194.927143 L497.96,194.927143 L530.942857,78.5614286 L505.537143,78.5614286 L489.817143,139.698571 L488.834286,146.304286 L487.571429,139.698571 L466.52,78.5614286 L458.097143,78.5614286 L437.045714,139.698571 L435.782857,146.304286 L434.942857,139.698571 L419.222857,78.5614286 L393.68,78.5614286 L426.662857,194.927143 L437.188571,194.927143 L461.468571,129.858571 L462.308571,124.658571" id="Shape1" fill="#000000"></path>
                    <path d="M167.434286,129.858571 L140.485714,169.35 L126.731429,148.27 L142.588571,124.521429 C145.537143,120.304286 151.851429,108.641429 144.554286,92.7614286 C138.657143,79.83 125.885714,73.6471429 114.657143,73.6471429 C103.428571,73.6471429 91.2171429,79.4071429 84.6228571,92.7614286 C77.1828571,108.081429 83.64,120.024286 86.4457143,124.104286 C86.4457143,124.104286 95.2857143,137.035714 102.588571,147.995714 L114.52,165.281429 L132.485714,192.83 C132.628571,192.972857 135.434286,197.327143 140.485714,197.327143 C145.257143,197.327143 148.205714,192.972857 148.628571,192.55 L190.731429,130.15 L167.434286,130.15 L167.434286,129.87 L167.434286,129.858571 Z M114.52,130.841429 C114.52,130.841429 107.502857,120.161429 102.868571,112.71 C97.9542857,104.698571 103.428571,92.7557143 114.52,92.7557143 C125.605714,92.7557143 131.08,104.704286 126.171429,112.71 C121.68,120.161429 114.52,130.841429 114.52,130.841429 Z" id="Shape2" fill="url(#radialGradient-4)"></path>
                    <path d="M88.6971429,168.087143 L62.3085714,130.984286 C62.3085714,130.984286 55.2914286,120.304286 50.6571429,112.852857 C45.7428571,104.841429 51.2171429,92.8985714 62.3085714,92.8985714 C63.7142857,92.8985714 64.9771429,93.0414286 66.24,93.4585714 L75.5028571,76.4528571 C71.2914286,74.6242857 66.6628571,73.6414286 62.4514286,73.6414286 C51.2228571,73.6414286 39.0114286,79.4014286 32.4171429,92.7557143 C24.9771429,108.075714 31.4342857,120.018571 34.24,124.098571 L80.4171429,192.544286 C80.84,193.104286 83.7828571,197.464286 88.6971429,197.464286 C93.6114286,197.464286 96.4171429,193.247143 96.84,192.687143 L110.737143,171.464286 L98.8057143,153.898571 L88.7028571,168.092857 L88.6971429,168.087143 Z" id="Path" fill="url(#radialGradient-5)"></path>
                </g>
            </g>
        </g>
    </g>
</svg>