<?xml version="1.0" encoding="UTF-8"?>
<svg width="980px" height="680px" viewBox="0 0 980 680" version="1.1" xmlns="http://www.w3.org/2000/svg" xmlns:xlink="http://www.w3.org/1999/xlink">
    <title>CH TWINT text alt3</title>
    <defs>
        <linearGradient x1="50%" y1="0%" x2="50%" y2="100%" id="linearGradient-1">
            <stop stop-color="#FFFFFF" offset="0%"></stop>
            <stop stop-color="#EDEDED" offset="100%"></stop>
        </linearGradient>
        <rect id="path-2" x="2.84217094e-14" y="0" width="900" height="600" rx="80"></rect>
        <filter x="-6.7%" y="-10.0%" width="113.3%" height="120.0%" filterUnits="objectBoundingBox" id="filter-3">
            <feMorphology radius="2.5" operator="dilate" in="SourceAlpha" result="shadowSpreadOuter1"></feMorphology>
            <feOffset dx="0" dy="0" in="shadowSpreadOuter1" result="shadowOffsetOuter1"></feOffset>
            <feGaussianBlur stdDeviation="17.5" in="shadowOffsetOuter1" result="shadowBlurOuter1"></feGaussianBlur>
            <feColorMatrix values="0 0 0 0 0   0 0 0 0 0   0 0 0 0 0  0 0 0 0.5 0" type="matrix" in="shadowBlurOuter1"></feColorMatrix>
        </filter>
        <radialGradient cx="22.45%" cy="8.76%" fx="22.45%" fy="8.76%" r="113.287%" gradientTransform="translate(0.2245, 0.0876), scale(1, 0.8859), translate(-0.2245, -0.0876)" id="radialGradient-4">
            <stop stop-color="#FFCC00" offset="0%"></stop>
            <stop stop-color="#FFC800" offset="9.157%"></stop>
            <stop stop-color="#FFBD00" offset="17.39%"></stop>
            <stop stop-color="#FFAB00" offset="25.28%"></stop>
            <stop stop-color="#FF9100" offset="32.95%"></stop>
            <stop stop-color="#FF7000" offset="40.46%"></stop>
            <stop stop-color="#FF4700" offset="47.86%"></stop>
            <stop stop-color="#FF1800" offset="55.03%"></stop>
            <stop stop-color="#FF0000" offset="58.22%"></stop>
            <stop stop-color="#FF0000" offset="100%"></stop>
        </radialGradient>
        <radialGradient cx="2.431%" cy="14.525%" fx="2.431%" fy="14.525%" r="139.175%" gradientTransform="translate(0.0243, 0.1453), scale(1, 0.6605), translate(-0.0243, -0.1453)" id="radialGradient-5">
            <stop stop-color="#00B4E6" offset="0%"></stop>
            <stop stop-color="#00B0E3" offset="20.1%"></stop>
            <stop stop-color="#01A5DB" offset="38.98%"></stop>
            <stop stop-color="#0292CD" offset="57.37%"></stop>
            <stop stop-color="#0377BA" offset="75.46%"></stop>
            <stop stop-color="#0455A1" offset="93.16%"></stop>
            <stop stop-color="#054696" offset="100%"></stop>
        </radialGradient>
    </defs>
    <g id="CH-TWINT-text-alt3" stroke="none" stroke-width="1" fill="none" fill-rule="evenodd">
        <g transform="translate(40, 40)">
            <g id="Rectangle">
                <use fill="black" fill-opacity="1" filter="url(#filter-3)" xlink:href="#path-2"></use>
                <use fill="url(#linearGradient-1)" fill-rule="evenodd" xlink:href="#path-2"></use>
            </g>
            <g id="Logo" transform="translate(194.6457, 97.9071)" fill-rule="nonzero">
                <g id="Group">
                    <path d="M369.365714,189.167143 C369.365714,192.538571 366.977143,196.618571 364.034286,198.304286 L261.017143,257.892857 C258.068571,259.578571 253.297143,259.578571 250.348571,257.892857 L147.331429,198.304286 C144.382857,196.618571 142,192.544286 142,189.167143 L142,69.99 C142,66.6185714 144.388571,62.5385714 147.331429,60.8528571 L250.348571,1.26428571 C253.297143,-0.421428571 258.068571,-0.421428571 261.017143,1.26428571 L364.034286,60.8528571 C366.982857,62.5385714 369.365714,66.6128571 369.365714,69.99 L369.365714,189.167143 L369.365714,189.167143 Z M511.291429,288.561429 L419.08,288.561429 L419.08,310.624286 L452.2,310.624286 L452.2,404.927143 L478.302857,404.927143 L478.302857,310.624286 L511.285714,310.624286 L511.291429,288.561429 Z M92.3485714,288.561429 L0,288.561429 L0,310.624286 L33.12,310.624286 L33.12,404.927143 L59.2228571,404.927143 L59.2228571,310.624286 L92.3428571,310.624286 L92.3485714,288.561429 Z M359.291429,284.91 C330.24,284.91 314.097143,303.458571 314.097143,330.304286 L314.097143,404.932857 L339.92,404.932857 L339.92,329.744286 C339.92,318.081429 346.8,309.087143 359.571429,309.087143 C372.342857,309.087143 379.08,319.767143 379.08,329.744286 L379.08,404.932857 L404.902857,404.932857 L404.902857,330.304286 C405.045714,303.458571 388.342857,284.91 359.291429,284.91 Z M261.891429,288.561429 L261.891429,404.927143 L287.714286,404.927143 L287.714286,288.561429 L261.891429,288.561429 Z M174.314286,334.658571 L175.154286,339.858571 L199.434286,404.927143 L209.96,404.927143 L242.942857,288.561429 L217.537143,288.561429 L201.817143,349.698571 L200.834286,356.304286 L199.571429,349.698571 L178.52,288.561429 L170.097143,288.561429 L149.045714,349.698571 L147.782857,356.304286 L146.942857,349.698571 L131.222857,288.561429 L105.68,288.561429 L138.662857,404.927143 L149.188571,404.927143 L173.468571,339.858571 L174.308571,334.658571" id="Shape1" fill="#000000"></path>
                    <path d="M309.434286,129.858571 L282.485714,169.35 L268.731429,148.27 L284.588571,124.521429 C287.537143,120.304286 293.851429,108.641429 286.554286,92.7614286 C280.657143,79.83 267.885714,73.6471429 256.657143,73.6471429 C245.428571,73.6471429 233.217143,79.4071429 226.622857,92.7614286 C219.182857,108.081429 225.64,120.024286 228.445714,124.104286 C228.445714,124.104286 237.285714,137.035714 244.588571,147.995714 L256.52,165.281429 L274.485714,192.83 C274.628571,192.972857 277.434286,197.327143 282.485714,197.327143 C287.257143,197.327143 290.205714,192.972857 290.628571,192.55 L332.731429,130.15 L309.434286,130.15 L309.434286,129.87 L309.434286,129.858571 Z M256.52,130.841429 C256.52,130.841429 249.502857,120.161429 244.868571,112.71 C239.954286,104.698571 245.428571,92.7557143 256.52,92.7557143 C267.605714,92.7557143 273.08,104.704286 268.171429,112.71 C263.68,120.161429 256.52,130.841429 256.52,130.841429 Z" id="Shape2" fill="url(#radialGradient-4)"></path>
                    <path d="M230.697143,168.087143 L204.308571,130.984286 C204.308571,130.984286 197.291429,120.304286 192.657143,112.852857 C187.742857,104.841429 193.217143,92.8985714 204.308571,92.8985714 C205.714286,92.8985714 206.977143,93.0414286 208.24,93.4585714 L217.502857,76.4528571 C213.291429,74.6242857 208.662857,73.6414286 204.451429,73.6414286 C193.222857,73.6414286 181.011429,79.4014286 174.417143,92.7557143 C166.977143,108.075714 173.434286,120.018571 176.24,124.098571 L222.417143,192.544286 C222.84,193.104286 225.782857,197.464286 230.697143,197.464286 C235.611429,197.464286 238.417143,193.247143 238.84,192.687143 L252.737143,171.464286 L240.805714,153.898571 L230.702857,168.092857 L230.697143,168.087143 Z" id="Path" fill="url(#radialGradient-5)"></path>
                </g>
            </g>
        </g>
    </g>
</svg>