<?xml version="1.0" encoding="UTF-8"?>
<svg width="980px" height="680px" viewBox="0 0 980 680" version="1.1" xmlns="http://www.w3.org/2000/svg" xmlns:xlink="http://www.w3.org/1999/xlink">
    <title>CN Alipay text alt2</title>
    <defs>
        <linearGradient x1="50%" y1="0%" x2="50%" y2="100%" id="linearGradient-1">
            <stop stop-color="#FFFFFF" offset="0%"></stop>
            <stop stop-color="#EDEDED" offset="100%"></stop>
        </linearGradient>
        <rect id="path-2" x="2.84217094e-14" y="0" width="900" height="600" rx="80"></rect>
        <filter x="-6.7%" y="-10.0%" width="113.3%" height="120.0%" filterUnits="objectBoundingBox" id="filter-3">
            <feMorphology radius="2.5" operator="dilate" in="SourceAlpha" result="shadowSpreadOuter1"></feMorphology>
            <feOffset dx="0" dy="0" in="shadowSpreadOuter1" result="shadowOffsetOuter1"></feOffset>
            <feGaussianBlur stdDeviation="17.5" in="shadowOffsetOuter1" result="shadowBlurOuter1"></feGaussianBlur>
            <feColorMatrix values="0 0 0 0 0   0 0 0 0 0   0 0 0 0 0  0 0 0 0.5 0" type="matrix" in="shadowBlurOuter1"></feColorMatrix>
        </filter>
    </defs>
    <g id="CN-Alipay-text-alt2" stroke="none" stroke-width="1" fill="none" fill-rule="evenodd">
        <g transform="translate(40, 40)">
            <g id="Rectangle">
                <use fill="black" fill-opacity="1" filter="url(#filter-3)" xlink:href="#path-2"></use>
                <use fill="url(#linearGradient-1)" fill-rule="evenodd" xlink:href="#path-2"></use>
            </g>
            <g id="Logo" transform="translate(100.6279, 50)" fill-rule="nonzero">
                <g id="g3989" transform="translate(372.2564, 125.4138) scale(-1, 1) rotate(-180) translate(-372.2564, -125.4138)translate(247.9045, 0)" fill="#1677FF">
                    <path d="M208.877372,250.827639 L39.8405371,250.827639 C17.8269841,250.827639 0,232.843248 0,210.644095 L0,40.1764964 C0,17.9914396 17.8269841,0 39.8405371,0 L208.877372,0 C230.886226,0 248.703813,17.9914396 248.703813,40.1764964 L248.703813,210.644095 C248.703813,232.843248 230.886226,250.827639 208.877372,250.827639" id="path3991"></path>
                </g>
                <g id="g3993" transform="translate(381.4584, 121.4542) scale(-1, 1) rotate(-180) translate(-381.4584, -121.4542)translate(266.3077, 33.2555)" fill="#FFFFFF">
                    <path d="M48.7987373,16.7650709 C10.1070398,16.7650709 -1.33201991,47.5018175 17.7894645,64.3185744 C24.1703407,70.0016891 35.8302408,72.7762896 42.0466614,73.3988714 C65.0305024,75.6895026 86.3063547,66.8464915 111.414022,54.4864806 C93.7655896,31.2677031 71.2868622,16.7650709 48.7987373,16.7650709 M186.363474,52.1559102 C176.411563,55.5178519 163.05777,60.6582633 148.183939,66.0852972 C157.116226,81.7461664 164.251248,99.5801986 168.940581,118.962462 L119.916375,118.962462 L119.916375,136.770652 L179.970851,136.770652 L179.970851,146.710816 L119.916375,146.710816 L119.916375,176.397396 L95.407796,176.397396 C91.1084574,176.397396 91.1084574,172.116853 91.1084574,172.116853 L91.1084574,146.710816 L30.3703158,146.710816 L30.3703158,136.770652 L91.1084574,136.770652 L91.1084574,118.962462 L40.9612546,118.962462 L40.9612546,109.024647 L138.22028,109.024647 C134.660992,96.6575881 129.882383,85.0470247 124.211015,74.4983744 C92.6519904,85.0000374 58.9761879,93.5117879 37.8201532,88.2727033 C24.2901583,84.9107615 15.5763623,78.9104824 10.4570953,72.6235808 C-13.0389073,43.7921696 3.81309015,7.06806107e-14 53.4340351,7.06806107e-14 C82.7729093,7.06806107e-14 111.035774,16.4972433 132.941256,43.6840988 C165.61388,27.8446778 230.301305,0.648424829 230.301305,0.648424829 L230.301305,39.4082539 C230.301305,39.4082539 222.177199,40.0613775 186.363474,52.1559102" id="path3995"></path>
                </g>
                <g id="g3997" transform="translate(267.2753, 291.6204) scale(-1, 1) rotate(-180) translate(-267.2753, -291.6204)translate(244.5664, 269.9087)" fill="#1677FF">
                    <path d="M0,21.7104849 C0,8.73494027 9.48203844,0 22.7089652,0 C35.935892,0 45.4179304,8.73494027 45.4179304,21.7104849 C45.4179304,34.4369969 35.935892,43.4233193 22.7089652,43.4233193 C9.48203844,43.4233193 0,34.4369969 0,21.7104849" id="path3999"></path>
                </g>
                <polygon id="path4001" fill="#000000" points="181.179528 457.574602 220.608924 457.574602 220.608924 275.399922 181.179528 275.399922"></polygon>
                <g id="g4003" transform="translate(82.6037, 369.608) scale(-1, 1) rotate(-180) translate(-82.6037, -369.608)translate(0, 281.6396)" fill="#000000">
                    <path d="M54.6532855,63.139193 L78.1093489,144.243983 L79.1101785,144.243983 L101.321078,63.139193 L54.6532855,63.139193 Z M112.052979,175.936921 L59.145272,175.936921 L0,0 L36.4363068,0 L46.41876,34.4393463 L109.057538,34.4393463 L118.537227,0 L165.207369,0 L112.052979,175.936921 Z" id="path4005"></path>
                </g>
                <polygon id="path4007" fill="#000000" points="247.56084 457.574602 286.990236 457.574602 286.990236 323.81353 247.56084 323.81353"></polygon>
                <g id="g4009" transform="translate(632.7613, 411.907) scale(-1, 1) rotate(-180) translate(-632.7613, -411.907)translate(566.2543, 323.814)" fill="#000000">
                    <polygon id="path4011" points="132.767333 175.936921 133.014016 176.185954 95.8306115 176.185954 72.3745481 94.8321312 71.1270351 94.8321312 44.1751162 176.185954 0 176.185954 53.1590891 41.9244242 30.9481894 0.998480262 30.9481894 0 65.6365684 0"></polygon>
                </g>
                <g id="g4013" transform="translate(371.8458, 410.5342) scale(-1, 1) rotate(-180) translate(-371.8458, -410.5342)translate(307.2089, 321.0692)" fill="#000000">
                    <path d="M52.9077071,65.3828369 C48.4180699,65.3828369 44.1727668,65.8809024 39.4340969,67.3797974 L39.4340969,139.749647 C47.6686224,145.489146 54.4066021,148.235554 62.8901603,148.235554 C77.6159822,148.235554 89.3440138,136.505173 89.3440138,111.550215 C89.3440138,79.6082439 72.1255154,65.3828369 52.9077071,65.3828369 M77.8650149,178.930012 C63.3905751,178.930012 52.1606089,173.439546 39.4340969,162.959027 L39.4340969,176.185954 L0,176.185954 L0,0 L39.4340969,0 L39.4340969,43.672352 C46.9191749,41.6753915 53.9061873,40.6769112 62.3920949,40.6769112 C97.5785393,40.6769112 129.273827,66.6303499 129.273827,112.797728 C129.273827,154.224087 106.31113,178.930012 77.8650149,178.930012" id="path4015"></path>
                </g>
                <g id="g4017" transform="translate(502.622, 390.6959) scale(-1, 1) rotate(-180) translate(-502.622, -390.6959)translate(441.9802, 321.0701)" fill="#000000">
                    <path d="M77.1108686,35.1887938 C66.6303499,29.4492943 60.637119,27.2033011 53.6548052,27.2033011 C44.1704174,27.2033011 38.1818852,33.440866 38.1818852,43.4233193 C38.1818852,47.1682076 38.9289834,50.9107465 41.9220748,53.903838 C46.6654434,58.6472065 55.9007985,62.1407128 77.1108686,67.1307647 L77.1108686,35.1887938 Z M116.540267,36.1872741 L116.540267,92.0857232 C116.540267,122.533498 98.5746702,139.251581 66.881732,139.251581 C46.6654434,139.251581 32.6914185,135.760425 7.23604519,128.023965 L14.2207083,97.3271572 C37.4300883,107.810025 47.6639237,112.302012 58.3958245,112.302012 C71.3737185,112.302012 77.1108686,103.069006 77.1108686,88.843599 L77.1108686,87.8451188 C31.9396216,79.3592112 17.9655966,74.618192 9.23065635,65.8832517 C2.7440587,59.3943047 0,50.161299 0,39.4317476 C0,13.7273416 19.9649065,0 38.6823,0 C52.656325,0 63.8839418,5.24143403 79.1101785,16.7227824 L81.8542372,2.74640806 L121.283635,2.74640806 L116.540267,36.1872741 Z" id="path4019"></path>
                </g>
            </g>
        </g>
    </g>
</svg>