<?xml version="1.0" encoding="UTF-8"?>
<svg width="980px" height="680px" viewBox="0 0 980 680" version="1.1" xmlns="http://www.w3.org/2000/svg" xmlns:xlink="http://www.w3.org/1999/xlink">
    <title>CN Alipay text alt</title>
    <defs>
        <linearGradient x1="50%" y1="0%" x2="50%" y2="100%" id="linearGradient-1">
            <stop stop-color="#FFFFFF" offset="0%"></stop>
            <stop stop-color="#EDEDED" offset="100%"></stop>
        </linearGradient>
        <rect id="path-2" x="2.84217094e-14" y="0" width="900" height="600" rx="80"></rect>
        <filter x="-6.7%" y="-10.0%" width="113.3%" height="120.0%" filterUnits="objectBoundingBox" id="filter-3">
            <feMorphology radius="2.5" operator="dilate" in="SourceAlpha" result="shadowSpreadOuter1"></feMorphology>
            <feOffset dx="0" dy="0" in="shadowSpreadOuter1" result="shadowOffsetOuter1"></feOffset>
            <feGaussianBlur stdDeviation="17.5" in="shadowOffsetOuter1" result="shadowBlurOuter1"></feGaussianBlur>
            <feColorMatrix values="0 0 0 0 0   0 0 0 0 0   0 0 0 0 0  0 0 0 0.5 0" type="matrix" in="shadowBlurOuter1"></feColorMatrix>
        </filter>
    </defs>
    <g id="CN-Alipay-text-alt" stroke="none" stroke-width="1" fill="none" fill-rule="evenodd">
        <g transform="translate(40, 40)">
            <g id="Rectangle">
                <use fill="black" fill-opacity="1" filter="url(#filter-3)" xlink:href="#path-2"></use>
                <use fill="url(#linearGradient-1)" fill-rule="evenodd" xlink:href="#path-2"></use>
            </g>
            <g id="Logo" transform="translate(50, 199)" fill-rule="nonzero">
                <g id="g3989" transform="translate(100.0074, 100.8615) scale(-1, 1) rotate(-180) translate(-100.0074, -100.8615)" fill="#1677FF">
                    <path d="M167.985305,201.72294 L32.0409278,201.72294 C14.3369831,201.72294 0,187.259365 0,169.406155 L0,32.311116 C0,14.4692431 14.3369831,0 32.0409278,0 L167.985305,0 C185.685471,0 200.014896,14.4692431 200.014896,32.311116 L200.014896,169.406155 C200.014896,187.259365 185.685471,201.72294 167.985305,201.72294" id="path3991"></path>
                </g>
                <g id="g3993" transform="translate(107.4079, 97.6771) scale(-1, 1) rotate(-180) translate(-107.4079, -97.6771)translate(14.8004, 26.7451)" fill="#FFFFFF">
                    <path d="M39.2453749,13.4829615 C8.1283777,13.4829615 -1.07124945,38.202354 14.3068088,51.7268828 C19.4384964,56.2974103 28.8157299,58.5288253 33.8151576,59.0295238 C52.2994361,60.8717166 69.4101002,53.7599079 89.6024222,43.8196248 C75.4090356,25.1464033 57.3309841,13.4829615 39.2453749,13.4829615 M149.878969,41.9453117 C141.87535,44.6490838 131.135838,48.7831533 119.173867,53.147733 C126.357474,65.7426631 132.095668,80.0853145 135.866967,95.6730993 L96.4402637,95.6730993 L96.4402637,109.994967 L144.737834,109.994967 L144.737834,117.989139 L96.4402637,117.989139 L96.4402637,141.863957 L76.7297461,141.863957 C73.272092,141.863957 73.272092,138.421418 73.272092,138.421418 L73.272092,117.989139 L24.4246981,117.989139 L24.4246981,109.994967 L73.272092,109.994967 L73.272092,95.6730993 L32.9422416,95.6730993 L32.9422416,87.6808169 L111.160801,87.6808169 C108.298317,77.7348655 104.455219,68.3973101 99.894139,59.9137763 C74.5134465,68.3595215 47.430379,75.2049208 30.4160758,70.9914954 C19.5348573,68.2877233 12.5269671,63.462123 8.40990254,58.4060124 C-10.4862715,35.2189464 3.06659887,-6.08890822e-13 42.9732173,-6.08890822e-13 C66.5683998,-6.08890822e-13 89.2982242,13.2675666 106.915255,35.1320327 C133.191537,22.3935061 185.21506,0.521482254 185.21506,0.521482254 L185.21506,31.6932729 C185.21506,31.6932729 178.681416,32.218534 149.878969,41.9453117" id="path3995"></path>
                </g>
                <g id="g3997" transform="translate(452.5786, 29.5297) scale(-1, 1) rotate(-180) translate(-452.5786, -29.5297)translate(434.3154, 12.0685)" fill="#1677FF">
                    <path d="M0,17.4602084 C0,7.024895 7.62573325,0 18.2632155,0 C28.9006977,0 36.5264309,7.024895 36.5264309,17.4602084 C36.5264309,27.6952423 28.9006977,34.9223062 18.2632155,34.9223062 C7.62573325,34.9223062 0,27.6952423 0,17.4602084" id="path3999"></path>
                </g>
                <polygon id="path4001" fill="#000000" points="383.337823 162.994907 415.048099 162.994907 415.048099 16.48469 383.337823 16.48469"></polygon>
                <g id="g4003" transform="translate(304.0602, 92.2496) scale(-1, 1) rotate(-180) translate(-304.0602, -92.2496)translate(237.6279, 21.5028)" fill="#000000">
                    <path d="M43.9537742,50.7783898 L62.8178279,116.005239 L63.6227244,116.005239 L81.485381,50.7783898 L43.9537742,50.7783898 Z M90.1162902,141.493629 L47.5663614,141.493629 L0,0 L29.3031459,0 L37.3313274,27.6971317 L87.7072689,27.6971317 L95.3311128,0 L132.864609,0 L90.1162902,141.493629 Z" id="path4005"></path>
                </g>
                <polygon id="path4007" fill="#000000" points="436.723619 162.994907 468.433895 162.994907 468.433895 55.4203323 436.723619 55.4203323"></polygon>
                <g id="g4009" transform="translate(746.5131, 126.2677) scale(-1, 1) rotate(-180) translate(-746.5131, -126.2677)translate(693.0262, 55.4207)" fill="#000000">
                    <polygon id="path4011" points="106.775381 141.493629 106.973771 141.693908 77.0697867 141.693908 58.205733 76.2667796 57.2024465 76.2667796 35.5269233 141.693908 0 141.693908 42.7520977 33.7168508 24.8894411 0.803007094 24.8894411 0 52.7868522 0"></polygon>
                </g>
                <g id="g4013" transform="translate(536.6772, 125.1636) scale(-1, 1) rotate(-180) translate(-536.6772, -125.1636)translate(484.6943, 53.2133)" fill="#000000">
                    <path d="M42.5499288,52.5827939 C38.9392311,52.5827939 35.5250338,52.9833528 31.7140566,54.1888081 L31.7140566,112.390762 C38.3365034,117.006636 43.7553842,119.215378 50.5781103,119.215378 C62.4210479,119.215378 71.8530748,109.781462 71.8530748,89.7119525 C71.8530748,64.0232832 58.0054536,52.5827939 42.5499288,52.5827939 M62.6213273,143.900761 C50.9805586,143.900761 41.9490906,139.485166 31.7140566,131.056426 L31.7140566,141.693908 L0,141.693908 L0,0 L31.7140566,0 L31.7140566,35.1225856 C37.7337757,33.5165714 43.3529359,32.7135643 50.1775515,32.7135643 C78.4755215,32.7135643 103.965801,53.5860804 103.965801,90.715239 C103.965801,124.031531 85.4985271,143.900761 62.6213273,143.900761" id="path4015"></path>
                </g>
                <g id="g4017" transform="translate(641.8513, 109.2091) scale(-1, 1) rotate(-180) translate(-641.8513, -109.2091)translate(593.0814, 53.214)" fill="#000000">
                    <path d="M62.0148208,28.2998594 C53.5860804,23.6839857 48.7661485,21.8776921 43.1507671,21.8776921 C35.5231444,21.8776921 30.7069913,26.8941246 30.7069913,34.9223062 C30.7069913,37.9340551 31.3078295,40.9439146 33.7149614,43.3510465 C37.5297174,47.1658026 44.9570607,49.9753827 62.0148208,53.9885287 L62.0148208,28.2998594 Z M93.7250986,29.1028665 L93.7250986,74.0580378 C93.7250986,98.5450306 79.2766392,111.990203 53.7882493,111.990203 C37.5297174,111.990203 26.291397,109.182513 5.81943965,102.960625 L11.4367104,78.2733527 C30.1023742,86.7039824 38.3327245,90.3165696 46.9636337,90.3165696 C57.4008365,90.3165696 62.0148208,82.8911158 62.0148208,71.4506265 L62.0148208,70.6476194 C25.6867799,63.8230038 14.4484594,60.0101372 7.4235644,52.9852422 C2.20685244,47.7666408 0,40.341187 0,31.7121672 C0,11.0399305 16.056363,0 31.1094395,0 C42.34776,0 51.3773386,4.21531489 63.6227244,13.4489518 L65.8295768,2.20874187 L97.5398546,2.20874187 L93.7250986,29.1028665 Z" id="path4019"></path>
                </g>
            </g>
        </g>
    </g>
</svg>