<?xml version="1.0" encoding="UTF-8"?>
<svg width="980px" height="680px" viewBox="0 0 980 680" version="1.1" xmlns="http://www.w3.org/2000/svg" xmlns:xlink="http://www.w3.org/1999/xlink">
    <title>CN Alipay text</title>
    <defs>
        <linearGradient x1="50%" y1="0%" x2="50%" y2="100%" id="linearGradient-1">
            <stop stop-color="#FFFFFF" offset="0%"></stop>
            <stop stop-color="#EDEDED" offset="100%"></stop>
        </linearGradient>
        <rect id="path-2" x="0" y="0" width="900" height="600" rx="80"></rect>
        <filter x="-6.7%" y="-10.0%" width="113.3%" height="120.0%" filterUnits="objectBoundingBox" id="filter-3">
            <feMorphology radius="2.5" operator="dilate" in="SourceAlpha" result="shadowSpreadOuter1"></feMorphology>
            <feOffset dx="0" dy="0" in="shadowSpreadOuter1" result="shadowOffsetOuter1"></feOffset>
            <feGaussianBlur stdDeviation="17.5" in="shadowOffsetOuter1" result="shadowBlurOuter1"></feGaussianBlur>
            <feColorMatrix values="0 0 0 0 0   0 0 0 0 0   0 0 0 0 0  0 0 0 0.5 0" type="matrix" in="shadowBlurOuter1"></feColorMatrix>
        </filter>
        <polygon id="path-4" points="0 0 470.934812 0 470.934812 237.799859 0 237.799859"></polygon>
    </defs>
    <g id="CN-Alipay-text" stroke="none" stroke-width="1" fill="none" fill-rule="evenodd">
        <g transform="translate(40, 40)">
            <g id="Rectangle">
                <use fill="black" fill-opacity="1" filter="url(#filter-3)" xlink:href="#path-2"></use>
                <use fill="url(#linearGradient-1)" fill-rule="evenodd" xlink:href="#path-2"></use>
            </g>
            <g id="Logo" transform="translate(49.9999, 161)">
                <g id="Group-3" fill="#1677FF">
                    <path d="M76.4588431,150.144503 C74.0326018,150.172043 71.5952772,150.301685 69.140152,150.538129 C62.0615998,151.233692 48.7723535,154.288324 41.5067281,160.574587 C19.7296676,179.149909 32.7636615,213.107547 76.8397065,213.107547 C102.461338,213.107547 128.061476,197.0871 148.172007,171.433897 C122.244408,159.060537 99.9135165,149.878503 76.4588431,150.144503 Z M45.3879081,0 C20.2986117,0 0,19.8707281 0,44.4024995 L0,232.724702 C0,257.237329 20.2986117,277.118805 45.3879081,277.118805 L237.959391,277.118805 C263.028872,277.118805 283.338567,257.238001 283.338567,232.724702 L283.338567,230.797882 C282.491868,230.454299 209.699927,200.758032 172.701427,183.357543 C147.740428,213.401087 115.544704,231.62846 82.11705,231.62846 C25.590733,231.62846 6.3954162,183.243015 33.1603103,151.392553 C38.9961863,144.44868 48.9238256,137.815476 64.3316669,134.101889 C88.4345471,128.310011 126.79361,137.718413 162.745911,149.322322 C169.213201,137.670385 174.653436,124.837906 178.705904,111.17485 L67.9122536,111.17485 L67.9122536,100.200675 L125.042108,100.200675 L125.042108,80.520379 L55.847883,80.520379 L55.847883,69.5391519 L125.042108,69.5391519 L125.042108,41.4667609 C125.042108,41.4667609 125.042108,36.7382101 129.941275,36.7382101 L157.869247,36.7382101 L157.869247,69.5381443 L226.273533,69.5381443 L226.273533,80.5223942 L157.869247,80.5223942 L157.869247,100.200675 L213.704703,100.200675 C208.361867,121.609299 200.249543,141.315457 190.065644,158.614181 C207.011716,164.609254 222.223081,170.296009 233.559646,174.00926 C271.373275,186.384635 281.971623,187.89667 283.338567,188.054859 L283.338567,44.4031712 C283.338567,19.8713998 263.030887,0 237.962078,0 L45.390595,0 L45.3879081,0 Z" id="Fill-1"></path>
                </g>
                <g id="Group-6" transform="translate(329.0653, 18.0758)">
                    <mask id="mask-5" fill="white">
                        <use xlink:href="#path-4"></use>
                    </mask>
                    <g id="Clip-5"></g>
                    <path d="M357.526335,25.3640286 L438.628757,25.3640286 L438.628757,41.115453 L467.602256,41.115453 L467.602256,22.4524718 C467.592516,22.4135123 467.592516,22.3943683 467.592516,22.3463406 C467.592516,18.1497895 464.240985,14.7559401 460.090447,14.6884325 L413.205618,14.6884325 L413.205618,0 L382.8907,0 L382.8907,14.687425 L328.562576,14.687425 L328.562576,41.115453 L357.525328,41.115453 L357.526335,25.3640286 Z M470.930277,148.479989 L461.831873,118.329978 C461.220946,116.405845 459.445934,115.013711 457.335736,115.013711 L433.214048,115.013711 L440.213001,138.171822 L411.849757,138.171822 L411.849757,93.3058377 L467.538443,93.3058377 L467.538443,82.6302417 L411.849757,82.6302417 L411.849757,61.510792 L467.538443,61.510792 L467.538443,50.8351959 L328.571644,50.8351959 L328.571644,61.510792 L384.249919,61.510792 L384.249919,82.6292341 L328.571644,82.6292341 L328.571644,93.3048301 L384.249919,93.3048301 L384.249919,138.170814 L328.571644,138.170814 L328.571644,148.847418 L470.934979,148.847418 L470.816086,148.479989 L470.930277,148.479989 Z M182.059114,1.36526451 L152.365199,70.2612475 L175.147148,70.2612475 L175.147148,152.24026 L200.059447,152.24026 L200.059447,43.4970251 L191.030229,43.4970251 L209.790609,1.36526451 L182.059114,1.36526451 Z M245.771123,57.8398593 C244.825009,55.9452819 242.892816,54.6391285 240.645251,54.6196487 L219.076087,54.6196487 L235.884794,106.526569 L261.397608,106.526569 L245.771123,57.8398593 Z M300.366925,2.6217109 L274.478622,2.6217109 L274.478622,29.1551985 L210.6672,29.1551985 L210.6672,39.8398627 L274.478622,39.8398627 L274.478622,135.234404 C274.252253,137.419835 272.497729,139.121629 270.298864,139.237836 L257.138587,139.237836 L257.138587,150.290266 L290.695882,150.290266 C296.009498,150.078003 300.249039,145.754833 300.366925,140.398227 L300.366925,39.8388551 L310.875264,39.8388551 L310.875264,29.1541909 L300.367933,29.1541909 L300.366925,2.6217109 Z M138.812976,50.9634939 L89.0790594,50.9634939 L89.0790594,33.4810551 L146.74931,33.4810551 L146.74931,22.5928607 L89.0790594,22.5928607 L89.0790594,0.439638684 L63.3694325,0.439638684 C60.5502369,0.439638684 58.2727809,2.76008457 58.2727809,5.61253021 L58.2727809,22.5928607 L1.00656771,22.5928607 L1.00656771,33.4810551 L58.2727809,33.4810551 L58.2727809,50.9645014 L9.93939435,50.9645014 L9.93939435,61.8422842 L106.211198,61.8422842 C106.211198,61.8422842 100.877766,82.2755752 74.468546,104.233663 C50.808999,86.6642373 42.9025557,72.6723751 42.9025557,72.6723751 L17.074035,72.6723751 C27.5235983,90.4359274 42.3702201,104.659532 58.3597682,115.944039 C43.6716715,125.304078 24.62514,134.326243 0,141.549886 L0,154.58388 C0,154.58388 37.9929772,147.554363 74.7143944,126.329454 C111.49593,147.3908 148.43364,154.58388 148.43364,154.58388 L148.43364,142.245449 C124.793909,133.804319 106.06342,124.520856 91.3555078,115.567878 C112.659008,100.086148 131.330386,79.0738368 138.812976,50.9645014 L138.812976,50.9634939 Z M57.1940036,225.060413 L61.4923198,237.795157 L73.5392257,237.795157 L49.8010878,174.565441 L40.5942007,174.565441 L16.9336461,237.795157 L28.9899562,237.795157 L33.4756813,225.060413 L57.1940036,225.060413 Z M45.5316555,190.868345 L54.4439948,217.092171 L36.2955487,217.092171 L45.5316555,190.868345 Z M111.578216,174.569807 L111.578216,237.799859 L150.606308,237.799859 L150.606308,229.184082 L123.172384,229.184082 L123.172384,174.569807 L111.578216,174.569807 Z M193.134718,237.798851 L204.737955,237.798851 L204.737955,174.569136 L193.13539,174.569136 L193.134718,237.798851 Z M276.790671,174.568128 L251.74067,174.568128 L251.74067,237.797843 L263.333832,237.797843 L263.333832,213.488746 L276.789664,213.488746 C289.290314,213.488746 298.023977,205.482889 298.023977,194.023735 C298.023977,182.564917 289.290314,174.569136 276.789664,174.569136 L276.790671,174.568128 Z M276.140113,204.796394 L263.334503,204.796394 L263.334503,183.165432 L276.140113,183.165432 C282.577848,183.165432 286.422419,188.686609 286.422419,194.023735 C286.422419,199.245662 282.823696,204.795723 276.140113,204.795723 L276.140113,204.796394 Z M366.118602,225.060413 L370.416918,237.795157 L382.473228,237.795157 L358.73509,174.565441 L349.517791,174.565441 L325.858244,237.795157 L337.92463,237.795157 L342.409348,225.060413 L366.118602,225.060413 Z M354.456254,190.868345 L363.377997,217.092507 L345.219475,217.092507 L354.456254,190.868345 Z M447.05914,174.569807 L434.411719,201.509684 L421.575881,174.569807 L409.036271,174.569807 L428.564759,211.816843 L428.564759,237.798851 L440.068918,237.798851 L440.068918,211.816843 L440.138105,211.671752 L459.587667,174.569807 L447.05914,174.569807 Z" id="Fill-4" fill="#000000" mask="url(#mask-5)"></path>
                </g>
            </g>
        </g>
    </g>
</svg>