<?xml version="1.0" encoding="UTF-8"?>
<svg width="980px" height="680px" viewBox="0 0 980 680" version="1.1" xmlns="http://www.w3.org/2000/svg" xmlns:xlink="http://www.w3.org/1999/xlink">
    <title>DE Barzahlen text</title>
    <defs>
        <linearGradient x1="50%" y1="0%" x2="50%" y2="100%" id="linearGradient-1">
            <stop stop-color="#FFFFFF" offset="0%"></stop>
            <stop stop-color="#EDEDED" offset="100%"></stop>
        </linearGradient>
        <rect id="path-2" x="2.84217094e-14" y="0" width="900" height="600" rx="80"></rect>
        <filter x="-6.7%" y="-10.0%" width="113.3%" height="120.0%" filterUnits="objectBoundingBox" id="filter-3">
            <feMorphology radius="2.5" operator="dilate" in="SourceAlpha" result="shadowSpreadOuter1"></feMorphology>
            <feOffset dx="0" dy="0" in="shadowSpreadOuter1" result="shadowOffsetOuter1"></feOffset>
            <feGaussianBlur stdDeviation="17.5" in="shadowOffsetOuter1" result="shadowBlurOuter1"></feGaussianBlur>
            <feColorMatrix values="0 0 0 0 0   0 0 0 0 0   0 0 0 0 0  0 0 0 0.5 0" type="matrix" in="shadowBlurOuter1"></feColorMatrix>
        </filter>
    </defs>
    <g id="DE-Barzahlen-text" stroke="none" stroke-width="1" fill="none" fill-rule="evenodd">
        <g transform="translate(40, 40)">
            <g id="Rectangle">
                <use fill="black" fill-opacity="1" filter="url(#filter-3)" xlink:href="#path-2"></use>
                <use fill="url(#linearGradient-1)" fill-rule="evenodd" xlink:href="#path-2"></use>
            </g>
            <g id="Logo" transform="translate(50, 165)" fill-rule="nonzero">
                <path d="M93.6254558,270.441302 C88.0246004,270.441302 82.6904524,261.639958 79.6233173,256.972578 L2.94494035,144.288702 C0.944634863,141.354921 -0.12219473,138.021079 0.0111589687,134.420529 L1.21134226,58.942335 C1.34469596,54.6750166 2.94494035,50.4076983 6.01207543,47.3405632 L47.2183685,5.06744057 C50.4188572,1.73359809 54.8195293,0 59.3535551,0 L128.03071,0 C132.564736,0 136.965408,1.86695179 140.165897,5.06744057 L181.37219,47.3405632 C184.439325,50.4076983 186.039569,54.5416629 186.172923,58.942335 L187.373106,134.420529 C187.373106,137.887725 186.43963,141.354921 184.439325,144.288702 L107.760948,256.972578 C104.427105,261.773311 99.2263111,270.441302 93.6254558,270.441302" id="Path" fill="#5FB246"></path>
                <path d="M47.7517833,48.1406854 L47.7517833,162.558159 C47.7517833,162.558159 77.2229508,162.558159 96.0258223,162.558159 C103.626983,162.558159 146.300167,158.157487 147.633704,116.684487 C148.967241,71.2108753 78.1564267,85.8797822 78.1564267,85.8797822 L78.1564267,103.615824 C78.1564267,103.615824 127.630649,94.8144801 124.43016,119.351561 C122.429855,134.420529 107.894302,140.021384 98.82625,140.421445 C89.3581374,140.95486 69.0883751,140.554799 69.0883751,140.554799 L69.0883751,64.4098367 C69.0883751,64.4098367 84.6907579,61.3427016 99.4930185,61.2093479 C117.095707,61.0759942 133.364858,65.2099589 133.364858,65.2099589 L139.365775,45.206904 C139.365775,45.206904 126.563819,40.6728782 101.493324,40.2728171 C78.4231341,39.872756 47.7517833,48.1406854 47.7517833,48.1406854" id="Path" fill="#FFFFFF"></path>
                <path d="M268.585509,127.61949 L276.986792,127.61949 C285.121368,127.61949 295.122895,125.619185 295.122895,115.35095 C295.122895,103.882532 285.788136,102.148934 276.986792,102.148934 L268.585509,102.148934 L268.585509,127.61949 Z M268.585509,89.080271 L275.786609,89.080271 C283.254416,89.080271 292.455821,87.4800266 292.455821,78.4119751 C292.455821,68.1437403 283.521123,67.4769718 275.386548,67.4769718 L268.585509,67.4769718 L268.585509,89.080271 L268.585509,89.080271 Z M250.982821,53.608187 L281.787525,53.608187 C293.12259,53.608187 310.191863,56.9420295 310.191863,76.1449622 C310.191863,86.5465507 303.124117,93.8810042 292.722529,95.747956 L292.722529,96.0146634 C304.724361,97.2148467 312.858937,105.216069 312.858937,116.017718 C312.858937,138.154432 292.989236,141.488275 281.920879,141.488275 L250.982821,141.488275 L250.982821,53.608187 Z" id="Shape" fill="#4A4B4C"></path>
                <path d="M345.930654,130.686625 C351.131449,130.686625 355.13206,128.419612 357.799134,124.952416 C360.599561,121.218513 361.399684,116.684487 361.399684,111.617046 L354.06523,111.617046 C346.464069,111.617046 335.262359,112.817229 335.262359,122.818757 C335.262359,128.286259 339.929738,130.686625 345.930654,130.686625 M326.194307,80.0122195 C332.728638,76.9450844 341.529982,75.0781326 348.731082,75.0781326 C368.46743,75.0781326 376.735359,83.2127083 376.735359,102.415641 L376.735359,110.68357 C376.735359,117.217902 376.868713,122.151988 377.002066,126.952722 C377.13542,131.886808 377.402127,136.420834 377.802189,141.488275 L362.866574,141.488275 C362.199806,138.021079 362.199806,133.75376 362.066452,131.753455 L361.799745,131.753455 C357.932487,138.954554 349.397851,142.955165 341.79669,142.955165 C330.328272,142.955165 319.126561,136.020773 319.126561,123.752233 C319.126561,114.017413 323.79394,108.416557 330.194918,105.216069 C336.595896,102.01558 344.863825,101.482165 351.931571,101.482165 L361.26633,101.482165 C361.26633,90.9472228 356.59895,87.4800266 346.597423,87.4800266 C339.396323,87.4800266 332.195223,90.2804543 326.594368,94.5477727 L326.194307,80.0122195 Z" id="Shape" fill="#4A4B4C"></path>
                <path d="M390.604144,76.678377 L405.539758,76.678377 L405.539758,91.4806376 L405.806465,91.4806376 C406.606588,85.3463674 413.54098,75.2114863 423.542507,75.2114863 C425.142752,75.2114863 427.009704,75.2114863 428.743302,75.7449011 L428.743302,92.6808209 C427.276411,91.747345 424.209276,91.3472839 421.142141,91.3472839 C407.40671,91.3472839 407.40671,108.416557 407.40671,117.751316 L407.40671,141.488275 L390.47079,141.488275 L390.47079,76.678377 L390.604144,76.678377 Z" id="Path" fill="#4A4B4C"></path>
                <polygon id="Path" fill="#4A4B4C" points="438.344768 76.678377 489.685942 76.678377 489.685942 90.5471617 457.414347 128.419612 490.886125 128.419612 490.886125 141.488275 436.877877 141.488275 436.877877 127.752844 469.816241 89.7470395 438.344768 89.7470395"></polygon>
                <path d="M523.557782,130.686625 C528.758576,130.686625 532.759187,128.419612 535.426261,124.952416 C538.226689,121.218513 539.026811,116.684487 539.026811,111.617046 L531.692357,111.617046 C524.091197,111.617046 512.889486,112.817229 512.889486,122.818757 C512.889486,128.286259 517.556865,130.686625 523.557782,130.686625 M503.821434,80.0122195 C510.355766,76.9450844 519.15711,75.0781326 526.358209,75.0781326 C546.094557,75.0781326 554.362486,83.2127083 554.362486,102.415641 L554.362486,110.68357 C554.362486,117.217902 554.49584,122.151988 554.629194,126.952722 C554.762547,131.886808 555.029255,136.420834 555.429316,141.488275 L540.493702,141.488275 C539.826933,138.021079 539.826933,133.75376 539.693579,131.753455 L539.426872,131.753455 C535.559615,138.954554 527.024978,142.955165 519.423817,142.955165 C507.955399,142.955165 496.753688,136.020773 496.753688,123.752233 C496.753688,114.017413 501.421068,108.416557 507.822045,105.216069 C514.223023,102.01558 522.490952,101.482165 529.558698,101.482165 L538.893457,101.482165 C538.893457,90.9472228 534.226078,87.4800266 524.22455,87.4800266 C517.02345,87.4800266 509.822351,90.2804543 504.221495,94.5477727 L503.821434,80.0122195 Z" id="Shape" fill="#4A4B4C"></path>
                <path d="M567.83121,47.0738558 L584.76713,47.0738558 L584.76713,85.4797211 L585.033837,85.4797211 C589.301155,79.2120973 596.635609,75.2114863 605.436953,75.2114863 C620.772628,75.2114863 627.440313,86.0131359 627.440313,100.682043 L627.440313,141.621628 L610.637747,141.621628 L610.637747,106.949667 C610.637747,98.9484447 610.504394,88.2801488 599.702744,88.2801488 C587.434204,88.2801488 584.900483,101.482165 584.900483,109.883448 L584.900483,141.621628 L567.964564,141.621628 L567.964564,47.0738558 L567.83121,47.0738558 Z" id="Path" fill="#4A4B4C"></path>
                <rect id="Rectangle" fill="#4A4B4C" x="641.975867" y="47.0738558" width="16.9359198" height="94.5477727"></rect>
                <path d="M714.253571,102.682348 C713.720157,94.5477727 709.986253,87.4800266 700.51814,87.4800266 C691.050028,87.4800266 686.249295,94.0143579 685.582526,102.682348 L714.253571,102.682348 Z M725.588636,137.887725 C719.454366,141.354921 712.38662,143.088519 703.318568,143.088519 C681.848623,143.088519 669.446729,130.686625 669.446729,109.483387 C669.446729,90.6805154 679.448256,75.2114863 699.584665,75.2114863 C723.58833,75.2114863 730.389369,91.747345 730.389369,114.417474 L685.582526,114.417474 C686.382648,124.819062 693.583748,130.819979 704.11869,130.819979 C712.253266,130.819979 719.321012,127.752844 725.588636,124.285648 L725.588636,137.887725 L725.588636,137.887725 Z" id="Shape" fill="#4A4B4C"></path>
                <path d="M740.390896,76.678377 L756.39334,76.678377 L756.39334,85.4797211 L756.660048,85.4797211 C761.994196,78.011914 769.195296,75.2114863 777.99664,75.2114863 C793.332315,75.2114863 800,86.0131359 800,100.682043 L800,141.621628 L783.197434,141.621628 L783.197434,106.949667 C783.197434,98.9484447 783.06408,88.2801488 772.262431,88.2801488 C759.99389,88.2801488 757.46017,101.482165 757.46017,109.883448 L757.46017,141.621628 L740.52425,141.621628 L740.52425,76.678377 L740.390896,76.678377 Z" id="Path" fill="#4A4B4C"></path>
            </g>
        </g>
    </g>
</svg>