<?xml version="1.0" encoding="UTF-8"?>
<svg width="980px" height="680px" viewBox="0 0 980 680" version="1.1" xmlns="http://www.w3.org/2000/svg" xmlns:xlink="http://www.w3.org/1999/xlink">
    <title>DE DHL Nachnahme</title>
    <defs>
        <rect id="path-1" x="0" y="0" width="900" height="600" rx="80"></rect>
        <filter x="-6.7%" y="-10.0%" width="113.3%" height="120.0%" filterUnits="objectBoundingBox" id="filter-2">
            <feMorphology radius="2.5" operator="dilate" in="SourceAlpha" result="shadowSpreadOuter1"></feMorphology>
            <feOffset dx="0" dy="0" in="shadowSpreadOuter1" result="shadowOffsetOuter1"></feOffset>
            <feGaussianBlur stdDeviation="17.5" in="shadowOffsetOuter1" result="shadowBlurOuter1"></feGaussianBlur>
            <feColorMatrix values="0 0 0 0 0   0 0 0 0 0   0 0 0 0 0  0 0 0 0.5 0" type="matrix" in="shadowBlurOuter1"></feColorMatrix>
        </filter>
    </defs>
    <g id="DE-DHL-Nachnahme" stroke="none" stroke-width="1" fill="none" fill-rule="evenodd">
        <g transform="translate(40, 40)">
            <g id="Rectangle">
                <use fill="black" fill-opacity="1" filter="url(#filter-2)" xlink:href="#path-1"></use>
                <use fill="#FECC00" fill-rule="evenodd" xlink:href="#path-1"></use>
            </g>
            <path d="M895,345 L895,520 C895,540.710678 886.605339,559.460678 873.033009,573.033009 C859.460678,586.605339 840.710678,595 820,595 L80,595 C59.2893219,595 40.5393219,586.605339 26.9669914,573.033009 C13.3946609,559.460678 5,540.710678 5,520 L5,345 L895,345 Z" id="Path" stroke="#333333" stroke-width="10" fill="#FF6600"></path>
            <g id="NACHNAHME" transform="translate(164.6, 415.3)" fill="#333333" fill-rule="nonzero">
                <polygon id="Path" points="5.68434189e-14 107.7 5.68434189e-14 0.9 14.7 0.9 37.8 65.25 38.1 65.25 38.1 0.9 53.4 0.9 53.4 107.7 39 107.7 15.6 43.5 15.3 43.5 15.3 107.7"></polygon>
                <path d="M98.1,70.35 L90.6,31.65 L90.3,31.65 L82.8,70.35 L98.1,70.35 Z M60.3,107.7 L84.15,0.9 L96.9,0.9 L120.75,107.7 L105.45,107.7 L100.95,84.75 L80.1,84.75 L75.6,107.7 L60.3,107.7 Z" id="Shape"></path>
                <path d="M176.85,77.25 L176.85,83.85 C176.85,87.15 176.225,90.275 174.975,93.225 C173.725,96.175 172,98.8 169.8,101.1 C167.6,103.4 165.025,105.225 162.075,106.575 C159.125,107.925 155.95,108.6 152.55,108.6 C149.65,108.6 146.7,108.2 143.7,107.4 C140.7,106.6 138,105.2 135.6,103.2 C133.2,101.2 131.225,98.625 129.675,95.475 C128.125,92.325 127.35,88.3 127.35,83.4 L127.35,24.6 C127.35,21.1 127.95,17.85 129.15,14.85 C130.35,11.85 132.05,9.25 134.25,7.05 C136.45,4.85 139.075,3.125 142.125,1.875 C145.175,0.625 148.55,0 152.25,0 C159.45,0 165.3,2.35 169.8,7.05 C172,9.35 173.725,12.075 174.975,15.225 C176.225,18.375 176.85,21.8 176.85,25.5 L176.85,31.5 L161.55,31.5 L161.55,26.4 C161.55,23.4 160.7,20.8 159,18.6 C157.3,16.4 155,15.3 152.1,15.3 C148.3,15.3 145.775,16.475 144.525,18.825 C143.275,21.175 142.65,24.15 142.65,27.75 L142.65,82.35 C142.65,85.45 143.325,88.05 144.675,90.15 C146.025,92.25 148.45,93.3 151.95,93.3 C152.95,93.3 154.025,93.125 155.175,92.775 C156.325,92.425 157.4,91.85 158.4,91.05 C159.3,90.25 160.05,89.15 160.65,87.75 C161.25,86.35 161.55,84.6 161.55,82.5 L161.55,77.25 L176.85,77.25 Z" id="Path"></path>
                <polygon id="Path" points="189.3 107.7 189.3 0.9 204.6 0.9 204.6 46.65 223.5 46.65 223.5 0.9 238.8 0.9 238.8 107.7 223.5 107.7 223.5 60.15 204.6 60.15 204.6 107.7"></polygon>
                <polygon id="Path" points="252.6 107.7 252.6 0.9 267.3 0.9 290.4 65.25 290.7 65.25 290.7 0.9 306 0.9 306 107.7 291.6 107.7 268.2 43.5 267.9 43.5 267.9 107.7"></polygon>
                <path d="M350.7,70.35 L343.2,31.65 L342.9,31.65 L335.4,70.35 L350.7,70.35 Z M312.9,107.7 L336.75,0.9 L349.5,0.9 L373.35,107.7 L358.05,107.7 L353.55,84.75 L332.7,84.75 L328.2,107.7 L312.9,107.7 Z" id="Shape"></path>
                <polygon id="Path" points="380.85 107.7 380.85 0.9 396.15 0.9 396.15 46.65 415.05 46.65 415.05 0.9 430.35 0.9 430.35 107.7 415.05 107.7 415.05 60.15 396.15 60.15 396.15 107.7"></polygon>
                <polygon id="Path" points="444.75 107.7 444.75 0.9 459.45 0.9 479.1 57.45 479.4 57.45 498.9 0.9 513.75 0.9 513.75 107.7 498.45 107.7 498.45 42.75 498.15 42.75 483 88.65 475.35 88.65 460.35 42.75 460.05 42.75 460.05 107.7"></polygon>
                <polygon id="Path" points="528.15 107.7 528.15 0.9 573.75 0.9 573.75 15.3 543.45 15.3 543.45 46.65 569.85 46.65 569.85 61.05 543.45 61.05 543.45 92.4 573.75 92.4 573.75 107.7"></polygon>
            </g>
            <g id="Logo" transform="translate(0, 166.6679)" fill="#D50029" fill-rule="nonzero">
                <path d="M158.273508,0 L129.519165,39.0635528 C129.519165,39.0635528 278.585187,39.0635528 286.232163,39.0635528 C294.153776,39.0635528 294.049001,42.0734482 290.177094,47.3185402 C286.244863,52.6430071 279.664685,61.9028804 275.659429,67.3098972 C273.627432,70.0546805 269.952375,75.0552978 282.130069,75.0552978 C295.004674,75.0552978 346.215759,75.0552978 346.215759,75.0552978 C346.215759,75.0552978 356.545605,60.9980068 365.20223,49.2473498 C376.983049,33.2628367 366.224578,0 324.11303,0 C286.421075,0 158.273508,0 158.273508,0 L158.273508,0 Z" id="Path"></path>
                <path d="M117.884395,127.268093 L175.639144,48.794913 C175.639144,48.794913 239.664509,48.794913 247.30831,48.794913 C255.229923,48.794913 255.126735,51.8048084 251.254829,57.0499003 C247.322597,62.3743672 240.63447,71.5358157 236.629213,76.9444199 C234.595629,79.6892033 230.92216,84.6977581 243.098266,84.6977581 C255.972871,84.6977581 339.111707,84.6977581 339.111707,84.6977581 C331.128182,95.6356164 305.224984,127.268093 258.717655,127.268093 C221.0257,127.268093 117.884395,127.268093 117.884395,127.268093 L117.884395,127.268093 Z" id="Path"></path>
                <path d="M448.647452,84.6866456 L417.327712,127.268093 L334.711164,127.268093 C334.711164,127.268093 366.013441,84.6977581 366.040428,84.6977581 L448.647452,84.6866456 L448.647452,84.6866456 Z" id="Path"></path>
                <polygon id="Path" points="575.210696 75.0552978 373.13813 75.0552978 428.397333 0 510.988482 0 479.316318 43.0370592 516.184361 43.0370592 547.869225 0 630.454024 0"></polygon>
                <path d="M568.119345,84.6977581 L536.785317,127.268093 L454.202106,127.268093 C454.202106,127.268093 485.502796,84.6977581 485.529783,84.6977581 L568.119345,84.6977581 L568.119345,84.6977581 Z" id="Path"></path>
                <polygon id="Path" points="0 101.483957 121.710264 101.483957 115.061824 110.527931 0 110.527931"></polygon>
                <polygon id="Path" points="0 84.6961706 134.075283 84.6961706 127.414143 93.7290318 0 93.7290318"></polygon>
                <polygon id="Path" points="0 118.279682 109.351595 118.279682 102.734906 127.268093 0 127.268093"></polygon>
                <polygon id="Path" points="900 110.527931 778.758048 110.527931 785.41125 101.485545 900 101.485545"></polygon>
                <polygon id="Path" points="900 127.268093 766.432717 127.277618 773.046231 118.279682 900 118.279682"></polygon>
                <polygon id="Path" points="797.760394 84.6977581 900 84.6977581 900 93.7337943 791.113541 93.7401443"></polygon>
                <path d="M744.834812,0 L689.585134,75.0552978 L602.06798,75.0552978 C602.06798,75.0552978 657.333533,0 657.360521,0 L744.834812,0 L744.834812,0 Z" id="Path"></path>
                <path d="M594.986153,84.6977581 C594.986153,84.6977581 588.9489,92.947983 586.016792,96.9135519 C575.642496,110.934331 584.813469,127.268093 618.668442,127.268093 C657.76692,127.268093 751.308627,127.268093 751.308627,127.268093 L782.636304,84.6977581 L594.986153,84.6977581 L594.986153,84.6977581 Z" id="Path"></path>
            </g>
        </g>
    </g>
</svg>