<?xml version="1.0" encoding="UTF-8"?>
<svg width="980px" height="680px" viewBox="0 0 980 680" version="1.1" xmlns="http://www.w3.org/2000/svg" xmlns:xlink="http://www.w3.org/1999/xlink">
    <title>DE DPD Nachnahme alt</title>
    <defs>
        <rect id="path-1" x="0" y="0" width="900" height="600" rx="80"></rect>
        <filter x="-6.7%" y="-10.0%" width="113.3%" height="120.0%" filterUnits="objectBoundingBox" id="filter-2">
            <feMorphology radius="2.5" operator="dilate" in="SourceAlpha" result="shadowSpreadOuter1"></feMorphology>
            <feOffset dx="0" dy="0" in="shadowSpreadOuter1" result="shadowOffsetOuter1"></feOffset>
            <feGaussianBlur stdDeviation="17.5" in="shadowOffsetOuter1" result="shadowBlurOuter1"></feGaussianBlur>
            <feColorMatrix values="0 0 0 0 0   0 0 0 0 0   0 0 0 0 0  0 0 0 0.5 0" type="matrix" in="shadowBlurOuter1"></feColorMatrix>
        </filter>
    </defs>
    <g id="DE-DPD-Nachnahme-alt" stroke="none" stroke-width="1" fill="none" fill-rule="evenodd">
        <g transform="translate(40, 40)">
            <g id="Rectangle">
                <use fill="black" fill-opacity="1" filter="url(#filter-2)" xlink:href="#path-1"></use>
                <use fill="#DC0032" fill-rule="evenodd" xlink:href="#path-1"></use>
            </g>
            <path d="M895,345 L895,520 C895,540.710678 886.605339,559.460678 873.033009,573.033009 C859.460678,586.605339 840.710678,595 820,595 L80,595 C59.2893219,595 40.5393219,586.605339 26.9669914,573.033009 C13.3946609,559.460678 5,540.710678 5,520 L5,345 L895,345 Z" id="Path" stroke="#333333" stroke-width="10" fill="#FF6600"></path>
            <g id="NACHNAHME" transform="translate(164.6, 415.3)" fill="#333333" fill-rule="nonzero">
                <polygon id="Path" points="0 107.7 0 0.9 14.7 0.9 37.8 65.25 38.1 65.25 38.1 0.9 53.4 0.9 53.4 107.7 39 107.7 15.6 43.5 15.3 43.5 15.3 107.7"></polygon>
                <path d="M98.1,70.35 L90.6,31.65 L90.3,31.65 L82.8,70.35 L98.1,70.35 Z M60.3,107.7 L84.15,0.9 L96.9,0.9 L120.75,107.7 L105.45,107.7 L100.95,84.75 L80.1,84.75 L75.6,107.7 L60.3,107.7 Z" id="Shape"></path>
                <path d="M176.85,77.25 L176.85,83.85 C176.85,87.15 176.225,90.275 174.975,93.225 C173.725,96.175 172,98.8 169.8,101.1 C167.6,103.4 165.025,105.225 162.075,106.575 C159.125,107.925 155.95,108.6 152.55,108.6 C149.65,108.6 146.7,108.2 143.7,107.4 C140.7,106.6 138,105.2 135.6,103.2 C133.2,101.2 131.225,98.625 129.675,95.475 C128.125,92.325 127.35,88.3 127.35,83.4 L127.35,24.6 C127.35,21.1 127.95,17.85 129.15,14.85 C130.35,11.85 132.05,9.25 134.25,7.05 C136.45,4.85 139.075,3.125 142.125,1.875 C145.175,0.625 148.55,0 152.25,0 C159.45,0 165.3,2.35 169.8,7.05 C172,9.35 173.725,12.075 174.975,15.225 C176.225,18.375 176.85,21.8 176.85,25.5 L176.85,31.5 L161.55,31.5 L161.55,26.4 C161.55,23.4 160.7,20.8 159,18.6 C157.3,16.4 155,15.3 152.1,15.3 C148.3,15.3 145.775,16.475 144.525,18.825 C143.275,21.175 142.65,24.15 142.65,27.75 L142.65,82.35 C142.65,85.45 143.325,88.05 144.675,90.15 C146.025,92.25 148.45,93.3 151.95,93.3 C152.95,93.3 154.025,93.125 155.175,92.775 C156.325,92.425 157.4,91.85 158.4,91.05 C159.3,90.25 160.05,89.15 160.65,87.75 C161.25,86.35 161.55,84.6 161.55,82.5 L161.55,77.25 L176.85,77.25 Z" id="Path"></path>
                <polygon id="Path" points="189.3 107.7 189.3 0.9 204.6 0.9 204.6 46.65 223.5 46.65 223.5 0.9 238.8 0.9 238.8 107.7 223.5 107.7 223.5 60.15 204.6 60.15 204.6 107.7"></polygon>
                <polygon id="Path" points="252.6 107.7 252.6 0.9 267.3 0.9 290.4 65.25 290.7 65.25 290.7 0.9 306 0.9 306 107.7 291.6 107.7 268.2 43.5 267.9 43.5 267.9 107.7"></polygon>
                <path d="M350.7,70.35 L343.2,31.65 L342.9,31.65 L335.4,70.35 L350.7,70.35 Z M312.9,107.7 L336.75,0.9 L349.5,0.9 L373.35,107.7 L358.05,107.7 L353.55,84.75 L332.7,84.75 L328.2,107.7 L312.9,107.7 Z" id="Shape"></path>
                <polygon id="Path" points="380.85 107.7 380.85 0.9 396.15 0.9 396.15 46.65 415.05 46.65 415.05 0.9 430.35 0.9 430.35 107.7 415.05 107.7 415.05 60.15 396.15 60.15 396.15 107.7"></polygon>
                <polygon id="Path" points="444.75 107.7 444.75 0.9 459.45 0.9 479.1 57.45 479.4 57.45 498.9 0.9 513.75 0.9 513.75 107.7 498.45 107.7 498.45 42.75 498.15 42.75 483 88.65 475.35 88.65 460.35 42.75 460.05 42.75 460.05 107.7"></polygon>
                <polygon id="Path" points="528.15 107.7 528.15 0.9 573.75 0.9 573.75 15.3 543.45 15.3 543.45 46.65 569.85 46.65 569.85 61.05 543.45 61.05 543.45 92.4 573.75 92.4 573.75 107.7"></polygon>
            </g>
            <g id="Logo" transform="translate(153.1874, 50)" fill="#FFFFFF">
                <path d="M389.343503,200.563523 C378.32908,203.637314 363.984724,204.918057 351.689558,204.918057 C319.671918,204.918057 298.668012,188.268357 298.668012,157.786935 C298.668012,128.84207 318.391176,110.143509 347.078871,110.143509 C353.482595,110.143509 360.398626,110.911957 364.497019,112.961152 L364.497019,70.9526686 L389.343503,70.9526686 L389.343503,200.563523 Z M364.497019,134.477346 C360.654779,132.684309 355.275644,131.659708 349.128062,131.659708 C334.016274,131.659708 324.026452,140.881082 324.026452,157.018487 C324.026452,174.180142 334.784722,183.913823 352.458006,183.913823 C355.531798,183.913823 360.398626,183.913823 364.497019,182.889186 L364.497019,134.477346 Z M593.49448,200.563523 C582.480056,203.637314 568.1357,204.918057 555.584381,204.918057 C523.821878,204.918057 502.561479,188.268357 502.561479,157.786935 C502.561479,128.84207 522.284982,110.143509 550.973694,110.143509 C557.633584,110.143509 564.293461,110.911957 568.391854,112.961152 L568.391854,70.9526686 L593.49448,70.9526686 L593.49448,200.563523 Z M568.391854,134.477346 C564.549614,132.684309 559.426621,131.659708 553.279038,131.659708 C537.910081,131.659708 527.920259,140.881082 527.920259,157.018487 C527.920259,174.180142 538.934682,183.913823 556.608982,183.913823 C559.682774,183.913823 564.293461,183.913823 568.391854,182.889186 L568.391854,134.477346 Z M428.534344,134.477346 C432.632724,132.684309 438.524166,132.172002 443.390994,132.172002 C458.759952,132.172002 469.26208,140.881082 469.26208,156.506193 C469.26208,174.94859 457.479209,183.401517 441.854099,183.65767 L441.854099,204.918057 L443.134853,204.918057 C475.409663,204.918057 494.62086,187.243756 494.62086,155.737745 C494.62086,127.049021 474.128909,110.143509 443.903301,110.143509 C428.534344,110.143509 413.421528,113.7296 403.431706,117.827647 L403.431706,239.497871 L428.534344,239.497871 L428.534344,134.477346 Z" id="path7"></path>
                <path d="M110.14351,0 L110.166015,0.0253265841 C111.271739,0.100099884 112.255545,0.349026841 113.229973,0.884647268 L113.47345,1.02459028 L115.010345,1.79303136 L115.090412,1.88693616 L119.942533,4.47428629 L119.620691,4.09835436 L125.834822,7.50592888 L125.768273,7.42826098 L133.708905,11.7827647 L133.791017,11.8779159 L139.856488,15.1127058 L139.893131,15.1559728 L146.260212,18.4426118 L146.502261,18.7244999 L152.407795,21.772519 L152.488635,21.8666555 L158.555377,25.1024589 L158.592989,25.1469525 L164.958775,28.4323661 L165.040083,28.526562 L171.106358,31.7622721 L171.188493,31.8576353 L177.25394,35.0921104 L177.292101,35.1364388 L183.657677,38.4220515 L183.738448,38.516795 L189.805259,41.7519914 L189.884618,41.8456282 L195.952842,45.0819325 L195.989719,45.1251785 L202.356566,48.4118736 L202.43532,48.5047879 L208.50381,51.7418135 L208.549381,51.7955388 L213.370651,54.3033068 L211.560863,55.3080627 L211.577602,55.3279043 L209.258756,56.5924039 L209.272258,56.6086503 L206.953662,57.8730115 L206.967253,57.8893964 L204.647822,59.1543659 L204.66191,59.1701436 L202.516711,60.3393946 L202.61272,60.4508896 L200.229539,61.6416569 L200.307376,61.7316356 L197.987915,62.9961888 L198.002032,63.0123829 L195.682821,64.2767964 L195.696689,64.2931289 L193.377728,65.5581508 L193.391345,65.5738749 L190.573707,67.3669203 L190.470039,67.2464621 L188.268364,68.6476663 L188.231402,68.6047276 L185.96302,69.9280723 L185.950203,69.9129635 L183.913818,71.2088183 L183.809386,71.088285 L182.081499,72.1874421 L182.120781,72.2334159 L179.801793,73.4979182 L179.815437,73.5141619 L177.495953,74.7785258 L177.510094,74.7949079 L175.364842,75.9643013 L175.460891,76.0756552 L173.078416,77.2665635 L173.155548,77.3564012 L170.836046,78.6210954 L170.850204,78.6371472 L168.530953,79.9017031 L168.544861,79.9178944 L166.225859,81.1823107 L166.239517,81.1986405 L163.920018,82.4636651 L163.934174,82.4793865 L161.614925,83.7442727 L161.62883,83.7601337 L159.483814,84.9293015 L159.579979,85.0408797 L157.260859,86.305488 L157.274635,86.3216258 L154.955765,87.5860956 L154.969291,87.602373 L152.151653,89.3954172 L152.047329,89.2744069 L149.84631,90.6761644 L149.742982,90.5550146 L147.540966,91.9569104 L147.437889,91.8356222 L145.235623,93.2376565 L145.2224,93.2222627 L143.18642,94.5184037 L143.092783,94.4095316 L142.161868,95.0306982 C141.696068,95.2635649 141.442096,95.4964315 141.20729,95.9217409 L141.13723,96.0552994 L141.100702,96.0124304 C140.735713,96.640009 140.424855,97.3537388 140.375579,97.9461013 L140.368782,98.1044896 L140.368782,105.020524 C140.427903,105.138747 140.47338,105.256969 140.514658,105.37834 L140.635338,105.755044 C140.719984,106.016673 140.825608,106.303486 141.02776,106.640666 L141.13723,106.813569 L141.283747,106.967003 L141.417972,107.118899 L141.417972,107.118899 L141.777615,107.549997 C141.931308,107.729301 142.084998,107.888113 142.271465,108.010041 L142.417972,108.094315 L147.464023,111.165704 L147.02866,110.655809 L148.309414,111.680405 L148.565555,111.680405 L148.705297,111.844985 C149.639013,112.163823 150.835174,112.135534 151.722353,111.760117 L151.8955,111.680405 L151.938681,111.72852 C151.986004,111.709559 152.03333,111.694495 152.080658,111.686559 L152.151653,111.680405 L153.723693,110.697517 L153.688549,110.655809 L156.007133,109.390028 L155.993893,109.375061 L158.312226,108.10942 L158.299236,108.094315 L160.443337,106.924391 L160.348426,106.813569 L162.666292,105.548205 L162.653431,105.532822 L164.972133,104.267597 L164.958775,104.252076 L167.277227,102.986989 L167.264118,102.97133 L169.58232,101.705635 L169.569462,101.690583 L171.888161,100.425027 L171.874805,100.409837 L174.692444,98.6167914 L174.704751,98.6314299 L176.741646,97.3360454 L176.844822,97.4561084 L179.046989,96.0552994 L179.149915,96.1755007 L181.352333,94.7745522 L181.455009,94.8948931 L183.657677,93.4938061 L183.760103,93.6142854 L185.489483,92.5143816 L185.450713,92.4692086 L187.595205,91.2994845 L187.499916,91.1884626 L189.818161,89.9232979 L189.805259,89.9077166 L192.124002,88.6419436 L192.110603,88.6269693 L194.429095,87.3613359 L194.415947,87.3462233 L196.734189,86.0807283 L196.72129,86.0654773 L199.04003,84.8001207 L199.026634,84.78473 L201.17114,83.6143452 L201.075824,83.503984 L203.456819,82.3128297 L203.381167,82.223238 L205.699936,80.957551 L205.686511,80.9424908 L208.004283,79.6769434 L207.991516,79.6617447 L210.310124,78.3963357 L210.296859,78.3809987 L212.615217,77.1157281 L212.602203,77.1002515 L215.419841,75.3072073 L215.519172,75.4296569 L217.725148,74.0264601 L217.760049,74.0788585 L218.749786,73.5141655 L218.749786,183.65767 C218.749786,184.23021 218.60759,184.802749 218.429154,185.375289 L218.493632,185.450723 C218.288448,186.271439 217.918916,187.092141 217.385028,187.912876 L217.469031,188.012204 C217.340957,188.140278 217.212882,188.275469 217.084807,188.414219 L216.508471,189.050599 C216.124248,189.474853 215.740024,189.883094 215.3558,190.179253 L215.164485,190.31547 L214.907546,190.573664 L213.370651,191.342149 L211.22559,192.511544 L211.321448,192.622891 L209.002634,193.886984 L209.016105,193.903645 L206.697541,195.168338 L206.711112,195.184388 L204.3917,196.448946 L204.405769,196.46513 L201.588118,198.258179 L201.484758,198.137257 L199.282775,199.538922 L199.270016,199.523898 L197.233585,200.819676 L197.129199,200.699219 L195.401312,201.798376 L195.440536,201.844265 L193.121606,203.108852 L193.135192,203.125056 L190.815766,204.38946 L190.829852,204.405766 L188.684655,205.575235 L188.780658,205.686504 L186.4617,206.951422 L186.475315,206.967259 L184.155859,208.231283 L184.169971,208.247662 L181.850765,209.512637 L181.864628,209.528405 L179.545672,210.793245 L179.559284,210.809159 L176.741646,212.602196 L176.728335,212.586842 L174.692444,213.882951 L174.589011,213.762164 L172.3871,215.163693 L172.283917,215.042772 L170.554537,216.142675 L170.594063,216.188294 L168.274831,217.453151 L168.288719,217.469037 L166.143721,218.63818 L166.239517,218.749779 L163.920018,220.014367 L163.934174,220.030534 L161.614925,221.294974 L161.62883,221.311276 L159.309831,222.576329 L159.323825,222.592018 L157.004737,223.856936 L157.018482,223.872773 L154.200844,225.66581 L154.188147,225.650534 L152.151653,226.946564 L152.047329,226.825855 L149.84631,228.227307 L149.742982,228.106463 L148.015095,229.206367 L148.053261,229.251908 L145.733896,230.516843 L145.747917,230.53265 L143.603533,231.701872 L143.698727,231.813393 L141.37983,233.078058 L141.393383,233.094147 L139.07399,234.358666 L139.088045,234.37489 L136.768896,235.639273 L136.782691,235.655668 L134.463802,236.920628 L134.477349,236.936423 L132.332692,238.105656 L132.42815,238.217129 L129.610512,240.010178 L129.505648,239.889547 L127.305169,241.290969 L127.201301,241.170154 L124.999825,242.571663 L124.895461,242.450762 L123.167574,243.550666 L123.206776,243.596264 L120.887868,244.861142 L120.901439,244.877006 L118.756758,246.046171 L118.852243,246.157761 L116.533055,247.422357 L116.5469,247.438503 L114.227962,248.702965 L114.241898,248.719294 L113.47345,249.231552 L111.168106,250 L111.077745,249.896782 C110.604778,249.982797 110.13181,249.997133 109.658843,250 L107.838166,250 L107.794842,249.951116 C107.043699,249.863273 106.263744,249.657046 105.696405,249.332474 L105.532823,249.231552 L101.946732,247.18235 L101.932635,247.166236 L95.2868509,243.340111 L95.2719816,243.323666 L89.9285249,240.247221 L90.1638656,240.522472 L83.3081941,236.451694 L83.5039834,236.680233 L75.3072066,231.813393 L75.110065,231.583145 L68.3915172,227.715012 L68.3784744,227.699506 L61.7316362,223.872773 L61.7178213,223.856936 L55.0717552,220.030534 L55.0586615,220.015113 L48.411873,216.188294 L48.3980084,216.172544 L43.0538049,213.095352 L43.2888877,213.370644 L36.4319807,209.299078 L36.6290067,209.528405 L28.176217,204.661915 L27.8410822,204.26924 L21.5163687,200.819676 L21.077383,200.302716 L14.8565566,196.721284 L14.8431013,196.705814 L9.76024635,193.779458 L3.8422051,190.573701 C3.03878645,190.071561 2.27474165,189.293796 1.64269646,188.379345 L1.53688549,188.268357 L1.63245313,188.364496 C0.712186179,187.027871 0.0740933621,185.401759 0.0060344903,183.917953 L0,183.65767 L0,73.5141619 L2.04918063,74.5387594 L2.38723186,74.9323481 L6.98995227,77.4427871 L6.91599652,77.3564012 L7.87107006,77.9236683 L8.70900743,78.3809987 L8.77906942,78.4627929 L13.7723192,81.4272316 L13.5758094,81.1986405 L20.4314789,85.2690545 L20.2356565,85.0408797 L28.4323655,89.6515669 L28.5900323,89.8359329 L33.8199891,92.7779702 L33.5553169,92.4692086 L41.751992,97.3360454 L41.7642368,97.3508223 L46.8724798,100.291366 L55.0717552,104.764374 L55.4686053,105.227866 L60.2027467,107.890634 L59.9385908,107.582017 L66.7954492,111.653306 L66.598473,111.424257 L73.4538623,115.494382 L73.2580128,115.266496 L81.4547895,119.87684 L81.789386,120.268845 L86.3973333,122.782271 L86.3216263,122.694487 L87.855658,123.577517 L88.1146705,123.719076 L88.1267137,123.734327 L94.7745527,127.561315 L94.8344096,127.631406 L98.6167872,129.866659 C99.0970746,130.106803 99.5773515,130.797237 99.6355099,131.304691 L99.6413883,131.403555 L99.6413883,214.395245 C99.6413883,215.620303 100.344464,216.845406 101.302285,217.397925 L107.069718,220.542828 L107.108828,220.588587 L107.582008,220.799054 C108.047734,221.031844 108.51346,221.264733 109.171635,221.305153 L109.375053,221.311312 L109.631207,221.311312 C109.733935,221.311312 109.877859,221.270108 110.029937,221.220749 L109.88736,221.055171 C110.342733,221.055171 110.798116,221.055171 111.253491,220.875241 L111.424256,220.798981 L113.217301,219.77438 L113.253505,219.816489 L115.522304,218.493638 L115.551132,218.52692 L117.315344,217.469073 L117.43055,217.424947 C117.47643,217.405147 117.522218,217.382737 117.567804,217.35788 L117.570403,217.318409 L117.570403,217.318409 L117.571494,217.212883 L117.652738,217.308619 C118.154565,217.000156 118.623318,216.403947 118.909968,215.743494 L118.852248,215.675988 C118.907529,215.620715 118.962811,215.553504 119.015518,215.476935 L119.065482,215.320107 L119.065482,215.320107 L119.108388,215.163693 L119.16152,215.225465 C119.261045,215.02137 119.335683,214.784109 119.357798,214.541344 L119.364543,214.395245 L119.364546,121.413736 C119.364546,121.328356 119.336085,121.242974 119.298136,121.157591 L119.174803,120.901441 C119.155829,120.858749 119.139226,120.816057 119.127367,120.773365 L119.108393,120.645288 L119.306871,120.876807 C119.089147,119.846014 118.287119,118.886733 117.454335,118.414134 L117.315348,118.339945 L115.394323,117.058739 L108.350464,113.217301 L108.013094,112.8234 L101.690583,109.375061 L101.294198,108.912133 L96.5600564,106.249365 L96.8237466,106.55742 L89.9688472,102.48744 L90.1638656,102.71518 L83.3089408,98.6448707 L83.5039834,98.8729411 L75.3072066,94.262254 L75.148894,94.0764989 L68.6476669,90.4200147 L68.3112705,90.0270906 L63.7048166,87.5144115 L63.7808301,87.602373 L62.241265,86.7161785 L61.9877859,86.5777754 L61.9746895,86.5623562 L55.3279037,82.7355362 L55.3140363,82.7197866 L49.8757474,79.5880849 L42.2642901,75.3072073 L42.1062299,75.1227591 L35.6044091,71.464968 L35.4463235,71.2801895 L30.2208469,68.3411389 L30.4815255,68.6476663 L22.2848165,63.7808307 L22.272119,63.7653001 L17.163876,60.8240094 L8.96515663,56.3525007 L8.64092807,55.9562069 L5.63525013,54.3033104 L6.76145901,53.659327 L6.65984731,53.5348589 L9.73360449,51.9979632 L9.86926601,52.1561998 L11.5396563,51.2444669 L11.5266495,51.2295154 L13.84475,49.9638592 L13.8319591,49.9487693 L16.1505905,48.6832516 L16.1373027,48.6680221 L18.4556843,47.4026439 L18.4426123,47.3872761 L20.760778,46.1220363 L20.7479559,46.1065301 L23.5655637,44.5696343 L23.701322,44.7279287 L25.3717122,43.8161958 L25.3586079,43.8011865 L27.676806,42.5355882 L27.6639176,42.5204393 L29.9826465,41.2549805 L29.9692612,41.2396932 L32.2877402,39.9743729 L32.2745709,39.9589472 L34.592834,38.6937653 L34.5798116,38.6782 L37.3974545,37.1413043 L37.5326312,37.2996577 L39.2037682,36.3879248 L39.1904987,36.3728564 L41.5088619,35.1073172 L41.4958423,35.0921104 L43.8139557,33.8267095 L43.8011858,33.811466 L46.1197962,32.5461019 L46.1065294,32.53072 L48.4248899,31.2654942 L48.411873,31.249974 L51.2295159,29.7131122 L51.3646872,29.8713867 L53.0358242,28.9596538 L53.0225601,28.9446643 L55.3409179,27.6790461 L55.3279037,27.6639183 L57.6460117,26.3984385 L57.6332472,26.383171 L60.0153225,25.1917551 L59.9385908,25.1024589 L62.3204162,23.9111475 L62.2439344,23.8217129 L65.3177258,22.2848172 L65.3938746,22.3744183 L66.9313505,21.605307 L66.8546215,21.5163693 L69.2364442,20.3246994 L69.1599651,20.2356572 L71.541538,19.0440917 L71.4649674,18.9549099 L73.8466317,17.7634841 L73.7703109,17.6741639 L76.1524722,16.4828764 L76.0756545,16.3934179 L79.1494459,14.8565561 L79.2849206,15.0148446 L80.9553109,14.1031117 L80.9424913,14.0881082 L83.2611514,12.822504 L83.2478349,12.8073622 L85.5662451,11.5418964 L85.5531784,11.5266496 L87.8713389,10.2612888 L87.858522,10.2459031 L90.6761637,8.70900736 L90.7790276,8.82909899 L92.9815073,7.42826098 L93.1177233,7.58657356 L94.7873668,6.67484065 L94.7745527,6.65984725 L97.0932073,5.39423301 L97.0798963,5.37910086 L99.3983011,4.11362537 L99.3852398,4.09835436 L101.703395,2.83301772 L101.690583,2.81762164 L104.508225,1.28073622 L104.66186,1.45981804 L105.532823,1.02459028 C105.645208,0.91220482 105.856212,0.799819985 106.100932,0.68743534 L106.354486,0.575050742 L106.354486,0.575050742 L106.301271,0.512295141 L106.764352,0.397401162 L106.764352,0.397401162 L106.92193,0.326977534 L106.92193,0.326977534 L107.069718,0.256147268 L107.118107,0.312893924 C107.76295,0.163068521 108.407793,0.0402054157 109.052639,0.00815933263 L109.375062,0 L110.14351,0 Z" id="Path"></path>
            </g>
        </g>
    </g>
</svg>