<?xml version="1.0" encoding="UTF-8"?>
<svg width="980px" height="680px" viewBox="0 0 980 680" version="1.1" xmlns="http://www.w3.org/2000/svg" xmlns:xlink="http://www.w3.org/1999/xlink">
    <title>DE DPD Nachnahme</title>
    <defs>
        <linearGradient x1="50%" y1="0%" x2="50%" y2="100%" id="linearGradient-1">
            <stop stop-color="#FFFFFF" offset="0%"></stop>
            <stop stop-color="#EDEDED" offset="100%"></stop>
        </linearGradient>
        <rect id="path-2" x="0" y="0" width="900" height="600" rx="80"></rect>
        <filter x="-6.7%" y="-10.0%" width="113.3%" height="120.0%" filterUnits="objectBoundingBox" id="filter-3">
            <feMorphology radius="2.5" operator="dilate" in="SourceAlpha" result="shadowSpreadOuter1"></feMorphology>
            <feOffset dx="0" dy="0" in="shadowSpreadOuter1" result="shadowOffsetOuter1"></feOffset>
            <feGaussianBlur stdDeviation="17.5" in="shadowOffsetOuter1" result="shadowBlurOuter1"></feGaussianBlur>
            <feColorMatrix values="0 0 0 0 0   0 0 0 0 0   0 0 0 0 0  0 0 0 0.5 0" type="matrix" in="shadowBlurOuter1"></feColorMatrix>
        </filter>
    </defs>
    <g id="DE-DPD-Nachnahme" stroke="none" stroke-width="1" fill="none" fill-rule="evenodd">
        <g transform="translate(40, 40)">
            <g id="Rectangle">
                <use fill="black" fill-opacity="1" filter="url(#filter-3)" xlink:href="#path-2"></use>
                <use fill="url(#linearGradient-1)" fill-rule="evenodd" xlink:href="#path-2"></use>
            </g>
            <path d="M895,345 L895,520 C895,540.710678 886.605339,559.460678 873.033009,573.033009 C859.460678,586.605339 840.710678,595 820,595 L80,595 C59.2893219,595 40.5393219,586.605339 26.9669914,573.033009 C13.3946609,559.460678 5,540.710678 5,520 L5,345 L895,345 Z" id="Path" stroke="#333333" stroke-width="10" fill="#FF6600"></path>
            <g id="NACHNAHME" transform="translate(164.6, 415.3)" fill="#333333" fill-rule="nonzero">
                <polygon id="Path" points="5.68434189e-14 107.7 5.68434189e-14 0.9 14.7 0.9 37.8 65.25 38.1 65.25 38.1 0.9 53.4 0.9 53.4 107.7 39 107.7 15.6 43.5 15.3 43.5 15.3 107.7"></polygon>
                <path d="M98.1,70.35 L90.6,31.65 L90.3,31.65 L82.8,70.35 L98.1,70.35 Z M60.3,107.7 L84.15,0.9 L96.9,0.9 L120.75,107.7 L105.45,107.7 L100.95,84.75 L80.1,84.75 L75.6,107.7 L60.3,107.7 Z" id="Shape"></path>
                <path d="M176.85,77.25 L176.85,83.85 C176.85,87.15 176.225,90.275 174.975,93.225 C173.725,96.175 172,98.8 169.8,101.1 C167.6,103.4 165.025,105.225 162.075,106.575 C159.125,107.925 155.95,108.6 152.55,108.6 C149.65,108.6 146.7,108.2 143.7,107.4 C140.7,106.6 138,105.2 135.6,103.2 C133.2,101.2 131.225,98.625 129.675,95.475 C128.125,92.325 127.35,88.3 127.35,83.4 L127.35,24.6 C127.35,21.1 127.95,17.85 129.15,14.85 C130.35,11.85 132.05,9.25 134.25,7.05 C136.45,4.85 139.075,3.125 142.125,1.875 C145.175,0.625 148.55,0 152.25,0 C159.45,0 165.3,2.35 169.8,7.05 C172,9.35 173.725,12.075 174.975,15.225 C176.225,18.375 176.85,21.8 176.85,25.5 L176.85,31.5 L161.55,31.5 L161.55,26.4 C161.55,23.4 160.7,20.8 159,18.6 C157.3,16.4 155,15.3 152.1,15.3 C148.3,15.3 145.775,16.475 144.525,18.825 C143.275,21.175 142.65,24.15 142.65,27.75 L142.65,82.35 C142.65,85.45 143.325,88.05 144.675,90.15 C146.025,92.25 148.45,93.3 151.95,93.3 C152.95,93.3 154.025,93.125 155.175,92.775 C156.325,92.425 157.4,91.85 158.4,91.05 C159.3,90.25 160.05,89.15 160.65,87.75 C161.25,86.35 161.55,84.6 161.55,82.5 L161.55,77.25 L176.85,77.25 Z" id="Path"></path>
                <polygon id="Path" points="189.3 107.7 189.3 0.9 204.6 0.9 204.6 46.65 223.5 46.65 223.5 0.9 238.8 0.9 238.8 107.7 223.5 107.7 223.5 60.15 204.6 60.15 204.6 107.7"></polygon>
                <polygon id="Path" points="252.6 107.7 252.6 0.9 267.3 0.9 290.4 65.25 290.7 65.25 290.7 0.9 306 0.9 306 107.7 291.6 107.7 268.2 43.5 267.9 43.5 267.9 107.7"></polygon>
                <path d="M350.7,70.35 L343.2,31.65 L342.9,31.65 L335.4,70.35 L350.7,70.35 Z M312.9,107.7 L336.75,0.9 L349.5,0.9 L373.35,107.7 L358.05,107.7 L353.55,84.75 L332.7,84.75 L328.2,107.7 L312.9,107.7 Z" id="Shape"></path>
                <polygon id="Path" points="380.85 107.7 380.85 0.9 396.15 0.9 396.15 46.65 415.05 46.65 415.05 0.9 430.35 0.9 430.35 107.7 415.05 107.7 415.05 60.15 396.15 60.15 396.15 107.7"></polygon>
                <polygon id="Path" points="444.75 107.7 444.75 0.9 459.45 0.9 479.1 57.45 479.4 57.45 498.9 0.9 513.75 0.9 513.75 107.7 498.45 107.7 498.45 42.75 498.15 42.75 483 88.65 475.35 88.65 460.35 42.75 460.05 42.75 460.05 107.7"></polygon>
                <polygon id="Path" points="528.15 107.7 528.15 0.9 573.75 0.9 573.75 15.3 543.45 15.3 543.45 46.65 569.85 46.65 569.85 61.05 543.45 61.05 543.45 92.4 573.75 92.4 573.75 107.7"></polygon>
            </g>
            <g id="Logo" transform="translate(151, 50)">
                <path d="M393.21702,200.563523 C382.202597,203.637314 367.858241,204.918057 355.563075,204.918057 C323.545435,204.918057 302.541529,188.268357 302.541529,157.786935 C302.541529,128.84207 322.264693,110.143509 350.952388,110.143509 C357.356112,110.143509 364.272143,110.911957 368.370536,112.961152 L368.370536,70.9526686 L393.21702,70.9526686 L393.21702,200.563523 Z M368.370536,134.477346 C364.528296,132.684309 359.149161,131.659708 353.001579,131.659708 C337.889791,131.659708 327.899969,140.881082 327.899969,157.018487 C327.899969,174.180142 338.658239,183.913823 356.331523,183.913823 C359.405315,183.913823 364.272143,183.913823 368.370536,182.889186 L368.370536,134.477346 Z M597.367997,200.563523 C586.353573,203.637314 572.009217,204.918057 559.457898,204.918057 C527.695395,204.918057 506.434996,188.268357 506.434996,157.786935 C506.434996,128.84207 526.158499,110.143509 554.847211,110.143509 C561.507101,110.143509 568.166978,110.911957 572.265371,112.961152 L572.265371,70.9526686 L597.367997,70.9526686 L597.367997,200.563523 Z M572.265371,134.477346 C568.423131,132.684309 563.300138,131.659708 557.152555,131.659708 C541.783598,131.659708 531.793775,140.881082 531.793775,157.018487 C531.793775,174.180142 542.808199,183.913823 560.482499,183.913823 C563.556291,183.913823 568.166978,183.913823 572.265371,182.889186 L572.265371,134.477346 Z M432.407861,134.477346 C436.506241,132.684309 442.397683,132.172002 447.264511,132.172002 C462.633469,132.172002 473.135597,140.881082 473.135597,156.506193 C473.135597,174.94859 461.352726,183.401517 445.727616,183.65767 L445.727616,204.918057 L447.00837,204.918057 C479.28318,204.918057 498.494376,187.243756 498.494376,155.737745 C498.494376,127.049021 478.002426,110.143509 447.776818,110.143509 C432.407861,110.143509 417.295045,113.7296 407.305223,117.827647 L407.305223,239.497871 L432.407861,239.497871 L432.407861,134.477346 Z" id="path7" fill="#3F3F42"></path>
                <polygon id="path9" fill="#DC0032" points="216.988014 54.3033068 217.244204 54.3033068 217.244204 54.3033068"></polygon>
                <polygon id="path11" fill="#DC0032" points="210.84077 50.9733657 214.938824 55.5840528 217.244168 54.3033068 210.84077 50.9733657"></polygon>
                <polygon id="path13" fill="#DC0032" points="204.693188 47.6434258 212.633481 56.8648 215.451119 55.3279043 212.377327 51.7418135 204.693188 47.6434258"></polygon>
                <polygon id="path15" fill="#DC0032" points="198.289464 44.3134847 210.328476 58.1455461 213.145775 56.6086503 206.230083 48.4118736 198.289464 44.3134847"></polygon>
                <path d="M192.141881,40.9835436 L208.023132,59.4262921 L210.84077,57.8893964 L199.826359,45.0819325 L192.141881,40.9835436 Z M222.623303,73.5141619 L220.830254,74.5387631 L222.623303,76.587957 L222.623303,73.5141655 L222.623303,73.5141619 Z" id="path17" fill="#DC0032"></path>
                <path d="M185.994298,37.6536037 L205.717789,60.7070393 L208.535427,59.1701436 L193.678776,41.7519914 L185.994298,37.6536037 L185.994298,37.6536037 Z M221.598702,74.0264601 L218.781063,75.8195055 L222.623303,80.4301926 L222.623303,75.5633558 L221.598665,74.0264601 L221.598702,74.0264601 Z" id="path19" fill="#DC0032"></path>
                <path d="M179.590562,34.3236625 L203.412445,61.9877853 L206.486237,60.4508896 L187.531194,38.4220515 L179.590562,34.3236625 Z M219.293358,75.3072073 L216.47572,77.1002515 L222.623303,84.2724319 L222.623303,79.4055951 L219.293358,75.3072073 Z" id="path21" fill="#DC0032"></path>
                <path d="M173.442979,30.9938243 L201.363255,63.2685314 L204.180893,61.7316356 L181.127457,35.0921104 L173.442979,30.9938243 L173.442979,30.9938243 Z M216.988014,76.844103 L214.170376,78.3809987 L222.623303,88.3708208 L222.623303,83.503984 L216.988014,76.844103 Z" id="path23" fill="#DC0032"></path>
                <path d="M167.295396,27.6639183 L199.057911,64.5492786 L201.875549,63.0123829 L174.979875,31.7622721 L167.295396,27.6639183 Z M214.682671,78.124849 L211.865033,79.6617447 L222.623303,92.2130601 L222.623303,87.3462233 L214.682671,78.124849 Z" id="path25" fill="#DC0032"></path>
                <path d="M160.891999,24.3340111 L196.752568,65.8300246 L199.570206,64.2931289 L168.832292,28.4323661 L160.891999,24.3340111 L160.891999,24.3340111 Z M212.377327,79.4055951 L209.560028,80.9424908 L222.623303,96.0552994 L222.623303,91.1884626 L212.377327,79.4055951 L212.377327,79.4055951 Z" id="path27" fill="#DC0032"></path>
                <path d="M154.744416,21.0040712 L194.447224,67.3669203 L197.264862,65.5738749 L162.428894,25.1024589 L154.744416,21.0040712 Z M210.072323,80.6863423 L207.254684,82.223238 L222.623303,100.153687 L222.623303,95.2868515 L210.072323,80.6863423 Z" id="path29" fill="#DC0032"></path>
                <path d="M148.340692,17.6741639 L192.141881,68.6476663 L194.959519,66.8546222 L156.281312,21.772519 L148.340692,17.6741639 Z M208.023132,81.9670883 L204.949341,83.503984 L222.623303,103.995926 L222.623303,99.1290908 L208.023132,81.9670883 L208.023132,81.9670883 Z" id="path31" fill="#DC0032"></path>
                <path d="M142.193109,14.3442579 L189.836537,69.9280723 L192.910329,68.1353682 L150.133729,18.4426118 L142.193109,14.3442579 Z M205.717789,83.2478343 L202.900151,84.78473 L222.623303,108.094315 L222.623303,102.97133 L205.717789,83.2478343 Z" id="path33" fill="#DC0032"></path>
                <path d="M136.045526,11.0143509 L187.787335,71.2088183 L190.604985,69.4157729 L143.730005,15.1127058 L136.045526,11.0143509 Z M203.412445,84.5285816 L200.594807,86.0654773 L222.623303,111.936555 L222.623303,107.069718 L203.412445,84.5285816 L203.412445,84.5285816 Z" id="path35" fill="#DC0032"></path>
                <path d="M129.64179,7.42826098 L185.481991,72.4895644 L188.299641,70.6965202 L137.582422,11.7827647 L129.64179,7.42826098 Z M201.107102,85.8093276 L198.289464,87.3462233 L222.623303,115.778453 L222.623303,110.911957 L201.107102,85.8093276 L201.107102,85.8093276 Z" id="path37" fill="#DC0032"></path>
                <path d="M123.494208,4.09835436 L183.176648,73.7703116 L185.994298,72.2334159 L131.434839,8.45285816 L123.494208,4.09835436 Z M198.801758,87.0900736 L195.98412,88.6269693 L222.623303,119.87684 L222.623303,114.754196 L198.801758,87.0900736 L198.801758,87.0900736 Z" id="path39" fill="#DC0032"></path>
                <path d="M117.346967,1.02459028 L180.871304,75.0510576 L183.688954,73.5141619 L125.031103,5.12295154 L117.346967,1.02459028 C117.346967,1.02459028 117.346967,1.02459028 117.346967,1.02459028 Z M196.496414,88.3708208 L193.678776,89.9077166 L222.623303,123.719076 L222.623303,118.852244 L196.496414,88.3708208 L196.496414,88.3708208 Z" id="path41" fill="#DC0032"></path>
                <path d="M113.248579,0 C113.248579,0 113.248579,0 113.248579,0 L178.56596,76.3318036 L181.383611,74.7949079 L118.883862,1.79303136 L117.346967,1.02459028 C116.066221,0.256147268 114.785475,0 113.248579,0 Z M194.191071,89.6515669 L191.373433,91.1884626 L222.623303,127.561315 L222.623303,122.694487 L194.191071,89.6515669 L194.191071,89.6515669 Z" id="path43" fill="#DC0032"></path>
                <path d="M113.248579,0 C112.223978,0 111.199384,0.256147268 110.174788,0.512295141 L176.260617,77.6125509 L179.334408,76.0756552 L114.017027,0 C113.760873,0 113.504732,0 113.248579,0 Z M192.141881,90.9323129 L189.32423,92.4692086 L222.623303,131.659708 L222.623303,126.536726 L192.141881,90.9323129 L192.141881,90.9323129 Z" id="path45" fill="#DC0032"></path>
                <path d="M110.943235,0.256147268 C110.430941,0.512295141 109.662488,0.768441079 109.40634,1.02459028 L107.869444,1.79303136 L174.211427,78.8932969 L177.029065,77.3564012 L110.943235,0.256147268 L110.943235,0.256147268 Z M189.836537,92.2130601 L187.018887,94.0061043 L222.623303,135.501947 L222.623303,130.635107 L189.836537,92.2130601 L189.836537,92.2130601 Z" id="path47" fill="#DC0032"></path>
                <path d="M108.381742,1.28073622 L105.5641,2.81762164 L171.906083,80.1740429 L174.723721,78.6371472 L108.381742,1.28073622 Z M187.531194,93.4938061 L184.713543,95.2868515 L222.623303,139.344187 L222.623303,134.477346 L187.531194,93.4938061 L187.531194,93.4938061 Z" id="path49" fill="#DC0032"></path>
                <path d="M106.076399,2.56147232 L103.258757,4.09835436 L169.60074,81.4547901 L172.418378,79.9178944 L106.076399,2.56147232 Z M185.22585,94.7745522 L182.4082,96.5675976 L222.623303,143.442579 L222.623303,138.575739 L185.22585,94.7745522 Z" id="path51" fill="#DC0032"></path>
                <path d="M103.771055,3.84220515 L100.953413,5.37910086 L167.295396,82.7355362 L170.113034,81.1986405 L103.771055,3.84220515 Z M182.920506,96.0552994 L180.102856,97.8483436 L222.623303,147.284818 L222.623303,142.417978 L182.920506,96.0552994 Z" id="path53" fill="#DC0032"></path>
                <path d="M101.465711,5.12295154 L98.6480697,6.65984725 L164.990391,84.0162822 L167.807691,82.4793865 L101.465711,5.12295154 Z M180.615163,97.3360454 L177.797513,99.1290908 L222.623303,151.127058 L222.623303,146.260217 L180.615163,97.3360454 L180.615163,97.3360454 Z" id="path55" fill="#DC0032"></path>
                <path d="M99.1603679,6.40369792 L96.3427261,7.94055951 L162.685048,85.2970294 L165.502347,83.7601337 L99.1603679,6.40369792 Z M178.56596,98.6167914 L175.748322,100.409837 L222.623303,155.225438 L222.623303,150.35861 L178.56596,98.6167914 L178.56596,98.6167914 Z" id="path57" fill="#DC0032"></path>
                <path d="M96.8550243,7.42826098 L94.0373826,9.22130601 L160.635857,86.5777754 L163.453496,85.0408797 L96.8550243,7.42826098 Z M176.260617,100.153687 L173.442979,101.690583 L222.623303,159.067677 L222.623303,154.200849 L176.260617,100.153687 L176.260617,100.153687 Z" id="path59" fill="#DC0032"></path>
                <path d="M94.5496807,8.70900736 L91.732039,10.2459031 L158.330514,87.8585215 L161.148152,86.3216258 L94.5496807,8.70900736 Z M173.955273,101.434434 L171.137635,102.97133 L222.623303,163.165731 L222.623303,158.043088 L173.955273,101.434434 Z" id="path61" fill="#DC0032"></path>
                <path d="M92.2443372,9.98975387 L89.4266954,11.5266496 L156.02517,89.3954172 L158.842808,87.602373 L92.2443372,9.98975387 Z M171.64993,102.71518 L168.832292,104.252076 L222.623303,167.00797 L222.623303,162.14113 L171.64993,102.71518 Z" id="path63" fill="#DC0032"></path>
                <path d="M89.9389936,11.2705003 L87.1213519,12.8073622 L153.719827,90.6761644 L156.537465,88.883119 L89.9389936,11.2705003 Z M169.344586,103.995926 L166.526948,105.532822 L222.623303,170.85021 L222.623303,165.983369 L169.344586,103.995926 Z" id="path65" fill="#DC0032"></path>
                <path d="M87.63365,12.5512125 L84.8160083,14.0881082 L151.414483,91.9569104 L154.232121,90.163865 L87.63365,12.5512125 Z M167.039243,105.276674 L164.221943,106.813569 L222.623303,174.94859 L222.623303,169.825609 L167.039243,105.276674 L167.039243,105.276674 Z" id="path67" fill="#DC0032"></path>
                <path d="M85.3283065,13.8319585 L82.5106647,15.3688542 L149.10914,93.2376565 L151.926778,91.4446123 L85.3283065,13.8319585 Z M164.990391,106.55742 L162.172753,108.094315 L222.623303,178.79083 L222.623303,173.924001 L164.990391,106.55742 L164.990391,106.55742 Z" id="path69" fill="#DC0032"></path>
                <path d="M83.0229629,14.8565561 L79.9491715,16.3934179 L147.059937,94.5184037 L149.877587,92.7253583 L83.0229629,14.8565561 Z M162.685048,107.838166 L159.86741,109.375061 L222.623303,182.633069 L222.623303,177.76624 L162.685048,107.838166 L162.685048,107.838166 Z" id="path71" fill="#DC0032"></path>
                <path d="M80.7176193,16.1372948 L77.6438279,17.6741639 L145.010747,96.0552994 C145.266937,95.5430049 145.523005,95.2868515 146.035384,95.0306982 L147.57228,94.006097 L80.7176556,16.1372948 L80.7176193,16.1372948 Z M160.379704,109.118913 L157.562066,110.655809 L222.110996,185.963014 C222.367186,185.194566 222.623254,184.426118 222.623254,183.65767 L222.623254,181.60848 L160.379656,109.118913 L160.379704,109.118913 Z" id="path73" fill="#DC0032"></path>
                <path d="M78.4122758,17.4180142 L75.3384843,18.9549099 L144.242299,99.1290908 L144.242299,98.1044896 C144.242299,97.3360418 144.754557,96.3114442 145.266937,95.5429964 L78.4122758,17.4180142 Z M158.074361,110.399659 L156.02517,111.680405 C155.768981,111.680405 155.512912,111.936558 155.256722,111.936558 L220.830254,188.524514 C221.598702,187.499877 222.110996,186.475312 222.367149,185.450723 L158.074361,110.399659 L158.074361,110.399659 Z" id="path75" fill="#DC0032"></path>
                <path d="M76.1069322,18.6987615 L73.033482,20.2356572 L144.242299,103.227479 L144.242299,98.1044933 L76.1069322,18.6987615 Z M150.902177,110.655809 L219.037205,190.317547 C219.805653,189.805289 220.5741,188.780652 221.342548,188.012204 L155.769017,111.680405 C154.74438,112.1927 153.20752,112.1927 152.182931,111.680405 L150.902177,110.655809 Z" id="path77" fill="#DC0032"></path>
                <path d="M73.8015886,19.9795075 L70.7281385,21.5163693 L216.731861,191.598302 L218.781063,190.573664 C219.037253,190.317475 219.293322,190.061406 219.549511,189.805216 L152.439072,111.680405 C152.439072,111.680405 152.182883,111.680405 152.182883,111.680405 L146.291489,108.094315 C145.779231,107.838162 145.523042,107.325868 145.010747,106.813569 C145.010747,106.813569 145.010747,106.813569 145.010747,106.813569 C144.498489,106.045122 144.498489,105.532822 144.242299,105.020524 L144.242299,102.202882 L73.8015886,19.9795075 Z" id="path79" fill="#DC0032"></path>
                <polygon id="path81" fill="#DC0032" points="71.4965863 21.2602196 68.4227949 22.7971153 214.426518 192.879044 217.244168 191.342149"></polygon>
                <polygon id="path83" fill="#DC0032" points="69.1912428 22.2848172 66.1174513 23.8217129 212.377327 194.159787 215.194965 192.622891"></polygon>
                <polygon id="path85" fill="#DC0032" points="66.8858992 23.5655632 63.8121078 25.1024589 210.072323 195.440541 212.889622 193.903645"></polygon>
                <polygon id="path87" fill="#DC0032" points="64.5805556 24.8463104 61.5067642 26.383171 207.766979 196.721284 210.584629 195.184388"></polygon>
                <polygon id="path89" fill="#DC0032" points="62.0190636 26.1270226 59.2014206 27.6639183 205.461635 198.258179 208.279286 196.46513"></polygon>
                <polygon id="path91" fill="#DC0032" points="59.71372 27.4077686 56.8960771 28.9446643 203.156292 199.538922 205.973942 197.745885"></polygon>
                <polygon id="path93" fill="#DC0032" points="57.4083764 28.6885146 54.5907335 30.2253764 201.107102 200.819676 203.92474 199.026627"></polygon>
                <polygon id="path95" fill="#DC0032" points="55.1030329 29.7131122 52.2853899 31.249974 198.801758 202.100418 201.619396 200.307369"></polygon>
                <polygon id="path97" fill="#DC0032" points="52.7976893 30.9938243 49.9800464 32.53072 196.496414 203.381161 199.314053 201.844265"></polygon>
                <path d="M50.4923458,32.2745703 L47.6747028,33.811466 L118.883862,116.803049 L121.188865,118.339945 C122.213466,118.852239 123.23806,120.13299 123.23806,121.413733 L123.23806,121.669922 L194.191071,204.661952 L197.008709,203.125056 L50.4923458,32.2745703 Z" id="path99" fill="#DC0032"></path>
                <path d="M48.1870022,33.5553175 L45.3693592,35.0921104 L112.223981,113.217301 L120.676567,117.827647 L48.1870022,33.5553175 Z M122.98191,120.645288 C122.98191,120.901442 123.238063,121.157595 123.238063,121.413736 L123.238063,125.768282 L191.885731,205.942661 L194.703369,204.405766 L122.98191,120.645288 L122.98191,120.645288 Z" id="path101" fill="#DC0032"></path>
                <path d="M45.8816586,34.8359607 L43.0640157,36.3728564 L105.5641,109.375061 L114.017027,113.985749 L45.8816586,34.8359607 Z M123.23806,124.743677 L123.23806,129.610518 L189.836537,207.2234 L192.654175,205.686504 L123.23806,124.743677 L123.23806,124.743677 Z" id="path103" fill="#DC0032"></path>
                <path d="M43.5763151,36.1167079 L40.7586721,37.6536037 L99.1603679,105.532822 L107.357145,110.143509 L43.5763151,36.1167079 Z M123.23806,128.585917 L123.23806,133.708898 L187.531194,208.503816 L190.348832,206.967259 L123.23806,128.585917 L123.23806,128.585917 Z" id="path105" fill="#DC0032"></path>
                <path d="M41.2709715,37.1413043 L38.4533285,38.6782 L92.5004868,101.690583 L100.697264,106.55742 L41.2709715,37.1413043 Z M123.23806,132.684309 L123.23806,137.551137 L185.22585,209.784558 L188.043488,208.247662 L123.23806,132.684309 L123.23806,132.684309 Z" id="path107" fill="#DC0032"></path>
                <path d="M38.9656279,38.4220515 L36.1480878,39.9589472 L85.8406046,97.8483436 L94.0373826,102.71518 L38.9656279,38.4220515 Z M123.23806,136.526548 L123.23806,141.393377 L182.920506,211.065301 L185.738145,209.528405 L123.23806,136.526548 L123.23806,136.526548 Z" id="path109" fill="#DC0032"></path>
                <path d="M36.660386,39.7027975 L33.8427782,41.2396932 L79.1807236,94.262254 L87.3775003,98.8729411 L36.660386,39.7027975 Z M123.23806,140.368788 L123.23806,145.491769 L180.615163,212.602196 L183.432801,210.809159 L123.23806,140.368788 L123.23806,140.368788 Z" id="path111" fill="#DC0032"></path>
                <path d="M34.3550424,40.9835436 L31.5374346,42.5204393 L72.5211839,90.4200147 L80.7176193,95.0307019 L34.3550424,40.9835436 L34.3550424,40.9835436 Z M123.23806,144.467168 L123.23806,149.334009 L178.56596,213.882951 L181.383611,212.089902 L123.23806,144.467168 L123.23806,144.467168 Z" id="path113" fill="#DC0032"></path>
                <path d="M32.049734,42.2642908 L29.2321249,43.8011865 L65.8613029,86.5777754 L74.3138868,91.1884626 L32.049734,42.2642908 Z M123.23806,148.309407 L123.23806,153.176248 L176.260617,215.163693 L179.078267,213.370644 L123.23806,148.309407 Z" id="path115" fill="#DC0032"></path>
                <path d="M29.7443904,43.5450368 L26.9267813,45.0819325 L59.2014206,82.7355362 L67.654347,87.602373 L29.7443904,43.5450368 Z M96.8550243,126.536726 L103.514905,134.221205 L103.514905,131.403555 C103.514905,130.891296 103.002611,130.122812 102.490304,129.866659 L96.8550243,126.536726 L96.8550243,126.536726 Z M123.23806,152.151647 L123.23806,157.274641 L173.955273,216.444436 L176.772924,214.651399 L123.23806,152.151647 L123.23806,152.151647 Z" id="path117" fill="#DB0032"></path>
                <path d="M27.4390807,44.5696343 L24.6214729,46.1065301 L52.5415396,78.8932969 L60.994466,83.7601337 L27.4390807,44.5696343 Z M90.1951433,122.694487 L103.514905,138.063444 L103.514905,133.196604 L98.6480697,127.561315 L90.1951433,122.694487 L90.1951433,122.694487 Z M123.23806,156.250039 L123.23806,161.11688 L171.64993,217.72519 L174.46758,216.188294 L123.23806,156.250039 Z" id="path119" fill="#DC0032"></path>
                <path d="M25.1337372,45.8503804 L22.3161293,47.3872761 L46.1378071,75.3072073 L54.334585,79.9178944 L25.1337372,45.8503804 L25.1337372,45.8503804 Z M83.5352611,119.108393 L103.514905,142.161825 L103.514905,137.294996 L91.9881875,123.719076 L83.5352611,119.108393 Z M123.23806,160.092279 L123.23806,164.958768 L169.344586,219.005932 L172.162236,217.469037 L123.23806,160.092279 Z" id="path121" fill="#DC0032"></path>
                <path d="M22.8284275,47.1311264 L20.0108196,48.6680221 L39.4779261,71.464968 L47.6747028,76.0756552 L22.8284275,47.1311264 Z M77.1315297,115.266496 L103.514905,146.004064 L103.514905,141.137236 L85.3283065,119.87684 L77.1315297,115.266496 Z M123.23806,164.19032 L123.23806,169.057161 L167.295396,220.286675 L170.113034,218.749779 L123.23806,164.19032 L123.23806,164.19032 Z" id="path123" fill="#DC0032"></path>
                <path d="M20.5230839,48.4118736 L17.7054761,49.9487693 L32.8181818,67.62307 L41.0148218,72.2334159 L20.5230839,48.4118736 Z M70.47199,111.424257 L103.514905,149.846303 L103.514905,144.979475 L78.6684254,116.290751 L70.47199,111.424257 Z M123.23806,168.03256 L123.23806,172.8994 L164.990391,221.567429 L167.807691,220.030534 L123.23806,168.03256 L123.23806,168.03256 Z" id="path125" fill="#DC0032"></path>
                <path d="M18.2177742,49.6926196 L15.4001665,51.2295154 L26.1583335,63.7808307 L34.3550424,68.6476663 L18.2177742,49.6926196 Z M63.8121078,107.582017 L103.514905,153.944696 L103.514905,149.077855 L72.0088857,112.448853 L63.8121078,107.582017 Z M123.23806,171.874799 L123.23806,176.741639 L162.685048,222.848172 L165.502347,221.311276 L123.23806,171.874799 L123.23806,171.874799 Z" id="path127" fill="#DC0032"></path>
                <path d="M15.9124309,50.9733657 L13.0948229,52.5102614 L19.4985215,59.9385915 L27.9513789,64.8054271 L15.9124309,50.9733657 Z M57.1522268,103.995926 L103.514905,157.786935 L103.514905,152.920095 L65.3490035,108.606614 L57.1522268,103.995926 Z M123.23806,175.973191 L123.23806,180.840032 L160.379704,224.128914 L163.197342,222.592018 L123.23806,175.973191 L123.23806,175.973191 Z" id="path129" fill="#DC0032"></path>
                <path d="M13.6071215,51.9979632 L10.5333643,53.5348589 L12.8386736,56.3525007 L21.2915318,60.9631878 L13.6071215,51.9979632 Z M50.4923458,100.153687 L103.514905,161.884977 L103.514905,156.762334 L58.9452722,104.764374 L50.4923458,100.153687 Z M123.23806,179.815431 L123.23806,184.682271 L158.074361,225.66581 L160.891999,223.872773 L123.23806,179.815431 Z" id="path131" fill="#DC0032"></path>
                <path d="M11.3017779,53.2787092 L9.50876711,54.3033104 L14.6317186,57.1209521 L11.3017779,53.2787129 L11.3017779,53.2787092 Z M43.8324635,96.3114479 L103.514905,165.727216 L103.514905,160.860726 L52.2853899,101.178285 L43.8324635,96.3114479 Z M123.23806,183.65767 L123.23806,188.780652 L156.02517,226.946564 L158.842808,225.153515 L123.23806,183.65767 L123.23806,183.65767 Z" id="path133" fill="#DC0032"></path>
                <path d="M37.4288339,92.4692086 L103.514905,169.569455 L103.514905,164.702627 L45.6255089,97.3360454 L37.4288339,92.4692086 Z M123.23806,187.756063 L123.23806,192.622891 L153.719827,228.227307 L156.537465,226.434258 L123.23806,187.756063 L123.23806,187.756063 Z" id="path135" fill="#DC0032"></path>
                <path d="M30.7689867,88.883119 L103.514905,173.667848 L103.514905,168.544866 L38.9656279,93.4938061 L30.7689867,88.883119 Z M123.23806,191.598302 L123.23806,196.46513 L151.414483,229.508049 L154.232121,227.715012 L123.23806,191.598302 L123.23806,191.598302 Z" id="path137" fill="#DC0032"></path>
                <path d="M24.1091735,85.0408797 L103.514905,177.510087 L103.514905,172.643247 L32.3058824,89.6515669 L24.1091735,85.0408797 L24.1091735,85.0408797 Z M123.23806,195.440541 L123.23806,200.563523 L149.10914,230.788804 L151.926778,229.251908 L123.23806,195.440541 Z" id="path139" fill="#DC0032"></path>
                <path d="M17.4493264,81.1986405 L103.514905,181.352326 L103.514905,176.485486 L25.6460353,86.0654773 L17.4493264,81.1986405 Z M123.23806,199.538922 L123.23806,204.405762 L146.803796,232.069546 L149.621434,230.53265 L123.23806,199.538922 L123.23806,199.538922 Z" id="path141" fill="#DB0032"></path>
                <path d="M10.7895135,77.3564012 L103.514905,185.450719 L103.514905,180.583879 L18.9862221,82.223238 L10.7895135,77.3564012 Z M123.23806,203.381161 L123.23806,208.247662 L144.754594,233.350288 L147.572244,231.813393 L123.23806,203.381161 L123.23806,203.381161 Z" id="path143" fill="#DA0032"></path>
                <path d="M4.12966419,73.7703116 L103.514905,189.292958 L103.514905,184.426118 L12.5825244,78.3809987 L4.12966419,73.7703116 Z M123.23806,207.2234 L123.23806,212.346055 L142.44925,234.631043 L145.2669,233.094147 L123.23806,207.2234 Z" id="path145" fill="#D90032"></path>
                <path d="M3.87351697,73.5141619 L3.87351697,77.1002515 L103.514905,193.135198 L103.514905,188.268357 L5.92269761,74.5387594 L3.87351697,73.5141619 Z M123.23806,211.321454 L123.23806,214.395245 C123.23806,214.907504 122.981906,215.419883 122.725765,215.675988 L140.143911,235.911785 L142.961562,234.37489 L123.238065,211.321454 L123.23806,211.321454 Z" id="path147" fill="#D80032"></path>
                <path d="M3.87351697,76.0756552 L3.87351697,81.1986405 L103.514905,197.233578 L103.514905,192.36675 L3.87351697,76.0756552 Z M122.98191,215.163693 C122.725757,216.188331 121.957309,217.212883 121.188865,217.469037 L120.932711,217.725226 L137.838558,237.192564 L140.656208,235.655668 L122.981905,215.163693 L122.98191,215.163693 Z" id="path149" fill="#D70032"></path>
                <path d="M3.87351697,80.1740429 L3.87351697,85.0408797 L103.514905,201.075817 L103.514905,196.208989 L3.87351697,80.1740429 Z M121.445014,217.212883 C121.445014,217.469073 121.445014,217.469073 121.188861,217.469073 L118.62771,219.005969 L135.533216,238.473318 L138.350866,236.936423 L121.445011,217.212883 L121.445014,217.212883 Z" id="path151" fill="#D60032"></path>
                <path d="M3.87351697,84.0162822 L3.87351697,88.883119 L103.514905,204.918057 L103.514905,200.051228 L3.87351697,84.0162822 Z M119.395821,218.493638 L116.32237,220.286675 L133.484029,240.010178 L136.301667,238.217129 L119.395821,218.493638 Z" id="path153" fill="#D50032"></path>
                <path d="M3.87351697,88.1146712 L3.87351697,92.981508 L103.514905,209.01611 L103.514905,204.149609 L3.87351697,88.1146712 Z M117.090818,219.77438 L115.297773,220.798981 C114.785478,221.055171 114.273172,221.055171 113.760877,221.055171 L131.178686,241.290969 L133.996324,239.49792 L117.090818,219.77438 L117.090818,219.77438 Z" id="path155" fill="#D40032"></path>
                <path d="M3.87351697,91.9569104 L3.87351697,96.8237473 L103.514905,212.85835 L103.514905,207.991509 L3.87351697,91.9569104 Z M109.150182,219.77438 L128.873342,242.571663 L131.69098,240.778626 L114.529325,221.055123 C114.273172,221.055123 113.760877,221.311312 113.504724,221.311312 L113.24857,221.311312 C112.480123,221.311312 111.967823,221.055123 111.455525,220.799054 L109.150182,219.77438 L109.150182,219.77438 Z" id="path157" fill="#D30032"></path>
                <path d="M3.87351697,95.7991497 L3.87351697,100.922135 L126.567998,243.852417 L129.385637,242.059368 L110.943235,220.542828 L105.307951,217.469037 C104.28335,216.956779 103.514905,215.675988 103.514905,214.395245 L103.514905,211.833748 L3.87351697,95.7991497 Z" id="path159" fill="#D20032"></path>
                <polygon id="path161" fill="#D10032" points="3.87351697 99.8975387 3.87351697 104.764374 124.262656 245.13316 127.080293 243.596264"></polygon>
                <polygon id="path163" fill="#D00032" points="3.87351697 103.739778 3.87351697 108.606614 121.957313 246.413902 124.774956 244.877006"></polygon>
                <polygon id="path165" fill="#CF0032" points="3.87351697 107.582017 3.87351697 112.705003 119.908119 247.694656 122.72576 246.157761"></polygon>
                <polygon id="path167" fill="#CE0032" points="3.87351697 111.680405 3.87351697 116.546901 117.603116 248.975399 120.420417 247.438503"></polygon>
                <path d="M3.87351697,115.522303 L3.87351697,120.38914 L115.041623,250 C115.810071,249.74381 116.578519,249.487742 117.346967,249.231552 L118.115415,248.719294 L3.87351697,115.522303 Z" id="path169" fill="#CD0032"></path>
                <path d="M3.87351697,119.364542 L3.87351697,124.487524 L111.711683,250 C112.223978,250 112.736284,250 113.248579,250 C114.017027,250 114.785475,250 115.553923,249.74381 L3.87351697,119.364542 Z" id="path171" fill="#CC0032"></path>
                <path d="M3.87351697,123.462935 L3.87351697,128.329763 L105.820249,247.18235 L109.40634,249.231552 C110.174788,249.74381 111.455534,250 112.480131,250 L3.87351697,123.462935 Z" id="path173" fill="#CB0032"></path>
                <polygon id="path175" fill="#CA0032" points="3.87351697 127.305174 3.87351697 132.172002 99.1603679 243.340111 107.613294 248.206951"></polygon>
                <polygon id="path177" fill="#C90032" points="3.87351697 131.403555 3.87351697 136.270395 92.5004868 239.497871 100.953413 244.364712"></polygon>
                <polygon id="path179" fill="#C80033" points="3.87351697 135.245794 3.87351697 140.112634 85.8406046 235.655632 94.0373826 240.522472"></polygon>
                <polygon id="path181" fill="#C70033" points="3.87351697 139.088033 3.87351697 143.954874 79.1807236 231.813393 87.3775003 236.680233"></polygon>
                <polygon id="path183" fill="#C60033" points="3.87351697 143.186426 3.87351697 148.053266 72.2650342 227.715012 80.7176193 232.581841"></polygon>
                <polygon id="path185" fill="#C50033" points="3.87351697 147.028665 3.87351697 151.895506 65.6051532 223.872773 74.0577383 228.739601"></polygon>
                <polygon id="path187" fill="#C40033" points="3.87351697 150.870904 3.87351697 155.737745 58.9452722 220.030534 67.3981986 224.897362 3.87351697 150.870904"></polygon>
                <polygon id="path189" fill="#C30033" points="3.87351697 154.969297 3.87351697 159.836125 52.2853899 216.188294 60.7383163 221.055123"></polygon>
                <polygon id="path191" fill="#C20033" points="3.87351697 158.811536 3.87351697 163.678026 45.6255089 212.346055 54.0784353 217.212883"></polygon>
                <polygon id="path193" fill="#C10033" points="3.87351697 162.653425 3.87351697 167.776418 38.9656279 208.503816 47.1624046 213.370644"></polygon>
                <polygon id="path195" fill="#C00033" points="3.87351697 166.751817 3.87351697 171.618658 32.049734 204.661915 40.5025236 209.528405"></polygon>
                <polygon id="path197" fill="#BF0033" points="3.87351697 170.594056 3.87351697 175.460897 25.3898856 200.819676 33.8427782 205.430363"></polygon>
                <polygon id="path199" fill="#BE0033" points="3.87351697 174.436296 3.87351697 179.559277 18.7300736 196.721284 27.182931 201.588124"></polygon>
                <polygon id="path201" fill="#BD0033" points="3.87351697 178.534688 3.87351697 183.401517 12.0702258 192.879044 20.5230839 197.745885"></polygon>
                <path d="M3.87351697,182.376928 L3.87351697,183.65767 C3.87351697,186.219167 5.66654828,189.292958 7.71572207,190.573701 L13.8632708,193.903645 L3.87351697,182.376928 L3.87351697,182.376928 Z" id="path203" fill="#BC0033"></path>
                <path d="M5.41040247,188.268357 C5.922697,188.780615 6.17884306,189.292995 6.69113856,189.549099 L5.41040247,188.268357 Z" id="path205" fill="#BB0033"></path>
            </g>
        </g>
    </g>
</svg>