<?xml version="1.0" encoding="UTF-8"?>
<svg width="980px" height="680px" viewBox="0 0 980 680" version="1.1" xmlns="http://www.w3.org/2000/svg" xmlns:xlink="http://www.w3.org/1999/xlink">
    <title>DE EC</title>
    <defs>
        <linearGradient x1="50%" y1="0%" x2="50%" y2="100%" id="linearGradient-1">
            <stop stop-color="#FFFFFF" offset="0%"></stop>
            <stop stop-color="#EDEDED" offset="100%"></stop>
        </linearGradient>
        <rect id="path-2" x="2.84217094e-14" y="0" width="900" height="600" rx="80"></rect>
        <filter x="-6.7%" y="-10.0%" width="113.3%" height="120.0%" filterUnits="objectBoundingBox" id="filter-3">
            <feMorphology radius="2.5" operator="dilate" in="SourceAlpha" result="shadowSpreadOuter1"></feMorphology>
            <feOffset dx="0" dy="0" in="shadowSpreadOuter1" result="shadowOffsetOuter1"></feOffset>
            <feGaussianBlur stdDeviation="17.5" in="shadowOffsetOuter1" result="shadowBlurOuter1"></feGaussianBlur>
            <feColorMatrix values="0 0 0 0 0   0 0 0 0 0   0 0 0 0 0  0 0 0 0.5 0" type="matrix" in="shadowBlurOuter1"></feColorMatrix>
        </filter>
        <polygon id="path-4" points="0 0 416.491557 0 416.491557 499.999721 0 499.999721"></polygon>
        <polygon id="path-6" points="0 500 416.491697 500 416.491697 0 0 0"></polygon>
    </defs>
    <g id="DE-EC" stroke="none" stroke-width="1" fill="none" fill-rule="evenodd">
        <g transform="translate(40, 40)">
            <g id="Rectangle">
                <use fill="black" fill-opacity="1" filter="url(#filter-3)" xlink:href="#path-2"></use>
                <use fill="url(#linearGradient-1)" fill-rule="evenodd" xlink:href="#path-2"></use>
            </g>
            <g id="Logo" transform="translate(242, 50)">
                <path d="M5.96761283,34.6262218 C5.96761283,18.8000374 18.8008058,5.9668445 34.6269901,5.9668445 L381.865685,5.9668445 C397.691869,5.9668445 410.524364,18.8000374 410.524364,34.6262218 L410.524364,465.335501 C410.524364,481.199404 397.691869,494.031898 381.865685,494.031898 L34.6269901,494.031898 C18.8008058,494.031898 5.96761283,481.199404 5.96761283,465.335501 L5.96761283,34.6262218 Z" id="Fill-1" fill="#FFFFFF"></path>
                <g id="Group-5" transform="translate(0.0001, 0)">
                    <mask id="mask-5" fill="white">
                        <use xlink:href="#path-4"></use>
                    </mask>
                    <g id="Clip-4"></g>
                    <path d="M34.6265012,11.9346669 C22.1139111,11.9346669 11.9349463,22.1143302 11.9349463,34.6262218 L11.9349463,465.3362 C11.9349463,477.868347 22.1139111,488.065473 34.6265012,488.065473 L381.865894,488.065473 C394.377786,488.065473 404.557449,477.868347 404.557449,465.3362 L404.557449,34.6262218 C404.557449,22.1143302 394.377786,11.9346669 381.865894,11.9346669 L34.6265012,11.9346669 Z M381.865894,499.999721 L34.6265012,499.999721 C15.5335208,499.999721 0,484.450135 0,465.3362 L0,34.6262218 C0,15.5325429 15.5335208,-0.000279392433 34.6265012,-0.000279392433 L381.865894,-0.000279392433 C400.958875,-0.000279392433 416.491697,15.5325429 416.491697,34.6262218 L416.491697,465.3362 C416.491697,484.450135 400.958875,499.999721 381.865894,499.999721 L381.865894,499.999721 Z" id="Fill-3" fill="#007FC3" mask="url(#mask-5)"></path>
                </g>
                <path d="M128.049254,284.177308 C128.049254,292.333472 134.409623,298.768578 142.116663,298.768578 L153.677922,298.768578 L153.677922,252.001078 L233.668674,252.001078 L233.668674,362.372265 L84.0505337,362.372265 C64.2583737,362.372265 49.8542968,346.28415 49.8542968,326.529708 L49.8542968,83.9751676 C49.8542968,64.1082702 64.2583737,48.0955913 84.0505337,48.0955913 L233.668674,48.0955913 L233.668674,233.481551 L128.049254,233.481551 L128.049254,284.177308 M128.049254,125.579495 L128.049254,171.486466 L153.677922,171.486466 L153.677922,111.699279 L141.930169,111.699279 C134.409623,111.699279 128.049254,117.834737 128.049254,125.579495" id="Fill-6" fill="#007FC3"></path>
                <path d="M49.6297352,436.339805 L49.6297352,424.179948 C49.2183298,413.180268 53.1465874,406.932355 60.3304654,406.932355 C70.5813737,406.932355 71.6668133,414.564658 71.6668133,427.360133 L71.6668133,433.608744 L56.9253701,433.608744 L56.9253701,440.380519 C57.074845,446.516675 58.6464275,447.676153 60.8536277,447.676153 C63.5106497,447.676153 64.37048,444.832637 64.258723,438.883674 L71.5543579,438.883674 C71.8533078,449.284755 68.8980343,455.832317 61.4152065,455.832317 C52.922375,455.832317 49.4425422,449.995809 49.6297352,436.339805 L49.6297352,436.339805 Z M56.9253701,425.340125 L64.37048,425.340125 L64.37048,421.224675 C64.258723,416.660101 63.3981943,415.088519 60.4422223,415.088519 C56.8506326,415.088519 56.9253701,419.203969 56.9253701,423.469593 L56.9253701,425.340125 Z" id="Fill-8" fill="#007FC3"></path>
                <path d="M367.42375,362.372475 L220.649126,362.372475 L218.965089,362.185282 L217.393506,361.961069 L215.672449,361.661421 L214.101565,361.250016 L212.60472,360.689135 L211.033137,360.165275 L209.536991,359.641414 C204.710487,357.471233 201.60504,355.264033 197.789238,351.597007 C194.496598,348.117873 191.840274,344.002422 190.081499,339.512586 L189.557638,338.053459 L189.109213,336.332402 L188.697109,334.760819 L188.285704,333.189935 L188.061491,331.468878 L187.836581,329.897295 L187.761843,328.1015 L187.649388,326.529918 L187.649388,83.6757288 C187.874299,74.2476311 191.054483,65.8295371 197.602045,59.020045 C200.819248,55.5779302 204.785224,52.8091512 209.125586,50.9763369 L210.584712,50.3030011 L212.080859,49.7791403 L213.690159,49.3670364 L215.149286,48.9556311 L216.832626,48.6189632 L218.441228,48.4317703 L220.01281,48.2075578 L221.69615,48.0951024 L367.42375,48.0951024 L367.42375,171.37422 L290.837395,171.37422 L290.837395,111.511597 C279.014904,109.641065 266.218731,112.335106 265.508375,126.215322 L265.508375,120.790918 L265.433638,126.402515 L265.508375,126.215322 L265.508375,283.990325 L265.433638,283.765414 L265.508375,285.149803 L265.508375,283.990325 C266.256449,297.908259 278.977186,300.63932 291.024588,298.656332 L291.024588,234.566502 L291.361256,233.406325 L367.42375,233.406325 L367.42375,362.372475 Z" id="Fill-10" fill="#FF0000"></path>
                <path d="M292.595891,424.292613 L285.300256,424.292613 L285.300256,419.129441 C285.187801,416.585573 284.252534,415.088728 282.755689,415.088728 C279.949891,415.088728 279.949891,419.840495 279.949891,425.452092 L279.949891,436.48949 C279.687961,445.58092 280.548489,447.264958 282.755689,447.676363 C285.000608,447.563908 285.113063,444.496179 285.300256,440.792133 L285.300256,436.48949 L292.595891,436.48949 L292.595891,440.792133 C292.595891,450.519879 289.86483,455.832527 282.569195,455.832527 C276.096371,455.832527 272.430044,450.856547 272.728994,438.472478 L272.728994,423.469803 C272.616538,410.336961 276.9569,406.932564 282.569195,406.932564 C289.976587,406.932564 292.745366,413.704339 292.595891,420.588568 L292.595891,424.292613 Z" id="Fill-12" fill="#FF0000"></path>
                <path d="M187.649737,83.6759383 C188.547984,58.3469188 209.274711,44.8774096 233.669163,48.0953119 L233.669163,233.481272 L187.649737,233.481272 L187.649737,83.6759383 L187.649737,83.6759383 Z M221.39685,362.372684 C212.530332,361.998299 203.999782,357.882848 197.788888,351.597217 C194.496248,348.118082 191.839925,344.001933 190.081848,339.512795 L189.557987,338.053668 L189.108864,336.332611 L188.697459,334.761029 L188.286053,333.189446 L188.061142,331.468389 L187.83693,329.897505 L187.762192,328.101012 L187.649737,326.530128 L187.649737,252.001498 L233.669163,252.001498 L233.669163,362.372684 L221.39685,362.372684 Z" id="Fill-14" fill="#292526"></path>
                <mask id="mask-7" fill="white">
                    <use xlink:href="#path-6"></use>
                </mask>
                <g id="Clip-17"></g>
                <polygon id="Fill-16" fill="#292526" mask="url(#mask-7)" points="77.2792485 454.67207 84.6866404 454.67207 84.6866404 392.752421 77.2792485 392.752421"></polygon>
                <path d="M89.9619188,436.339805 L89.9619188,424.179948 C89.6252509,413.180268 93.4417516,406.932355 100.624931,406.932355 C110.913557,406.932355 111.998997,414.564658 111.998997,427.360133 L111.998997,433.608744 L97.2575537,433.608744 L97.2575537,440.380519 C97.3700092,446.516675 98.9786111,447.676153 101.074054,447.676153 C103.842833,447.676153 104.553189,444.832637 104.478451,438.883674 L111.848824,438.883674 C112.185491,449.284755 109.230218,455.832317 101.709672,455.832317 C93.2545586,455.832317 89.8494634,449.995809 89.9619188,436.339805 L89.9619188,436.339805 Z M97.2575537,425.340125 L104.553189,425.340125 L104.553189,421.224675 C104.553189,416.660101 103.730378,415.088519 100.774406,415.088519 C97.0333413,415.088519 97.2575537,419.203969 97.2575537,423.469593 L97.2575537,425.340125 Z" id="Fill-18" fill="#292526" mask="url(#mask-7)"></path>
                <path d="M136.093311,424.292613 L128.797677,424.292613 L128.797677,419.129441 C128.685221,416.585573 127.86241,415.088728 126.290828,415.088728 C123.485029,415.088728 123.485029,419.840495 123.485029,425.452092 L123.485029,436.48949 C123.410292,445.58092 124.158365,447.264958 126.290828,447.676363 C128.498028,447.563908 128.572766,444.496179 128.797677,440.792133 L128.797677,436.48949 L136.093311,436.48949 L136.093311,440.792133 C136.093311,450.519879 133.474007,455.832527 126.141353,455.832527 C119.593791,455.832527 115.889746,450.856547 116.189395,438.472478 L116.189395,423.469803 C116.113959,410.336961 120.529058,406.932564 126.141353,406.932564 C133.586463,406.932564 136.205767,413.704339 136.093311,420.588568 L136.093311,424.292613 Z" id="Fill-19" fill="#292526" mask="url(#mask-7)"></path>
                <path d="M151.021529,446.404219 L151.021529,454.860031 C146.56941,455.495649 140.545709,456.168985 140.545709,447.488961 L140.545709,415.912028 L137.589737,415.912028 L137.589737,408.129551 L140.433254,408.129551 L140.433254,395.297057 L147.841344,395.297057 L147.841344,408.129551 L151.021529,408.129551 L151.021529,415.912028 L147.841344,415.912028 L147.841344,444.945092 C148.065557,446.853343 150.086262,446.516675 151.021529,446.404219" id="Fill-20" fill="#292526" mask="url(#mask-7)"></path>
                <path d="M161.085803,408.13004 L161.085803,416.360941 L161.198258,416.360941 C162.133524,412.956545 162.994053,411.086012 164.041775,409.81338 C166.061782,407.269512 167.520909,407.381967 168.681086,407.269512 L168.681086,420.064987 C164.565636,419.429369 161.497208,420.925515 161.385451,427.809745 L161.385451,454.673327 L153.977361,454.673327 L153.977361,408.13004 L161.085803,408.13004 Z" id="Fill-21" fill="#292526" mask="url(#mask-7)"></path>
                <path d="M177.884622,423.993244 L177.884622,439.445043 C177.884622,445.132076 178.333745,447.675944 181.81288,447.675944 C185.217975,447.675944 185.516925,445.132076 185.516925,439.445043 L185.516925,423.993244 C185.516925,419.652883 185.516925,415.089007 181.81288,415.089007 C177.884622,415.089007 177.884622,419.652883 177.884622,423.993244 M181.81288,455.832806 C172.197589,456.169474 170.476532,449.172789 170.588987,433.084674 C170.588987,417.109015 170.701443,406.932145 181.81288,406.932145 C192.700803,406.932145 192.850278,417.109015 192.850278,433.084674 C192.925015,449.172789 191.353433,456.169474 181.81288,455.832806" id="Fill-22" fill="#292526" mask="url(#mask-7)"></path>
                <path d="M204.785364,408.13004 L204.785364,412.881807 L204.897819,412.881807 C206.581159,407.456705 209.873798,406.932844 211.557138,406.932844 C215.672588,406.932844 219.077684,410.411978 218.852773,418.680597 L218.852773,454.673327 L211.557138,454.673327 L211.557138,423.656576 C211.557138,419.129721 211.145732,416.173749 208.376953,415.911818 C205.645892,415.837081 204.672908,419.653581 204.785364,424.517105 L204.785364,454.673327 L197.489729,454.673327 L197.489729,408.13004 L204.785364,408.13004 Z" id="Fill-23" fill="#292526" mask="url(#mask-7)"></path>
                <path d="M224.577035,454.672769 L231.985125,454.672769 L231.985125,408.092462 L224.577035,408.092462 L224.577035,454.672769 Z M224.577035,402.480167 L231.985125,402.480167 L231.985125,392.752421 L224.577035,392.752421 L224.577035,402.480167 Z" id="Fill-24" fill="#292526" mask="url(#mask-7)"></path>
                <path d="M257.052633,424.292613 L249.682261,424.292613 L249.682261,419.129441 C249.532088,416.585573 248.709277,415.088728 247.212432,415.088728 C244.369614,415.088728 244.369614,419.840495 244.444351,425.452092 L244.444351,436.48949 C244.257158,445.58092 245.005232,447.264958 247.212432,447.676363 C249.45735,447.563908 249.45735,444.496179 249.682261,440.792133 L249.682261,436.48949 L257.052633,436.48949 L257.052633,440.792133 C257.052633,450.519879 254.283854,455.832527 246.988219,455.832527 C240.553113,455.832527 236.736613,450.856547 237.036261,438.472478 L237.036261,423.469803 C237.036261,410.336961 241.413642,406.932564 246.988219,406.932564 C254.39631,406.932564 257.052633,413.704339 257.052633,420.588568 L257.052633,424.292613 Z" id="Fill-25" fill="#292526" mask="url(#mask-7)"></path>
                <path d="M318.000277,454.672629 L311.04131,454.672629 C310.629904,453.175784 310.629904,451.6049 310.629904,449.920862 C308.834109,453.699645 306.589191,455.832806 304.044625,455.832806 C298.133379,455.832806 295.589511,451.6049 295.589511,441.877154 C295.589511,431.401335 300.677946,428.745011 306.476736,425.265178 C309.544465,423.469383 310.629904,421.224465 310.068325,417.52042 C309.769376,415.425675 308.609198,415.089007 306.700948,415.089007 C303.334269,415.089007 302.772691,417.632876 302.772691,421.860782 L295.776704,421.860782 C295.776704,413.068302 297.684256,406.932145 306.888141,406.932145 C316.952555,406.932145 317.476416,414.452691 317.476416,420.663585 L317.476416,448.199805 C317.476416,450.332267 317.588871,452.427711 318.000277,454.672629 M310.068325,435.10538 L310.068325,430.129401 C308.272531,431.925195 306.06533,433.795728 304.044625,436.040646 C303.072339,437.425036 302.885146,439.744691 302.885146,441.652243 C302.885146,445.244531 303.745675,447.675944 306.36428,447.675944 C310.629904,447.675944 309.956568,439.632236 310.068325,435.10538" id="Fill-26" fill="#292526" mask="url(#mask-7)"></path>
                <path d="M321.180112,439.333356 L328.475747,439.333356 C327.951886,447.900925 330.271542,447.676712 331.880842,447.676712 C334.088042,447.676712 335.472432,445.357057 334.948571,442.401085 C334.836115,439.744761 332.741371,438.248615 331.356981,436.901245 L327.428025,432.860531 C323.72398,429.156486 321.292567,424.816823 321.292567,418.156806 C321.292567,410.973627 325.220825,406.932914 332.179792,406.932914 C339.400689,406.932914 342.693329,412.320298 342.468418,422.272257 L335.135764,422.272257 C335.285239,417.109783 334.312255,415.089077 331.693649,415.089077 C329.972592,415.089077 328.588202,416.249254 328.588202,418.905578 C328.588202,421.636639 329.972592,422.908573 331.356981,424.292963 L337.492439,430.204208 C339.288234,431.81281 342.13175,436.265627 342.356661,439.333356 C343.104734,447.489519 341.720345,455.832876 331.431719,455.832876 C327.652936,455.832876 320.357301,453.51322 321.180112,439.333356" id="Fill-27" fill="#292526" mask="url(#mask-7)"></path>
                <path d="M353.693219,454.67235 L346.285128,454.67235 L346.285128,392.752001 L353.693219,392.752001 L353.693219,412.880829 L353.767956,412.880829 C355.788662,407.380989 358.856391,406.931866 360.353236,406.931866 C364.580443,406.931866 367.985539,410.411699 367.760628,418.680318 L367.760628,454.67235 L360.353236,454.67235 L360.353236,422.795768 C360.353236,418.268912 360.053587,415.31294 357.284808,415.088728 C354.516029,414.976273 353.580763,418.680318 353.693219,423.768752 L353.693219,454.67235 Z" id="Fill-28" fill="#292526" mask="url(#mask-7)"></path>
            </g>
        </g>
    </g>
</svg>