<?xml version="1.0" encoding="UTF-8"?>
<svg width="980px" height="680px" viewBox="0 0 980 680" version="1.1" xmlns="http://www.w3.org/2000/svg" xmlns:xlink="http://www.w3.org/1999/xlink">
    <title>DE easy credit</title>
    <defs>
        <linearGradient x1="50%" y1="0%" x2="50%" y2="100%" id="linearGradient-1">
            <stop stop-color="#FFFFFF" offset="0%"></stop>
            <stop stop-color="#EDEDED" offset="100%"></stop>
        </linearGradient>
        <rect id="path-2" x="5.68434189e-14" y="-2.84217094e-14" width="900" height="600" rx="80"></rect>
        <filter x="-6.7%" y="-10.0%" width="113.3%" height="120.0%" filterUnits="objectBoundingBox" id="filter-4">
            <feMorphology radius="2.5" operator="dilate" in="SourceAlpha" result="shadowSpreadOuter1"></feMorphology>
            <feOffset dx="0" dy="0" in="shadowSpreadOuter1" result="shadowOffsetOuter1"></feOffset>
            <feGaussianBlur stdDeviation="17.5" in="shadowOffsetOuter1" result="shadowBlurOuter1"></feGaussianBlur>
            <feColorMatrix values="0 0 0 0 0   0 0 0 0 0   0 0 0 0 0  0 0 0 0.5 0" type="matrix" in="shadowBlurOuter1"></feColorMatrix>
        </filter>
    </defs>
    <g id="DE-easy-credit" stroke="none" stroke-width="1" fill="none" fill-rule="evenodd">
        <g transform="translate(40, 40)">
            <mask id="mask-3" fill="white">
                <use xlink:href="#path-2"></use>
            </mask>
            <g id="Rectangle">
                <use fill="black" fill-opacity="1" filter="url(#filter-4)" xlink:href="#path-2"></use>
                <use fill="url(#linearGradient-1)" fill-rule="evenodd" xlink:href="#path-2"></use>
            </g>
            <g id="Logo" mask="url(#mask-3)" fill="#1B62B7" fill-rule="nonzero">
                <g transform="translate(50, 153)" id="path33">
                    <path d="M285.641301,108.62386 C276.466988,147.501359 241.575822,176.427424 199.827306,176.427424 C151.135096,176.427424 111.617197,136.938299 111.617197,88.2245151 C111.617197,39.4819281 151.135096,0 199.827306,0 C234.034897,0 263.694908,19.4567492 278.35222,47.9079101 C281.100916,53.8945997 282.8998,60.7447532 282.8998,69.199506 C282.8998,100.399355 253.57798,113.739889 240.978592,113.739889 C238.237092,113.739889 237.20813,112.236028 237.20813,109.962228 C237.20813,107.688445 238.237092,104.177015 239.007014,101.399541 L252.808058,40.2878342 L231.717934,40.2878342 L228.717394,52.3547549 C221.601006,41.7844985 211.570424,36.2367457 199.48192,36.2367457 C170.850871,36.2367457 147.710019,63.651737 147.710019,96.8879412 C147.710019,121.29521 165.792408,138.406193 186.709839,138.406193 C196.999458,138.406193 205.828385,132.361945 212.088504,125.303118 C212.858427,134.132037 219.118546,138.406193 226.148587,138.406193 C237.373628,138.406193 267.379024,129.987407 285.641301,108.62386 Z M220.665586,81.0433599 C220.665586,96.8879412 208.828925,113.739889 192.710918,113.739889 C180.881452,113.739889 173.858607,104.946938 173.858607,93.1102806 C173.858607,77.999654 185.429033,60.9174427 202.057923,60.9174427 C213.376505,60.9174427 220.665586,69.199506 220.665586,81.0433599 Z M342.817054,262.414107 L336.902315,290.829284 C328.332432,293.038329 316.243926,294.678912 306.213347,294.678912 C264.033098,294.678912 239.863283,269.731968 239.863283,233.725502 C239.863283,190.228469 273.293756,149.141942 322.417699,149.141942 C344.191406,149.141942 357.654252,151.746727 365.447018,154.322725 L360.136709,179.463933 C349.674404,175.995684 338.622046,175.017088 327.814354,175.017088 C292.757689,175.017088 275.869759,209.922646 275.869759,234.660917 C275.869759,257.931295 290.699764,268.80375 311.617195,268.80375 C323.360314,268.80375 333.988119,266.493982 342.817054,262.414107 Z M465.659289,38.676022 L501.500263,38.676022 L437.373621,149.278648 L433.775863,155.22937 C423.831627,172.477074 412.772072,183.910778 391.171065,183.910778 C382.766689,183.910778 376.254718,182.910608 370.937213,181.57224 L376.168373,156.495787 C379.341605,157.366447 382.939379,158.035631 387.227911,158.035631 C396.826769,158.035631 401.971569,151.149494 406.943695,141.917622 L410.541469,135.9669 L389.026807,38.676022 L423.320738,38.676022 L432.149657,100.363387 L465.659289,38.676022 Z M723.878389,194.747265 L743.162433,194.747265 L747.875509,173.743491 L783.450251,164.187814 L776.672065,194.747265 L800,194.747265 L795.790599,218.384612 L771.282608,218.384612 L765.447018,245.562159 C763.986321,252.851233 762.619166,257.737015 762.619166,262.414107 C762.619166,268.998029 766.994059,273.315349 773.67872,273.315349 C777.276478,273.315349 781.046942,271.811488 784.565568,270.494694 L780.795105,292.808066 C773.67872,293.901793 766.562319,294.678912 759.877675,294.678912 C742.558003,294.678912 728.929664,286.25293 728.929664,265.796011 C728.929664,260.939017 729.613241,256.060448 731.930205,245.734849 L737.758583,218.384612 L719.755349,218.384612 L723.878389,194.747265 Z M689.325407,154.056494 L723.439469,154.056494 L718.208308,178.794749 L684.087066,178.794749 L689.325407,154.056494 Z M680.661981,194.747265 L714.783223,194.747265 L694.549371,292.4339 L660.435325,292.4339 L680.661981,194.747265 Z M615.34089,292.4339 L618.003233,276.855549 C609.001608,287.720824 600.942612,294.678912 582.16226,294.678912 C561.165682,294.678912 545.824792,276.2943 545.824792,254.355111 C545.824792,222.291782 561.935604,192.502253 595.279727,192.502253 C612.340348,192.502253 624.169809,199.992803 629.22828,210.491108 L641.40312,151.818678 L674.574553,151.818678 L648.346815,277.790981 C647.23871,283.612161 646.627084,288.490746 646.288901,292.4339 L615.34089,292.4339 Z M596.826769,268.80375 C612.772072,268.80375 622.284585,251.181879 622.284585,238.237101 C622.284585,228.487145 617.398803,218.384612 606.166576,218.384612 C590.221256,218.384612 580.70876,233.559993 580.70876,248.73539 C580.70876,260.744737 586.105413,268.80375 596.826769,268.80375 Z M523.53301,265.421845 L519.244461,289.224685 C507.415001,292.808066 494.815618,294.678912 485.123219,294.678912 C452.462674,294.678912 434.891165,274.61775 434.891165,250.044972 C434.891165,227.371843 449.893856,192.502253 493.354921,192.502253 C519.071772,192.502253 538.363012,205.439834 538.363012,235.06387 C538.363012,238.978237 537.247711,247.598499 535.873359,253.419679 L466.695443,253.419679 C467.127183,263.917984 472.351147,272.178457 493.009526,272.178457 C502.011151,272.178457 514.186006,269.933445 523.53301,265.421845 Z M468.839717,234.293948 L510.242853,234.293948 C510.242853,223.802856 506.119797,215.002708 493.693104,215.002708 C479.122136,215.002708 471.235829,224.939747 468.839717,234.293948 Z M398.201121,194.747265 L394.430657,214.808428 C400.259034,203.367511 411.145883,192.502253 425.033273,192.502253 C429.487314,192.502253 434.80482,193.070698 439.258861,194.941545 L431.631589,224.731074 C427.263892,221.356367 422.37093,220.622428 416.031664,220.622428 C401.798879,220.622428 393.315339,232.991547 390.912031,247.433006 L381.313189,292.4339 L347.623671,292.4339 L368.195722,194.747265 L398.201121,194.747265 Z M295.758228,110.46592 C304.414461,114.236384 313.761466,116.107214 323.101275,116.107214 C328.591472,116.107214 342.047131,115.545965 342.047131,107.486968 C342.047131,93.6067751 301.759308,100.730356 301.759308,68.4727479 C301.759308,45.5981429 328.418779,36.4094353 351.048756,36.4094353 C359.539476,36.4094353 371.368953,38.3090527 383.536612,42.2234353 L376.420211,64.3569049 C367.763982,60.7807207 359.539476,58.9098903 349.42255,58.9098903 C341.874442,58.9098903 333.649935,60.6152279 333.649935,67.3646431 C333.649935,78.2299014 375.822994,77.4959627 375.822994,102.039938 C375.822994,126.209763 355.423633,138.211913 330.04497,138.607669 C315.301311,138.780359 299.528691,136.535362 288.987226,133.527624 L295.758228,110.46592 Z M88.6418407,109.357799 L84.3533,133.160655 C72.5310299,136.736823 60.0107935,138.607669 50.2392514,138.607669 C17.6650475,138.607669 0,118.553703 0,93.9809412 C0,71.3149934 15.002698,36.4094353 58.463752,36.4094353 C84.1878024,36.4094353 103.471848,49.3470166 103.471848,78.9638562 C103.471848,82.9142064 102.363733,91.5344521 101.075732,97.3556488 L31.8906279,97.3556488 C32.2360135,107.853938 37.4671693,116.107214 58.1255615,116.107214 C67.1271813,116.107214 79.294837,113.833431 88.6418407,109.357799 Z M33.948551,78.2299014 L75.358877,78.2299014 C75.358877,67.7316125 71.2430292,58.9098903 58.8954839,58.9098903 C44.2381715,58.9098903 36.3518613,68.875701 33.948551,78.2299014 Z"></path>
                </g>
            </g>
        </g>
    </g>
</svg>