<?xml version="1.0" encoding="UTF-8"?>
<svg width="980px" height="680px" viewBox="0 0 980 680" version="1.1" xmlns="http://www.w3.org/2000/svg" xmlns:xlink="http://www.w3.org/1999/xlink">
    <title>DE GLS Nachnahme</title>
    <defs>
        <linearGradient x1="50%" y1="0%" x2="50%" y2="100%" id="linearGradient-1">
            <stop stop-color="#FFFFFF" offset="0%"></stop>
            <stop stop-color="#EDEDED" offset="100%"></stop>
        </linearGradient>
        <rect id="path-2" x="0" y="0" width="900" height="600" rx="80"></rect>
        <filter x="-6.7%" y="-10.0%" width="113.3%" height="120.0%" filterUnits="objectBoundingBox" id="filter-3">
            <feMorphology radius="2.5" operator="dilate" in="SourceAlpha" result="shadowSpreadOuter1"></feMorphology>
            <feOffset dx="0" dy="0" in="shadowSpreadOuter1" result="shadowOffsetOuter1"></feOffset>
            <feGaussianBlur stdDeviation="17.5" in="shadowOffsetOuter1" result="shadowBlurOuter1"></feGaussianBlur>
            <feColorMatrix values="0 0 0 0 0   0 0 0 0 0   0 0 0 0 0  0 0 0 0.5 0" type="matrix" in="shadowBlurOuter1"></feColorMatrix>
        </filter>
    </defs>
    <g id="DE-GLS-Nachnahme" stroke="none" stroke-width="1" fill="none" fill-rule="evenodd">
        <g transform="translate(40, 40)">
            <g id="Rectangle">
                <use fill="black" fill-opacity="1" filter="url(#filter-3)" xlink:href="#path-2"></use>
                <use fill="url(#linearGradient-1)" fill-rule="evenodd" xlink:href="#path-2"></use>
            </g>
            <path d="M895,345 L895,520 C895,540.710678 886.605339,559.460678 873.033009,573.033009 C859.460678,586.605339 840.710678,595 820,595 L80,595 C59.2893219,595 40.5393219,586.605339 26.9669914,573.033009 C13.3946609,559.460678 5,540.710678 5,520 L5,345 L895,345 Z" id="Path" stroke="#333333" stroke-width="10" fill="#FF6600"></path>
            <g id="NACHNAHME" transform="translate(164.6, 415.3)" fill="#333333" fill-rule="nonzero">
                <polygon id="Path" points="5.68434189e-14 107.7 5.68434189e-14 0.9 14.7 0.9 37.8 65.25 38.1 65.25 38.1 0.9 53.4 0.9 53.4 107.7 39 107.7 15.6 43.5 15.3 43.5 15.3 107.7"></polygon>
                <path d="M98.1,70.35 L90.6,31.65 L90.3,31.65 L82.8,70.35 L98.1,70.35 Z M60.3,107.7 L84.15,0.9 L96.9,0.9 L120.75,107.7 L105.45,107.7 L100.95,84.75 L80.1,84.75 L75.6,107.7 L60.3,107.7 Z" id="Shape"></path>
                <path d="M176.85,77.25 L176.85,83.85 C176.85,87.15 176.225,90.275 174.975,93.225 C173.725,96.175 172,98.8 169.8,101.1 C167.6,103.4 165.025,105.225 162.075,106.575 C159.125,107.925 155.95,108.6 152.55,108.6 C149.65,108.6 146.7,108.2 143.7,107.4 C140.7,106.6 138,105.2 135.6,103.2 C133.2,101.2 131.225,98.625 129.675,95.475 C128.125,92.325 127.35,88.3 127.35,83.4 L127.35,24.6 C127.35,21.1 127.95,17.85 129.15,14.85 C130.35,11.85 132.05,9.25 134.25,7.05 C136.45,4.85 139.075,3.125 142.125,1.875 C145.175,0.625 148.55,0 152.25,0 C159.45,0 165.3,2.35 169.8,7.05 C172,9.35 173.725,12.075 174.975,15.225 C176.225,18.375 176.85,21.8 176.85,25.5 L176.85,31.5 L161.55,31.5 L161.55,26.4 C161.55,23.4 160.7,20.8 159,18.6 C157.3,16.4 155,15.3 152.1,15.3 C148.3,15.3 145.775,16.475 144.525,18.825 C143.275,21.175 142.65,24.15 142.65,27.75 L142.65,82.35 C142.65,85.45 143.325,88.05 144.675,90.15 C146.025,92.25 148.45,93.3 151.95,93.3 C152.95,93.3 154.025,93.125 155.175,92.775 C156.325,92.425 157.4,91.85 158.4,91.05 C159.3,90.25 160.05,89.15 160.65,87.75 C161.25,86.35 161.55,84.6 161.55,82.5 L161.55,77.25 L176.85,77.25 Z" id="Path"></path>
                <polygon id="Path" points="189.3 107.7 189.3 0.9 204.6 0.9 204.6 46.65 223.5 46.65 223.5 0.9 238.8 0.9 238.8 107.7 223.5 107.7 223.5 60.15 204.6 60.15 204.6 107.7"></polygon>
                <polygon id="Path" points="252.6 107.7 252.6 0.9 267.3 0.9 290.4 65.25 290.7 65.25 290.7 0.9 306 0.9 306 107.7 291.6 107.7 268.2 43.5 267.9 43.5 267.9 107.7"></polygon>
                <path d="M350.7,70.35 L343.2,31.65 L342.9,31.65 L335.4,70.35 L350.7,70.35 Z M312.9,107.7 L336.75,0.9 L349.5,0.9 L373.35,107.7 L358.05,107.7 L353.55,84.75 L332.7,84.75 L328.2,107.7 L312.9,107.7 Z" id="Shape"></path>
                <polygon id="Path" points="380.85 107.7 380.85 0.9 396.15 0.9 396.15 46.65 415.05 46.65 415.05 0.9 430.35 0.9 430.35 107.7 415.05 107.7 415.05 60.15 396.15 60.15 396.15 107.7"></polygon>
                <polygon id="Path" points="444.75 107.7 444.75 0.9 459.45 0.9 479.1 57.45 479.4 57.45 498.9 0.9 513.75 0.9 513.75 107.7 498.45 107.7 498.45 42.75 498.15 42.75 483 88.65 475.35 88.65 460.35 42.75 460.05 42.75 460.05 107.7"></polygon>
                <polygon id="Path" points="528.15 107.7 528.15 0.9 573.75 0.9 573.75 15.3 543.45 15.3 543.45 46.65 569.85 46.65 569.85 61.05 543.45 61.05 543.45 92.4 573.75 92.4 573.75 107.7"></polygon>
            </g>
            <g id="Logo" transform="translate(79, 50)" fill-rule="nonzero">
                <path d="M699.600798,249.001996 C722.55489,249.001996 741.017964,230.538922 741.017964,208.083832 C741.017964,185.129741 722.55489,167.165669 699.600798,167.165669 C676.646707,167.165669 658.183633,185.628743 658.183633,208.083832 C658.682635,230.538922 677.145709,249.001996 699.600798,249.001996 L699.600798,249.001996 Z" id="Path" fill="#FFD100"></path>
                <path d="M118.762475,116.267465 L118.762475,170.159681 L163.672655,170.159681 C157.185629,180.638723 142.215569,186.127745 132.235529,186.127745 C98.3033932,186.127745 81.3373253,167.165669 81.3373253,128.243513 C81.3373253,85.3293413 103.792415,63.3732535 147.704591,63.3732535 C165.169661,63.3732535 188.123752,67.8642715 213.073852,75.3493014 L213.073852,10.9780439 C206.087824,7.98403194 195.10978,5.48902196 181.137725,2.99401198 C167.165669,0.998003992 154.690619,5.68434189e-14 144.211577,5.68434189e-14 C100.299401,5.68434189e-14 65.3692615,11.9760479 39.4211577,35.4291417 C12.9740519,58.8822355 0,90.8183633 0,130.738523 C0,167.664671 9.98003992,196.606786 30.4391218,217.56487 C50.8982036,239.021956 78.3433134,250 112.774451,250 C147.205589,250 179.141717,232.035928 189.620758,209.580838 L189.620758,246.007984 L239.520958,246.007984 L239.520958,116.267465 L118.762475,116.267465 Z M263.972056,246.007984 L263.972056,3.99201597 L341.816367,3.99201597 L341.816367,183.133733 L426.646707,183.133733 L426.646707,246.007984 L263.972056,246.007984 Z M451.097804,240.01996 L451.097804,174.151697 C462.57485,177.644711 476.047904,181.137725 491.516966,183.632735 C506.487026,186.127745 519.96008,187.62475 530.938124,187.62475 C549.9002,187.62475 559.88024,183.133733 559.88024,174.650699 C559.88024,169.161677 556.886228,166.666667 542.914172,163.672655 L515.968064,157.684631 C469.560878,147.205589 448.103792,123.752495 448.103792,84.3313373 C448.103792,58.3832335 457.085828,37.9241517 475.0499,22.4550898 C493.013972,7.48502994 517.964072,0 549.401198,0 C570.858283,0 604.291417,4.49101796 624.251497,9.48103792 L624.251497,72.3552894 C613.772455,69.8602794 601.297405,66.8662675 585.828343,64.3712575 C570.858283,61.8762475 558.882236,60.8782435 549.9002,60.8782435 C533.433134,60.8782435 523.952096,65.3692615 523.952096,73.8522954 C523.952096,78.8423154 528.443114,82.3353293 537.42515,84.8303393 L568.862275,92.3153693 C614.770459,103.293413 636.227545,126.746507 636.227545,166.666667 C636.227545,192.115768 626.746507,212.57485 608.283433,227.54491 C589.820359,242.51497 563.872255,250 531.437126,250 C500,250 468.562874,245.508982 451.097804,240.01996 Z" id="Shape" fill="#061AB1"></path>
            </g>
        </g>
    </g>
</svg>