<?xml version="1.0" encoding="UTF-8"?>
<svg width="980px" height="680px" viewBox="0 0 980 680" version="1.1" xmlns="http://www.w3.org/2000/svg" xmlns:xlink="http://www.w3.org/1999/xlink">
    <title>DE Giropay</title>
    <defs>
        <linearGradient x1="50%" y1="0%" x2="50%" y2="100%" id="linearGradient-1">
            <stop stop-color="#FFFFFF" offset="0%"></stop>
            <stop stop-color="#EDEDED" offset="100%"></stop>
        </linearGradient>
        <rect id="path-2" x="2.84217094e-14" y="0" width="900" height="600" rx="80"></rect>
        <filter x="-6.7%" y="-10.0%" width="113.3%" height="120.0%" filterUnits="objectBoundingBox" id="filter-3">
            <feMorphology radius="2.5" operator="dilate" in="SourceAlpha" result="shadowSpreadOuter1"></feMorphology>
            <feOffset dx="0" dy="0" in="shadowSpreadOuter1" result="shadowOffsetOuter1"></feOffset>
            <feGaussianBlur stdDeviation="17.5" in="shadowOffsetOuter1" result="shadowBlurOuter1"></feGaussianBlur>
            <feColorMatrix values="0 0 0 0 0   0 0 0 0 0   0 0 0 0 0  0 0 0 0.5 0" type="matrix" in="shadowBlurOuter1"></feColorMatrix>
        </filter>
    </defs>
    <g id="DE-Giropay" stroke="none" stroke-width="1" fill="none" fill-rule="evenodd">
        <g transform="translate(40, 40)">
            <g id="Rectangle">
                <use fill="black" fill-opacity="1" filter="url(#filter-3)" xlink:href="#path-2"></use>
                <use fill="url(#linearGradient-1)" fill-rule="evenodd" xlink:href="#path-2"></use>
            </g>
            <g id="Logo" transform="translate(49.7171, 128.1372)">
                <path d="M0,61.7245535 C0,27.6374735 27.7769935,0 62.0237537,0 L737.976565,0 C772.238042,0 800,27.6374735 800,61.7245535 L800,282.305939 C800,316.373183 772.238042,344.015768 737.976565,344.015768 L62.0237537,344.015768 C27.7769935,344.015768 0,316.373183 0,282.305939 L0,61.7245535 L0,61.7245535 Z" id="_92653320" fill="#000268"></path>
                <path d="M25.4560303,63.8365564 L25.4560303,280.214096 C25.4560303,301.51108 42.8182913,318.784059 64.2349571,318.784059 L418.372983,318.784059 L418.372983,25.2665899 L64.2349571,25.2665899 C42.8182913,25.2665899 25.4560303,42.5392513 25.4560303,63.8365564 L25.4560303,63.8365564 Z M509.875806,170.944526 C509.875806,184.720862 503.062041,194.189036 491.781068,194.189036 C481.814972,194.189036 473.507125,184.720862 473.507125,172.104845 C473.507125,159.15539 480.813691,149.527861 491.781068,149.527861 C503.410841,149.527861 509.875806,159.489153 509.875806,170.944526 Z M443.638612,249.956775 L473.507125,249.956775 L473.507125,202.974647 L473.840888,202.974647 C479.498814,213.269693 490.794824,217.084737 501.249242,217.084737 C526.974069,217.084737 540.750404,195.842472 540.750404,170.277 C540.750404,149.368498 527.641595,126.611994 503.729559,126.611994 C490.127623,126.611994 477.511615,132.095836 471.519926,144.21841 L471.186163,144.21841 L471.186163,128.61935 L443.638612,128.61935 L443.638612,249.956775 Z M581.546295,187.704221 C581.546295,179.411411 589.505342,176.268689 599.645838,176.268689 C604.123604,176.268689 608.446811,176.582611 612.261855,176.761815 C612.261855,186.882461 605.124568,197.1772 593.828549,197.1772 C586.855746,197.1772 581.546295,193.69591 581.546295,187.704221 Z M641.79693,215.097538 C640.476923,208.299126 640.143169,201.480565 640.143169,194.682153 L640.143169,162.477316 C640.143169,136.08528 621.062503,126.611994 598.978637,126.611994 C586.203265,126.611994 575.081646,128.43983 564.452837,132.763037 L564.961,153.024179 C573.233644,148.367217 582.881014,146.539373 592.508551,146.539373 C603.281677,146.539373 612.08265,149.702261 612.261855,161.491398 C608.446811,160.823871 603.122323,160.315708 598.311119,160.315708 C582.388212,160.315708 553.664981,163.478597 553.664981,189.865829 C553.664981,208.632889 568.930603,217.084737 586.028865,217.084737 C598.311119,217.084737 606.61865,212.28857 613.422173,201.480565 L613.755937,201.480565 C613.755937,205.978163 614.243933,210.440567 614.423454,215.097538 L641.79693,215.097538 Z M655.239186,249.956775 C661.385108,251.291819 667.52144,251.964141 673.826725,251.964141 C701.220359,251.964141 707.685007,230.876118 716.152217,209.12569 L747.868733,128.61935 L717.980062,128.61935 L700.219078,185.054625 L699.885315,185.054625 L681.292655,128.61935 L649.10318,128.61935 L684.12178,217.084737 C681.960172,224.725066 676.322088,229.048273 669.010717,229.048273 C664.846873,229.048273 661.211034,228.54011 657.221589,227.220428 L655.239186,249.956775 Z" id="_92186184" fill="#FFFFFF"></path>
                <path d="M98.4269941,171.118926 C98.4269941,159.32979 104.244283,149.527861 115.365902,149.527861 C128.808791,149.527861 134.446884,160.315708 134.446884,169.943246 C134.446884,183.22678 125.979674,192.186791 115.365902,192.186791 C106.405891,192.186791 98.4269941,184.561499 98.4269941,171.118926 Z M163.334274,128.61935 L136.27472,128.61935 L136.27472,144.21841 L135.960798,144.21841 C129.635355,133.589917 119.335505,126.611994 106.565245,126.611994 C79.6797754,126.611994 67.5572008,145.886892 67.5572008,171.611727 C67.5572008,197.1772 82.3345008,215.097538 106.052287,215.097538 C118.020619,215.097538 127.98191,210.440567 135.114085,200.320238 L135.44784,200.320238 L135.44784,204.976883 C135.44784,221.901061 126.154074,230.034517 108.901253,230.034517 C96.4445996,230.034517 88.7994657,227.379792 79.6797754,222.902351 L78.1856936,246.480299 C85.1437849,248.975661 96.9329124,251.964141 111.222216,251.964141 C146.081453,251.964141 163.334274,240.503647 163.334274,204.976883 L163.334274,128.61935 Z M213.832579,92.5994693 L183.94902,92.5994693 L183.94902,114.509261 L213.832579,114.509261 L213.832579,92.5994693 Z M183.964057,215.097538 L213.832579,215.097538 L213.832579,128.61935 L183.964057,128.61935 L183.964057,215.097538 Z M297.028839,127.613274 C294.04035,127.124953 290.384669,126.611994 286.908184,126.611994 C273.958729,126.611994 266.4928,133.589917 261.342712,144.552173 L261.008949,144.552173 L261.008949,128.61935 L233.790041,128.61935 L233.790041,215.097538 L263.663674,215.097538 L263.663674,178.589651 C263.663674,161.650752 271.478403,151.530097 285.414102,151.530097 C288.910429,151.530097 292.212505,151.530097 295.534757,152.51122 L297.028839,127.613274 Z M348.474021,196.176235 C334.697676,196.176235 329.059592,184.720862 329.059592,171.945482 C329.059592,158.996026 334.697676,147.540653 348.474021,147.540653 C362.265393,147.540653 367.908282,158.996026 367.908282,171.945482 C367.908282,184.720862 362.265393,196.176235 348.474021,196.176235 Z M348.474021,217.084737 C377.027648,217.084737 398.778076,200.499442 398.778076,171.945482 C398.778076,143.217455 377.027648,126.611994 348.474021,126.611994 C319.925181,126.611994 298.189798,143.217455 298.189798,171.945482 C298.189798,200.499442 319.925181,217.084737 348.474021,217.084737 Z" id="_47303032" fill="#FF0007"></path>
            </g>
        </g>
    </g>
</svg>