<?xml version="1.0" encoding="UTF-8"?>
<svg width="980px" height="680px" viewBox="0 0 980 680" version="1.1" xmlns="http://www.w3.org/2000/svg" xmlns:xlink="http://www.w3.org/1999/xlink">
    <title>DE Girocard</title>
    <defs>
        <rect id="path-1" x="2.84217094e-14" y="0" width="900" height="600" rx="80"></rect>
        <filter x="-6.7%" y="-10.0%" width="113.3%" height="120.0%" filterUnits="objectBoundingBox" id="filter-2">
            <feMorphology radius="2.5" operator="dilate" in="SourceAlpha" result="shadowSpreadOuter1"></feMorphology>
            <feOffset dx="0" dy="0" in="shadowSpreadOuter1" result="shadowOffsetOuter1"></feOffset>
            <feGaussianBlur stdDeviation="17.5" in="shadowOffsetOuter1" result="shadowBlurOuter1"></feGaussianBlur>
            <feColorMatrix values="0 0 0 0 0   0 0 0 0 0   0 0 0 0 0  0 0 0 0.5 0" type="matrix" in="shadowBlurOuter1"></feColorMatrix>
        </filter>
    </defs>
    <g id="DE-Girocard" stroke="none" stroke-width="1" fill="none" fill-rule="evenodd">
        <g transform="translate(40, 40)">
            <g id="Rectangle">
                <use fill="black" fill-opacity="1" filter="url(#filter-2)" xlink:href="#path-1"></use>
                <use fill="#FFFFFF" fill-rule="evenodd" xlink:href="#path-1"></use>
            </g>
            <path d="M820,0 C864.18278,0 900,35.81722 900,80 L900,520 C900,564.18278 864.18278,600 820,600 L80,600 C35.81722,600 0,564.18278 0,520 L0,80 C0,35.81722 35.81722,0 80,0 L820,0 Z M80,30 C52.3857625,30 30,52.3857625 30,80 L30,520 C30,547.614237 52.3857625,570 80,570 L820,570 C847.614237,570 870,547.614237 870,520 L870,80 C870,52.3857625 847.614237,30 820,30 L80,30 Z" id="Rectangle" fill="#5DC4E9" fill-rule="nonzero"></path>
            <g id="Logo" transform="translate(164.8536, 50.0832)" fill-rule="nonzero">
                <path d="M568.635985,442.086676 C568.167005,425.157928 568.167005,413.124874 568.167005,396.113646 C568.167005,374.892186 568.522586,353.660366 568.635985,332.464646 L553.000702,332.464646 L553.000702,384.977275 C550.733254,381.993486 549.908693,381.107123 548.053488,379.406518 C543.801976,375.696108 536.783116,371.460056 526.476446,371.460056 C523.456558,371.460056 509.630139,371.645576 498.823568,383.46219 C485.744371,397.50505 486.831714,416.505444 486.831714,419.339811 C487.03772,425.441349 487.831477,432.238628 490.341144,438.541186 C494.546276,449.373497 504.507724,462.741295 525.152022,462.741295 C527.378269,462.741295 539.421643,462.741295 548.522468,453.717769 C550.192153,452.372746 551.320736,450.873121 553.943764,447.332771 L554.618866,460.705709 L569.352288,460.705709 C568.950326,453.717769 568.883346,449.007635 568.635985,442.086676 M553.273842,417.670127 C553.273842,419.236731 553.160597,424.508606 551.475337,429.878382 C547.383565,442.251596 538.122999,449.007635 527.790549,449.007635 C519.452407,449.007635 511.119443,444.452063 506.49175,434.583414 C503.925382,429.069319 502.92048,422.751302 503.260601,416.660045 C503.260601,414.469898 503.379256,409.373224 505.538367,403.158286 C511.237983,386.889179 524.16772,385.296795 528.455331,385.296795 C538.40128,385.296795 547.533025,391.975534 551.475337,404.075569 C552.140118,406.652256 553.474823,411.37271 553.273842,417.670127 M475.922103,386.141918 C480.173615,386.141918 482.322561,386.89432 486.543153,388.239344 L486.543153,372.92876 C485.749511,372.856484 481.029058,372.124838 477.091887,372.124838 C470.742988,372.124838 462.693446,373.660522 456.509428,381.107123 C455.458145,382.292367 454.040962,384.657754 452.190936,387.744622 L451.407614,373.145201 L436.632952,373.145201 C437.148313,384.121832 437.416274,391.774553 437.416274,402.591405 C437.416274,415.27382 437.343998,424.225185 437.343998,436.789022 L437.343998,460.705709 L453.211182,460.705709 L453.211182,417.840187 C453.762565,409.538144 454.149066,398.540873 462.69333,391.073672 C468.382626,386.141918 473.974021,386.141918 475.921987,386.141918 M405.568468,460.705709 L418.946546,460.705709 L418.946546,404.173508 C418.946546,395.423124 416.91614,388.022903 414.566214,384.487694 C410.00036,376.840151 400.018312,371.460056 386.269193,371.460056 C369.572346,371.460056 361.115702,377.443093 358.806976,378.855097 L358.806976,392.619677 C362.326726,390.52743 372.437594,384.322812 383.316325,384.322812 C393.947656,384.322812 400.492433,390.43467 402.68776,396.154886 C403.945164,399.741616 404.264684,404.054968 404.264684,407.708679 C400.214153,407.507699 395.895621,407.342663 391.690489,407.342663 C383.048325,407.342663 372.710735,407.708679 364.06857,411.944577 C357.353732,415.160266 348.165326,421.375203 348.165326,435.407783 C348.165326,445.003329 352.643598,452.04279 357.00333,455.73774 C361.914445,459.901632 368.505603,461.519797 375.199802,461.921758 C385.181811,462.220523 391.96363,459.164729 396.292442,456.103641 C400.018312,453.269274 402.296079,450.543165 405.568468,446.801835 L405.568468,460.705709 Z M404.651301,421.256857 C404.651301,427.038913 404.13594,430.404024 403.321737,433.088931 C402.997076,434.258754 401.997314,437.170382 399.400027,440.576732 C394.318813,447.487372 387.640074,449.847618 381.368475,449.847618 C374.164095,449.847618 364.584008,446.101147 364.584008,435.820218 C364.584008,425.61141 373.535373,421.256857 381.368475,419.339811 C383.728683,418.855371 387.454553,418.40703 392.881029,418.40703 C396.802739,418.40703 400.72959,418.525685 404.651301,418.855371 L404.651301,421.256857 Z M321.368045,462.045593 C331.870556,462.045593 337.549532,459.700806 342.455545,457.50034 L341.285722,443.42138 C338.255554,444.756123 331.344914,448.141873 323.02227,448.141873 C321.836987,448.141873 316.415691,448.141873 311.911639,445.755847 C298.626321,439.190507 295.364252,425.80725 295.364252,415.845841 C295.364252,401.12788 302.749012,392.619677 310.205894,388.543404 C316.967073,384.760834 323.02227,384.977275 325.449497,384.977275 C331.659255,385.286475 336.565268,387.492121 339.054335,388.718605 L339.868539,374.479905 C337.08059,373.789343 330.566771,371.630116 323.02227,371.460056 C305.495721,370.939555 294.544869,379.071538 288.134092,387.492121 C280.821491,397.041249 278.863245,408.692982 279.177586,418.40703 C279.801128,441.684715 293.081306,454.238271 304.722719,458.958724 C307.814727,460.355307 313.349423,461.921912 321.368045,462.045593 M256.786302,451.068962 C266.912631,440.865333 269.824259,426.992533 269.669659,415.789142 C269.195538,394.27908 257.930345,381.442065 247.262915,375.824929 C243.547326,373.990324 237.146867,371.630116 228.185221,371.630116 C208.540646,371.630116 195.92525,381.807966 189.885514,392.269275 C185.592801,399.741616 184.026157,408.368321 183.794257,417.185686 C183.629221,434.768935 189.885514,445.121985 197.378494,452.408845 C199.19246,453.923929 200.991004,455.315333 202.95957,456.485117 C207.865545,459.700806 214.905044,462.375394 226.489757,462.375394 C235.368962,462.375394 241.223179,460.705709 244.995429,458.958724 C248.927421,457.283899 253.209853,454.604171 256.786302,451.068962 M253.364453,416.088023 C253.364453,425.65265 250.385844,439.674909 238.631032,446.307268 C236.275965,447.487372 232.235753,449.373497 226.489757,449.373497 C225.196254,449.373497 220.439739,449.203437 215.884167,446.99783 C214.905044,446.472188 213.925882,445.941367 211.596594,444.235622 C209.205428,442.442257 205.907298,438.824607 203.279091,432.728209 C200.991004,427.358395 200.218002,421.581518 200.367423,415.789142 C200.650729,403.653007 205.706318,395.021162 210.983333,390.58413 C214.441242,387.693102 219.970759,384.322812 228.185221,384.322812 C241.7385,384.487848 247.747317,393.79464 250.720786,400.911439 C251.679309,403.477806 253.364453,409.177383 253.364453,416.088023 M99.2329963,352.305062 L116.094725,352.305062 L116.094725,335.020733 L99.2329963,335.020733 L99.2329963,352.305062 Z M73.4713843,485.230518 C79.9955228,476.614094 80.5108833,467.673049 80.9798251,449.321977 L80.7838691,373.145201 L66.1226071,373.145201 L66.1226071,386.672739 C65.6175661,385.863637 62.7883781,381.442065 59.052188,378.422216 C55.1665766,375.010687 47.9467361,371.269356 38.1090078,371.429136 C29.3173834,371.429136 22.3912838,374.794246 18.9797546,377.041132 C13.2904585,380.792743 10.3066701,384.657754 8.68336547,387.0747 C1.81910605,396.525927 0,407.873599 0,417.510347 C0,419.922114 0,428.208697 2.59728735,435.974818 C3.2672097,438.175285 6.20975847,447.971812 14.8622425,455.258633 C19.6548561,459.164884 26.9880573,463.065955 38.1090078,462.535174 C44.3187663,462.220948 52.8372504,460.185247 59.052188,454.939113 C61.0259331,453.233368 62.195756,452.084184 64.9476438,448.337674 L64.8239634,460.355307 C64.478818,464.256379 64.2725423,468.15745 62.7883781,472.01218 C62.0050564,474.413628 60.6600326,476.614094 58.8563866,478.65482 C54.6512547,483.524734 49.2711594,486.055041 38.9438502,486.420941 C28.8020615,486.420941 20.4742384,484.019455 16.660748,482.700211 C12.4556161,481.169667 9.82226825,479.499982 8.01344313,478.489939 L6.37981895,493.738682 C8.84314502,494.733266 10.6622511,495.403227 13.2904585,496.299909 C17.4955904,497.639754 26.7200961,500 37.9492283,500 C50.0596217,500 57.7587234,497.232652 62.9893587,494.398324 C68.7714151,491.017715 71.5078428,487.966945 73.4712684,485.230518 M65.6175661,417.510347 C65.6175661,419.705673 65.6175661,428.389077 60.5569914,436.30976 C55.3160365,444.565424 47.4571552,448.507735 40.5877553,448.507735 C34.6974786,448.507735 28.6474611,445.956828 24.5247699,442.086676 C18.3510719,435.974818 16.5525277,426.173151 16.5525277,416.809505 C16.660748,403.591167 20.4742384,396.154886 26.7200961,390.43467 C29.1215433,388.022903 34.0223772,384.838134 40.4382953,384.838134 C44.8289478,384.838134 50.3791035,386.523279 54.965596,390.218229 C66.1226071,399.540636 65.6175661,416.660045 65.6175661,417.510347 M115.661728,373.145201 L100.263524,373.145201 L100.263524,460.721169 L115.661728,460.721169 L115.661728,373.145201 Z M172.884529,386.141918 C177.136041,386.141918 179.279808,386.89432 183.5004,388.239344 L183.5004,372.92876 C182.711937,372.856484 177.991484,372.124838 174.049173,372.124838 C167.705414,372.124838 159.655872,373.660522 153.471854,381.107123 C152.415431,382.292367 151.003388,384.657754 149.148183,387.744622 L148.37004,373.145201 L133.595378,373.145201 C134.110739,384.121832 134.37356,391.774553 134.37356,402.591405 C134.37356,415.27382 134.306695,424.225185 134.306695,436.789022 L134.306695,460.705709 L150.1687,460.705709 L150.1687,417.840187 C150.725262,409.538144 151.106584,398.540873 159.655988,391.073672 C165.340143,386.141918 170.931539,386.141918 172.884645,386.141918" id="path346" fill="#1F3A6A"></path>
                <polygon id="path350" fill="#1F3A6A" points="358.906036 81.8037295 336.452912 81.8037295 336.452912 87.812546 354.128883 87.812546 398.700189 269.107327 170.654263 269.107327 215.225569 87.812546 232.901539 87.812546 232.901539 81.8037295 210.443275 81.8037295 161.074176 276.50238 408.280276 276.50238"></polygon>
                <path d="M328.037006,0 L241.316441,0 C236.456847,0 232.509395,3.95263074 232.509395,8.80708447 L232.509395,93.8682452 L239.028355,93.8682452 L239.028355,8.80708447 C239.028355,7.57028097 240.074497,6.52413846 241.316441,6.52413846 L257.482507,6.52413846 L257.482507,67.8747712 L240.491918,67.8747712 L264.831168,93.8682452 L304.522279,93.8682452 L328.861529,67.8747712 L311.87094,67.8747712 L311.87094,6.52413846 L328.037006,6.52413846 C329.27895,6.52413846 330.325054,7.57028097 330.325054,8.80708447 L330.325054,93.8682452 L336.849192,93.8682452 L336.849192,8.80708447 C336.849192,3.95263074 332.8966,0 328.037006,0" id="path354" fill="#5DC4E9"></path>
                <path d="M269.915706,101.721831 C268.13266,101.721831 266.591603,103.18238 266.488523,104.960285 L265.582681,120.427866 C265.479485,122.205771 266.854501,123.658783 268.632406,123.658783 L300.722548,123.658783 C302.500453,123.658783 303.867817,122.205771 303.764737,120.427866 L302.866431,104.960285 C302.763235,103.18238 301.222294,101.721831 299.439249,101.721831 L269.915706,101.721831 Z M313.276297,101.721831 C311.498392,101.721831 310.167707,103.174844 310.317129,104.952749 L311.645726,120.442978 C311.795302,122.215743 313.378063,123.658783 315.155968,123.658783 L347.480137,123.658783 C349.258042,123.658783 350.427362,122.230121 350.076921,120.488276 L346.921527,104.899914 C346.565946,103.15807 344.819308,101.721831 343.041403,101.721831 L313.276297,101.721831 Z M226.162584,101.729561 C224.384679,101.729561 222.640438,103.153122 222.289997,104.900107 L219.149676,120.488469 C218.799119,122.235454 219.968594,123.666552 221.746499,123.666552 L254.198987,123.666552 C255.976892,123.666552 257.559768,122.208361 257.709228,120.435635 L259.037826,104.952942 C259.187402,103.180177 257.849026,101.729561 256.071121,101.729561 L226.162584,101.729561 Z M220.85573,130.385023 C218.820145,130.385023 216.834071,132.019266 216.432109,134.008471 L212.370833,154.186533 C211.968872,156.180879 213.301953,157.809981 215.337538,157.809981 L250.809565,157.809981 C252.845151,157.809981 254.650343,156.151389 254.825543,154.126162 L256.539135,134.068842 C256.71422,132.043577 255.192835,130.385023 253.15725,130.385023 L220.85573,130.385023 Z M268.700353,130.385023 C266.669908,130.385023 264.908545,132.045973 264.790044,134.076418 L263.612414,154.118587 C263.493758,156.149031 265.069562,157.809981 267.099968,157.809981 L302.247411,157.809981 C304.282996,157.809981 305.858684,156.149031 305.735004,154.118587 L304.56491,134.076418 C304.446254,132.045973 302.68265,130.385023 300.647065,130.385023 L268.700353,130.385023 Z M316.190168,130.385023 C314.159723,130.385023 312.640619,132.045973 312.81582,134.076418 L314.529411,154.126162 C314.699471,156.156568 316.509804,157.809981 318.545389,157.809981 L353.919283,157.809981 C355.949728,157.809981 357.28795,156.180879 356.885989,154.186533 L352.809639,134.008471 C352.407678,132.014125 350.408849,130.385023 348.378442,130.385023 L316.190168,130.385023 Z M214.67322,165.72121 C212.132633,165.72121 209.639778,167.761434 209.139916,170.250501 L204.067089,195.471204 C203.567227,197.960271 205.227829,200.00807 207.773557,200.00807 L246.280275,200.00807 C248.820862,200.00807 251.078647,197.931168 251.300228,195.395721 L253.444111,170.325984 C253.660552,167.790537 251.749806,165.72121 249.209219,165.72121 L214.67322,165.72121 Z M267.560445,165.72121 C265.014717,165.72121 262.813091,167.798074 262.66881,170.333521 L261.211894,195.388184 C261.057294,197.928772 263.019405,200.000533 265.560032,200.000533 L303.787386,200.000533 C306.333153,200.000533 308.29252,197.928772 308.14306,195.388184 L306.678607,170.333521 C306.534443,167.798074 304.3327,165.72121 301.786934,165.72121 L267.560445,165.72121 Z M320.145736,165.72121 C317.600008,165.72121 315.694403,167.790537 315.910843,170.325984 L318.054726,195.395721 C318.276191,197.931168 320.534092,200.000533 323.074718,200.000533 L361.520987,200.000533 C364.061575,200.000533 365.732496,197.960271 365.227494,195.471204 L360.132018,170.250501 C359.626977,167.756293 357.131765,165.72121 354.591138,165.72121 L320.145736,165.72121 Z M206.829954,209.308253 C203.779185,209.308253 200.789908,211.754495 200.186966,214.743424 L193.755356,246.72036 C193.152414,249.71443 195.158394,252.155532 198.209201,252.155532 L240.890362,252.155532 C243.94117,252.155532 246.649151,249.670253 246.906793,246.629765 L249.631935,214.83402 C249.894756,211.788392 247.609916,209.308253 244.559108,209.308253 L206.829954,209.308253 Z M265.93745,209.308253 C262.891821,209.308253 260.24483,211.795928 260.06445,214.841557 L258.215003,246.622228 C258.034507,249.662677 260.385632,252.155532 263.431261,252.155532 L305.916157,252.155532 C308.966965,252.155532 311.315191,249.662677 311.139951,246.622228 L309.282968,214.841557 C309.102472,211.795928 306.460737,209.308253 303.409929,209.308253 L265.93745,209.308253 Z M324.795846,209.308253 C321.745039,209.308253 319.460199,211.793532 319.723019,214.83402 L322.440586,246.629765 C322.703407,249.670253 325.413784,252.155532 328.464592,252.155532 L371.145792,252.155532 C374.196561,252.155532 376.200144,249.71443 375.592062,246.72036 L369.130227,214.743424 C368.522145,211.754495 365.530472,209.308253 362.479703,209.308253 L324.795846,209.308253 Z" id="path358" fill="#1F3A6A"></path>
            </g>
        </g>
    </g>
</svg>