<?xml version="1.0" encoding="UTF-8"?>
<svg width="980px" height="680px" viewBox="0 0 980 680" version="1.1" xmlns="http://www.w3.org/2000/svg" xmlns:xlink="http://www.w3.org/1999/xlink">
    <title>DE Vorkasse</title>
    <defs>
        <linearGradient x1="50%" y1="0%" x2="50%" y2="100%" id="linearGradient-1">
            <stop stop-color="#FFFFFF" offset="0%"></stop>
            <stop stop-color="#EDEDED" offset="100%"></stop>
        </linearGradient>
        <rect id="path-2" x="0" y="0.00154821673" width="900" height="600" rx="80"></rect>
        <filter x="-6.7%" y="-10.0%" width="113.3%" height="120.0%" filterUnits="objectBoundingBox" id="filter-3">
            <feMorphology radius="2.5" operator="dilate" in="SourceAlpha" result="shadowSpreadOuter1"></feMorphology>
            <feOffset dx="0" dy="0" in="shadowSpreadOuter1" result="shadowOffsetOuter1"></feOffset>
            <feGaussianBlur stdDeviation="17.5" in="shadowOffsetOuter1" result="shadowBlurOuter1"></feGaussianBlur>
            <feColorMatrix values="0 0 0 0 0   0 0 0 0 0   0 0 0 0 0  0 0 0 0.5 0" type="matrix" in="shadowBlurOuter1"></feColorMatrix>
        </filter>
    </defs>
    <g id="DE-Vorkasse" stroke="none" stroke-width="1" fill="none" fill-rule="evenodd">
        <g transform="translate(40, 39.9985)">
            <g id="Rectangle">
                <use fill="black" fill-opacity="1" filter="url(#filter-3)" xlink:href="#path-2"></use>
                <use fill="url(#linearGradient-1)" fill-rule="evenodd" xlink:href="#path-2"></use>
            </g>
            <path d="M900,442.001548 L900,520.001548 C900,564.184328 864.18278,600.001548 820,600.001548 L80,600.001548 C35.81722,600.001548 0,564.184328 0,520.001548 L0,442.001548 L900,442.001548 Z" id="Path" fill="#FF6600"></path>
            <g id="Lastschrift" transform="translate(195.5, 0.0008)">
                <g transform="translate(0, 479.5)" fill="#FFFFFF" fill-rule="nonzero">
                    <polygon id="Path" points="0 2.5 15 2.5 15 58.5 49.5 58.5 49.5 72.5 0 72.5"></polygon>
                    <path d="M77,74 C73.7333333,74 70.6833333,73.3666667 67.85,72.1 C65.0166667,70.8333333 62.5333333,69.0333333 60.4,66.7 C58.2666667,64.3666667 56.5833333,61.5333333 55.35,58.2 C54.1166667,54.8666667 53.5,51.1333333 53.5,47 C53.5,42.8666667 54.1166667,39.1333333 55.35,35.8 C56.5833333,32.4666667 58.2666667,29.6333333 60.4,27.3 C62.5333333,24.9666667 65.0166667,23.1666667 67.85,21.9 C70.6833333,20.6333333 73.7333333,20 77,20 C79.8,20 82.1833333,20.4166667 84.15,21.25 C86.1166667,22.0833333 87.7666667,23 89.1,24 C90.6333333,25.2 91.9333333,26.5333333 93,28 L93.5,28 L93.5,21.5 L107.5,21.5 L107.5,72.5 L93.5,72.5 L93.5,66 L93,66 C91.9333333,67.4666667 90.6333333,68.8 89.1,70 C87.7666667,71 86.1166667,71.9166667 84.15,72.75 C82.1833333,73.5833333 79.8,74 77,74 Z M80.5,62 C84.3,62 87.4166667,60.7 89.85,58.1 C92.2833333,55.5 93.5,51.8 93.5,47 C93.5,42.2 92.2833333,38.5 89.85,35.9 C87.4166667,33.3 84.3,32 80.5,32 C76.9666667,32 74,33.3 71.6,35.9 C69.2,38.5 68,42.2 68,47 C68,51.8 69.2,55.5 71.6,58.1 C74,60.7 76.9666667,62 80.5,62 Z" id="Shape"></path>
                    <path d="M140.5,74 C137.766667,74 135.3,73.75 133.1,73.25 C130.9,72.75 128.95,72.0666667 127.25,71.2 C125.55,70.3333333 124.05,69.3666667 122.75,68.3 C121.45,67.2333333 120.366667,66.1333333 119.5,65 C117.366667,62.3333333 115.866667,59.3333333 115,56 L129.5,56 C130.033333,57.2666667 130.766667,58.3666667 131.7,59.3 C132.5,60.1 133.6,60.8333333 135,61.5 C136.4,62.1666667 138.233333,62.5 140.5,62.5 C143.766667,62.5 146,62.05 147.2,61.15 C148.4,60.25 149,59.0333333 149,57.5 C149,56.1666667 148.216667,55.1666667 146.65,54.5 C145.083333,53.8333333 143.133333,53.2333333 140.8,52.7 C138.466667,52.1666667 135.95,51.6 133.25,51 C130.55,50.4 128.033333,49.5 125.7,48.3 C123.366667,47.1 121.416667,45.5 119.85,43.5 C118.283333,41.5 117.5,38.8333333 117.5,35.5 C117.5,33.5 117.966667,31.5666667 118.9,29.7 C119.833333,27.8333333 121.2,26.1833333 123,24.75 C124.8,23.3166667 127.033333,22.1666667 129.7,21.3 C132.366667,20.4333333 135.466667,20 139,20 C141.666667,20 144.066667,20.2333333 146.2,20.7 C148.333333,21.1666667 150.216667,21.8 151.85,22.6 C153.483333,23.4 154.9,24.3 156.1,25.3 C157.3,26.3 158.3,27.3 159.1,28.3 C161.033333,30.7 162.333333,33.4333333 163,36.5 L149,36.5 C148.6,35.5666667 148,34.7333333 147.2,34 C146.466667,33.4 145.45,32.8333333 144.15,32.3 C142.85,31.7666667 141.133333,31.5 139,31.5 C136.466667,31.5 134.666667,31.9166667 133.6,32.75 C132.533333,33.5833333 132,34.5 132,35.5 C132,36.8333333 132.783333,37.8333333 134.35,38.5 C135.916667,39.1666667 137.866667,39.7666667 140.2,40.3 C142.533333,40.8333333 145.05,41.4 147.75,42 C150.45,42.6 152.966667,43.5 155.3,44.7 C157.633333,45.9 159.583333,47.5 161.15,49.5 C162.716667,51.5 163.5,54.1666667 163.5,57.5 C163.5,59.6333333 163,61.6833333 162,63.65 C161,65.6166667 159.533333,67.3666667 157.6,68.9 C155.666667,70.4333333 153.266667,71.6666667 150.4,72.6 C147.533333,73.5333333 144.233333,74 140.5,74 Z" id="Path"></path>
                    <polygon id="Path" points="174 33.5 167.5 33.5 167.5 21.5 174 21.5 174 10.5 188 10.5 188 21.5 202.5 21.5 202.5 33.5 188 33.5 188 60.5 203 60.5 203 72.5 174 72.5"></polygon>
                    <path d="M233,74 C230.266667,74 227.8,73.75 225.6,73.25 C223.4,72.75 221.45,72.0666667 219.75,71.2 C218.05,70.3333333 216.55,69.3666667 215.25,68.3 C213.95,67.2333333 212.866667,66.1333333 212,65 C209.866667,62.3333333 208.366667,59.3333333 207.5,56 L222,56 C222.533333,57.2666667 223.266667,58.3666667 224.2,59.3 C225,60.1 226.1,60.8333333 227.5,61.5 C228.9,62.1666667 230.733333,62.5 233,62.5 C236.266667,62.5 238.5,62.05 239.7,61.15 C240.9,60.25 241.5,59.0333333 241.5,57.5 C241.5,56.1666667 240.716667,55.1666667 239.15,54.5 C237.583333,53.8333333 235.633333,53.2333333 233.3,52.7 C230.966667,52.1666667 228.45,51.6 225.75,51 C223.05,50.4 220.533333,49.5 218.2,48.3 C215.866667,47.1 213.916667,45.5 212.35,43.5 C210.783333,41.5 210,38.8333333 210,35.5 C210,33.5 210.466667,31.5666667 211.4,29.7 C212.333333,27.8333333 213.7,26.1833333 215.5,24.75 C217.3,23.3166667 219.533333,22.1666667 222.2,21.3 C224.866667,20.4333333 227.966667,20 231.5,20 C234.166667,20 236.566667,20.2333333 238.7,20.7 C240.833333,21.1666667 242.716667,21.8 244.35,22.6 C245.983333,23.4 247.4,24.3 248.6,25.3 C249.8,26.3 250.8,27.3 251.6,28.3 C253.533333,30.7 254.833333,33.4333333 255.5,36.5 L241.5,36.5 C241.1,35.5666667 240.5,34.7333333 239.7,34 C238.966667,33.4 237.95,32.8333333 236.65,32.3 C235.35,31.7666667 233.633333,31.5 231.5,31.5 C228.966667,31.5 227.166667,31.9166667 226.1,32.75 C225.033333,33.5833333 224.5,34.5 224.5,35.5 C224.5,36.8333333 225.283333,37.8333333 226.85,38.5 C228.416667,39.1666667 230.366667,39.7666667 232.7,40.3 C235.033333,40.8333333 237.55,41.4 240.25,42 C242.95,42.6 245.466667,43.5 247.8,44.7 C250.133333,45.9 252.083333,47.5 253.65,49.5 C255.216667,51.5 256,54.1666667 256,57.5 C256,59.6333333 255.5,61.6833333 254.5,63.65 C253.5,65.6166667 252.033333,67.3666667 250.1,68.9 C248.166667,70.4333333 245.766667,71.6666667 242.9,72.6 C240.033333,73.5333333 236.733333,74 233,74 Z" id="Path"></path>
                    <path d="M288.5,74 C284.633333,74 281.016667,73.3 277.65,71.9 C274.283333,70.5 271.366667,68.5833333 268.9,66.15 C266.433333,63.7166667 264.5,60.85 263.1,57.55 C261.7,54.25 261,50.7333333 261,47 C261,43.2666667 261.7,39.75 263.1,36.45 C264.5,33.15 266.433333,30.2833333 268.9,27.85 C271.366667,25.4166667 274.283333,23.5 277.65,22.1 C281.016667,20.7 284.633333,20 288.5,20 C291.233333,20 293.7,20.2833333 295.9,20.85 C298.1,21.4166667 300.066667,22.1666667 301.8,23.1 C303.533333,24.0333333 305.05,25.1 306.35,26.3 C307.65,27.5 308.766667,28.7333333 309.7,30 C311.9,32.9333333 313.5,36.2666667 314.5,40 L300,40 C299.4,38.5333333 298.6,37.2 297.6,36 C296.666667,35 295.483333,34.0833333 294.05,33.25 C292.616667,32.4166667 290.766667,32 288.5,32 C286.766667,32 285.116667,32.3666667 283.55,33.1 C281.983333,33.8333333 280.6,34.85 279.4,36.15 C278.2,37.45 277.25,39.0166667 276.55,40.85 C275.85,42.6833333 275.5,44.7333333 275.5,47 C275.5,49.2666667 275.85,51.3166667 276.55,53.15 C277.25,54.9833333 278.2,56.55 279.4,57.85 C280.6,59.15 281.983333,60.1666667 283.55,60.9 C285.116667,61.6333333 286.766667,62 288.5,62 C290.766667,62 292.616667,61.5833333 294.05,60.75 C295.483333,59.9166667 296.666667,59 297.6,58 C298.6,56.8 299.4,55.4666667 300,54 L314.5,54 C313.633333,57.7333333 312.1,61.0666667 309.9,64 C308.966667,65.2666667 307.85,66.5 306.55,67.7 C305.25,68.9 303.733333,69.9666667 302,70.9 C300.266667,71.8333333 298.283333,72.5833333 296.05,73.15 C293.816667,73.7166667 291.3,74 288.5,74 Z" id="Path"></path>
                    <path d="M322.5,2.5 L336.5,2.5 L336.5,28.5 L337,28.5 C337.933333,26.9 339.166667,25.5 340.7,24.3 C342.033333,23.2333333 343.683333,22.25 345.65,21.35 C347.616667,20.45 350.066667,20 353,20 C359.266667,20 364.166667,21.8166667 367.7,25.45 C371.233333,29.0833333 373,34.4333333 373,41.5 L373,72.5 L359,72.5 L359,43.5 C359,39.7 358.066667,36.8333333 356.2,34.9 C354.333333,32.9666667 351.766667,32 348.5,32 C346.9,32 345.366667,32.3333333 343.9,33 C342.433333,33.6666667 341.15,34.5833333 340.05,35.75 C338.95,36.9166667 338.083333,38.3333333 337.45,40 C336.816667,41.6666667 336.5,43.5 336.5,45.5 L336.5,72.5 L322.5,72.5 L322.5,2.5 Z" id="Path"></path>
                    <path d="M383.5,21.5 L397.5,21.5 L397.5,29 L398,29 C398.6,27.4 399.5,26 400.7,24.8 C401.7,23.7333333 403.033333,22.75 404.7,21.85 C406.366667,20.95 408.466667,20.5 411,20.5 L417,20.5 L417,34 L409.5,34 C405.7,34 402.75,35.0333333 400.65,37.1 C398.55,39.1666667 397.5,41.9666667 397.5,45.5 L397.5,72.5 L383.5,72.5 L383.5,21.5 Z" id="Path"></path>
                    <path d="M424,21.5 L438,21.5 L438,72.5 L424,72.5 L424,21.5 Z M431,15 C428.733333,15 426.833333,14.25 425.3,12.75 C423.766667,11.25 423,9.5 423,7.5 C423,5.5 423.766667,3.75 425.3,2.25 C426.833333,0.75 428.733333,0 431,0 C433.266667,0 435.166667,0.75 436.7,2.25 C438.233333,3.75 439,5.5 439,7.5 C439,9.5 438.233333,11.25 436.7,12.75 C435.166667,14.25 433.266667,15 431,15 Z" id="Shape"></path>
                    <path d="M451.5,34.5 L445,34.5 L445,22.5 L451.5,22.5 L451.5,2.5 L498,2.5 L498,22.5 L512.4,22.5 L512.4,34.5 L498,34.5 L498,60.5 L513,60.5 L513,72.5 L484,72.5 L484,34.5 L465.5,34.5 L465.5,72.5 L451.5,72.5 L451.5,34.5 Z M484,22.5 L484,14.5 L465.5,14.5 L465.5,22.5 L484,22.5 Z" id="Shape"></path>
                </g>
                <path d="M455.83,0.000159024385 C464.545674,2.89374734 473.636536,6.16093846 483.1,9.80073239 C482.033333,31.6673991 478.3,52.4673991 471.9,72.2007324 C465.5,91.9340657 458.566667,108.734066 451.1,122.600732 L448.742798,121.780431 C428.427846,114.75199 411.080247,109.825424 396.7,107.000732 C381.766667,104.067399 365.766667,102.600732 348.7,102.600732 C320.966667,102.600732 299.366667,109.134066 283.9,122.200732 C268.433333,135.267399 256.966667,154.600732 249.5,180.200732 L395.1,180.200732 C397.766667,189.267399 399.1,201.267399 399.1,216.200732 L399.094711,217.873195 C399.001267,232.515796 397.669697,243.691641 395.1,251.400732 L239.1,251.400732 L239.1,293.400732 C239.1,298.467399 239.366667,303.134066 239.9,307.400732 L395.1,307.400732 C397.766667,316.467399 399.1,328.467399 399.1,343.400732 L399.094711,345.073195 C399.001267,359.715796 397.669697,370.891641 395.1,378.600732 L251.1,378.600732 C258.566667,401.534066 270.433333,418.467399 286.7,429.400732 C295.136487,435.071158 305.258606,439.271139 317.066356,442.000675 L124.057357,442.00135 C115.346767,422.512939 108.627648,401.3794 103.9,378.600732 L34.3,378.600732 C31.6818182,370.746187 30.3489256,359.292832 30.3,344.240666 L30.3,343.400732 C30.3,328.467399 31.6333333,316.467399 34.3,307.400732 L95.1,307.400732 C94.5666667,302.600732 94.3,297.800732 94.3,293.000732 L94.3,251.400732 L34.3,251.400732 C31.6818182,243.546187 30.3489256,232.092832 30.3,217.040666 L30.3,216.200732 C30.3,201.267399 31.6333333,189.267399 34.3,180.200732 L103.9,180.200732 C109.766667,150.867399 118.833333,124.067399 131.1,99.8007324 C143.366667,75.5340657 159.1,54.6007324 178.3,37.0007324 C195.092893,21.6072468 214.537708,9.27367076 236.634445,-1.87315441e-14 L455.83,0.000159024385 Z M458.3,426.600732 C460.742366,431.772802 463.039603,436.90617 465.191709,442.000837 L399.134683,442.002286 C401.659271,441.571708 404.181044,441.104524 406.7,440.600732 C424.033333,437.134066 441.233333,432.467399 458.3,426.600732 Z" id="Combined-Shape" fill-opacity="0.5" fill="#FF6600"></path>
            </g>
        </g>
    </g>
</svg>