<?xml version="1.0" encoding="UTF-8"?>
<svg width="980px" height="680px" viewBox="0 0 980 680" version="1.1" xmlns="http://www.w3.org/2000/svg" xmlns:xlink="http://www.w3.org/1999/xlink">
    <title>DE paydirect</title>
    <defs>
        <linearGradient x1="50%" y1="0%" x2="50%" y2="100%" id="linearGradient-1">
            <stop stop-color="#FFFFFF" offset="0%"></stop>
            <stop stop-color="#EDEDED" offset="100%"></stop>
        </linearGradient>
        <rect id="path-2" x="2.84217094e-14" y="0" width="900" height="600" rx="80"></rect>
        <filter x="-6.7%" y="-10.0%" width="113.3%" height="120.0%" filterUnits="objectBoundingBox" id="filter-3">
            <feMorphology radius="2.5" operator="dilate" in="SourceAlpha" result="shadowSpreadOuter1"></feMorphology>
            <feOffset dx="0" dy="0" in="shadowSpreadOuter1" result="shadowOffsetOuter1"></feOffset>
            <feGaussianBlur stdDeviation="17.5" in="shadowOffsetOuter1" result="shadowBlurOuter1"></feGaussianBlur>
            <feColorMatrix values="0 0 0 0 0   0 0 0 0 0   0 0 0 0 0  0 0 0 0.5 0" type="matrix" in="shadowBlurOuter1"></feColorMatrix>
        </filter>
    </defs>
    <g id="DE-paydirect" stroke="none" stroke-width="1" fill="none" fill-rule="evenodd">
        <g transform="translate(40, 40)">
            <g id="Rectangle">
                <use fill="black" fill-opacity="1" filter="url(#filter-3)" xlink:href="#path-2"></use>
                <use fill="url(#linearGradient-1)" fill-rule="evenodd" xlink:href="#path-2"></use>
            </g>
            <g id="Logo" transform="translate(50, 163)" fill-rule="nonzero">
                <path d="M62.1769927,38.2735297 C53.2819386,38.2735297 45.6512933,40.151729 39.2826015,43.9817827 C35.5212924,46.2282565 31.8410037,49.7636906 28.2957489,54.5389818 L28.2957489,41.8335154 L0,41.8335154 L0,185.460527 L28.2957489,185.460527 L28.2957489,133.41108 C36.8323492,143.251372 48.3323308,148.203435 62.7294043,148.203435 C74.6688599,148.203435 84.982998,144.992082 93.6644529,138.628301 C101.795951,132.694173 107.491929,124.980052 110.789212,115.488393 C112.750887,121.091074 115.559593,126.15853 119.259523,130.710401 C128.810105,142.355237 141.434552,148.203435 157.130406,148.203435 C171.601134,148.203435 183.520949,142.31841 192.853022,130.526264 L192.853022,144.58207 L221.148771,144.58207 L221.148771,47.9714219 L254.968635,142.188286 L245.025227,170.668172 C255.179779,168.505174 265.45218,172.143725 272.093394,179.568137 L323.897325,41.8335154 L293.821583,41.8335154 L269.822369,102.905685 L249.014866,41.8335154 L221.148771,41.8335154 L218.939124,41.8335154 L192.853022,41.8335154 L192.853022,54.8458772 C188.728349,49.9993862 184.719068,46.4197591 180.884104,44.1045408 C174.515412,40.272032 167.260407,38.3349087 159.155915,38.3349087 C149.386823,38.3349087 140.631713,40.7409681 132.824296,45.5162593 C125.080713,50.146696 119.097482,56.4098157 114.901609,64.2982532 C113.369588,67.1388763 112.097814,70.0801611 111.034728,73.0754594 C107.418274,62.2653785 100.664121,53.4832619 90.7182578,46.8052197 C82.2528572,41.0896012 72.7391021,38.2735297 62.1769927,38.2735297 Z M56.5301187,62.0272278 C64.4111906,62.0272278 70.9640196,64.9464161 76.1714195,70.804434 C81.3812745,76.6673623 83.9665607,84.4846 83.9665607,94.2512368 C83.9665607,101.7714 82.0809958,108.275126 78.3196867,113.769779 C73.0361768,121.508452 65.5160138,125.370423 55.6708118,125.370423 C47.716085,125.370423 41.1681664,122.642737 36.0295111,117.145628 C30.8933109,111.646064 28.2957489,104.118535 28.2957489,94.496753 C28.2957489,86.3922613 30.1371208,79.5595438 33.8198647,74.0575245 C39.2457741,66.0291428 46.8346816,62.0272278 56.5301187,62.0272278 Z M165.048305,62.2112667 C174.235524,62.2112667 181.436516,65.6632253 186.715115,72.4615706 C191.055843,78.1059894 193.282675,84.970624 193.282675,93.1463154 C193.282675,101.322007 190.827513,108.532819 185.978566,114.751746 C180.410258,121.842256 173.339389,125.370324 164.802789,125.370324 C157.709824,125.370324 151.638207,122.831686 146.573207,117.697941 C140.570334,111.692614 137.611863,103.772259 137.611863,94.0056223 C137.611863,85.832386 139.765041,78.6731319 144.179423,72.5229496 C149.170769,65.6484944 156.145886,62.2112667 165.048305,62.2112667 Z M248.155559,180.918378 C246.010729,180.932127 243.798726,181.215453 241.649378,181.900443 C230.173948,185.55618 223.878911,197.85409 227.532193,209.336885 C231.185475,220.812315 243.431826,227.107352 254.907256,223.45407 C266.382686,219.798333 272.739102,207.554437 269.08582,196.079007 C266.119532,186.755223 257.449823,180.857785 248.155559,180.918378 Z M63.1590577,205.163109 C61.4499306,205.174894 59.7166055,205.415067 58.0032163,205.961037 C48.8552804,208.872859 43.8025558,218.661593 46.7094683,227.811984 C49.6237463,236.959919 59.3535557,242.022465 68.4990363,239.105732 C77.6396067,236.196364 82.702152,226.400265 79.7927843,217.254784 C77.4229435,209.824088 70.5653012,205.113966 63.1590577,205.163109 Z M189.538552,213.387903 C186.574719,213.407545 183.549193,213.853618 180.577209,214.799622 C164.721769,219.849891 156.015762,236.824886 161.058666,252.670505 C166.111391,268.53331 183.01273,277.241772 198.86817,272.189048 C214.716245,267.143688 223.498361,250.239894 218.448092,234.379544 C214.352723,221.500978 202.381842,213.303073 189.538552,213.387903 Z M117.049877,225.909233 C114.920406,225.922982 112.741989,226.272754 110.605075,226.952677 C99.2204859,230.578952 92.9229938,242.751648 96.549269,254.143602 C100.170634,265.530647 112.358061,271.820773 123.740195,268.199408 C135.134604,264.568223 141.424731,252.395527 137.796001,241.008483 C134.847665,231.75252 126.277576,225.847363 117.049877,225.909233 Z" id="path4340" fill="#0D933A"></path>
                <path d="M486.662329,38.7694725 L458.337118,38.7694725 L458.337118,17.1394901 L486.662329,17.1394901 L486.662329,38.7694725 L486.662329,38.7694725 Z M417.888315,0 L417.888315,53.2303802 C412.825769,47.8732154 407.831969,44.1536441 402.911823,42.0520249 C396.837751,39.5207523 390.508341,38.2538884 383.92114,38.2538884 C370.756558,38.2538884 359.109267,42.9555247 348.984176,52.3612526 C337.982593,62.5624532 332.490394,76.4930458 332.490394,94.1407545 C332.490394,109.625465 336.718184,122.173801 345.18113,131.798038 C354.729257,142.721057 367.464185,148.181338 383.378549,148.181338 C391.775205,148.181338 399.192252,146.411166 405.627233,142.865911 C409.751906,140.621893 413.837296,136.718184 417.888315,131.149875 L417.888315,144.604166 L446.213525,144.604166 L446.213525,0 L417.888315,0 Z M411.161169,114.977719 C405.880114,121.923374 398.936915,125.394974 390.324204,125.394974 C382.804041,125.394974 376.361695,122.647647 371.00944,117.150538 C365.367476,111.432465 362.544039,103.799364 362.544039,94.2512368 C362.544039,86.7261634 364.392777,80.1095003 368.082886,74.3865162 C373.432686,66.1445354 380.918476,62.0174071 390.542714,62.0174071 C398.499896,62.0174071 405.047814,65.0568984 410.18647,71.135881 C415.32758,77.1412087 417.888315,84.771854 417.888315,94.0327273 C417.888315,102.134764 415.649206,109.117246 411.161169,114.977719 M486.662329,144.604166 L458.337118,144.604166 L458.337118,41.8335154 L486.662329,41.8335154 L486.662329,144.604166 L486.662329,144.604166 Z M772.976025,65.0568984 L772.976025,114.324646 C772.976025,116.929574 773.587361,118.665374 774.814942,119.534501 C776.192288,120.474828 778.249715,120.94622 781.004407,120.94622 L800,120.94622 L800,144.604166 L763.317416,144.604166 C756.730214,144.604166 751.851806,142.976394 748.665005,139.723303 C745.988878,136.894956 744.650815,131.982176 744.650815,124.962866 L744.650815,4.90787002 L772.976025,4.90787002 L772.976025,41.2909245 L800,41.2909245 L800,65.0568984 L772.976025,65.0568984 Z M741.94277,41.8335154 L709.276832,41.8335154 L680.519512,81.2265992 L680.519512,5.29087539 L652.196757,5.29087539 L652.196757,75.7196695 C650.146696,69.007255 646.908337,62.9552792 642.462037,57.5686525 C631.828728,44.6913247 617.392372,38.2538884 599.160334,38.2538884 C588.450915,38.2538884 578.900333,40.6403064 570.511042,45.4131425 C566.536134,47.6792576 563.017886,50.404488 559.934202,53.5642823 L559.934202,41.5020685 L527.680731,41.5020685 C521.675403,42.0471146 516.310873,43.5349431 511.540492,45.9704644 C507.558218,47.9959735 503.863198,51.0109132 500.49226,55.0030076 C497.101681,59.0000123 495.417439,64.5192178 495.417439,71.5458931 L495.417439,144.439671 L523.762291,144.439671 L523.762291,75.0003069 C524.216496,73.3774444 525.056162,71.8945262 526.293564,70.5343661 C527.364015,69.4565498 528.864119,68.4376573 530.786511,67.4924197 C532.708904,66.5447269 535.203349,66.0733357 538.274757,66.0733357 L551.134899,66.0733357 C546.983219,74.3644198 544.901241,83.3601355 544.901241,93.0580278 C544.901241,108.395428 549.529223,120.94622 558.790096,130.715312 C569.789224,142.360148 583.820479,148.181338 600.896134,148.181338 C613.628608,148.181338 625.099127,144.208885 635.297873,136.246793 C641.595365,131.329102 646.763482,124.849928 650.8145,116.819091 L624.98619,109.659837 C623.17919,113.062693 620.719117,115.807564 617.605971,117.906728 C612.614625,121.304673 607.149433,123.006101 601.222671,123.006101 C592.683615,123.006101 585.742871,119.897865 580.385706,113.674028 C577.275015,110.131228 575.249506,105.535164 574.309179,99.8932004 L652.196757,99.8932004 L652.196757,144.604166 L680.519512,144.604166 L680.519512,101.953082 L709.168805,144.604166 L741.94277,144.604166 L706.887959,91.1037183 L741.94277,41.8335154 L741.94277,41.8335154 Z M574.201151,83.7234996 C575.283878,78.3000454 577.20136,73.9568628 579.953597,70.698862 C584.873743,64.9881538 591.382379,62.1278894 599.489326,62.1278894 C607.952272,62.1278894 614.750617,64.9881538 619.889272,70.698862 C622.855109,73.9568628 624.806963,78.3000454 625.749745,83.7234996 L574.201151,83.7234996 Z" id="path4350" fill="#004D86"></path>
            </g>
        </g>
    </g>
</svg>