<?xml version="1.0" encoding="UTF-8"?>
<svg width="980px" height="680px" viewBox="0 0 980 680" version="1.1" xmlns="http://www.w3.org/2000/svg" xmlns:xlink="http://www.w3.org/1999/xlink">
    <title>DE payback alt</title>
    <defs>
        <linearGradient x1="50%" y1="0%" x2="50%" y2="100%" id="linearGradient-1">
            <stop stop-color="#FFFFFF" offset="0%"></stop>
            <stop stop-color="#EDEDED" offset="100%"></stop>
        </linearGradient>
        <rect id="path-2" x="5.68434189e-14" y="-2.84217094e-14" width="900" height="600" rx="80"></rect>
        <filter x="-6.7%" y="-10.0%" width="113.3%" height="120.0%" filterUnits="objectBoundingBox" id="filter-4">
            <feMorphology radius="2.5" operator="dilate" in="SourceAlpha" result="shadowSpreadOuter1"></feMorphology>
            <feOffset dx="0" dy="0" in="shadowSpreadOuter1" result="shadowOffsetOuter1"></feOffset>
            <feGaussianBlur stdDeviation="17.5" in="shadowOffsetOuter1" result="shadowBlurOuter1"></feGaussianBlur>
            <feColorMatrix values="0 0 0 0 0   0 0 0 0 0   0 0 0 0 0  0 0 0 0.5 0" type="matrix" in="shadowBlurOuter1"></feColorMatrix>
        </filter>
    </defs>
    <g id="DE-payback-alt" stroke="none" stroke-width="1" fill="none" fill-rule="evenodd">
        <g transform="translate(40, 40)">
            <mask id="mask-3" fill="white">
                <use xlink:href="#path-2"></use>
            </mask>
            <g id="Rectangle">
                <use fill="black" fill-opacity="1" filter="url(#filter-4)" xlink:href="#path-2"></use>
                <use fill="url(#linearGradient-1)" fill-rule="evenodd" xlink:href="#path-2"></use>
            </g>
            <g id="Logo" mask="url(#mask-3)" fill="#0046AA">
                <g transform="translate(98.1725, 206.4103)">
                    <path d="M524.08968,50.6495466 C536.584248,50.6495466 546.715176,40.605892 546.715176,28.2204149 C546.715176,15.8276651 536.584248,5.79128326 524.08968,5.79128326 C511.595112,5.79128326 501.464184,15.8276651 501.464184,28.2204149 C501.464184,40.605892 511.595112,50.6495466 524.08968,50.6495466 M524.08968,56.4386481 C539.813345,56.4386481 552.555186,43.8058978 552.555186,28.2204149 C552.555186,12.6349321 539.813345,0.00218182215 524.08968,0.00218182215 C508.366015,0.00218182215 495.624174,12.6349321 495.624174,28.2204149 C495.624174,43.8058978 508.366015,56.4386481 524.08968,56.4386481" id="Fill-4"></path>
                    <path d="M594.892718,50.6495466 C607.387286,50.6495466 617.518214,40.605892 617.518214,28.2204149 C617.518214,15.8276651 607.387286,5.79128326 594.892718,5.79128326 C582.39815,5.79128326 572.267222,15.8276651 572.267222,28.2204149 C572.267222,40.605892 582.39815,50.6495466 594.892718,50.6495466 M594.892718,56.4386481 C610.616383,56.4386481 623.358224,43.8058978 623.358224,28.2204149 C623.358224,12.6349321 610.616383,0.00218182215 594.892718,0.00218182215 C579.169053,0.00218182215 566.427212,12.6349321 566.427212,28.2204149 C566.427212,43.8058978 579.169053,56.4386481 594.892718,56.4386481" id="Fill-6"></path>
                    <path d="M665.695756,-5.68434189e-14 C681.419421,-5.68434189e-14 694.161262,12.6327502 694.161262,28.2182331 C694.161262,43.803716 681.419421,56.4364662 665.695756,56.4364662 C649.972091,56.4364662 637.23025,43.803716 637.23025,28.2182331 C637.23025,12.6327502 649.972091,-5.68434189e-14 665.695756,-5.68434189e-14" id="Fill-8"></path>
                    <path d="M524.08968,120.835129 C536.584248,120.835129 546.715176,110.791474 546.715176,98.4059971 C546.715176,86.0132473 536.584248,75.9768654 524.08968,75.9768654 C511.595112,75.9768654 501.464184,86.0132473 501.464184,98.4059971 C501.464184,110.791474 511.595112,120.835129 524.08968,120.835129 M524.08968,126.62423 C539.813345,126.62423 552.555186,113.99148 552.555186,98.4059971 C552.555186,82.8205142 539.813345,70.187764 524.08968,70.187764 C508.366015,70.187764 495.624174,82.8205142 495.624174,98.4059971 C495.624174,113.99148 508.366015,126.62423 524.08968,126.62423" id="Fill-10"></path>
                    <path d="M594.892718,70.1855822 C610.616383,70.1855822 623.358224,82.8183324 623.358224,98.4038153 C623.358224,113.989298 610.616383,126.622048 594.892718,126.622048 C579.169053,126.622048 566.427212,113.989298 566.427212,98.4038153 C566.427212,82.8183324 579.169053,70.1855822 594.892718,70.1855822" id="Fill-12"></path>
                    <path d="M665.695756,70.1855822 C681.419421,70.1855822 694.161262,82.8183324 694.161262,98.4038153 C694.161262,113.989298 681.419421,126.622048 665.695756,126.622048 C649.972091,126.622048 637.23025,113.989298 637.23025,98.4038153 C637.23025,82.8183324 649.972091,70.1855822 665.695756,70.1855822" id="Fill-14"></path>
                    <path d="M524.08968,191.020711 C536.584248,191.020711 546.715176,180.977056 546.715176,168.591579 C546.715176,156.198829 536.584248,146.162448 524.08968,146.162448 C511.595112,146.162448 501.464184,156.198829 501.464184,168.591579 C501.464184,180.977056 511.595112,191.020711 524.08968,191.020711 M524.08968,196.809812 C539.813345,196.809812 552.555186,184.177062 552.555186,168.591579 C552.555186,153.006096 539.813345,140.373346 524.08968,140.373346 C508.366015,140.373346 495.624174,153.006096 495.624174,168.591579 C495.624174,184.177062 508.366015,196.809812 524.08968,196.809812" id="Fill-16"></path>
                    <path d="M594.892718,191.020711 C607.387286,191.020711 617.518214,180.977056 617.518214,168.591579 C617.518214,156.198829 607.387286,146.162448 594.892718,146.162448 C582.39815,146.162448 572.267222,156.198829 572.267222,168.591579 C572.267222,180.977056 582.39815,191.020711 594.892718,191.020711 M594.892718,196.809812 C610.616383,196.809812 623.358224,184.177062 623.358224,168.591579 C623.358224,153.006096 610.616383,140.373346 594.892718,140.373346 C579.169053,140.373346 566.427212,153.006096 566.427212,168.591579 C566.427212,184.177062 579.169053,196.809812 594.892718,196.809812" id="Fill-18"></path>
                    <path d="M665.695756,140.371164 C681.419421,140.371164 694.161262,153.003915 694.161262,168.589397 C694.161262,184.17488 681.419421,196.807631 665.695756,196.807631 C649.972091,196.807631 637.23025,184.17488 637.23025,168.589397 C637.23025,153.003915 649.972091,140.371164 665.695756,140.371164" id="Fill-20"></path>
                    <path d="M19.7091267,69.4619445 C27.3673225,69.4619445 33.5782429,63.309206 33.5782429,55.7164649 C33.5782429,48.1237239 27.3673225,41.9637127 19.7091267,41.9637127 C12.050931,41.9637127 5.84001062,48.1237239 5.84001062,55.7164649 C5.84001062,63.309206 12.050931,69.4619445 19.7091267,69.4619445 M19.7091267,75.2510459 C30.5964193,75.2510459 39.4182535,66.5019391 39.4182535,55.7164649 C39.4182535,44.923718 30.5964193,36.1746112 19.7091267,36.1746112 C8.82183422,36.1746112 0,44.923718 0,55.7164649 C0,66.5019391 8.82183422,75.2510459 19.7091267,75.2510459" id="Fill-22"></path>
                    <path d="M103.736916,57.903378 C103.736916,43.3142606 94.0714438,37.8742507 79.5114173,37.8742507 L52.8059142,37.8742507 L52.8059142,98.2816332 L69.7513995,98.2816332 L69.7513995,78.6961431 L78.369597,78.6961431 C93.2787151,78.6961431 103.736916,73.2561332 103.736916,57.903378 M87.0387037,58.1433784 C87.0387037,62.9506599 84.704154,65.3943007 78.8423252,65.3943007 L69.3368533,65.3943007 L69.3368533,51.1833658 L79.1186893,51.1833658 C84.8859725,51.1833658 87.0387037,53.9906436 87.0387037,58.1433784" id="Fill-24"></path>
                    <path d="M164.799572,98.2787241 L142.26135,37.8786143 L124.864954,37.8786143 L102.341277,98.2787241 L119.35949,98.2787241 L122.734041,86.2787023 L144.217717,86.2787023 L147.592268,98.2787241 L164.799572,98.2787241 Z M141.694076,75.3186824 L125.272228,75.3186824 L127.112231,70.5623101 C130.654056,61.3622934 132.203149,57.3259224 133.475879,52.4822772 C134.748609,57.3259224 136.304975,61.2532023 139.839527,70.5623101 L141.694076,75.3186824 Z" id="Fill-26"></path>
                    <path d="M201.701458,37.8764325 L196.908722,47.02554 C193.635988,53.3237333 190.974165,59.0837438 189.825072,62.6182957 C189.795981,62.552841 189.745072,62.4437499 189.715981,62.3782952 C188.523252,58.8219251 185.919611,53.2000967 182.705059,47.02554 L177.934142,37.8764325 L158.050469,37.8764325 L181.032329,76.0219564 L181.032329,98.2765423 L198.414179,98.2765423 L198.414179,75.7746832 L221.396039,37.8764325 L201.701458,37.8764325 Z" id="Fill-28"></path>
                    <path d="M281.761967,78.7732341 C281.761967,71.9586763 278.474688,67.7404868 272.896496,65.4132098 C277.056504,63.0713874 280.329237,60.1477457 280.329237,53.5950065 C280.329237,43.4786245 274.038316,37.8786143 258.605561,37.8786143 L228.620052,37.8786143 L228.620052,98.2787241 L258.438288,98.2787241 C274.038316,98.2787241 281.761967,91.1223475 281.761967,78.7732341 M264.394663,55.8350106 C264.394663,58.9695618 262.831023,61.0495655 258.452834,61.0495655 L244.212808,61.0495655 L244.212808,50.6059102 L258.452834,50.6059102 C262.932842,50.6059102 264.394663,52.8895507 264.394663,55.8350106 M265.90012,79.1150529 C265.90012,82.9186962 263.761934,85.6823376 259.056471,85.6823376 L244.118262,85.6823376 L244.118262,72.751405 L259.165562,72.751405 C263.660116,72.751405 265.90012,75.2314095 265.90012,79.1150529" id="Fill-30"></path>
                    <path d="M348.386815,98.2896333 L325.848592,37.874978 L308.452197,37.874978 L285.913974,98.2896333 L302.961278,98.2896333 L306.314011,86.2823387 L327.812232,86.2823387 L331.186784,98.2896333 L348.386815,98.2896333 Z M325.274046,75.3223188 L308.859471,75.3223188 L310.692201,70.5732192 C314.21948,61.3659298 315.797665,57.3295588 317.063122,52.4859136 C318.328579,57.3295588 319.906763,61.2568386 323.42677,70.5732192 L325.274046,75.3223188 Z" id="Fill-32"></path>
                    <path d="M405.868374,83.6074247 L391.301075,76.0946838 C387.926524,81.7892396 385.621065,84.6546994 380.210146,84.6546994 C372.748314,84.6546994 369.7374,77.3019587 369.7374,68.0801238 C369.7374,58.4801063 372.850132,51.4982755 380.050146,51.4982755 C385.722883,51.4982755 387.853796,55.0473728 390.071982,60.6401103 L405.686556,54.6982813 C401.417457,43.3018969 395.388355,36.909158 380.122873,36.909158 C363.424661,36.909158 351.715549,48.6546339 351.715549,68.0801238 C351.715549,85.927429 361.562839,99.2147258 380.050146,99.2147258 C394.791991,99.2147258 401.701094,91.5492574 405.868374,83.6074247" id="Fill-34"></path>
                    <path d="M472.000858,98.2787241 L451.149911,59.2022895 L469.869945,37.8786143 L450.597183,37.8786143 L445.142628,44.0022618 C440.895347,48.7659068 435.208064,55.4495554 432.284422,59.4495626 C432.197149,59.5659265 432.06624,59.7331995 431.98624,59.8422906 C432.160786,55.4495554 432.262604,50.0313637 432.262604,44.9695363 L432.262604,37.8786143 L414.68439,37.8786143 L414.68439,98.2787241 L432.262604,98.2787241 L432.262604,80.0677819 L438.851707,73.0277691 L439.266253,72.5768592 L453.528097,98.2787241 L472.000858,98.2787241 Z" id="Fill-36"></path>
                </g>
            </g>
        </g>
    </g>
</svg>