<?xml version="1.0" encoding="UTF-8"?>
<svg width="980px" height="680px" viewBox="0 0 980 680" version="1.1" xmlns="http://www.w3.org/2000/svg" xmlns:xlink="http://www.w3.org/1999/xlink">
    <title>DE Post Nachnahme</title>
    <defs>
        <rect id="path-1" x="0" y="0" width="900" height="600" rx="80"></rect>
        <filter x="-6.7%" y="-10.0%" width="113.3%" height="120.0%" filterUnits="objectBoundingBox" id="filter-2">
            <feMorphology radius="2.5" operator="dilate" in="SourceAlpha" result="shadowSpreadOuter1"></feMorphology>
            <feOffset dx="0" dy="0" in="shadowSpreadOuter1" result="shadowOffsetOuter1"></feOffset>
            <feGaussianBlur stdDeviation="17.5" in="shadowOffsetOuter1" result="shadowBlurOuter1"></feGaussianBlur>
            <feColorMatrix values="0 0 0 0 0   0 0 0 0 0   0 0 0 0 0  0 0 0 0.5 0" type="matrix" in="shadowBlurOuter1"></feColorMatrix>
        </filter>
    </defs>
    <g id="DE-Post-Nachnahme" stroke="none" stroke-width="1" fill="none" fill-rule="evenodd">
        <g transform="translate(40, 40)">
            <g id="Rectangle">
                <use fill="black" fill-opacity="1" filter="url(#filter-2)" xlink:href="#path-1"></use>
                <use fill="#FECC00" fill-rule="evenodd" xlink:href="#path-1"></use>
            </g>
            <path d="M895,345 L895,520 C895,540.710678 886.605339,559.460678 873.033009,573.033009 C859.460678,586.605339 840.710678,595 820,595 L80,595 C59.2893219,595 40.5393219,586.605339 26.9669914,573.033009 C13.3946609,559.460678 5,540.710678 5,520 L5,345 L895,345 Z" id="Path" stroke="#333333" stroke-width="10" fill="#FF6600"></path>
            <g id="NACHNAHME" transform="translate(164.6, 415.3)" fill="#333333" fill-rule="nonzero">
                <polygon id="Path" points="5.68434189e-14 107.7 5.68434189e-14 0.9 14.7 0.9 37.8 65.25 38.1 65.25 38.1 0.9 53.4 0.9 53.4 107.7 39 107.7 15.6 43.5 15.3 43.5 15.3 107.7"></polygon>
                <path d="M98.1,70.35 L90.6,31.65 L90.3,31.65 L82.8,70.35 L98.1,70.35 Z M60.3,107.7 L84.15,0.9 L96.9,0.9 L120.75,107.7 L105.45,107.7 L100.95,84.75 L80.1,84.75 L75.6,107.7 L60.3,107.7 Z" id="Shape"></path>
                <path d="M176.85,77.25 L176.85,83.85 C176.85,87.15 176.225,90.275 174.975,93.225 C173.725,96.175 172,98.8 169.8,101.1 C167.6,103.4 165.025,105.225 162.075,106.575 C159.125,107.925 155.95,108.6 152.55,108.6 C149.65,108.6 146.7,108.2 143.7,107.4 C140.7,106.6 138,105.2 135.6,103.2 C133.2,101.2 131.225,98.625 129.675,95.475 C128.125,92.325 127.35,88.3 127.35,83.4 L127.35,24.6 C127.35,21.1 127.95,17.85 129.15,14.85 C130.35,11.85 132.05,9.25 134.25,7.05 C136.45,4.85 139.075,3.125 142.125,1.875 C145.175,0.625 148.55,0 152.25,0 C159.45,0 165.3,2.35 169.8,7.05 C172,9.35 173.725,12.075 174.975,15.225 C176.225,18.375 176.85,21.8 176.85,25.5 L176.85,31.5 L161.55,31.5 L161.55,26.4 C161.55,23.4 160.7,20.8 159,18.6 C157.3,16.4 155,15.3 152.1,15.3 C148.3,15.3 145.775,16.475 144.525,18.825 C143.275,21.175 142.65,24.15 142.65,27.75 L142.65,82.35 C142.65,85.45 143.325,88.05 144.675,90.15 C146.025,92.25 148.45,93.3 151.95,93.3 C152.95,93.3 154.025,93.125 155.175,92.775 C156.325,92.425 157.4,91.85 158.4,91.05 C159.3,90.25 160.05,89.15 160.65,87.75 C161.25,86.35 161.55,84.6 161.55,82.5 L161.55,77.25 L176.85,77.25 Z" id="Path"></path>
                <polygon id="Path" points="189.3 107.7 189.3 0.9 204.6 0.9 204.6 46.65 223.5 46.65 223.5 0.9 238.8 0.9 238.8 107.7 223.5 107.7 223.5 60.15 204.6 60.15 204.6 107.7"></polygon>
                <polygon id="Path" points="252.6 107.7 252.6 0.9 267.3 0.9 290.4 65.25 290.7 65.25 290.7 0.9 306 0.9 306 107.7 291.6 107.7 268.2 43.5 267.9 43.5 267.9 107.7"></polygon>
                <path d="M350.7,70.35 L343.2,31.65 L342.9,31.65 L335.4,70.35 L350.7,70.35 Z M312.9,107.7 L336.75,0.9 L349.5,0.9 L373.35,107.7 L358.05,107.7 L353.55,84.75 L332.7,84.75 L328.2,107.7 L312.9,107.7 Z" id="Shape"></path>
                <polygon id="Path" points="380.85 107.7 380.85 0.9 396.15 0.9 396.15 46.65 415.05 46.65 415.05 0.9 430.35 0.9 430.35 107.7 415.05 107.7 415.05 60.15 396.15 60.15 396.15 107.7"></polygon>
                <polygon id="Path" points="444.75 107.7 444.75 0.9 459.45 0.9 479.1 57.45 479.4 57.45 498.9 0.9 513.75 0.9 513.75 107.7 498.45 107.7 498.45 42.75 498.15 42.75 483 88.65 475.35 88.65 460.35 42.75 460.05 42.75 460.05 107.7"></polygon>
                <polygon id="Path" points="528.15 107.7 528.15 0.9 573.75 0.9 573.75 15.3 543.45 15.3 543.45 46.65 569.85 46.65 569.85 61.05 543.45 61.05 543.45 92.4 573.75 92.4 573.75 107.7"></polygon>
            </g>
            <g id="Logo" transform="translate(292, 50)" fill="#000000" fill-rule="nonzero">
                <path d="M103.647228,207.122371 L145.619206,207.122371 L103.23316,250 L61.2778627,250 L103.647228,207.122371 Z M47.0435378,207.122371 L89.0155156,207.122371 L46.6294697,250 L4.66043554,250 L47.0435378,207.122371 Z M197.31982,207.122371 L155.364523,207.122371 L197.733888,250 L239.705866,250 L197.31982,207.122371 Z M253.938229,207.122371 L211.969194,207.122371 L254.33856,250 L296.310538,250 L253.938229,207.122371 Z M228.202232,88.1082258 C235.471971,68.2800574 240.534002,38.100188 241.589778,16.9827178 L316.045492,35.4950917 C310.083697,122.887979 244.527502,199.434638 147.297065,199.40325 C37.2972395,199.35418 -5.21636287,103.731935 0.505037045,31.2621781 L32.8101941,20.9899545 C27.5558472,62.2250482 40.3183663,91.9555262 49.1207464,105.603091 C38.6395264,47.2587452 82.6906753,0.0314393185 137.808823,2.03836823e-05 C187.379244,-0.0313577308 228.391604,36.1672164 228.202232,88.1082258 L228.202232,88.1082258 Z M78.3714157,89.9470018 L78.3714157,89.9470018 C78.3714157,122.858543 105.053293,149.54042 137.964834,149.54042 C170.864601,149.54042 197.541572,122.858543 197.541572,89.9470018 C197.541572,57.0482165 170.862639,30.3692825 137.964834,30.3692825 C105.053293,30.3692825 78.3714157,57.0482165 78.3714157,89.9470018 Z" id="path10"></path>
            </g>
        </g>
    </g>
</svg>