<?xml version="1.0" encoding="UTF-8"?>
<svg width="980px" height="680px" viewBox="0 0 980 680" version="1.1" xmlns="http://www.w3.org/2000/svg" xmlns:xlink="http://www.w3.org/1999/xlink">
    <title>DE PAYONE alt</title>
    <defs>
        <rect id="path-1" x="2.84217094e-14" y="0" width="900" height="600" rx="80"></rect>
        <filter x="-6.7%" y="-10.0%" width="113.3%" height="120.0%" filterUnits="objectBoundingBox" id="filter-2">
            <feMorphology radius="2.5" operator="dilate" in="SourceAlpha" result="shadowSpreadOuter1"></feMorphology>
            <feOffset dx="0" dy="0" in="shadowSpreadOuter1" result="shadowOffsetOuter1"></feOffset>
            <feGaussianBlur stdDeviation="17.5" in="shadowOffsetOuter1" result="shadowBlurOuter1"></feGaussianBlur>
            <feColorMatrix values="0 0 0 0 0   0 0 0 0 0   0 0 0 0 0  0 0 0 0.5 0" type="matrix" in="shadowBlurOuter1"></feColorMatrix>
        </filter>
        <polygon id="path-3" points="0 0 800 0 800 200 0 200"></polygon>
    </defs>
    <g id="DE-PAYONE-alt" stroke="none" stroke-width="1" fill="none" fill-rule="evenodd">
        <g transform="translate(40, 40)">
            <g id="Rectangle">
                <use fill="black" fill-opacity="1" filter="url(#filter-2)" xlink:href="#path-1"></use>
                <use fill="#0096D6" fill-rule="evenodd" xlink:href="#path-1"></use>
            </g>
            <g id="Logo" transform="translate(50, 200)">
                <mask id="mask-4" fill="white">
                    <use xlink:href="#path-3"></use>
                </mask>
                <g id="Path"></g>
                <path d="M70.184,59.936 L70.184,140.208 C70.184,145.736 74.176,149.72 79.704,149.72 C85.376,149.72 89.368,145.736 89.368,140.208 L89.368,116.264 L104.872,116.264 C128.816,116.264 144.624,103.224 144.624,83.416 C144.624,63.776 128.96,50.88 105.176,50.88 L79.08,50.88 C73.872,50.88 70.184,54.568 70.184,59.936 M89.216,67.92 L106.712,67.92 C117.304,67.92 124.36,74.064 124.36,83.416 C124.36,92.936 117.304,99.232 106.712,99.232 L89.216,99.232 L89.216,67.92 Z M244.944,135.296 L214.552,62.696 C210.872,53.8 207.04,50.272 199.208,50.272 C191.384,50.272 187.544,53.8 183.856,62.696 L153.312,135.6 C149.944,143.736 153.312,149.72 160.384,149.72 C166.36,149.872 168.976,146.648 171.432,140.36 L175.824,129.568 L221.504,129.568 L225.76,140.208 C228.216,146.648 232.056,149.872 237.576,149.72 C244.792,149.72 248.48,143.736 244.944,135.296 M214.608,112.528 L182.608,112.528 L198.6,72.68 L214.608,112.528 Z M334.096,64.232 L302.64,116.568 L302.64,140.208 C302.64,145.736 298.648,149.72 293.12,149.72 C287.44,149.72 283.448,145.736 283.448,140.208 L283.448,116.568 L252.76,65.312 C248.152,57.64 252.448,50.272 260.28,50.272 C265.648,50.272 268.104,53.648 270.248,57.48 L293.432,96.624 L315.984,58.4 C319.064,53.488 321.672,50.272 327.04,50.272 C335.016,50.272 338.248,57.64 334.096,64.232 M483.552,151.184 C455.472,151.184 432.6,128.16 432.6,100.072 C432.6,71.688 455.472,48.808 483.552,48.808 C511.632,48.808 534.512,71.832 534.512,100.224 C534.512,128.312 511.632,151.184 483.552,151.184 M483.552,67.848 C466.824,67.848 453.168,82.272 453.168,100.072 C453.168,117.728 466.824,132.152 483.552,132.152 C500.44,132.152 514.096,117.728 514.096,100.224 C514.096,82.424 500.44,67.848 483.552,67.848 M643.432,59.864 L643.432,137.832 C643.432,145.192 639.288,149.808 632.848,149.808 C625.464,149.808 621.792,145.816 617.184,139.368 L576.824,83.808 L576.824,140.136 C576.824,145.656 572.832,149.64 567.304,149.64 C561.624,149.64 557.632,145.656 557.632,140.136 L557.632,62.32 C557.632,54.64 561.928,50.192 568.84,50.192 C575.44,50.192 579.12,53.88 583.424,60.48 L624.248,117.416 L624.248,59.864 C624.248,54.336 628.232,50.352 633.768,50.352 C639.44,50.352 643.432,54.336 643.432,59.864 M681.32,50.816 L728.128,50.816 C733.504,50.816 737.184,54.496 737.184,59.864 C737.184,65.24 733.504,68.768 728.128,68.768 L691.608,68.768 L691.608,90.56 L722,90.56 C727.368,90.56 731.048,94.248 731.048,99.608 C731.048,104.832 727.368,108.672 722,108.672 L691.608,108.672 L691.608,131.072 L728.128,131.072 C733.504,131.072 737.184,134.76 737.184,140.288 C737.184,145.504 733.504,149.184 728.128,149.184 L681.32,149.184 C676.112,149.184 672.424,145.352 672.424,140.136 L672.424,59.864 C672.424,54.496 676.112,50.816 681.32,50.816 M783.184,151.992 C783.184,157.176 781.688,183.04 752.008,183.176 L345.632,183.176 C354.616,175.16 361.864,164.776 367.184,152.296 L411.528,48.312 C413.76,43.096 426.368,17.064 456.264,16.816 L752.008,16.816 C757.168,16.816 782.968,18.312 783.184,48 L783.184,151.992 Z M300.784,183.176 L48,183.176 C42.832,183.176 17.024,181.672 16.816,151.984 L16.816,48 C16.816,42.84 18.32,17.072 48.056,16.816 L412.864,16.816 C404.384,24.776 397.384,35.16 392.048,47.68 L347.688,151.672 C343.968,160.384 328.288,183.048 300.784,183.176 M799.992,47.936 C799.864,30.128 789.608,0 752,0 L47.944,0 C30.136,0.144 0,10.424 0,48 L0,152.048 C0.128,169.856 10.376,199.992 48,199.992 L752.04,199.992 C769.856,199.912 800,189.704 800,151.984 L799.992,47.936 Z" id="Shape" fill="#FFFFFF" fill-rule="nonzero" mask="url(#mask-4)"></path>
            </g>
        </g>
    </g>
</svg>