<?xml version="1.0" encoding="UTF-8"?>
<svg width="980px" height="680px" viewBox="0 0 980 680" version="1.1" xmlns="http://www.w3.org/2000/svg" xmlns:xlink="http://www.w3.org/1999/xlink">
    <title>DE Vorkasse</title>
    <defs>
        <linearGradient x1="50%" y1="0%" x2="50%" y2="100%" id="linearGradient-1">
            <stop stop-color="#FFFFFF" offset="0%"></stop>
            <stop stop-color="#EDEDED" offset="100%"></stop>
        </linearGradient>
        <rect id="path-2" x="0" y="0.00154821673" width="900" height="600" rx="80"></rect>
        <filter x="-6.7%" y="-10.0%" width="113.3%" height="120.0%" filterUnits="objectBoundingBox" id="filter-3">
            <feMorphology radius="2.5" operator="dilate" in="SourceAlpha" result="shadowSpreadOuter1"></feMorphology>
            <feOffset dx="0" dy="0" in="shadowSpreadOuter1" result="shadowOffsetOuter1"></feOffset>
            <feGaussianBlur stdDeviation="17.5" in="shadowOffsetOuter1" result="shadowBlurOuter1"></feGaussianBlur>
            <feColorMatrix values="0 0 0 0 0   0 0 0 0 0   0 0 0 0 0  0 0 0 0.5 0" type="matrix" in="shadowBlurOuter1"></feColorMatrix>
        </filter>
    </defs>
    <g id="DE-Vorkasse" stroke="none" stroke-width="1" fill="none" fill-rule="evenodd">
        <g transform="translate(40, 39.9985)">
            <g id="Rectangle">
                <use fill="black" fill-opacity="1" filter="url(#filter-3)" xlink:href="#path-2"></use>
                <use fill="url(#linearGradient-1)" fill-rule="evenodd" xlink:href="#path-2"></use>
            </g>
            <path d="M900,442.001548 L900,520.001548 C900,564.184328 864.18278,600.001548 820,600.001548 L80,600.001548 C35.81722,600.001548 0,564.184328 0,520.001548 L0,442.001548 L900,442.001548 Z" id="Path" fill="#FF6600"></path>
            <g id="Rechnung-offene-Schrift" transform="translate(0, 0.0008)">
                <text id="Rechnung" font-family="Helvetica-Bold, Helvetica" font-size="100" font-weight="bold" fill="#FFFFFF">
                    <tspan x="205.566406" y="552">Rechnung</tspan>
                </text>
                <path d="M651.33,0.000159024385 C660.045674,2.89374734 669.136536,6.16093846 678.6,9.80073239 C677.533333,31.6673991 673.8,52.4673991 667.4,72.2007324 C661,91.9340657 654.066667,108.734066 646.6,122.600732 L644.242798,121.780431 C623.927846,114.75199 606.580247,109.825424 592.2,107.000732 C577.266667,104.067399 561.266667,102.600732 544.2,102.600732 C516.466667,102.600732 494.866667,109.134066 479.4,122.200732 C463.933333,135.267399 452.466667,154.600732 445,180.200732 L590.6,180.200732 C593.266667,189.267399 594.6,201.267399 594.6,216.200732 L594.594711,217.873195 C594.501267,232.515796 593.169697,243.691641 590.6,251.400732 L434.6,251.400732 L434.6,293.400732 C434.6,298.467399 434.866667,303.134066 435.4,307.400732 L590.6,307.400732 C593.266667,316.467399 594.6,328.467399 594.6,343.400732 L594.594711,345.073195 C594.501267,359.715796 593.169697,370.891641 590.6,378.600732 L446.6,378.600732 C454.066667,401.534066 465.933333,418.467399 482.2,429.400732 C490.636487,435.071158 500.758606,439.271139 512.566356,442.000675 L319.557357,442.00135 C310.846767,422.512939 304.127648,401.3794 299.4,378.600732 L229.8,378.600732 C227.181818,370.746187 225.848926,359.292832 225.8,344.240666 L225.8,343.400732 C225.8,328.467399 227.133333,316.467399 229.8,307.400732 L290.6,307.400732 C290.066667,302.600732 289.8,297.800732 289.8,293.000732 L289.8,251.400732 L229.8,251.400732 C227.181818,243.546187 225.848926,232.092832 225.8,217.040666 L225.8,216.200732 C225.8,201.267399 227.133333,189.267399 229.8,180.200732 L299.4,180.200732 C305.266667,150.867399 314.333333,124.067399 326.6,99.8007324 C338.866667,75.5340657 354.6,54.6007324 373.8,37.0007324 C390.592893,21.6072468 410.037708,9.27367076 432.134445,-1.87315441e-14 L651.33,0.000159024385 Z M653.8,426.600732 C656.242366,431.772802 658.539603,436.90617 660.691709,442.000837 L594.634683,442.002286 C597.159271,441.571708 599.681044,441.104524 602.2,440.600732 C619.533333,437.134066 636.733333,432.467399 653.8,426.600732 Z" id="Combined-Shape" fill-opacity="0.5" fill="#FF6600"></path>
            </g>
        </g>
    </g>
</svg>