<?xml version="1.0" encoding="UTF-8"?>
<svg width="980px" height="680px" viewBox="0 0 980 680" version="1.1" xmlns="http://www.w3.org/2000/svg" xmlns:xlink="http://www.w3.org/1999/xlink">
    <title>DE Vorkasse</title>
    <defs>
        <linearGradient x1="50%" y1="0%" x2="50%" y2="100%" id="linearGradient-1">
            <stop stop-color="#FFFFFF" offset="0%"></stop>
            <stop stop-color="#EDEDED" offset="100%"></stop>
        </linearGradient>
        <rect id="path-2" x="0" y="0.00154821673" width="900" height="600" rx="80"></rect>
        <filter x="-6.7%" y="-10.0%" width="113.3%" height="120.0%" filterUnits="objectBoundingBox" id="filter-3">
            <feMorphology radius="2.5" operator="dilate" in="SourceAlpha" result="shadowSpreadOuter1"></feMorphology>
            <feOffset dx="0" dy="0" in="shadowSpreadOuter1" result="shadowOffsetOuter1"></feOffset>
            <feGaussianBlur stdDeviation="17.5" in="shadowOffsetOuter1" result="shadowBlurOuter1"></feGaussianBlur>
            <feColorMatrix values="0 0 0 0 0   0 0 0 0 0   0 0 0 0 0  0 0 0 0.5 0" type="matrix" in="shadowBlurOuter1"></feColorMatrix>
        </filter>
    </defs>
    <g id="DE-Vorkasse" stroke="none" stroke-width="1" fill="none" fill-rule="evenodd">
        <g transform="translate(40, 39.9985)">
            <g id="Rectangle">
                <use fill="black" fill-opacity="1" filter="url(#filter-3)" xlink:href="#path-2"></use>
                <use fill="url(#linearGradient-1)" fill-rule="evenodd" xlink:href="#path-2"></use>
            </g>
            <path d="M900,442.001548 L900,520.001548 C900,564.184328 864.18278,600.001548 820,600.001548 L80,600.001548 C35.81722,600.001548 0,564.184328 0,520.001548 L0,442.001548 L900,442.001548 Z" id="Path" fill="#FF6600"></path>
            <g id="Rechnung" transform="translate(209.5, 0.0008)">
                <g transform="translate(0, 482)" fill="#FFFFFF" fill-rule="nonzero">
                    <path d="M0,0 L33,0 C37.2666667,0 41.1,0.616666667 44.5,1.85 C47.9,3.08333333 50.7833333,4.76666667 53.15,6.9 C55.5166667,9.03333333 57.3333333,11.5166667 58.6,14.35 C59.8666667,17.1833333 60.5,20.2333333 60.5,23.5 C60.5,26.2333333 60.0833333,28.7333333 59.25,31 C58.4166667,33.2666667 57.2833333,35.2833333 55.85,37.05 C54.4166667,38.8166667 52.7333333,40.3666667 50.8,41.7 C48.8666667,43.0333333 46.7666667,44.1333333 44.5,45 L60.5,70 L43.5,70 L29,47 L15,47 L15,70 L0,70 L0,0 Z M32.5,33 C36.7666667,33 39.9166667,32.1166667 41.95,30.35 C43.9833333,28.5833333 45,26.3 45,23.5 C45,20.7 43.9833333,18.4166667 41.95,16.65 C39.9166667,14.8833333 36.7666667,14 32.5,14 L15,14 L15,33 L32.5,33 Z" id="Shape"></path>
                    <path d="M92,71.5 C88.1333333,71.5 84.5166667,70.8 81.15,69.4 C77.7833333,68 74.8666667,66.0833333 72.4,63.65 C69.9333333,61.2166667 68,58.35 66.6,55.05 C65.2,51.75 64.5,48.2333333 64.5,44.5 C64.5,40.7666667 65.2,37.25 66.6,33.95 C68,30.65 69.9333333,27.7833333 72.4,25.35 C74.8666667,22.9166667 77.7833333,21 81.15,19.6 C84.5166667,18.2 88.1333333,17.5 92,17.5 C96,17.5 99.65,18.2 102.95,19.6 C106.25,21 109.1,22.9333333 111.5,25.4 C113.9,27.8666667 115.75,30.7333333 117.05,34 C118.35,37.2666667 119,40.7666667 119,44.5 L119,47.5 L79,47.5 C79.2666667,49.1 79.7833333,50.6333333 80.55,52.1 C81.3166667,53.5666667 82.2833333,54.85 83.45,55.95 C84.6166667,57.05 85.9333333,57.9166667 87.4,58.55 C88.8666667,59.1833333 90.4,59.5 92,59.5 C94.2666667,59.5 96.1166667,59.1833333 97.55,58.55 C98.9833333,57.9166667 100.166667,57.2333333 101.1,56.5 C102.1,55.6333333 102.9,54.6333333 103.5,53.5 L118.5,53.5 C117.433333,56.8333333 115.766667,59.8333333 113.5,62.5 C112.5,63.6333333 111.333333,64.7333333 110,65.8 C108.666667,66.8666667 107.133333,67.8333333 105.4,68.7 C103.666667,69.5666667 101.683333,70.25 99.45,70.75 C97.2166667,71.25 94.7333333,71.5 92,71.5 Z M104,39 C103.733333,37.7333333 103.266667,36.5333333 102.6,35.4 C101.933333,34.2666667 101.083333,33.2666667 100.05,32.4 C99.0166667,31.5333333 97.8166667,30.8333333 96.45,30.3 C95.0833333,29.7666667 93.6,29.5 92,29.5 C88.7333333,29.5 86.0166667,30.45 83.85,32.35 C81.6833333,34.25 80.2333333,36.4666667 79.5,39 L104,39 Z" id="Shape"></path>
                    <path d="M152,71.5 C148.133333,71.5 144.516667,70.8 141.15,69.4 C137.783333,68 134.866667,66.0833333 132.4,63.65 C129.933333,61.2166667 128,58.35 126.6,55.05 C125.2,51.75 124.5,48.2333333 124.5,44.5 C124.5,40.7666667 125.2,37.25 126.6,33.95 C128,30.65 129.933333,27.7833333 132.4,25.35 C134.866667,22.9166667 137.783333,21 141.15,19.6 C144.516667,18.2 148.133333,17.5 152,17.5 C154.733333,17.5 157.2,17.7833333 159.4,18.35 C161.6,18.9166667 163.566667,19.6666667 165.3,20.6 C167.033333,21.5333333 168.55,22.6 169.85,23.8 C171.15,25 172.266667,26.2333333 173.2,27.5 C175.4,30.4333333 177,33.7666667 178,37.5 L163.5,37.5 C162.9,36.0333333 162.1,34.7 161.1,33.5 C160.166667,32.5 158.983333,31.5833333 157.55,30.75 C156.116667,29.9166667 154.266667,29.5 152,29.5 C150.266667,29.5 148.616667,29.8666667 147.05,30.6 C145.483333,31.3333333 144.1,32.35 142.9,33.65 C141.7,34.95 140.75,36.5166667 140.05,38.35 C139.35,40.1833333 139,42.2333333 139,44.5 C139,46.7666667 139.35,48.8166667 140.05,50.65 C140.75,52.4833333 141.7,54.05 142.9,55.35 C144.1,56.65 145.483333,57.6666667 147.05,58.4 C148.616667,59.1333333 150.266667,59.5 152,59.5 C154.266667,59.5 156.116667,59.0833333 157.55,58.25 C158.983333,57.4166667 160.166667,56.5 161.1,55.5 C162.1,54.3 162.9,52.9666667 163.5,51.5 L178,51.5 C177.133333,55.2333333 175.6,58.5666667 173.4,61.5 C172.466667,62.7666667 171.35,64 170.05,65.2 C168.75,66.4 167.233333,67.4666667 165.5,68.4 C163.766667,69.3333333 161.783333,70.0833333 159.55,70.65 C157.316667,71.2166667 154.8,71.5 152,71.5 Z" id="Path"></path>
                    <path d="M186,0 L200,0 L200,26 L200.5,26 C201.433333,24.4 202.666667,23 204.2,21.8 C205.533333,20.7333333 207.183333,19.75 209.15,18.85 C211.116667,17.95 213.566667,17.5 216.5,17.5 C222.766667,17.5 227.666667,19.3166667 231.2,22.95 C234.733333,26.5833333 236.5,31.9333333 236.5,39 L236.5,70 L222.5,70 L222.5,41 C222.5,37.2 221.566667,34.3333333 219.7,32.4 C217.833333,30.4666667 215.266667,29.5 212,29.5 C210.4,29.5 208.866667,29.8333333 207.4,30.5 C205.933333,31.1666667 204.65,32.0833333 203.55,33.25 C202.45,34.4166667 201.583333,35.8333333 200.95,37.5 C200.316667,39.1666667 200,41 200,43 L200,70 L186,70 L186,0 Z" id="Path"></path>
                    <path d="M247,19 L261,19 L261,26 L261.5,26 C262.433333,24.4 263.666667,23 265.2,21.8 C266.533333,20.7333333 268.183333,19.75 270.15,18.85 C272.116667,17.95 274.566667,17.5 277.5,17.5 C283.766667,17.5 288.666667,19.3166667 292.2,22.95 C295.733333,26.5833333 297.5,31.9333333 297.5,39 L297.5,70 L283.5,70 L283.5,41 C283.5,37.2 282.566667,34.3333333 280.7,32.4 C278.833333,30.4666667 276.266667,29.5 273,29.5 C271.4,29.5 269.866667,29.8333333 268.4,30.5 C266.933333,31.1666667 265.65,32.0833333 264.55,33.25 C263.45,34.4166667 262.583333,35.8333333 261.95,37.5 C261.316667,39.1666667 261,41 261,43 L261,70 L247,70 L247,19 Z" id="Path"></path>
                    <path d="M328,71.5 C321.733333,71.5 316.833333,69.6833333 313.3,66.05 C309.766667,62.4166667 308,57.0666667 308,50 L308,19 L322,19 L322,48 C322,51.8 322.933333,54.6666667 324.8,56.6 C326.666667,58.5333333 329.233333,59.5 332.5,59.5 C334.1,59.5 335.633333,59.1666667 337.1,58.5 C338.566667,57.8333333 339.85,56.9166667 340.95,55.75 C342.05,54.5833333 342.916667,53.1666667 343.55,51.5 C344.183333,49.8333333 344.5,48 344.5,46 L344.5,19 L358.5,19 L358.5,70 L344.5,70 L344.5,63 L344,63 C343.066667,64.6666667 341.833333,66.1 340.3,67.3 C338.966667,68.3666667 337.3,69.3333333 335.3,70.2 C333.3,71.0666667 330.866667,71.5 328,71.5 Z" id="Path"></path>
                    <path d="M369.5,19 L383.5,19 L383.5,26 L384,26 C384.933333,24.4 386.166667,23 387.7,21.8 C389.033333,20.7333333 390.683333,19.75 392.65,18.85 C394.616667,17.95 397.066667,17.5 400,17.5 C406.266667,17.5 411.166667,19.3166667 414.7,22.95 C418.233333,26.5833333 420,31.9333333 420,39 L420,70 L406,70 L406,41 C406,37.2 405.066667,34.3333333 403.2,32.4 C401.333333,30.4666667 398.766667,29.5 395.5,29.5 C393.9,29.5 392.366667,29.8333333 390.9,30.5 C389.433333,31.1666667 388.15,32.0833333 387.05,33.25 C385.95,34.4166667 385.083333,35.8333333 384.45,37.5 C383.816667,39.1666667 383.5,41 383.5,43 L383.5,70 L369.5,70 L369.5,19 Z" id="Path"></path>
                    <path d="M435.5,77 L468,77 L468,62.4 L467.5,62.4 C466.433333,63.9333333 465.133333,65.3 463.6,66.5 C462.266667,67.5 460.616667,68.4166667 458.65,69.25 C456.683333,70.0833333 454.3,70.5 451.5,70.5 C448.233333,70.5 445.183333,69.8666667 442.35,68.6 C439.516667,67.3333333 437.033333,65.5333333 434.9,63.2 C432.766667,60.8666667 431.083333,58.0833333 429.85,54.85 C428.616667,51.6166667 428,48 428,44 C428,40 428.616667,36.3833333 429.85,33.15 C431.083333,29.9166667 432.766667,27.1333333 434.9,24.8 C437.033333,22.4666667 439.516667,20.6666667 442.35,19.4 C445.183333,18.1333333 448.233333,17.5 451.5,17.5 C454.3,17.5 456.683333,17.9333333 458.65,18.8 C460.616667,19.6666667 462.266667,20.6 463.6,21.6 C465.133333,22.8 466.433333,24.1333333 467.5,25.6 L468,25.6 L468,19 L482,19 L482,89 L435.5,89 L435.5,77 Z M455.5,58.5 C459.033333,58.5 462,57.2166667 464.4,54.65 C466.8,52.0833333 468,48.5333333 468,44 C468,39.4666667 466.8,35.9166667 464.4,33.35 C462,30.7833333 459.033333,29.5 455.5,29.5 C451.7,29.5 448.583333,30.7833333 446.15,33.35 C443.716667,35.9166667 442.5,39.4666667 442.5,44 C442.5,48.5333333 443.716667,52.0833333 446.15,54.65 C448.583333,57.2166667 451.7,58.5 455.5,58.5 Z" id="Shape"></path>
                </g>
                <path d="M441.83,0.000159024385 C450.545674,2.89374734 459.636536,6.16093846 469.1,9.80073239 C468.033333,31.6673991 464.3,52.4673991 457.9,72.2007324 C451.5,91.9340657 444.566667,108.734066 437.1,122.600732 L434.742798,121.780431 C414.427846,114.75199 397.080247,109.825424 382.7,107.000732 C367.766667,104.067399 351.766667,102.600732 334.7,102.600732 C306.966667,102.600732 285.366667,109.134066 269.9,122.200732 C254.433333,135.267399 242.966667,154.600732 235.5,180.200732 L381.1,180.200732 C383.766667,189.267399 385.1,201.267399 385.1,216.200732 L385.094711,217.873195 C385.001267,232.515796 383.669697,243.691641 381.1,251.400732 L225.1,251.400732 L225.1,293.400732 C225.1,298.467399 225.366667,303.134066 225.9,307.400732 L381.1,307.400732 C383.766667,316.467399 385.1,328.467399 385.1,343.400732 L385.094711,345.073195 C385.001267,359.715796 383.669697,370.891641 381.1,378.600732 L237.1,378.600732 C244.566667,401.534066 256.433333,418.467399 272.7,429.400732 C281.136487,435.071158 291.258606,439.271139 303.066356,442.000675 L110.057357,442.00135 C101.346767,422.512939 94.627648,401.3794 89.9,378.600732 L20.3,378.600732 C17.6818182,370.746187 16.3489256,359.292832 16.3,344.240666 L16.3,343.400732 C16.3,328.467399 17.6333333,316.467399 20.3,307.400732 L81.1,307.400732 C80.5666667,302.600732 80.3,297.800732 80.3,293.000732 L80.3,251.400732 L20.3,251.400732 C17.6818182,243.546187 16.3489256,232.092832 16.3,217.040666 L16.3,216.200732 C16.3,201.267399 17.6333333,189.267399 20.3,180.200732 L89.9,180.200732 C95.7666667,150.867399 104.833333,124.067399 117.1,99.8007324 C129.366667,75.5340657 145.1,54.6007324 164.3,37.0007324 C181.092893,21.6072468 200.537708,9.27367076 222.634445,-1.87315441e-14 L441.83,0.000159024385 Z M444.3,426.600732 C446.742366,431.772802 449.039603,436.90617 451.191709,442.000837 L385.134683,442.002286 C387.659271,441.571708 390.181044,441.104524 392.7,440.600732 C410.033333,437.134066 427.233333,432.467399 444.3,426.600732 Z" id="Combined-Shape" fill-opacity="0.5" fill="#FF6600"></path>
            </g>
        </g>
    </g>
</svg>