<?xml version="1.0" encoding="UTF-8"?>
<svg width="980px" height="680px" viewBox="0 0 980 680" version="1.1" xmlns="http://www.w3.org/2000/svg" xmlns:xlink="http://www.w3.org/1999/xlink">
    <title>DE Text</title>
    <defs>
        <linearGradient x1="50%" y1="0%" x2="50%" y2="100%" id="linearGradient-1">
            <stop stop-color="#FFFFFF" offset="0%"></stop>
            <stop stop-color="#EDEDED" offset="100%"></stop>
        </linearGradient>
        <rect id="path-2" x="2.84217094e-14" y="0" width="900" height="600" rx="80"></rect>
        <filter x="-6.7%" y="-10.0%" width="113.3%" height="120.0%" filterUnits="objectBoundingBox" id="filter-3">
            <feMorphology radius="2.5" operator="dilate" in="SourceAlpha" result="shadowSpreadOuter1"></feMorphology>
            <feOffset dx="0" dy="0" in="shadowSpreadOuter1" result="shadowOffsetOuter1"></feOffset>
            <feGaussianBlur stdDeviation="17.5" in="shadowOffsetOuter1" result="shadowBlurOuter1"></feGaussianBlur>
            <feColorMatrix values="0 0 0 0 0   0 0 0 0 0   0 0 0 0 0  0 0 0 0.5 0" type="matrix" in="shadowBlurOuter1"></feColorMatrix>
        </filter>
    </defs>
    <g id="DE-Text" stroke="none" stroke-width="1" fill="none" fill-rule="evenodd">
        <g transform="translate(40, 40)">
            <g id="Rectangle">
                <use fill="black" fill-opacity="1" filter="url(#filter-3)" xlink:href="#path-2"></use>
                <use fill="url(#linearGradient-1)" fill-rule="evenodd" xlink:href="#path-2"></use>
            </g>
            <g id="Überweisung" transform="translate(136, 238)" fill="#FF6600" fill-rule="nonzero">
                <path d="M30,95 C25.4,95 21.25,94.3 17.55,92.9 C13.85,91.5 10.7,89.5333333 8.1,87 C5.5,84.4666667 3.5,81.3833333 2.1,77.75 C0.7,74.1166667 0,70.0333333 0,65.5 L0,23 L15,23 L15,65.5 C15,70.3 16.3666667,74.0833333 19.1,76.85 C21.8333333,79.6166667 25.4666667,81 30,81 C34.5333333,81 38.1666667,79.6166667 40.9,76.85 C43.6333333,74.0833333 45,70.3 45,65.5 L45,23 L60,23 L60,65.5 C60,70.0333333 59.3,74.1166667 57.9,77.75 C56.5,81.3833333 54.5,84.4666667 51.9,87 C49.3,89.5333333 46.15,91.5 42.45,92.9 C38.75,94.3 34.6,95 30,95 Z M20.5,14 C18.5,14 16.8333333,13.3333333 15.5,12 C14.1666667,10.6666667 13.5,9 13.5,7 C13.5,5 14.1666667,3.33333333 15.5,2 C16.8333333,0.666666667 18.5,0 20.5,0 C22.5,0 24.1666667,0.666666667 25.5,2 C26.8333333,3.33333333 27.5,5 27.5,7 C27.5,9 26.8333333,10.6666667 25.5,12 C24.1666667,13.3333333 22.5,14 20.5,14 Z M40,14 C38,14 36.3333333,13.3333333 35,12 C33.6666667,10.6666667 33,9 33,7 C33,5 33.6666667,3.33333333 35,2 C36.3333333,0.666666667 38,0 40,0 C42,0 43.6666667,0.666666667 45,2 C46.3333333,3.33333333 47,5 47,7 C47,9 46.3333333,10.6666667 45,12 C43.6666667,13.3333333 42,14 40,14 Z" id="Shape"></path>
                <path d="M102,94.5 C99.2,94.5 96.8166667,94.0833333 94.85,93.25 C92.8833333,92.4166667 91.2333333,91.5 89.9,90.5 C88.3666667,89.3 87.0666667,87.9666667 86,86.5 L85.5,86.5 L85.5,93 L71.5,93 L71.5,23 L85.5,23 L85.5,48.5 L86,48.5 C87.0666667,47.0333333 88.3666667,45.7 89.9,44.5 C91.2333333,43.5 92.8833333,42.5833333 94.85,41.75 C96.8166667,40.9166667 99.2,40.5 102,40.5 C105.266667,40.5 108.316667,41.1333333 111.15,42.4 C113.983333,43.6666667 116.466667,45.4666667 118.6,47.8 C120.733333,50.1333333 122.416667,52.9666667 123.65,56.3 C124.883333,59.6333333 125.5,63.3666667 125.5,67.5 C125.5,71.6333333 124.883333,75.3666667 123.65,78.7 C122.416667,82.0333333 120.733333,84.8666667 118.6,87.2 C116.466667,89.5333333 113.983333,91.3333333 111.15,92.6 C108.316667,93.8666667 105.266667,94.5 102,94.5 Z M98.5,82.5 C102.033333,82.5 105,81.2 107.4,78.6 C109.8,76 111,72.3 111,67.5 C111,62.7 109.8,59 107.4,56.4 C105,53.8 102.033333,52.5 98.5,52.5 C94.7,52.5 91.5833333,53.8 89.15,56.4 C86.7166667,59 85.5,62.7 85.5,67.5 C85.5,72.3 86.7166667,76 89.15,78.6 C91.5833333,81.2 94.7,82.5 98.5,82.5 Z" id="Shape"></path>
                <path d="M158.5,94.5 C154.633333,94.5 151.016667,93.8 147.65,92.4 C144.283333,91 141.366667,89.0833333 138.9,86.65 C136.433333,84.2166667 134.5,81.35 133.1,78.05 C131.7,74.75 131,71.2333333 131,67.5 C131,63.7666667 131.7,60.25 133.1,56.95 C134.5,53.65 136.433333,50.7833333 138.9,48.35 C141.366667,45.9166667 144.283333,44 147.65,42.6 C151.016667,41.2 154.633333,40.5 158.5,40.5 C162.5,40.5 166.15,41.2 169.45,42.6 C172.75,44 175.6,45.9333333 178,48.4 C180.4,50.8666667 182.25,53.7333333 183.55,57 C184.85,60.2666667 185.5,63.7666667 185.5,67.5 L185.5,70.5 L145.5,70.5 C145.766667,72.1 146.283333,73.6333333 147.05,75.1 C147.816667,76.5666667 148.783333,77.85 149.95,78.95 C151.116667,80.05 152.433333,80.9166667 153.9,81.55 C155.366667,82.1833333 156.9,82.5 158.5,82.5 C160.766667,82.5 162.616667,82.1833333 164.05,81.55 C165.483333,80.9166667 166.666667,80.2333333 167.6,79.5 C168.6,78.6333333 169.4,77.6333333 170,76.5 L185,76.5 C183.933333,79.8333333 182.266667,82.8333333 180,85.5 C179,86.6333333 177.833333,87.7333333 176.5,88.8 C175.166667,89.8666667 173.633333,90.8333333 171.9,91.7 C170.166667,92.5666667 168.183333,93.25 165.95,93.75 C163.716667,94.25 161.233333,94.5 158.5,94.5 Z M170.5,62 C170.233333,60.7333333 169.766667,59.5333333 169.1,58.4 C168.433333,57.2666667 167.583333,56.2666667 166.55,55.4 C165.516667,54.5333333 164.316667,53.8333333 162.95,53.3 C161.583333,52.7666667 160.1,52.5 158.5,52.5 C155.233333,52.5 152.516667,53.45 150.35,55.35 C148.183333,57.25 146.733333,59.4666667 146,62 L170.5,62 Z" id="Shape"></path>
                <path d="M194,42 L208,42 L208,49.5 L208.5,49.5 C209.1,47.9 210,46.5 211.2,45.3 C212.2,44.2333333 213.533333,43.25 215.2,42.35 C216.866667,41.45 218.966667,41 221.5,41 L227.5,41 L227.5,54.5 L220,54.5 C216.2,54.5 213.25,55.5333333 211.15,57.6 C209.05,59.6666667 208,62.4666667 208,66 L208,93 L194,93 L194,42 Z" id="Path"></path>
                <polygon id="Path" points="230.5 42 245 42 252 79 253.5 79 261 42 279 42 286.5 79 288 79 295 42 309.5 42 298.5 93 277.5 93 270.5 58 269.5 58 262.5 93 241.5 93"></polygon>
                <path d="M341,94.5 C337.133333,94.5 333.516667,93.8 330.15,92.4 C326.783333,91 323.866667,89.0833333 321.4,86.65 C318.933333,84.2166667 317,81.35 315.6,78.05 C314.2,74.75 313.5,71.2333333 313.5,67.5 C313.5,63.7666667 314.2,60.25 315.6,56.95 C317,53.65 318.933333,50.7833333 321.4,48.35 C323.866667,45.9166667 326.783333,44 330.15,42.6 C333.516667,41.2 337.133333,40.5 341,40.5 C345,40.5 348.65,41.2 351.95,42.6 C355.25,44 358.1,45.9333333 360.5,48.4 C362.9,50.8666667 364.75,53.7333333 366.05,57 C367.35,60.2666667 368,63.7666667 368,67.5 L368,70.5 L328,70.5 C328.266667,72.1 328.783333,73.6333333 329.55,75.1 C330.316667,76.5666667 331.283333,77.85 332.45,78.95 C333.616667,80.05 334.933333,80.9166667 336.4,81.55 C337.866667,82.1833333 339.4,82.5 341,82.5 C343.266667,82.5 345.116667,82.1833333 346.55,81.55 C347.983333,80.9166667 349.166667,80.2333333 350.1,79.5 C351.1,78.6333333 351.9,77.6333333 352.5,76.5 L367.5,76.5 C366.433333,79.8333333 364.766667,82.8333333 362.5,85.5 C361.5,86.6333333 360.333333,87.7333333 359,88.8 C357.666667,89.8666667 356.133333,90.8333333 354.4,91.7 C352.666667,92.5666667 350.683333,93.25 348.45,93.75 C346.216667,94.25 343.733333,94.5 341,94.5 Z M353,62 C352.733333,60.7333333 352.266667,59.5333333 351.6,58.4 C350.933333,57.2666667 350.083333,56.2666667 349.05,55.4 C348.016667,54.5333333 346.816667,53.8333333 345.45,53.3 C344.083333,52.7666667 342.6,52.5 341,52.5 C337.733333,52.5 335.016667,53.45 332.85,55.35 C330.683333,57.25 329.233333,59.4666667 328.5,62 L353,62 Z" id="Shape"></path>
                <path d="M376.5,42 L390.5,42 L390.5,93 L376.5,93 L376.5,42 Z M383.5,35.5 C381.233333,35.5 379.333333,34.75 377.8,33.25 C376.266667,31.75 375.5,30 375.5,28 C375.5,26 376.266667,24.25 377.8,22.75 C379.333333,21.25 381.233333,20.5 383.5,20.5 C385.766667,20.5 387.666667,21.25 389.2,22.75 C390.733333,24.25 391.5,26 391.5,28 C391.5,30 390.733333,31.75 389.2,33.25 C387.666667,34.75 385.766667,35.5 383.5,35.5 Z" id="Shape"></path>
                <path d="M423.5,94.5 C420.766667,94.5 418.3,94.25 416.1,93.75 C413.9,93.25 411.95,92.5666667 410.25,91.7 C408.55,90.8333333 407.05,89.8666667 405.75,88.8 C404.45,87.7333333 403.366667,86.6333333 402.5,85.5 C400.366667,82.8333333 398.866667,79.8333333 398,76.5 L412.5,76.5 C413.033333,77.7666667 413.766667,78.8666667 414.7,79.8 C415.5,80.6 416.6,81.3333333 418,82 C419.4,82.6666667 421.233333,83 423.5,83 C426.766667,83 429,82.55 430.2,81.65 C431.4,80.75 432,79.5333333 432,78 C432,76.6666667 431.216667,75.6666667 429.65,75 C428.083333,74.3333333 426.133333,73.7333333 423.8,73.2 C421.466667,72.6666667 418.95,72.1 416.25,71.5 C413.55,70.9 411.033333,70 408.7,68.8 C406.366667,67.6 404.416667,66 402.85,64 C401.283333,62 400.5,59.3333333 400.5,56 C400.5,54 400.966667,52.0666667 401.9,50.2 C402.833333,48.3333333 404.2,46.6833333 406,45.25 C407.8,43.8166667 410.033333,42.6666667 412.7,41.8 C415.366667,40.9333333 418.466667,40.5 422,40.5 C424.666667,40.5 427.066667,40.7333333 429.2,41.2 C431.333333,41.6666667 433.216667,42.3 434.85,43.1 C436.483333,43.9 437.9,44.8 439.1,45.8 C440.3,46.8 441.3,47.8 442.1,48.8 C444.033333,51.2 445.333333,53.9333333 446,57 L432,57 C431.6,56.0666667 431,55.2333333 430.2,54.5 C429.466667,53.9 428.45,53.3333333 427.15,52.8 C425.85,52.2666667 424.133333,52 422,52 C419.466667,52 417.666667,52.4166667 416.6,53.25 C415.533333,54.0833333 415,55 415,56 C415,57.3333333 415.783333,58.3333333 417.35,59 C418.916667,59.6666667 420.866667,60.2666667 423.2,60.8 C425.533333,61.3333333 428.05,61.9 430.75,62.5 C433.45,63.1 435.966667,64 438.3,65.2 C440.633333,66.4 442.583333,68 444.15,70 C445.716667,72 446.5,74.6666667 446.5,78 C446.5,80.1333333 446,82.1833333 445,84.15 C444,86.1166667 442.533333,87.8666667 440.6,89.4 C438.666667,90.9333333 436.266667,92.1666667 433.4,93.1 C430.533333,94.0333333 427.233333,94.5 423.5,94.5 Z" id="Path"></path>
                <path d="M474.5,94.5 C468.233333,94.5 463.333333,92.6833333 459.8,89.05 C456.266667,85.4166667 454.5,80.0666667 454.5,73 L454.5,42 L468.5,42 L468.5,71 C468.5,74.8 469.433333,77.6666667 471.3,79.6 C473.166667,81.5333333 475.733333,82.5 479,82.5 C480.6,82.5 482.133333,82.1666667 483.6,81.5 C485.066667,80.8333333 486.35,79.9166667 487.45,78.75 C488.55,77.5833333 489.416667,76.1666667 490.05,74.5 C490.683333,72.8333333 491,71 491,69 L491,42 L505,42 L505,93 L491,93 L491,86 L490.5,86 C489.566667,87.6666667 488.333333,89.1 486.8,90.3 C485.466667,91.3666667 483.8,92.3333333 481.8,93.2 C479.8,94.0666667 477.366667,94.5 474.5,94.5 Z" id="Path"></path>
                <path d="M516,42 L530,42 L530,49 L530.5,49 C531.433333,47.4 532.666667,46 534.2,44.8 C535.533333,43.7333333 537.183333,42.75 539.15,41.85 C541.116667,40.95 543.566667,40.5 546.5,40.5 C552.766667,40.5 557.666667,42.3166667 561.2,45.95 C564.733333,49.5833333 566.5,54.9333333 566.5,62 L566.5,93 L552.5,93 L552.5,64 C552.5,60.2 551.566667,57.3333333 549.7,55.4 C547.833333,53.4666667 545.266667,52.5 542,52.5 C540.4,52.5 538.866667,52.8333333 537.4,53.5 C535.933333,54.1666667 534.65,55.0833333 533.55,56.25 C532.45,57.4166667 531.583333,58.8333333 530.95,60.5 C530.316667,62.1666667 530,64 530,66 L530,93 L516,93 L516,42 Z" id="Path"></path>
                <path d="M582,100 L614.5,100 L614.5,85.4 L614,85.4 C612.933333,86.9333333 611.633333,88.3 610.1,89.5 C608.766667,90.5 607.116667,91.4166667 605.15,92.25 C603.183333,93.0833333 600.8,93.5 598,93.5 C594.733333,93.5 591.683333,92.8666667 588.85,91.6 C586.016667,90.3333333 583.533333,88.5333333 581.4,86.2 C579.266667,83.8666667 577.583333,81.0833333 576.35,77.85 C575.116667,74.6166667 574.5,71 574.5,67 C574.5,63 575.116667,59.3833333 576.35,56.15 C577.583333,52.9166667 579.266667,50.1333333 581.4,47.8 C583.533333,45.4666667 586.016667,43.6666667 588.85,42.4 C591.683333,41.1333333 594.733333,40.5 598,40.5 C600.8,40.5 603.183333,40.9333333 605.15,41.8 C607.116667,42.6666667 608.766667,43.6 610.1,44.6 C611.633333,45.8 612.933333,47.1333333 614,48.6 L614.5,48.6 L614.5,42 L628.5,42 L628.5,112 L582,112 L582,100 Z M602,81.5 C605.533333,81.5 608.5,80.2166667 610.9,77.65 C613.3,75.0833333 614.5,71.5333333 614.5,67 C614.5,62.4666667 613.3,58.9166667 610.9,56.35 C608.5,53.7833333 605.533333,52.5 602,52.5 C598.2,52.5 595.083333,53.7833333 592.65,56.35 C590.216667,58.9166667 589,62.4666667 589,67 C589,71.5333333 590.216667,75.0833333 592.65,77.65 C595.083333,80.2166667 598.2,81.5 602,81.5 Z" id="Shape"></path>
            </g>
        </g>
    </g>
</svg>