<?xml version="1.0" encoding="UTF-8"?>
<svg width="980px" height="680px" viewBox="0 0 980 680" version="1.1" xmlns="http://www.w3.org/2000/svg" xmlns:xlink="http://www.w3.org/1999/xlink">
    <title>DE Trusted Shops text</title>
    <defs>
        <linearGradient x1="50%" y1="0%" x2="50%" y2="100%" id="linearGradient-1">
            <stop stop-color="#FFFFFF" offset="0%"></stop>
            <stop stop-color="#EDEDED" offset="100%"></stop>
        </linearGradient>
        <rect id="path-2" x="0" y="0" width="900" height="600" rx="80"></rect>
        <filter x="-6.7%" y="-10.0%" width="113.3%" height="120.0%" filterUnits="objectBoundingBox" id="filter-3">
            <feMorphology radius="2.5" operator="dilate" in="SourceAlpha" result="shadowSpreadOuter1"></feMorphology>
            <feOffset dx="0" dy="0" in="shadowSpreadOuter1" result="shadowOffsetOuter1"></feOffset>
            <feGaussianBlur stdDeviation="17.5" in="shadowOffsetOuter1" result="shadowBlurOuter1"></feGaussianBlur>
            <feColorMatrix values="0 0 0 0 0   0 0 0 0 0   0 0 0 0 0  0 0 0 0.5 0" type="matrix" in="shadowBlurOuter1"></feColorMatrix>
        </filter>
        <polygon id="path-4" points="0 0 275.79485 0 275.79485 275.796775 0 275.796775"></polygon>
        <polygon id="path-6" points="0 0 75.0450132 0 75.0450132 86.3786942 0 86.3786942"></polygon>
        <polygon id="path-8" points="0 0 81.1685332 0 81.1685332 87.1779521 0 87.1779521"></polygon>
    </defs>
    <g id="DE-Trusted-Shops-text" stroke="none" stroke-width="1" fill="none" fill-rule="evenodd">
        <g transform="translate(40, 40)">
            <g id="Rectangle">
                <use fill="black" fill-opacity="1" filter="url(#filter-3)" xlink:href="#path-2"></use>
                <use fill="url(#linearGradient-1)" fill-rule="evenodd" xlink:href="#path-2"></use>
            </g>
            <g id="Group-32" transform="translate(50, 135)">
                <g id="Group-3">
                    <mask id="mask-5" fill="white">
                        <use xlink:href="#path-4"></use>
                    </mask>
                    <g id="Clip-2"></g>
                    <path d="M137.897425,226.994476 C88.7514482,226.994476 48.9122758,187.152554 48.9122758,138.009327 C48.9122758,88.8633498 88.7514482,49.021428 137.897425,49.021428 C187.043402,49.021428 226.882574,88.8633498 226.882574,138.009327 C226.882574,187.152554 187.043402,226.994476 137.897425,226.994476 M137.897425,-0.000824827585 C61.7383448,-0.000824827585 0,61.7402694 0,137.8966 C0,214.055681 61.7383448,275.796775 137.897425,275.796775 C214.056506,275.796775 275.79485,214.055681 275.79485,137.8966 C275.79485,61.7402694 214.056506,-0.000824827585 137.897425,-0.000824827585" id="Fill-1" fill="#000000" mask="url(#mask-5)"></path>
                </g>
                <path d="M161.340125,97.990342 C161.340125,91.6749121 157.782369,86.7369443 151.191996,86.7369443 C131.41538,86.7369443 121.239757,125.184907 117.407058,140.298498 C135.773219,134.807896 161.340125,119.694305 161.340125,97.990342 L161.340125,97.990342 Z M174.523619,164.732641 C161.892759,183.431482 144.296438,200.447675 120.687123,200.447675 C95.7003456,200.447675 81.1393893,184.784199 81.1393893,159.51973 C81.1393893,118.591786 111.366571,78.4914178 153.94967,78.4914178 C168.235683,78.4914178 187.456916,84.2569627 187.456916,101.575593 C187.456916,132.602857 138.836079,143.056172 114.924327,149.09391 C114.09675,154.30682 113.269173,159.51973 113.269173,164.760135 C113.269173,175.460898 119.031969,185.361579 130.838001,185.361579 C146.226534,185.361579 158.582451,170.52568 167.655555,159.547225 L174.523619,164.732641 Z" id="Fill-4" fill="#000000"></path>
                <polygon id="Fill-6" fill="#000000" points="323.56309 155.521241 300.781352 155.521241 300.781352 139.415108 366.008718 139.415108 366.008718 155.521241 342.84206 155.521241 342.84206 224.276119 323.590584 224.276119 323.590584 155.521241"></polygon>
                <path d="M392.291299,177.060789 L399.84672,177.060789 C409.417469,177.060789 415.073037,172.290536 415.073037,164.842343 C415.073037,157.036724 409.777644,153.121543 400.979483,153.011566 C396.319207,153.011566 393.67151,153.396485 392.291299,153.646683 L392.291299,177.060789 Z M373.290021,140.545672 C379.467979,139.525635 388.65106,138.780541 398.854177,138.780541 C411.460292,138.780541 420.255703,140.655649 426.296191,145.453396 C431.344136,149.481304 434.101809,155.411814 434.101809,163.214683 C434.101809,174.055667 426.433662,181.473616 419.12569,184.121313 L419.12569,184.506232 C425.0562,186.906481 428.31152,192.559299 430.46157,200.364917 C433.109267,209.935667 435.756963,221.02135 437.384623,224.276669 L417.748228,224.276669 C416.368016,221.876421 414.355437,214.956117 411.817717,204.502803 C409.55494,193.939511 405.887207,191.044366 398.081589,190.906894 L392.291299,190.906894 L392.291299,224.276669 L373.290021,224.276669 L373.290021,140.545672 Z" id="Fill-8" fill="#000000"></path>
                <path d="M464.467012,139.414558 L464.467012,188.258098 C464.467012,202.874043 470.009853,210.294742 479.828051,210.294742 C489.896446,210.294742 495.439288,203.234218 495.439288,188.258098 L495.439288,139.414558 L514.578037,139.414558 L514.578037,187.018107 C514.578037,213.217381 501.369798,225.683275 479.195683,225.683275 C457.791407,225.683275 445.188042,213.852498 445.188042,186.76791 L445.188042,139.414558 L464.467012,139.414558 Z" id="Fill-10" fill="#000000"></path>
                <path d="M528.258352,204.502528 C533.416274,207.150224 541.359364,209.797921 549.549902,209.797921 C558.375557,209.797921 563.008339,206.157682 563.008339,200.61484 C563.008339,195.319447 558.98318,192.311576 548.777313,188.643843 C534.683759,183.736118 525.473185,175.9305 525.473185,163.574583 C525.473185,149.096109 537.55141,138.007677 557.575474,138.007677 C567.146224,138.007677 574.206748,140.020256 579.224449,142.283033 L574.951842,157.781544 C571.559051,156.156633 565.518564,153.756385 557.190555,153.756385 C548.88729,153.756385 544.862132,157.534095 544.862132,161.946923 C544.862132,167.352293 549.632385,169.752541 560.60809,173.917921 C575.58421,179.460762 582.644734,187.26638 582.644734,199.234629 C582.644734,213.465654 571.696523,225.546629 548.392394,225.546629 C538.684173,225.546629 529.140918,223.036403 524.343171,220.388707 L528.258352,204.502528 Z" id="Fill-12" fill="#000000"></path>
                <polygon id="Fill-14" fill="#000000" points="609.231951 155.521241 586.450214 155.521241 586.450214 139.415108 651.677579 139.415108 651.677579 155.521241 628.510922 155.521241 628.510922 224.276119 609.231951 224.276119"></polygon>
                <polygon id="Fill-16" fill="#000000" points="709.428432 188.395844 678.208708 188.395844 678.208708 208.529886 713.096166 208.529886 713.096166 224.275844 658.957232 224.275844 658.957232 139.414833 711.331035 139.414833 711.331035 155.163541 678.208708 155.163541 678.208708 172.784608 709.428432 172.784608"></polygon>
                <g id="Group-20" transform="translate(724.955, 138.78)">
                    <mask id="mask-7" fill="white">
                        <use xlink:href="#path-6"></use>
                    </mask>
                    <g id="Clip-19"></g>
                    <path d="M19.3064643,71.0176551 C20.9341241,71.4025746 23.5818207,71.4025746 25.9820689,71.4025746 C43.3556873,71.5427953 54.6915678,61.9720459 54.6915678,41.7005333 C54.829039,24.0767172 44.4857011,14.7561655 27.9946482,14.7561655 C23.7192919,14.7561655 20.9341241,15.141085 19.3064643,15.5012598 L19.3064643,71.0176551 Z M0.0274942528,1.76513103 C7.08801838,0.635117241 16.2738483,0 25.9518253,0 C42.060708,0 52.5112735,2.89514482 60.7045608,9.07310344 C69.5274666,15.6112368 75.0455631,26.0618023 75.0455631,41.065416 C75.0455631,57.31177 69.1150528,68.5074298 60.9520091,75.4304827 C52.016377,82.8484321 38.4177195,86.3786942 21.7891954,86.3786942 C11.8335264,86.3786942 4.80049655,85.7463263 0,85.1112091 L0,1.76513103 L0.0274942528,1.76513103 Z" id="Fill-18" fill="#000000" mask="url(#mask-7)"></path>
                </g>
                <path d="M308.145963,308.753036 C313.27639,311.373238 321.164492,314.020935 329.300041,314.020935 C338.070708,314.020935 342.703489,310.380696 342.703489,304.892843 C342.703489,299.624944 338.703075,296.617073 328.554947,293.004328 C314.516381,288.124098 305.388289,280.345974 305.388289,268.072539 C305.388289,253.676549 317.411526,242.645854 337.325613,242.645854 C346.841374,242.645854 353.844161,244.658434 358.864611,246.890967 L354.616749,262.309744 C351.223958,260.682084 345.213715,258.30933 336.965439,258.30933 C328.719912,258.30933 324.694754,262.059546 324.694754,266.44488 C324.694754,271.822756 329.465007,274.223004 340.358229,278.333395 C355.251866,283.848742 362.284896,291.599372 362.284896,303.512631 C362.284896,317.661174 351.391673,329.68716 328.225016,329.68716 C318.571784,329.68716 309.056023,327.176935 304.313264,324.556733 L308.145963,308.753036 Z" id="Fill-21" fill="#000000"></path>
                <polygon id="Fill-23" fill="#000000" points="391.794753 243.996372 391.794753 276.428593 423.234431 276.428593 423.234431 243.996372 442.265953 243.996372 442.265953 328.417475 423.234431 328.417475 423.234431 293.087361 391.794753 293.087361 391.794753 328.417475 372.62576 328.417475 372.62576 243.996372"></polygon>
                <g id="Group-27" transform="translate(453.1861, 242.6184)">
                    <mask id="mask-9" fill="white">
                        <use xlink:href="#path-8"></use>
                    </mask>
                    <g id="Clip-26"></g>
                    <path d="M20.1890299,43.8505839 C20.1890299,60.3718804 27.967154,72.0376919 40.735485,72.0376919 C53.6440367,72.0376919 61.0344919,59.7642574 61.0344919,43.3529379 C61.0344919,28.2118528 53.781508,15.1685793 40.625508,15.1685793 C27.689462,15.1685793 20.1890299,27.4420138 20.1890299,43.8505839 M81.1685332,42.7205701 C81.1685332,70.4100321 64.3722942,87.1787769 39.7154482,87.1787769 C14.6736827,87.1787769 0,68.2572321 0,44.2080091 C0,18.9187954 16.1611218,0 41.065416,0 C67.0199907,0 81.1685332,19.4164414 81.1685332,42.7205701" id="Fill-25" fill="#000000" mask="url(#mask-9)"></path>
                </g>
                <path d="M564.084189,283.462722 C565.711849,283.847642 567.724428,283.960368 570.482101,283.960368 C580.63298,283.960368 586.893421,278.829941 586.893421,270.169251 C586.893421,262.391127 581.515545,257.758345 571.999784,257.758345 C568.112097,257.758345 565.491895,258.146014 564.111683,258.50344 L564.111683,283.462722 L564.084189,283.462722 Z M545.165393,245.127486 C551.038166,244.134943 559.313936,243.362355 570.952253,243.362355 C582.728042,243.362355 591.111039,245.622382 596.739113,250.117693 C602.116989,254.365555 605.757228,261.398585 605.757228,269.644111 C605.757228,277.892387 602.999554,284.925417 597.979104,289.69567 C591.471214,295.846134 581.817982,298.576313 570.564584,298.576313 C568.054359,298.576313 565.794331,298.438842 564.056695,298.191394 L564.056695,328.360837 L545.137899,328.360837 L545.137899,245.127486 L545.165393,245.127486 Z" id="Fill-28" fill="#000000"></path>
                <path d="M615.740666,308.753036 C620.871094,311.373238 628.759195,314.020935 636.894744,314.020935 C645.665411,314.020935 650.298192,310.380696 650.298192,304.892843 C650.298192,299.624944 646.297779,296.617073 636.14965,293.004328 C622.111084,288.124098 612.982992,280.345974 612.982992,268.072539 C612.982992,253.676549 625.006229,242.645854 644.920317,242.645854 C654.436077,242.645854 661.438864,244.658434 666.459314,246.890967 L662.211452,262.309744 C658.818661,260.682084 652.808418,258.30933 644.560142,258.30933 C636.287121,258.30933 632.289457,262.059546 632.289457,266.44488 C632.289457,271.822756 637.05971,274.223004 647.952933,278.333395 C662.846569,283.848742 669.879599,291.599372 669.879599,303.512631 C669.879599,317.661174 658.986376,329.68716 635.819719,329.68716 C626.166487,329.68716 616.650726,327.176935 611.907967,324.556733 L615.740666,308.753036 Z" id="Fill-30" fill="#000000"></path>
            </g>
        </g>
    </g>
</svg>