<?xml version="1.0" encoding="UTF-8"?>
<svg width="980px" height="680px" viewBox="0 0 980 680" version="1.1" xmlns="http://www.w3.org/2000/svg" xmlns:xlink="http://www.w3.org/1999/xlink">
    <title>DE UPS Nachnahme</title>
    <defs>
        <rect id="path-1" x="0" y="0" width="900" height="600" rx="80"></rect>
        <filter x="-6.7%" y="-10.0%" width="113.3%" height="120.0%" filterUnits="objectBoundingBox" id="filter-2">
            <feMorphology radius="2.5" operator="dilate" in="SourceAlpha" result="shadowSpreadOuter1"></feMorphology>
            <feOffset dx="0" dy="0" in="shadowSpreadOuter1" result="shadowOffsetOuter1"></feOffset>
            <feGaussianBlur stdDeviation="17.5" in="shadowOffsetOuter1" result="shadowBlurOuter1"></feGaussianBlur>
            <feColorMatrix values="0 0 0 0 0   0 0 0 0 0   0 0 0 0 0  0 0 0 0.5 0" type="matrix" in="shadowBlurOuter1"></feColorMatrix>
        </filter>
    </defs>
    <g id="DE-UPS-Nachnahme" stroke="none" stroke-width="1" fill="none" fill-rule="evenodd">
        <g transform="translate(40, 40)">
            <g id="Rectangle">
                <use fill="black" fill-opacity="1" filter="url(#filter-2)" xlink:href="#path-1"></use>
                <use fill="#330000" fill-rule="evenodd" xlink:href="#path-1"></use>
            </g>
            <path d="M895,345 L895,520 C895,540.710678 886.605339,559.460678 873.033009,573.033009 C859.460678,586.605339 840.710678,595 820,595 L80,595 C59.2893219,595 40.5393219,586.605339 26.9669914,573.033009 C13.3946609,559.460678 5,540.710678 5,520 L5,345 L895,345 Z" id="Path" stroke="#333333" stroke-width="10" fill="#FF6600"></path>
            <g id="NACHNAHME" transform="translate(164.6, 415.3)" fill="#333333" fill-rule="nonzero">
                <polygon id="Path" points="5.68434189e-14 107.7 5.68434189e-14 0.9 14.7 0.9 37.8 65.25 38.1 65.25 38.1 0.9 53.4 0.9 53.4 107.7 39 107.7 15.6 43.5 15.3 43.5 15.3 107.7"></polygon>
                <path d="M98.1,70.35 L90.6,31.65 L90.3,31.65 L82.8,70.35 L98.1,70.35 Z M60.3,107.7 L84.15,0.9 L96.9,0.9 L120.75,107.7 L105.45,107.7 L100.95,84.75 L80.1,84.75 L75.6,107.7 L60.3,107.7 Z" id="Shape"></path>
                <path d="M176.85,77.25 L176.85,83.85 C176.85,87.15 176.225,90.275 174.975,93.225 C173.725,96.175 172,98.8 169.8,101.1 C167.6,103.4 165.025,105.225 162.075,106.575 C159.125,107.925 155.95,108.6 152.55,108.6 C149.65,108.6 146.7,108.2 143.7,107.4 C140.7,106.6 138,105.2 135.6,103.2 C133.2,101.2 131.225,98.625 129.675,95.475 C128.125,92.325 127.35,88.3 127.35,83.4 L127.35,24.6 C127.35,21.1 127.95,17.85 129.15,14.85 C130.35,11.85 132.05,9.25 134.25,7.05 C136.45,4.85 139.075,3.125 142.125,1.875 C145.175,0.625 148.55,0 152.25,0 C159.45,0 165.3,2.35 169.8,7.05 C172,9.35 173.725,12.075 174.975,15.225 C176.225,18.375 176.85,21.8 176.85,25.5 L176.85,31.5 L161.55,31.5 L161.55,26.4 C161.55,23.4 160.7,20.8 159,18.6 C157.3,16.4 155,15.3 152.1,15.3 C148.3,15.3 145.775,16.475 144.525,18.825 C143.275,21.175 142.65,24.15 142.65,27.75 L142.65,82.35 C142.65,85.45 143.325,88.05 144.675,90.15 C146.025,92.25 148.45,93.3 151.95,93.3 C152.95,93.3 154.025,93.125 155.175,92.775 C156.325,92.425 157.4,91.85 158.4,91.05 C159.3,90.25 160.05,89.15 160.65,87.75 C161.25,86.35 161.55,84.6 161.55,82.5 L161.55,77.25 L176.85,77.25 Z" id="Path"></path>
                <polygon id="Path" points="189.3 107.7 189.3 0.9 204.6 0.9 204.6 46.65 223.5 46.65 223.5 0.9 238.8 0.9 238.8 107.7 223.5 107.7 223.5 60.15 204.6 60.15 204.6 107.7"></polygon>
                <polygon id="Path" points="252.6 107.7 252.6 0.9 267.3 0.9 290.4 65.25 290.7 65.25 290.7 0.9 306 0.9 306 107.7 291.6 107.7 268.2 43.5 267.9 43.5 267.9 107.7"></polygon>
                <path d="M350.7,70.35 L343.2,31.65 L342.9,31.65 L335.4,70.35 L350.7,70.35 Z M312.9,107.7 L336.75,0.9 L349.5,0.9 L373.35,107.7 L358.05,107.7 L353.55,84.75 L332.7,84.75 L328.2,107.7 L312.9,107.7 Z" id="Shape"></path>
                <polygon id="Path" points="380.85 107.7 380.85 0.9 396.15 0.9 396.15 46.65 415.05 46.65 415.05 0.9 430.35 0.9 430.35 107.7 415.05 107.7 415.05 60.15 396.15 60.15 396.15 107.7"></polygon>
                <polygon id="Path" points="444.75 107.7 444.75 0.9 459.45 0.9 479.1 57.45 479.4 57.45 498.9 0.9 513.75 0.9 513.75 107.7 498.45 107.7 498.45 42.75 498.15 42.75 483 88.65 475.35 88.65 460.35 42.75 460.05 42.75 460.05 107.7"></polygon>
                <polygon id="Path" points="528.15 107.7 528.15 0.9 573.75 0.9 573.75 15.3 543.45 15.3 543.45 46.65 569.85 46.65 569.85 61.05 543.45 61.05 543.45 92.4 573.75 92.4 573.75 107.7"></polygon>
            </g>
            <g id="Logo" transform="translate(346, 50)" fill-rule="nonzero">
                <path d="M31.2603163,206.558927 C13.5049968,192.022298 4.12652681,171.097056 4.12652681,146.105309 L4.12652681,27.3063534 C32.1644008,12.443354 66.1144624,4.91056691 105.038864,4.91056691 C143.963266,4.91056691 177.917079,12.443354 205.951202,27.3063534 L205.951202,146.105309 C205.951202,171.097056 196.572732,192.007293 178.817412,206.558927 C162.573902,219.872603 110.962306,242.519732 105.035113,245.096936 C99.1154227,242.519732 47.5038264,219.876354 31.2603163,206.558927 Z" id="Path" fill="#330000"></path>
                <path d="M200.425407,25.910837 C187.453108,24.7066415 173.978122,23.9113472 160.251793,23.9113472 C109.345458,23.9113472 54.770265,34.854146 9.65232136,76.2357072 L9.65232136,146.968128 C9.65232136,170.005402 18.1717235,189.24252 34.3589628,202.436151 C48.6517511,214.065454 92.6367756,233.985325 105.038864,239.4586 C117.283395,234.067855 161.155878,214.410582 175.700009,202.436151 C191.988536,189.013685 200.425407,170.222983 200.425407,146.968128 L200.425407,25.910837 M18.978272,139.607905 L18.978272,82.1629003 L37.2437802,82.1629003 L37.2437802,140.418205 C37.2437802,145.602623 38.4967438,153.277963 46.8735932,153.277963 C49.9093088,153.400668 52.9128634,152.617132 55.5017857,151.02713 L55.5017857,82.1629003 L73.7447856,82.1629003 L73.7447856,161.444735 C65.5057594,166.587015 55.9149949,169.14281 46.2095976,168.78245 C28.1279073,168.78245 18.959515,158.968818 18.959515,139.607905 M101.422526,205.913688 L83.1457639,205.913688 L83.1457639,86.8146214 C90.5388927,82.2737799 99.106332,80.0125292 107.777378,80.313466 C129.591699,80.313466 141.577384,96.8645899 141.577384,123.503196 C141.577384,150.141802 129.948081,168.467333 109.653072,168.467333 C106.875162,168.517317 104.104511,168.167353 101.426278,167.428198 L101.422526,205.913688 Z M101.422526,152.493923 C103.32004,153.204698 105.327291,153.577963 107.353471,153.596831 C117.857357,153.596831 122.89172,143.944509 122.89172,123.960866 C122.89172,103.489541 118.498845,95.0221158 107.886168,95.0221158 C105.659569,95.0042831 103.453844,95.4528404 101.411272,96.3393956 L101.422526,152.493923 Z M145.718916,104.131028 C145.957277,90.802536 156.908192,80.164935 170.237988,80.313466 C177.405711,79.933492 184.486238,82.0287769 190.292908,86.2481618 L190.292908,102.142793 C185.989143,97.6523481 180.136711,94.9695922 173.925602,94.6400168 C168.744936,94.5950002 163.354191,96.8720927 163.177876,103.369497 C163.001561,110.020708 168.381051,112.646679 175.182317,116.645659 C190.446715,125.618979 193.399058,133.684463 193.046427,144.342157 C192.697548,156.02773 184.643318,168.789952 166.587888,168.789952 C159.507666,168.710545 152.575397,166.753199 146.499205,163.117854 L146.499205,146.285376 C151.326228,150.647049 157.475933,153.2649 163.965667,153.720627 C170.669398,153.754389 175.08103,149.912968 174.923472,143.53936 C174.78467,137.803487 171.547222,134.686084 163.507998,129.963086 C148.438672,121.124816 145.73017,113.850875 145.70391,104.131028 M28.2442004,209.886408 C9.75360884,194.742055 0,172.980253 0,146.968128 L0,23.3111251 C29.1820474,7.84040095 64.5238738,0 105.038864,0 C145.553855,0 180.895681,7.84040095 210.077729,23.3111251 L210.077729,146.968128 C210.077729,172.980253 200.32412,194.742055 181.833528,209.890159 C164.929774,223.747787 111.206146,247.317758 105.038864,250 C98.8715825,247.317758 45.1479547,223.747787 28.2442004,209.886408 Z" id="Shape" fill="#FFBE00"></path>
            </g>
        </g>
    </g>
</svg>