<?xml version="1.0" encoding="UTF-8"?>
<svg width="980px" height="680px" viewBox="0 0 980 680" version="1.1" xmlns="http://www.w3.org/2000/svg" xmlns:xlink="http://www.w3.org/1999/xlink">
    <title>DE VR pay</title>
    <defs>
        <linearGradient x1="50%" y1="0%" x2="50%" y2="100%" id="linearGradient-1">
            <stop stop-color="#FFFFFF" offset="0%"></stop>
            <stop stop-color="#EDEDED" offset="100%"></stop>
        </linearGradient>
        <rect id="path-2" x="0" y="0" width="900" height="600" rx="80"></rect>
        <filter x="-6.7%" y="-10.0%" width="113.3%" height="120.0%" filterUnits="objectBoundingBox" id="filter-3">
            <feMorphology radius="2.5" operator="dilate" in="SourceAlpha" result="shadowSpreadOuter1"></feMorphology>
            <feOffset dx="0" dy="0" in="shadowSpreadOuter1" result="shadowOffsetOuter1"></feOffset>
            <feGaussianBlur stdDeviation="17.5" in="shadowOffsetOuter1" result="shadowBlurOuter1"></feGaussianBlur>
            <feColorMatrix values="0 0 0 0 0   0 0 0 0 0   0 0 0 0 0  0 0 0 0.5 0" type="matrix" in="shadowBlurOuter1"></feColorMatrix>
        </filter>
        <polygon id="path-4" points="0 0 186.104059 0 186.104059 94.6394273 0 94.6394273"></polygon>
        <polygon id="path-6" points="0 330.382343 800 330.382343 800 0 0 0"></polygon>
    </defs>
    <g id="DE-VR-pay" stroke="none" stroke-width="1" fill="none" fill-rule="evenodd">
        <g transform="translate(40, 40)">
            <g id="Rectangle">
                <use fill="black" fill-opacity="1" filter="url(#filter-3)" xlink:href="#path-2"></use>
                <use fill="url(#linearGradient-1)" fill-rule="evenodd" xlink:href="#path-2"></use>
            </g>
            <g id="Logo" transform="translate(50, 135)">
                <polygon id="Fill-1" fill="#F35C19" points="0 312.206514 394.056176 312.206514 580.160234 60.472485"></polygon>
                <g id="Group-18">
                    <path d="M799.116216,126.186084 L799.116216,103.97949 L728.192209,103.97949 C726.184594,114.158453 724.577959,122.826511 723.935848,126.186084" id="Fill-2" fill="#F35C19"></path>
                    <polyline id="Fill-4" fill="#F35C19" points="613.011886 103.979129 613.011886 126.185722 687.630519 126.185722 682.650766 103.979129"></polyline>
                    <g id="Group-8" transform="translate(613.0118, 0)">
                        <mask id="mask-5" fill="white">
                            <use xlink:href="#path-4"></use>
                        </mask>
                        <g id="Clip-7"></g>
                        <path d="M36.6265648,51.6703149 L31.1645502,28.7240737 L77.5103942,28.7240737 L92.5300313,94.6394273 L93.1730462,94.6394273 L102.650292,52.4090596 C107.389818,33.2260814 109.236679,28.7240737 136.064491,28.7240737 L155.341393,28.7240737 C155.341393,28.7240737 151.486013,46.3961473 146.586636,65.5791255 C144.738871,72.8690365 128.593958,71.9957283 129.478104,65.1754349 C129.55848,64.4701053 130.280969,59.3305013 130.923984,55.6683867 C131.807226,50.3933161 125.622723,49.7557198 124.578727,54.9630571 C123.774958,58.6920019 120.241085,77.2030656 116.94744,94.6394273 L186.104059,94.6394273 L186.104059,-0.000270933264 L0,-0.000270933264 L0,94.6394273 L67.5499844,94.6394273 L57.9119851,51.70373" id="Fill-6" fill="#1B62B7" mask="url(#mask-5)"></path>
                    </g>
                    <path d="M225.702761,159.244457 L197.590726,159.244457 L242.972048,290.571229 L275.341348,290.571229 L320.160934,159.244457 L294.136891,159.244457 L267.55021,240.143324 C264.738826,249.651275 262.73121,256.504983 259.919826,266.18001 C256.144823,252.977432 253.413816,243.670875 249.478058,230.669691" id="Fill-9" fill="#1B62B7"></path>
                    <path d="M360.240905,179.704344 C364.658923,179.50295 369.156415,179.50295 373.574434,179.50295 C373.815564,179.50295 378.071926,179.50295 380.482329,179.872323 C394.45797,181.350715 396.706716,191.396018 396.706716,196.63677 C396.706716,197.74579 396.706716,202.381458 393.895332,206.480679 C393.49435,207.051445 393.49435,207.588796 392.931712,207.958168 C387.14819,215.416961 378.634564,215.416961 372.289307,215.416961 C368.192796,215.416961 364.337416,215.416961 360.240905,215.215567 L360.240905,179.704344 Z M412.851629,241.453647 C410.60198,236.414289 407.068107,228.048773 400.401342,225.630242 C398.31335,225.091987 396.144078,224.890594 395.582343,224.722615 C399.839608,224.353243 403.775365,223.782477 408.031726,221.732415 C410.040245,220.792277 411.003864,220.052629 412.128237,219.313884 C418.634248,214.677313 424.176639,206.480679 424.176639,194.015942 C424.176639,191.966784 424.176639,183.97064 420.080129,176.714144 C418.955755,174.664985 417.509875,172.447848 415.822864,170.768062 C404.819361,159.244367 385.863064,159.412346 374.377299,159.244367 L333.975731,159.244367 L333.975731,290.571139 L360.562412,290.571139 L360.562412,235.876938 C367.068423,235.876938 372.289307,235.876938 374.698807,236.414289 C376.546572,236.985055 378.23268,237.35533 380.080445,238.83282 C384.979821,242.562667 386.98834,248.139377 390.924097,257.646425 L403.534234,290.571139 L432.931396,290.571139 L412.851629,241.453647 Z" id="Fill-11" fill="#1B62B7"></path>
                    <mask id="mask-7" fill="white">
                        <use xlink:href="#path-6"></use>
                    </mask>
                    <g id="Clip-14"></g>
                    <polygon id="Fill-13" fill="#1B62B7" mask="url(#mask-7)" points="445.702378 248.710414 493.73433 248.710414 493.73433 234.936167 445.702378 234.936167"></polygon>
                    <path d="M536.867357,175.236113 C540.64236,174.86674 544.336987,174.665347 547.871763,174.665347 C555.100262,174.665347 563.293284,175.404091 570.36103,179.502408 C571.485403,180.242056 574.136033,181.55247 576.546436,184.340373 C579.11669,186.961201 582.087925,191.799166 581.927171,198.652875 C581.76732,205.001744 578.554052,210.209081 576.546436,212.628516 C570.200276,220.254384 564.417657,222.102149 550.281263,222.102149 C545.863244,222.102149 541.204998,221.93417 536.867357,221.564798 L536.867357,175.236113 Z M536.706603,237.926457 C540.963868,238.094436 545.301509,238.29583 549.557871,238.29583 C568.112284,238.29583 580.241063,234.768279 588.433182,228.049134 C594.538211,222.841796 601.605957,212.628516 601.605957,198.484896 C601.605957,195.864068 601.605957,183.769607 592.8512,173.556326 C590.682831,170.935499 586.907827,167.407948 581.204682,164.821438 C576.867041,162.940258 570.040426,161.461866 569.477787,161.260472 C561.847404,160.520824 553.654382,159.412707 537.670222,159.412707 C531.164212,159.412707 524.658201,159.614101 518.312944,159.782079 L518.312944,290.201224 L536.706603,290.201224 L536.706603,237.926457 Z" id="Fill-15" fill="#1B62B7" mask="url(#mask-7)"></path>
                    <path d="M677.429611,247.232112 C677.429611,253.548469 676.866973,257.277414 675.903354,260.233296 C675.581846,261.54371 674.457473,264.701889 671.486238,268.430834 C665.702716,276.057605 658.072332,278.644114 651.003684,278.644114 C642.811565,278.644114 631.807159,274.579212 631.807159,263.223496 C631.807159,252.070077 642.088173,247.232112 651.003684,245.182953 C653.573937,244.611284 657.911579,244.073933 664.015705,244.073933 C668.5141,244.073933 672.931216,244.241912 677.429611,244.611284 L677.429611,247.232112 Z M625.301148,215.786694 C629.236905,213.535239 640.803046,206.648115 652.851448,206.648115 C654.69831,206.648115 657.911579,207.051806 659.919194,207.421178 C665.300832,208.899571 671.806843,212.259143 674.778981,218.742576 C676.707122,222.841796 676.866973,228.049134 677.027727,232.348845 C671.486238,231.979472 666.104601,231.6101 660.481832,231.6101 C653.413183,231.6101 649.317576,232.147451 646.184684,232.71912 C633.333416,234.768279 624.176775,239.774222 619.197022,245.720304 C614.537873,251.129035 613.252746,257.277414 613.252746,262.65273 C613.252746,269.170481 615.501492,274.747191 616.787522,277.165722 C617.349257,277.90537 619.036268,281.432921 622.32901,284.423121 C628.674267,289.999831 637.429927,291.679617 643.935938,291.881011 C655.260948,292.250383 663.132463,288.890811 667.951462,285.531238 C672.208727,282.373059 674.778981,279.383762 678.553984,275.317957 L678.553984,290.570597 L693.814752,290.570597 L693.814752,223.412562 C692.851132,217.835853 692.128644,212.259143 689.317259,207.589157 C686.184368,202.012447 680.240995,197.745248 673.895738,195.326717 C667.550481,192.907283 661.04447,192.336517 654.53846,192.537911 C639.678673,192.907283 632.610024,197.006504 625.301148,200.702033 L625.301148,215.786694 Z" id="Fill-16" fill="#1B62B7" mask="url(#mask-7)"></path>
                    <path d="M782.168527,194.016213 C775.501763,212.628425 770.602386,225.831906 764.337506,244.612097 C760.80273,255.396144 758.553984,263.022012 755.180865,273.806059 C754.618227,270.850177 753.172346,263.022012 750.360962,254.488518 C749.075835,250.188807 747.710332,247.232022 746.265354,243.133704 C739.357459,225.260237 735.100195,212.427031 728.996068,194.217607 L709.959394,194.217607 L746.666336,293.527291 C745.140078,297.45763 742.329597,305.453774 738.794821,309.350697 C738.473314,309.922366 737.911579,310.661111 736.626452,311.770131 C734.136575,313.617896 730.441949,316.036427 724.658427,316.036427 C722.088173,316.036427 719.276789,315.499076 716.706535,314.92831 L715.582162,328.870536 C719.839427,329.810674 722.810662,330.382658 727.067926,330.382658 C728.996068,330.382658 739.357459,330.550322 747.550481,323.124944 C750.9236,319.967669 754.056492,315.129704 754.296719,314.558034 C755.341619,312.508876 759.277376,305.453774 762.087857,298.365256 C763.935622,293.930079 764.899241,290.738485 766.345122,286.270796 C771.164121,272.529964 774.698897,263.022012 779.919781,249.28118 C787.389411,228.989182 792.610295,214.47619 799.999548,194.016213" id="Fill-17" fill="#1B62B7" mask="url(#mask-7)"></path>
                </g>
            </g>
        </g>
    </g>
</svg>