<?xml version="1.0" encoding="UTF-8"?>
<svg width="980px" height="680px" viewBox="0 0 980 680" version="1.1" xmlns="http://www.w3.org/2000/svg" xmlns:xlink="http://www.w3.org/1999/xlink">
    <title>DE Vorkasse Icon</title>
    <defs>
        <linearGradient x1="50%" y1="0%" x2="50%" y2="100%" id="linearGradient-1">
            <stop stop-color="#FFFFFF" offset="0%"></stop>
            <stop stop-color="#EDEDED" offset="100%"></stop>
        </linearGradient>
        <rect id="path-2" x="0" y="0" width="900" height="600" rx="80"></rect>
        <filter x="-6.7%" y="-10.0%" width="113.3%" height="120.0%" filterUnits="objectBoundingBox" id="filter-3">
            <feMorphology radius="2.5" operator="dilate" in="SourceAlpha" result="shadowSpreadOuter1"></feMorphology>
            <feOffset dx="0" dy="0" in="shadowSpreadOuter1" result="shadowOffsetOuter1"></feOffset>
            <feGaussianBlur stdDeviation="17.5" in="shadowOffsetOuter1" result="shadowBlurOuter1"></feGaussianBlur>
            <feColorMatrix values="0 0 0 0 0   0 0 0 0 0   0 0 0 0 0  0 0 0 0.5 0" type="matrix" in="shadowBlurOuter1"></feColorMatrix>
        </filter>
    </defs>
    <g id="DE-Vorkasse-Icon" stroke="none" stroke-width="1" fill="none" fill-rule="evenodd">
        <g transform="translate(40, 40)">
            <g id="Rectangle">
                <use fill="black" fill-opacity="1" filter="url(#filter-3)" xlink:href="#path-2"></use>
                <use fill="url(#linearGradient-1)" fill-rule="evenodd" xlink:href="#path-2"></use>
            </g>
            <g id="Logo" transform="translate(126.8953, 50.5)" fill-rule="nonzero">
                <g id="vorkasse">
                    <path d="M0,378.682801 L19.3114119,378.682801 L46.6279815,470.288217 L46.9580914,470.288217 L74.3571885,378.682801 L93.6686008,378.682801 L53.8903934,499.007752 L39.6956802,499.007752 L0,378.682801 Z M91.4403605,456.093502 C91.4403605,447.070462 92.1831,440.13823 93.6686008,435.296598 C95.2091202,430.565004 97.5748823,426.576219 100.765957,423.330125 C103.131755,420.469161 106.432817,417.910837 110.669246,415.655077 C114.850655,413.509353 120.214881,412.38149 126.762089,412.271453 C133.52937,412.38149 139.003633,413.509353 143.185042,415.655077 C147.311432,417.910837 150.50246,420.469161 152.75822,423.330125 C156.169369,426.576219 158.590149,430.565004 160.020631,435.296598 C161.396095,440.13823 162.083817,447.070462 162.083817,456.093502 C162.083817,465.116544 161.396095,471.99376 160.020631,476.725353 C158.590149,481.456948 156.169369,485.555769 152.75822,489.021936 C151.657849,490.287363 150.309915,491.525262 148.714377,492.73567 C147.283896,494.111133 145.440802,495.294014 143.185042,496.284348 C139.003633,498.650146 133.52937,499.888044 126.762089,499.998081 C120.214881,499.888044 114.850655,498.650146 110.669246,496.284348 C106.432817,494.138624 103.131755,491.717844 100.765957,489.021936 C97.5748823,485.555769 95.2091202,481.456948 93.6686008,476.725353 C92.1831,471.99376 91.4403605,465.116544 91.4403605,456.093502 Z M144.83559,456.258558 C144.83559,450.1515 144.560501,445.695065 144.010316,442.889119 C143.460131,440.19321 142.332267,437.827448 140.626693,435.791762 C139.361265,433.866113 137.490664,432.353126 135.014829,431.252756 C132.649031,430.097365 129.898145,429.51968 126.762089,429.51968 C123.846106,429.51968 121.150239,430.097365 118.674403,431.252756 C116.308606,432.353126 114.382986,433.866113 112.897486,435.791762 C111.411985,437.827448 110.33914,440.19321 109.678917,442.889119 C109.018694,445.695065 108.688588,450.096482 108.688588,456.093502 C108.688588,462.035506 109.018694,466.381906 109.678917,469.132832 C110.33914,471.938778 111.411985,474.414577 112.897486,476.560299 C114.382986,478.210855 116.308606,479.668824 118.674403,480.934252 C121.150239,482.144659 123.846106,482.749854 126.762089,482.749854 C129.898145,482.749854 132.649031,482.144659 135.014829,480.934252 C137.490664,479.668824 139.361265,478.210855 140.626693,476.560299 C142.332267,474.414577 143.460131,471.938778 144.010316,469.132832 C144.560501,466.381906 144.83559,462.090523 144.83559,456.258558 Z M180.157318,413.344309 L197.405544,413.344309 L197.405544,422.422323 L197.735655,422.422323 C203.402565,415.655044 210.829956,412.271453 220.018052,412.271453 C226.89537,412.38149 232.892302,414.582198 238.009026,418.873645 L225.464861,433.811105 C221.833637,430.950141 218.064923,429.51968 214.158607,429.51968 C209.757123,429.51968 205.98841,430.950141 202.852352,433.811105 C199.331167,436.617051 197.515582,441.156013 197.405544,447.428127 L197.405544,499.007752 L180.157318,499.007752 L180.157318,413.344309 Z M245.931656,378.682801 L263.179883,378.682801 L263.179883,453.535154 L263.509994,453.535154 L296.438427,413.344309 L317.070277,413.344309 L287.525468,446.767907 L321.114119,499.007752 L299.49194,499.007752 L276.714377,458.981962 L263.179883,474.332059 L263.179883,499.007752 L245.931656,499.007752 L245.931656,378.682801 Z M378.635719,491.415232 L378.305609,491.415232 C376.710071,494.331214 374.234274,496.476905 370.878143,497.852368 C367.577031,499.282851 363.01056,499.998081 357.178594,499.998081 C347.605368,499.888044 340.232993,497.357229 335.061251,492.40556 C329.614415,487.563929 326.891038,481.374435 326.891038,473.836895 C326.891038,466.629465 329.256799,460.660044 333.988394,455.928448 C338.719989,451.086817 345.652221,448.611019 354.785299,448.500982 L378.635719,448.500982 L378.635719,439.505496 C378.745755,431.967955 372.886369,428.309277 361.057382,428.529352 C356.765936,428.529352 353.382346,428.969493 350.906512,429.84979 C348.32064,430.895142 346.284985,432.655709 344.799484,435.131544 L331.26499,424.815618 C337.812197,416.232726 347.467806,412.051378 360.232108,412.271453 C371.015742,412.161416 379.626015,414.197072 386.063186,418.378481 C392.500355,422.669927 395.773908,430.042302 395.883946,440.495824 L395.883946,499.007752 L378.635719,499.007752 L378.635719,491.415232 Z M378.635719,462.695696 L358.003869,462.695696 C347.990494,462.915769 343.038898,466.354377 343.148936,473.011621 C343.148936,475.927604 344.441852,478.403401 347.027724,480.439087 C349.503557,482.694847 353.602377,483.822711 359.324307,483.822711 C366.531736,483.932747 371.620875,483.079973 374.591875,481.264361 C377.287785,479.448749 378.635719,475.32242 378.635719,468.885251 L378.635719,462.695696 Z M420.724693,472.846566 C427.712048,480.164032 436.734954,483.822711 447.793682,483.822711 C452.74535,483.822711 456.789152,482.8599 459.925209,480.934252 C463.061265,479.008602 464.629271,476.312734 464.629271,472.846566 C464.629271,469.765527 463.693969,467.619836 461.82334,466.409428 C459.89769,465.144002 457.339367,464.456281 454.148291,464.346244 L438.963249,463.025805 C431.755819,462.365583 425.896433,459.944803 421.384913,455.763394 C416.763355,451.692021 414.397593,445.997688 414.287557,438.680222 C414.397593,429.877255 417.506094,423.275128 423.613152,418.873645 C429.555156,414.472161 437.092582,412.271453 446.225661,412.271453 C450.186996,412.271453 453.735638,412.519032 456.871695,413.0142 C460.007752,413.564385 462.9512,414.334633 465.702127,415.324967 C470.983907,417.47069 475.715432,420.35912 479.89684,423.990344 L469.250805,436.451982 C465.949693,434.086185 462.456068,432.133056 458.769826,430.592537 C455.138602,429.217073 450.957255,428.529352 446.225661,428.529352 C440.833844,428.529352 437.06513,429.492162 434.919406,431.41781 C432.663646,433.343459 431.535783,435.819257 431.535783,438.845276 C431.425746,440.770925 432.27852,442.448965 434.094133,443.879448 C435.744689,445.474986 438.660627,446.492814 442.842036,446.932962 L457.03675,448.005818 C465.949755,448.666041 472.386827,451.361909 476.348162,456.093502 C480.034404,460.715061 481.877498,466.574448 481.877498,473.67184 C481.767461,481.97964 478.383872,488.389204 471.726627,492.900724 C465.124402,497.522282 456.679183,499.888044 446.390715,499.998081 C432.416006,499.998081 419.844457,494.881433 408.675693,484.647984 L420.724693,472.846566 Z M501.84913,472.846566 C508.836484,480.164032 517.85939,483.822711 528.918117,483.822711 C533.869786,483.822711 537.913589,482.8599 541.049645,480.934252 C544.185703,479.008602 545.753707,476.312734 545.753707,472.846566 C545.753707,469.765527 544.818405,467.619836 542.947775,466.409428 C541.022126,465.144002 538.463802,464.456281 535.272726,464.346244 L520.087685,463.025805 C512.880257,462.365583 507.020869,459.944803 502.509348,455.763394 C497.88779,451.692021 495.522029,445.997688 495.411992,438.680222 C495.522029,429.877255 498.63053,423.275128 504.737588,418.873645 C510.679591,414.472161 518.217018,412.271453 527.350096,412.271453 C531.311432,412.271453 534.860074,412.519032 537.996132,413.0142 C541.132188,413.564385 544.075636,414.334633 546.826563,415.324967 C552.108343,417.47069 556.839867,420.35912 561.021276,423.990344 L550.375241,436.451982 C547.074129,434.086185 543.580504,432.133056 539.894261,430.592537 C536.263038,429.217073 532.08169,428.529352 527.350096,428.529352 C521.958278,428.529352 518.189565,429.492162 516.043843,431.41781 C513.788082,433.343459 512.660219,435.819257 512.660219,438.845276 C512.550182,440.770925 513.402957,442.448965 515.218569,443.879448 C516.869124,445.474986 519.785064,446.492814 523.966473,446.932962 L538.161186,448.005818 C547.07419,448.666041 553.511262,451.361909 557.472598,456.093502 C561.15884,460.715061 563.001934,466.574448 563.001934,473.67184 C562.891897,481.97964 559.508307,488.389204 552.851063,492.900724 C546.248838,497.522282 537.803619,499.888044 527.515151,499.998081 C513.540441,499.998081 500.968893,494.881433 489.800128,484.647984 L501.84913,472.846566 Z M593.454545,462.695696 C593.454545,469.573014 595.435183,474.799696 599.396518,478.375902 C603.082761,482.007125 607.924319,483.822711 613.92134,483.822711 C620.908695,483.822711 627.153207,481.044315 632.655061,475.487444 L645.116698,486.133477 C636.368749,495.486631 626.080436,500.108118 614.25145,499.998081 C609.73993,499.998081 605.338512,499.337869 601.047066,498.017423 C598.901344,497.302182 596.810669,496.339372 594.774984,495.128964 C592.62926,494.083612 590.621114,492.790696 588.750483,491.250176 C585.11926,488.059101 582.175811,483.602665 579.920051,477.880737 C577.444216,472.378883 576.206319,465.22658 576.206319,456.423613 C576.206319,447.950757 577.279163,440.90849 579.424887,435.296598 C581.57061,429.57467 584.321496,425.063217 587.677628,421.762104 C591.088776,418.405973 594.912507,415.985194 599.148936,414.499693 C603.330345,413.014192 607.456673,412.271453 611.528046,412.271453 C621.321346,412.38149 629.601513,415.600026 636.368794,421.927159 C643.246111,428.364328 646.739736,437.222182 646.849773,448.500982 L646.849773,462.695696 L593.454545,462.695696 Z M629.601547,448.500982 C629.381473,441.84374 627.593397,436.809618 624.237266,433.398468 C620.936153,430.152373 616.699789,428.529352 611.528046,428.529352 C606.356303,428.529352 602.119939,430.152373 598.818826,433.398468 C595.572732,436.809618 593.784657,441.84374 593.454545,448.500982 L629.601547,448.500982 Z" id="Shape" fill="#000000"></path>
                    <g id="fd3c0bb7-8527-4385-86a2-7781b0b2e612" transform="translate(3.8028, 0)">
                        <path d="M3.2925209,96.9386597 C7.68254876,76.221264 26.2988169,58.3320297 59.1413253,43.2709568 L414.060477,43.2709568 L462.230071,93.5544194 L462.230071,306.832334 L414.060477,341.259375 L48.0610332,341.259375 L3.2925209,306.832334 C-1.09750697,187.620614 -1.09750697,117.656056 3.2925209,96.9386597 Z" id="Path-2" fill="#FFFFFF"></path>
                        <path d="M307.981784,80.4891729 C313.144533,79.5738267 318.341786,80.188664 323.000969,82.098296 C327.841994,84.0824581 332.101692,87.4639807 335.142305,91.9773403 C338.18939,96.5003073 339.711827,101.712883 339.711827,106.925027 C339.711827,112.137172 338.18939,117.349748 335.142305,121.872715 C332.101692,126.386073 327.841994,129.767596 323.000969,131.751759 C318.341786,133.66139 313.144533,134.276228 307.981784,133.360882 L71.673271,133.360882 C66.5105211,134.276228 61.3132691,133.66139 56.6540861,131.751759 C51.8130599,129.767596 47.5533624,126.386073 44.5127499,121.872715 C41.4656651,117.349748 39.9432284,112.137172 39.9432284,106.925027 C39.9432284,101.712883 41.4656651,96.5003073 44.5127499,91.9773403 C47.5533624,87.4639807 51.8130599,84.0824581 56.6540861,82.098296 C61.3132691,80.188664 66.5105211,79.5738267 71.673271,80.4891729 L307.981784,80.4891729 Z" id="Path" stroke="#EC008C" fill="#FFF875"></path>
                        <path d="M253.21592,169.244304 C260.666284,169.244304 267.409628,172.246655 272.291493,177.095578 C277.18721,181.958261 280.211958,188.676914 280.211958,196.096198 C280.211958,203.515483 277.18721,210.234135 272.291493,215.096818 C267.409628,219.945741 260.666284,222.948092 253.21592,222.948092 L70.8695742,222.948092 C63.4192106,222.948092 56.6758665,219.945741 51.7940018,215.096818 C46.8982848,210.234135 43.8735369,203.515483 43.8735369,196.096198 C43.8735369,188.676912 46.8982848,181.958261 51.7940018,177.095578 C56.6758665,172.246655 63.4192106,169.244304 70.8695742,169.244304 L253.21592,169.244304 Z" id="Path" stroke="#EC008C" fill="#FFF875"></path>
                        <path d="M451.618798,208.716069 L451.618798,294.004201 C451.31301,318.755898 431.023746,338.66099 406.102023,338.659127 L59.1413253,338.659127 C34.0031043,338.659127 13.6245498,318.418079 13.6245498,293.449482 L13.6245498,98.7429137 C13.6245498,73.7743163 34.0031043,53.5332688 59.1413253,53.5332688 L406.102023,53.5332688 C431.240243,53.5332688 451.618798,73.7743163 451.618798,98.7429137 L451.618798,130.639289 L462.230071,120.099617 L462.230071,98.7429137 C462.230071,68.1065978 437.225709,43.2709568 406.381267,43.2709568 L59.1413253,43.2709568 C28.2968823,43.2709568 3.2925209,68.1065978 3.2925209,98.7429137 L3.2925209,294.004201 C3.2925209,324.640518 28.2968823,349.476159 59.1413253,349.476159 L406.102023,349.476159 C436.946465,349.476159 461.950827,324.640518 461.950827,294.004201 L461.950827,205.526431 L451.618798,208.716069 Z" id="Path" fill="#4D4D4D"></path>
                        <path d="M308.292946,258.831515 C313.271032,258.474752 318.145043,259.499379 322.436752,261.663035 C326.804626,263.865087 330.569136,267.246596 333.229878,271.551731 C335.895786,275.865228 337.227893,280.739802 337.227893,285.614069 C337.227893,290.488335 335.895786,295.36291 333.229878,299.676405 C330.569136,303.981542 326.804626,307.363049 322.436752,309.565102 C318.145043,311.728757 313.271032,312.753386 308.292946,312.396622 L71.3621086,312.396622 C66.3840226,312.753386 61.5100114,311.728757 57.2183024,309.565102 C52.8504291,307.363049 49.0859182,303.981542 46.4251771,299.676405 C43.7592696,295.36291 42.4271626,290.488335 42.4271626,285.614069 C42.4271626,280.739802 43.7592696,275.865228 46.4251771,271.551731 C49.0859182,267.246596 52.8504291,263.865087 57.2183024,261.663035 C61.5100114,259.499379 66.3840226,258.474752 71.3621086,258.831515 L308.292946,258.831515 Z" id="Path" stroke="#EC008C" fill="#FFF875"></path>
                        <polygon id="Path" fill="#4D4D4D" points="430.95474 161.426225 414.060477 214.124584 467.116841 197.344317"></polygon>
                        <path d="M470.747014,189.439563 L438.633951,157.404508 L585.935173,7.9075844 C588.953765,4.85837002 593.078789,3.14098713 597.384178,3.14098713 C601.689566,3.14098713 605.81459,4.85837002 608.833182,7.9075844 L621.399164,20.3887746 C627.719616,26.6703127 627.719616,36.8507389 621.399164,43.1322769 L470.747014,189.439563 Z" id="Path" fill="#4D4D4D"></path>
                        <path d="M470.747014,193.877319 L433.886802,157.404508 L583.561598,5.82738596 C587.238188,2.10030177 592.270433,0 597.523799,0 C602.777165,0 607.809411,2.10030177 611.486001,5.82738596 L624.051982,18.4472561 C627.914026,22.0393851 630.105582,27.0599461 630.105582,32.3152453 C630.105582,37.5705446 627.914026,42.5911056 624.051982,46.1832345 L470.747014,193.877319 Z M442.822611,157.404508 L470.747014,185.140486 L619.165211,40.7747187 C624.187726,35.7464267 624.187726,27.635945 619.165211,22.6076529 L606.459608,10.1264626 C601.397156,5.13783817 593.231576,5.13783817 588.169124,10.1264626 L442.822611,157.404508 Z" id="Shape" fill="#4D4D4D"></path>
                        <path d="M458.73952,164.893222 C453.50853,159.518036 453.50853,150.991903 458.73952,145.616718 L584.39933,20.8048143 C589.967522,16.8828981 597.574375,17.5348759 602.383839,22.3462535 C607.193302,27.157631 607.795163,34.7176352 603.80679,40.2199992 L478.14698,165.031902 C472.69772,170.189112 464.113512,170.127772 458.73952,164.893222 L458.73952,164.893222 Z" id="Path" fill="#3D502B"></path>
                        <g id="€" transform="translate(306.0235, 148.1749)">
                            <g id="path-1-link" fill="#000000">
                                <path d="M43.9950827,14.8043145 C39.1398806,14.8043145 35.1403665,16.2071291 31.9964245,19.0128001 C28.8524813,21.8184699 26.8228772,25.8876265 25.9075523,31.2203903 L49.9645652,31.2203903 L49.9645652,41.726679 L25.0121298,41.726679 L24.8927402,43.8159977 L24.8927402,46.621654 L25.0121298,48.5915831 L46.203791,48.5915831 L46.203791,59.2172614 L26.0269419,59.2172614 C28.0565765,68.8878713 34.4438579,73.7231024 45.1889798,73.7231024 C50.8799137,73.7231024 56.3518849,72.588913 61.6050546,70.3204981 L61.6050546,85.6023718 C56.9886328,87.9503799 51.1584962,89.1243661 44.1144723,89.1243661 C34.3642705,89.1243661 26.3453458,86.4779226 20.0574606,81.1849557 C13.7695742,75.8919882 9.80985774,68.5694967 8.17819081,59.2172614 L0,59.2172614 L0,48.5915831 L7.04398899,48.5915831 C6.88480173,47.6762582 6.80520978,46.4425781 6.80520978,44.8905042 L6.92459939,41.726679 L0,41.726679 L0,31.2203903 L7.9394116,31.2203903 C9.41189129,21.5895781 13.3716077,13.9785648 19.8186813,8.38712178 C26.2657539,2.79567872 34.3244739,0 43.9950827,0 C51.4768719,0 58.4809933,1.63164217 65.0076601,4.89497496 L59.1575671,18.7441726 C56.4115915,17.5104744 53.8447404,16.5454172 51.4569359,15.8489738 C49.0691314,15.1525316 46.5818721,14.8043145 43.9950827,14.8043145 Z" id="path-1"></path>
                            </g>
                            <g id="path-1-link" fill="#4D4D4D">
                                <path d="M43.9950827,14.8043145 C39.1398806,14.8043145 35.1403665,16.2071291 31.9964245,19.0128001 C28.8524813,21.8184699 26.8228772,25.8876265 25.9075523,31.2203903 L49.9645652,31.2203903 L49.9645652,41.726679 L25.0121298,41.726679 L24.8927402,43.8159977 L24.8927402,46.621654 L25.0121298,48.5915831 L46.203791,48.5915831 L46.203791,59.2172614 L26.0269419,59.2172614 C28.0565765,68.8878713 34.4438579,73.7231024 45.1889798,73.7231024 C50.8799137,73.7231024 56.3518849,72.588913 61.6050546,70.3204981 L61.6050546,85.6023718 C56.9886328,87.9503799 51.1584962,89.1243661 44.1144723,89.1243661 C34.3642705,89.1243661 26.3453458,86.4779226 20.0574606,81.1849557 C13.7695742,75.8919882 9.80985774,68.5694967 8.17819081,59.2172614 L0,59.2172614 L0,48.5915831 L7.04398899,48.5915831 C6.88480173,47.6762582 6.80520978,46.4425781 6.80520978,44.8905042 L6.92459939,41.726679 L0,41.726679 L0,31.2203903 L7.9394116,31.2203903 C9.41189129,21.5895781 13.3716077,13.9785648 19.8186813,8.38712178 C26.2657539,2.79567872 34.3244739,0 43.9950827,0 C51.4768719,0 58.4809933,1.63164217 65.0076601,4.89497496 L59.1575671,18.7441726 C56.4115915,17.5104744 53.8447404,16.5454172 51.4569359,15.8489738 C49.0691314,15.1525316 46.5818721,14.8043145 43.9950827,14.8043145 Z" id="path-1"></path>
                            </g>
                        </g>
                    </g>
                </g>
            </g>
        </g>
    </g>
</svg>