<?xml version="1.0" encoding="UTF-8"?>
<svg width="980px" height="680px" viewBox="0 0 980 680" version="1.1" xmlns="http://www.w3.org/2000/svg" xmlns:xlink="http://www.w3.org/1999/xlink">
    <title>DE Vorkasse</title>
    <defs>
        <linearGradient x1="50%" y1="0%" x2="50%" y2="100%" id="linearGradient-1">
            <stop stop-color="#FFFFFF" offset="0%"></stop>
            <stop stop-color="#EDEDED" offset="100%"></stop>
        </linearGradient>
        <rect id="path-2" x="0" y="0.00154821673" width="900" height="600" rx="80"></rect>
        <filter x="-6.7%" y="-10.0%" width="113.3%" height="120.0%" filterUnits="objectBoundingBox" id="filter-3">
            <feMorphology radius="2.5" operator="dilate" in="SourceAlpha" result="shadowSpreadOuter1"></feMorphology>
            <feOffset dx="0" dy="0" in="shadowSpreadOuter1" result="shadowOffsetOuter1"></feOffset>
            <feGaussianBlur stdDeviation="17.5" in="shadowOffsetOuter1" result="shadowBlurOuter1"></feGaussianBlur>
            <feColorMatrix values="0 0 0 0 0   0 0 0 0 0   0 0 0 0 0  0 0 0 0.5 0" type="matrix" in="shadowBlurOuter1"></feColorMatrix>
        </filter>
    </defs>
    <g id="DE-Vorkasse" stroke="none" stroke-width="1" fill="none" fill-rule="evenodd">
        <g transform="translate(40, 39.9985)">
            <g id="Rectangle">
                <use fill="black" fill-opacity="1" filter="url(#filter-3)" xlink:href="#path-2"></use>
                <use fill="url(#linearGradient-1)" fill-rule="evenodd" xlink:href="#path-2"></use>
            </g>
            <path d="M900,442.001548 L900,520.001548 C900,564.184328 864.18278,600.001548 820,600.001548 L80,600.001548 C35.81722,600.001548 0,564.184328 0,520.001548 L0,442.001548 L900,442.001548 Z" id="Path" fill="#FF6600"></path>
            <g id="Vorkasseskonto" transform="translate(59.5, 0)">
                <g transform="translate(3, 482.0008)" fill="#FFFFFF" fill-rule="nonzero">
                    <polygon id="Path" points="0 0 15.5 0 29.5 56 38 56 52 0 67.5 0 49.5 70 18 70"></polygon>
                    <path d="M96,71.5 C92,71.5 88.2833333,70.8 84.85,69.4 C81.4166667,68 78.45,66.0833333 75.95,63.65 C73.45,61.2166667 71.5,58.35 70.1,55.05 C68.7,51.75 68,48.2333333 68,44.5 C68,40.7666667 68.7,37.25 70.1,33.95 C71.5,30.65 73.45,27.7833333 75.95,25.35 C78.45,22.9166667 81.4166667,21 84.85,19.6 C88.2833333,18.2 92,17.5 96,17.5 C100,17.5 103.7,18.2 107.1,19.6 C110.5,21 113.45,22.9166667 115.95,25.35 C118.45,27.7833333 120.416667,30.65 121.85,33.95 C123.283333,37.25 124,40.7666667 124,44.5 C124,48.2333333 123.283333,51.75 121.85,55.05 C120.416667,58.35 118.45,61.2166667 115.95,63.65 C113.45,66.0833333 110.5,68 107.1,69.4 C103.7,70.8 100,71.5 96,71.5 Z M96,59.5 C97.8666667,59.5 99.6166667,59.1333333 101.25,58.4 C102.883333,57.6666667 104.316667,56.65 105.55,55.35 C106.783333,54.05 107.75,52.4833333 108.45,50.65 C109.15,48.8166667 109.5,46.7666667 109.5,44.5 C109.5,42.2333333 109.15,40.1833333 108.45,38.35 C107.75,36.5166667 106.783333,34.95 105.55,33.65 C104.316667,32.35 102.883333,31.3333333 101.25,30.6 C99.6166667,29.8666667 97.8666667,29.5 96,29.5 C94.1333333,29.5 92.3833333,29.8666667 90.75,30.6 C89.1166667,31.3333333 87.6833333,32.35 86.45,33.65 C85.2166667,34.95 84.25,36.5166667 83.55,38.35 C82.85,40.1833333 82.5,42.2333333 82.5,44.5 C82.5,46.7666667 82.85,48.8166667 83.55,50.65 C84.25,52.4833333 85.2166667,54.05 86.45,55.35 C87.6833333,56.65 89.1166667,57.6666667 90.75,58.4 C92.3833333,59.1333333 94.1333333,59.5 96,59.5 Z" id="Shape"></path>
                    <path d="M132,19 L146,19 L146,26.5 L146.5,26.5 C147.1,24.9 148,23.5 149.2,22.3 C150.2,21.2333333 151.533333,20.25 153.2,19.35 C154.866667,18.45 156.966667,18 159.5,18 L165.5,18 L165.5,31.5 L158,31.5 C154.2,31.5 151.25,32.5333333 149.15,34.6 C147.05,36.6666667 146,39.4666667 146,43 L146,70 L132,70 L132,19 Z" id="Path"></path>
                    <polygon id="Path" points="172.5 0 186.5 0 186.5 38 192.5 38 206 19 221.5 19 205 42.5 223 70 207 70 194 50 186.5 50 186.5 70 172.5 70"></polygon>
                    <path d="M246,71.5 C242.733333,71.5 239.683333,70.8666667 236.85,69.6 C234.016667,68.3333333 231.533333,66.5333333 229.4,64.2 C227.266667,61.8666667 225.583333,59.0333333 224.35,55.7 C223.116667,52.3666667 222.5,48.6333333 222.5,44.5 C222.5,40.3666667 223.116667,36.6333333 224.35,33.3 C225.583333,29.9666667 227.266667,27.1333333 229.4,24.8 C231.533333,22.4666667 234.016667,20.6666667 236.85,19.4 C239.683333,18.1333333 242.733333,17.5 246,17.5 C248.8,17.5 251.183333,17.9166667 253.15,18.75 C255.116667,19.5833333 256.766667,20.5 258.1,21.5 C259.633333,22.7 260.933333,24.0333333 262,25.5 L262.5,25.5 L262.5,19 L276.5,19 L276.5,70 L262.5,70 L262.5,63.5 L262,63.5 C260.933333,64.9666667 259.633333,66.3 258.1,67.5 C256.766667,68.5 255.116667,69.4166667 253.15,70.25 C251.183333,71.0833333 248.8,71.5 246,71.5 Z M249.5,59.5 C253.3,59.5 256.416667,58.2 258.85,55.6 C261.283333,53 262.5,49.3 262.5,44.5 C262.5,39.7 261.283333,36 258.85,33.4 C256.416667,30.8 253.3,29.5 249.5,29.5 C245.966667,29.5 243,30.8 240.6,33.4 C238.2,36 237,39.7 237,44.5 C237,49.3 238.2,53 240.6,55.6 C243,58.2 245.966667,59.5 249.5,59.5 Z" id="Shape"></path>
                    <path d="M309.5,71.5 C306.766667,71.5 304.3,71.25 302.1,70.75 C299.9,70.25 297.95,69.5666667 296.25,68.7 C294.55,67.8333333 293.05,66.8666667 291.75,65.8 C290.45,64.7333333 289.366667,63.6333333 288.5,62.5 C286.366667,59.8333333 284.866667,56.8333333 284,53.5 L298.5,53.5 C299.033333,54.7666667 299.766667,55.8666667 300.7,56.8 C301.5,57.6 302.6,58.3333333 304,59 C305.4,59.6666667 307.233333,60 309.5,60 C312.766667,60 315,59.55 316.2,58.65 C317.4,57.75 318,56.5333333 318,55 C318,53.6666667 317.216667,52.6666667 315.65,52 C314.083333,51.3333333 312.133333,50.7333333 309.8,50.2 C307.466667,49.6666667 304.95,49.1 302.25,48.5 C299.55,47.9 297.033333,47 294.7,45.8 C292.366667,44.6 290.416667,43 288.85,41 C287.283333,39 286.5,36.3333333 286.5,33 C286.5,31 286.966667,29.0666667 287.9,27.2 C288.833333,25.3333333 290.2,23.6833333 292,22.25 C293.8,20.8166667 296.033333,19.6666667 298.7,18.8 C301.366667,17.9333333 304.466667,17.5 308,17.5 C310.666667,17.5 313.066667,17.7333333 315.2,18.2 C317.333333,18.6666667 319.216667,19.3 320.85,20.1 C322.483333,20.9 323.9,21.8 325.1,22.8 C326.3,23.8 327.3,24.8 328.1,25.8 C330.033333,28.2 331.333333,30.9333333 332,34 L318,34 C317.6,33.0666667 317,32.2333333 316.2,31.5 C315.466667,30.9 314.45,30.3333333 313.15,29.8 C311.85,29.2666667 310.133333,29 308,29 C305.466667,29 303.666667,29.4166667 302.6,30.25 C301.533333,31.0833333 301,32 301,33 C301,34.3333333 301.783333,35.3333333 303.35,36 C304.916667,36.6666667 306.866667,37.2666667 309.2,37.8 C311.533333,38.3333333 314.05,38.9 316.75,39.5 C319.45,40.1 321.966667,41 324.3,42.2 C326.633333,43.4 328.583333,45 330.15,47 C331.716667,49 332.5,51.6666667 332.5,55 C332.5,57.1333333 332,59.1833333 331,61.15 C330,63.1166667 328.533333,64.8666667 326.6,66.4 C324.666667,67.9333333 322.266667,69.1666667 319.4,70.1 C316.533333,71.0333333 313.233333,71.5 309.5,71.5 Z" id="Path"></path>
                    <path d="M362.5,71.5 C359.766667,71.5 357.3,71.25 355.1,70.75 C352.9,70.25 350.95,69.5666667 349.25,68.7 C347.55,67.8333333 346.05,66.8666667 344.75,65.8 C343.45,64.7333333 342.366667,63.6333333 341.5,62.5 C339.366667,59.8333333 337.866667,56.8333333 337,53.5 L351.5,53.5 C352.033333,54.7666667 352.766667,55.8666667 353.7,56.8 C354.5,57.6 355.6,58.3333333 357,59 C358.4,59.6666667 360.233333,60 362.5,60 C365.766667,60 368,59.55 369.2,58.65 C370.4,57.75 371,56.5333333 371,55 C371,53.6666667 370.216667,52.6666667 368.65,52 C367.083333,51.3333333 365.133333,50.7333333 362.8,50.2 C360.466667,49.6666667 357.95,49.1 355.25,48.5 C352.55,47.9 350.033333,47 347.7,45.8 C345.366667,44.6 343.416667,43 341.85,41 C340.283333,39 339.5,36.3333333 339.5,33 C339.5,31 339.966667,29.0666667 340.9,27.2 C341.833333,25.3333333 343.2,23.6833333 345,22.25 C346.8,20.8166667 349.033333,19.6666667 351.7,18.8 C354.366667,17.9333333 357.466667,17.5 361,17.5 C363.666667,17.5 366.066667,17.7333333 368.2,18.2 C370.333333,18.6666667 372.216667,19.3 373.85,20.1 C375.483333,20.9 376.9,21.8 378.1,22.8 C379.3,23.8 380.3,24.8 381.1,25.8 C383.033333,28.2 384.333333,30.9333333 385,34 L371,34 C370.6,33.0666667 370,32.2333333 369.2,31.5 C368.466667,30.9 367.45,30.3333333 366.15,29.8 C364.85,29.2666667 363.133333,29 361,29 C358.466667,29 356.666667,29.4166667 355.6,30.25 C354.533333,31.0833333 354,32 354,33 C354,34.3333333 354.783333,35.3333333 356.35,36 C357.916667,36.6666667 359.866667,37.2666667 362.2,37.8 C364.533333,38.3333333 367.05,38.9 369.75,39.5 C372.45,40.1 374.966667,41 377.3,42.2 C379.633333,43.4 381.583333,45 383.15,47 C384.716667,49 385.5,51.6666667 385.5,55 C385.5,57.1333333 385,59.1833333 384,61.15 C383,63.1166667 381.533333,64.8666667 379.6,66.4 C377.666667,67.9333333 375.266667,69.1666667 372.4,70.1 C369.533333,71.0333333 366.233333,71.5 362.5,71.5 Z" id="Path"></path>
                    <path d="M418,71.5 C414.133333,71.5 410.516667,70.8 407.15,69.4 C403.783333,68 400.866667,66.0833333 398.4,63.65 C395.933333,61.2166667 394,58.35 392.6,55.05 C391.2,51.75 390.5,48.2333333 390.5,44.5 C390.5,40.7666667 391.2,37.25 392.6,33.95 C394,30.65 395.933333,27.7833333 398.4,25.35 C400.866667,22.9166667 403.783333,21 407.15,19.6 C410.516667,18.2 414.133333,17.5 418,17.5 C422,17.5 425.65,18.2 428.95,19.6 C432.25,21 435.1,22.9333333 437.5,25.4 C439.9,27.8666667 441.75,30.7333333 443.05,34 C444.35,37.2666667 445,40.7666667 445,44.5 L445,47.5 L405,47.5 C405.266667,49.1 405.783333,50.6333333 406.55,52.1 C407.316667,53.5666667 408.283333,54.85 409.45,55.95 C410.616667,57.05 411.933333,57.9166667 413.4,58.55 C414.866667,59.1833333 416.4,59.5 418,59.5 C420.266667,59.5 422.116667,59.1833333 423.55,58.55 C424.983333,57.9166667 426.166667,57.2333333 427.1,56.5 C428.1,55.6333333 428.9,54.6333333 429.5,53.5 L444.5,53.5 C443.433333,56.8333333 441.766667,59.8333333 439.5,62.5 C438.5,63.6333333 437.333333,64.7333333 436,65.8 C434.666667,66.8666667 433.133333,67.8333333 431.4,68.7 C429.666667,69.5666667 427.683333,70.25 425.45,70.75 C423.216667,71.25 420.733333,71.5 418,71.5 Z M430,39 C429.733333,37.7333333 429.266667,36.5333333 428.6,35.4 C427.933333,34.2666667 427.083333,33.2666667 426.05,32.4 C425.016667,31.5333333 423.816667,30.8333333 422.45,30.3 C421.083333,29.7666667 419.6,29.5 418,29.5 C414.733333,29.5 412.016667,30.45 409.85,32.35 C407.683333,34.25 406.233333,36.4666667 405.5,39 L430,39 Z" id="Shape"></path>
                    <path d="M475.5,71.5 C472.766667,71.5 470.3,71.25 468.1,70.75 C465.9,70.25 463.95,69.5666667 462.25,68.7 C460.55,67.8333333 459.05,66.8666667 457.75,65.8 C456.45,64.7333333 455.366667,63.6333333 454.5,62.5 C452.366667,59.8333333 450.866667,56.8333333 450,53.5 L464.5,53.5 C465.033333,54.7666667 465.766667,55.8666667 466.7,56.8 C467.5,57.6 468.6,58.3333333 470,59 C471.4,59.6666667 473.233333,60 475.5,60 C478.766667,60 481,59.55 482.2,58.65 C483.4,57.75 484,56.5333333 484,55 C484,53.6666667 483.216667,52.6666667 481.65,52 C480.083333,51.3333333 478.133333,50.7333333 475.8,50.2 C473.466667,49.6666667 470.95,49.1 468.25,48.5 C465.55,47.9 463.033333,47 460.7,45.8 C458.366667,44.6 456.416667,43 454.85,41 C453.283333,39 452.5,36.3333333 452.5,33 C452.5,31 452.966667,29.0666667 453.9,27.2 C454.833333,25.3333333 456.2,23.6833333 458,22.25 C459.8,20.8166667 462.033333,19.6666667 464.7,18.8 C467.366667,17.9333333 470.466667,17.5 474,17.5 C476.666667,17.5 479.066667,17.7333333 481.2,18.2 C483.333333,18.6666667 485.216667,19.3 486.85,20.1 C488.483333,20.9 489.9,21.8 491.1,22.8 C492.3,23.8 493.3,24.8 494.1,25.8 C496.033333,28.2 497.333333,30.9333333 498,34 L484,34 C483.6,33.0666667 483,32.2333333 482.2,31.5 C481.466667,30.9 480.45,30.3333333 479.15,29.8 C477.85,29.2666667 476.133333,29 474,29 C471.466667,29 469.666667,29.4166667 468.6,30.25 C467.533333,31.0833333 467,32 467,33 C467,34.3333333 467.783333,35.3333333 469.35,36 C470.916667,36.6666667 472.866667,37.2666667 475.2,37.8 C477.533333,38.3333333 480.05,38.9 482.75,39.5 C485.45,40.1 487.966667,41 490.3,42.2 C492.633333,43.4 494.583333,45 496.15,47 C497.716667,49 498.5,51.6666667 498.5,55 C498.5,57.1333333 498,59.1833333 497,61.15 C496,63.1166667 494.533333,64.8666667 492.6,66.4 C490.666667,67.9333333 488.266667,69.1666667 485.4,70.1 C482.533333,71.0333333 479.233333,71.5 475.5,71.5 Z" id="Path"></path>
                    <polygon id="Path" points="506.5 0 520.5 0 520.5 38 526.5 38 540 19 555.5 19 539 42.5 557 70 541 70 528 50 520.5 50 520.5 70 506.5 70"></polygon>
                    <path d="M584,71.5 C580,71.5 576.283333,70.8 572.85,69.4 C569.416667,68 566.45,66.0833333 563.95,63.65 C561.45,61.2166667 559.5,58.35 558.1,55.05 C556.7,51.75 556,48.2333333 556,44.5 C556,40.7666667 556.7,37.25 558.1,33.95 C559.5,30.65 561.45,27.7833333 563.95,25.35 C566.45,22.9166667 569.416667,21 572.85,19.6 C576.283333,18.2 580,17.5 584,17.5 C588,17.5 591.7,18.2 595.1,19.6 C598.5,21 601.45,22.9166667 603.95,25.35 C606.45,27.7833333 608.416667,30.65 609.85,33.95 C611.283333,37.25 612,40.7666667 612,44.5 C612,48.2333333 611.283333,51.75 609.85,55.05 C608.416667,58.35 606.45,61.2166667 603.95,63.65 C601.45,66.0833333 598.5,68 595.1,69.4 C591.7,70.8 588,71.5 584,71.5 Z M584,59.5 C585.866667,59.5 587.616667,59.1333333 589.25,58.4 C590.883333,57.6666667 592.316667,56.65 593.55,55.35 C594.783333,54.05 595.75,52.4833333 596.45,50.65 C597.15,48.8166667 597.5,46.7666667 597.5,44.5 C597.5,42.2333333 597.15,40.1833333 596.45,38.35 C595.75,36.5166667 594.783333,34.95 593.55,33.65 C592.316667,32.35 590.883333,31.3333333 589.25,30.6 C587.616667,29.8666667 585.866667,29.5 584,29.5 C582.133333,29.5 580.383333,29.8666667 578.75,30.6 C577.116667,31.3333333 575.683333,32.35 574.45,33.65 C573.216667,34.95 572.25,36.5166667 571.55,38.35 C570.85,40.1833333 570.5,42.2333333 570.5,44.5 C570.5,46.7666667 570.85,48.8166667 571.55,50.65 C572.25,52.4833333 573.216667,54.05 574.45,55.35 C575.683333,56.65 577.116667,57.6666667 578.75,58.4 C580.383333,59.1333333 582.133333,59.5 584,59.5 Z" id="Shape"></path>
                    <path d="M620,19 L634,19 L634,26 L634.5,26 C635.433333,24.4 636.666667,23 638.2,21.8 C639.533333,20.7333333 641.183333,19.75 643.15,18.85 C645.116667,17.95 647.566667,17.5 650.5,17.5 C656.766667,17.5 661.666667,19.3166667 665.2,22.95 C668.733333,26.5833333 670.5,31.9333333 670.5,39 L670.5,70 L656.5,70 L656.5,41 C656.5,37.2 655.566667,34.3333333 653.7,32.4 C651.833333,30.4666667 649.266667,29.5 646,29.5 C644.4,29.5 642.866667,29.8333333 641.4,30.5 C639.933333,31.1666667 638.65,32.0833333 637.55,33.25 C636.45,34.4166667 635.583333,35.8333333 634.95,37.5 C634.316667,39.1666667 634,41 634,43 L634,70 L620,70 L620,19 Z" id="Path"></path>
                    <polygon id="Path" points="683.5 31 677 31 677 19 683.5 19 683.5 8 697.5 8 697.5 19 712 19 712 31 697.5 31 697.5 58 712.5 58 712.5 70 683.5 70"></polygon>
                    <path d="M745.5,71.5 C741.5,71.5 737.783333,70.8 734.35,69.4 C730.916667,68 727.95,66.0833333 725.45,63.65 C722.95,61.2166667 721,58.35 719.6,55.05 C718.2,51.75 717.5,48.2333333 717.5,44.5 C717.5,40.7666667 718.2,37.25 719.6,33.95 C721,30.65 722.95,27.7833333 725.45,25.35 C727.95,22.9166667 730.916667,21 734.35,19.6 C737.783333,18.2 741.5,17.5 745.5,17.5 C749.5,17.5 753.2,18.2 756.6,19.6 C760,21 762.95,22.9166667 765.45,25.35 C767.95,27.7833333 769.916667,30.65 771.35,33.95 C772.783333,37.25 773.5,40.7666667 773.5,44.5 C773.5,48.2333333 772.783333,51.75 771.35,55.05 C769.916667,58.35 767.95,61.2166667 765.45,63.65 C762.95,66.0833333 760,68 756.6,69.4 C753.2,70.8 749.5,71.5 745.5,71.5 Z M745.5,59.5 C747.366667,59.5 749.116667,59.1333333 750.75,58.4 C752.383333,57.6666667 753.816667,56.65 755.05,55.35 C756.283333,54.05 757.25,52.4833333 757.95,50.65 C758.65,48.8166667 759,46.7666667 759,44.5 C759,42.2333333 758.65,40.1833333 757.95,38.35 C757.25,36.5166667 756.283333,34.95 755.05,33.65 C753.816667,32.35 752.383333,31.3333333 750.75,30.6 C749.116667,29.8666667 747.366667,29.5 745.5,29.5 C743.633333,29.5 741.883333,29.8666667 740.25,30.6 C738.616667,31.3333333 737.183333,32.35 735.95,33.65 C734.716667,34.95 733.75,36.5166667 733.05,38.35 C732.35,40.1833333 732,42.2333333 732,44.5 C732,46.7666667 732.35,48.8166667 733.05,50.65 C733.75,52.4833333 734.716667,54.05 735.95,55.35 C737.183333,56.65 738.616667,57.6666667 740.25,58.4 C741.883333,59.1333333 743.633333,59.5 745.5,59.5 Z" id="Shape"></path>
                </g>
                <path d="M603.782,0.001 L345.584,442.001 L219.831,442.001 L478.029,0.001 L603.782,0.001 Z M623.013699,207.080726 C649.863014,207.080726 673.150685,212.012233 692.876712,221.875247 C712.60274,231.738261 729.041096,244.888945 742.191781,261.327302 C755.342466,277.765658 765.068493,296.532781 771.369863,317.628672 C777.671233,338.724562 780.821918,360.505384 780.821918,382.971137 C780.821918,403.203577 778.266514,422.880494 773.155707,442.001889 L657.976653,442.002072 C664.805003,426.789784 668.219178,407.112806 668.219178,382.971137 C668.219178,357.765658 664.657534,337.765658 657.534247,322.971137 C650.410959,308.176617 638.90411,300.779356 623.013699,300.779356 C607.123288,300.779356 595.616438,308.176617 588.493151,322.971137 C581.369863,337.765658 577.808219,357.765658 577.808219,382.971137 C577.808219,407.112806 581.222394,426.789784 588.050744,442.002072 L472.87169,442.001889 C467.760883,422.880494 465.205479,403.203577 465.205479,382.971137 C465.205479,360.505384 468.356164,338.724562 474.657534,317.628672 C480.958904,296.532781 490.547945,277.765658 503.424658,261.327302 C516.30137,244.888945 532.60274,231.738261 552.328767,221.875247 C572.054795,212.012233 595.616438,207.080726 623.013699,207.080726 Z M276.986301,13.1081236 C290.136986,29.5464797 299.863014,48.313603 306.164384,69.4094934 C312.465753,90.5053838 315.616438,112.286206 315.616438,134.751959 C315.616438,157.217713 312.465753,178.998535 306.164384,200.094425 C299.863014,221.190315 290.136986,239.957439 276.986301,256.395795 C263.835616,272.834151 247.39726,285.984836 227.671233,295.84785 C207.945205,305.710863 184.657534,310.64237 157.808219,310.64237 C130.410959,310.64237 106.849315,305.710863 87.1232877,295.84785 C67.3972603,285.984836 51.0958904,272.834151 38.2191781,256.395795 C25.3424658,239.957439 15.7534247,221.190315 9.45205479,200.094425 C3.15068493,178.998535 0,157.217713 0,134.751959 C0,112.286206 3.15068493,90.5053838 9.45205479,69.4094934 C15.7534247,48.313603 25.3424658,29.5464797 38.2191781,13.1081236 C41.8460606,8.47806082 45.7446333,4.10882077 49.9148964,0.000403397534 L265.091268,1.687539e-14 C269.317119,4.10853476 273.28213,8.47790928 276.986301,13.1081236 Z M157.808219,52.5601784 C141.917808,52.5601784 130.410959,59.9574386 123.287671,74.7519592 C116.164384,89.5464797 112.60274,109.54648 112.60274,134.751959 C112.60274,159.409493 116.164384,179.409493 123.287671,194.751959 C130.410959,210.094425 141.917808,217.765658 157.808219,217.765658 C173.69863,217.765658 185.205479,210.094425 192.328767,194.751959 C199.452055,179.409493 203.013699,159.409493 203.013699,134.751959 C203.013699,109.54648 199.452055,89.5464797 192.328767,74.7519592 C185.205479,59.9574386 173.69863,52.5601784 157.808219,52.5601784 Z" id="Combined-Shape" fill-opacity="0.6" fill="#FF6600"></path>
            </g>
        </g>
    </g>
</svg>