<?xml version="1.0" encoding="UTF-8"?>
<svg width="980px" height="680px" viewBox="0 0 980 680" version="1.1" xmlns="http://www.w3.org/2000/svg" xmlns:xlink="http://www.w3.org/1999/xlink">
    <title>DE Vorkasse Icon alt2</title>
    <defs>
        <linearGradient x1="50%" y1="0%" x2="50%" y2="100%" id="linearGradient-1">
            <stop stop-color="#FFFFFF" offset="0%"></stop>
            <stop stop-color="#EDEDED" offset="100%"></stop>
        </linearGradient>
        <rect id="path-2" x="0" y="0" width="900" height="600" rx="80"></rect>
        <filter x="-6.7%" y="-10.0%" width="113.3%" height="120.0%" filterUnits="objectBoundingBox" id="filter-3">
            <feMorphology radius="2.5" operator="dilate" in="SourceAlpha" result="shadowSpreadOuter1"></feMorphology>
            <feOffset dx="0" dy="0" in="shadowSpreadOuter1" result="shadowOffsetOuter1"></feOffset>
            <feGaussianBlur stdDeviation="17.5" in="shadowOffsetOuter1" result="shadowBlurOuter1"></feGaussianBlur>
            <feColorMatrix values="0 0 0 0 0   0 0 0 0 0   0 0 0 0 0  0 0 0 0.5 0" type="matrix" in="shadowBlurOuter1"></feColorMatrix>
        </filter>
    </defs>
    <g id="DE-Vorkasse-Icon-alt2" stroke="none" stroke-width="1" fill="none" fill-rule="evenodd">
        <g transform="translate(40, 40)">
            <g id="Rectangle">
                <use fill="black" fill-opacity="1" filter="url(#filter-3)" xlink:href="#path-2"></use>
                <use fill="url(#linearGradient-1)" fill-rule="evenodd" xlink:href="#path-2"></use>
            </g>
            <g id="Logo" transform="translate(134.6981, 50.5)" fill-rule="nonzero">
                <g id="fd3c0bb7-8527-4385-86a2-7781b0b2e612">
                    <path d="M3.2925209,96.9386597 C7.68254876,76.221264 26.2988169,58.3320297 59.1413253,43.2709568 L414.060477,43.2709568 L462.230071,93.5544194 L462.230071,306.832334 L414.060477,341.259375 L48.0610332,341.259375 L3.2925209,306.832334 C-1.09750697,187.620614 -1.09750697,117.656056 3.2925209,96.9386597 Z" id="Path-2" fill="#FFFFFF"></path>
                    <path d="M307.981784,80.4891729 C313.144533,79.5738267 318.341786,80.188664 323.000969,82.098296 C327.841994,84.0824581 332.101692,87.4639807 335.142305,91.9773403 C338.18939,96.5003073 339.711827,101.712883 339.711827,106.925027 C339.711827,112.137172 338.18939,117.349748 335.142305,121.872715 C332.101692,126.386073 327.841994,129.767596 323.000969,131.751759 C318.341786,133.66139 313.144533,134.276228 307.981784,133.360882 L71.673271,133.360882 C66.5105211,134.276228 61.3132691,133.66139 56.6540861,131.751759 C51.8130599,129.767596 47.5533624,126.386073 44.5127499,121.872715 C41.4656651,117.349748 39.9432284,112.137172 39.9432284,106.925027 C39.9432284,101.712883 41.4656651,96.5003073 44.5127499,91.9773403 C47.5533624,87.4639807 51.8130599,84.0824581 56.6540861,82.098296 C61.3132691,80.188664 66.5105211,79.5738267 71.673271,80.4891729 L307.981784,80.4891729 Z" id="Path" stroke="#EC008C" fill="#FFF875"></path>
                    <path d="M253.21592,169.244304 C260.666284,169.244304 267.409628,172.246655 272.291493,177.095578 C277.18721,181.958261 280.211958,188.676914 280.211958,196.096198 C280.211958,203.515483 277.18721,210.234135 272.291493,215.096818 C267.409628,219.945741 260.666284,222.948092 253.21592,222.948092 L70.8695742,222.948092 C63.4192106,222.948092 56.6758665,219.945741 51.7940018,215.096818 C46.8982848,210.234135 43.8735369,203.515483 43.8735369,196.096198 C43.8735369,188.676912 46.8982848,181.958261 51.7940018,177.095578 C56.6758665,172.246655 63.4192106,169.244304 70.8695742,169.244304 L253.21592,169.244304 Z" id="Path" stroke="#EC008C" fill="#FFF875"></path>
                    <path d="M451.618798,208.716069 L451.618798,294.004201 C451.31301,318.755898 431.023746,338.66099 406.102023,338.659127 L59.1413253,338.659127 C34.0031043,338.659127 13.6245498,318.418079 13.6245498,293.449482 L13.6245498,98.7429137 C13.6245498,73.7743163 34.0031043,53.5332688 59.1413253,53.5332688 L406.102023,53.5332688 C431.240243,53.5332688 451.618798,73.7743163 451.618798,98.7429137 L451.618798,130.639289 L462.230071,120.099617 L462.230071,98.7429137 C462.230071,68.1065978 437.225709,43.2709568 406.381267,43.2709568 L59.1413253,43.2709568 C28.2968823,43.2709568 3.2925209,68.1065978 3.2925209,98.7429137 L3.2925209,294.004201 C3.2925209,324.640518 28.2968823,349.476159 59.1413253,349.476159 L406.102023,349.476159 C436.946465,349.476159 461.950827,324.640518 461.950827,294.004201 L461.950827,205.526431 L451.618798,208.716069 Z" id="Path" fill="#4D4D4D"></path>
                    <path d="M308.292946,258.831515 C313.271032,258.474752 318.145043,259.499379 322.436752,261.663035 C326.804626,263.865087 330.569136,267.246596 333.229878,271.551731 C335.895786,275.865228 337.227893,280.739802 337.227893,285.614069 C337.227893,290.488335 335.895786,295.36291 333.229878,299.676405 C330.569136,303.981542 326.804626,307.363049 322.436752,309.565102 C318.145043,311.728757 313.271032,312.753386 308.292946,312.396622 L71.3621086,312.396622 C66.3840226,312.753386 61.5100114,311.728757 57.2183024,309.565102 C52.8504291,307.363049 49.0859182,303.981542 46.4251771,299.676405 C43.7592696,295.36291 42.4271626,290.488335 42.4271626,285.614069 C42.4271626,280.739802 43.7592696,275.865228 46.4251771,271.551731 C49.0859182,267.246596 52.8504291,263.865087 57.2183024,261.663035 C61.5100114,259.499379 66.3840226,258.474752 71.3621086,258.831515 L308.292946,258.831515 Z" id="Path" stroke="#EC008C" fill="#FFF875"></path>
                    <polygon id="Path" fill="#4D4D4D" points="430.95474 161.426225 414.060477 214.124584 467.116841 197.344317"></polygon>
                    <path d="M470.747014,189.439563 L438.633951,157.404508 L585.935173,7.9075844 C588.953765,4.85837002 593.078789,3.14098713 597.384178,3.14098713 C601.689566,3.14098713 605.81459,4.85837002 608.833182,7.9075844 L621.399164,20.3887746 C627.719616,26.6703127 627.719616,36.8507389 621.399164,43.1322769 L470.747014,189.439563 Z" id="Path" fill="#4D4D4D"></path>
                    <path d="M470.747014,193.877319 L433.886802,157.404508 L583.561598,5.82738596 C587.238188,2.10030177 592.270433,0 597.523799,0 C602.777165,0 607.809411,2.10030177 611.486001,5.82738596 L624.051982,18.4472561 C627.914026,22.0393851 630.105582,27.0599461 630.105582,32.3152453 C630.105582,37.5705446 627.914026,42.5911056 624.051982,46.1832345 L470.747014,193.877319 Z M442.822611,157.404508 L470.747014,185.140486 L619.165211,40.7747187 C624.187726,35.7464267 624.187726,27.635945 619.165211,22.6076529 L606.459608,10.1264626 C601.397156,5.13783817 593.231576,5.13783817 588.169124,10.1264626 L442.822611,157.404508 Z" id="Shape" fill="#4D4D4D"></path>
                    <path d="M458.73952,164.893222 C453.50853,159.518036 453.50853,150.991903 458.73952,145.616718 L584.39933,20.8048143 C589.967522,16.8828981 597.574375,17.5348759 602.383839,22.3462535 C607.193302,27.157631 607.795163,34.7176352 603.80679,40.2199992 L478.14698,165.031902 C472.69772,170.189112 464.113512,170.127772 458.73952,164.893222 L458.73952,164.893222 Z" id="Path" fill="#3D502B"></path>
                    <g id="€" transform="translate(306.0235, 148.1749)">
                        <g id="path-1-link" fill="#000000">
                            <path d="M43.9950827,14.8043145 C39.1398806,14.8043145 35.1403665,16.2071291 31.9964245,19.0128001 C28.8524813,21.8184699 26.8228772,25.8876265 25.9075523,31.2203903 L49.9645652,31.2203903 L49.9645652,41.726679 L25.0121298,41.726679 L24.8927402,43.8159977 L24.8927402,46.621654 L25.0121298,48.5915831 L46.203791,48.5915831 L46.203791,59.2172614 L26.0269419,59.2172614 C28.0565765,68.8878713 34.4438579,73.7231024 45.1889798,73.7231024 C50.8799137,73.7231024 56.3518849,72.588913 61.6050546,70.3204981 L61.6050546,85.6023718 C56.9886328,87.9503799 51.1584962,89.1243661 44.1144723,89.1243661 C34.3642705,89.1243661 26.3453458,86.4779226 20.0574606,81.1849557 C13.7695742,75.8919882 9.80985774,68.5694967 8.17819081,59.2172614 L0,59.2172614 L0,48.5915831 L7.04398899,48.5915831 C6.88480173,47.6762582 6.80520978,46.4425781 6.80520978,44.8905042 L6.92459939,41.726679 L0,41.726679 L0,31.2203903 L7.9394116,31.2203903 C9.41189129,21.5895781 13.3716077,13.9785648 19.8186813,8.38712178 C26.2657539,2.79567872 34.3244739,0 43.9950827,0 C51.4768719,0 58.4809933,1.63164217 65.0076601,4.89497496 L59.1575671,18.7441726 C56.4115915,17.5104744 53.8447404,16.5454172 51.4569359,15.8489738 C49.0691314,15.1525316 46.5818721,14.8043145 43.9950827,14.8043145 Z" id="path-1"></path>
                        </g>
                        <g id="path-1-link" fill="#4D4D4D">
                            <path d="M43.9950827,14.8043145 C39.1398806,14.8043145 35.1403665,16.2071291 31.9964245,19.0128001 C28.8524813,21.8184699 26.8228772,25.8876265 25.9075523,31.2203903 L49.9645652,31.2203903 L49.9645652,41.726679 L25.0121298,41.726679 L24.8927402,43.8159977 L24.8927402,46.621654 L25.0121298,48.5915831 L46.203791,48.5915831 L46.203791,59.2172614 L26.0269419,59.2172614 C28.0565765,68.8878713 34.4438579,73.7231024 45.1889798,73.7231024 C50.8799137,73.7231024 56.3518849,72.588913 61.6050546,70.3204981 L61.6050546,85.6023718 C56.9886328,87.9503799 51.1584962,89.1243661 44.1144723,89.1243661 C34.3642705,89.1243661 26.3453458,86.4779226 20.0574606,81.1849557 C13.7695742,75.8919882 9.80985774,68.5694967 8.17819081,59.2172614 L0,59.2172614 L0,48.5915831 L7.04398899,48.5915831 C6.88480173,47.6762582 6.80520978,46.4425781 6.80520978,44.8905042 L6.92459939,41.726679 L0,41.726679 L0,31.2203903 L7.9394116,31.2203903 C9.41189129,21.5895781 13.3716077,13.9785648 19.8186813,8.38712178 C26.2657539,2.79567872 34.3244739,0 43.9950827,0 C51.4768719,0 58.4809933,1.63164217 65.0076601,4.89497496 L59.1575671,18.7441726 C56.4115915,17.5104744 53.8447404,16.5454172 51.4569359,15.8489738 C49.0691314,15.1525316 46.5818721,14.8043145 43.9950827,14.8043145 Z" id="path-1"></path>
                        </g>
                    </g>
                </g>
            </g>
            <path d="M900,442 L900,520 C900,564.18278 864.18278,600 820,600 L80,600 C35.81722,600 0,564.18278 0,520 L0,442 L900,442 Z" id="Path" fill="#FF6600"></path>
            <g id="Vorkasse" transform="translate(226.5, 481.9993)" fill="#FFFFFF" fill-rule="nonzero">
                <g>
                    <polygon id="Path" points="0 0 15.5 0 29.5 56 38 56 52 0 67.5 0 49.5 70 18 70"></polygon>
                    <path d="M96,71.5 C92,71.5 88.2833333,70.8 84.85,69.4 C81.4166667,68 78.45,66.0833333 75.95,63.65 C73.45,61.2166667 71.5,58.35 70.1,55.05 C68.7,51.75 68,48.2333333 68,44.5 C68,40.7666667 68.7,37.25 70.1,33.95 C71.5,30.65 73.45,27.7833333 75.95,25.35 C78.45,22.9166667 81.4166667,21 84.85,19.6 C88.2833333,18.2 92,17.5 96,17.5 C100,17.5 103.7,18.2 107.1,19.6 C110.5,21 113.45,22.9166667 115.95,25.35 C118.45,27.7833333 120.416667,30.65 121.85,33.95 C123.283333,37.25 124,40.7666667 124,44.5 C124,48.2333333 123.283333,51.75 121.85,55.05 C120.416667,58.35 118.45,61.2166667 115.95,63.65 C113.45,66.0833333 110.5,68 107.1,69.4 C103.7,70.8 100,71.5 96,71.5 Z M96,59.5 C97.8666667,59.5 99.6166667,59.1333333 101.25,58.4 C102.883333,57.6666667 104.316667,56.65 105.55,55.35 C106.783333,54.05 107.75,52.4833333 108.45,50.65 C109.15,48.8166667 109.5,46.7666667 109.5,44.5 C109.5,42.2333333 109.15,40.1833333 108.45,38.35 C107.75,36.5166667 106.783333,34.95 105.55,33.65 C104.316667,32.35 102.883333,31.3333333 101.25,30.6 C99.6166667,29.8666667 97.8666667,29.5 96,29.5 C94.1333333,29.5 92.3833333,29.8666667 90.75,30.6 C89.1166667,31.3333333 87.6833333,32.35 86.45,33.65 C85.2166667,34.95 84.25,36.5166667 83.55,38.35 C82.85,40.1833333 82.5,42.2333333 82.5,44.5 C82.5,46.7666667 82.85,48.8166667 83.55,50.65 C84.25,52.4833333 85.2166667,54.05 86.45,55.35 C87.6833333,56.65 89.1166667,57.6666667 90.75,58.4 C92.3833333,59.1333333 94.1333333,59.5 96,59.5 Z" id="Shape"></path>
                    <path d="M132,19 L146,19 L146,26.5 L146.5,26.5 C147.1,24.9 148,23.5 149.2,22.3 C150.2,21.2333333 151.533333,20.25 153.2,19.35 C154.866667,18.45 156.966667,18 159.5,18 L165.5,18 L165.5,31.5 L158,31.5 C154.2,31.5 151.25,32.5333333 149.15,34.6 C147.05,36.6666667 146,39.4666667 146,43 L146,70 L132,70 L132,19 Z" id="Path"></path>
                    <polygon id="Path" points="172.5 0 186.5 0 186.5 38 192.5 38 206 19 221.5 19 205 42.5 223 70 207 70 194 50 186.5 50 186.5 70 172.5 70"></polygon>
                    <path d="M246,71.5 C242.733333,71.5 239.683333,70.8666667 236.85,69.6 C234.016667,68.3333333 231.533333,66.5333333 229.4,64.2 C227.266667,61.8666667 225.583333,59.0333333 224.35,55.7 C223.116667,52.3666667 222.5,48.6333333 222.5,44.5 C222.5,40.3666667 223.116667,36.6333333 224.35,33.3 C225.583333,29.9666667 227.266667,27.1333333 229.4,24.8 C231.533333,22.4666667 234.016667,20.6666667 236.85,19.4 C239.683333,18.1333333 242.733333,17.5 246,17.5 C248.8,17.5 251.183333,17.9166667 253.15,18.75 C255.116667,19.5833333 256.766667,20.5 258.1,21.5 C259.633333,22.7 260.933333,24.0333333 262,25.5 L262.5,25.5 L262.5,19 L276.5,19 L276.5,70 L262.5,70 L262.5,63.5 L262,63.5 C260.933333,64.9666667 259.633333,66.3 258.1,67.5 C256.766667,68.5 255.116667,69.4166667 253.15,70.25 C251.183333,71.0833333 248.8,71.5 246,71.5 Z M249.5,59.5 C253.3,59.5 256.416667,58.2 258.85,55.6 C261.283333,53 262.5,49.3 262.5,44.5 C262.5,39.7 261.283333,36 258.85,33.4 C256.416667,30.8 253.3,29.5 249.5,29.5 C245.966667,29.5 243,30.8 240.6,33.4 C238.2,36 237,39.7 237,44.5 C237,49.3 238.2,53 240.6,55.6 C243,58.2 245.966667,59.5 249.5,59.5 Z" id="Shape"></path>
                    <path d="M309.5,71.5 C306.766667,71.5 304.3,71.25 302.1,70.75 C299.9,70.25 297.95,69.5666667 296.25,68.7 C294.55,67.8333333 293.05,66.8666667 291.75,65.8 C290.45,64.7333333 289.366667,63.6333333 288.5,62.5 C286.366667,59.8333333 284.866667,56.8333333 284,53.5 L298.5,53.5 C299.033333,54.7666667 299.766667,55.8666667 300.7,56.8 C301.5,57.6 302.6,58.3333333 304,59 C305.4,59.6666667 307.233333,60 309.5,60 C312.766667,60 315,59.55 316.2,58.65 C317.4,57.75 318,56.5333333 318,55 C318,53.6666667 317.216667,52.6666667 315.65,52 C314.083333,51.3333333 312.133333,50.7333333 309.8,50.2 C307.466667,49.6666667 304.95,49.1 302.25,48.5 C299.55,47.9 297.033333,47 294.7,45.8 C292.366667,44.6 290.416667,43 288.85,41 C287.283333,39 286.5,36.3333333 286.5,33 C286.5,31 286.966667,29.0666667 287.9,27.2 C288.833333,25.3333333 290.2,23.6833333 292,22.25 C293.8,20.8166667 296.033333,19.6666667 298.7,18.8 C301.366667,17.9333333 304.466667,17.5 308,17.5 C310.666667,17.5 313.066667,17.7333333 315.2,18.2 C317.333333,18.6666667 319.216667,19.3 320.85,20.1 C322.483333,20.9 323.9,21.8 325.1,22.8 C326.3,23.8 327.3,24.8 328.1,25.8 C330.033333,28.2 331.333333,30.9333333 332,34 L318,34 C317.6,33.0666667 317,32.2333333 316.2,31.5 C315.466667,30.9 314.45,30.3333333 313.15,29.8 C311.85,29.2666667 310.133333,29 308,29 C305.466667,29 303.666667,29.4166667 302.6,30.25 C301.533333,31.0833333 301,32 301,33 C301,34.3333333 301.783333,35.3333333 303.35,36 C304.916667,36.6666667 306.866667,37.2666667 309.2,37.8 C311.533333,38.3333333 314.05,38.9 316.75,39.5 C319.45,40.1 321.966667,41 324.3,42.2 C326.633333,43.4 328.583333,45 330.15,47 C331.716667,49 332.5,51.6666667 332.5,55 C332.5,57.1333333 332,59.1833333 331,61.15 C330,63.1166667 328.533333,64.8666667 326.6,66.4 C324.666667,67.9333333 322.266667,69.1666667 319.4,70.1 C316.533333,71.0333333 313.233333,71.5 309.5,71.5 Z" id="Path"></path>
                    <path d="M362.5,71.5 C359.766667,71.5 357.3,71.25 355.1,70.75 C352.9,70.25 350.95,69.5666667 349.25,68.7 C347.55,67.8333333 346.05,66.8666667 344.75,65.8 C343.45,64.7333333 342.366667,63.6333333 341.5,62.5 C339.366667,59.8333333 337.866667,56.8333333 337,53.5 L351.5,53.5 C352.033333,54.7666667 352.766667,55.8666667 353.7,56.8 C354.5,57.6 355.6,58.3333333 357,59 C358.4,59.6666667 360.233333,60 362.5,60 C365.766667,60 368,59.55 369.2,58.65 C370.4,57.75 371,56.5333333 371,55 C371,53.6666667 370.216667,52.6666667 368.65,52 C367.083333,51.3333333 365.133333,50.7333333 362.8,50.2 C360.466667,49.6666667 357.95,49.1 355.25,48.5 C352.55,47.9 350.033333,47 347.7,45.8 C345.366667,44.6 343.416667,43 341.85,41 C340.283333,39 339.5,36.3333333 339.5,33 C339.5,31 339.966667,29.0666667 340.9,27.2 C341.833333,25.3333333 343.2,23.6833333 345,22.25 C346.8,20.8166667 349.033333,19.6666667 351.7,18.8 C354.366667,17.9333333 357.466667,17.5 361,17.5 C363.666667,17.5 366.066667,17.7333333 368.2,18.2 C370.333333,18.6666667 372.216667,19.3 373.85,20.1 C375.483333,20.9 376.9,21.8 378.1,22.8 C379.3,23.8 380.3,24.8 381.1,25.8 C383.033333,28.2 384.333333,30.9333333 385,34 L371,34 C370.6,33.0666667 370,32.2333333 369.2,31.5 C368.466667,30.9 367.45,30.3333333 366.15,29.8 C364.85,29.2666667 363.133333,29 361,29 C358.466667,29 356.666667,29.4166667 355.6,30.25 C354.533333,31.0833333 354,32 354,33 C354,34.3333333 354.783333,35.3333333 356.35,36 C357.916667,36.6666667 359.866667,37.2666667 362.2,37.8 C364.533333,38.3333333 367.05,38.9 369.75,39.5 C372.45,40.1 374.966667,41 377.3,42.2 C379.633333,43.4 381.583333,45 383.15,47 C384.716667,49 385.5,51.6666667 385.5,55 C385.5,57.1333333 385,59.1833333 384,61.15 C383,63.1166667 381.533333,64.8666667 379.6,66.4 C377.666667,67.9333333 375.266667,69.1666667 372.4,70.1 C369.533333,71.0333333 366.233333,71.5 362.5,71.5 Z" id="Path"></path>
                    <path d="M418,71.5 C414.133333,71.5 410.516667,70.8 407.15,69.4 C403.783333,68 400.866667,66.0833333 398.4,63.65 C395.933333,61.2166667 394,58.35 392.6,55.05 C391.2,51.75 390.5,48.2333333 390.5,44.5 C390.5,40.7666667 391.2,37.25 392.6,33.95 C394,30.65 395.933333,27.7833333 398.4,25.35 C400.866667,22.9166667 403.783333,21 407.15,19.6 C410.516667,18.2 414.133333,17.5 418,17.5 C422,17.5 425.65,18.2 428.95,19.6 C432.25,21 435.1,22.9333333 437.5,25.4 C439.9,27.8666667 441.75,30.7333333 443.05,34 C444.35,37.2666667 445,40.7666667 445,44.5 L445,47.5 L405,47.5 C405.266667,49.1 405.783333,50.6333333 406.55,52.1 C407.316667,53.5666667 408.283333,54.85 409.45,55.95 C410.616667,57.05 411.933333,57.9166667 413.4,58.55 C414.866667,59.1833333 416.4,59.5 418,59.5 C420.266667,59.5 422.116667,59.1833333 423.55,58.55 C424.983333,57.9166667 426.166667,57.2333333 427.1,56.5 C428.1,55.6333333 428.9,54.6333333 429.5,53.5 L444.5,53.5 C443.433333,56.8333333 441.766667,59.8333333 439.5,62.5 C438.5,63.6333333 437.333333,64.7333333 436,65.8 C434.666667,66.8666667 433.133333,67.8333333 431.4,68.7 C429.666667,69.5666667 427.683333,70.25 425.45,70.75 C423.216667,71.25 420.733333,71.5 418,71.5 Z M430,39 C429.733333,37.7333333 429.266667,36.5333333 428.6,35.4 C427.933333,34.2666667 427.083333,33.2666667 426.05,32.4 C425.016667,31.5333333 423.816667,30.8333333 422.45,30.3 C421.083333,29.7666667 419.6,29.5 418,29.5 C414.733333,29.5 412.016667,30.45 409.85,32.35 C407.683333,34.25 406.233333,36.4666667 405.5,39 L430,39 Z" id="Shape"></path>
                </g>
            </g>
        </g>
    </g>
</svg>