<?xml version="1.0" encoding="UTF-8"?>
<svg width="980px" height="680px" viewBox="0 0 980 680" version="1.1" xmlns="http://www.w3.org/2000/svg" xmlns:xlink="http://www.w3.org/1999/xlink">
    <title>ES ServiceRed alt</title>
    <defs>
        <rect id="path-1" x="0" y="0" width="900" height="600" rx="80"></rect>
        <filter x="-6.7%" y="-10.0%" width="113.3%" height="120.0%" filterUnits="objectBoundingBox" id="filter-2">
            <feMorphology radius="2.5" operator="dilate" in="SourceAlpha" result="shadowSpreadOuter1"></feMorphology>
            <feOffset dx="0" dy="0" in="shadowSpreadOuter1" result="shadowOffsetOuter1"></feOffset>
            <feGaussianBlur stdDeviation="17.5" in="shadowOffsetOuter1" result="shadowBlurOuter1"></feGaussianBlur>
            <feColorMatrix values="0 0 0 0 0   0 0 0 0 0   0 0 0 0 0  0 0 0 0.5 0" type="matrix" in="shadowBlurOuter1"></feColorMatrix>
        </filter>
    </defs>
    <g id="ES-ServieRed-alt" stroke="none" stroke-width="1" fill="none" fill-rule="evenodd">
        <g id="ES-ServiceRed-alt" transform="translate(40, 40)">
            <g id="Rectangle">
                <use fill="black" fill-opacity="1" filter="url(#filter-2)" xlink:href="#path-1"></use>
                <use fill="#1B1918" fill-rule="evenodd" xlink:href="#path-1"></use>
            </g>
            <g id="Logo" transform="translate(50.394, 211.84)" fill="#FFFFFF">
                <path d="M735.09976,173.110145 L736.837683,160.867577 C731.995621,166.19602 727.331503,170.081138 722.851261,172.44582 C718.341361,174.853999 713.5685,176.03634 708.423933,176.03634 C699.619644,176.03634 692.739131,172.669239 687.817983,165.972602 C682.898811,159.238398 680.458997,149.769785 680.458997,137.558851 C680.458997,115.177413 684.899696,96.4952388 693.773185,81.5815294 C702.694126,66.6737515 713.675266,59.1981138 726.85303,59.1981138 C731.995621,59.1981138 736.428411,60.4180208 740.244327,62.8202688 C744.020701,65.2699687 747.496546,69.1155427 750.600686,74.3668767 L760.093025,14.9058007 L800,14.9137094 L774.983009,173.116077 L735.09976,173.110145 Z M744.607917,106.110162 C744.607917,101.70703 743.943592,98.4170372 742.614941,96.2698426 C741.278381,94.0850821 739.279474,93.0114848 736.614264,93.0114848 C732.62238,93.0114848 729.215735,96.4161524 726.404215,103.259099 C723.592695,110.072389 722.186935,118.544514 722.186935,128.637911 C722.186935,133.157696 722.819626,136.408145 724.079076,138.486139 C725.330618,140.516681 727.331503,141.552712 729.994736,141.552712 C734.026163,141.552712 737.502008,138.114433 740.353071,131.271486 C743.202157,124.390973 744.607917,116.025614 744.607917,106.110162 L744.607917,106.110162 Z M615.412448,103.630805 L639.169989,103.630805 C639.385499,101.2681 639.502151,99.522269 639.539717,98.4862377 C639.571352,97.4126405 639.610895,96.4952388 639.610895,95.6055173 C639.610895,92.0525628 638.837826,89.3893298 637.277848,87.5347547 C635.725778,85.6900655 633.39273,84.762778 630.288591,84.762778 C626.29473,84.762778 623.143139,86.2456472 620.849635,89.2034768 C618.524496,92.1613065 616.749007,96.9737112 615.412448,103.630805 L615.412448,103.630805 Z M667.769592,134.300494 C666.695995,147.545481 661.923133,157.872182 653.488573,165.308276 C645.016447,172.746348 633.802002,176.477247 619.89269,176.477247 C604.684384,176.477247 593.147662,172.337076 585.191574,164.01126 C577.237464,155.685444 573.275238,143.628729 573.275238,127.789709 C573.275238,106.920797 578.311061,90.2375309 588.335257,77.7339782 C598.398996,65.2304255 611.859493,58.9746948 628.774087,58.9746948 C642.420438,58.9746948 653.225611,62.6047585 661.219264,69.8569773 C669.205009,77.1388534 673.206779,86.9791731 673.206779,99.4135252 C673.206779,102.594774 673.058492,106.033053 672.757964,109.769883 C672.465344,113.469148 672.024438,117.65677 671.352204,122.275413 L612.600928,122.275413 C612.199565,125.75719 611.859493,128.491601 611.675617,130.530052 C611.497673,132.523028 611.420564,134.152207 611.420564,135.374091 C611.420564,139.219665 612.268765,142.068751 614.006688,143.883783 C615.74461,145.738358 618.378186,146.657736 621.923232,146.657736 C625.699605,146.657736 628.588234,145.621705 630.620754,143.55162 C632.619661,141.513169 633.802002,138.40903 634.064964,134.300494 L667.769592,134.300494 Z M453.920088,173.110145 L479.081412,14.8741662 L516.368651,14.8741662 C539.794029,14.8741662 555.919737,17.9486482 564.763569,24.0877265 C573.607401,30.228782 578.048099,40.7017925 578.048099,55.5383927 C578.048099,68.4512173 575.236579,79.062629 569.653083,87.388445 C564.061677,95.714261 555.996846,101.190991 545.417069,103.854224 L564.949422,173.110145 L518.114482,173.110145 L508.121922,109.182667 L498.172858,173.110145 L453.920088,173.110145 Z M512.153348,85.4271034 L514.523962,85.4271034 C521.258165,85.4271034 526.43239,83.3174749 530.024887,79.1021722 C533.654951,74.8848923 535.462074,68.78338 535.462074,60.8272927 C535.462074,56.2719187 534.319277,52.9423831 531.986229,50.7655312 C529.692725,48.5787935 526.100227,47.5051962 521.258165,47.5051962 C520.957637,47.5051962 520.479164,47.5447394 519.814839,47.6218486 C519.110971,47.6910492 518.555389,47.7286152 518.114482,47.7286152 L512.153348,85.4271034 Z M461.209873,19.9416244 C461.209873,27.826534 458.839259,34.3768613 454.103964,39.6281953 C449.370646,44.8419632 443.377877,47.4676302 436.163224,47.4676302 C430.611362,47.4676302 426.139029,45.660507 422.771927,42.0680093 C419.404826,38.4458543 417.736104,33.6729928 417.736104,27.7494248 C417.736104,19.7953146 420.106717,13.1757867 424.879579,7.92445276 C429.65244,2.62566698 435.607643,0 442.782752,0 C448.411724,0 452.884057,1.81503184 456.213592,5.40555236 C459.541151,9.02770741 461.209873,13.8776781 461.209873,19.9416244 L461.209873,19.9416244 Z M395.500975,173.110145 L413.077917,62.1183774 L453.293329,62.1183774 L435.716386,173.110145 L395.500975,173.110145 Z M300.565715,62.1183774 L340.448963,62.1183774 L342.742468,129.859795 L366.460465,62.1183774 L406.343714,62.1183774 L357.355649,173.110145 L314.552136,173.110145 L300.565715,62.1183774 Z M206.666485,173.110145 L224.243428,62.1183774 L262.165335,62.1183774 L259.685978,77.6272116 C264.16622,71.9270626 269.124934,67.5239298 274.631322,64.4514249 C280.106075,61.3848515 286.138386,59.5698197 292.72628,58.9746948 L286.547658,98.116509 L285.699457,98.116509 C275.851229,98.116509 268.676119,99.9691069 264.126677,103.630805 C259.579211,107.330069 256.542295,113.987163 255.02186,123.57243 L247.328735,173.110145 L206.666485,173.110145 Z M146.958265,103.630805 L170.70592,103.630805 C170.931316,101.2681 171.038083,99.522269 171.077626,98.4862377 C171.115192,97.4126405 171.154735,96.4952388 171.154735,95.6055173 C171.154735,92.0525628 170.373757,89.3893298 168.821687,87.5347547 C167.269618,85.6900655 164.93657,84.762778 161.824522,84.762778 C157.832638,84.762778 154.688956,86.2456472 152.395452,89.2034768 C150.062404,92.1613065 148.286915,96.9737112 146.958265,103.630805 L146.958265,103.630805 Z M199.305523,134.300494 C198.231926,147.545481 193.459064,157.872182 185.026482,165.308276 C176.552379,172.746348 165.345842,176.477247 151.428621,176.477247 C136.230201,176.477247 124.683593,172.337076 116.729483,164.01126 C108.773395,155.685444 104.819078,143.628729 104.819078,127.789709 C104.819078,106.920797 109.846993,90.2375309 119.871188,77.7339782 C129.934927,65.2304255 143.40531,58.9746948 160.311996,58.9746948 C173.966255,58.9746948 184.771428,62.6047585 192.757173,69.8569773 C200.750826,77.1388534 204.74271,86.9791731 204.74271,99.4135252 C204.74271,102.594774 204.5964,106.033053 204.303781,109.769883 C204.009184,113.469148 203.562346,117.65677 202.898021,122.275413 L144.146745,122.275413 C143.737473,125.75719 143.40531,128.491601 143.219457,130.530052 C143.033604,132.523028 142.956495,134.152207 142.956495,135.374091 C142.956495,139.219665 143.814582,142.068751 145.552505,143.883783 C147.290427,145.738358 149.916094,146.657736 153.469049,146.657736 C157.237514,146.657736 160.126143,145.621705 162.164594,143.55162 C164.15757,141.513169 165.345842,138.40903 165.600896,134.300494 L199.305523,134.300494 Z M7.58240427,124.460174 C12.5114613,128.608253 17.6856861,131.789502 23.0912385,134.005897 C28.5284254,136.261835 33.7026501,137.372998 38.7009078,137.372998 C43.1020634,137.372998 46.6174519,136.153091 49.2431189,133.742935 C51.8371513,131.303121 53.1282361,128.013128 53.1282361,123.835392 C53.1282361,120.205328 52.0546388,116.620739 49.8758097,113.030218 C47.7286152,109.437721 43.5113353,104.704402 37.2951478,98.788743 C29.7878756,91.4594151 24.6057422,85.0553975 21.7942222,79.4719009 C18.9827023,73.9200388 17.5769424,67.7789833 17.5769424,61.0447802 C17.5769424,45.9531265 22.3498039,33.9675894 31.9350701,25.0466486 C41.5124277,16.1731596 54.5023615,11.7304836 70.8910314,11.7304836 C77.5481253,11.7304836 83.8730565,12.4719182 89.8678022,13.9488558 C95.8605708,15.431725 101.969992,17.7252293 108.178271,20.8293687 L101.892882,59.4235099 C97.120021,56.0939744 92.4934692,53.5770511 87.9835698,51.8391285 C83.4637846,50.1012058 79.1397382,49.2431189 74.9916589,49.2431189 C71.3319378,49.2431189 68.4116741,50.2079724 66.2644796,52.131748 C64.1568282,54.0159804 63.083231,56.6416474 63.083231,59.9790915 C63.083231,64.4514249 67.1522239,70.736813 75.3317302,78.8471187 C76.3677614,79.8436067 77.1388534,80.6226073 77.7339782,81.2098235 C85.982685,89.3122206 91.3882374,96.2322766 93.9763384,102.001626 C96.6020053,107.808542 97.8990216,114.473544 97.8990216,122.057926 C97.8990216,138.964611 92.6793221,152.318342 82.2438776,162.049918 C71.7787757,171.81906 57.4997343,176.700666 39.3652331,176.700666 C31.634542,176.700666 24.3111455,175.773378 17.3910894,173.928689 C10.5105766,172.113657 4.7016838,169.565099 0,166.304764 L7.58240427,124.460174 Z" id="Fill-3"></path>
            </g>
        </g>
    </g>
</svg>