<?xml version="1.0" encoding="UTF-8"?>
<svg width="980px" height="680px" viewBox="0 0 980 680" version="1.1" xmlns="http://www.w3.org/2000/svg" xmlns:xlink="http://www.w3.org/1999/xlink">
    <title>ES ServiceRed</title>
    <defs>
        <rect id="path-1" x="0" y="0" width="900" height="600" rx="80"></rect>
        <filter x="-6.7%" y="-10.0%" width="113.3%" height="120.0%" filterUnits="objectBoundingBox" id="filter-2">
            <feMorphology radius="2.5" operator="dilate" in="SourceAlpha" result="shadowSpreadOuter1"></feMorphology>
            <feOffset dx="0" dy="0" in="shadowSpreadOuter1" result="shadowOffsetOuter1"></feOffset>
            <feGaussianBlur stdDeviation="17.5" in="shadowOffsetOuter1" result="shadowBlurOuter1"></feGaussianBlur>
            <feColorMatrix values="0 0 0 0 0   0 0 0 0 0   0 0 0 0 0  0 0 0 0.5 0" type="matrix" in="shadowBlurOuter1"></feColorMatrix>
        </filter>
        <path d="M37.6677338,90.763572 L72.0489068,56.3653702 L0,56.3653702 L0,34.3811729 L72.0659356,34.3811729 L37.6677338,0 L68.7453171,0 L114.110074,45.3647572 L68.7282883,90.763572 L37.650705,90.763572 L37.6677338,90.763572 Z M154.894081,4.87024045 C177.269941,4.87024045 195.422655,23.005926 195.422655,45.381786 C195.422655,67.7576459 177.269941,85.9103603 154.894081,85.9103603 C132.518221,85.9103603 114.365506,67.7576459 114.365506,45.381786 C114.365506,23.005926 132.518221,4.87024045 154.894081,4.87024045 Z M272.495062,90.763572 L238.09686,56.3653702 L310.145767,56.3653702 L310.145767,34.3811729 L238.09686,34.3811729 L272.495062,0 L241.417478,0 L196.052721,45.3647572 L241.434507,90.763572 L272.51209,90.763572 L272.495062,90.763572 Z" id="path-3"></path>
        <polygon id="path-5" points="0 0 725.427423 0 725.427423 546.624889 0 546.624889"></polygon>
        <linearGradient x1="28.5821596%" y1="50%" x2="71.3333333%" y2="50%" id="linearGradient-7">
            <stop stop-color="#F5A32E" offset="0%"></stop>
            <stop stop-color="#F5A42E" offset="10%"></stop>
            <stop stop-color="#FED500" offset="47%"></stop>
            <stop stop-color="#FDD500" offset="52%"></stop>
            <stop stop-color="#FDD500" offset="58%"></stop>
            <stop stop-color="#F5A62D" offset="88%"></stop>
            <stop stop-color="#F5A32E" offset="100%"></stop>
        </linearGradient>
        <polygon id="path-8" points="90.7465432 76.4763981 56.3653702 42.0781963 56.3653702 114.127103 34.3811729 114.127103 34.3811729 42.0611675 0 76.4593693 0 45.381786 45.3647572 0 90.7465432 45.3988148"></polygon>
        <polygon id="path-10" points="0 0 725.427423 0 725.427423 546.624889 0 546.624889"></polygon>
        <linearGradient x1="43.6760563%" y1="50%" x2="56.1877934%" y2="50%" id="linearGradient-12">
            <stop stop-color="#0087C3" offset="0%"></stop>
            <stop stop-color="#5D9ECF" offset="58%"></stop>
            <stop stop-color="#EEF2F3" offset="100%"></stop>
        </linearGradient>
        <polygon id="path-13" points="90.7465432 37.650705 56.3653702 72.0489068 56.3653702 3.0249248e-15 34.3811729 3.0249248e-15 34.3811729 72.0489068 0 37.650705 0 68.7453171 45.3647572 114.110074 90.7465432 68.7282883"></polygon>
        <polygon id="path-15" points="0 0 725.427423 0 725.427423 546.624889 0 546.624889"></polygon>
        <linearGradient x1="43.6760563%" y1="50%" x2="56.1877934%" y2="50%" id="linearGradient-17">
            <stop stop-color="#26A664" offset="0%"></stop>
            <stop stop-color="#94C79E" offset="58%"></stop>
            <stop stop-color="#EDF4F0" offset="100%"></stop>
        </linearGradient>
    </defs>
    <g id="ES-ServieRed" stroke="none" stroke-width="1" fill="none" fill-rule="evenodd">
        <g id="ES-ServiceRed" transform="translate(40, 40)">
            <g id="Rectangle">
                <use fill="black" fill-opacity="1" filter="url(#filter-2)" xlink:href="#path-1"></use>
                <use fill="#1B1918" fill-rule="evenodd" xlink:href="#path-1"></use>
            </g>
            <g id="Logo" transform="translate(105.1994, 50.1371)">
                <path d="M633.114229,496.951843 L634.612765,486.411007 C630.440706,491.008787 626.421906,494.346434 622.573394,496.389892 C618.690825,498.467407 614.569852,499.489136 610.142361,499.489136 C602.564539,499.489136 596.638512,496.594237 592.398338,490.82147 C588.158164,485.014645 586.06362,476.874872 586.06362,466.351066 C586.06362,447.07445 589.895103,430.982222 597.524011,418.142497 C605.204005,405.302772 614.672025,398.865881 626.013214,398.865881 C630.440706,398.865881 634.25516,399.921667 637.541721,401.982154 C640.794224,404.093727 643.791295,407.397316 646.464818,411.92698 L654.638649,360.721341 L689.002793,360.721341 L667.461345,496.9859 L633.114229,496.9859 L633.114229,496.951843 Z M641.305088,439.241196 C641.305088,435.443771 640.726109,432.616988 639.585178,430.760847 C638.427219,428.887678 636.707309,427.951093 634.408419,427.951093 C630.968599,427.951093 628.039643,430.880049 625.621552,436.772018 C623.20346,442.646959 621.994415,449.935291 621.994415,458.637014 C621.994415,462.536612 622.539337,465.329337 623.629181,467.117363 C624.701996,468.87133 626.421906,469.756829 628.720796,469.756829 C632.194673,469.756829 635.191744,466.793815 637.643893,460.901846 C640.096043,454.975819 641.305088,447.772631 641.305088,439.224167 L641.305088,439.241196 Z M530.038826,437.112595 L550.507459,437.112595 C550.694776,435.069137 550.796948,433.570601 550.831006,432.685103 C550.865064,431.765547 550.899121,430.965193 550.899121,430.198897 C550.899121,427.13371 550.234998,424.851849 548.889721,423.251141 C547.544445,421.667461 545.552074,420.867107 542.861522,420.867107 C539.421702,420.867107 536.71412,422.144268 534.738778,424.69859 C532.729378,427.252912 531.213814,431.390913 530.055855,437.129623 L530.038826,437.112595 Z M575.131122,463.524283 C574.211566,474.933588 570.090593,483.822628 562.836319,490.225461 C555.530958,496.628295 545.875622,499.846741 533.904366,499.846741 C520.809209,499.846741 510.864383,496.287719 504.0188,489.10156 C497.173217,481.93243 493.750426,471.544854 493.750426,457.904775 C493.750426,439.922349 498.092773,425.567059 506.726381,414.787821 C515.394047,404.025611 526.990668,398.627478 541.550303,398.627478 C553.300184,398.627478 562.614944,401.760779 569.494585,407.993325 C576.374225,414.259928 579.814045,422.740277 579.814045,433.4514 C579.814045,436.193039 579.694844,439.156052 579.422383,442.374498 C579.16695,445.558886 578.792317,449.168994 578.213337,453.136707 L527.620734,453.136707 C527.280158,456.133778 526.973639,458.483755 526.82038,460.254751 C526.667121,461.974661 526.599006,463.371024 526.599006,464.42681 C526.599006,467.747429 527.331244,470.199578 528.82978,471.7492 C530.328316,473.349908 532.593148,474.133233 535.641305,474.133233 C538.893808,474.133233 541.380015,473.247735 543.133983,471.45971 C544.853893,469.705742 545.875622,467.032219 546.096996,463.490225 L575.131122,463.490225 L575.131122,463.524283 Z M390.947483,496.951843 L412.625162,360.670254 L444.741503,360.670254 C464.920646,360.670254 478.799128,363.326749 486.428036,368.605681 C494.039916,373.901642 497.871398,382.909884 497.871398,395.698522 C497.871398,406.818337 495.453307,415.962809 490.634153,423.131939 C485.814999,430.301069 478.867243,435.018051 469.756829,437.31694 L486.581296,496.968871 L446.240038,496.968871 L437.640488,441.91472 L429.074995,496.968871 L390.964512,496.968871 L390.947483,496.951843 Z M441.097337,421.429058 L443.140794,421.429058 C448.947619,421.429058 453.39214,419.606975 456.491383,415.979838 C459.624685,412.352701 461.174307,407.090798 461.174307,400.245215 C461.174307,396.328588 460.186636,393.450719 458.177236,391.577549 C456.201894,389.687351 453.10265,388.767795 448.930591,388.767795 C448.675158,388.767795 448.266467,388.801853 447.687487,388.869968 C447.07445,388.921054 446.597643,388.955112 446.223009,388.955112 L441.080308,421.429058 L441.097337,421.429058 Z M397.214086,365.02963 C397.214086,371.824126 395.170629,377.460663 391.100742,381.990328 C387.030856,386.485934 381.854097,388.733737 375.655609,388.733737 C370.870513,388.733737 367.022001,387.184116 364.127103,384.084872 C361.232205,380.968599 359.784756,376.847626 359.784756,371.756011 C359.784756,364.910428 361.828213,359.205776 365.932157,354.676112 C370.036101,350.11239 375.178803,347.847558 381.343233,347.847558 C386.196444,347.847558 390.044956,349.414209 392.905797,352.496424 C395.766637,355.612697 397.214086,359.801785 397.214086,365.012601 L397.214086,365.02963 Z M340.627341,496.951843 L355.765956,401.352088 L390.402561,401.352088 L375.263947,496.951843 L340.627341,496.951843 L340.627341,496.951843 Z M258.854983,401.352088 L293.202098,401.352088 L295.17744,459.6928 L315.612016,401.352088 L349.959131,401.352088 L307.761733,496.951843 L270.894353,496.951843 L258.854983,401.352088 L258.854983,401.352088 Z M177.985151,496.951843 L193.123765,401.352088 L225.785028,401.352088 L223.656427,414.702677 C227.521967,409.798379 231.77917,406.000954 236.530209,403.361488 C241.24719,400.722022 246.440978,399.155371 252.111573,398.644507 L246.798583,432.361556 L246.066344,432.361556 C237.585996,432.361556 231.404536,433.962264 227.48791,437.112595 C223.571283,440.296982 220.948845,446.035692 219.654656,454.294667 L213.030448,496.968871 L178.00218,496.968871 L177.985151,496.951843 Z M126.558136,437.112595 L147.00974,437.112595 C147.197057,435.069137 147.29923,433.570601 147.333288,432.685103 C147.367346,431.765547 147.401403,430.965193 147.401403,430.198897 C147.401403,427.13371 146.737279,424.851849 145.392003,423.251141 C144.063756,421.667461 142.054356,420.867107 139.363804,420.867107 C135.923983,420.867107 133.216402,422.144268 131.24106,424.69859 C129.23166,427.252912 127.699067,431.390913 126.558136,437.129623 L126.558136,437.112595 Z M171.650433,463.524283 C170.730877,474.933588 166.609904,483.822628 159.35563,490.225461 C152.050269,496.628295 142.411961,499.846741 130.423677,499.846741 C117.32852,499.846741 107.383693,496.287719 100.53811,489.10156 C93.6925278,481.93243 90.2867652,471.544854 90.2867652,457.904775 C90.2867652,439.922349 94.6120836,425.567059 103.245692,414.787821 C111.913357,404.025611 123.509979,398.627478 138.069614,398.627478 C149.836523,398.627478 159.134255,401.760779 166.013896,407.993325 C172.893536,414.259928 176.333356,422.740277 176.333356,433.4514 C176.333356,436.193039 176.214154,439.156052 175.958722,442.374498 C175.70329,445.558886 175.311627,449.168994 174.749676,453.136707 L124.157074,453.136707 C123.799469,456.133778 123.509979,458.483755 123.35672,460.254751 C123.20346,461.974661 123.135345,463.371024 123.135345,464.42681 C123.135345,467.747429 123.867584,470.199578 125.366119,471.7492 C126.864655,473.349908 129.129487,474.133233 132.177645,474.133233 C135.430148,474.133233 137.916354,473.247735 139.670322,471.45971 C141.390232,469.705742 142.411961,467.032219 142.633336,463.490225 L171.667461,463.490225 L171.650433,463.524283 Z M6.52203528,455.043934 C10.7622097,458.619985 15.2237586,461.361624 19.8726245,463.268851 C24.555548,465.210136 29.0170969,466.163749 33.3253866,466.163749 C37.1228118,466.163749 40.1369117,465.107963 42.4017438,463.030448 C44.6325182,460.935904 45.7564199,458.092092 45.7564199,454.499012 C45.7564199,451.365711 44.836864,448.283496 42.9466658,445.184252 C41.0905252,442.085008 37.4633881,438.015122 32.1163408,432.923507 C25.645392,426.605817 21.1838431,421.088482 18.7657517,416.286357 C16.3476602,411.50126 15.1386145,406.222328 15.1386145,400.415503 C15.1386145,387.422519 19.2425584,377.103058 27.5015326,369.406035 C35.743478,361.760098 46.9314079,357.928615 61.0482937,357.928615 C66.7870036,357.928615 72.2362237,358.57571 77.395954,359.835842 C82.5556842,361.113003 87.8175874,363.088345 93.1646346,365.761869 L87.7494721,399.002112 C83.6455282,396.141271 79.660786,393.961583 75.7782167,392.463047 C71.8786186,390.964512 68.1663374,390.232273 64.5902868,390.232273 C61.4399564,390.232273 58.9196921,391.066685 57.0805803,392.71848 C55.2584974,394.336217 54.3389415,396.601049 54.3389415,399.478918 C54.3389415,403.32743 57.8468769,408.742592 64.8797766,415.724406 C65.7652748,416.575846 66.4293985,417.256999 66.9572917,417.750834 C74.0583067,424.732648 78.7242013,430.692732 80.9549758,435.665145 C83.2198079,440.671616 84.3266807,446.410326 84.3266807,452.932362 C84.3266807,467.491996 79.8310742,478.986445 70.839861,487.38165 C61.8316191,495.793883 49.5368163,500 33.9043662,500 C27.2461004,500 20.9454397,499.199646 14.9853552,497.615966 C9.05932838,496.049315 4.05285743,493.852599 0,491.042844 L6.52203528,455.009877 L6.52203528,455.043934 Z" id="Shape" fill="#FFFFFF"></path>
                <g id="Clipped" transform="translate(189.6158, 109.8869)">
                    <mask id="mask-4" fill="white">
                        <use xlink:href="#path-3"></use>
                    </mask>
                    <g id="Shape"></g>
                    <g id="Group" mask="url(#mask-4)">
                        <g transform="translate(-207.3258, -132.995)" id="Clipped">
                            <mask id="mask-6" fill="white">
                                <use xlink:href="#path-5"></use>
                            </mask>
                            <g id="Path"></g>
                            <polygon id="Path" fill="url(#linearGradient-7)" fill-rule="nonzero" mask="url(#mask-6)" points="0 0 725.427423 0 725.427423 546.624889 0 546.624889"></polygon>
                        </g>
                    </g>
                </g>
                <g id="Clipped" transform="translate(299.1281, 196.206)">
                    <mask id="mask-9" fill="white">
                        <use xlink:href="#path-8"></use>
                    </mask>
                    <g id="Path"></g>
                    <g id="Group" mask="url(#mask-9)">
                        <g transform="translate(-316.8381, -219.3141)" id="Clipped">
                            <mask id="mask-11" fill="white">
                                <use xlink:href="#path-10"></use>
                            </mask>
                            <g id="Path"></g>
                            <polygon id="Path" fill="url(#linearGradient-12)" fill-rule="nonzero" mask="url(#mask-11)" points="0 0 725.427423 0 725.427423 546.624889 0 546.624889"></polygon>
                        </g>
                    </g>
                </g>
                <g id="Clipped" transform="translate(299.1281, 0.2043)">
                    <mask id="mask-14" fill="white">
                        <use xlink:href="#path-13"></use>
                    </mask>
                    <g id="Path"></g>
                    <g id="Group" mask="url(#mask-14)">
                        <g transform="translate(-316.8381, -23.3124)" id="Clipped">
                            <mask id="mask-16" fill="white">
                                <use xlink:href="#path-15"></use>
                            </mask>
                            <g id="Path"></g>
                            <polygon id="Path" fill="url(#linearGradient-17)" fill-rule="nonzero" mask="url(#mask-16)" points="0 0 725.427423 0 725.427423 546.624889 0 546.624889"></polygon>
                        </g>
                    </g>
                </g>
                <path d="M344.509911,10.5238063 C424.426129,10.5238063 489.254819,75.3354676 489.254819,155.268715 C489.254819,235.201962 424.443158,300.013623 344.509911,300.013623 C264.576664,300.013623 199.765002,235.201962 199.765002,155.268715 C199.765002,75.3354676 264.576664,10.5238063 344.509911,10.5238063 Z M344.509911,0 C430.232954,0 499.761597,69.5286425 499.761597,155.251686 C499.761597,240.974729 430.232954,310.520401 344.509911,310.520401 C258.786867,310.520401 189.241196,240.991758 189.241196,155.251686 C189.241196,69.5116137 258.769839,0 344.509911,0 L344.509911,0 Z" id="Shape" fill="#FFFFFF"></path>
            </g>
        </g>
    </g>
</svg>