<?xml version="1.0" encoding="UTF-8"?>
<svg width="980px" height="680px" viewBox="0 0 980 680" version="1.1" xmlns="http://www.w3.org/2000/svg" xmlns:xlink="http://www.w3.org/1999/xlink">
    <title>EU Billpay alt</title>
    <defs>
        <rect id="path-1" x="2.84217094e-14" y="0" width="900" height="600" rx="80"></rect>
        <filter x="-6.7%" y="-10.0%" width="113.3%" height="120.0%" filterUnits="objectBoundingBox" id="filter-2">
            <feMorphology radius="2.5" operator="dilate" in="SourceAlpha" result="shadowSpreadOuter1"></feMorphology>
            <feOffset dx="0" dy="0" in="shadowSpreadOuter1" result="shadowOffsetOuter1"></feOffset>
            <feGaussianBlur stdDeviation="17.5" in="shadowOffsetOuter1" result="shadowBlurOuter1"></feGaussianBlur>
            <feColorMatrix values="0 0 0 0 0   0 0 0 0 0   0 0 0 0 0  0 0 0 0.5 0" type="matrix" in="shadowBlurOuter1"></feColorMatrix>
        </filter>
    </defs>
    <g id="EU-Billpay-alt" stroke="none" stroke-width="1" fill="none" fill-rule="evenodd">
        <g transform="translate(40, 40)">
            <g id="Rectangle">
                <use fill="black" fill-opacity="1" filter="url(#filter-2)" xlink:href="#path-1"></use>
                <use fill="#0069B4" fill-rule="evenodd" xlink:href="#path-1"></use>
            </g>
            <g id="Logo" transform="translate(50, 241)" fill="#FFFFFF" fill-rule="nonzero">
                <path d="M44.7166923,2.4511207 C42.87902,1.22556035 40.4287902,0.408520117 37.9785604,0.204260058 C35.5283307,-7.10542736e-14 33.2822869,0.408520117 31.6488003,1.22556035 C30.0153139,2.04260059 29.1985707,3.26816093 29.4027565,4.9022414 C29.6069423,6.53632187 30.8320571,7.9661423 32.6697295,9.19170264 C34.5074018,10.417263 37.1618173,11.2343032 39.8162328,11.6428233 C42.4706483,11.8470834 44.7166923,11.4385633 46.1459929,10.621523 C47.5752935,9.80448282 48.3920367,8.37466239 47.9836653,6.74058192 C47.9836653,5.10650145 46.5543643,3.47242101 44.7166923,2.4511207 Z M70.2399183,10.8257831 C69.6273609,9.19170264 68.402246,7.55762217 66.5645737,6.33206183 C64.7269016,4.9022414 62.4808576,3.8809411 60.2348138,3.47242101 C55.742726,2.65538076 52.4757531,4.28946123 53.2924962,7.35336209 C53.700868,8.98744256 55.1301686,10.621523 56.9678409,12.0513435 C58.8055129,13.4811639 61.2557427,14.5024642 63.7059725,15.1152443 C68.402246,16.1365446 71.2608475,14.093944 70.2399183,10.8257831 Z M89.0250128,16.3408047 C88.4124553,14.7067242 87.1873404,13.0726438 85.5538541,11.6428233 C83.9203675,10.2130029 81.8785095,8.98744256 80.0408371,8.57892247 C76.1613067,7.35336209 73.711077,8.98744256 74.7320061,12.2556035 C75.3445636,13.889684 76.5696785,15.7280245 78.4073508,17.1578449 C80.2450231,18.5876653 82.2868812,19.8132257 84.3287392,20.4260059 C88.0040839,21.4473062 90.2501276,19.6089656 89.0250128,16.3408047 Z M95.9673304,22.4686064 C97.6008167,24.1026869 99.2343033,25.3282472 100.86779,25.9410274 C104.134763,27.1665878 105.768249,25.3282472 104.543134,22.0600863 C103.930577,20.4260059 102.705462,18.7919254 101.276161,17.1578449 C99.8468607,15.7280245 98.2133741,14.5024642 96.3757018,13.889684 C93.1087288,12.6641236 91.2710568,14.093944 92.4961714,17.566365 C93.3129149,19.2004455 94.5380298,21.038786 95.9673304,22.4686064 Z M71.2608475,22.2643464 C69.4231752,20.6302659 66.9729454,19.4047056 64.5227156,18.9961854 C62.0724858,18.5876653 60.0306278,18.7919254 58.6013272,19.8132257 C57.1720266,20.834526 56.5594692,22.4686064 56.9678409,24.511207 C57.3762123,26.5538076 58.8055129,28.5964082 60.8473713,30.4347487 C62.8892293,32.0688293 65.3394588,33.4986496 67.9938746,33.9071696 C70.444104,34.31569 72.4859624,33.9071696 73.711077,32.8858694 C74.9361919,31.8645691 75.3445636,30.0262286 74.9361919,27.983628 C74.7320061,25.7367674 73.3027056,23.8984269 71.2608475,22.2643464 Z M94.5380298,33.2943894 C93.9254723,31.251789 92.7003574,29.2091884 91.0668708,27.5751079 C89.4333845,25.9410274 87.3915265,24.511207 85.3496681,24.1026869 C81.265952,22.8771266 78.8157222,25.1239872 79.8366514,29.2091884 C80.4492089,31.251789 81.8785095,33.2943894 83.5119961,35.13273 C85.3496681,36.9710707 87.3915265,38.4008909 89.4333845,38.8094113 C93.5171006,39.8307115 95.7631447,37.3795907 94.5380298,33.2943894 Z M110.260337,38.8094113 C109.64778,36.7668105 108.62685,34.9284699 107.19755,33.2943894 C105.768249,31.6603091 104.134763,30.4347487 102.501276,29.8219685 C99.2343033,28.5964082 97.396631,30.6390088 98.6217458,34.72421 C99.2343033,36.7668105 100.459418,38.8094113 101.888719,40.6477516 C103.318019,42.4860922 105.155692,43.7116526 106.789178,44.3244328 C109.851965,45.1414728 111.281266,42.6903523 110.260337,38.8094113 Z M96.3757018,47.1840736 C94.7422155,45.345733 92.7003574,43.9159124 90.6584994,43.3031326 C88.616641,42.6903523 86.9831547,43.3031326 85.7580398,44.5286926 C84.7371106,45.7542531 84.3287392,47.7968538 84.7371106,50.2479743 C85.1454824,52.6990952 86.574783,55.3544758 88.2082696,57.3970763 C89.8417559,59.4396771 92.0878,60.8694974 94.129658,61.2780177 C96.1715161,61.6865377 97.8050027,61.0737575 98.8259316,59.6439369 C99.8468607,58.2141167 100.051046,56.1715162 99.6426747,53.7203954 C99.2343033,51.4735348 98.0091884,49.0224139 96.3757018,47.1840736 Z M111.07708,65.1589588 C114.139867,65.9759988 115.97754,62.9120981 114.95661,58.2141167 C114.548239,55.967256 113.52731,53.7203954 112.098009,51.8820548 C110.668709,50.0437145 109.035222,48.8181541 107.605921,48.2053739 C104.338949,47.1840736 102.297091,50.0437145 103.318019,54.7416956 C103.726391,57.1928164 104.951506,59.4396771 106.380807,61.4822776 C107.810107,63.3206182 109.443594,64.7504384 111.07708,65.1589588 Z M118.427769,80.4784629 C118.223583,78.0273424 117.40684,75.5762216 116.181725,73.737881 C114.95661,71.8995407 113.52731,70.6739803 111.893823,70.2654603 C110.260337,69.8569399 109.035222,70.6739803 108.014293,72.1038006 C107.19755,73.5336212 106.789178,75.7804818 106.993364,78.4358625 C107.19755,81.0912431 108.218479,83.7466241 109.443594,85.5849644 C110.668709,87.4233051 112.302195,88.8531253 113.731496,88.8531253 C115.364982,89.0573855 116.590097,88.2403454 117.40684,86.6062647 C118.427769,85.1764444 118.631955,82.9295838 118.427769,80.4784629 Z" id="Shape"></path>
                <path d="M5.51301683,26.3495475 C7.55487494,27.779368 10.2092905,28.5964082 13.4762634,28.5964082 C16.7432364,28.5964082 19.3976519,27.779368 21.43951,26.3495475 C23.4813681,24.9197271 24.5022971,23.0813866 24.5022971,21.038786 C24.2981113,18.9961854 23.0729964,17.1578449 21.0311383,15.9322846 C18.9892803,14.7067242 16.3348647,13.889684 13.4762634,13.889684 C10.6176621,13.889684 7.96324655,14.7067242 5.92138847,15.9322846 C3.87953037,17.1578449 2.65441551,18.9961854 2.45022971,21.038786 C2.45022971,23.0813866 3.47115876,24.9197271 5.51301683,26.3495475 Z M4.69627362,50.0437145 C6.94231753,51.8820548 10.0051047,53.1076152 13.4762634,53.1076152 C16.9474222,53.1076152 20.0102093,51.8820548 22.2562532,50.0437145 C24.5022971,48.2053739 25.727412,45.7542531 25.5232262,42.8946122 C25.3190403,40.2392315 23.8897397,37.7881107 21.8478816,36.1540303 C19.6018377,34.5199498 16.7432364,33.2943894 13.4762634,33.2943894 C10.2092905,33.2943894 7.35068914,34.31569 5.10464523,36.1540303 C2.85860132,37.7881107 1.42930066,40.2392315 1.42930066,42.8946122 C1.22511486,45.7542531 2.45022971,48.2053739 4.69627362,50.0437145 Z M36.3450741,50.6564944 C38.5911179,52.6990952 41.6539051,54.1289154 44.920878,54.3331756 C48.187851,54.5374358 50.8422665,53.7203954 52.6799388,52.086315 C54.5176111,50.4522345 55.3343543,48.0011137 54.9259825,45.345733 C54.5176111,42.6903523 53.0883105,40.2392315 50.8422665,38.1966311 C48.5962227,36.3582904 45.7376212,34.9284699 42.87902,34.72421 C39.8162328,34.5199498 37.1618173,35.13273 35.3241449,36.7668105 C33.4864726,38.1966311 32.2613577,40.4434917 32.4655438,43.3031326 C32.4655438,45.9585132 34.0990301,48.6138939 36.3450741,50.6564944 Z M13.4762634,83.950884 C17.151608,83.950884 20.6227667,82.5210637 22.8688106,80.2742031 C25.3190403,78.0273424 26.748341,74.7591816 26.5441552,71.4910204 C26.5441552,68.0185996 24.9106687,65.1589588 22.460439,62.9120981 C20.0102093,60.6652375 16.9474222,59.4396771 13.2720776,59.4396771 C9.80091885,59.4396771 6.53394589,60.6652375 4.08371617,62.9120981 C1.63348646,65.1589588 0.204185811,68.0185996 0,71.4910204 C0,74.9634414 1.22511486,78.0273424 3.67534456,80.2742031 C6.32976008,82.5210637 9.80091885,83.950884 13.4762634,83.950884 Z M46.9627361,84.7679244 C50.4338947,84.9721842 53.2924962,83.542364 55.3343543,81.4997635 C57.3762123,79.4571627 58.3971415,76.393262 58.1929555,73.1251008 C57.9887698,69.8569399 56.3552835,66.7930392 54.1092394,64.5461786 C51.8631956,62.2993179 48.8004084,60.8694974 45.5334355,60.4609773 C42.2664625,60.2567172 39.407861,61.2780177 37.1618173,63.3206182 C35.1199592,65.3632186 33.6906586,68.2228595 33.8948444,71.6952805 C34.0990301,75.1677016 35.5283307,78.2316023 37.9785604,80.6827231 C40.2246045,82.9295838 43.4915774,84.5636642 46.9627361,84.7679244 Z M75.1403779,86.1977446 C77.7947934,86.4020048 80.0408371,85.1764444 81.6743237,83.3381038 C83.1036243,81.4997635 83.9203675,78.6401227 83.7161818,75.7804818 C83.3078101,72.7165808 82.0826952,69.8569399 80.2450231,67.8143395 C78.4073508,65.5674788 75.957121,64.1376582 73.0985195,63.7291382 C70.444104,63.3206182 67.9938746,64.3419184 66.360388,65.9759988 C64.7269016,67.8143395 63.9101582,70.4697201 64.1143442,73.737881 C64.3185299,77.0060422 65.7478305,80.0699429 67.7896885,82.3168036 C69.8315466,84.5636642 72.4859624,85.9934848 75.1403779,86.1977446 Z M13.4762634,91.5085063 C9.80091885,91.5085063 6.32976008,92.9383266 3.87953037,95.3894474 C1.42930066,97.8405679 0,101.312989 0,104.98967 C0,108.666351 1.42930066,112.138772 3.87953037,114.589893 C6.32976008,117.041013 9.80091885,118.470834 13.4762634,118.470834 C17.151608,118.470834 20.6227667,117.041013 23.0729964,114.589893 C25.5232262,112.138772 26.9525268,108.666351 26.9525268,104.98967 C26.9525268,101.312989 25.5232262,97.8405679 23.0729964,95.3894474 C20.6227667,92.9383266 17.151608,91.5085063 13.4762634,91.5085063 Z M47.1669218,91.9170263 C43.6957631,91.9170263 40.6329759,93.1425867 38.3869322,95.5937072 C36.1408881,98.0448281 34.7115875,101.312989 34.7115875,104.98967 C34.7115875,108.666351 36.1408881,112.138772 38.3869322,114.385633 C40.6329759,116.836754 43.8999489,118.266574 47.1669218,118.062314 C50.6380807,118.062314 53.700868,116.428233 55.742726,113.977113 C57.9887698,111.525992 59.2138846,108.462091 59.2138846,104.78541 C59.2138846,101.312989 57.784584,98.0448281 55.742726,95.5937072 C53.4966819,93.5511068 50.4338947,92.1212865 47.1669218,91.9170263 Z M75.5487493,92.9383266 C72.8943338,92.7340667 70.2399183,94.163887 68.402246,96.2064875 C66.5645737,98.4533481 65.3394588,101.517249 65.3394588,104.98967 C65.3394588,108.462091 66.5645737,111.525992 68.402246,113.772853 C70.2399183,116.019713 72.6901481,117.245274 75.5487493,117.041013 C78.2031648,116.836754 80.6533946,115.406933 82.2868812,113.364333 C83.9203675,111.117472 85.1454824,108.257831 85.1454824,104.98967 C85.1454824,101.721509 84.1245535,98.8618684 82.2868812,96.6150078 C80.6533946,94.572407 78.2031648,93.1425867 75.5487493,92.9383266 Z M102.705462,97.636308 C101.480347,95.5937072 99.6426747,94.3681472 97.6008167,94.163887 C95.5589586,93.9596268 93.7212863,95.1851872 92.2919857,97.227788 C90.8626851,99.2703885 90.0459419,101.925769 90.0459419,105.19393 C90.0459419,108.257831 90.8626851,111.117472 92.2919857,113.160072 C93.7212863,115.202673 95.5589586,116.223973 97.6008167,116.223973 C99.6426747,116.019713 101.480347,114.794153 102.705462,112.751552 C103.930577,110.708952 104.74732,108.053571 104.74732,105.19393 C104.951506,102.130029 104.134763,99.4746487 102.705462,97.636308 Z" id="Shape"></path>
                <path d="M248.085758,57.8055967 L248.085758,56.9885563 C254.007147,55.558736 269.93364,51.8820548 269.93364,29.6177085 C269.93364,0 238.284839,0 228.075549,0 L178.050026,0 L178.050026,118.470834 L226.850434,118.470834 C239.101583,118.470834 273.200613,118.470834 273.200613,86.6062647 C273.200613,64.7504384 257.886677,59.2354169 248.085758,57.8055967 Z M209.086269,23.4899067 L226.033691,23.4899067 C235.017866,23.4899067 239.101583,25.7367674 239.101583,34.9284699 C239.101583,42.8946122 234.201123,46.3670333 226.033691,46.3670333 L209.086269,46.3670333 L209.086269,23.4899067 Z M228.075549,95.3894474 L209.086269,95.3894474 L209.086269,69.8569399 L226.646248,69.8569399 C236.242981,69.8569399 241.755998,72.5123209 241.755998,82.7253236 C241.960184,90.2829459 236.447167,95.3894474 228.075549,95.3894474 Z M449.208779,93.5511068 L449.208779,0 L416.53905,0 L416.53905,118.470834 L467.177132,118.470834 L471.873405,93.5511068 L449.208779,93.5511068 Z M366.513526,0.204260058 L333.843797,0.204260058 L333.843797,118.675094 L410.413476,118.675094 L410.413476,93.755367 L366.309341,93.755367 L366.513526,0.204260058 L366.513526,0.204260058 Z M285.655947,118.675094 L318.325676,118.675094 L318.325676,0.204260058 L285.655947,0.204260058 L285.655947,118.675094 Z" id="Shape"></path>
                <path d="M585.400716,32.2730892 C585.400716,10.2130029 570.495151,0.204260058 546.401224,0.204260058 L498.621745,0.204260058 L475.957122,118.675094 L508.218478,118.675094 L515.773355,78.6401227 L538.233792,78.6401227 C563.961204,78.4358625 585.400716,62.2993179 585.400716,32.2730892 Z M537.212864,54.3331756 L520.469627,54.3331756 L526.186832,24.306947 L540.071464,24.306947 C549.464013,24.306947 553.9561,27.3708478 553.9561,37.7881107 C554.160285,47.7968538 547.013782,54.3331756 537.212864,54.3331756 Z M620.112302,0.204260058 L553.751915,118.675094 L588.259316,118.675094 L601.327209,94.3681472 L644.206227,94.3681472 L647.269015,118.675094 L679.938745,118.675094 L661.562021,0.204260058 L620.112302,0.204260058 Z M613.578358,71.0825003 L629.300662,39.0136711 C631.546708,34.31569 633.38438,29.4134484 635.426237,24.306947 L636.24298,24.306947 C636.24298,28.3921481 636.651353,33.4986496 637.263912,39.4221912 L641.347626,71.2867605 L613.578358,71.2867605 L613.578358,71.0825003 Z M762.42981,0.204260058 L737.927515,35.5412501 C734.660541,40.4434917 732.414496,44.937213 730.781012,48.6138939 L729.964269,48.6138939 C729.147525,44.3244328 728.739152,39.2179313 726.90148,33.4986496 L716.079633,0.204260058 L681.163858,0.204260058 L710.158244,74.9634414 L701.786627,118.470834 L734.047983,118.470834 L742.419603,74.9634414 L800,0.204260058 L762.42981,0.204260058 L762.42981,0.204260058 Z" id="Shape"></path>
            </g>
        </g>
    </g>
</svg>