<?xml version="1.0" encoding="UTF-8"?>
<svg width="980px" height="680px" viewBox="0 0 980 680" version="1.1" xmlns="http://www.w3.org/2000/svg" xmlns:xlink="http://www.w3.org/1999/xlink">
    <title>EU Billsafe</title>
    <defs>
        <linearGradient x1="50%" y1="0%" x2="50%" y2="100%" id="linearGradient-1">
            <stop stop-color="#FFFFFF" offset="0%"></stop>
            <stop stop-color="#EDEDED" offset="100%"></stop>
        </linearGradient>
        <rect id="path-2" x="2.84217094e-14" y="0" width="900" height="600" rx="80"></rect>
        <filter x="-6.7%" y="-10.0%" width="113.3%" height="120.0%" filterUnits="objectBoundingBox" id="filter-3">
            <feMorphology radius="2.5" operator="dilate" in="SourceAlpha" result="shadowSpreadOuter1"></feMorphology>
            <feOffset dx="0" dy="0" in="shadowSpreadOuter1" result="shadowOffsetOuter1"></feOffset>
            <feGaussianBlur stdDeviation="17.5" in="shadowOffsetOuter1" result="shadowBlurOuter1"></feGaussianBlur>
            <feColorMatrix values="0 0 0 0 0   0 0 0 0 0   0 0 0 0 0  0 0 0 0.5 0" type="matrix" in="shadowBlurOuter1"></feColorMatrix>
        </filter>
        <polygon id="path-4" points="0 0 125.506954 0 125.506954 149.296579 0 149.296579"></polygon>
        <polygon id="path-6" points="0 0 105.892602 0 105.892602 146.649724 0 146.649724"></polygon>
        <polygon id="path-8" points="0 246.101755 800 246.101755 800 0 0 0"></polygon>
    </defs>
    <g id="EU-Billsafe" stroke="none" stroke-width="1" fill="none" fill-rule="evenodd">
        <g transform="translate(40, 40)">
            <g id="Rectangle">
                <use fill="black" fill-opacity="1" filter="url(#filter-3)" xlink:href="#path-2"></use>
                <use fill="url(#linearGradient-1)" fill-rule="evenodd" xlink:href="#path-2"></use>
            </g>
            <g id="Logo" transform="translate(50, 177)">
                <path d="M514.835729,193.271846 L476.602769,193.271846 L475.114356,193.067278 C475.100256,191.494224 494.378979,123.669518 495.613438,120.854951 C496.523411,122.167005 516.020809,189.631955 516.486377,193.024954 L514.835729,193.271846 M523.998942,98.2467155 L466.064016,98.2467155 L465.633718,99.0720395 C451.208183,147.145402 436.761485,195.239926 422.335949,243.327396 L422.321841,243.934045 L422.378274,244.110396 L422.568733,244.357288 L423.824354,244.526585 L458.043559,244.526585 L460.223261,242.798342 C461.380125,238.862181 462.494665,234.862534 463.65153,230.884049 C464.688475,227.314699 465.760691,223.731241 466.727096,220.140728 L468.547042,218.729918 L469.534609,218.729918 L523.68151,218.729918 C526.312671,227.413456 528.915616,235.913588 531.490345,244.399612 L568.404197,244.399612 C553.590689,195.54325 538.805396,146.89851 523.998942,98.2467155" id="Fill-1" fill="#00A44E"></path>
                <g id="Group-5" transform="translate(296.9442, 96.8052)">
                    <mask id="mask-5" fill="white">
                        <use xlink:href="#path-4"></use>
                    </mask>
                    <g id="Clip-4"></g>
                    <path d="M121.07751,44.6356145 L121.218591,42.3359936 C121.176267,39.4932108 121.239754,36.6151577 121.035186,33.7653208 C120.675429,28.601755 119.807781,23.5722162 117.896133,18.7613529 C115.427215,12.5608415 111.335865,8.00392412 104.916678,5.73957354 L100,4.11714165 C90.9073314,1.48598038 81.5395508,0.533683404 72.143554,0.202142975 C59.6155582,-0.206992021 47.0946165,-0.129397453 34.6230531,1.71876408 C28.8246227,2.57230434 23.132003,3.88435795 17.6368967,6.02878966 C11.0625205,8.58235636 6.62552205,13.0969494 3.98025267,19.5443527 C1.99806415,24.3411078 0.982280711,29.3424304 0.481443042,34.470726 C-0.259232383,42.1384802 -0.153421608,49.76391 0.855307781,57.410502 C1.50428053,62.3977166 2.6329288,67.2438501 4.82673887,71.7937134 C7.01349489,76.251874 10.2371965,79.6871972 14.8505463,81.6693857 L19.4991663,83.5316554 C27.8441095,86.3391679 36.513539,87.4113838 45.2464549,87.855789 C52.893047,88.2437619 60.5678552,88.2437619 68.2285553,88.4906537 C72.3622296,88.6105726 76.4817957,88.7657617 80.5731457,89.4782209 C84.7985227,90.2682747 87.3661975,92.5961118 88.262062,96.8073806 C89.1438185,100.969271 89.2496293,105.14527 88.5653863,109.321268 L87.570765,112.763645 C86.484441,115.437131 84.5516309,117.313509 81.7441183,118.138833 L76.9050388,119.281589 C68.461339,120.353805 60.0317472,120.452562 51.5598312,119.655454 C48.8722375,119.408562 46.1846438,118.773698 43.5393744,118.054184 C39.9418081,117.087779 37.5857548,114.611807 36.3583498,111.112997 L35.4342691,107.458999 L34.7923504,102.902081 C23.2166516,102.916189 11.7538176,102.902081 0.100524252,102.916189 L0.100524252,105.187594 L0.425010629,110.562781 C0.721280799,115.493563 1.47606433,120.353805 2.90803682,125.108236 C5.60973861,134.243233 11.1471692,140.951636 19.9365176,144.866635 C23.2589759,146.35504 26.8001098,147.046337 30.3553519,147.554228 C37.9596196,148.626444 45.5779954,149.084958 53.2669117,149.204876 C65.872502,149.416498 78.4780924,149.416498 90.984926,147.554228 C96.578789,146.728904 102.109165,145.487391 107.371488,143.293581 C111.956622,141.396041 115.582404,138.391015 118.185349,134.158584 C120.372105,130.539856 121.987483,126.681289 123.059699,122.604048 C125.387536,113.814699 125.803725,104.827837 125.338158,95.8198134 C125.055996,91.0089501 124.399969,86.2827355 123.116131,81.6270614 C120.661321,72.5767131 115.180323,66.6654178 106.045326,64.0483646 C98.5539234,61.910987 90.9214395,60.9093117 83.1901989,60.5777712 C73.3921211,60.133366 63.6010974,59.999339 53.8030196,59.6677986 C49.9867777,59.5126094 46.2692924,58.8706907 42.7634288,57.1565562 C40.0264567,55.7951242 38.29116,53.6859627 37.3952954,50.7938016 C36.647566,48.3389916 36.4853228,45.806587 36.5558633,43.2741825 C36.8027551,34.202672 41.5289697,31.2047001 47.8494,30.2100788 C54.2121546,29.2154575 60.5819633,28.9262414 67.0152584,29.3847547 C70.5281761,29.6316465 74.0128777,30.0831059 77.469363,30.6756462 C82.117983,31.4798081 84.6221714,34.5483206 85.6309008,38.971211 L86.1246844,42.117318 L86.5761437,44.6356145" id="Fill-3" fill="#00A44E" mask="url(#mask-5)"></path>
                </g>
                <g id="Group-8" transform="translate(694.1074, 97.7924)">
                    <mask id="mask-7" fill="white">
                        <use xlink:href="#path-6"></use>
                    </mask>
                    <g id="Clip-7"></g>
                    <path d="M100.23102,84.4158363 C100.767128,82.2149722 100.682479,62.0403844 100.146372,60.3050877 L97.6703994,60.3050877 C78.2012168,60.3050877 58.7320342,60.3050877 39.2628516,60.2627634 L36.6175822,60.1005202 C36.2507715,57.2436293 36.3283661,30.7697734 36.7868795,29.1402875 L39.2628516,29.0062605 L77.0443523,29.0062605 L102.460101,29.0062605 L104.696235,28.8369632 C105.10537,24.3082621 104.943127,1.53072921 104.526938,0 L0.162243188,0 L0.04232431,3.06145843 C0,36.1237986 0,69.2073009 0,102.297857 C0,116.07442 0,129.865091 0.04232431,143.712195 L0.204567498,146.357464 C3.06145843,146.830086 104.526938,146.689004 105.895424,146.223437 L105.895424,117.471122 L59.5996826,117.471122 C55.7975487,117.471122 51.9954149,117.506393 48.193281,117.471122 C44.3488229,117.428798 40.5043647,117.591041 36.7445552,117.386474 C36.2507715,115.030421 36.3283661,86.0947006 36.8292038,84.4722688 L74.9775152,84.4722688 C79.1535138,84.4722688 83.3647826,84.4863769 87.5407812,84.4722688 C91.8014284,84.4440526 96.0550216,84.500485 100.23102,84.4158363" id="Fill-6" fill="#00A44E" mask="url(#mask-7)"></path>
                </g>
                <path d="M578.735561,244.234547 C581.465479,244.700115 613.236928,244.594304 614.972225,244.072304 L614.972225,241.589278 L614.972225,192.789348 C614.986333,189.177674 614.570144,189.290539 618.400494,189.290539 L673.605502,189.290539 L676.293096,189.128296 C676.709285,186.12327 676.582312,161.61044 676.130853,160.107927 L618.358169,160.107927 L616.552332,160.079711 L614.986333,158.556036 L614.972225,157.145225 L614.972225,129.951856 C614.972225,126.798695 614.972225,126.798695 618.195926,126.798695 L678.818446,126.798695 L681.463716,126.657614 C681.915175,123.821885 681.788202,99.1891368 681.336743,97.8347588 C677.781501,97.4256238 580.26629,97.587867 578.735561,98.0393263" id="Fill-9" fill="#00A44E"></path>
                <mask id="mask-9" fill="white">
                    <use xlink:href="#path-8"></use>
                </mask>
                <g id="Clip-12"></g>
                <polygon id="Fill-11" fill="#FEFEFE" mask="url(#mask-9)" points="248.239132 244.768539 281.788202 244.768539 281.788202 97.6915616 248.239132 97.6915616"></polygon>
                <path d="M227.685742,244.482144 C228.073715,240.764659 227.904418,98.9500044 227.537607,97.4474914 L194.291861,97.4474914 C193.847456,100.685301 194.016753,243.120712 194.454105,244.482144" id="Fill-13" fill="#FEFEFE" mask="url(#mask-9)"></path>
                <path d="M174.628692,244.482144 L174.628692,141.732828 C171.609558,141.274314 142.391676,141.45772 141.065515,141.895071 L141.065515,244.482144" id="Fill-14" fill="#FEFEFE" mask="url(#mask-9)"></path>
                <path d="M39.6790406,156.36152 L41.2803104,156.474385 C50.3870911,156.474385 59.522088,156.523763 68.6500309,156.417953 C71.4928137,156.389736 74.3567587,156.114628 77.1642712,155.620845 C81.6718102,154.816683 83.5764042,152.763954 84.4440526,148.263469 C85.0648091,144.983335 85.0083767,141.646768 84.7332687,138.338418 L84.0560797,134.994798 C83.407107,132.511771 81.8763777,130.875231 79.3580813,130.360286 C77.4182171,129.965259 75.4148664,129.61961 73.446786,129.61961 C62.7810599,129.534962 52.150604,129.577286 41.4848779,129.577286 L39.6790406,129.704259 L39.6790406,156.36152 Z M39.7072569,212.30015 L40.546689,212.448285 C50.7962261,212.405961 61.0739794,212.490609 71.3235164,212.349528 C74.0957588,212.30015 76.8750551,211.749934 79.5626488,211.044529 C83.3647826,210.049907 85.7067278,207.446962 86.6167005,203.602504 C87.5831055,199.391235 87.5407812,195.172912 86.553214,190.95459 C85.7631602,187.639185 83.7668636,185.487699 80.416189,184.852835 C77.5663522,184.302619 74.6318667,183.837051 71.7114893,183.780619 C61.5466008,183.639538 51.332334,183.69597 41.1533374,183.69597 L39.7072569,183.837051 L39.7072569,212.30015 Z M0,97.2132969 L2.60294507,97.3120536 C28.0680716,97.3120536 53.5261441,97.2556212 78.9701085,97.3402698 C87.1951327,97.368486 95.3778326,98.0033507 103.292479,100.436999 C105.479235,101.100079 107.673045,101.995944 109.782206,102.962349 C115.058637,105.395997 118.620933,109.452077 120.885283,114.777886 C122.634688,118.953884 123.544661,123.29918 123.876201,127.757341 C124.475796,135.227581 124.440526,142.683714 122.782823,150.04109 C122.303148,152.227846 121.583635,154.421656 120.758311,156.502601 C119.149987,160.579843 116.229609,163.528437 112.371043,165.538841 C109.224936,167.217706 105.838991,168.141786 102.340182,168.818975 L101.303236,170.370867 C103.72983,170.688299 106.212856,170.787056 108.60418,171.280839 C110.727449,171.767569 112.864827,172.451812 114.847015,173.347677 C117.823825,174.716163 120.067013,176.973459 121.710608,179.837404 C124.038445,183.942862 125.322282,188.436293 125.886606,193.106075 C127.015254,202.353937 126.888281,211.580637 124.821444,220.715634 L123.911472,223.981659 C121.50604,231.917468 116.476501,237.334979 108.660612,240.269465 C103.066749,242.336302 97.2542104,243.570761 91.328807,244.015166 C85.9606737,244.396085 80.5572701,244.593598 75.1679746,244.607707 C50.9937395,244.678247 26.7701261,244.621815 2.58883696,244.621815 L0,244.480734 L0,97.2132969 Z" id="Fill-15" fill="#231F20" mask="url(#mask-9)"></path>
                <path d="M255.268495,0.00141081033 L253.892955,1.6520589 C235.883961,16.1199189 221.57129,33.8961291 208.105105,52.4271228 C194.949299,70.5560356 183.93087,89.9405696 174.711225,110.362049 C172.975928,114.178291 171.184199,117.952209 169.258443,121.683802 C167.022308,125.97972 163.424742,128.50507 158.635041,129.273962 C156.060312,129.704259 153.838286,129.02707 152.131205,127.016665 C148.921612,123.29918 145.683802,119.574641 142.516533,115.800723 C135.681157,107.505158 128.570673,99.4917556 120.59254,92.2542986 L116.296623,87.803192 C114.575434,85.764571 114.928137,83.6977339 117.164271,82.1740587 C119.739,80.4740323 122.71581,80.0648973 125.720836,79.7615731 C134.277401,78.9080328 141.380831,81.800194 147.292126,88.0289216 C150.819152,91.7605149 153.922934,95.8236487 156.815096,100.098404 C158.635041,102.764836 159.502689,102.715457 160.991094,99.7809717 C171.036064,80.1848162 182.096817,61.188255 195.118596,43.3979367 C202.765188,32.9438321 210.750375,22.7789437 219.723128,13.4323252 C222.079182,10.9986774 224.766775,8.88951592 227.270964,6.57578697 C230.127855,3.9587338 233.485583,2.56203157 237.315933,2.13878847 C241.795256,1.61678864 246.288687,1.03835641 250.789172,0.481086324 L252.482144,0.00141081033" id="Fill-16" fill="#00A44E" mask="url(#mask-9)"></path>
                <path d="M418.021691,141.44079 L383.520324,141.44079 L383.068865,138.922494 L382.575082,135.776387 C381.566352,131.353496 379.062164,128.284984 374.413544,127.480822 C370.957058,126.888281 367.472357,126.436822 363.959439,126.18993 C357.526144,125.731417 351.156335,126.020633 344.793581,127.015254 C338.473151,128.009876 333.746936,131.007848 333.500044,140.079358 C333.429504,142.611763 333.591747,145.144167 334.339476,147.598977 C335.235341,150.491138 336.970638,152.6003 339.70761,153.961732 C343.213473,155.675866 346.930958,156.317785 350.7472,156.472974 C360.545278,156.804515 370.336302,156.938542 380.13438,157.382947 C387.86562,157.714487 395.498104,158.716163 402.989507,160.85354 C412.124504,163.470593 417.605502,169.381889 420.060312,178.432237 C421.34415,183.087911 422.000176,187.814126 422.282338,192.624989 C422.747906,201.633013 422.331717,210.619875 420.00388,219.409223 C418.931664,223.486465 417.316286,227.345031 415.12953,230.96376 C412.526585,235.196191 408.900802,238.201217 404.315669,240.098757 C399.053346,242.292567 393.52297,243.53408 387.929107,244.359404 C375.422273,246.221674 362.816683,246.221674 350.211092,246.010052 C342.522176,245.890133 334.9038,245.43162 327.299533,244.359404 C323.744291,243.851512 320.203157,243.160215 316.880698,241.67181 C308.09135,237.756812 302.553919,231.048408 299.852218,221.913412 C298.420245,217.158981 297.665462,212.298739 297.369191,207.367957 L297.044705,201.99277 L297.044705,199.721365 C308.697998,199.707257 320.160832,199.721365 331.736531,199.707257 L332.37845,204.264174 L333.302531,207.918173 C334.529936,211.416983 336.885989,213.892955 340.483555,214.85936 C343.128825,215.578873 345.816418,216.213738 348.504012,216.46063 C356.975928,217.257737 365.40552,217.158981 373.84922,216.086765 L378.688299,214.944008 C381.495812,214.118684 383.428622,212.242307 384.514946,209.568821 L385.509567,206.126444 C386.19381,201.950445 386.087999,197.774447 385.206243,193.612556 C384.310378,189.401287 381.742703,187.07345 377.517327,186.283397 C373.425977,185.570937 369.30641,185.415748 365.172736,185.295829 C357.512036,185.048937 349.837228,185.048937 342.190636,184.660965 C333.45772,184.216559 324.78829,183.144344 316.443347,180.336831 L311.794727,178.474561 C307.181377,176.492373 303.957676,173.05705 301.77092,168.598889 C299.57711,164.049026 298.448461,159.202892 297.799489,154.215678 C296.790759,146.569086 296.684948,138.943656 297.425624,131.275902 C297.926462,126.147606 298.942245,121.146283 300.924433,116.349528 C303.569703,109.902125 308.006701,105.387532 314.581078,102.833965 C320.076184,100.689534 325.768803,99.3774799 331.567234,98.5239397 C344.038797,96.6757782 356.559739,96.5981836 369.087735,97.0073186 C378.483732,97.338859 387.851512,98.291156 396.944181,100.922317 L401.860859,102.544749 C408.280046,104.8091 412.371396,109.366017 414.840314,115.566529 C416.751962,120.377392 417.61961,125.406931 417.979367,130.570496 C418.183934,133.420333 418.120448,136.298386 418.162772,139.141169 L418.021691,141.44079 Z" id="Fill-17" fill="#00A44E" mask="url(#mask-9)"></path>
                <path d="M794.338418,182.208271 C790.16242,182.292919 785.908826,182.236487 781.648179,182.264703 C777.472181,182.278811 773.260912,182.264703 769.084913,182.264703 L730.936602,182.264703 C730.435764,183.887135 730.358169,212.822855 730.851953,215.178908 C734.611763,215.383476 738.456221,215.221233 742.300679,215.263557 C746.102813,215.298827 749.904947,215.263557 753.707081,215.263557 L800.002822,215.263557 L800.002822,244.015872 C798.634336,244.481439 697.168856,244.62252 694.311965,244.149899 L694.149722,241.504629 C694.107398,227.657526 694.107398,213.866855 694.107398,200.090292 C694.107398,166.999735 694.107398,133.916233 694.149722,100.853893 L694.269641,97.7924345 L798.634336,97.7924345 C799.050525,99.3231637 799.212768,122.100697 798.803633,126.629398 L796.567498,126.798695 L771.15175,126.798695 L733.37025,126.798695 L730.894277,126.932722 C730.435764,128.562208 730.358169,155.036064 730.72498,157.892955 L733.37025,158.055198 C752.839432,158.097522 772.308615,158.097522 791.777797,158.097522 L794.25377,158.097522 C794.789877,159.832819 794.874526,180.007407 794.338418,182.208271" id="Fill-18" fill="#00A44E" mask="url(#mask-9)"></path>
                <path d="M578.735561,244.234547 L578.735561,98.0393263 C580.26629,97.587867 677.781501,97.4256238 681.336743,97.8347588 C681.788202,99.1891368 681.915175,123.821885 681.463716,126.657614 L678.818446,126.798695 L618.195926,126.798695 C614.972225,126.798695 614.972225,126.798695 614.972225,129.951856 L614.972225,157.145225 L614.986333,158.556036 L616.552332,160.079711 L618.358169,160.107927 L676.130853,160.107927 C676.582312,161.61044 676.709285,186.12327 676.293096,189.128296 L673.605502,189.290539 L618.400494,189.290539 C614.570144,189.290539 614.986333,189.177674 614.972225,192.789348 L614.972225,241.589278 L614.972225,244.072304 C613.236928,244.594304 581.465479,244.700115 578.735561,244.234547" id="Fill-19" fill="#00A44E" mask="url(#mask-9)"></path>
                <polygon id="Fill-20" fill="#231F20" mask="url(#mask-9)" points="248.239132 244.768539 281.788202 244.768539 281.788202 97.6915616 248.239132 97.6915616"></polygon>
                <path d="M227.685742,244.482144 L194.454105,244.482144 C194.016753,243.120712 193.847456,100.685301 194.291861,97.4474914 L227.537607,97.4474914 C227.904418,98.9500044 228.073715,240.764659 227.685742,244.482144" id="Fill-21" fill="#231F20" mask="url(#mask-9)"></path>
                <path d="M174.628692,244.482144 L141.065515,244.482144 L141.065515,141.895071 C142.391676,141.45772 171.609558,141.274314 174.628692,141.732828" id="Fill-22" fill="#231F20" mask="url(#mask-9)"></path>
            </g>
        </g>
    </g>
</svg>