<?xml version="1.0" encoding="UTF-8"?>
<svg width="980px" height="680px" viewBox="0 0 980 680" version="1.1" xmlns="http://www.w3.org/2000/svg" xmlns:xlink="http://www.w3.org/1999/xlink">
    <title>EU Billpay</title>
    <defs>
        <linearGradient x1="50%" y1="0%" x2="50%" y2="100%" id="linearGradient-1">
            <stop stop-color="#FFFFFF" offset="0%"></stop>
            <stop stop-color="#EDEDED" offset="100%"></stop>
        </linearGradient>
        <rect id="path-2" x="2.84217094e-14" y="0" width="900" height="600" rx="80"></rect>
        <filter x="-6.7%" y="-10.0%" width="113.3%" height="120.0%" filterUnits="objectBoundingBox" id="filter-3">
            <feMorphology radius="2.5" operator="dilate" in="SourceAlpha" result="shadowSpreadOuter1"></feMorphology>
            <feOffset dx="0" dy="0" in="shadowSpreadOuter1" result="shadowOffsetOuter1"></feOffset>
            <feGaussianBlur stdDeviation="17.5" in="shadowOffsetOuter1" result="shadowBlurOuter1"></feGaussianBlur>
            <feColorMatrix values="0 0 0 0 0   0 0 0 0 0   0 0 0 0 0  0 0 0 0.5 0" type="matrix" in="shadowBlurOuter1"></feColorMatrix>
        </filter>
        <linearGradient x1="66.9150883%" y1="99.8204409%" x2="45.4779495%" y2="24.443233%" id="linearGradient-4">
            <stop stop-color="#2861A7" offset="0%"></stop>
            <stop stop-color="#3B8AC5" offset="100%"></stop>
        </linearGradient>
        <linearGradient x1="63.7183447%" y1="97.5462891%" x2="9.57006774%" y2="43.2759766%" id="linearGradient-5">
            <stop stop-color="#343433" offset="0%"></stop>
            <stop stop-color="#676767" offset="100%"></stop>
        </linearGradient>
        <linearGradient x1="49.9967338%" y1="99.9163511%" x2="49.9967338%" y2="0.130464716%" id="linearGradient-6">
            <stop stop-color="#343433" offset="0%"></stop>
            <stop stop-color="#676767" offset="100%"></stop>
        </linearGradient>
        <linearGradient x1="50.0221172%" y1="99.9162069%" x2="50.0221172%" y2="-0.0434482759%" id="linearGradient-7">
            <stop stop-color="#2861A7" offset="0%"></stop>
            <stop stop-color="#3B8AC5" offset="100%"></stop>
        </linearGradient>
    </defs>
    <g id="EU-Billpay" stroke="none" stroke-width="1" fill="none" fill-rule="evenodd">
        <g transform="translate(40, 40)">
            <g id="Rectangle">
                <use fill="black" fill-opacity="1" filter="url(#filter-3)" xlink:href="#path-2"></use>
                <use fill="url(#linearGradient-1)" fill-rule="evenodd" xlink:href="#path-2"></use>
            </g>
            <g id="Logo" transform="translate(50, 241)" fill-rule="nonzero">
                <g id="arrow_up_4_" transform="translate(29.3719, 0.1522)" fill="url(#linearGradient-4)">
                    <path d="M15.3447708,2.29891304 C13.5070985,1.07335269 11.0568688,0.256312465 8.60663914,0.0520524064 C6.15640943,-0.152207651 3.91036553,0.256312465 2.27687907,1.07335269 C0.643392609,1.89039293 -0.173350625,3.11595327 0.0308351824,4.75003373 C0.235020992,6.3841142 1.46013584,7.81393461 3.29780812,9.03949496 C5.13548038,10.2650553 7.78989589,11.0820955 10.4443114,11.4906156 C13.0987269,11.6948757 15.3447708,11.2863556 16.7740715,10.4693153 C18.2033721,9.65227513 19.0201154,8.22245471 18.6117437,6.58837424 C18.6117437,4.95429378 17.1824431,3.32021335 15.3447708,2.29891304 Z M40.8679969,10.6735754 C40.2554395,9.03949496 39.0303246,7.40541449 37.1926523,6.17985415 C35.35498,4.75003373 33.1089362,3.72873344 30.8628922,3.32021335 C26.3708044,2.5031731 23.1038315,4.13725356 23.9205747,7.20115441 C24.3289464,8.83523488 25.758247,10.4693153 27.5959193,11.8991358 C29.4335916,13.3289561 31.8838213,14.3502564 34.3340511,14.9630366 C39.0303246,15.9843369 41.8889258,13.9417363 40.8679969,10.6735754 Z M59.6530913,16.188597 C59.0405338,14.5545165 57.815419,12.9204361 56.1819323,11.4906156 C54.548446,10.0607952 52.506588,8.83523488 50.6689157,8.42671479 C46.7893853,7.20115441 44.3391556,8.83523488 45.3600847,12.1033958 C45.9726422,13.7374763 47.1977571,15.5758168 49.0354291,17.0056372 C50.8731014,18.4354576 52.9149594,19.661018 54.9568178,20.2737981 C58.6321621,21.2950984 60.8782062,19.4567579 59.6530913,16.188597 Z M66.5954085,22.3163987 C68.2288952,23.9504792 69.8623818,25.1760395 71.4958681,25.7888197 C74.762841,27.01438 76.3963276,25.1760395 75.1712127,21.9078786 C74.5586553,20.2737981 73.3335404,18.6397177 71.9042398,17.0056372 C70.4749389,15.5758168 68.8414526,14.3502564 67.0037803,13.7374763 C63.7368074,12.5119159 61.899135,13.9417363 63.1242499,17.4141573 C63.9409931,19.0482378 65.1661079,20.8865783 66.5954085,22.3163987 Z M41.8889258,22.1121386 C40.0512535,20.4780582 37.601024,19.2524978 35.1507942,18.8439777 C32.7005645,18.4354576 30.6587064,18.6397177 29.2294058,19.661018 C27.8001051,20.6823182 27.1875477,22.3163987 27.5959193,24.3589993 C28.0042909,26.4015999 29.4335916,28.4442004 31.4754497,30.282541 C33.5173076,31.9166216 35.9675374,33.3464418 38.6219529,33.7549618 C41.0721826,34.1634822 43.1140407,33.7549618 44.3391556,32.7336616 C45.5642704,31.7123613 45.9726422,29.8740208 45.5642704,27.8314203 C45.3600847,25.5845596 43.9307838,23.7462191 41.8889258,22.1121386 Z M65.1661079,33.1421816 C64.5535505,31.0995812 63.3284356,29.0569806 61.6949493,27.4229001 C60.0614627,25.7888197 58.0196047,24.3589993 55.9777466,23.9504792 C51.8940306,22.7249188 49.4438008,24.9717794 50.46473,29.0569806 C51.0772874,31.0995812 52.506588,33.1421816 54.1400743,34.9805222 C55.9777466,36.8188629 58.0196047,38.2486831 60.0614627,38.6572035 C64.1451791,39.6785037 66.3912228,37.2273829 65.1661079,33.1421816 Z M80.8884154,38.6572035 C80.275858,36.6146027 79.2549288,34.7762621 77.8256282,33.1421816 C76.3963276,31.5081013 74.762841,30.282541 73.1293547,29.6697608 C69.8623818,28.4442004 68.0247095,30.486801 69.2498243,34.5720022 C69.8623818,36.6146027 71.0874963,38.6572035 72.5167973,40.4955437 C73.9460978,42.3338844 75.7837702,43.5594448 77.4172565,44.172225 C80.4800437,44.989265 81.9093443,42.5381445 80.8884154,38.6572035 Z M67.0037803,47.0318658 C65.370294,45.1935252 63.3284356,43.7637046 61.2865776,43.1509247 C59.2447196,42.5381445 57.6112333,43.1509247 56.3861184,44.3764848 C55.3651892,45.6020452 54.9568178,47.644646 55.3651892,50.0957665 C55.7735609,52.5468873 57.2028615,55.202268 58.8363481,57.2448684 C60.4698344,59.2874692 62.7158782,60.7172895 64.7577365,61.1258098 C66.7995946,61.5343298 68.4330809,60.9215496 69.45401,59.4917291 C70.4749389,58.0619088 70.6791249,56.0193083 70.2707532,53.5681875 C69.8623818,51.3213269 68.6372669,48.8702061 67.0037803,47.0318658 Z M81.7051586,65.0067509 C84.7679458,65.8237909 86.6056178,62.7598902 85.5846889,58.0619088 C85.1763172,55.8150482 84.1553883,53.5681875 82.7260874,51.7298469 C81.2967868,49.8915066 79.6633005,48.6659462 78.2339996,48.053166 C74.9670267,47.0318658 72.9251687,49.8915066 73.9460978,54.5894878 C74.3544693,57.0406086 75.5795841,59.2874692 77.0088851,61.3300697 C78.4381856,63.1684103 80.0716719,64.5982305 81.7051586,65.0067509 Z M89.0558475,80.326255 C88.8516618,77.8751345 88.0349187,75.4240137 86.8098038,73.5856731 C85.5846889,71.7473328 84.1553883,70.5217724 82.5219017,70.1132523 C80.8884154,69.704732 79.6633005,70.5217724 78.6423714,71.9515926 C77.8256282,73.3814132 77.4172565,75.6282738 77.6214425,78.2836545 C77.8256282,80.9390352 78.8465571,83.5944162 80.0716719,85.4327564 C81.2967868,87.2710971 82.9302734,88.7009173 84.359574,88.7009173 C85.9930603,88.9051775 87.2181752,88.0881374 88.0349187,86.4540567 C89.0558475,85.0242364 89.2600336,82.7773758 89.0558475,80.326255 Z" id="Shape"></path>
                </g>
                <g id="arrow_down_4_" transform="translate(0, 13.8897)" fill="url(#linearGradient-5)">
                    <path d="M5.51301681,12.4598635 C7.55487491,13.8896839 10.2092904,14.7067241 13.4762633,14.7067241 C16.7432363,14.7067241 19.3976518,13.8896839 21.4395099,12.4598635 C23.481368,11.0300431 24.502297,9.19170261 24.502297,7.14910202 C24.2981112,5.10650143 23.0729963,3.26816092 21.0311383,2.04260058 C18.9892802,0.817040229 16.3348647,-5.34539231e-15 13.4762633,-5.34539231e-15 C10.617662,-5.34539231e-15 7.96324652,0.817040229 5.92138845,2.04260058 C3.87953035,3.26816092 2.6544155,5.10650143 2.4502297,7.14910202 C2.4502297,9.19170261 3.47115875,11.0300431 5.51301681,12.4598635 Z M4.6962736,36.1540301 C6.9423175,37.9923707 10.0051046,39.2179311 13.4762633,39.2179311 C16.9474221,39.2179311 20.0102092,37.9923707 22.2562531,36.1540301 C24.502297,34.3156898 25.7274119,31.864569 25.5232261,29.0049282 C25.3190402,26.3495474 23.8897396,23.8984268 21.8478815,22.2643463 C19.6018376,20.6302658 16.7432363,19.4047055 13.4762633,19.4047055 C10.2092904,19.4047055 7.35068911,20.4260058 5.10464521,22.2643463 C2.8586013,23.8984268 1.42930066,26.3495474 1.42930066,29.0049282 C1.22511485,31.864569 2.4502297,34.3156898 4.6962736,36.1540301 Z M36.345074,36.7668103 C38.5911177,38.8094111 41.6539049,40.2392313 44.9208779,40.4434915 C48.1878508,40.6477514 50.8422662,39.8307113 52.6799386,38.1966309 C54.5176109,36.5625504 55.334354,34.1114296 54.9259823,31.456049 C54.5176109,28.8006682 53.0883103,26.3495474 50.8422662,24.3069469 C48.5962225,22.4686063 45.737621,21.038786 42.8790198,20.8345259 C39.8162326,20.6302658 37.1618171,21.243046 35.3241448,22.8771265 C33.4864725,24.3069469 32.2613576,26.5538075 32.4655436,29.4134483 C32.4655436,32.0688292 34.0990299,34.7242098 36.345074,36.7668103 Z M13.4762633,70.0611998 C17.1516079,70.0611998 20.6227666,68.6313795 22.8688105,66.3845189 C25.3190402,64.1376583 26.7483409,60.8694971 26.5441551,57.6013362 C26.5441551,54.1289152 24.9106686,51.2692743 22.4604389,49.0224137 C20.0102092,46.7755531 16.9474221,45.549993 13.2720775,45.549993 C9.80091881,45.549993 6.53394586,46.7755531 4.08371616,49.0224137 C1.63348645,51.2692743 0.20418581,54.1289152 -4.98903282e-15,57.6013362 C-4.98903282e-15,61.0737573 1.22511485,64.1376583 3.67534455,66.3845189 C6.32976006,68.6313795 9.80091881,70.0611998 13.4762633,70.0611998 Z M46.9627359,70.8782402 C50.4338945,71.0825 53.292496,69.6526798 55.334354,67.610079 C57.3762121,65.5674785 58.3971413,62.5035775 58.1929552,59.2354166 C57.9887695,55.9672558 56.3552832,52.9033551 54.1092392,50.6564945 C51.8631954,48.4096338 48.8004082,46.9798132 45.5334353,46.5712932 C42.2664624,46.367033 39.4078609,47.3883333 37.1618171,49.4309341 C35.1199591,51.4735345 33.6906585,54.3331754 33.8948442,57.8055964 C34.0990299,61.2780174 35.5283305,64.3419181 37.9785603,66.7930389 C40.2246043,69.0398996 43.4915773,70.67398 46.9627359,70.8782402 Z M75.1403776,72.3080604 C77.7947931,72.5123206 80.0408368,71.2867602 81.6743234,69.4484196 C83.103624,67.610079 83.9203672,64.7504381 83.7161815,61.8907976 C83.3078097,58.8268966 82.0826948,55.9672558 80.2450228,53.9246553 C78.4073505,51.6777947 75.9571207,50.2479741 73.0985192,49.8394541 C70.4441038,49.4309341 67.9938743,50.4522343 66.3603877,52.0863147 C64.7269014,53.9246553 63.9101579,56.580036 64.1143439,59.8481969 C64.3185297,63.1163577 65.7478302,66.1802587 67.7896883,68.4271194 C69.8315463,70.67398 72.4859621,72.1038003 75.1403776,72.3080604 Z M13.4762633,77.6188221 C9.80091881,77.6188221 6.32976006,79.0486423 3.87953035,81.4997631 C1.42930066,83.9508836 -4.98903282e-15,87.4233047 -4.98903282e-15,91.0999859 C-4.98903282e-15,94.7766668 1.42930066,98.2490878 3.87953035,100.700208 C6.32976006,103.151329 9.80091881,104.58115 13.4762633,104.58115 C17.1516079,104.58115 20.6227666,103.151329 23.0729963,100.700208 C25.5232261,98.2490878 26.9525267,94.7766668 26.9525267,91.0999859 C26.9525267,87.4233047 25.5232261,83.9508836 23.0729963,81.4997631 C20.6227666,79.0486423 17.1516079,77.6188221 13.4762633,77.6188221 Z M47.1669216,78.0273421 C43.695763,78.0273421 40.6329758,79.2529025 38.386932,81.704023 C36.140888,84.1551438 34.7115874,87.4233047 34.7115874,91.0999859 C34.7115874,94.7766668 36.140888,98.2490878 38.386932,100.495948 C40.6329758,102.947069 43.8999487,104.37689 47.1669216,104.172629 C50.6380805,104.172629 53.7008677,102.538549 55.7427258,100.087428 C57.9887695,97.6363076 59.2138844,94.5724066 59.2138844,90.8957257 C59.2138844,87.4233047 57.7845838,84.1551438 55.7427258,81.704023 C53.4966817,79.6614225 50.4338945,78.231602 47.1669216,78.0273421 Z M75.548749,79.0486423 C72.8943335,78.8443822 70.239918,80.2742027 68.4022457,82.3168032 C66.5645734,84.5636638 65.3394585,87.6275648 65.3394585,91.0999859 C65.3394585,94.5724066 66.5645734,97.6363076 68.4022457,99.8831682 C70.239918,102.130029 72.6901478,103.355589 75.548749,103.151329 C78.2031645,102.947069 80.6533942,101.517249 82.2868809,99.4746482 C83.9203672,97.2277876 85.145482,94.3681467 85.145482,91.0999859 C85.145482,87.8318247 84.1245532,84.9721839 82.2868809,82.7253232 C80.6533942,80.6827228 78.2031645,79.2529025 75.548749,79.0486423 Z M102.705462,83.7466238 C101.480347,81.704023 99.6426743,80.4784626 97.6008163,80.2742027 C95.5589582,80.0699426 93.7212859,81.295503 92.2919853,83.3381034 C90.8626847,85.3807042 90.0459416,88.0360849 90.0459416,91.3042457 C90.0459416,94.3681467 90.8626847,97.2277876 92.2919853,99.270388 C93.7212859,101.312989 95.5589582,102.334289 97.6008163,102.334289 C99.6426743,102.130029 101.480347,100.904468 102.705462,98.861868 C103.930576,96.8192672 104.74732,94.1638866 104.74732,91.3042457 C104.951506,88.240345 104.134762,85.5849641 102.705462,83.7466238 Z" id="Shape"></path>
                </g>
                <g id="BILL_4_" transform="translate(178.05, 0)" fill="url(#linearGradient-6)">
                    <path d="M70.0357322,57.8055964 L70.0357322,56.988556 C75.9571206,55.5587358 91.8836138,51.8820546 91.8836138,29.6177084 C91.8836138,0 60.2348134,0 50.0255229,0 L0,0 L0,118.470834 L48.8004081,118.470834 C61.0515566,118.470834 95.1505867,118.470834 95.1505867,86.6062643 C95.1505867,64.7504382 79.8366509,59.2354167 70.0357322,57.8055964 Z M31.0362429,23.4899066 L47.9836649,23.4899066 C56.9678405,23.4899066 61.0515566,25.7367673 61.0515566,34.9284697 C61.0515566,42.894612 56.1510974,46.3670331 47.9836649,46.3670331 L31.0362429,46.3670331 L31.0362429,23.4899066 Z M50.0255229,95.389447 L31.0362429,95.389447 L31.0362429,69.8569397 L48.5962224,69.8569397 C58.1929554,69.8569397 63.7059721,72.5123206 63.7059721,82.7253233 C63.9101581,90.2829455 58.3971411,95.389447 50.0255229,95.389447 Z M271.158753,93.5511064 L271.158753,0 L238.489024,0 L238.489024,118.470834 L289.127105,118.470834 L293.823378,93.5511064 L271.158753,93.5511064 Z M188.463501,0.204260057 L155.793772,0.204260057 L155.793772,118.675093 L232.36345,118.675093 L232.36345,93.7553666 L188.259315,93.7553666 L188.463501,0.204260057 L188.463501,0.204260057 Z M107.605921,118.675093 L140.27565,118.675093 L140.27565,0.204260057 L107.605921,0.204260057 L107.605921,118.675093 Z" id="Shape"></path>
                </g>
                <g id="PAY_4_" transform="translate(475.9571, 0.2043)" fill="url(#linearGradient-7)">
                    <path d="M109.443593,32.068829 C109.443593,10.0087428 94.5380293,-3.65268474e-15 70.444104,-3.65268474e-15 L22.6646247,-3.65268474e-15 L1.06907846e-15,118.470833 L32.2613578,118.470833 L39.8162325,78.4358623 L62.2766715,78.4358623 C88.0040834,78.2316021 109.443593,62.0950576 109.443593,32.068829 Z M61.2557423,54.1289153 L44.5125063,54.1289153 L50.2297087,24.1026868 L64.1143438,24.1026868 C73.5068909,24.1026868 77.9989787,27.1665877 77.9989787,37.5838505 C78.2031647,47.5925936 71.0566614,54.1289153 61.2557423,54.1289153 Z M144.155181,-3.65268474e-15 L77.794793,118.470833 L112.302194,118.470833 L125.370086,94.1638867 L168.249106,94.1638867 L171.311893,118.470833 L203.981623,118.470833 L185.6049,-3.65268474e-15 L144.155181,-3.65268474e-15 Z M137.621235,70.87824 L153.343542,38.8094109 C155.589586,34.1114298 157.427258,29.2091883 159.469116,24.1026868 L160.28586,24.1026868 C160.28586,28.187888 160.694231,33.2943894 161.306789,39.2179309 L165.390505,71.0825002 L137.621235,71.0825002 L137.621235,70.87824 Z M286.472689,-3.65268474e-15 L261.970392,35.3369899 C258.703419,40.2392315 256.457375,44.7329528 254.823889,48.4096336 L254.007145,48.4096336 C253.190402,44.1201726 252.782031,39.0136711 250.944359,33.2943894 L240.122511,-3.65268474e-15 L205.206737,-3.65268474e-15 L234.201122,74.7591811 L225.829504,118.266574 L258.090862,118.266574 L266.46248,74.7591811 L324.042879,-3.65268474e-15 L286.472689,-3.65268474e-15 L286.472689,-3.65268474e-15 Z" id="Shape"></path>
                </g>
            </g>
        </g>
    </g>
</svg>