<?xml version="1.0" encoding="UTF-8"?>
<svg width="980px" height="680px" viewBox="0 0 980 680" version="1.1" xmlns="http://www.w3.org/2000/svg" xmlns:xlink="http://www.w3.org/1999/xlink">
    <title>EU Click and Buy text</title>
    <defs>
        <linearGradient x1="50%" y1="0%" x2="50%" y2="100%" id="linearGradient-1">
            <stop stop-color="#FFFFFF" offset="0%"></stop>
            <stop stop-color="#EDEDED" offset="100%"></stop>
        </linearGradient>
        <rect id="path-2" x="2.84217094e-14" y="0" width="900" height="600" rx="80"></rect>
        <filter x="-6.7%" y="-10.0%" width="113.3%" height="120.0%" filterUnits="objectBoundingBox" id="filter-3">
            <feMorphology radius="2.5" operator="dilate" in="SourceAlpha" result="shadowSpreadOuter1"></feMorphology>
            <feOffset dx="0" dy="0" in="shadowSpreadOuter1" result="shadowOffsetOuter1"></feOffset>
            <feGaussianBlur stdDeviation="17.5" in="shadowOffsetOuter1" result="shadowBlurOuter1"></feGaussianBlur>
            <feColorMatrix values="0 0 0 0 0   0 0 0 0 0   0 0 0 0 0  0 0 0 0.5 0" type="matrix" in="shadowBlurOuter1"></feColorMatrix>
        </filter>
        <linearGradient x1="-0.0196736171%" y1="50.0000015%" x2="100.01967%" y2="50.0000015%" id="linearGradient-4">
            <stop stop-color="#FF8000" offset="0%"></stop>
            <stop stop-color="#FF8101" offset="27.427691%"></stop>
            <stop stop-color="#FF8507" offset="48.345464%"></stop>
            <stop stop-color="#FD9D2E" offset="74.652994%"></stop>
            <stop stop-color="#FCA73F" offset="85.22535%"></stop>
            <stop stop-color="#FBAF4C" offset="92.312515%"></stop>
            <stop stop-color="#FAB85A" offset="98.127031%"></stop>
            <stop stop-color="#FABE64" offset="100%"></stop>
        </linearGradient>
        <linearGradient x1="-0.0481719713%" y1="49.9999962%" x2="100.048178%" y2="49.9999962%" id="linearGradient-5">
            <stop stop-color="#FF8000" offset="0%"></stop>
            <stop stop-color="#FF8101" offset="27.427691%"></stop>
            <stop stop-color="#FF8507" offset="48.345464%"></stop>
            <stop stop-color="#FD9D2E" offset="74.652994%"></stop>
            <stop stop-color="#FCA73F" offset="85.22535%"></stop>
            <stop stop-color="#FBAF4C" offset="92.312515%"></stop>
            <stop stop-color="#FAB85A" offset="98.127031%"></stop>
            <stop stop-color="#FABE64" offset="100%"></stop>
        </linearGradient>
    </defs>
    <g id="EU-Click-and-Buy-text" stroke="none" stroke-width="1" fill="none" fill-rule="evenodd">
        <g transform="translate(40, 40)">
            <g id="Rectangle">
                <use fill="black" fill-opacity="1" filter="url(#filter-3)" xlink:href="#path-2"></use>
                <use fill="url(#linearGradient-1)" fill-rule="evenodd" xlink:href="#path-2"></use>
            </g>
            <g id="Logo" transform="translate(109, 50)" fill-rule="nonzero">
                <path d="M514.655208,102.324146 L423.975204,11.7471834 C423.975204,11.7471834 412.228021,0 395.637703,0 C395.637703,0 379.047386,0 367.300203,11.7471834 C367.300203,11.7471834 355.553019,23.4943668 355.553019,40.0846841 C355.553019,40.0846841 355.553019,56.6750095 367.300203,68.4221848 L389.351932,90.370873 L304.75161,90.370873 C304.75161,90.370873 287.955202,90.370873 276.208019,102.221097 C276.208019,102.221097 264.357795,113.968281 264.357795,130.661647 C264.357795,130.661647 264.357795,147.355005 276.208019,159.205238 C276.208019,159.205238 287.955202,170.952421 304.75161,170.952421 L389.351932,170.952421 L367.300203,193.004142 C367.300203,193.004142 355.553019,204.751326 355.553019,221.341643 C355.553019,221.341643 355.553019,237.931968 367.300203,249.679144 C367.300203,249.679144 379.047386,261.323286 395.637703,261.323286 C395.637703,261.323286 412.228021,261.323286 423.975204,249.679144 L514.552159,158.999148 C514.552159,158.999148 526.299342,147.251964 526.299342,130.661647 C526.299342,130.661647 526.299342,114.071322 514.655208,102.324146" id="path7283" fill="url(#linearGradient-4)"></path>
                <path d="M188.310241,74.8110054 C188.310241,74.8110054 210.465019,74.8110054 226.127928,90.4739139 C226.127928,90.4739139 241.790837,106.136822 241.790837,128.291601 C241.790837,128.291601 241.790837,150.446371 226.127928,166.109279 C226.127928,166.109279 210.465019,181.772188 188.310241,181.772188 C188.310241,181.772188 166.155471,181.772188 150.492563,166.109279 C150.492563,166.109279 134.829654,150.446371 134.829654,128.291601 C134.829654,128.291601 134.829654,106.136822 150.492563,90.4739139 C150.492563,90.4739139 166.155471,74.8110054 188.310241,74.8110054" id="path7285" fill="url(#linearGradient-5)"></path>
                <path d="M44.6510539,414.393639 C44.6510539,414.393639 37.2059173,415.850483 30.5767256,415.850483 C10.9997159,415.850483 0,405.172625 0,385.112829 L0,362.464031 C0,342.404227 10.8387855,331.726369 30.5767256,331.726369 C37.8552849,331.726369 44.6510539,333.183213 44.6510539,333.183213 C46.7516152,333.507897 47.7228428,334.640057 47.7228428,336.418753 L47.7228428,346.286313 C47.7228428,348.067841 46.5906857,349.03907 44.6510539,348.875316 C44.6510539,348.875316 37.6915311,347.904087 31.7088828,347.904087 C21.1919572,347.904087 17.7954849,354.050491 17.7954849,362.785891 L17.7954849,384.624391 C17.7954849,393.687299 21.5166415,399.672773 31.8698132,399.672773 C38.1799684,399.672773 44.8119843,398.701544 44.8119843,398.701544 C46.5906857,398.540613 47.7228428,399.350912 47.7228428,401.129609 L47.7228428,410.997168 C47.7228428,412.775873 46.9153691,413.908024 44.6510539,414.393639" id="path4056" fill="#FF8000"></path>
                <path d="M73.7737616,414.232709 L62.1246788,414.232709 C60.343154,414.232709 59.0500656,412.936803 59.0500656,411.158099 L59.0500656,302.448383 C59.0500656,300.664031 60.343154,299.370941 62.1246788,299.370941 L73.7737616,299.370941 C75.552463,299.370941 76.8455505,300.664031 76.8455505,302.448383 L76.8455505,411.158099 C76.8455505,412.936803 75.552463,414.232709 73.7737616,414.232709" id="path4058" fill="#FF8000"></path>
                <path d="M105.316069,414.232709 L93.6698126,414.232709 C91.891108,414.232709 90.5951946,412.936803 90.5951946,411.158099 L90.5951946,336.418753 C90.5951946,334.640057 91.891108,333.344143 93.6698126,333.344143 L105.316069,333.344143 C107.097597,333.344143 108.393502,334.640057 108.393502,336.418753 L108.393502,411.158099 C108.393502,412.936803 107.097597,414.232709 105.316069,414.232709 M105.316069,317.169257 L93.6698126,317.169257 C91.891108,317.169257 90.5951946,315.876167 90.5951946,314.097462 L90.5951946,302.448383 C90.5951946,300.664031 91.891108,299.370941 93.6698126,299.370941 L105.316069,299.370941 C107.097597,299.370941 108.393502,300.664031 108.393502,302.448383 L108.393502,314.097462 C108.393502,315.876167 107.097597,317.169257 105.316069,317.169257" id="path4060" fill="#FF8000"></path>
                <path d="M166.791384,414.393639 C166.791384,414.393639 159.349066,415.850483 152.719878,415.850483 C133.142866,415.850483 122.143147,405.172625 122.143147,385.112829 L122.143147,362.464031 C122.143147,342.404227 132.981936,331.726369 152.719878,331.726369 C159.998434,331.726369 166.791384,333.183213 166.791384,333.183213 C168.894765,333.507897 169.865994,334.640057 169.865994,336.418753 L169.865994,346.286313 C169.865994,348.067841 168.733834,349.03907 166.791384,348.875316 C166.791384,348.875316 159.83468,347.904087 153.849206,347.904087 C143.33511,347.904087 139.935808,354.050491 139.935808,362.785891 L139.935808,384.624391 C139.935808,393.687299 143.659794,399.672773 154.01296,399.672773 C160.320295,399.672773 166.955138,398.701544 166.955138,398.701544 C168.733834,398.540613 169.865994,399.350912 169.865994,401.129609 L169.865994,410.997168 C169.865994,412.775873 169.055695,413.908024 166.791384,414.393639" id="path4062" fill="#FF8000"></path>
                <path d="M239.108303,414.232709 L226.00238,414.232709 C224.223675,414.232709 222.769655,412.775873 221.959356,411.158099 L199.957102,368.935111 L220.016906,336.418753 C220.988135,334.961917 222.442147,333.344143 224.223675,333.344143 L237.329599,333.344143 C239.108303,333.344143 240.076709,334.961917 239.108303,336.418753 L219.045676,368.610427 L241.208861,411.158099 C242.019159,412.614943 240.887,414.232709 239.108303,414.232709 M195.914087,414.232709 L184.265007,414.232709 C182.486303,414.232709 181.190389,412.936803 181.190389,411.158099 L181.190389,302.448383 C181.190389,300.664031 182.486303,299.370941 184.265007,299.370941 L195.914087,299.370941 C197.692791,299.370941 198.988697,300.664031 198.988697,302.448383 L198.988697,411.158099 C198.988697,412.936803 197.692791,414.232709 195.914087,414.232709" id="path4064" fill="#FF8000"></path>
                <path d="M287.155826,380.420445 L273.567112,380.420445 C264.831712,380.420445 261.271487,384.1416 261.271487,391.098295 C261.271487,397.2447 264.831712,400.804925 271.949346,400.804925 C276.963583,400.804925 282.466266,398.862474 287.155826,396.437225 L287.155826,380.420445 Z M301.8767,414.232709 L291.037912,414.232709 C289.259215,414.232709 287.966125,412.936803 287.966125,411.158099 L287.966125,409.704078 C282.788126,412.936803 275.995185,415.850483 268.389113,415.850483 C252.699841,415.850483 243.476003,407.922558 243.476003,391.58391 C243.476003,374.920586 253.668247,366.6708 271.624661,366.6708 C277.127336,366.6708 285.055269,367.314522 287.155826,367.642029 L287.155826,361.170941 C287.155826,352.757402 283.434671,348.228771 273.891796,348.228771 C264.346097,348.228771 252.211403,350.978697 252.211403,350.978697 C250.271768,351.461488 249.139617,350.171222 249.139617,348.386878 L249.139617,338.522142 C249.139617,336.740614 250.271768,335.611286 252.211403,335.122848 C252.211403,335.122848 262.728331,331.726369 276.317046,331.726369 C297.833685,331.726369 304.95131,341.757682 304.95131,361.170941 L304.95131,411.158099 C304.95131,412.936803 303.655405,414.232709 301.8767,414.232709" id="path4066" fill="#808080"></path>
                <path d="M377.104484,414.232709 L365.45822,414.232709 C363.679515,414.232709 362.38361,412.936803 362.38361,411.158099 L362.38361,360.846256 C362.38361,353.24584 360.116467,348.386878 351.544821,348.386878 C346.530576,348.386878 341.027893,350.654013 336.499263,353.082086 L336.499263,411.158099 C336.499263,412.936803 335.206181,414.232709 333.424653,414.232709 L321.778397,414.232709 C319.996869,414.232709 318.703779,412.936803 318.703779,411.158099 L318.703779,336.418753 C318.703779,334.640057 319.996869,333.344143 321.778397,333.344143 L332.617177,333.344143 C334.395882,333.344143 335.691795,334.640057 335.691795,336.418753 L335.691795,338.846826 C340.381356,335.286602 347.338052,331.726369 356.556243,331.726369 C374.190796,331.726369 380.17627,342.404227 380.17627,359.228482 L380.17627,411.158099 C380.17627,412.936803 378.88318,414.232709 377.104484,414.232709" id="path4068" fill="#808080"></path>
                <path d="M434.375845,350.493082 C430.008145,348.714386 425.15483,347.418472 420.78713,347.418472 C411.887977,347.418472 408.491506,353.082086 408.491506,361.170941 L408.491506,386.244981 C408.491506,394.333844 411.887977,399.994626 420.78713,399.994626 C425.15483,399.994626 430.008145,398.37686 434.375845,396.273471 L434.375845,350.493082 Z M449.096719,414.232709 L438.255107,414.232709 C436.47641,414.232709 435.18332,412.936803 435.18332,411.158099 L435.18332,410.189693 C430.169075,413.261488 424.022671,415.850483 417.065976,415.850483 C399.106738,415.850483 390.696022,404.84794 390.696022,387.538071 L390.696022,360.035958 C390.696022,342.726088 399.106738,331.726369 417.065976,331.726369 C423.697987,331.726369 429.52253,333.668827 434.375845,336.096892 L434.375845,302.448383 C434.375845,300.664031 435.671758,299.370941 437.450455,299.370941 L449.096719,299.370941 C450.875416,299.370941 452.171329,300.664031 452.171329,302.448383 L452.171329,411.158099 C452.171329,412.936803 450.875416,414.232709 449.096719,414.232709" id="path4070" fill="#808080"></path>
                <path d="M509.60362,361.170941 C509.60362,353.082086 506.365257,347.418472 497.468926,347.418472 C493.101226,347.418472 488.086981,349.03907 483.719281,351.139627 L483.719281,398.862474 L496.173013,398.862474 C505.882466,398.862474 509.60362,393.526368 509.60362,385.437514 L509.60362,361.170941 Z M497.793611,414.232709 L468.998407,414.232709 C467.216887,414.232709 465.923797,412.936803 465.923797,411.158099 L465.923797,302.448383 C465.923797,300.664031 467.216887,299.370941 468.998407,299.370941 L480.644671,299.370941 C482.426191,299.370941 483.719281,300.664031 483.719281,302.448383 L483.719281,336.740614 C488.572596,333.829758 494.55807,331.726369 501.190081,331.726369 C519.146496,331.726369 527.399113,342.726088 527.399113,360.035958 L527.399113,385.920305 C527.399113,403.552035 517.85059,414.232709 497.793611,414.232709" id="path4072" fill="#FF8000"></path>
                <path d="M599.552278,414.232709 L588.713489,414.232709 C586.934793,414.232709 585.638879,412.936803 585.638879,411.158099 L585.638879,408.730034 C580.949319,412.293082 573.992615,415.850483 564.771601,415.850483 C547.137047,415.850483 541.151581,405.172625 541.151581,388.34837 L541.151581,336.418753 C541.151581,334.640057 542.444663,333.344143 544.226191,333.344143 L555.87527,333.344143 C557.653975,333.344143 558.949889,334.640057 558.949889,336.418753 L558.949889,386.730595 C558.949889,394.333844 561.2142,399.184335 569.785846,399.184335 C574.800091,399.184335 580.302774,396.922839 584.834228,394.494774 L584.834228,336.418753 C584.834228,334.640057 586.127317,333.344143 587.906014,333.344143 L599.552278,333.344143 C601.330975,333.344143 602.626888,334.640057 602.626888,336.418753 L602.626888,411.158099 C602.626888,412.936803 601.330975,414.232709 599.552278,414.232709" id="path4074" fill="#FF8000"></path>
                <path d="M645.984858,442.056683 C645.338314,443.674457 644.367084,444.967547 642.58838,444.967547 L629.482456,444.967547 C627.70376,444.967547 626.41067,443.513526 627.057215,441.895752 L636.278229,414.879254 L610.554813,336.418753 C610.072022,334.803811 611.043251,333.344143 612.982886,333.344143 L625.764125,333.344143 C627.542829,333.344143 628.835911,334.479126 629.321526,336.254999 L645.823928,387.538071 L663.133798,336.254999 C663.780343,334.640057 664.912494,333.344143 666.691199,333.344143 L679.472438,333.344143 C681.412073,333.344143 682.544232,334.961917 681.897687,336.582507 L645.984858,442.056683 Z" id="path4076" fill="#FF8000"></path>
                <path d="M10.5056316,500 C7.02445888,500 3.09719864,499.017485 3.09719864,499.017485 C2.5607654,498.929957 2.25019857,498.661742 2.25019857,498.170481 L2.25019857,495.093047 C2.25019857,494.604609 2.51559211,494.333571 3.09719864,494.423915 C3.09719864,494.423915 7.55806945,495.406438 10.1470681,495.406438 C13.5378942,495.406438 15.4097657,494.1557 15.4097657,491.078266 L15.4097657,489.963048 C15.4097657,487.509563 13.8512846,486.659744 11.530503,485.857915 L8.18202659,484.697521 C5.10459071,483.627478 2.4732415,481.752783 2.4732415,477.023694 L2.4732415,475.908483 C2.4732415,470.018999 6.62354549,467.432827 12.0641127,467.432827 C15.4097657,467.432827 19.0264591,468.192303 19.0264591,468.192303 C19.5600696,468.279823 19.87346,468.593214 19.87346,469.084475 L19.87346,472.02639 C19.87346,472.520475 19.6052429,472.785874 19.0264591,472.695522 C19.0264591,472.695522 15.0540255,471.981222 12.1544601,471.981222 C8.94150358,471.981222 7.380199,473.277127 7.380199,475.908483 L7.380199,476.803478 C7.380199,478.630174 8.63093675,479.564698 10.4604584,480.191479 L13.8061113,481.351873 C17.1065909,482.512259 20.3195466,484.251435 20.3195466,489.740001 L20.3195466,491.078266 C20.3195466,497.682043 16.7056767,500 10.5056316,500" id="path4078" fill="#808080"></path>
                <path d="M34.8625486,474.880784 L30.6247224,489.158396 L39.0552024,489.158396 L34.8625486,474.880784 Z M46.4156387,499.553914 L42.7594189,499.553914 C42.2681582,499.553914 41.9547679,499.19818 41.8220715,498.706918 L40.3934633,493.754782 L29.2836373,493.754782 L27.8155027,498.706918 C27.6799829,499.19818 27.369416,499.553914 26.8753326,499.553914 L23.2191129,499.553914 C22.7278521,499.553914 22.4596351,499.153004 22.5923322,498.661742 L31.7851128,468.725917 C31.9178099,468.237479 32.27355,467.878913 32.7648108,467.878913 L36.8699407,467.878913 C37.3612007,467.878913 37.7621149,468.237479 37.8948112,468.725917 L47.0424193,498.661742 C47.1751157,499.153004 46.9097221,499.553914 46.4156387,499.553914" id="path4080" fill="#808080"></path>
                <path d="M66.7605958,472.430131 L55.5632467,472.430131 L55.5632467,481.128826 L65.8684217,481.128826 C66.3596824,481.128826 66.718246,481.487392 66.718246,481.97583 L66.718246,484.875392 C66.718246,485.369477 66.3596824,485.722396 65.8684217,485.722396 L55.5632467,485.722396 L55.5632467,498.706918 C55.5632467,499.19818 55.2075058,499.553914 54.7162458,499.553914 L51.5032893,499.553914 C51.0120293,499.553914 50.6562892,499.19818 50.6562892,498.706918 L50.6562892,468.725917 C50.6562892,468.237479 51.0120293,467.878913 51.5032893,467.878913 L66.7605958,467.878913 C67.2518558,467.878913 67.6104194,468.237479 67.6104194,468.725917 L67.6104194,471.580304 C67.6104194,472.074389 67.2518558,472.430131 66.7605958,472.430131" id="path4082" fill="#808080"></path>
                <path d="M88.1784235,499.553914 L72.9211146,499.553914 C72.4298538,499.553914 72.0712902,499.19818 72.0712902,498.706918 L72.0712902,468.725917 C72.0712902,468.237479 72.4298538,467.878913 72.9211146,467.878913 L88.1784235,467.878913 C88.669677,467.878913 89.0254195,468.237479 89.0254195,468.725917 L89.0254195,471.580304 C89.0254195,472.074389 88.669677,472.430131 88.1784235,472.430131 L76.9782477,472.430131 L76.9782477,481.128826 L87.2834202,481.128826 C87.7775053,481.128826 88.1332478,481.487392 88.1332478,481.97583 L88.1332478,484.875392 C88.1332478,485.369477 87.7775053,485.722396 87.2834202,485.722396 L76.9782477,485.722396 L76.9782477,494.960352 L88.1784235,494.960352 C88.669677,494.960352 89.0254195,495.316086 89.0254195,495.807348 L89.0254195,498.706918 C89.0254195,499.19818 88.669677,499.553914 88.1784235,499.553914" id="path4084" fill="#808080"></path>
                <path d="M116.953862,474.880784 L112.716034,489.158396 L121.149338,489.158396 L116.953862,474.880784 Z M128.509775,499.553914 L124.850729,499.553914 C124.359467,499.553914 124.0489,499.19818 123.913381,498.706918 L122.487596,493.754782 L111.377769,493.754782 L109.906816,498.706918 C109.771297,499.19818 109.457906,499.553914 108.966645,499.553914 L105.310422,499.553914 C104.81916,499.553914 104.550946,499.153004 104.683641,498.661742 L113.876421,468.725917 C114.009116,468.237479 114.367682,467.878913 114.85612,467.878913 L118.964076,467.878913 C119.452514,467.878913 119.853425,468.237479 119.988944,468.725917 L129.133732,498.661742 C129.269251,499.153004 129.001029,499.553914 128.509775,499.553914" id="path4086" fill="#808080"></path>
                <path d="M152.646468,499.553914 L149.210468,499.553914 C148.676863,499.553914 148.363472,499.153004 148.140425,498.706918 L137.654556,478.407135 L137.654556,498.706918 C137.654556,499.19818 137.298813,499.553914 136.807551,499.553914 L133.594599,499.553914 C133.106161,499.553914 132.747595,499.19818 132.747595,498.706918 L132.747595,468.725917 C132.747595,468.237479 133.106161,467.878913 133.594599,467.878913 L137.030598,467.878913 C137.654556,467.878913 137.877603,468.237479 138.103465,468.680742 L148.586511,489.0257 L148.586511,468.725917 C148.586511,468.237479 148.942254,467.878913 149.433515,467.878913 L152.646468,467.878913 C153.137729,467.878913 153.493472,468.237479 153.493472,468.725917 L153.493472,498.706918 C153.493472,499.19818 153.137729,499.553914 152.646468,499.553914" id="path4088" fill="#808080"></path>
                <path d="M175.131513,479.033916 C175.131513,475.462389 173.793255,472.430131 169.688123,472.430131 L164.199557,472.430131 L164.199557,494.960352 L169.688123,494.960352 C173.793255,494.960352 175.131513,491.970438 175.131513,488.39892 L175.131513,479.033916 Z M169.688123,499.553914 L160.142424,499.553914 C159.651162,499.553914 159.292604,499.19818 159.292604,498.706918 L159.292604,468.725917 C159.292604,468.237479 159.651162,467.878913 160.142424,467.878913 L169.688123,467.878913 C176.647641,467.878913 180.038473,472.116741 180.038473,478.808045 L180.038473,488.624782 C180.038473,495.316086 176.692817,499.553914 169.688123,499.553914" id="path4090" fill="#808080"></path>
                <path d="M206.360428,500 C202.882084,500 198.954823,499.017485 198.954823,499.017485 C198.421209,498.929957 198.107819,498.661742 198.107819,498.170481 L198.107819,495.093047 C198.107819,494.604609 198.376033,494.333571 198.954823,494.423915 C198.954823,494.423915 203.41569,495.406438 206.004693,495.406438 C209.395517,495.406438 211.270212,494.1557 211.270212,491.078266 L211.270212,489.963048 C211.270212,487.509563 209.706084,486.659744 207.388127,485.857915 L204.04247,484.697521 C200.965037,483.627478 198.330866,481.752783 198.330866,477.023694 L198.330866,475.908483 C198.330866,470.018999 202.478342,467.432827 207.921732,467.432827 C211.270212,467.432827 214.881259,468.192303 214.881259,468.192303 C215.417688,468.279823 215.731079,468.593214 215.731079,469.084475 L215.731079,472.02639 C215.731079,472.520475 215.462864,472.785874 214.881259,472.695522 C214.881259,472.695522 210.911646,471.981222 208.012084,471.981222 C204.799123,471.981222 203.237819,473.277127 203.237819,475.908483 L203.237819,476.803478 C203.237819,478.630174 204.485733,479.564698 206.31526,480.191479 L209.663732,481.351873 C212.964212,482.512259 216.177165,484.251435 216.177165,489.740001 L216.177165,491.078266 C216.177165,497.682043 212.563302,500 206.360428,500" id="path4092" fill="#808080"></path>
                <path d="M236.299084,499.553914 L220.815911,499.553914 C220.324649,499.553914 219.968907,499.19818 219.968907,498.706918 L219.968907,496.835047 C219.968907,496.340962 220.324649,495.988043 220.815911,495.988043 L226.123782,495.988043 L226.123782,471.444785 L220.815911,471.444785 C220.324649,471.444785 219.968907,471.089042 219.968907,470.597789 L219.968907,468.725917 C219.968907,468.237479 220.324649,467.878913 220.815911,467.878913 L236.299084,467.878913 C236.787522,467.878913 237.14608,468.237479 237.14608,468.725917 L237.14608,470.597789 C237.14608,471.089042 236.787522,471.444785 236.299084,471.444785 L231.033558,471.444785 L231.033558,495.988043 L236.299084,495.988043 C236.787522,495.988043 237.14608,496.340962 237.14608,496.835047 L237.14608,498.706918 C237.14608,499.19818 236.787522,499.553914 236.299084,499.553914" id="path4094" fill="#808080"></path>
                <path d="M269.089304,499.553914 L265.876344,499.553914 C265.38509,499.553914 265.029348,499.19818 265.029348,498.706918 L265.029348,478.407135 L258.874473,494.246043 C258.693778,494.692129 258.338043,495.093047 257.846782,495.093047 L254.365607,495.093047 C253.874345,495.093047 253.518602,494.692129 253.340739,494.246043 L247.183041,478.407135 L247.183041,498.706918 C247.183041,499.19818 246.827298,499.553914 246.336037,499.553914 L243.123084,499.553914 C242.634646,499.553914 242.27608,499.19818 242.27608,498.706918 L242.27608,468.725917 C242.27608,468.237479 242.634646,467.878913 243.123084,467.878913 L246.91765,467.878913 C247.406088,467.878913 247.806998,468.237479 247.984869,468.680742 L256.152782,489.381435 L264.272695,468.680742 C264.450566,468.237479 264.806301,467.878913 265.297562,467.878913 L269.089304,467.878913 C269.580566,467.878913 269.939124,468.237479 269.939124,468.725917 L269.939124,498.706918 C269.939124,499.19818 269.580566,499.553914 269.089304,499.553914" id="path4096" fill="#808080"></path>
                <path d="M284.795517,472.33978 L280.199131,472.33978 L280.199131,482.153701 L284.795517,482.153701 C288.406564,482.153701 290.238907,480.550045 290.238907,477.246741 C290.238907,473.94626 288.406564,472.33978 284.795517,472.33978 M285.01574,486.617392 L280.199131,486.617392 L280.199131,498.706918 C280.199131,499.19818 279.840565,499.553914 279.352127,499.553914 L276.139174,499.553914 C275.647913,499.553914 275.29217,499.19818 275.29217,498.706918 L275.29217,468.725917 C275.29217,468.237479 275.647913,467.878913 276.139174,467.878913 L285.01574,467.878913 C291.441653,467.878913 295.145867,470.733308 295.145867,477.246741 C295.145867,483.760174 291.441653,486.617392 285.01574,486.617392" id="path4098" fill="#808080"></path>
                <path d="M315.936912,499.553914 L300.676785,499.553914 C300.185524,499.553914 299.829781,499.19818 299.829781,498.706918 L299.829781,468.725917 C299.829781,468.237479 300.185524,467.878913 300.676785,467.878913 L303.889738,467.878913 C304.380999,467.878913 304.736742,468.237479 304.736742,468.725917 L304.736742,494.960352 L315.936912,494.960352 C316.42535,494.960352 316.783916,495.316086 316.783916,495.807348 L316.783916,498.706918 C316.783916,499.19818 316.42535,499.553914 315.936912,499.553914" id="path4100" fill="#808080"></path>
                <path d="M337.574961,499.553914 L322.314826,499.553914 C321.823564,499.553914 321.46783,499.19818 321.46783,498.706918 L321.46783,468.725917 C321.46783,468.237479 321.823564,467.878913 322.314826,467.878913 L337.574961,467.878913 C338.063391,467.878913 338.421957,468.237479 338.421957,468.725917 L338.421957,471.580304 C338.421957,472.074389 338.063391,472.430131 337.574961,472.430131 L326.374783,472.430131 L326.374783,481.128826 L336.679958,481.128826 C337.171219,481.128826 337.529785,481.487392 337.529785,481.97583 L337.529785,484.875392 C337.529785,485.369477 337.171219,485.722396 336.679958,485.722396 L326.374783,485.722396 L326.374783,494.960352 L337.574961,494.960352 C338.063391,494.960352 338.421957,495.316086 338.421957,495.807348 L338.421957,498.706918 C338.421957,499.19818 338.063391,499.553914 337.574961,499.553914" id="path4102" fill="#808080"></path>
                <path d="M372.104356,478.584998 C372.104356,475.016303 370.763267,471.981222 366.660958,471.981222 C362.555834,471.981222 361.172393,475.016303 361.172393,478.584998 L361.172393,488.847829 C361.172393,492.416524 362.555834,495.406438 366.660958,495.406438 C370.763267,495.406438 372.104356,492.416524 372.104356,488.847829 L372.104356,478.584998 Z M366.660958,500 C359.698616,500 356.262617,495.76218 356.262617,489.070868 L356.262617,478.361959 C356.262617,471.670655 359.656264,467.432827 366.660958,467.432827 C373.620485,467.432827 377.011309,471.670655 377.011309,478.361959 L377.011309,489.070868 C377.011309,495.76218 373.662837,500 366.660958,500" id="path4104" fill="#808080"></path>
                <path d="M401.819958,499.553914 L398.383959,499.553914 C397.847529,499.553914 397.536963,499.153004 397.311092,498.706918 L386.828046,478.407135 L386.828046,498.706918 C386.828046,499.19818 386.469488,499.553914 385.98105,499.553914 L382.765266,499.553914 C382.276828,499.553914 381.91827,499.19818 381.91827,498.706918 L381.91827,468.725917 C381.91827,468.237479 382.276828,467.878913 382.765266,467.878913 L386.201265,467.878913 C386.828046,467.878913 387.048269,468.237479 387.274132,468.680742 L397.757178,489.0257 L397.757178,468.725917 C397.757178,468.237479 398.112921,467.878913 398.604182,467.878913 L401.819958,467.878913 C402.308396,467.878913 402.666962,468.237479 402.666962,468.725917 L402.666962,498.706918 C402.666962,499.19818 402.308396,499.553914 401.819958,499.553914" id="path4106" fill="#808080"></path>
                <path d="M424.570402,499.553914 L409.313091,499.553914 C408.821837,499.553914 408.466095,499.19818 408.466095,498.706918 L408.466095,468.725917 C408.466095,468.237479 408.821837,467.878913 409.313091,467.878913 L412.526051,467.878913 C413.014489,467.878913 413.373047,468.237479 413.373047,468.725917 L413.373047,494.960352 L424.570402,494.960352 C425.061664,494.960352 425.420222,495.316086 425.420222,495.807348 L425.420222,498.706918 C425.420222,499.19818 425.061664,499.553914 424.570402,499.553914" id="path4108" fill="#808080"></path>
                <path d="M444.870185,499.553914 L429.392658,499.553914 C428.901397,499.553914 428.545654,499.19818 428.545654,498.706918 L428.545654,496.835047 C428.545654,496.340962 428.901397,495.988043 429.392658,495.988043 L434.700529,495.988043 L434.700529,471.444785 L429.392658,471.444785 C428.901397,471.444785 428.545654,471.089042 428.545654,470.597789 L428.545654,468.725917 C428.545654,468.237479 428.901397,467.878913 429.392658,467.878913 L444.870185,467.878913 C445.361447,467.878913 445.720005,468.237479 445.720005,468.725917 L445.720005,470.597789 C445.720005,471.089042 445.361447,471.444785 444.870185,471.444785 L439.610305,471.444785 L439.610305,495.988043 L444.870185,495.988043 C445.361447,495.988043 445.720005,496.340962 445.720005,496.835047 L445.720005,498.706918 C445.720005,499.19818 445.361447,499.553914 444.870185,499.553914" id="path4110" fill="#808080"></path>
                <path d="M469.859529,499.553914 L466.423529,499.553914 C465.887092,499.553914 465.576525,499.153004 465.347839,498.706918 L454.867617,478.407135 L454.867617,498.706918 C454.867617,499.19818 454.509051,499.553914 454.017789,499.553914 L450.804837,499.553914 C450.316399,499.553914 449.957833,499.19818 449.957833,498.706918 L449.957833,468.725917 C449.957833,468.237479 450.316399,467.878913 450.804837,467.878913 L454.240836,467.878913 C454.867617,467.878913 455.087832,468.237479 455.310879,468.680742 L465.796749,489.0257 L465.796749,468.725917 C465.796749,468.237479 466.152491,467.878913 466.643745,467.878913 L469.859529,467.878913 C470.347967,467.878913 470.706525,468.237479 470.706525,468.725917 L470.706525,498.706918 C470.706525,499.19818 470.347967,499.553914 469.859529,499.553914" id="path4112" fill="#808080"></path>
                <path d="M492.609965,499.553914 L477.352661,499.553914 C476.8614,499.553914 476.502834,499.19818 476.502834,498.706918 L476.502834,468.725917 C476.502834,468.237479 476.8614,467.878913 477.352661,467.878913 L492.609965,467.878913 C493.101226,467.878913 493.456969,468.237479 493.456969,468.725917 L493.456969,471.580304 C493.456969,472.074389 493.101226,472.430131 492.609965,472.430131 L481.412618,472.430131 L481.412618,481.128826 L491.717793,481.128826 C492.209055,481.128826 492.567621,481.487392 492.567621,481.97583 L492.567621,484.875392 C492.567621,485.369477 492.209055,485.722396 491.717793,485.722396 L481.412618,485.722396 L481.412618,494.960352 L492.609965,494.960352 C493.101226,494.960352 493.456969,495.316086 493.456969,495.807348 L493.456969,498.706918 C493.456969,499.19818 493.101226,499.553914 492.609965,499.553914" id="path4114" fill="#808080"></path>
                <path d="M520.806622,472.33978 L516.213052,472.33978 L516.213052,482.153701 L520.806622,482.153701 C524.420493,482.153701 526.250012,480.550045 526.250012,477.246741 C526.250012,473.94626 524.420493,472.33978 520.806622,472.33978 M521.029661,486.617392 L516.213052,486.617392 L516.213052,498.706918 C516.213052,499.19818 515.854486,499.553914 515.363232,499.553914 L512.150272,499.553914 C511.661834,499.553914 511.303276,499.19818 511.303276,498.706918 L511.303276,468.725917 C511.303276,468.237479 511.661834,467.878913 512.150272,467.878913 L521.029661,467.878913 C527.452751,467.878913 531.156973,470.733308 531.156973,477.246741 C531.156973,483.760174 527.452751,486.617392 521.029661,486.617392" id="path4116" fill="#808080"></path>
                <path d="M542.134096,474.880784 L537.893445,489.158396 L546.326748,489.158396 L542.134096,474.880784 Z M553.687185,499.553914 L550.028147,499.553914 C549.539709,499.553914 549.226318,499.19818 549.093623,498.706918 L547.665014,493.754782 L536.555187,493.754782 L535.081402,498.706918 C534.948707,499.19818 534.635316,499.553914 534.144055,499.553914 L530.48784,499.553914 C529.996578,499.553914 529.731187,499.153004 529.861059,498.661742 L539.053839,468.725917 C539.186535,468.237479 539.545101,467.878913 540.033539,467.878913 L544.138663,467.878913 C544.632748,467.878913 545.033666,468.237479 545.166362,468.725917 L554.311142,498.661742 C554.446661,499.153004 554.175623,499.553914 553.687185,499.553914" id="path4118" fill="#808080"></path>
                <path d="M564.393278,489.070868 L564.393278,498.706918 C564.393278,499.19818 564.037536,499.553914 563.546274,499.553914 L560.336145,499.553914 C559.844884,499.553914 559.486318,499.19818 559.486318,498.706918 L559.486318,489.070868 L550.519408,468.768261 C550.338714,468.324999 550.609752,467.878913 551.143366,467.878913 L554.980275,467.878913 C555.468713,467.878913 555.739751,468.279823 555.917623,468.725917 L561.98497,483.268912 L567.964797,468.725917 C568.139845,468.279823 568.456059,467.878913 568.944497,467.878913 L572.781406,467.878913 C573.317844,467.878913 573.540882,468.324999 573.363011,468.768261 L564.393278,489.070868 Z" id="path4120" fill="#808080"></path>
                <path d="M602.807583,499.553914 L599.59463,499.553914 C599.103369,499.553914 598.747626,499.19818 598.747626,498.706918 L598.747626,478.407135 L592.589928,494.246043 C592.409241,494.692129 592.053499,495.093047 591.562237,495.093047 L588.083885,495.093047 C587.592624,495.093047 587.236889,494.692129 587.059018,494.246043 L580.90132,478.407135 L580.90132,498.706918 C580.90132,499.19818 580.542753,499.553914 580.0515,499.553914 L576.841363,499.553914 C576.350101,499.553914 575.994367,499.19818 575.994367,498.706918 L575.994367,468.725917 C575.994367,468.237479 576.350101,467.878913 576.841363,467.878913 L580.633105,467.878913 C581.124366,467.878913 581.525277,468.237479 581.703148,468.680742 L589.868237,489.381435 L597.98815,468.680742 C598.168845,468.237479 598.524579,467.878913 599.015841,467.878913 L602.807583,467.878913 C603.298844,467.878913 603.654587,468.237479 603.654587,468.725917 L603.654587,498.706918 C603.654587,499.19818 603.298844,499.553914 602.807583,499.553914" id="path4122" fill="#808080"></path>
                <path d="M625.114756,499.553914 L609.857453,499.553914 C609.366191,499.553914 609.007625,499.19818 609.007625,498.706918 L609.007625,468.725917 C609.007625,468.237479 609.366191,467.878913 609.857453,467.878913 L625.114756,467.878913 C625.606018,467.878913 625.964584,468.237479 625.964584,468.725917 L625.964584,471.580304 C625.964584,472.074389 625.606018,472.430131 625.114756,472.430131 L613.91741,472.430131 L613.91741,481.128826 L624.225408,481.128826 C624.713846,481.128826 625.072404,481.487392 625.072404,481.97583 L625.072404,484.875392 C625.072404,485.369477 624.713846,485.722396 624.225408,485.722396 L613.91741,485.722396 L613.91741,494.960352 L625.114756,494.960352 C625.606018,494.960352 625.964584,495.316086 625.964584,495.807348 L625.964584,498.706918 C625.964584,499.19818 625.606018,499.553914 625.114756,499.553914" id="path4124" fill="#808080"></path>
                <path d="M650.77041,499.553914 L647.33441,499.553914 C646.797973,499.553914 646.487406,499.153004 646.264367,498.706918 L635.778497,478.407135 L635.778497,498.706918 C635.778497,499.19818 635.419931,499.553914 634.931493,499.553914 L631.718541,499.553914 C631.227279,499.553914 630.871537,499.19818 630.871537,498.706918 L630.871537,468.725917 C630.871537,468.237479 631.227279,467.878913 631.718541,467.878913 L635.15454,467.878913 C635.778497,467.878913 636.001544,468.237479 636.224583,468.680742 L646.710453,489.0257 L646.710453,468.725917 C646.710453,468.237479 647.066195,467.878913 647.557457,467.878913 L650.77041,467.878913 C651.258848,467.878913 651.617414,468.237479 651.617414,468.725917 L651.617414,498.706918 C651.617414,499.19818 651.258848,499.553914 650.77041,499.553914" id="path4126" fill="#808080"></path>
                <path d="M675.084973,472.430131 L668.035103,472.430131 L668.035103,498.706918 C668.035103,499.19818 667.682192,499.553914 667.188107,499.553914 L663.97797,499.553914 C663.486717,499.553914 663.128151,499.19818 663.128151,498.706918 L663.128151,472.430131 L656.035928,472.430131 C655.541843,472.430131 655.186109,472.074389 655.186109,471.580304 L655.186109,468.725917 C655.186109,468.237479 655.541843,467.878913 656.035928,467.878913 L675.084973,467.878913 C675.576235,467.878913 675.931978,468.237479 675.931978,468.725917 L675.931978,471.580304 C675.931978,472.074389 675.576235,472.430131 675.084973,472.430131" id="path4128" fill="#808080"></path>
            </g>
        </g>
    </g>
</svg>