<?xml version="1.0" encoding="UTF-8"?>
<svg width="980px" height="680px" viewBox="0 0 980 680" version="1.1" xmlns="http://www.w3.org/2000/svg" xmlns:xlink="http://www.w3.org/1999/xlink">
    <title>EU Click and Buy</title>
    <defs>
        <linearGradient x1="50%" y1="0%" x2="50%" y2="100%" id="linearGradient-1">
            <stop stop-color="#FFFFFF" offset="0%"></stop>
            <stop stop-color="#EDEDED" offset="100%"></stop>
        </linearGradient>
        <rect id="path-2" x="2.84217094e-14" y="0" width="900" height="600" rx="80"></rect>
        <filter x="-6.7%" y="-10.0%" width="113.3%" height="120.0%" filterUnits="objectBoundingBox" id="filter-3">
            <feMorphology radius="2.5" operator="dilate" in="SourceAlpha" result="shadowSpreadOuter1"></feMorphology>
            <feOffset dx="0" dy="0" in="shadowSpreadOuter1" result="shadowOffsetOuter1"></feOffset>
            <feGaussianBlur stdDeviation="17.5" in="shadowOffsetOuter1" result="shadowBlurOuter1"></feGaussianBlur>
            <feColorMatrix values="0 0 0 0 0   0 0 0 0 0   0 0 0 0 0  0 0 0 0.5 0" type="matrix" in="shadowBlurOuter1"></feColorMatrix>
        </filter>
        <linearGradient x1="-0.0196736171%" y1="50.0000015%" x2="100.01967%" y2="50.0000015%" id="linearGradient-4">
            <stop stop-color="#FF8000" offset="0%"></stop>
            <stop stop-color="#FF8101" offset="27.427691%"></stop>
            <stop stop-color="#FF8507" offset="48.345464%"></stop>
            <stop stop-color="#FD9D2E" offset="74.652994%"></stop>
            <stop stop-color="#FCA73F" offset="85.22535%"></stop>
            <stop stop-color="#FBAF4C" offset="92.312515%"></stop>
            <stop stop-color="#FAB85A" offset="98.127031%"></stop>
            <stop stop-color="#FABE64" offset="100%"></stop>
        </linearGradient>
        <linearGradient x1="-0.0481719713%" y1="49.9999962%" x2="100.048178%" y2="49.9999962%" id="linearGradient-5">
            <stop stop-color="#FF8000" offset="0%"></stop>
            <stop stop-color="#FF8101" offset="27.427691%"></stop>
            <stop stop-color="#FF8507" offset="48.345464%"></stop>
            <stop stop-color="#FD9D2E" offset="74.652994%"></stop>
            <stop stop-color="#FCA73F" offset="85.22535%"></stop>
            <stop stop-color="#FBAF4C" offset="92.312515%"></stop>
            <stop stop-color="#FAB85A" offset="98.127031%"></stop>
            <stop stop-color="#FABE64" offset="100%"></stop>
        </linearGradient>
    </defs>
    <g id="EU-Click-and-Buy" stroke="none" stroke-width="1" fill="none" fill-rule="evenodd">
        <g transform="translate(40, 40)">
            <g id="Rectangle">
                <use fill="black" fill-opacity="1" filter="url(#filter-3)" xlink:href="#path-2"></use>
                <use fill="url(#linearGradient-1)" fill-rule="evenodd" xlink:href="#path-2"></use>
            </g>
            <g id="Logo" transform="translate(67, 50)" fill-rule="nonzero">
                <path d="M578.306454,114.979336 L476.411378,13.2000451 C476.411378,13.2000451 463.211333,3.19368341e-14 444.569167,3.19368341e-14 C444.569167,3.19368341e-14 425.927002,3.19368341e-14 412.726956,13.2000451 C412.726956,13.2000451 399.526911,26.4000903 399.526911,45.0422558 C399.526911,45.0422558 399.526911,63.6844304 412.726956,76.8844664 L437.505987,101.547712 L342.442513,101.547712 C342.442513,101.547712 323.568768,101.547712 310.368723,114.863542 C310.368723,114.863542 297.052893,128.063588 297.052893,146.821547 C297.052893,146.821547 297.052893,165.579497 310.368723,178.895336 C310.368723,178.895336 323.568768,192.095381 342.442513,192.095381 L437.505987,192.095381 L412.726956,216.874403 C412.726956,216.874403 399.526911,230.074448 399.526911,248.716614 C399.526911,248.716614 399.526911,267.358788 412.726956,280.558824 C412.726956,280.558824 425.927002,293.643085 444.569167,293.643085 C444.569167,293.643085 463.211333,293.643085 476.411378,280.558824 L578.19066,178.663758 C578.19066,178.663758 591.390705,165.463712 591.390705,146.821547 C591.390705,146.821547 591.390705,128.179372 578.306454,114.979336" id="path7283" fill="url(#linearGradient-4)"></path>
                <path d="M211.599973,84.0634401 C211.599973,84.0634401 236.494797,84.0634401 254.094854,101.663497 C254.094854,101.663497 271.694912,119.263554 271.694912,144.158379 C271.694912,144.158379 271.694912,169.053195 254.094854,186.653252 C254.094854,186.653252 236.494797,204.253309 211.599973,204.253309 C211.599973,204.253309 186.705157,204.253309 169.1051,186.653252 C169.1051,186.653252 151.505043,169.053195 151.505043,144.158379 C151.505043,144.158379 151.505043,119.263554 169.1051,101.663497 C169.1051,101.663497 186.705157,84.0634401 211.599973,84.0634401" id="path7285" fill="url(#linearGradient-5)"></path>
                <path d="M50.1733826,465.644789 C50.1733826,465.644789 41.8074504,467.281812 34.3583772,467.281812 C12.3601327,467.281812 0,455.283343 0,432.742603 L0,407.292659 C0,384.75191 12.1792989,372.753442 34.3583772,372.753442 C42.5371302,372.753442 50.1733826,374.390464 50.1733826,374.390464 C52.5337359,374.755305 53.6250825,376.027487 53.6250825,378.026168 L53.6250825,389.114122 C53.6250825,391.115985 52.352903,392.207333 50.1733826,392.023327 C50.1733826,392.023327 42.3531237,390.931979 35.6305567,390.931979 C23.8129245,390.931979 19.9963851,397.838555 19.9963851,407.654327 L19.9963851,432.193757 C19.9963851,442.377542 24.1777649,449.103284 35.8113905,449.103284 C42.9019696,449.103284 50.3542164,448.011936 50.3542164,448.011936 C52.352903,447.831102 53.6250825,448.741616 53.6250825,450.740297 L53.6250825,461.828252 C53.6250825,463.826942 52.7177425,465.099115 50.1733826,465.644789" id="path4056" fill="#FF8000"></path>
                <path d="M82.8979126,465.463955 L69.8081009,465.463955 C67.8062416,465.463955 66.3532274,464.007776 66.3532274,462.009085 L66.3532274,339.854429 C66.3532274,337.849393 67.8062416,336.396377 69.8081009,336.396377 L82.8979126,336.396377 C84.8965992,336.396377 86.3496125,337.849393 86.3496125,339.854429 L86.3496125,462.009085 C86.3496125,464.007776 84.8965992,465.463955 82.8979126,465.463955" id="path4058" fill="#FF8000"></path>
                <path d="M118.341292,465.463955 L105.254657,465.463955 C103.255966,465.463955 101.799778,464.007776 101.799778,462.009085 L101.799778,378.026168 C101.799778,376.027487 103.255966,374.571298 105.254657,374.571298 L118.341292,374.571298 C120.343155,374.571298 121.799334,376.027487 121.799334,378.026168 L121.799334,462.009085 C121.799334,464.007776 120.343155,465.463955 118.341292,465.463955 M118.341292,356.395943 L105.254657,356.395943 C103.255966,356.395943 101.799778,354.942927 101.799778,352.944237 L101.799778,339.854429 C101.799778,337.849393 103.255966,336.396377 105.254657,336.396377 L118.341292,336.396377 C120.343155,336.396377 121.799334,337.849393 121.799334,339.854429 L121.799334,352.944237 C121.799334,354.942927 120.343155,356.395943 118.341292,356.395943" id="path4060" fill="#FF8000"></path>
                <path d="M187.419718,465.644789 C187.419718,465.644789 179.056953,467.281812 171.607884,467.281812 C149.609637,467.281812 137.2495,455.283343 137.2495,432.742603 L137.2495,407.292659 C137.2495,384.75191 149.428803,372.753442 171.607884,372.753442 C179.786633,372.753442 187.419718,374.390464 187.419718,374.390464 C189.783239,374.755305 190.874587,376.027487 190.874587,378.026168 L190.874587,389.114122 C190.874587,391.115985 189.602405,392.207333 187.419718,392.023327 C187.419718,392.023327 179.602627,390.931979 172.876884,390.931979 C161.062431,390.931979 157.242712,397.838555 157.242712,407.654327 L157.242712,432.193757 C157.242712,442.377542 161.427272,449.103284 173.060891,449.103284 C180.148301,449.103284 187.603724,448.011936 187.603724,448.011936 C189.602405,447.831102 190.874587,448.741616 190.874587,450.740297 L190.874587,461.828252 C190.874587,463.826942 189.964073,465.099115 187.419718,465.644789" id="path4062" fill="#FF8000"></path>
                <path d="M268.680609,465.463955 L253.953779,465.463955 C251.955089,465.463955 250.321239,463.826942 249.410724,462.009085 L224.687288,414.564067 L247.228036,378.026168 C248.319385,376.389154 249.953226,374.571298 251.955089,374.571298 L266.681919,374.571298 C268.680609,374.571298 269.768785,376.389154 268.680609,378.026168 L246.136688,414.199226 L271.040958,462.009085 C271.951473,463.646108 270.679291,465.463955 268.680609,465.463955 M220.144242,465.463955 L207.054434,465.463955 C205.055744,465.463955 203.599555,464.007776 203.599555,462.009085 L203.599555,339.854429 C203.599555,337.849393 205.055744,336.396377 207.054434,336.396377 L220.144242,336.396377 C222.142932,336.396377 223.599112,337.849393 223.599112,339.854429 L223.599112,462.009085 C223.599112,464.007776 222.142932,465.463955 220.144242,465.463955" id="path4064" fill="#FF8000"></path>
                <path d="M322.670528,427.469877 L307.401196,427.469877 C297.585424,427.469877 293.58488,431.651255 293.58488,439.468337 C293.58488,446.374913 297.585424,450.375457 305.583348,450.375457 C311.217733,450.375457 317.400974,448.192769 322.670528,445.467571 L322.670528,427.469877 Z M339.212042,465.463955 L327.032739,465.463955 C325.034058,465.463955 323.581042,464.007776 323.581042,462.009085 L323.581042,460.375236 C317.762642,464.007776 310.129567,467.281812 301.582795,467.281812 C283.953114,467.281812 273.588495,458.373382 273.588495,440.014011 C273.588495,421.289809 285.04129,412.019711 305.218508,412.019711 C311.40174,412.019711 320.310179,412.743047 322.670528,413.11106 L322.670528,405.839643 C322.670528,396.385539 318.48915,391.296819 307.766036,391.296819 C297.039749,391.296819 283.404267,394.386848 283.404267,394.386848 C281.224743,394.92935 279.95257,393.479507 279.95257,391.47448 L279.95257,380.389699 C279.95257,378.387836 281.224743,377.118835 283.404267,376.569988 C283.404267,376.569988 295.221902,372.753442 310.491234,372.753442 C334.668996,372.753442 342.666912,384.025402 342.666912,405.839643 L342.666912,462.009085 C342.666912,464.007776 341.210732,465.463955 339.212042,465.463955" id="path4066" fill="#808080"></path>
                <path d="M423.743806,465.463955 L410.657162,465.463955 C408.658472,465.463955 407.202292,464.007776 407.202292,462.009085 L407.202292,405.474803 C407.202292,396.934386 404.654755,391.47448 395.022989,391.47448 C389.388595,391.47448 383.205355,394.022008 378.116635,396.750379 L378.116635,462.009085 C378.116635,464.007776 376.663628,465.463955 374.661765,465.463955 L361.57513,465.463955 C359.573267,465.463955 358.120251,464.007776 358.120251,462.009085 L358.120251,378.026168 C358.120251,376.027487 359.573267,374.571298 361.57513,374.571298 L373.754423,374.571298 C375.753113,374.571298 377.209302,376.027487 377.209302,378.026168 L377.209302,380.754539 C382.478856,376.753995 390.295937,372.753442 400.654211,372.753442 C420.469761,372.753442 427.195504,384.75191 427.195504,403.656946 L427.195504,462.009085 C427.195504,464.007776 425.742487,465.463955 423.743806,465.463955" id="path4068" fill="#808080"></path>
                <path d="M488.098343,393.841174 C483.190457,391.842493 477.736897,390.386304 472.829011,390.386304 C462.829233,390.386304 459.012695,396.750379 459.012695,405.839643 L459.012695,434.014777 C459.012695,443.10405 462.829233,449.464943 472.829011,449.464943 C477.736897,449.464943 483.190457,447.647095 488.098343,445.283565 L488.098343,393.841174 Z M504.639858,465.463955 L492.457383,465.463955 C490.458701,465.463955 489.005685,464.007776 489.005685,462.009085 L489.005685,460.92091 C483.371291,464.372616 476.464715,467.281812 468.647633,467.281812 C448.467243,467.281812 439.016311,454.918503 439.016311,435.467793 L439.016311,404.564288 C439.016311,385.113578 448.467243,372.753442 468.647633,372.753442 C476.099875,372.753442 482.644783,374.936138 488.098343,377.6645 L488.098343,339.854429 C488.098343,337.849393 489.554532,336.396377 491.553213,336.396377 L504.639858,336.396377 C506.638539,336.396377 508.094728,337.849393 508.094728,339.854429 L508.094728,462.009085 C508.094728,464.007776 506.638539,465.463955 504.639858,465.463955" id="path4070" fill="#808080"></path>
                <path d="M572.630099,405.839643 C572.630099,396.750379 568.991222,390.386304 558.994616,390.386304 C554.08673,390.386304 548.452336,392.207333 543.544451,394.567682 L543.544451,448.192769 L557.538428,448.192769 C568.448721,448.192769 572.630099,442.196708 572.630099,433.107444 L572.630099,405.839643 Z M559.359457,465.463955 L527.002936,465.463955 C525.001082,465.463955 523.548066,464.007776 523.548066,462.009085 L523.548066,339.854429 C523.548066,337.849393 525.001082,336.396377 527.002936,336.396377 L540.089581,336.396377 C542.091434,336.396377 543.544451,337.849393 543.544451,339.854429 L543.544451,378.387836 C548.998011,375.116972 555.723753,372.753442 563.175994,372.753442 C583.353212,372.753442 592.626492,385.113578 592.626492,404.564288 L592.626492,433.649945 C592.626492,453.462323 581.897033,465.463955 559.359457,465.463955" id="path4072" fill="#FF8000"></path>
                <path d="M673.703377,465.463955 L661.524075,465.463955 C659.525394,465.463955 658.069205,464.007776 658.069205,462.009085 L658.069205,459.280724 C652.799651,463.28444 644.98256,467.281812 634.621114,467.281812 C614.805564,467.281812 608.079831,455.283343 608.079831,436.378307 L608.079831,378.026168 C608.079831,376.027487 609.532838,374.571298 611.5347,374.571298 L624.624508,374.571298 C626.623199,374.571298 628.079387,376.027487 628.079387,378.026168 L628.079387,434.560451 C628.079387,443.10405 630.623743,448.554437 640.255508,448.554437 C645.889902,448.554437 652.073143,446.013245 657.165036,443.284883 L657.165036,378.026168 C657.165036,376.027487 658.618052,374.571298 660.616733,374.571298 L673.703377,374.571298 C675.702058,374.571298 677.158247,376.027487 677.158247,378.026168 L677.158247,462.009085 C677.158247,464.007776 675.702058,465.463955 673.703377,465.463955" id="path4074" fill="#FF8000"></path>
                <path d="M725.878621,496.729128 C725.152113,498.546984 724.060765,500 722.062074,500 L707.335244,500 C705.336563,500 703.883546,498.36615 704.610054,496.548294 L714.971501,466.190463 L686.066677,378.026168 C685.524176,376.211493 686.615524,374.571298 688.795048,374.571298 L703.157038,374.571298 C705.155729,374.571298 706.608736,375.846653 707.15441,377.842161 L725.697787,435.467793 L745.148497,377.842161 C745.875005,376.027487 747.147178,374.571298 749.145869,374.571298 L763.507859,374.571298 C765.687383,374.571298 766.959565,376.389154 766.233057,378.210175 L725.878621,496.729128 Z" id="path4076" fill="#FF8000"></path>
            </g>
        </g>
    </g>
</svg>