<?xml version="1.0" encoding="UTF-8"?>
<svg width="980px" height="680px" viewBox="0 0 980 680" version="1.1" xmlns="http://www.w3.org/2000/svg" xmlns:xlink="http://www.w3.org/1999/xlink">
    <title>EU Direct Debit alt</title>
    <defs>
        <rect id="path-1" x="0" y="0" width="900" height="600" rx="80"></rect>
        <filter x="-6.7%" y="-10.0%" width="113.3%" height="120.0%" filterUnits="objectBoundingBox" id="filter-2">
            <feMorphology radius="2.5" operator="dilate" in="SourceAlpha" result="shadowSpreadOuter1"></feMorphology>
            <feOffset dx="0" dy="0" in="shadowSpreadOuter1" result="shadowOffsetOuter1"></feOffset>
            <feGaussianBlur stdDeviation="17.5" in="shadowOffsetOuter1" result="shadowBlurOuter1"></feGaussianBlur>
            <feColorMatrix values="0 0 0 0 0   0 0 0 0 0   0 0 0 0 0  0 0 0 0.5 0" type="matrix" in="shadowBlurOuter1"></feColorMatrix>
        </filter>
    </defs>
    <g id="EU-Direct-Debit-alt" stroke="none" stroke-width="1" fill="none" fill-rule="evenodd">
        <g transform="translate(40, 40)">
            <g id="Rectangle">
                <use fill="black" fill-opacity="1" filter="url(#filter-2)" xlink:href="#path-1"></use>
                <use fill="#000000" fill-rule="evenodd" xlink:href="#path-1"></use>
            </g>
            <g id="Logo" transform="translate(49.504, 170.937)" fill="#FFFFFF" fill-rule="nonzero">
                <path d="M376.347953,54.3596513 L417.839179,54.3596513 C417.839179,54.3596513 458.920727,53.5311924 458.506498,90.8710199 C458.09682,118.674466 418.676742,122.821312 418.676742,122.821312 L376.352505,122.821312 L376.352505,54.3596513 L376.347953,54.3596513 L376.347953,54.3596513 Z M500.475681,188.392471 C501.640986,193.822974 505.569338,199.808817 518.674466,200.423333 C536.099415,200.833011 546.05913,194.191684 546.05913,194.191684 L546.05913,207.055557 C546.05913,207.055557 526.972711,211.625737 517.841455,211.625737 C508.300521,211.625737 480.082846,209.545486 480.082846,183.408062 C480.082846,162.250495 503.320664,155.609168 516.594214,155.609168 C539.832032,156.437627 551.034436,164.740424 550.620206,188.387919 C550.620206,188.729317 512.388192,188.474407 500.475681,188.392471 L500.475681,188.392471 Z M500.530305,178.009423 L532.366798,178.009423 C532.366798,178.009423 532.366798,165.97856 517.012996,165.97856 C505.464643,165.97856 501.686506,172.205658 500.530305,178.009423 Z M601.242688,165.018094 C605.849284,160.020029 613.583085,156.018845 626.556205,156.018845 C652.283952,156.018845 656.435351,177.595193 656.021121,183.40351 C655.606892,189.211826 653.531192,211.202403 623.661151,211.202403 C612.376812,211.202403 605.471471,207.351435 601.24724,202.571864 L601.24724,209.540934 L580.913581,209.540934 L580.913581,134.852175 L601.24724,134.852175 L601.24724,165.018094 L601.242688,165.018094 L601.242688,165.018094 Z M618.676742,199.585771 C630.707604,199.166989 636.101691,188.802149 636.101691,183.822291 C636.101691,178.842433 633.192981,168.468489 617.839179,168.468489 C605.926668,168.468489 602.298746,177.467738 601.242688,181.864943 L601.242688,187.277238 C602.289642,191.76093 605.935772,199.585771 618.676742,199.585771 L618.676742,199.585771 Z M794.196236,197.514623 L794.605913,209.135808 C794.605913,209.135808 785.064979,211.206955 778.842433,211.206955 C772.619888,211.206955 756.428523,207.474338 756.428523,191.701755 L756.428523,167.635478 L739.422355,167.635478 L739.422355,156.851856 L756.428523,156.851856 L756.428523,143.987983 L777.180964,143.987983 L777.180964,156.851856 L794.196236,156.851856 L794.196236,167.635478 L777.180964,167.635478 L777.180964,188.387919 C777.180964,188.387919 777.180964,198.761864 785.483761,198.761864 C793.777454,198.761864 794.196236,197.514623 794.196236,197.514623 L794.196236,197.514623 Z M731.12411,65.5620548 L755.190386,65.5620548 L755.190386,123.235542 L775.514942,123.235542 L775.514942,65.5620548 L800,65.5620548 L800,53.5266404 L731.12411,53.5266404 L731.12411,65.5620548 Z M722.821312,68.466213 L725.311241,56.4307986 C725.311241,56.4307986 714.937297,51.8697226 696.683888,51.8697226 C678.840157,51.8697226 650.212805,61.8294376 650.212805,88.7998725 C650.212805,115.356078 680.501627,124.482782 699.173817,124.482782 C717.846007,124.482782 724.068553,121.578624 724.068553,121.578624 L721.997405,108.300521 C721.997405,108.300521 713.694608,110.79045 699.583495,110.79045 C685.891162,110.37622 671.793705,99.5880465 671.793705,87.5571842 C672.203382,76.7690102 684.648474,64.7335958 700.839839,64.7335958 C713.280379,64.7335958 722.821312,68.466213 722.821312,68.466213 L722.821312,68.466213 Z M539.417803,53.9454219 C539.417803,53.9454219 573.443795,52.288504 573.443795,72.2033821 C573.443795,89.218654 553.947698,90.4613424 553.947698,90.4613424 C553.947698,90.4613424 559.337233,91.2898013 561.831714,95.0224185 C563.902861,98.3408062 577.595193,123.240094 577.595193,123.240094 L556.842752,123.240094 C556.842752,123.240094 553.524364,119.088695 551.862895,116.189089 C550.620206,113.284931 546.883037,107.057833 546.883037,107.057833 C546.883037,107.057833 543.983431,96.6838883 534.019164,96.6838883 C533.768805,96.6838883 529.71755,96.5291212 526.549378,96.41077 L526.549378,123.240094 L506.634499,123.240094 L506.634499,53.9454219 L539.417803,53.9454219 L539.417803,53.9454219 Z M526.553929,85.0672554 L537.346655,85.0672554 C537.346655,85.0672554 552.281676,84.2342445 553.110135,75.1075403 C553.528916,66.3950657 538.593896,65.1478253 538.593896,65.1478253 L526.553929,65.1478253 L526.553929,85.0672554 L526.553929,85.0672554 Z M609.955163,95.8554294 L643.152696,95.8554294 L643.152696,82.9915561 L609.955163,82.9915561 L609.955163,67.2235246 L646.061406,67.2235246 L646.061406,53.9454219 L589.635159,53.9454219 L589.635159,123.240094 L646.480188,123.240094 L646.480188,110.79045 L609.959715,110.79045 L609.959715,95.8554294 L609.955163,95.8554294 Z M690.866468,148.963288 L711.200127,148.963288 L711.200127,134.852175 L690.866468,134.852175 L690.866468,148.963288 Z M690.866468,209.545486 L711.200127,209.545486 L711.200127,156.851856 L690.866468,156.851856 L690.866468,209.545486 L690.866468,209.545486 Z M469.299224,123.240094 L489.214102,123.240094 L489.214102,53.9454219 L469.299224,53.9454219 L469.299224,123.240094 L469.299224,123.240094 Z M376.347953,140.669595 L417.839179,140.669595 C417.839179,140.669595 458.920727,139.832032 458.506498,177.180964 C458.09682,204.979858 418.676742,209.135808 418.676742,209.135808 L376.352505,209.135808 L376.352505,140.669595 L376.347953,140.669595 L376.347953,140.669595 Z M396.681612,196.271935 L409.959715,196.271935 C409.959715,196.271935 437.344379,194.610465 437.344379,173.448346 C437.344379,152.286228 408.298245,150.210529 408.298245,150.210529 L396.681612,150.210529 L396.681612,196.271935 Z M396.681612,109.961991 L409.959715,109.961991 C409.959715,109.961991 437.344379,107.886292 437.344379,87.1384027 C437.344379,65.5620548 408.298245,63.9051369 408.298245,63.9051369 L396.681612,63.9051369 L396.681612,109.961991 Z M190.040285,95.6096229 L190.040285,234.444773 C190.040285,234.444773 109.538658,219.91943 109.538658,164.735872 C109.54321,120.722853 169.133077,101.322348 190.040285,95.6096229 Z M190.040285,93.0195507 C141.657373,89.5190841 31.9502925,112.197009 31.9502925,161.827162 C31.9502925,194.187132 90.0425609,241.495778 184.646198,242.738466 C188.378815,242.738466 295.846325,238.587068 294.189408,123.235542 C292.796504,26.3513667 220.283588,9.38161458 197.095842,6.42738466 L197.095842,0.523476796 C289.537292,6.39096889 362.241391,61.9842047 362.241391,129.458088 C362.241391,200.828459 280.911305,258.916175 180.913581,258.916175 C80.9158568,258.916175 0,200.823907 0,129.458088 C0,58.0922685 80.9113048,0 180.913581,0 C183.977058,0 187.022327,0.0546236657 190.044837,0.163870997 L190.044837,93.0195507 L190.040285,93.0195507 Z" id="Shape"></path>
            </g>
        </g>
    </g>
</svg>