<?xml version="1.0" encoding="UTF-8"?>
<svg width="980px" height="680px" viewBox="0 0 980 680" version="1.1" xmlns="http://www.w3.org/2000/svg" xmlns:xlink="http://www.w3.org/1999/xlink">
    <title>EU Direct Debit alt3</title>
    <defs>
        <rect id="path-1" x="0" y="0" width="900" height="600" rx="80"></rect>
        <filter x="-6.7%" y="-10.0%" width="113.3%" height="120.0%" filterUnits="objectBoundingBox" id="filter-2">
            <feMorphology radius="2.5" operator="dilate" in="SourceAlpha" result="shadowSpreadOuter1"></feMorphology>
            <feOffset dx="0" dy="0" in="shadowSpreadOuter1" result="shadowOffsetOuter1"></feOffset>
            <feGaussianBlur stdDeviation="17.5" in="shadowOffsetOuter1" result="shadowBlurOuter1"></feGaussianBlur>
            <feColorMatrix values="0 0 0 0 0   0 0 0 0 0   0 0 0 0 0  0 0 0 0.5 0" type="matrix" in="shadowBlurOuter1"></feColorMatrix>
        </filter>
    </defs>
    <g id="EU-Direct-Debit-alt3" stroke="none" stroke-width="1" fill="none" fill-rule="evenodd">
        <g transform="translate(40, 40)">
            <g id="Rectangle">
                <use fill="black" fill-opacity="1" filter="url(#filter-2)" xlink:href="#path-1"></use>
                <use fill="#000000" fill-rule="evenodd" xlink:href="#path-1"></use>
            </g>
            <g id="Logo" transform="translate(205.309, 49.529)" fill="#FFFFFF" fill-rule="nonzero">
                <path d="M0,318.333346 L47.5648646,318.333346 C47.5648646,318.333346 95.7880797,317.009034 95.1297293,360.616186 C94.4675734,392.323558 48.8853709,397.609389 48.8853709,397.609389 L0,397.609389 L0,318.333346 Z M23.7805296,382.417858 L38.9758656,382.417858 C38.9758656,382.417858 70.0248879,380.435196 70.0248879,355.988705 C70.0248879,331.549825 36.9932034,328.905007 36.9932034,328.905007 L23.7805296,328.905007 L23.7805296,382.417858 Z M0,418.086157 L47.5648646,418.086157 C47.5648646,418.086157 95.7880797,417.424594 95.1297293,460.361979 C94.4675734,492.739118 48.8853709,497.362793 48.8853709,497.362793 L0,497.362793 L0,418.086157 L0,418.086157 Z M23.7805296,482.159846 L38.9758656,482.159846 C38.9758656,482.159846 70.0248879,480.180989 70.0248879,455.738304 C70.0248879,431.299424 36.9932034,429.316762 36.9932034,429.316762 L23.7805296,429.316762 L23.7805296,482.159846 L23.7805296,482.159846 Z M107.014286,397.609389 L130.798621,397.609389 L130.798621,317.67119 L107.014286,317.67119 L107.014286,397.609389 L107.014286,397.609389 Z M150.617632,397.609389 L173.736005,397.609389 L173.736005,317.67119 L150.617632,317.67119 L150.617632,397.609389 Z M246.405711,397.609389 L269.52789,397.609389 L269.52789,317.67119 L246.405711,317.67119 L246.405711,397.609389 Z M437.978065,397.609389 L461.10405,397.609389 L461.10405,317.67119 L437.978065,317.67119 L437.978065,397.609389 Z M363.333308,497.362793 L387.117643,497.362793 L387.117643,436.585254 L363.333308,436.585254 L363.333308,497.362793 Z M236.496206,498.021143 L259.618385,498.021143 L259.618385,410.822063 L236.496206,410.822063 L236.496206,498.021143 L236.496206,498.021143 Z M363.333308,427.337905 L387.117643,427.337905 L387.117643,410.822063 L363.333308,410.822063 L363.333308,427.337905 Z" id="Shape"></path>
                <path d="M265.566372,332.870332 L311.803119,332.870332 L311.803119,317.67119 L265.566372,317.67119 L265.566372,332.870332 Z M265.566372,397.609389 L311.803119,397.609389 L311.803119,383.076209 L265.566372,383.076209 L265.566372,397.609389 Z M262.259398,365.902016 L308.503756,365.902016 L308.503756,351.361225 L262.259398,351.361225 L262.259398,365.902016 Z M170.436642,317.67119 L188.272991,317.67119 C188.272991,317.67119 227.248856,315.692333 227.248856,338.810707 C227.907207,358.633523 204.788833,359.957835 204.788833,359.957835 C204.788833,359.957835 211.391365,361.274536 214.036183,365.243666 C216.677195,369.205185 232.534687,397.613194 232.534687,397.613194 L208.750352,397.613194 C208.750352,397.613194 204.785028,392.98952 202.806171,389.682546 C201.485665,386.383183 196.86199,379.11469 196.86199,379.11469 C196.86199,379.11469 193.558822,367.222522 182.32881,367.222522 C181.670459,367.222522 169.116136,366.560367 169.116136,366.560367 L169.116136,354.013654 L185.631978,353.351498 C185.631978,353.351498 203.468327,352.689342 204.130483,342.121487 C204.788833,332.211981 187.61464,330.891475 187.61464,330.891475 L170.440448,330.891475 L165.154617,320.323619 L170.436642,317.67119 L170.436642,317.67119 Z M400.326511,334.849188 L402.971329,320.978164 C402.971329,320.978164 391.079162,315.692333 370.601801,315.692333 C349.454673,315.692333 316.434405,326.922345 316.434405,357.967562 C316.434405,388.358234 351.44114,399.592051 373.242813,399.592051 C394.38233,399.592051 402.312979,396.285077 402.312979,396.285077 L399.668161,380.431391 C399.668161,380.431391 389.758656,383.730754 373.904969,383.076209 C357.389127,383.076209 341.535441,370.521885 341.535441,356.647056 C342.197596,344.100343 356.064815,330.225514 375.229281,330.225514 C389.758656,330.225514 400.326511,334.849188 400.326511,334.849188 Z M410.232211,330.887669 L489.508254,330.887669 L489.508254,317.67119 L410.232211,317.67119 L410.232211,330.887669 Z M419.487172,449.139578 L482.901917,449.139578 L482.901917,436.585254 L419.487172,436.585254 L419.487172,449.139578 Z" id="Shape"></path>
                <path d="M482.901917,483.484158 L483.564073,497.358987 C483.564073,497.358987 472.334061,499.337844 465.07318,499.337844 C457.804687,499.337844 439.306182,495.376325 439.306182,476.877821 L439.306182,422.048269 L463.090517,422.048269 L463.090517,472.916302 C463.090517,472.916302 463.090517,484.80847 473.000023,484.80847 C482.239761,484.80847 482.901917,483.484158 482.901917,483.484158 L482.901917,483.484158 Z M252.349892,468.292627 C252.349892,468.292627 249.712685,435.923099 289.343096,435.923099 C319.071612,435.923099 323.695287,461.024134 323.036936,467.630471 C323.036936,474.236808 320.399729,499.337844 286.043733,499.337844 C251.687736,499.337844 252.349892,468.292627 252.349892,468.292627 Z M280.095746,486.128976 C293.970576,485.46682 299.918562,473.574652 299.918562,467.630471 C299.918562,462.344641 297.273744,449.790317 278.771434,449.790317 C260.938891,449.790317 259.618385,468.288822 259.618385,468.288822 C259.618385,468.288822 259.618385,486.128976 280.095746,486.128976 Z M143.261612,472.958162 C144.646812,479.252449 149.29332,486.300223 164.492461,486.791132 C184.969822,487.445677 196.20364,480.184795 196.20364,480.184795 L196.20364,494.714169 C196.20364,494.714169 174.401967,500 163.171955,500 C152.604099,500 120.230765,498.021143 120.230765,467.630471 C120.230765,443.191591 146.656113,435.260943 161.851449,435.260943 C188.935147,435.923099 201.48947,445.828798 201.48947,472.916302 C201.481859,473.471904 157.071749,473.087549 143.261612,472.958162 L143.261612,472.958162 Z M143.3225,461.024134 L180.346148,461.024134 C180.346148,461.024134 180.346148,447.15311 162.505994,447.15311 C149.624398,447.15311 144.875142,454.429214 143.3225,461.024134 Z M245.24123,111.421047 L245.24123,273.207803 C245.24123,273.207803 151.432007,256.284773 151.432007,191.968125 C151.432007,140.681488 220.874655,118.07305 245.24123,111.421047 Z M245.24123,108.399485 C188.859037,104.316191 61.0058681,130.749149 61.0058681,188.585041 C61.0058681,226.301289 128.705599,281.427669 238.954555,282.877562 C243.308039,282.877562 368.543029,278.04078 366.609838,143.615523 C364.988698,30.7141389 280.480101,10.9407941 253.464902,7.49682241 L253.464902,0.612684471 C361.18701,7.447351 445.916325,72.2358797 445.916325,150.868794 C445.916325,234.037857 351.136701,301.733783 234.60107,301.733783 C118.065439,301.733783 23.7729186,234.037857 23.7729186,150.868794 C23.7729186,67.6997313 118.065439,0 234.60107,0 C238.170623,0 241.713538,0.0608878978 245.237425,0.190274681 L245.237425,108.399485 L245.24123,108.399485 L245.24123,108.399485 Z" id="Shape"></path>
            </g>
        </g>
    </g>
</svg>