<svg xmlns="http://www.w3.org/2000/svg" xmlns:xlink="http://www.w3.org/1999/xlink" width="980" height="680" viewBox="0 0 980 680">
  <defs>
    <filter id="a" width="113.3%" height="120%" x="-6.7%" y="-10%" filterUnits="objectBoundingBox">
      <feMorphology in="SourceAlpha" operator="dilate" radius="2.5" result="shadowSpreadOuter1"/>
      <feOffset in="shadowSpreadOuter1" result="shadowOffsetOuter1"/>
      <feGaussianBlur in="shadowOffsetOuter1" result="shadowBlurOuter1" stdDeviation="17.5"/>
      <feColorMatrix in="shadowBlurOuter1" values="0 0 0 0 0 0 0 0 0 0 0 0 0 0 0 0 0 0 0.5 0"/>
    </filter>
    <rect id="b" width="900" height="600" x="0" y="0" rx="80"/>
  </defs>
  <g fill="none" fill-rule="evenodd">
    <g transform="translate(40 40)">
      <use xlink:href="#b" fill="#000" filter="url(#a)"/>
      <use xlink:href="#b" fill="#FFB3C7"/>
    </g>
    <g fill="#FFF" fill-rule="nonzero">
      <path d="M669.197 392.626 456.263 95.531c-78.482 56.486-132.387 140.854-150.768 235.755l363.702 61.34Zm-379.192-56.693a393.246 393.246 0 0 1 163.78-256.099c3.2-2.272 7.744-1.549 10.016 1.653l227.082 316.922c2.272 3.201 1.549 7.642-1.756 9.914a6.653 6.653 0 0 1-5.37 1.136l-387.97-65.368c-3.923-.62-6.505-4.234-5.885-8.158h.103Z"/>
      <path d="M479.188 128.06c-2.169 2.168-4.337 4.44-6.403 6.815-.722.826-3.407 3.717-3.304 3.614l-3.305 3.718c-11.669 12.701-19.93 18.588-27.881 18.69-36.247.62-53.802 23.442-52.872 54.009 0 2.168.206 4.027.413 6.712.31 2.272.413 4.544.413 6.816-.207 7.538-5.886 16.419-27.779 39.757-26.642 28.398-27.365 61.443-11.772 82.406 2.375 3.201 6.815 3.821 10.017 1.55 3.2-2.273 3.924-6.61 1.652-9.811v-.103c-11.67-15.594-11.05-41.1 10.74-64.335 24.164-25.713 31.29-36.763 31.599-49.051 0-2.788-.103-5.577-.516-8.468-.207-1.962-.31-3.82-.414-5.783-.722-23.235 11.256-38.931 38.622-39.344 13.321-.207 24.06-7.848 38.415-23.338 1.032-1.136 2.065-2.272 3.408-3.821l3.2-3.614c2.48-2.789 4.235-4.647 5.887-6.196 2.788-2.685 2.788-7.126 0-9.914l-.103-.103c-2.789-2.788-7.332-2.788-10.224 0l.207-.207Zm-16.006 237.82c12.701-28.914 46.573-42.132 75.487-29.327 17.039 7.538 29.43 22.925 33.148 41.203.413 2.169.723 4.44.826 6.609a7.19 7.19 0 0 0 7.745 6.61 7.133 7.133 0 0 0 6.61-7.54c-.207-2.788-.517-5.576-1.033-8.26-7.745-38.829-45.644-64.025-84.472-56.28-22.925 4.543-42.132 20.033-51.53 41.41a7.049 7.049 0 0 0 3.718 9.293h.103c3.615 1.549 7.849-.103 9.5-3.718h-.102Zm-24.474-64.128c-20.447-3.924-41.513 2.066-56.796 16.213-2.892 2.582-2.995 7.022-.414 9.914l.104.103c2.788 2.891 7.228 2.995 10.223.31 11.876-10.946 28.295-15.697 44.198-12.599 3.924.723 7.641-1.755 8.468-5.576a7.046 7.046 0 0 0-5.68-8.261l-.103-.104Zm98.928-24.06c6.816 19.517 22.616 34.697 42.443 40.583 3.82 1.136 7.848-.93 8.984-4.75 1.136-3.718-.93-7.745-4.75-8.881-15.49-4.647-27.78-16.316-33.046-31.6-1.342-3.717-5.37-5.68-9.087-4.44-3.718 1.24-5.783 5.267-4.544 8.984v.103Z"/>
      <path d="M474.231 291.839c-28.501-.413-51.22-23.751-50.807-52.253.413-28.5 23.751-51.22 52.253-50.806 28.191.413 50.807 23.338 50.807 51.53-.207 28.707-23.545 51.735-52.253 51.529Zm0-14.25c20.653-.31 37.073-17.246 36.763-37.9-.31-20.652-17.246-37.072-37.899-36.762-20.446.31-36.762 16.936-36.762 37.279.103 20.756 17.142 37.485 37.898 37.279v.103ZM685.382 524.018c-17.254-11.757-40.561-8.832-54.375 6.824s-13.814 39.147 0 54.803c13.814 15.655 37.121 18.58 54.375 6.823v5.015h23.5v-78.485h-23.5v5.02Zm-21.372 54.42c-11.013-.586-19.525-9.888-19.135-20.91.39-11.021 9.54-19.697 20.567-19.502 11.027.195 19.863 9.19 19.863 20.218-.313 11.453-9.842 20.489-21.295 20.193ZM338.532 484.021h24.592v113.463h-24.592zM578.916 516.887a28.547 28.547 0 0 0-24.205 10.954v-8.839H531.31v78.483h23.684v-41.246a16.551 16.551 0 0 1 17.64-17.78c10.329 0 16.265 6.17 16.265 17.618v41.408h23.473v-49.911c0-18.266-14.523-30.687-33.455-30.687ZM437.472 524.018c-17.255-11.757-40.562-8.832-54.376 6.824s-13.814 39.147 0 54.803c13.814 15.655 37.121 18.58 54.376 6.823v5.015h23.499v-78.485h-23.5v5.02Zm-21.373 54.42c-11.014-.585-19.528-9.886-19.138-20.908.39-11.022 9.54-19.7 20.566-19.504 11.027.195 19.864 9.19 19.864 20.218-.312 11.453-9.84 20.488-21.293 20.193ZM497.323 529.222v-10.223h-24.06v78.486h24.111v-36.64c0-12.365 13.401-19.01 22.7-19.01.094 0 .184.01.279.01v-22.841a29.3 29.3 0 0 0-23.03 10.218ZM733.83 569.647c-8.146 0-14.749 6.604-14.749 14.75 0 8.145 6.604 14.748 14.75 14.748s14.75-6.603 14.75-14.749a14.748 14.748 0 0 0-14.75-14.75ZM321.58 484h-25.486a65.184 65.184 0 0 1-26.352 52.607l-10.096 7.562 39.123 53.352h32.166l-35.998-49.091A90.298 90.298 0 0 0 321.581 484ZM231 484h25.532v113.516H231z"/>
    </g>
  </g>
</svg>