<?xml version="1.0" encoding="UTF-8"?>
<svg width="980px" height="680px" viewBox="0 0 980 680" version="1.1" xmlns="http://www.w3.org/2000/svg" xmlns:xlink="http://www.w3.org/1999/xlink">
    <title>EU Micro Payment</title>
    <defs>
        <linearGradient x1="50%" y1="0%" x2="50%" y2="100%" id="linearGradient-1">
            <stop stop-color="#FFFFFF" offset="0%"></stop>
            <stop stop-color="#EDEDED" offset="100%"></stop>
        </linearGradient>
        <rect id="path-2" x="0" y="0" width="900" height="600" rx="80"></rect>
        <filter x="-6.7%" y="-10.0%" width="113.3%" height="120.0%" filterUnits="objectBoundingBox" id="filter-3">
            <feMorphology radius="2.5" operator="dilate" in="SourceAlpha" result="shadowSpreadOuter1"></feMorphology>
            <feOffset dx="0" dy="0" in="shadowSpreadOuter1" result="shadowOffsetOuter1"></feOffset>
            <feGaussianBlur stdDeviation="17.5" in="shadowOffsetOuter1" result="shadowBlurOuter1"></feGaussianBlur>
            <feColorMatrix values="0 0 0 0 0   0 0 0 0 0   0 0 0 0 0  0 0 0 0.5 0" type="matrix" in="shadowBlurOuter1"></feColorMatrix>
        </filter>
    </defs>
    <g id="EU-Micro-Payment" stroke="none" stroke-width="1" fill="none" fill-rule="evenodd">
        <g transform="translate(40, 40)">
            <g id="Rectangle">
                <use fill="black" fill-opacity="1" filter="url(#filter-3)" xlink:href="#path-2"></use>
                <use fill="url(#linearGradient-1)" fill-rule="evenodd" xlink:href="#path-2"></use>
            </g>
            <g id="Logo" transform="translate(50, 203)">
                <path d="M0,191.4233 L19.7333333,126.7833 L38.9333333,126.7833 L43.3066667,151.849967 C43.52,153.3433 43.84,154.9433 44.0533333,156.649967 C44.2666667,158.356634 44.48,160.0633 44.6933333,161.876634 C45.0133333,160.596634 45.44,159.209967 45.9733333,157.716634 C46.5066667,156.2233 47.2533333,154.409967 48.32,152.169967 L59.84,126.7833 L78.9333333,126.7833 L80.4266667,191.4233 L64.5333333,191.4233 L64.32,160.596634 C64.32,158.889967 64.32,157.1833 64.4266667,155.476634 C64.5333333,153.769967 64.5333333,152.0633 64.64,150.356634 C64,152.489967 62.9333333,155.2633 61.3333333,158.569967 C61.0133333,159.209967 60.8,159.7433 60.6933333,160.0633 L45.9733333,191.529967 L35.52,191.529967 L29.44,160.169967 C29.12,158.569967 28.8,156.969967 28.5866667,155.369967 C28.3733333,153.769967 28.16,152.169967 27.9466667,150.569967 C27.6266667,152.489967 27.3066667,154.3033 26.88,156.009967 C26.56,157.716634 26.1333333,159.316634 25.7066667,160.809967 L16.8533333,191.4233 L0,191.4233 L0,191.4233 Z" id="Path" fill="#3F494A" fill-rule="nonzero"></path>
                <polygon id="Path" fill="#3F494A" fill-rule="nonzero" points="88.1066667 191.4233 98.3466667 126.7833 115.946667 126.7833 105.706667 191.4233"></polygon>
                <path d="M177.92,129.876634 L175.04,147.689967 C172.586667,145.556634 169.92,143.956634 166.933333,142.7833 C164.053333,141.716634 160.96,141.1833 157.866667,141.1833 C152.533333,141.1833 148.16,142.996634 144.64,146.729967 C141.12,150.4633 139.413333,155.2633 139.413333,161.0233 C139.413333,166.249967 140.906667,170.3033 143.786667,173.1833 C146.666667,176.0633 150.826667,177.449967 156.16,177.449967 C158.4,177.449967 160.853333,177.129967 163.2,176.596634 C165.653333,176.0633 168.213333,175.209967 170.88,174.036634 L168.213333,190.7833 C165.973333,191.529967 163.626667,192.0633 160.96,192.3833 C158.293333,192.7033 155.413333,192.916634 152.32,192.916634 C143.146667,192.916634 135.786667,190.036634 130.24,184.3833 C124.693333,178.729967 121.92,171.156634 121.92,161.6633 C121.92,157.076634 122.666667,152.809967 124.053333,148.649967 C125.44,144.489967 127.573333,140.756634 130.346667,137.3433 C133.546667,133.396634 137.6,130.409967 142.506667,128.276634 C147.306667,126.1433 152.746667,125.1833 158.72,125.1833 C162.133333,125.1833 165.44,125.609967 168.64,126.356634 C171.733333,127.209967 174.826667,128.276634 177.92,129.876634 L177.92,129.876634 Z" id="Path" fill="#3F494A" fill-rule="nonzero"></path>
                <path d="M195.733333,191.4233 L178.56,191.4233 L188.693333,126.7833 L205.866667,126.7833 C211.093333,126.7833 214.933333,126.996634 217.386667,127.316634 C219.946667,127.636634 222.08,128.276634 224,129.236634 C227.306667,130.729967 229.76,132.969967 231.466667,135.7433 C233.173333,138.516634 234.026667,141.8233 234.026667,145.769967 C234.026667,151.1033 232.426667,155.5833 229.226667,159.209967 C226.026667,162.836634 221.653333,165.076634 216,165.929967 L231.786667,191.4233 L212.053333,191.4233 L199.573333,166.7833 L195.733333,191.4233 L195.733333,191.4233 Z M201.28,156.329967 L206.72,156.329967 C210.133333,156.329967 212.693333,155.5833 214.613333,153.9833 C216.426667,152.3833 217.386667,150.1433 217.386667,147.2633 C217.386667,144.489967 216.533333,142.4633 214.826667,141.289967 C213.12,140.009967 210.346667,139.369967 206.613333,139.369967 L204.053333,139.369967 L201.28,156.329967 L201.28,156.329967 Z" id="Shape" fill="#3F494A"></path>
                <path d="M276.906667,141.1833 C271.68,141.1833 267.2,143.1033 263.68,146.836634 C260.16,150.676634 258.346667,155.369967 258.346667,160.916634 C258.346667,165.929967 259.733333,169.876634 262.613333,172.8633 C265.493333,175.849967 269.226667,177.3433 274.026667,177.3433 C279.253333,177.3433 283.626667,175.4233 287.253333,171.476634 C290.88,167.529967 292.693333,162.729967 292.693333,157.1833 C292.693333,152.489967 291.2,148.756634 288.32,145.769967 C285.226667,142.676634 281.386667,141.1833 276.906667,141.1833 L276.906667,141.1833 Z M272.96,193.129967 C268.373333,193.129967 264.106667,192.489967 260.373333,191.209967 C256.64,189.929967 253.226667,188.009967 250.24,185.556634 C247.146667,182.889967 244.693333,179.476634 242.986667,175.529967 C241.28,171.5833 240.426667,167.316634 240.426667,162.836634 C240.426667,158.036634 241.173333,153.556634 242.666667,149.289967 C244.16,145.129967 246.4,141.289967 249.28,137.876634 C252.693333,133.8233 256.96,130.729967 261.866667,128.596634 C266.773333,126.4633 272.213333,125.396634 277.973333,125.396634 C287.68,125.396634 295.573333,128.169967 301.546667,133.8233 C307.52,139.369967 310.506667,146.6233 310.506667,155.5833 C310.506667,160.3833 309.76,164.8633 308.266667,169.129967 C306.773333,173.396634 304.533333,177.129967 301.653333,180.5433 C298.133333,184.7033 293.866667,187.796634 289.066667,190.036634 C284.16,192.0633 278.72,193.129967 272.96,193.129967 L272.96,193.129967 Z" id="Shape" fill="#3F494A"></path>
                <path d="M396.266667,155.156634 L397.866667,155.156634 C403.413333,155.156634 407.253333,154.516634 409.173333,153.3433 C411.093333,152.169967 412.16,150.1433 412.16,147.369967 C412.16,145.0233 411.306667,143.209967 409.6,142.1433 C407.893333,141.076634 405.226667,140.5433 401.6,140.5433 L398.506667,140.5433 L396.266667,155.156634 L396.266667,155.156634 Z M373.333333,191.316634 L383.573333,126.676634 L401.28,126.676634 C406.186667,126.676634 409.92,126.889967 412.373333,127.316634 C414.826667,127.7433 416.96,128.3833 418.773333,129.3433 C422.08,131.049967 424.533333,133.289967 426.133333,136.276634 C427.733333,139.156634 428.586667,142.676634 428.586667,146.729967 C428.586667,150.7833 427.733333,154.516634 425.92,157.929967 C424.213333,161.3433 421.76,164.009967 418.773333,165.8233 C416.96,166.889967 414.933333,167.636634 412.48,168.169967 C410.026667,168.596634 406.293333,168.809967 401.173333,168.809967 L398.72,168.809967 L394.133333,168.809967 L390.506667,191.316634 L373.333333,191.316634 L373.333333,191.316634 Z" id="Shape" fill="#A52B2D"></path>
                <path d="M418.88,191.316634 L451.2,126.676634 L472.853333,126.676634 L486.613333,191.316634 L469.12,191.316634 L466.56,179.156634 L443.946667,179.156634 L437.76,191.316634 L418.88,191.316634 L418.88,191.316634 Z M450.346667,164.756634 L464,164.756634 L461.013333,149.716634 C460.693333,148.2233 460.48,146.836634 460.373333,145.6633 C460.266667,144.489967 460.16,143.4233 460.16,142.356634 C459.52,144.169967 458.986667,145.6633 458.453333,147.049967 C457.92,148.436634 457.493333,149.396634 457.28,150.036634 L450.346667,164.756634 L450.346667,164.756634 Z" id="Shape" fill="#A52B2D"></path>
                <path d="M500.053333,191.316634 L504.64,162.516634 L486.506667,126.7833 L505.706667,126.7833 L512.746667,143.316634 C513.173333,144.169967 513.493333,145.129967 513.92,146.196634 C514.346667,147.2633 514.666667,148.436634 515.093333,149.609967 C515.84,147.796634 516.48,146.3033 517.013333,145.3433 C517.546667,144.276634 517.866667,143.636634 518.186667,143.209967 L529.6,126.889967 L549.44,126.889967 L521.92,162.836634 L517.44,191.4233 L500.053333,191.4233 L500.053333,191.316634 Z" id="Path" fill="#A52B2D" fill-rule="nonzero"></path>
                <path d="M538.986667,191.316634 L558.72,126.676634 L577.92,126.676634 L582.293333,151.7433 C582.506667,153.236634 582.826667,154.836634 583.04,156.5433 C583.253333,158.249967 583.466667,159.956634 583.68,161.769967 C584,160.489967 584.426667,159.1033 584.96,157.609967 C585.493333,156.116634 586.24,154.3033 587.306667,152.0633 L598.826667,126.676634 L617.92,126.676634 L619.413333,191.316634 L603.52,191.316634 L603.306667,160.489967 C603.306667,158.7833 603.306667,157.076634 603.413333,155.369967 C603.52,153.6633 603.52,151.956634 603.626667,150.249967 C602.986667,152.3833 601.92,155.156634 600.32,158.4633 C600,159.1033 599.786667,159.636634 599.68,159.956634 L584.96,191.4233 L574.506667,191.4233 L568.426667,160.0633 C568.106667,158.4633 567.786667,156.8633 567.573333,155.2633 C567.36,153.6633 567.146667,152.0633 566.933333,150.4633 C566.613333,152.3833 566.293333,154.196634 565.866667,155.9033 C565.546667,157.609967 565.12,159.209967 564.693333,160.7033 L555.733333,191.529967 L538.986667,191.529967 L538.986667,191.316634 Z" id="Path" fill="#A52B2D" fill-rule="nonzero"></path>
                <polygon id="Path" fill="#A52B2D" fill-rule="nonzero" points="646.293333 177.0233 666.24 177.0233 664 191.316634 626.773333 191.316634 636.906667 126.7833 674.24 126.7833 671.893333 141.609967 651.84 141.609967 650.24 152.276634 668.8 152.276634 666.56 166.249967 648 166.249967"></polygon>
                <path d="M675.84,191.316634 L686.08,126.676634 L705.813333,126.676634 L719.466667,158.569967 C719.573333,158.7833 719.786667,159.316634 720,159.956634 C721.493333,163.476634 722.56,166.4633 723.093333,169.129967 L723.093333,167.529967 C723.093333,166.356634 723.2,165.076634 723.306667,163.5833 C723.413333,162.196634 723.626667,160.3833 723.946667,158.356634 L728.96,126.676634 L746.24,126.676634 L736,191.316634 L717.013333,191.316634 L702.506667,158.4633 C701.44,156.116634 700.693333,154.089967 700.053333,152.596634 C699.52,150.996634 699.093333,149.5033 698.666667,147.9033 L698.666667,149.716634 C698.666667,150.889967 698.666667,152.169967 698.56,153.449967 C698.453333,154.729967 698.24,156.5433 698.026667,158.676634 L693.12,191.4233 L675.84,191.4233 L675.84,191.316634 Z" id="Path" fill="#A52B2D"></path>
                <polygon id="Path" fill="#A52B2D" fill-rule="nonzero" points="758.613333 191.316634 766.4 141.716634 752 141.716634 754.453333 126.7833 800 126.7833 797.546667 141.716634 783.786667 141.716634 775.893333 191.316634"></polygon>
                <path d="M329.386667,193.236634 C329.386667,193.236634 357.653333,160.916634 328.213333,134.889967 C298.773333,108.8633 290.666667,105.556634 274.56,90.6233002 C258.453333,75.6899669 258.666667,65.8766335 274.133333,46.9966335 C289.493333,28.0099669 283.413333,17.3433002 272.213333,16.2766335 C261.013333,15.2099669 219.2,17.3433002 188.586667,24.0633002 C157.973333,30.7833002 102.933333,38.6766335 96.96,40.0633002 C90.9866667,41.4499669 184.533333,14.2499669 193.386667,12.4366335 C202.346667,10.5166335 231.253333,3.47663352 242.56,1.87663352 C253.866667,0.276633521 272.96,-0.896699813 284.906667,0.916633521 C296.853333,2.83663352 330.453333,16.1699669 298.453333,39.9566335 C266.453333,63.7433002 274.133333,80.7033002 293.226667,96.0633002 C312.426667,111.4233 346.666667,132.2233 349.44,155.156634 C352.32,177.9833 329.386667,193.236634 329.386667,193.236634 L329.386667,193.236634 Z" id="Path" fill="#3F494A" fill-rule="nonzero"></path>
            </g>
        </g>
    </g>
</svg>