<?xml version="1.0" encoding="UTF-8"?>
<svg width="980px" height="680px" viewBox="0 0 980 680" version="1.1" xmlns="http://www.w3.org/2000/svg" xmlns:xlink="http://www.w3.org/1999/xlink">
    <title>EU Mollie</title>
    <defs>
        <linearGradient x1="50%" y1="0%" x2="50%" y2="100%" id="linearGradient-1">
            <stop stop-color="#FFFFFF" offset="0%"></stop>
            <stop stop-color="#EDEDED" offset="100%"></stop>
        </linearGradient>
        <rect id="path-2" x="2.84217094e-14" y="0" width="900" height="600" rx="80"></rect>
        <filter x="-6.7%" y="-10.0%" width="113.3%" height="120.0%" filterUnits="objectBoundingBox" id="filter-3">
            <feMorphology radius="2.5" operator="dilate" in="SourceAlpha" result="shadowSpreadOuter1"></feMorphology>
            <feOffset dx="0" dy="0" in="shadowSpreadOuter1" result="shadowOffsetOuter1"></feOffset>
            <feGaussianBlur stdDeviation="17.5" in="shadowOffsetOuter1" result="shadowBlurOuter1"></feGaussianBlur>
            <feColorMatrix values="0 0 0 0 0   0 0 0 0 0   0 0 0 0 0  0 0 0 0.5 0" type="matrix" in="shadowBlurOuter1"></feColorMatrix>
        </filter>
    </defs>
    <g id="EU-Mollie" stroke="none" stroke-width="1" fill="none" fill-rule="evenodd">
        <g transform="translate(40, 40)">
            <g id="Rectangle">
                <use fill="black" fill-opacity="1" filter="url(#filter-3)" xlink:href="#path-2"></use>
                <use fill="url(#linearGradient-1)" fill-rule="evenodd" xlink:href="#path-2"></use>
            </g>
            <g id="Logo" transform="translate(50, 182)" fill="#000000">
                <path d="M603.103333,49.6333333 C616.81,49.6333333 627.92,38.5223333 627.92,24.8165333 C627.92,11.1107667 616.81,0 603.103333,0 C589.396667,0 578.283333,11.1107667 578.283333,24.8165333 C578.283333,38.5223333 589.396667,49.6333333 603.103333,49.6333333 Z M338.366667,77.1796667 C294.436667,77.1796667 258.779333,112.915333 258.779333,156.758667 C258.779333,200.600333 294.519333,236.336667 338.366667,236.336667 C382.213333,236.336667 417.953333,200.600333 417.953333,156.758667 C417.953333,112.915333 382.296667,77.1796667 338.366667,77.1796667 Z M338.366667,198.697667 C315.284,198.697667 296.504667,179.920667 296.504667,156.841333 C296.504667,133.762 315.284,114.983667 338.366667,114.983667 C361.446667,114.983667 380.226667,133.762 380.226667,156.841333 C380.226667,179.920667 361.446667,198.697667 338.366667,198.697667 Z M169.762,77.0143333 C171.829667,77.0143333 173.816333,77.097 175.884333,77.2623333 C193.257333,78.7513333 209.224333,86.7753333 220.889667,99.8456667 C232.554333,112.833 239.007333,129.626 239.007333,147.079333 L239.007333,233.110667 L200.951333,233.110667 L200.951333,146.004 C200.868667,128.880333 186.721333,114.901 169.513667,114.901 C168.521,114.901 167.445667,114.983667 166.370333,115.066333 C150.982667,116.638 138.076333,131.197667 138.076333,146.914 L138.076333,233.110667 L100.020667,233.110667 L100.020667,146.252333 C99.938,129.045667 85.8736667,114.983667 68.666,114.983667 C67.6736667,114.983667 66.5983333,115.066333 65.523,115.149 L65.523,115.149 L65.5226667,115.149 L65.5226667,115.149 L65.5223333,115.149 L65.5223333,115.149 C50.2173333,116.720667 37.2286667,131.280333 37.2286667,147.079333 L37.2286667,233.110667 L0,233.110667 L0,146.004 C0,107.952333 31.0238,77.0143333 69.0796667,77.0143333 C88.1076667,77.0143333 106.225333,84.9556667 119.297,98.77 C132.368667,84.8726667 150.569,77.0143333 169.762,77.0143333 Z M476.526667,3.72246667 L438.47,3.72246667 L438.47,233.276333 L476.526667,233.276333 L476.526667,3.72246667 Z M511.273333,3.72246667 L549.326667,3.72246667 L549.326667,233.276333 L511.273333,233.276333 L511.273333,3.72246667 Z M622.13,80.9846667 L584.073333,80.9846667 L584.073333,233.193333 L622.13,233.193333 L622.13,80.9846667 Z M777.91,99.5146667 C792.14,113.991 800,133.017333 800,153.200667 L800,170.655333 L684.26,170.655333 C689.39,189.019667 706.1,201.925 725.46,201.925 C740.6,201.925 754.25,194.231 762.11,181.244333 L763.68,178.68 L795.12,194.148333 L793.3,197.209 C778.986667,221.281 752.76,236.254 724.8,236.254 L724.716667,236.254 C703.37,236.254 683.35,227.816667 668.21,212.513 C653.073333,197.209 644.88,177.024333 645.13,155.683333 C645.376667,134.754333 653.65,115.149 668.376667,100.342 C683.103333,85.5346667 702.793333,77.2623333 723.64,77.0143333 L724.633333,77.0143333 C744.736667,77.0143333 763.596667,85.0383333 777.91,99.5146667 Z M761.53,139.221333 C756.07,123.007333 740.516667,111.592 723.143333,111.592 C705.77,111.592 690.216667,123.007333 684.84,139.221333 L761.53,139.221333 Z" id="Shape"></path>
            </g>
        </g>
    </g>
</svg>