<?xml version="1.0" encoding="UTF-8"?>
<svg width="980px" height="680px" viewBox="0 0 980 680" version="1.1" xmlns="http://www.w3.org/2000/svg" xmlns:xlink="http://www.w3.org/1999/xlink">
    <title>EU Micro Payment alt</title>
    <defs>
        <linearGradient x1="50%" y1="0%" x2="50%" y2="100%" id="linearGradient-1">
            <stop stop-color="#FFFFFF" offset="0%"></stop>
            <stop stop-color="#EDEDED" offset="100%"></stop>
        </linearGradient>
        <rect id="path-2" x="0" y="0" width="900" height="600" rx="80"></rect>
        <filter x="-6.7%" y="-10.0%" width="113.3%" height="120.0%" filterUnits="objectBoundingBox" id="filter-3">
            <feMorphology radius="2.5" operator="dilate" in="SourceAlpha" result="shadowSpreadOuter1"></feMorphology>
            <feOffset dx="0" dy="0" in="shadowSpreadOuter1" result="shadowOffsetOuter1"></feOffset>
            <feGaussianBlur stdDeviation="17.5" in="shadowOffsetOuter1" result="shadowBlurOuter1"></feGaussianBlur>
            <feColorMatrix values="0 0 0 0 0   0 0 0 0 0   0 0 0 0 0  0 0 0 0.5 0" type="matrix" in="shadowBlurOuter1"></feColorMatrix>
        </filter>
    </defs>
    <g id="EU-Micro-Payment-alt" stroke="none" stroke-width="1" fill="none" fill-rule="evenodd">
        <g transform="translate(40, 40)">
            <g id="Rectangle">
                <use fill="black" fill-opacity="1" filter="url(#filter-3)" xlink:href="#path-2"></use>
                <use fill="url(#linearGradient-1)" fill-rule="evenodd" xlink:href="#path-2"></use>
            </g>
            <g id="Logo" transform="translate(51.3333, 50)">
                <path d="M12.4596634,357.760483 L49.340267,236.951587 L85.2240976,236.951587 L93.3976368,283.799921 C93.796346,286.590885 94.3944098,289.581205 94.7931191,292.770879 C95.1918283,295.960552 95.5905375,299.150226 95.9892467,302.539255 C96.5873106,300.146999 97.384729,297.555389 98.3815021,294.764425 C99.3782752,291.97346 100.773757,288.584432 102.767304,284.397985 L124.297602,236.951587 L159.982078,236.951587 L162.773043,357.760483 L133.069205,357.760483 L132.670496,300.146999 C132.670496,296.957325 132.670496,293.767652 132.86985,290.577978 C133.069205,287.388304 133.069205,284.19863 133.26856,281.008956 C132.072432,284.996049 130.078886,290.179269 127.088567,296.359262 C126.490503,297.555389 126.091793,298.552162 125.892439,299.150226 L98.3815021,357.959837 L78.8447499,357.959837 L67.4815369,299.349581 C66.8834731,296.359262 66.2854092,293.368942 65.8867,290.378623 C65.4879908,287.388304 65.0892815,284.397985 64.6905723,281.407666 C64.0925085,284.996049 63.4944446,288.385077 62.6970262,291.574751 C62.0989623,294.764425 61.3015439,297.754744 60.5041254,300.545708 L43.9576924,357.760483 L12.4596634,357.760483 L12.4596634,357.760483 Z" id="Path" fill="#3F494A" fill-rule="nonzero"></path>
                <polygon id="Path" fill="#3F494A" fill-rule="nonzero" points="177.126575 357.760483 196.264618 236.951587 229.158129 236.951587 210.020086 357.760483"></polygon>
                <path d="M344.98316,242.73287 L339.600585,276.025091 C335.015429,272.037999 330.031564,269.047679 324.449635,266.854779 C319.06706,264.861233 313.285776,263.864459 307.504492,263.864459 C297.536762,263.864459 289.363223,267.253488 282.78452,274.230899 C276.205818,281.208311 273.016144,290.179269 273.016144,300.944418 C273.016144,310.712794 275.807109,318.288269 281.189683,323.670844 C286.572258,329.053418 294.347088,331.645028 304.314819,331.645028 C308.501265,331.645028 313.086422,331.046964 317.472223,330.050191 C322.057379,329.053418 326.84189,327.458581 331.825755,325.265681 L326.84189,356.564355 C322.655443,357.959837 318.269642,358.95661 313.285776,359.554674 C308.301911,360.152738 302.919336,360.551447 297.138052,360.551447 C279.993556,360.551447 266.238087,355.168873 255.871647,344.603078 C245.505207,334.037284 240.321987,319.883106 240.321987,302.140545 C240.321987,293.568297 241.71747,285.594112 244.30908,277.819282 C246.90069,270.044453 250.887782,263.067041 256.071002,256.687693 C262.05164,249.311573 269.627116,243.729643 278.797428,239.742551 C287.768386,235.755459 297.935471,233.961267 309.099329,233.961267 C315.478677,233.961267 321.65867,234.758686 327.639308,236.154168 C333.420592,237.749005 339.201876,239.742551 344.98316,242.73287 L344.98316,242.73287 Z" id="Path" fill="#3F494A" fill-rule="nonzero"></path>
                <path d="M378.27538,357.760483 L346.179288,357.760483 L365.117976,236.951587 L397.214069,236.951587 C406.982445,236.951587 414.159211,237.350296 418.744367,237.94836 C423.528878,238.546423 427.51597,239.742551 431.104353,241.536743 C437.284346,244.327707 441.869502,248.514154 445.059176,253.697374 C448.24885,258.880594 449.843687,265.060587 449.843687,272.436708 C449.843687,282.404439 446.853368,290.777332 440.872729,297.555389 C434.892091,304.333446 426.718552,308.519893 416.152757,310.11473 L445.65724,357.760483 L408.776636,357.760483 L385.452147,311.709567 L378.27538,357.760483 L378.27538,357.760483 Z M388.64182,292.172815 L398.808906,292.172815 C405.188253,292.172815 409.972764,290.777332 413.561147,287.787013 C416.950176,284.796694 418.744367,280.610247 418.744367,275.227672 C418.744367,270.044453 417.14953,266.256715 413.959856,264.063814 C410.770183,261.671559 405.586963,260.475431 398.609551,260.475431 L393.82504,260.475431 L388.64182,292.172815 L388.64182,292.172815 Z" id="Shape" fill="#3F494A"></path>
                <path d="M529.984242,263.864459 C520.215866,263.864459 511.842972,267.452843 505.26427,274.430254 C498.685567,281.60702 495.296539,290.378623 495.296539,300.745063 C495.296539,310.11473 497.888149,317.490851 503.270724,323.07278 C508.653298,328.654709 515.63071,331.445674 524.601667,331.445674 C534.370043,331.445674 542.543583,327.857291 549.321639,320.48117 C556.099696,313.105049 559.488725,304.134092 559.488725,293.767652 C559.488725,284.996049 556.69776,278.018637 551.315186,272.436708 C545.533902,266.655424 538.357136,263.864459 529.984242,263.864459 L529.984242,263.864459 Z M522.608121,360.950157 C514.035873,360.950157 506.061688,359.754029 499.084277,357.361774 C492.106865,354.969518 485.727518,351.381135 480.145588,346.795979 C474.364305,341.812114 469.779148,335.432766 466.589475,328.056645 C463.399801,320.680525 461.804964,312.70634 461.804964,304.333446 C461.804964,295.362489 463.200446,286.989595 465.991411,279.01541 C468.782375,271.24058 472.968822,264.063814 478.351397,257.684466 C484.730744,250.108991 492.704929,244.327707 501.875241,240.340615 C511.045554,236.353523 521.212639,234.359977 531.977788,234.359977 C550.119058,234.359977 564.871299,239.543197 576.035158,250.108991 C587.199016,260.475431 592.780945,274.031545 592.780945,290.777332 C592.780945,299.74829 591.385463,308.121184 588.594498,316.095368 C585.803534,324.069553 581.617087,331.046964 576.234512,337.426312 C569.65581,345.201142 561.681626,350.982426 552.710668,355.168873 C543.540356,358.95661 533.37327,360.950157 522.608121,360.950157 L522.608121,360.950157 Z" id="Shape" fill="#3F494A"></path>
                <path d="M42.8612421,432.020077 L45.8515613,432.020077 C56.2180012,432.020077 63.3947673,430.823949 66.9831504,428.631048 C70.5715334,426.438147 72.5650796,422.65041 72.5650796,417.46719 C72.5650796,413.081388 70.9702427,409.69236 67.7805688,407.698814 C64.590895,405.705267 59.6070297,404.708494 52.8289728,404.708494 L47.047689,404.708494 L42.8612421,432.020077 L42.8612421,432.020077 Z M0,499.601291 L19.138043,378.792395 L52.2309089,378.792395 C61.4012212,378.792395 68.3786327,379.191104 72.9637888,379.988522 C77.5489449,380.785941 81.5360372,381.982068 84.9250657,383.77626 C91.1050587,386.965934 95.6902148,391.152381 98.680534,396.73431 C101.670853,402.116884 103.26569,408.695587 103.26569,416.271062 C103.26569,423.846537 101.670853,430.823949 98.2818248,437.203297 C95.092151,443.582644 90.5069949,448.56651 84.9250657,451.955538 C81.5360372,453.949084 77.7482995,455.344566 73.1631434,456.341339 C68.5779873,457.138758 61.6005758,457.537467 52.0315543,457.537467 L47.4463982,457.537467 L38.8741498,457.537467 L32.0960929,499.601291 L0,499.601291 L0,499.601291 Z" id="Shape" fill="#A52B2D"></path>
                <path d="M85.1244203,499.601291 L145.528868,378.792395 L185.997855,378.792395 L211.7146,499.601291 L179.020444,499.601291 L174.235933,476.874865 L131.972755,476.874865 L120.410187,499.601291 L85.1244203,499.601291 L85.1244203,499.601291 Z M143.934031,449.961992 L169.451422,449.961992 L163.869493,421.852991 C163.271429,419.062027 162.87272,416.470417 162.673365,414.277516 C162.474011,412.084615 162.274656,410.091069 162.274656,408.097523 C161.078528,411.486551 160.081755,414.277516 159.084982,416.869126 C158.088209,419.460736 157.290791,421.254927 156.892081,422.451055 L143.934031,449.961992 L143.934031,449.961992 Z" id="Shape" fill="#A52B2D"></path>
                <path d="M236.833282,499.601291 L245.40553,445.775545 L211.515246,378.991749 L247.399076,378.991749 L260.556481,409.891714 C261.353899,411.486551 261.951963,413.280743 262.749382,415.274289 C263.5468,417.267835 264.144864,419.460736 264.942282,421.653637 C266.337765,418.264608 267.533892,415.473644 268.530665,413.679452 C269.527438,411.685906 270.125502,410.489778 270.723566,409.69236 L292.05451,379.191104 L329.134468,379.191104 L277.700978,446.373609 L269.328084,499.800645 L236.833282,499.800645 L236.833282,499.601291 Z" id="Path" fill="#A52B2D" fill-rule="nonzero"></path>
                <path d="M309.597716,499.601291 L346.47832,378.792395 L382.36215,378.792395 L390.535689,425.640729 C390.934398,428.431693 391.532462,431.422013 391.931172,434.611687 C392.329881,437.80136 392.72859,440.991034 393.127299,444.380063 C393.725363,441.987807 394.522782,439.396197 395.519555,436.605233 C396.516328,433.814268 397.91181,430.42524 399.905356,426.238793 L421.435654,378.792395 L457.12013,378.792395 L459.911095,499.601291 L430.207257,499.601291 L429.808548,441.987807 C429.808548,438.798133 429.808548,435.60846 430.007903,432.418786 C430.207257,429.229112 430.207257,426.039438 430.406612,422.849764 C429.210484,426.836857 427.216938,432.020077 424.226619,438.20007 C423.628555,439.396197 423.229846,440.39297 423.030491,440.991034 L395.519555,499.800645 L375.982802,499.800645 L364.619589,441.190389 C364.021526,438.20007 363.423462,435.20975 363.024752,432.219431 C362.626043,429.229112 362.227334,426.238793 361.828625,423.248474 C361.230561,426.836857 360.632497,430.225885 359.835079,433.415559 C359.237015,436.605233 358.439596,439.595552 357.642178,442.386516 L340.89639,500 L309.597716,500 L309.597716,499.601291 Z" id="Path" fill="#A52B2D" fill-rule="nonzero"></path>
                <polygon id="Path" fill="#A52B2D" fill-rule="nonzero" points="510.148458 472.887772 547.427771 472.887772 543.241324 499.601291 473.666563 499.601291 492.605252 378.991749 562.379367 378.991749 557.993565 406.702041 520.514898 406.702041 517.524579 426.637502 552.212281 426.637502 548.025834 452.752956 513.338132 452.752956"></polygon>
                <path d="M565.369686,499.601291 L584.507729,378.792395 L621.388333,378.792395 L646.905723,438.399424 C647.105078,438.798133 647.503787,439.794907 647.902496,440.991034 C650.693461,447.569736 652.687007,453.151666 653.68378,458.135531 L653.68378,455.145212 C653.68378,452.952311 653.883135,450.560056 654.082489,447.769091 C654.281844,445.177481 654.680553,441.788453 655.278617,438.000715 L664.648284,378.792395 L696.943731,378.792395 L677.805688,499.601291 L642.320567,499.601291 L615.208339,438.20007 C613.214793,433.814268 611.819311,430.02653 610.623183,427.235566 C609.62641,424.245247 608.828992,421.454282 608.031573,418.463963 L608.031573,421.852991 C608.031573,424.045892 608.031573,426.438147 607.832219,428.830403 C607.632864,431.222658 607.234155,434.611687 606.835446,438.598779 L597.665133,499.800645 L565.369686,499.800645 L565.369686,499.601291 Z" id="Path" fill="#A52B2D"></path>
                <polygon id="Path" fill="#A52B2D" fill-rule="nonzero" points="720.068867 499.601291 734.621753 406.901395 707.70888 406.901395 712.294037 378.991749 797.418457 378.991749 792.833301 406.901395 767.116556 406.901395 752.364314 499.601291"></polygon>
                <path d="M628.066712,361.149511 C628.066712,361.149511 680.895685,300.745063 625.873811,252.102537 C570.851938,203.460011 555.700987,197.280018 525.59844,169.370372 C495.495894,141.460726 495.894603,123.120102 524.801022,87.8343351 C553.508086,52.3492138 542.144873,32.4137524 521.212639,30.4202062 C500.280404,28.4266601 422.133396,32.4137524 364.918621,44.9730931 C307.703847,57.5324337 204.836866,72.2846752 193.673008,74.8762852 C182.509149,77.4678952 357.343146,26.6324685 373.889579,23.2434401 C390.635367,19.655057 444.660467,6.49765251 465.792056,3.5073333 C486.923645,0.517014082 522.608121,-1.67588667 544.935838,1.71314177 C567.263555,5.30152482 630.060258,30.2208516 570.253874,74.6769306 C510.44749,119.13301 524.801022,150.830393 560.485498,179.537458 C596.369328,208.244522 660.36216,247.118672 665.54538,289.979914 C670.927954,332.641801 628.066712,361.149511 628.066712,361.149511 L628.066712,361.149511 Z" id="Path" fill="#3F494A" fill-rule="nonzero"></path>
            </g>
        </g>
    </g>
</svg>