<?xml version="1.0" encoding="UTF-8"?>
<svg width="980px" height="680px" viewBox="0 0 980 680" version="1.1" xmlns="http://www.w3.org/2000/svg" xmlns:xlink="http://www.w3.org/1999/xlink">
    <title>EU SEPA</title>
    <defs>
        <linearGradient x1="50%" y1="0%" x2="50%" y2="100%" id="linearGradient-1">
            <stop stop-color="#FFFFFF" offset="0%"></stop>
            <stop stop-color="#EDEDED" offset="100%"></stop>
        </linearGradient>
        <rect id="path-2" x="0" y="0" width="900" height="600" rx="80"></rect>
        <filter x="-6.7%" y="-10.0%" width="113.3%" height="120.0%" filterUnits="objectBoundingBox" id="filter-3">
            <feMorphology radius="2.5" operator="dilate" in="SourceAlpha" result="shadowSpreadOuter1"></feMorphology>
            <feOffset dx="0" dy="0" in="shadowSpreadOuter1" result="shadowOffsetOuter1"></feOffset>
            <feGaussianBlur stdDeviation="17.5" in="shadowOffsetOuter1" result="shadowBlurOuter1"></feGaussianBlur>
            <feColorMatrix values="0 0 0 0 0   0 0 0 0 0   0 0 0 0 0  0 0 0 0.5 0" type="matrix" in="shadowBlurOuter1"></feColorMatrix>
        </filter>
    </defs>
    <g id="EU-SEPA" stroke="none" stroke-width="1" fill="none" fill-rule="evenodd">
        <g transform="translate(40, 40)">
            <g id="Rectangle">
                <use fill="black" fill-opacity="1" filter="url(#filter-3)" xlink:href="#path-2"></use>
                <use fill="url(#linearGradient-1)" fill-rule="evenodd" xlink:href="#path-2"></use>
            </g>
            <g id="Logo" transform="translate(50, 191)" fill-rule="nonzero">
                <path d="M177.739962,69.7365212 L123.002299,69.7365212 C123.002299,60.7532365 121.945748,54.7262123 119.843056,51.6554487 C116.584924,47.1169641 107.596434,44.8425172 92.8827923,44.8425172 C78.5907298,44.8425172 69.1182047,46.1488929 64.4964453,48.766849 C59.8746858,51.3952145 57.5586014,57.1047529 57.5586014,65.8954643 C57.5586014,73.8534263 59.6092469,79.0997479 63.7157426,81.6084056 C66.6563892,83.3936122 70.5442882,84.4397538 75.3846444,84.7520348 L86.4237793,85.5327374 C110.084273,87.0993473 124.860371,88.207945 130.752074,88.8377118 C149.462913,90.7218074 163.02632,95.6974854 171.442294,103.759541 C178.062652,110.052004 182.013007,118.275405 183.272541,128.424539 C184.011606,134.498405 184.375934,141.373793 184.375934,149.009065 C184.375934,166.611306 182.694821,179.498104 179.3378,187.664253 C173.243115,202.653744 159.549591,212.121064 138.246819,216.097443 C129.320786,217.778555 115.668899,218.61651 97.3015691,218.61651 C66.6459798,218.61651 45.2859563,216.79487 33.2214986,213.125568 C18.419377,208.633926 8.65538964,199.530933 3.93474117,185.827 C1.30117102,178.196933 0,165.487094 0,147.697484 L54.7376626,147.697484 C54.7376626,149.680469 54.7428673,151.200237 54.7428673,152.246378 C54.7428673,161.739722 57.4701217,167.839612 62.919426,170.561661 C66.6928219,172.435348 71.2469205,173.419033 76.6025404,173.538741 L96.7290538,173.538741 C106.997896,173.538741 113.550593,173.013068 116.376736,171.956517 C121.409666,169.978737 124.71464,166.79347 126.291659,162.385103 C127.129614,159.668258 127.545988,156.160301 127.545988,151.861231 C127.545988,142.237771 124.032827,136.382501 117.016912,134.279809 C114.388547,133.452264 102.188767,132.291619 80.4019598,130.829103 C62.9038119,129.579979 50.7508746,128.377697 43.9483525,127.211848 C26.0286251,123.860031 14.0838751,116.963825 8.12451187,106.497205 C2.88339499,97.6076045 0.265438889,84.1534961 0.265438889,66.1504939 C0.265438889,52.4465606 1.68111296,41.4542678 4.51246111,33.1892295 C7.34380925,24.9189865 11.9083172,18.6421375 18.2059849,14.3482731 C27.4338898,7.75393836 39.243318,3.88685808 53.6134508,2.73141821 C65.5738149,1.68527671 78.8405546,1.15439893 93.4344888,1.15439893 C116.407964,1.15439893 132.781901,2.47638869 142.540683,5.09434479 C166.362522,11.4961062 178.270839,29.4210382 178.270839,58.8795502 C178.270839,61.2945236 178.09388,64.9065744 177.739962,69.7365212" id="path5689" fill="#10298E"></path>
                <path d="M418.449314,218.618591 L418.449314,0.00104093682 L504.206894,0.00104093682 L517.666207,0.00104093682 L528.070371,0.00104093682 C543.106703,0.00104093682 554.577827,1.2241417 562.462923,3.68075259 C580.491949,9.32783483 592.587635,20.8978476 598.786413,38.3751767 C601.982089,47.5510348 603.585132,61.3642664 603.585132,79.8096668 C603.585132,101.986826 601.810335,117.918364 598.297173,127.6251 C591.265645,146.809565 576.796623,157.864314 554.942155,160.72689 C552.371041,161.158879 541.435999,161.538821 522.131826,161.851102 L512.367839,162.173793 L477.288268,162.173793 L477.288268,218.618591 L418.449314,218.618591 Z M477.288268,111.459351 L513.965677,111.459351 C525.598146,111.042976 532.671311,110.14777 535.216402,108.74771 C538.693131,106.837591 541.030034,103.006944 542.190679,97.2661772 C542.934948,93.4459391 543.304481,87.7624241 543.304481,80.2156321 C543.304481,70.9669085 542.565416,64.1123396 541.082081,59.6363112 C538.968979,53.3646669 533.899617,49.5496335 525.873994,48.1599828 C524.281361,47.9517955 520.481941,47.8372924 514.460122,47.8372924 L477.288268,47.8372924 L477.288268,111.459351 Z" id="path5693" fill="#10298E"></path>
                <path d="M729.179864,180.836749 L650.511064,180.836749 L639.94035,218.617551 L579.066365,218.617551 L644.754683,0 L733.510161,0 L800,218.617551 L740.406367,218.617551 L729.179864,180.836749 Z M717.495348,138.246819 L689.926136,43.4799309 L663.17406,138.246819 L717.495348,138.246819 Z" id="path5697" fill="#10298E"></path>
                <path d="M337.239046,30.7565602 C361.503283,30.7565602 383.165179,41.9362216 397.39999,59.4447789 L410.083805,32.2503045 C390.248754,13.5030324 363.252057,1.94342904 333.47606,1.94342904 C287.112734,1.94342904 247.453041,29.9446294 231.177994,69.5835035 L206.445335,69.5835035 L191.840991,100.889678 L223.657225,100.889678 C223.41781,103.793892 223.261669,106.698106 223.261669,109.664776 C223.261669,113.250803 223.449038,116.800398 223.802956,120.30315 L207.814167,120.30315 L193.215028,151.619734 L231.937878,151.619734 C248.676142,190.254104 287.84139,217.375713 333.47606,217.375713 C356.475559,217.375713 377.814763,210.484711 395.484666,198.711716 L395.484666,160.332375 C381.25506,176.534557 360.441528,186.77217 337.239046,186.77217 C310.117437,186.77217 286.259166,172.787184 272.367864,151.619734 L353.446433,151.619734 L368.050776,120.30315 L260.438728,120.30315 C259.881827,116.534959 259.58516,112.683492 259.58516,108.759161 C259.58516,106.104772 259.720481,103.481611 259.980716,100.889678 L377.101722,100.889678 L391.700861,69.5835035 L270.103826,69.5835035 C283.55273,46.3758171 308.576851,30.7565602 337.239046,30.7565602" id="path5701" fill="#FFBE00"></path>
                <path d="M337.239046,31.6944442 C360.363458,31.6944442 382.025353,42.0309468 396.671334,60.0391538 L397.618586,61.205003 L398.258763,59.8465805 L410.937373,32.6521061 L411.218426,32.0327487 L410.73439,31.5643271 C389.884426,11.8593932 362.445331,1.00762684 333.47606,1.00762684 C310.851298,1.00762684 289.085309,7.61757564 270.520201,20.1244315 C252.392286,32.3346204 238.48537,49.3175046 230.314016,69.2254212 L231.177994,68.6424966 L206.445335,68.6424966 L205.841592,68.6424966 L205.591767,69.1837837 L190.992628,100.495163 L190.368066,101.832767 L191.840991,101.832767 L223.657225,101.832767 L222.720382,100.812649 C222.454943,104.065577 222.324826,106.954176 222.324826,109.665817 C222.324826,113.178978 222.50699,116.796234 222.866113,120.397875 L223.802956,119.367348 L207.814167,119.367348 L207.220833,119.367348 L206.971008,119.908635 L192.36146,151.220014 L191.742102,152.557618 L193.215028,152.557618 L231.937878,152.557618 L231.0739,151.990308 C248.530411,192.279767 288.726186,218.313597 333.47606,218.313597 C355.908248,218.313597 377.523301,211.812947 396.005134,199.498664 L396.416304,199.222816 L396.416304,198.712757 L396.416304,160.333416 L396.416304,157.840373 L394.776829,159.714059 C380.198509,176.311796 359.228837,185.825959 337.239046,185.825959 C311.371766,185.825959 287.414605,172.840272 273.148566,151.100307 L272.367864,152.557618 L353.446433,152.557618 L354.050176,152.557618 L354.300001,152.021536 L368.904344,120.699747 L369.528906,119.367348 L368.050776,119.367348 L260.438728,119.367348 L261.370366,120.168869 C260.813465,116.374654 260.527207,112.544007 260.527207,108.760202 C260.527207,106.183883 260.657325,103.571132 260.917559,100.984404 L259.980716,101.832767 L377.101722,101.832767 L377.705465,101.832767 L377.95529,101.29148 L392.554429,69.9801004 L393.184196,68.6424966 L391.700861,68.6424966 L270.103826,68.6424966 L270.915757,70.052966 C284.624895,46.3924721 310.044572,31.6944442 337.239046,31.6944442 M270.103826,70.5213876 L391.700861,70.5213876 L390.847292,69.1837837 L376.253358,100.495163 L377.101722,99.9538761 L259.980716,99.9538761 L259.132352,99.9538761 L259.038668,100.80224 C258.778434,103.446219 258.648316,106.126631 258.648316,108.760202 C258.648316,112.632487 258.939779,116.567228 259.507089,120.444717 L259.632002,121.246239 L260.438728,121.246239 L368.050776,121.246239 L367.202413,119.908635 L352.603274,151.220014 L353.446433,150.678727 L272.367864,150.678727 L270.624295,150.678727 L271.581956,152.125629 C286.191505,174.412087 310.742,187.699645 337.239046,187.699645 C359.764919,187.699645 381.25506,177.956477 396.192503,160.952774 L394.542618,160.333416 L394.542618,198.712757 L394.958993,197.937259 C376.789441,210.038149 355.533511,216.434706 333.47606,216.434706 C289.470456,216.434706 249.956494,190.843274 232.801855,151.240833 L232.55203,150.678727 L231.937878,150.678727 L193.215028,150.678727 L194.073801,152.021536 L208.667735,120.699747 L207.814167,121.246239 L223.802956,121.246239 L224.838689,121.246239 L224.7398,120.210507 C224.385881,116.671321 224.198512,113.116522 224.198512,109.665817 C224.198512,107.011428 224.32863,104.164466 224.594068,100.968789 L224.677343,99.9538761 L223.657225,99.9538761 L191.840991,99.9538761 L192.689355,101.29148 L207.293699,69.9801004 L206.445335,70.5213876 L231.177994,70.5213876 L231.807761,70.5213876 L232.041971,69.9384629 C240.083208,50.3740554 253.750709,33.6878382 271.571547,21.680632 C289.819169,9.39237291 311.23124,2.89172248 333.47606,2.89172248 C361.9665,2.89172248 388.937173,13.5561202 409.438424,32.9331591 L409.230237,31.8505848 L396.556831,59.0502638 L398.13385,58.8524858 C383.118337,40.4018807 360.930768,29.8155533 337.239046,29.8155533 C309.367963,29.8155533 283.339338,44.8727044 269.286691,69.1109182 L268.469555,70.5213876 L270.103826,70.5213876 Z" id="path5705" fill="#10298E"></path>
            </g>
        </g>
    </g>
</svg>