<?xml version="1.0" encoding="UTF-8"?>
<svg width="980px" height="680px" viewBox="0 0 980 680" version="1.1" xmlns="http://www.w3.org/2000/svg" xmlns:xlink="http://www.w3.org/1999/xlink">
    <title>EU SEPA HDE EN alt</title>
    <defs>
        <rect id="path-1" x="0" y="0" width="900" height="600" rx="80"></rect>
        <filter x="-6.7%" y="-10.0%" width="113.3%" height="120.0%" filterUnits="objectBoundingBox" id="filter-2">
            <feMorphology radius="2.5" operator="dilate" in="SourceAlpha" result="shadowSpreadOuter1"></feMorphology>
            <feOffset dx="0" dy="0" in="shadowSpreadOuter1" result="shadowOffsetOuter1"></feOffset>
            <feGaussianBlur stdDeviation="17.5" in="shadowOffsetOuter1" result="shadowBlurOuter1"></feGaussianBlur>
            <feColorMatrix values="0 0 0 0 0   0 0 0 0 0   0 0 0 0 0  0 0 0 0.5 0" type="matrix" in="shadowBlurOuter1"></feColorMatrix>
        </filter>
        <polygon id="path-3" points="2.49561226e-15 0 154.895445 0 154.895445 144.959641 2.49561226e-15 144.959641"></polygon>
    </defs>
    <g id="EU-SEPA-HDE-EN-alt" stroke="none" stroke-width="1" fill="none" fill-rule="evenodd">
        <g transform="translate(40, 40)">
            <g id="Rectangle">
                <use fill="black" fill-opacity="1" filter="url(#filter-2)" xlink:href="#path-1"></use>
                <use fill="#005DA1" fill-rule="evenodd" xlink:href="#path-1"></use>
            </g>
            <path d="M820,0 C864.18278,0 900,35.81722 900,80 L900,520 C900,564.18278 864.18278,600 820,600 L80,600 C35.81722,600 0,564.18278 0,520 L0,80 C0,35.81722 35.81722,0 80,0 L820,0 Z M80,30 C52.3857625,30 30,52.3857625 30,80 L30,520 C30,547.614237 52.3857625,570 80,570 L820,570 C847.614237,570 870,547.614237 870,520 L870,80 C870,52.3857625 847.614237,30 820,30 L80,30 Z" id="Rectangle" fill="#FFFFFF" fill-rule="nonzero"></path>
            <g id="Logo" transform="translate(75, 158)">
                <path d="M391.100069,164.712163 C378.006356,164.712163 365.966322,161.553937 356.17835,156.288354 L359.491115,134.460348 C369.426602,139.727336 379.661334,142.740857 390.796609,142.740857 C403.140103,142.740857 408.560225,138.225493 408.560225,130.397363 C408.560225,112.639367 356.630729,120.162632 356.630729,82.3819318 C356.630729,63.2653921 368.974223,47.7650774 397.569655,47.7650774 C408.560225,47.7650774 420.45134,50.0227595 429.178608,53.6319599 L426.021787,75.0075865 C416.686195,71.9982804 407.357627,70.1929777 398.779278,70.1929777 C384.779402,70.1929777 381.014257,75.0075865 381.014257,81.0304134 C381.014257,98.6394902 432.943753,90.5135208 432.943753,128.742385 C432.943753,151.015746 417.437819,164.712163 391.100069,164.712163" id="Fill-1" fill="#FFFFFF"></path>
                <polygon id="Fill-3" fill="#FFFFFF" points="530.797902 140.483456 530.802116 162.609302 454.042333 162.609302 454.042333 49.7237957 530.797902 49.7237957 530.802116 72.1474813 479.479539 72.1474813 479.479539 94.5767865 521.168684 94.5767865 521.168684 114.74279 479.479539 114.74279 479.479539 140.483456"></polygon>
                <path d="M593.737777,70.9441803 L578.689842,70.9441803 L578.689842,105.56244 L593.737777,105.56244 C606.230191,105.56244 611.651718,102.404214 611.651718,88.2554173 C611.651718,74.7093252 606.83149,70.9441803 593.737777,70.9441803 M593.737777,125.881578 L578.689842,125.881578 L578.689842,162.608599 L553.251231,162.608599 L553.251231,49.7244982 L593.737777,49.7244982 C625.048891,49.7244982 637.839144,62.0623722 637.839144,88.4043372 C637.839144,112.186566 625.197811,125.881578 593.737777,125.881578" id="Fill-5" fill="#FFFFFF"></path>
                <path d="M691.904236,80.7262515 L680.615826,119.41171 L709.364393,119.41171 L698.528362,80.7262515 L695.514841,68.8351372 L695.062462,68.8351372 L691.904236,80.7262515 Z M715.3816,140.632797 L674.444079,140.632797 L668.123412,162.608318 L641.333283,162.608318 L680.312367,49.7242172 L710.568396,49.7242172 L749.99986,162.608318 L721.702267,162.608318 L715.3816,140.632797 Z" id="Fill-7" fill="#FFFFFF"></path>
                <g id="Group-11" transform="translate(11.884, 0)">
                    <mask id="mask-4" fill="white">
                        <use xlink:href="#path-3"></use>
                    </mask>
                    <g id="Clip-10"></g>
                    <path d="M106.392417,138.839155 C106.035571,139.314013 105.490468,139.554252 104.932721,139.672264 C104.304728,139.748129 103.652852,139.606233 103.116179,139.203026 L74.0796063,117.390474 L35.226964,88.2035763 L6.19039151,66.3896194 C5.65371787,65.9864118 5.33480448,65.4005665 5.23365134,64.7753838 C5.1929091,64.2078023 5.27158377,63.6163374 5.62702468,63.1428844 L13.5492829,52.597669 C13.5492829,52.597669 22.2386191,41.3542158 29.8714669,31.1939443 L62.5523624,55.7446557 L97.9545586,82.3395037 L130.635454,106.890215 C123.002606,117.050487 114.31327,128.295345 114.31327,128.295345 L106.392417,138.839155 Z M51.7725279,5.87896464 L80.6419167,27.5735046 L80.637702,27.5791242 L100.150425,42.2322813 L119.657528,56.892463 L119.663148,56.8868433 L148.538156,78.571549 C149.641006,79.3990379 149.872816,80.9598872 149.055161,82.0472835 L142.133195,91.5851822 L109.452299,67.0330658 L74.0501033,40.4396228 L41.3692078,15.8875065 L48.2911738,6.35101266 C49.1074235,5.26361634 50.6710825,5.05147571 51.7725279,5.87896464 L51.7725279,5.87896464 Z M151.836873,74.3484052 L103.367657,37.9487266 L54.9110852,1.53499899 C51.535099,-1.00085418 46.7359441,-0.325094972 44.2057106,3.04246184 L1.54296642,59.8343336 C0.877041542,60.7208286 0.46680934,61.7084766 0.236404952,62.7284375 C-0.502574975,65.6267561 0.506146674,68.8271293 3.04902437,70.7377998 L31.9226279,92.4281251 L70.9424539,121.740059 L99.8160574,143.430384 C102.358935,145.341055 105.713848,145.418324 108.291848,143.902432 C109.207846,143.396666 110.040955,142.727932 110.706879,141.841437 L153.369624,85.049565 C155.899857,81.6820082 155.211454,76.8842583 151.836873,74.3484052 L151.836873,74.3484052 Z" id="Fill-9" fill="#FFFFFF" mask="url(#mask-4)"></path>
                </g>
                <path d="M6.76040192,279.12185 L40.80546,166.073375 L133.0487,166.07197 L125.096938,176.715529 L113.655394,192.526328 L112.353047,194.86409 L111.151853,197.57977 L109.921157,200.636843 L108.637074,203.884983 L107.404972,207.425343 L106.192539,210.902483 L105.044732,214.400696 L103.913784,217.832878 L102.905062,221.089447 L101.969396,224.088919 L101.144716,226.704852 L100.513914,228.889479 L100.032032,230.559911 L99.631634,231.595326 C99.631634,231.595326 99.5557691,231.818705 99.3590824,232.088447 C99.1300829,232.405956 97.7364174,233.685824 96.5970396,232.840071 C95.5040236,232.028036 95.6234406,229.156411 95.7330231,227.793653 C96.0702003,223.609847 96.4087823,219.42604 96.7459595,215.242234 C96.8653764,213.774108 95.0670983,212.943809 93.9066469,213.612544 C88.8194866,216.541771 85.7792726,220.09618 82.9975611,224.15776 C83.2560636,223.205234 83.5145661,222.252709 83.7730685,221.301588 C84.9433542,216.98853 86.6025468,212.526553 87.2319442,208.096888 C87.5930047,205.566654 86.9523681,202.560158 83.9908288,202.068441 C80.6654191,201.516314 78.4892216,205.013122 76.8581271,207.318571 C71.9325309,214.277064 69.0187583,223.106891 62.9074224,229.159221 C60.6047834,231.440786 58.0492616,233.114028 54.7336862,232.172741 C50.9011059,231.085345 49.409097,235.602114 56.1821431,236.213248 C62.8371772,236.813142 67.7936813,229.774569 70.8212512,224.853187 C73.0199272,221.280515 74.940432,217.549087 77.0829119,213.945507 C78.1113022,212.214664 79.1846494,210.504895 80.3661744,208.872395 C80.8691303,208.176967 81.8286803,206.309849 82.7306292,206.062586 C83.913559,205.736648 83.6100996,206.419432 83.5384494,207.348074 C83.3754805,209.451216 82.4875806,211.618984 81.936858,213.644857 C81.3355587,215.863202 80.7342594,218.080141 80.1329602,220.297081 C78.8432576,225.048469 77.5549599,229.799857 76.2652573,234.551245 C75.6808169,236.706369 78.5229393,237.705257 79.7142986,236.006727 C84.4586621,229.246325 86.8189022,223.514313 92.6689258,218.99333 C92.5481039,220.478314 92.428687,221.963298 92.3092701,223.448283 C92.1097736,225.905461 91.6447502,228.501725 91.8119338,230.963118 C92.0858903,234.974122 95.1246994,237.755833 98.9277767,236.001107 C100.925551,235.078085 102.354339,233.680204 102.354339,233.680204 L102.587554,233.522855 L103.389754,232.915936 L104.853665,231.945147 L106.85144,230.57115 L109.071189,228.913362 L111.519938,227.185329 L114.399993,225.158052 L117.319385,223.005738 L120.237373,220.854828 L123.156765,218.702514 L126.011531,216.530531 L128.682255,214.515898 L131.140839,212.508289 L133.295963,210.833642 L135.008542,209.239075 L136.353036,207.956397 L136.400802,207.881937 L136.435925,207.91144 L145.525659,197.165324 L168.778239,166.07197 L210.040293,166.07197 L242.143772,279.12185 L6.76040192,279.12185 Z M172.436611,161.180092 L245.543642,63.4183863 L252.999472,53.5910772 C252.999472,53.5910772 253.145582,53.3803414 253.224257,53.2721638 C253.753906,52.5402084 253.651348,51.5792535 252.920797,51.0510093 L232.227954,36.0536505 C231.508643,35.529621 230.554713,35.7347371 230.023659,36.4582631 C229.947794,36.5636309 229.791849,36.7561029 229.791849,36.7561029 L226.990469,40.3315856 L136.704262,161.180092 L37.2650999,161.181497 L2.66453526e-14,284.013729 L248.784757,284.013729 L213.642469,161.178687 L172.436611,161.180092 Z" id="Fill-12" fill="#FFFFFF"></path>
                <path d="M262.372013,58.2097017 L259.639473,56.1557309 C259.095775,55.7469036 258.316053,55.8578911 257.907226,56.4015892 L223.154096,102.637006 C222.745268,103.180704 222.856256,103.960427 223.399954,104.369254 L226.132494,106.42463 C226.677597,106.832052 227.457319,106.722469 227.866146,106.178771 L262.617872,59.9419493 C263.026699,59.3982512 262.915711,58.618529 262.372013,58.2097017" id="Fill-14" fill="#FFFFFF"></path>
                <polygon id="Fill-16" fill="#FFFFFF" points="122.789382 255.069318 191.923343 255.069318 190.458027 249.590189 122.789382 249.590189 55.1207375 249.590189 53.6554218 255.069318"></polygon>
                <path d="M373.641598,203.999764 L366.756159,203.999764 L366.756159,232.10348 L373.704818,232.10348 C380.902146,232.10348 383.7822,229.788197 383.7822,217.770641 C383.7822,206.629746 381.090403,203.999764 373.641598,203.999764 M373.891671,241.492458 L356.178631,241.492458 L356.178631,194.548969 L373.766634,194.548969 C388.66284,194.548969 394.859875,201.622665 394.859875,217.833862 C394.859875,234.795277 387.787584,241.492458 373.891671,241.492458" id="Fill-18" fill="#FFFFFF"></path>
                <path d="M405.249708,241.492458 L405.249708,203.812912 L415.202053,203.374581 L415.202053,241.492458 L405.249708,241.492458 Z M410.256789,199.494234 C406.501478,199.494234 404.686341,198.429316 404.686341,195.362409 C404.686341,192.672017 406.501478,191.168768 410.256789,191.168768 C414.07532,191.168768 415.76542,192.608796 415.76542,195.362409 C415.76542,198.116023 414.07532,199.494234 410.256789,199.494234 L410.256789,199.494234 Z" id="Fill-20" fill="#FFFFFF"></path>
                <path d="M426.780436,241.492458 L426.780436,203.812912 L434.54113,203.436397 L435.419195,209.758469 L435.606048,209.758469 C437.984552,205.189718 441.676641,202.936251 445.996724,202.936251 C447.685419,202.936251 449.125447,203.186324 450.127144,203.499618 L449.500556,213.075449 C448.312007,212.700339 446.871979,212.450266 445.370136,212.450266 C440.30124,212.450266 436.544524,216.142356 436.544524,222.464428 L436.544524,241.492458 L426.780436,241.492458 Z" id="Fill-22" fill="#FFFFFF"></path>
                <path d="M478.856323,218.64688 C478.731287,213.075028 476.227746,210.948002 472.159142,210.948002 C467.465355,210.948002 465.650218,213.138248 465.211888,218.64688 L478.856323,218.64688 Z M455.385984,222.025676 C455.385984,209.946305 460.704953,202.874014 472.097326,202.874014 C481.798194,202.874014 487.745156,208.506277 487.745156,220.523833 C487.745156,221.96386 487.68334,223.778997 487.495083,225.092583 L465.400145,225.092583 C465.900291,231.414655 468.967198,233.794564 475.477527,233.794564 C479.04458,233.794564 482.361561,233.167976 485.616725,231.916206 L486.681643,239.740121 C483.488294,241.178743 479.106396,242.18044 474.287573,242.18044 C461.206504,242.18044 455.385984,235.295002 455.385984,222.025676 L455.385984,222.025676 Z" id="Fill-24" fill="#FFFFFF"></path>
                <path d="M520.666993,212.826219 C518.726819,212.136411 516.410131,211.636265 514.219884,211.636265 C507.146189,211.636265 504.832311,214.578135 504.832311,222.590307 C504.832311,230.727516 508.147886,233.91946 514.033032,233.91946 C516.535168,233.91946 518.915076,233.417909 520.917066,232.479432 L521.605469,240.051869 C519.352002,241.430081 515.973206,242.243521 511.904601,242.243521 C500.700486,242.243521 494.754928,235.859633 494.754928,222.590307 C494.754928,210.00798 499.950266,202.937094 512.092859,202.937094 C515.283397,202.937094 518.851856,203.625497 521.230359,204.563974 L520.666993,212.826219 Z" id="Fill-26" fill="#FFFFFF"></path>
                <path d="M541.322886,210.823246 L541.322886,230.226386 C541.322886,233.166852 542.82473,234.420027 545.828416,234.420027 C546.830113,234.420027 548.145104,234.23177 548.833508,233.980292 L549.396874,241.053988 C548.081883,241.617355 545.578343,242.117501 542.886546,242.117501 C535.314109,242.117501 531.620614,237.737007 531.620614,230.53968 L531.620614,210.823246 L527.365157,210.823246 L527.365157,203.562698 L532.058944,203.562698 L533.685824,194.987159 L541.322886,194.298756 L541.322886,203.562698 L549.771984,203.562698 L549.771984,210.823246 L541.322886,210.823246 Z" id="Fill-28" fill="#FFFFFF"></path>
                <path d="M595.150971,203.999764 L588.265533,203.999764 L588.265533,232.10348 L595.214192,232.10348 C602.411519,232.10348 605.291574,229.788197 605.291574,217.770641 C605.291574,206.629746 602.599776,203.999764 595.150971,203.999764 M595.401044,241.492458 L577.688004,241.492458 L577.688004,194.548969 L595.276008,194.548969 C610.172213,194.548969 616.369248,201.622665 616.369248,217.833862 C616.369248,234.795277 609.296958,241.492458 595.401044,241.492458" id="Fill-30" fill="#FFFFFF"></path>
                <path d="M647.413711,218.64688 C647.288674,213.075028 644.785134,210.948002 640.71653,210.948002 C636.022743,210.948002 634.207606,213.138248 633.769275,218.64688 L647.413711,218.64688 Z M623.943371,222.025676 C623.943371,209.946305 629.262341,202.874014 640.654714,202.874014 C650.355581,202.874014 656.302543,208.506277 656.302543,220.523833 C656.302543,221.96386 656.240728,223.778997 656.05247,225.092583 L633.957533,225.092583 C634.457679,231.414655 637.524586,233.794564 644.034915,233.794564 C647.601968,233.794564 650.918948,233.167976 654.174113,231.916206 L655.239031,239.740121 C652.045682,241.178743 647.663784,242.18044 642.84496,242.18044 C629.763892,242.18044 623.943371,235.295002 623.943371,222.025676 L623.943371,222.025676 Z" id="Fill-32" fill="#FFFFFF"></path>
                <path d="M681.589846,211.386051 C678.771607,211.386051 676.394509,212.576005 675.017702,214.577995 L675.017702,231.164301 C676.206251,232.980843 678.397903,234.419465 681.653067,234.419465 C686.03356,234.419465 688.662137,232.416071 688.662137,222.590167 C688.662137,213.137967 686.221818,211.386051 681.589846,211.386051 M683.216726,242.24338 C678.959865,242.24338 675.456032,240.679721 673.139344,238.363033 L671.887574,241.493161 L665.315429,241.493161 L665.315429,192.734535 L675.017702,192.296205 L675.017702,201.120412 L674.89126,206.127492 L675.079518,206.253934 C677.646279,203.937246 680.963259,202.873733 684.406681,202.873733 C693.169072,202.873733 698.676299,208.507401 698.676299,222.40191 C698.676299,236.297823 692.917594,242.24338 683.216726,242.24338" id="Fill-34" fill="#FFFFFF"></path>
                <path d="M708.565424,241.492458 L708.565424,203.812912 L718.517769,203.374581 L718.517769,241.492458 L708.565424,241.492458 Z M713.572504,199.494234 C709.817194,199.494234 708.002057,198.429316 708.002057,195.362409 C708.002057,192.672017 709.817194,191.168768 713.572504,191.168768 C717.391036,191.168768 719.081136,192.608796 719.081136,195.362409 C719.081136,198.116023 717.391036,199.494234 713.572504,199.494234 L713.572504,199.494234 Z" id="Fill-36" fill="#FFFFFF"></path>
                <path d="M741.550903,210.823246 L741.550903,230.226386 C741.550903,233.166852 743.052746,234.420027 746.056432,234.420027 C747.058129,234.420027 748.37312,234.23177 749.061524,233.980292 L749.62489,241.053988 C748.3099,241.617355 745.806359,242.117501 743.114562,242.117501 C735.542125,242.117501 731.84863,237.737007 731.84863,230.53968 L731.84863,210.823246 L727.593173,210.823246 L727.593173,203.562698 L732.28696,203.562698 L733.91384,194.987159 L741.550903,194.298756 L741.550903,203.562698 L750,203.562698 L750,210.823246 L741.550903,210.823246 Z" id="Fill-38" fill="#FFFFFF"></path>
            </g>
        </g>
    </g>
</svg>