<?xml version="1.0" encoding="UTF-8"?>
<svg width="980px" height="680px" viewBox="0 0 980 680" version="1.1" xmlns="http://www.w3.org/2000/svg" xmlns:xlink="http://www.w3.org/1999/xlink">
    <title>EU SEPA text</title>
    <defs>
        <linearGradient x1="50%" y1="0%" x2="50%" y2="100%" id="linearGradient-1">
            <stop stop-color="#FFFFFF" offset="0%"></stop>
            <stop stop-color="#EDEDED" offset="100%"></stop>
        </linearGradient>
        <rect id="path-2" x="0" y="0" width="900" height="600" rx="80"></rect>
        <filter x="-6.7%" y="-10.0%" width="113.3%" height="120.0%" filterUnits="objectBoundingBox" id="filter-3">
            <feMorphology radius="2.5" operator="dilate" in="SourceAlpha" result="shadowSpreadOuter1"></feMorphology>
            <feOffset dx="0" dy="0" in="shadowSpreadOuter1" result="shadowOffsetOuter1"></feOffset>
            <feGaussianBlur stdDeviation="17.5" in="shadowOffsetOuter1" result="shadowBlurOuter1"></feGaussianBlur>
            <feColorMatrix values="0 0 0 0 0   0 0 0 0 0   0 0 0 0 0  0 0 0 0.5 0" type="matrix" in="shadowBlurOuter1"></feColorMatrix>
        </filter>
    </defs>
    <g id="EU-SEPA-text" stroke="none" stroke-width="1" fill="none" fill-rule="evenodd">
        <g transform="translate(40, 40)">
            <g id="Rectangle">
                <use fill="black" fill-opacity="1" filter="url(#filter-3)" xlink:href="#path-2"></use>
                <use fill="url(#linearGradient-1)" fill-rule="evenodd" xlink:href="#path-2"></use>
            </g>
            <g id="Logo" transform="translate(50, 156)" fill-rule="nonzero">
                <path d="M0.2487839,262.062589 L8.45657071,261.266273 C8.94581102,264.01955 9.95031504,266.038968 11.4596734,267.334934 C12.9690318,268.625696 15.009268,269.271077 17.5699726,269.271077 C20.2868176,269.271077 22.3322585,268.693357 23.7114998,267.548326 C25.0855364,266.398091 25.7777594,265.055283 25.7777594,263.514696 C25.7777594,262.531011 25.4862971,261.687852 24.9085771,260.990424 C24.3256525,260.303406 23.3159438,259.699663 21.8742463,259.184399 C20.8853563,258.84089 18.6369328,258.231942 15.1185663,257.36276 C10.6009006,256.238548 7.42604326,254.864511 5.60440383,253.23024 C3.03849457,250.934975 1.75814229,248.12965 1.75814229,244.824676 C1.75814229,242.701164 2.36188564,240.70777 3.56937235,238.860108 C4.77165437,237.002035 6.51001886,235.596771 8.78446581,234.623495 C11.0485034,233.655423 13.7913719,233.171388 17.002662,233.171388 C22.2437789,233.171388 26.1889294,234.321623 28.8381136,236.622093 C31.4872978,238.917359 32.8821531,241.988123 33.0122703,245.823975 L24.580682,246.193507 C24.2163541,244.043973 23.4460609,242.503386 22.2593929,241.561339 C21.0727249,240.624495 19.2875183,240.150869 16.9141824,240.150869 C14.4679808,240.150869 12.5474524,240.655724 11.1630064,241.665432 C10.2678008,242.305608 9.82019794,243.174791 9.82019794,244.257365 C9.82019794,245.24105 10.2365727,246.089414 11.0745268,246.792046 C12.1362824,247.687252 14.7230104,248.613686 18.8243014,249.581757 C22.9255925,250.549828 25.9599233,251.554332 27.9272939,252.590064 C29.8946645,253.625796 31.4300463,255.04147 32.5438487,256.831882 C33.6524464,258.632702 34.2093476,260.849898 34.2093476,263.488673 C34.2093476,265.882827 33.543148,268.120842 32.2159536,270.213125 C30.8835545,272.300203 29.0046635,273.851199 26.574076,274.871317 C24.1434886,275.88623 21.1143624,276.396289 17.4866976,276.396289 C12.2039433,276.396289 8.14949435,275.173188 5.3181462,272.732192 C2.48679806,270.291195 0.800480413,266.736396 0.2487839,262.062589" id="path5605" fill="#10298E"></path>
                <path d="M42.9979771,233.886012 L51.0027813,233.886012 L51.0027813,241.292277 L42.9979771,241.292277 L42.9979771,233.886012 Z M42.9979771,245.393568 L51.0027813,245.393568 L51.0027813,275.653602 L42.9979771,275.653602 L42.9979771,245.393568 Z" id="path5607" fill="#10298E"></path>
                <path d="M88.4817114,275.65306 L80.4769073,275.65306 L80.4769073,260.210763 C80.4769073,256.942221 80.3051527,254.829119 79.9616436,253.871457 C79.6233391,252.913796 79.0664379,252.164321 78.2961447,251.633443 C77.5258514,251.102565 76.5994176,250.837127 75.5168433,250.837127 C74.1323974,250.837127 72.8884779,251.217069 71.7850849,251.976952 C70.6816918,252.736836 69.9270126,253.74134 69.5210473,254.995669 C69.1098772,256.249998 68.9068946,258.566082 68.9068946,261.949127 L68.9068946,275.65306 L60.9020904,275.65306 L60.9020904,245.393027 L68.339584,245.393027 L68.339584,249.837827 C70.9783588,246.41835 74.304152,244.711213 78.3117587,244.711213 C80.0761466,244.711213 81.6895987,245.028699 83.1521149,245.663671 C84.6146311,246.303847 85.7232288,247.115777 86.4727034,248.099463 C87.2221779,249.088353 87.7426463,250.212565 88.0393133,251.461689 C88.3359803,252.716018 88.4817114,254.511634 88.4817114,256.848537 L88.4817114,275.65306 Z" id="path5611" fill="#10298E"></path>
                <path d="M97.6122679,277.647495 L106.756898,278.761298 C106.907834,279.823053 107.261752,280.551709 107.813449,280.95247 C108.573333,281.524985 109.765205,281.806038 111.404681,281.806038 C113.491759,281.806038 115.058369,281.493757 116.10451,280.869195 C116.807143,280.447615 117.338021,279.776211 117.697144,278.844573 C117.941764,278.178373 118.066676,276.955272 118.066676,275.170066 L118.066676,270.751289 C115.677726,274.01983 112.653805,275.654101 109.010526,275.654101 C104.945668,275.654101 101.723968,273.931351 99.3506324,270.496259 C97.4873555,267.779414 96.555717,264.401574 96.555717,260.35233 C96.555717,255.282968 97.7788178,251.405478 100.219815,248.73027 C102.660811,246.049858 105.695142,244.712254 109.322807,244.712254 C113.064975,244.712254 116.151353,246.35173 118.58194,249.64109 L118.58194,245.394068 L126.076685,245.394068 L126.076685,272.546905 C126.076685,276.117318 125.780018,278.787321 125.191889,280.551709 C124.60376,282.321302 123.776215,283.705748 122.714459,284.715456 C121.647499,285.71996 120.22662,286.505868 118.451823,287.078383 C116.677026,287.645693 114.428602,287.931951 111.716962,287.931951 C106.585143,287.931951 102.947069,287.052359 100.802739,285.298381 C98.6584094,283.539198 97.5862445,281.311593 97.5862445,278.615567 L97.6122679,277.647495 Z M104.763504,259.899523 C104.763504,263.105608 105.382861,265.458125 106.631985,266.951869 C107.8707,268.440409 109.406082,269.184679 111.232926,269.184679 C113.184683,269.184679 114.839772,268.41959 116.187785,266.894618 C117.535799,265.364441 118.212408,263.100403 118.212408,260.097301 C118.212408,256.964081 117.567027,254.637587 116.276265,253.117819 C114.980299,251.598051 113.346028,250.838168 111.373453,250.838168 C109.452924,250.838168 107.8707,251.582437 106.631985,253.070977 C105.382861,254.564721 104.763504,256.839168 104.763504,259.899523" id="path5615" fill="#10298E"></path>
                <polygon id="path5617" fill="#10298E" points="135.745448 233.886012 143.750252 233.886012 143.750252 275.653602 135.745448 275.653602"></polygon>
                <path d="M171.229943,266.022854 L179.208724,267.360458 C178.183401,270.28549 176.559539,272.513095 174.347549,274.043272 C172.135558,275.573449 169.366666,276.338538 166.046077,276.338538 C160.784142,276.338538 156.891038,274.615788 154.361562,271.180696 C152.368168,268.427418 151.374073,264.950689 151.374073,260.750509 C151.374073,255.738398 152.680449,251.808862 155.30361,248.967104 C157.92677,246.130552 161.236949,244.709673 165.244556,244.709673 C169.746608,244.709673 173.301407,246.198212 175.903749,249.170087 C178.506091,252.141962 179.750011,256.69606 179.635508,262.832383 L159.576655,262.832383 C159.633907,265.205719 160.279288,267.053382 161.512798,268.375371 C162.746308,269.692156 164.286894,270.353151 166.129352,270.353151 C167.383681,270.353151 168.440232,270.009642 169.2938,269.327829 C170.147369,268.646015 170.792749,267.542622 171.229943,266.022854 M171.687955,257.92957 C171.630704,255.613486 171.032165,253.849098 169.892339,252.646816 C168.752513,251.439329 167.362863,250.835586 165.728592,250.835586 C163.985023,250.835586 162.53812,251.475762 161.398295,252.745705 C160.258469,254.015648 159.701568,255.748808 159.717182,257.92957 L171.687955,257.92957 Z" id="path5621" fill="#10298E"></path>
                <polygon id="path5625" fill="#10298E" points="205.929572 275.65306 205.929572 233.885471 236.897442 233.885471 236.897442 240.948227 214.36116 240.948227 214.36116 250.212565 235.330832 250.212565 235.330832 257.249297 214.36116 257.249297 214.36116 268.616327 237.698963 268.616327 237.698963 275.65306"></polygon>
                <path d="M266.456384,275.65306 L266.456384,271.124985 C265.352991,272.738437 263.906088,274.00838 262.110472,274.940019 C260.314856,275.871657 258.420351,276.334874 256.426957,276.334874 C254.391926,276.334874 252.570286,275.892476 250.956834,274.99727 C249.343382,274.102064 248.172328,272.85294 247.454082,271.234284 C246.730631,269.620831 246.371508,267.388022 246.371508,264.54106 L246.371508,245.393027 L254.376312,245.393027 L254.376312,259.299943 C254.376312,263.55217 254.522043,266.159717 254.81871,267.122583 C255.110172,268.080245 255.646255,268.840129 256.426957,269.402235 C257.20766,269.959136 258.19655,270.240189 259.388423,270.240189 C260.757254,270.240189 261.98556,269.865452 263.068134,269.115977 C264.150708,268.366503 264.889774,267.429659 265.290534,266.321062 C265.68609,265.207259 265.889073,262.490414 265.889073,258.160117 L265.889073,245.393027 L273.893877,245.393027 L273.893877,275.65306 L266.456384,275.65306 Z" id="path5629" fill="#10298E"></path>
                <path d="M291.598672,275.65306 L283.593868,275.65306 L283.593868,245.393027 L291.031361,245.393027 L291.031361,249.697301 C292.301304,247.662269 293.446335,246.324665 294.461248,245.679285 C295.476161,245.033904 296.631601,244.711213 297.922363,244.711213 C299.749207,244.711213 301.503186,245.216068 303.194708,246.220572 L300.717278,253.200053 C299.36406,252.330871 298.114936,251.893677 296.954292,251.893677 C295.835285,251.893677 294.882827,252.200754 294.10733,252.820111 C293.326627,253.434264 292.712474,254.553271 292.270076,256.166723 C291.822473,257.780175 291.598672,261.16322 291.598672,266.305448 L291.598672,275.65306 Z" id="path5633" fill="#10298E"></path>
                <path d="M306.54132,260.096801 C306.54132,257.437207 307.19711,254.866093 308.50869,252.378254 C309.820271,249.885211 311.673138,247.985501 314.077702,246.679125 C316.477062,245.367545 319.162679,244.711755 322.124144,244.711755 C326.704266,244.711755 330.456843,246.200294 333.381876,249.172169 C336.301703,252.144044 337.769424,255.896621 337.769424,260.44031 C337.769424,265.015227 336.291294,268.809442 333.335034,271.817749 C330.383978,274.831262 326.667833,276.335415 322.181396,276.335415 C319.407299,276.335415 316.763319,275.710853 314.249457,274.456524 C311.73039,273.202195 309.820271,271.364942 308.50869,268.944764 C307.19711,266.519381 306.54132,263.57353 306.54132,260.096801 M314.749107,260.523585 C314.749107,263.526688 315.456944,265.821953 316.883027,267.419791 C318.309111,269.012425 320.063089,269.813946 322.155372,269.813946 C324.24245,269.813946 325.996429,269.012425 327.412103,267.419791 C328.822572,265.821953 329.535614,263.505869 329.535614,260.466333 C329.535614,257.504868 328.822572,255.225217 327.412103,253.627379 C325.996429,252.034745 324.24245,251.238429 322.155372,251.238429 C320.063089,251.238429 318.309111,252.034745 316.883027,253.627379 C315.456944,255.225217 314.749107,257.520482 314.749107,260.523585" id="path5637" fill="#10298E"></path>
                <path d="M363.804295,275.65306 L363.804295,233.885471 L377.336474,233.885471 C382.468292,233.885471 385.809699,234.093658 387.3659,234.510033 C389.760055,235.139799 391.763858,236.503427 393.37731,238.600914 C394.990762,240.698402 395.797488,243.410042 395.797488,246.735836 C395.797488,249.29654 395.334271,251.451279 394.402633,253.200053 C393.470994,254.948827 392.289531,256.322864 390.858243,257.322163 C389.42175,258.316258 387.964439,258.977253 386.481104,259.299943 C384.472096,259.695499 381.552268,259.898482 377.737234,259.898482 L372.235883,259.898482 L372.235883,275.65306 L363.804295,275.65306 Z M372.235883,240.948227 L372.235883,252.804497 L376.852438,252.804497 C380.178231,252.804497 382.400631,252.5859 383.519638,252.148707 C384.638646,251.711514 385.518237,251.024495 386.153209,250.098061 C386.793385,249.166423 387.11087,248.083849 387.11087,246.850339 C387.11087,245.330571 386.663268,244.076242 385.773267,243.087352 C384.878061,242.098462 383.748645,241.479105 382.379813,241.234484 C381.375309,241.047116 379.350687,240.948227 376.311151,240.948227 L372.235883,240.948227 Z" id="path5641" fill="#10298E"></path>
                <path d="M410.399209,254.626678 L403.138674,253.315098 C403.950605,250.390065 405.361074,248.224916 407.354468,246.819652 C409.347862,245.414387 412.309328,244.711755 416.244069,244.711755 C419.809277,244.711755 422.468871,245.133334 424.217645,245.981698 C425.966419,246.824856 427.194724,247.897021 427.907766,249.198192 C428.620808,250.499363 428.974726,252.888313 428.974726,256.365042 L428.891451,265.70745 C428.891451,268.372249 429.021568,270.32921 429.276598,271.593948 C429.531627,272.853482 430.010458,274.211904 430.718295,275.653602 L422.796766,275.653602 C422.583374,275.122724 422.328345,274.331612 422.021268,273.290675 C421.891151,272.817049 421.797467,272.499563 421.740215,272.348627 C420.371383,273.675822 418.908867,274.675121 417.352667,275.341321 C415.796466,276.00752 414.136172,276.335415 412.366579,276.335415 C409.248973,276.335415 406.797567,275.492256 405.001951,273.800734 C403.206335,272.109212 402.31113,269.975291 402.31113,267.388563 C402.31113,265.681427 402.717095,264.156454 403.53423,262.818851 C404.346161,261.481247 405.491192,260.455924 406.969322,259.737678 C408.437043,259.029841 410.560554,258.405279 413.33465,257.874401 C417.076818,257.171768 419.668751,256.515978 421.110448,255.90703 L421.110448,255.110714 C421.110448,253.570127 420.735711,252.477143 419.970623,251.821353 C419.210739,251.165563 417.779451,250.837668 415.671554,250.837668 C414.24547,250.837668 413.131668,251.118721 412.335351,251.680827 C411.539034,252.237728 410.893654,253.221413 410.399209,254.626678 M421.110448,261.122124 C420.085126,261.465633 418.466469,261.871598 416.244069,262.350429 C414.021669,262.824055 412.564357,263.287272 411.882544,263.745284 C410.836402,264.48435 410.315934,265.426397 410.315934,266.566223 C410.315934,267.68523 410.732308,268.653302 411.570263,269.470437 C412.403012,270.287572 413.464768,270.693538 414.760734,270.693538 C416.202431,270.693538 417.576468,270.219911 418.888048,269.272659 C419.85612,268.549208 420.496296,267.664412 420.803372,266.623475 C421.006355,265.936456 421.110448,264.635285 421.110448,262.719962 L421.110448,261.122124 Z" id="path5645" fill="#10298E"></path>
                <path d="M434.828955,245.39565 L443.349023,245.39565 L450.588738,266.880586 L457.651495,245.39565 L465.942556,245.39565 L455.25734,274.515858 L453.347221,279.782998 C452.644588,281.552591 451.973184,282.900604 451.343417,283.832242 C450.703241,284.758676 449.974586,285.51856 449.147041,286.09628 C448.319496,286.674 447.304583,287.126807 446.097096,287.449498 C444.889609,287.772188 443.531187,287.933533 442.006214,287.933533 C440.470832,287.933533 438.961474,287.772188 437.483344,287.449498 L436.765097,281.183058 C438.019426,281.427678 439.148843,281.552591 440.158551,281.552591 C442.016624,281.552591 443.395865,281.006099 444.285866,279.913115 C445.181071,278.820131 445.862885,277.430481 446.341716,275.738958 L434.828955,245.39565 Z" id="path5649" fill="#10298E"></path>
                <path d="M472.222528,245.39565 L479.60277,245.39565 L479.60277,249.528169 C482.241545,246.316879 485.385174,244.713837 489.033658,244.713837 C490.9698,244.713837 492.650913,245.109393 494.076997,245.905709 C495.497875,246.707231 496.668929,247.914717 497.579749,249.528169 C498.906943,247.914717 500.343436,246.707231 501.884023,245.905709 C503.419405,245.109393 505.064085,244.713837 506.812859,244.713837 C509.035259,244.713837 510.91415,245.161439 512.449531,246.06185 C513.990118,246.967465 515.140353,248.289455 515.900237,250.038228 C516.446729,251.334195 516.727782,253.421273 516.727782,256.309873 L516.727782,275.655683 L508.717773,275.655683 L508.717773,258.360518 C508.717773,255.357416 508.447129,253.421273 507.895433,252.546886 C507.151163,251.40706 506.011337,250.83975 504.475955,250.83975 C503.351744,250.83975 502.300398,251.178054 501.311508,251.865073 C500.322618,252.546886 499.614781,253.55139 499.177587,254.868175 C498.735189,256.190165 498.521797,258.272039 498.521797,261.124206 L498.521797,275.655683 L490.511788,275.655683 L490.511788,259.07356 C490.511788,256.127709 490.371262,254.227999 490.085004,253.374431 C489.803951,252.520863 489.361553,251.880687 488.763014,251.464312 C488.164476,251.047937 487.352545,250.83975 486.327222,250.83975 C485.088507,250.83975 483.97991,251.167645 482.99102,251.833844 C482.007334,252.500044 481.294293,253.457706 480.872713,254.712035 C480.440724,255.966364 480.227332,258.048237 480.227332,260.952451 L480.227332,275.655683 L472.222528,275.655683 L472.222528,245.39565 Z" id="path5653" fill="#10298E"></path>
                <path d="M543.976385,266.022854 L551.955166,267.360458 C550.929843,270.28549 549.305981,272.513095 547.093991,274.043272 C544.882,275.573449 542.113108,276.338538 538.79252,276.338538 C533.525379,276.338538 529.63748,274.615788 527.108004,271.180696 C525.11461,268.427418 524.11531,264.950689 524.11531,260.750509 C524.11531,255.738398 525.426891,251.808862 528.050052,248.967104 C530.673212,246.130552 533.983391,244.709673 537.990998,244.709673 C542.49305,244.709673 546.047849,246.198212 548.650191,249.170087 C551.247329,252.141962 552.496453,256.69606 552.38195,262.832383 L532.323097,262.832383 C532.380349,265.205719 533.02573,267.053382 534.25924,268.375371 C535.497955,269.692156 537.033336,270.353151 538.875794,270.353151 C540.130123,270.353151 541.186674,270.009642 542.040242,269.327829 C542.893811,268.646015 543.539191,267.542622 543.976385,266.022854 M544.434397,257.92957 C544.377146,255.613486 543.778607,253.849098 542.638781,252.646816 C541.498955,251.439329 540.109305,250.835586 538.475034,250.835586 C536.731465,250.835586 535.284562,251.475762 534.144737,252.745705 C533.004911,254.015648 532.442805,255.748808 532.463624,257.92957 L544.434397,257.92957 Z" id="path5657" fill="#10298E"></path>
                <path d="M588.179267,275.65306 L580.174463,275.65306 L580.174463,260.210763 C580.174463,256.942221 580.002709,254.829119 579.659199,253.871457 C579.31569,252.913796 578.763994,252.164321 577.9937,251.633443 C577.223407,251.102565 576.296973,250.837127 575.214399,250.837127 C573.829953,250.837127 572.586034,251.217069 571.482641,251.976952 C570.379248,252.736836 569.624568,253.74134 569.218603,254.995669 C568.812638,256.249998 568.60445,258.566082 568.60445,261.949127 L568.60445,275.65306 L560.599646,275.65306 L560.599646,245.393027 L568.03714,245.393027 L568.03714,249.837827 C570.675915,246.41835 574.001708,244.711213 578.009315,244.711213 C579.773702,244.711213 581.387154,245.028699 582.849671,245.663671 C584.312187,246.303847 585.41558,247.115777 586.170259,248.099463 C586.919734,249.088353 587.445407,250.212565 587.736869,251.461689 C588.033536,252.716018 588.179267,254.511634 588.179267,256.848537 L588.179267,275.65306 Z" id="path5661" fill="#10298E"></path>
                <path d="M611.925118,245.39565 L611.925118,251.776593 L606.454995,251.776593 L606.454995,263.971168 C606.454995,266.438188 606.507042,267.879885 606.611135,268.285851 L607.324177,269.300764 C607.69371,269.566203 608.141313,269.69632 608.677395,269.69632 C609.41646,269.69632 610.488625,269.441291 611.89389,268.931232 L612.575703,275.14042 C610.717631,275.936736 608.609734,276.337497 606.252012,276.337497 C604.810315,276.337497 603.509144,276.092877 602.353704,275.614046 C601.193059,275.124806 600.344696,274.500244 599.803409,273.72995 C599.262122,272.959657 598.88218,271.91872 598.673992,270.612345 C598.502238,269.680706 598.418963,267.801815 598.418963,264.970467 L598.418963,251.776593 L594.744456,251.776593 L594.744456,245.39565 L598.418963,245.39565 L598.418963,239.38424 L606.454995,234.710434 L606.454995,245.39565 L611.925118,245.39565 Z" id="path5665" fill="#10298E"></path>
                <path d="M616.411556,267.020072 L624.447588,265.796971 C624.785892,267.353171 625.478115,268.534635 626.524257,269.341361 C627.570398,270.148087 629.032915,270.554052 630.911805,270.554052 C632.98327,270.554052 634.53947,270.17411 635.585612,269.414226 C636.288244,268.883349 636.642163,268.170307 636.642163,267.275101 C636.642163,266.666153 636.449589,266.166503 636.069647,265.765743 C635.674091,265.385801 634.773681,265.037087 633.39444,264.714397 C626.930222,263.288313 622.83934,261.987142 621.111385,260.810884 C618.717231,259.176613 617.520153,256.90737 617.520153,253.997952 C617.520153,251.379996 618.555885,249.17321 620.62735,247.388003 C622.693609,245.602797 625.904899,244.712796 630.26122,244.712796 C634.398944,244.712796 637.474912,245.3842 639.489125,246.732213 C641.498133,248.085431 642.887784,250.078825 643.647667,252.7176 L636.095671,254.112455 C635.77298,252.936197 635.164032,252.035786 634.258417,251.406019 C633.358007,250.781457 632.07245,250.469176 630.396542,250.469176 C628.288645,250.469176 626.784491,250.760639 625.868467,251.348768 C625.259519,251.765143 624.957647,252.30643 624.957647,252.972629 C624.957647,253.545145 625.223086,254.02918 625.759168,254.424736 C626.477415,254.955614 628.970458,255.710293 633.233095,256.678364 C637.495731,257.646436 640.47281,258.833104 642.169537,260.238368 C643.835036,261.664452 644.67299,263.647436 644.67299,266.192527 C644.67299,268.966624 643.51755,271.350369 641.201466,273.343763 C638.880177,275.337157 635.45029,276.336456 630.911805,276.336456 C626.789696,276.336456 623.531563,275.498502 621.126999,273.827798 C618.722435,272.157095 617.150621,269.887853 616.411556,267.020072" id="path5669" fill="#10298E"></path>
                <path d="M706.951199,275.65306 L697.775341,275.65306 L694.132062,266.164921 L677.435436,266.164921 L673.98473,275.65306 L665.043083,275.65306 L681.307721,233.885471 L690.228549,233.885471 L706.951199,275.65306 Z M691.425626,259.128188 L685.669246,243.628639 L680.027368,259.128188 L691.425626,259.128188 Z" id="path5673" fill="#10298E"></path>
                <path d="M720.782626,275.65306 L712.777822,275.65306 L712.777822,245.393027 L720.215316,245.393027 L720.215316,249.697301 C721.485259,247.662269 722.630289,246.324665 723.645203,245.679285 C724.660116,245.033904 725.815556,244.711213 727.106317,244.711213 C728.933162,244.711213 730.68714,245.216068 732.378662,246.220572 L729.901233,253.200053 C728.548015,252.330871 727.298891,251.893677 726.138246,251.893677 C725.019239,251.893677 724.066782,252.200754 723.291284,252.820111 C722.510581,253.434264 721.896429,254.553271 721.448826,256.166723 C721.006428,257.780175 720.782626,261.16322 720.782626,266.305448 L720.782626,275.65306 Z" id="path5677" fill="#10298E"></path>
                <path d="M755.09919,266.022854 L763.077971,267.360458 C762.052648,270.28549 760.433992,272.513095 758.222001,274.043272 C756.004805,275.573449 753.235913,276.338538 749.915325,276.338538 C744.653389,276.338538 740.760286,274.615788 738.230809,271.180696 C736.237415,268.427418 735.238116,264.950689 735.238116,260.750509 C735.238116,255.738398 736.549696,251.808862 739.172857,248.967104 C741.790813,246.130552 745.111402,244.709673 749.113804,244.709673 C753.615855,244.709673 757.170655,246.198212 759.772997,249.170087 C762.375339,252.141962 763.619258,256.69606 763.504755,262.832383 L743.445903,262.832383 C743.503154,265.205719 744.148535,267.053382 745.382045,268.375371 C746.615555,269.692156 748.156142,270.353151 749.9986,270.353151 C751.252929,270.353151 752.30948,270.009642 753.163048,269.327829 C754.016616,268.646015 754.661997,267.542622 755.09919,266.022854 M755.557203,257.92957 C755.499951,255.613486 754.901412,253.849098 753.761587,252.646816 C752.621761,251.439329 751.23211,250.835586 749.597839,250.835586 C747.85427,250.835586 746.407368,251.475762 745.267542,252.745705 C744.127716,254.015648 743.570815,255.748808 743.586429,257.92957 L755.557203,257.92957 Z" id="path5681" fill="#10298E"></path>
                <path d="M777.759885,254.626678 L770.499351,253.315098 C771.311282,250.390065 772.721751,248.224916 774.715145,246.819652 C776.708539,245.414387 779.670004,244.711755 783.604745,244.711755 C787.169954,244.711755 789.829548,245.133334 791.583526,245.981698 C793.327095,246.824856 794.555401,247.897021 795.268443,249.198192 C795.981484,250.499363 796.335403,252.888313 796.335403,256.365042 L796.252128,265.70745 C796.252128,268.372249 796.382245,270.32921 796.637274,271.593948 C796.892304,272.853482 797.371135,274.211904 798.078972,275.653602 L790.157443,275.653602 C789.944051,275.122724 789.689021,274.331612 789.387149,273.290675 C789.251828,272.817049 789.158143,272.499563 789.100892,272.348627 C787.73206,273.675822 786.269544,274.675121 784.713343,275.341321 C783.157143,276.00752 781.496848,276.335415 779.727256,276.335415 C776.60965,276.335415 774.158244,275.492256 772.362628,273.800734 C770.567012,272.109212 769.666601,269.975291 769.666601,267.388563 C769.666601,265.681427 770.077772,264.156454 770.894907,262.818851 C771.712042,261.481247 772.851868,260.455924 774.329998,259.737678 C775.797719,259.029841 777.92123,258.405279 780.695327,257.874401 C784.437495,257.171768 787.029428,256.515978 788.471125,255.90703 L788.471125,255.110714 C788.471125,253.570127 788.096388,252.477143 787.331299,251.821353 C786.571415,251.165563 785.140127,250.837668 783.03223,250.837668 C781.611351,250.837668 780.497549,251.118721 779.696028,251.680827 C778.899711,252.237728 778.25433,253.221413 777.759885,254.626678 M788.471125,261.122124 C787.445802,261.465633 785.827146,261.871598 783.604745,262.350429 C781.382345,262.824055 779.925034,263.287272 779.24322,263.745284 C778.197079,264.48435 777.67661,265.426397 777.67661,266.566223 C777.67661,267.68523 778.092985,268.653302 778.930939,269.470437 C779.763689,270.287572 780.825444,270.693538 782.12141,270.693538 C783.563108,270.693538 784.942349,270.219911 786.248725,269.272659 C787.222001,268.549208 787.856972,267.664412 788.164049,266.623475 C788.367031,265.936456 788.471125,264.635285 788.471125,262.719962 L788.471125,261.122124 Z" id="path5685" fill="#10298E"></path>
                <path d="M177.739962,69.7365212 L123.002299,69.7365212 C123.002299,60.7532365 121.945748,54.7262123 119.843056,51.6554487 C116.584924,47.1169641 107.596434,44.8425172 92.8827923,44.8425172 C78.5907298,44.8425172 69.1182047,46.1488929 64.4964453,48.766849 C59.8746858,51.3952145 57.5586014,57.1047529 57.5586014,65.8954643 C57.5586014,73.8534263 59.6092469,79.0997479 63.7157426,81.6084056 C66.6563892,83.3936122 70.5442882,84.4397538 75.3846444,84.7520348 L86.4237793,85.5327374 C110.084273,87.0993473 124.860371,88.207945 130.752074,88.8377118 C149.462913,90.7218074 163.02632,95.6974854 171.442294,103.759541 C178.062652,110.052004 182.013007,118.275405 183.272541,128.424539 C184.011606,134.498405 184.375934,141.373793 184.375934,149.009065 C184.375934,166.611306 182.694821,179.498104 179.3378,187.664253 C173.243115,202.653744 159.549591,212.121064 138.246819,216.097443 C129.320786,217.778555 115.668899,218.61651 97.3015691,218.61651 C66.6459798,218.61651 45.2859563,216.79487 33.2214986,213.125568 C18.419377,208.633926 8.65538964,199.530933 3.93474117,185.827 C1.30117102,178.196933 0,165.487094 0,147.697484 L54.7376626,147.697484 C54.7376626,149.680469 54.7428673,151.200237 54.7428673,152.246378 C54.7428673,161.739722 57.4701217,167.839612 62.919426,170.561661 C66.6928219,172.435348 71.2469205,173.419033 76.6025404,173.538741 L96.7290538,173.538741 C106.997896,173.538741 113.550593,173.013068 116.376736,171.956517 C121.409666,169.978737 124.71464,166.79347 126.291659,162.385103 C127.129614,159.668258 127.545988,156.160301 127.545988,151.861231 C127.545988,142.237771 124.032827,136.382501 117.016912,134.279809 C114.388547,133.452264 102.188767,132.291619 80.4019598,130.829103 C62.9038119,129.579979 50.7508746,128.377697 43.9483525,127.211848 C26.0286251,123.860031 14.0838751,116.963825 8.12451187,106.497205 C2.88339499,97.6076045 0.265438889,84.1534961 0.265438889,66.1504939 C0.265438889,52.4465606 1.68111296,41.4542678 4.51246111,33.1892295 C7.34380925,24.9189865 11.9083172,18.6421375 18.2059849,14.3482731 C27.4338898,7.75393836 39.243318,3.88685808 53.6134508,2.73141821 C65.5738149,1.68527671 78.8405546,1.15439893 93.4344888,1.15439893 C116.407964,1.15439893 132.781901,2.47638869 142.540683,5.09434479 C166.362522,11.4961062 178.270839,29.4210382 178.270839,58.8795502 C178.270839,61.2945236 178.09388,64.9065744 177.739962,69.7365212" id="path5689" fill="#10298E"></path>
                <path d="M418.449314,218.618591 L418.449314,0.00104093682 L504.206894,0.00104093682 L517.666207,0.00104093682 L528.070371,0.00104093682 C543.106703,0.00104093682 554.577827,1.2241417 562.462923,3.68075259 C580.491949,9.32783483 592.587635,20.8978476 598.786413,38.3751767 C601.982089,47.5510348 603.585132,61.3642664 603.585132,79.8096668 C603.585132,101.986826 601.810335,117.918364 598.297173,127.6251 C591.265645,146.809565 576.796623,157.864314 554.942155,160.72689 C552.371041,161.158879 541.435999,161.538821 522.131826,161.851102 L512.367839,162.173793 L477.288268,162.173793 L477.288268,218.618591 L418.449314,218.618591 Z M477.288268,111.459351 L513.965677,111.459351 C525.598146,111.042976 532.671311,110.14777 535.216402,108.74771 C538.693131,106.837591 541.030034,103.006944 542.190679,97.2661772 C542.934948,93.4459391 543.304481,87.7624241 543.304481,80.2156321 C543.304481,70.9669085 542.565416,64.1123396 541.082081,59.6363112 C538.968979,53.3646669 533.899617,49.5496335 525.873994,48.1599828 C524.281361,47.9517955 520.481941,47.8372924 514.460122,47.8372924 L477.288268,47.8372924 L477.288268,111.459351 Z" id="path5693" fill="#10298E"></path>
                <path d="M729.179864,180.836749 L650.511064,180.836749 L639.94035,218.617551 L579.066365,218.617551 L644.754683,0 L733.510161,0 L800,218.617551 L740.406367,218.617551 L729.179864,180.836749 Z M717.495348,138.246819 L689.926136,43.4799309 L663.17406,138.246819 L717.495348,138.246819 Z" id="path5697" fill="#10298E"></path>
                <path d="M337.239046,30.7565602 C361.503283,30.7565602 383.165179,41.9362216 397.39999,59.4447789 L410.083805,32.2503045 C390.248754,13.5030324 363.252057,1.94342904 333.47606,1.94342904 C287.112734,1.94342904 247.453041,29.9446294 231.177994,69.5835035 L206.445335,69.5835035 L191.840991,100.889678 L223.657225,100.889678 C223.41781,103.793892 223.261669,106.698106 223.261669,109.664776 C223.261669,113.250803 223.449038,116.800398 223.802956,120.30315 L207.814167,120.30315 L193.215028,151.619734 L231.937878,151.619734 C248.676142,190.254104 287.84139,217.375713 333.47606,217.375713 C356.475559,217.375713 377.814763,210.484711 395.484666,198.711716 L395.484666,160.332375 C381.25506,176.534557 360.441528,186.77217 337.239046,186.77217 C310.117437,186.77217 286.259166,172.787184 272.367864,151.619734 L353.446433,151.619734 L368.050776,120.30315 L260.438728,120.30315 C259.881827,116.534959 259.58516,112.683492 259.58516,108.759161 C259.58516,106.104772 259.720481,103.481611 259.980716,100.889678 L377.101722,100.889678 L391.700861,69.5835035 L270.103826,69.5835035 C283.55273,46.3758171 308.576851,30.7565602 337.239046,30.7565602" id="path5701" fill="#FFBE00"></path>
                <path d="M337.239046,31.6944442 C360.363458,31.6944442 382.025353,42.0309468 396.671334,60.0391538 L397.618586,61.205003 L398.258763,59.8465805 L410.937373,32.6521061 L411.218426,32.0327487 L410.73439,31.5643271 C389.884426,11.8593932 362.445331,1.00762684 333.47606,1.00762684 C310.851298,1.00762684 289.085309,7.61757564 270.520201,20.1244315 C252.392286,32.3346204 238.48537,49.3175046 230.314016,69.2254212 L231.177994,68.6424966 L206.445335,68.6424966 L205.841592,68.6424966 L205.591767,69.1837837 L190.992628,100.495163 L190.368066,101.832767 L191.840991,101.832767 L223.657225,101.832767 L222.720382,100.812649 C222.454943,104.065577 222.324826,106.954176 222.324826,109.665817 C222.324826,113.178978 222.50699,116.796234 222.866113,120.397875 L223.802956,119.367348 L207.814167,119.367348 L207.220833,119.367348 L206.971008,119.908635 L192.36146,151.220014 L191.742102,152.557618 L193.215028,152.557618 L231.937878,152.557618 L231.0739,151.990308 C248.530411,192.279767 288.726186,218.313597 333.47606,218.313597 C355.908248,218.313597 377.523301,211.812947 396.005134,199.498664 L396.416304,199.222816 L396.416304,198.712757 L396.416304,160.333416 L396.416304,157.840373 L394.776829,159.714059 C380.198509,176.311796 359.228837,185.825959 337.239046,185.825959 C311.371766,185.825959 287.414605,172.840272 273.148566,151.100307 L272.367864,152.557618 L353.446433,152.557618 L354.050176,152.557618 L354.300001,152.021536 L368.904344,120.699747 L369.528906,119.367348 L368.050776,119.367348 L260.438728,119.367348 L261.370366,120.168869 C260.813465,116.374654 260.527207,112.544007 260.527207,108.760202 C260.527207,106.183883 260.657325,103.571132 260.917559,100.984404 L259.980716,101.832767 L377.101722,101.832767 L377.705465,101.832767 L377.95529,101.29148 L392.554429,69.9801004 L393.184196,68.6424966 L391.700861,68.6424966 L270.103826,68.6424966 L270.915757,70.052966 C284.624895,46.3924721 310.044572,31.6944442 337.239046,31.6944442 M270.103826,70.5213876 L391.700861,70.5213876 L390.847292,69.1837837 L376.253358,100.495163 L377.101722,99.9538761 L259.980716,99.9538761 L259.132352,99.9538761 L259.038668,100.80224 C258.778434,103.446219 258.648316,106.126631 258.648316,108.760202 C258.648316,112.632487 258.939779,116.567228 259.507089,120.444717 L259.632002,121.246239 L260.438728,121.246239 L368.050776,121.246239 L367.202413,119.908635 L352.603274,151.220014 L353.446433,150.678727 L272.367864,150.678727 L270.624295,150.678727 L271.581956,152.125629 C286.191505,174.412087 310.742,187.699645 337.239046,187.699645 C359.764919,187.699645 381.25506,177.956477 396.192503,160.952774 L394.542618,160.333416 L394.542618,198.712757 L394.958993,197.937259 C376.789441,210.038149 355.533511,216.434706 333.47606,216.434706 C289.470456,216.434706 249.956494,190.843274 232.801855,151.240833 L232.55203,150.678727 L231.937878,150.678727 L193.215028,150.678727 L194.073801,152.021536 L208.667735,120.699747 L207.814167,121.246239 L223.802956,121.246239 L224.838689,121.246239 L224.7398,120.210507 C224.385881,116.671321 224.198512,113.116522 224.198512,109.665817 C224.198512,107.011428 224.32863,104.164466 224.594068,100.968789 L224.677343,99.9538761 L223.657225,99.9538761 L191.840991,99.9538761 L192.689355,101.29148 L207.293699,69.9801004 L206.445335,70.5213876 L231.177994,70.5213876 L231.807761,70.5213876 L232.041971,69.9384629 C240.083208,50.3740554 253.750709,33.6878382 271.571547,21.680632 C289.819169,9.39237291 311.23124,2.89172248 333.47606,2.89172248 C361.9665,2.89172248 388.937173,13.5561202 409.438424,32.9331591 L409.230237,31.8505848 L396.556831,59.0502638 L398.13385,58.8524858 C383.118337,40.4018807 360.930768,29.8155533 337.239046,29.8155533 C309.367963,29.8155533 283.339338,44.8727044 269.286691,69.1109182 L268.469555,70.5213876 L270.103826,70.5213876 Z" id="path5705" fill="#10298E"></path>
            </g>
        </g>
    </g>
</svg>