<?xml version="1.0" encoding="UTF-8"?>
<svg width="980px" height="680px" viewBox="0 0 980 680" version="1.1" xmlns="http://www.w3.org/2000/svg" xmlns:xlink="http://www.w3.org/1999/xlink">
    <title>EU Unzer</title>
    <defs>
        <linearGradient x1="50%" y1="0%" x2="50%" y2="100%" id="linearGradient-1">
            <stop stop-color="#FFFFFF" offset="0%"></stop>
            <stop stop-color="#EDEDED" offset="100%"></stop>
        </linearGradient>
        <rect id="path-2" x="0" y="0" width="900" height="600" rx="80"></rect>
        <filter x="-6.7%" y="-10.0%" width="113.3%" height="120.0%" filterUnits="objectBoundingBox" id="filter-3">
            <feMorphology radius="2.5" operator="dilate" in="SourceAlpha" result="shadowSpreadOuter1"></feMorphology>
            <feOffset dx="0" dy="0" in="shadowSpreadOuter1" result="shadowOffsetOuter1"></feOffset>
            <feGaussianBlur stdDeviation="17.5" in="shadowOffsetOuter1" result="shadowBlurOuter1"></feGaussianBlur>
            <feColorMatrix values="0 0 0 0 0   0 0 0 0 0   0 0 0 0 0  0 0 0 0.5 0" type="matrix" in="shadowBlurOuter1"></feColorMatrix>
        </filter>
    </defs>
    <g id="EU-Unzer" stroke="none" stroke-width="1" fill="none" fill-rule="evenodd">
        <g transform="translate(40, 40)">
            <g id="Rectangle">
                <use fill="black" fill-opacity="1" filter="url(#filter-3)" xlink:href="#path-2"></use>
                <use fill="url(#linearGradient-1)" fill-rule="evenodd" xlink:href="#path-2"></use>
            </g>
            <g id="Logo" transform="translate(50, 209)" fill="#FC1154" fill-rule="nonzero">
                <path d="M344.002442,64.6576457 L344.002442,178.174789 L297.161461,178.174789 L297.161461,83.2475328 C297.161461,59.8555296 279.751755,47.2316614 263.375725,47.2316614 C249.189134,47.2316614 238.103571,54.0115983 227.457524,69.2237257 L227.457524,178.182928 L180.616543,178.182928 L180.616543,94.4063486 C175.887679,96.0423237 171.028589,97.4178452 166.25089,98.4840777 C163.744023,146.79825 129.592024,181.24326 83.1986977,181.24326 C34.9903347,181.24326 0,144.047207 0,92.8029301 L0,3.92308475 L46.84912,3.92308475 L46.84912,92.8029301 C46.84912,111.986977 56.3719605,134.39414 83.2068369,134.39414 C107.89297,134.39414 117.928579,115.42985 119.369214,97.4504019 C99.9084342,89.2623868 87.8624479,69.5330145 87.8624479,43.3329942 C87.8624479,16.1969682 108.096449,0.236036219 127.614203,0.236036219 C152.585207,0.236036219 166.405535,25.1093702 166.275308,49.8280598 C166.275308,49.8280598 173.20175,47.3456099 180.616543,43.1376539 L180.616543,3.91494557 L227.457524,3.91494557 L227.457524,18.8666192 C243.483569,5.82765286 258.280598,0 275.356598,0 C294.223217,0 311.616645,6.60087496 324.321905,18.5898871 C337.019025,30.57076 344.002442,46.9305118 344.002442,64.6576457 Z M362.68186,45.221284 L441.99003,45.221284 L358.425069,144.51928 L358.359955,144.592532 L358.359955,178.174789 L506.851155,178.174789 L506.851155,136.941703 L422.814121,136.941703 L506.786041,36.3170211 L506.851155,36.2437684 L506.851155,3.92308475 L362.68186,3.92308475 L362.68186,45.221284 Z M658.622444,24.376844 C674.331061,40.3133584 682.633025,62.9240004 682.633025,89.767016 L682.633025,105.931427 L556.785024,105.931427 C560.032557,127.427002 575.488859,140.24621 598.180893,140.24621 C617.039373,140.24621 633.35029,132.660494 640.740665,120.459864 L640.862753,120.248245 L641.082511,120.345915 L677.806491,136.884729 L677.676264,137.145183 C663.001323,165.314885 633.789806,181.471157 597.513481,181.471157 C545.422729,181.471157 510.424255,145.145997 510.424255,91.0774239 C510.424255,65.5855123 519.711059,42.3400142 536.57544,25.6139994 C552.780547,9.53911893 574.422627,0.683691118 597.52162,0.683691118 C622.224031,0.691830298 643.345203,8.87984536 658.622444,24.376844 Z M637.02106,69.3132567 C633.171228,51.3256689 618.431173,40.6063689 597.52162,40.6063689 C578.443382,40.6063689 563.77658,51.3256689 558.225659,69.3132567 L637.02106,69.3132567 Z M800,2.64523349 C793.789806,0.691830298 786.724997,0.691830298 786.724997,0.691830298 C771.358226,0.691830298 756.536779,6.6252925 743.831519,17.8492217 L743.831519,3.92308475 L696.990538,3.92308475 L696.990538,178.182928 L743.831519,178.182928 L743.831519,70.1027571 C753.069488,52.5709635 767.24794,42.917896 783.754197,42.917896 C783.754197,42.917896 791.177129,42.9830095 795.800183,44.3422525 L800,2.64523349 Z" id="path864"></path>
            </g>
        </g>
    </g>
</svg>