<?xml version="1.0" encoding="UTF-8"?>
<svg width="980px" height="680px" viewBox="0 0 980 680" version="1.1" xmlns="http://www.w3.org/2000/svg" xmlns:xlink="http://www.w3.org/1999/xlink">
    <title>FR CarteBleue</title>
    <defs>
        <linearGradient x1="50%" y1="0%" x2="50%" y2="100%" id="linearGradient-1">
            <stop stop-color="#FFFFFF" offset="0%"></stop>
            <stop stop-color="#EDEDED" offset="100%"></stop>
        </linearGradient>
        <rect id="path-2" x="-2.84217094e-14" y="0" width="900" height="600" rx="80"></rect>
        <filter x="-6.7%" y="-10.0%" width="113.3%" height="120.0%" filterUnits="objectBoundingBox" id="filter-3">
            <feMorphology radius="2.5" operator="dilate" in="SourceAlpha" result="shadowSpreadOuter1"></feMorphology>
            <feOffset dx="0" dy="0" in="shadowSpreadOuter1" result="shadowOffsetOuter1"></feOffset>
            <feGaussianBlur stdDeviation="17.5" in="shadowOffsetOuter1" result="shadowBlurOuter1"></feGaussianBlur>
            <feColorMatrix values="0 0 0 0 0   0 0 0 0 0   0 0 0 0 0  0 0 0 0.5 0" type="matrix" in="shadowBlurOuter1"></feColorMatrix>
        </filter>
        <path d="M220.644886,0.158832551 C275.442116,77.5301391 265.918781,184.31194 194.000725,253.979868 C178.680002,268.843947 161.691537,279.353368 143.617717,288.380351 L47.0673794,288.380351 C19.4437515,288.380351 0.165450574,264.661357 0.165450574,240.161436 L-9.05651378e-15,52.7654972 C-9.05651378e-15,19.5628759 21.1379654,0 47.7093276,0 L220.644886,0.158832551" id="path-4"></path>
    </defs>
    <g id="FR-CarteBleue" stroke="none" stroke-width="1" fill="none" fill-rule="evenodd">
        <g transform="translate(40, 40)">
            <g id="Rectangle">
                <use fill="black" fill-opacity="1" filter="url(#filter-3)" xlink:href="#path-2"></use>
                <use fill="url(#linearGradient-1)" fill-rule="evenodd" xlink:href="#path-2"></use>
            </g>
            <g id="Logo" transform="translate(50.2296, 111)">
                <path d="M739.603964,232.43156 C739.603964,226.34962 739.603964,59.317222 739.603964,59.317222 C739.603964,29.8009573 716.837933,5.8105035 688.797135,5.8105035 L56.742956,5.8105035 C28.68931,5.8105035 5.80397759,29.8009573 5.80397759,59.317222 L5.80397759,252.556842 C5.80397759,282.079837 28.68931,306.083546 56.742956,306.083546 L100.871948,306.083546 L100.871948,322.826982 C100.871948,349.868297 121.573141,371.899755 147.065777,371.899755 L747.823547,371.899755 C773.375527,371.899755 794.196022,349.868297 794.196022,322.826982 L794.196022,281.682776 C794.196022,254.595372 773.534392,232.43156 748.048486,232.43156 L739.603964,232.43156" id="path130" fill="#184285" fill-rule="nonzero"></path>
                <path d="M748.048486,238.235538 C770.291629,238.235538 788.391841,257.725768 788.391841,281.682776 L788.391841,322.826982 C788.391841,346.685082 770.192313,366.095777 747.823547,366.095777 L147.065777,366.095777 C124.796123,366.095777 106.675925,346.685082 106.675925,322.826982 L106.675925,300.279569 L56.742956,300.279569 C31.8592688,300.279569 11.614685,278.870111 11.614685,252.556842 L11.614685,59.317222 C11.614685,33.0172093 31.8592688,11.6144811 56.742956,11.6144811 L688.797135,11.6144811 C713.608222,11.6144811 733.799783,33.0172093 733.799783,59.317222 L733.799783,238.235538 L748.048486,238.235538 Z M745.407738,232.43156 L745.407738,59.317222 C745.407738,26.6110129 720.014622,0 688.797135,0 L56.742956,0 C25.4530725,0 0,26.6110129 0,59.317222 L0,252.556842 C0,285.269781 25.4530725,311.887524 56.742956,311.887524 L100.871948,311.887524 L95.0679701,306.083546 L95.0679701,322.826982 C95.0679701,353.084752 118.389926,377.703733 147.065777,377.703733 L747.823547,377.703733 C776.598713,377.703733 800,353.084752 800,322.826982 L800,281.682776 C800,251.319367 776.697825,226.620853 748.048486,226.620853 L739.603964,226.620853 L745.407738,232.43156" id="path132" fill="#FFFFFF" fill-rule="nonzero"></path>
                <g id="g136-Clipped" transform="translate(139.062, 155.6726) scale(-1, 1) rotate(-180) translate(-139.062, -155.6726)translate(11.1579, 11.4824)">
                    <mask id="mask-5" fill="white">
                        <use xlink:href="#path-4"></use>
                    </mask>
                    <g id="path138"></g>
                    <g id="g136" mask="url(#mask-5)" fill-rule="nonzero">
                        <g transform="translate(-0, 0.0066)">
                            <polyline id="path142" fill="#B3DCF5" points="275.442116 246.276489 137.734294 288.373733 275.442116 288.373733 275.442116 246.276489"></polyline>
                            <polyline id="path144" fill="#B3DCF5" points="275.442116 245.601451 135.543728 288.373733 137.734294 288.373733 275.442116 246.276489 275.442116 245.601451"></polyline>
                            <polyline id="path146" fill="#B2DBF5" points="275.442116 244.93303 133.359781 288.373733 135.543728 288.373733 275.442116 245.601451 275.442116 244.93303"></polyline>
                            <polyline id="path148" fill="#B1DBF5" points="275.442116 244.26461 131.169215 288.373733 133.359781 288.373733 275.442116 244.93303 275.442116 244.26461"></polyline>
                            <polyline id="path150" fill="#B0DAF4" points="275.442116 243.59619 128.972032 288.373733 131.169215 288.373733 275.442116 244.26461 275.442116 243.59619"></polyline>
                            <polyline id="path152" fill="#AFDAF4" points="275.442116 242.934387 126.788084 288.373733 128.972032 288.373733 275.442116 243.59619 275.442116 242.934387"></polyline>
                            <polyline id="path154" fill="#AED9F4" points="275.442116 242.259349 124.597518 288.373733 126.788084 288.373733 275.442116 242.934387 275.442116 242.259349"></polyline>
                            <polyline id="path156" fill="#ADD9F4" points="275.442116 241.590929 122.413571 288.373733 124.597518 288.373733 275.442116 242.259349 275.442116 241.590929"></polyline>
                            <polyline id="path158" fill="#ACD9F4" points="275.442116 240.922508 120.223005 288.373733 122.413571 288.373733 275.442116 241.590929 275.442116 240.922508"></polyline>
                            <polyline id="path160" fill="#ABD8F4" points="275.442116 240.254088 118.03244 288.373733 120.223005 288.373733 275.442116 240.922508 275.442116 240.254088"></polyline>
                            <polyline id="path162" fill="#AAD8F4" points="275.442116 239.585668 115.841874 288.373733 118.03244 288.373733 275.442116 240.254088 275.442116 239.585668"></polyline>
                            <polyline id="path164" fill="#A9D7F3" points="275.442116 238.910629 113.651308 288.373733 115.841874 288.373733 275.442116 239.585668 275.442116 238.910629"></polyline>
                            <polyline id="path166" fill="#A8D7F3" points="275.442116 238.242209 111.460743 288.373733 113.651308 288.373733 275.442116 238.910629 275.442116 238.242209"></polyline>
                            <polyline id="path168" fill="#A7D6F3" points="275.442116 237.573789 109.270177 288.373733 111.460743 288.373733 275.442116 238.242209 275.442116 237.573789"></polyline>
                            <polyline id="path170" fill="#A6D6F3" points="275.442116 236.89875 107.079612 288.373733 109.270177 288.373733 275.442116 237.573789 275.442116 236.89875"></polyline>
                            <polyline id="path172" fill="#A5D6F3" points="275.442116 236.23033 104.889046 288.373733 107.079612 288.373733 275.442116 236.89875 275.442116 236.23033"></polyline>
                            <polyline id="path174" fill="#A4D5F3" points="275.442116 235.56191 102.69848 288.373733 104.889046 288.373733 275.442116 236.23033 275.442116 235.56191"></polyline>
                            <polyline id="path176" fill="#A3D5F3" points="275.442116 234.900107 100.521151 288.373733 102.69848 288.373733 275.442116 235.56191 275.442116 234.900107"></polyline>
                            <polyline id="path178" fill="#A2D4F3" points="275.442116 234.225069 98.3305853 288.373733 100.521151 288.373733 275.442116 234.900107 275.442116 234.225069"></polyline>
                            <polyline id="path180" fill="#A1D4F2" points="275.442116 233.563267 96.1400197 288.373733 98.3305853 288.373733 275.442116 234.225069 275.442116 233.563267"></polyline>
                            <polyline id="path182" fill="#A0D3F2" points="275.442116 232.888228 93.9494541 288.373733 96.1400197 288.373733 275.442116 233.563267 275.442116 232.888228"></polyline>
                            <polyline id="path184" fill="#9FD3F2" points="275.442116 232.219808 91.7588885 288.373733 93.9494541 288.373733 275.442116 232.888228 275.442116 232.219808"></polyline>
                            <polyline id="path186" fill="#9ED3F2" points="275.442116 231.551388 89.5683229 288.373733 91.7588885 288.373733 275.442116 232.219808 275.442116 231.551388"></polyline>
                            <polyline id="path188" fill="#9DD2F2" points="275.442116 230.882967 87.3777573 288.373733 89.5683229 288.373733 275.442116 231.551388 275.442116 230.882967"></polyline>
                            <polyline id="path190" fill="#9CD2F2" points="275.442116 230.207929 85.1871917 288.373733 87.3777573 288.373733 275.442116 230.882967 275.442116 230.207929"></polyline>
                            <polyline id="path192" fill="#9BD1F2" points="275.442116 229.539509 83.0032441 288.373733 85.1871917 288.373733 275.442116 230.207929 275.442116 229.539509"></polyline>
                            <polyline id="path194" fill="#9AD1F2" points="275.442116 228.871088 80.8060605 288.373733 83.0032441 288.373733 275.442116 229.539509 275.442116 228.871088"></polyline>
                            <polyline id="path196" fill="#99D0F1" points="275.442116 228.202668 78.6287309 288.373733 80.8060605 288.373733 275.442116 228.871088 275.442116 228.202668"></polyline>
                            <polyline id="path198" fill="#98D0F1" points="275.442116 227.52763 76.4315473 288.373733 78.6287309 288.373733 275.442116 228.202668 275.442116 227.52763"></polyline>
                            <polyline id="path200" fill="#97D0F1" points="275.442116 226.859209 74.2475997 288.373733 76.4315473 288.373733 275.442116 227.52763 275.442116 226.859209"></polyline>
                            <polyline id="path202" fill="#96CFF1" points="275.442116 226.190789 72.0570341 288.373733 74.2475997 288.373733 275.442116 226.859209 275.442116 226.190789"></polyline>
                            <polyline id="path204" fill="#95CFF1" points="275.442116 225.522369 69.8598505 288.373733 72.0570341 288.373733 275.442116 226.190789 275.442116 225.522369"></polyline>
                            <polyline id="path206" fill="#94CEF1" points="275.442116 224.860567 67.6759029 288.373733 69.8598505 288.373733 275.442116 225.522369 275.442116 224.860567"></polyline>
                            <polyline id="path208" fill="#93CEF1" points="275.442116 224.185528 65.4853373 288.373733 67.6759029 288.373733 275.442116 224.860567 275.442116 224.185528"></polyline>
                            <polyline id="path210" fill="#92CDF1" points="275.442116 223.517108 63.2947717 288.373733 65.4853373 288.373733 275.442116 224.185528 275.442116 223.517108"></polyline>
                            <polyline id="path212" fill="#91CDF0" points="275.442116 222.848688 61.1042061 288.373733 63.2947717 288.373733 275.442116 223.517108 275.442116 222.848688"></polyline>
                            <polyline id="path214" fill="#90CDF0" points="275.442116 222.180267 58.9070225 288.373733 61.1042061 288.373733 275.442116 222.848688 275.442116 222.180267"></polyline>
                            <polyline id="path216" fill="#8FCCF0" points="275.442116 221.511847 56.7230749 288.373733 58.9070225 288.373733 275.442116 222.180267 275.442116 221.511847"></polyline>
                            <polyline id="path218" fill="#8ECCF0" points="275.442116 220.836809 54.5391273 288.373733 56.7230749 288.373733 275.442116 221.511847 275.442116 220.836809"></polyline>
                            <polyline id="path220" fill="#8DCBF0" points="275.442116 220.168388 52.3485617 288.373733 54.5391273 288.373733 275.442116 220.836809 275.442116 220.168388"></polyline>
                            <polyline id="path222" fill="#8CCBF0" points="275.442116 219.499968 50.1579961 288.373733 52.3485617 288.373733 275.442116 220.168388 275.442116 219.499968"></polyline>
                            <polyline id="path224" fill="#8BCBF0" points="275.442116 218.831548 47.9740485 288.373733 50.1579961 288.373733 275.442116 219.499968 275.442116 218.831548"></polyline>
                            <polyline id="path226" fill="#8ACAF0" points="275.442116 218.156509 45.7768649 288.373733 47.9740485 288.373733 275.442116 218.831548 275.442116 218.156509"></polyline>
                            <polyline id="path228" fill="#89CAEF" points="275.442116 217.488089 43.5862993 288.373733 45.7768649 288.373733 275.442116 218.156509 275.442116 217.488089"></polyline>
                            <polyline id="path230" fill="#88C9EF" points="275.442116 216.819669 41.4023517 288.373733 43.5862993 288.373733 275.442116 217.488089 275.442116 216.819669"></polyline>
                            <polyline id="path232" fill="#87C9EF" points="275.442116 216.157866 39.2051681 288.373733 41.4023517 288.373733 275.442116 216.819669 275.442116 216.157866"></polyline>
                            <polyline id="path234" fill="#86C9EF" points="275.442116 215.47621 37.0146025 288.373733 39.2051681 288.373733 275.442116 216.157866 275.442116 215.47621"></polyline>
                            <polyline id="path236" fill="#85C8EF" points="275.442116 214.814408 34.8306549 288.373733 37.0146025 288.373733 275.442116 215.47621 275.442116 214.814408"></polyline>
                            <polyline id="path238" fill="#84C8EF" points="275.442116 214.145987 32.6334713 288.373733 34.8306549 288.373733 275.442116 214.814408 275.442116 214.145987"></polyline>
                            <polyline id="path240" fill="#83C7EF" points="275.442116 213.477567 30.4561417 288.373733 32.6334713 288.373733 275.442116 214.145987 275.442116 213.477567"></polyline>
                            <polyline id="path242" fill="#82C7EF" points="275.442116 212.809147 28.2523401 288.373733 30.4561417 288.373733 275.442116 213.477567 275.442116 212.809147"></polyline>
                            <polyline id="path244" fill="#81C6EE" points="275.442116 212.134108 26.0750105 288.373733 28.2523401 288.373733 275.442116 212.809147 275.442116 212.134108"></polyline>
                            <polyline id="path246" fill="#80C6EE" points="275.442116 211.465688 23.8844449 288.373733 26.0750105 288.373733 275.442116 212.134108 275.442116 211.465688"></polyline>
                            <polyline id="path248" fill="#7FC6EE" points="275.442116 210.797268 21.6938793 288.373733 23.8844449 288.373733 275.442116 211.465688 275.442116 210.797268"></polyline>
                            <polyline id="path250" fill="#7EC5EE" points="275.442116 210.128847 19.5033137 288.373733 21.6938793 288.373733 275.442116 210.797268 275.442116 210.128847"></polyline>
                            <polyline id="path252" fill="#7DC5EE" points="275.442116 209.453809 17.3127481 288.373733 19.5033137 288.373733 275.442116 210.128847 275.442116 209.453809"></polyline>
                            <polyline id="path254" fill="#7CC4EE" points="275.442116 208.785389 15.1221825 288.373733 17.3127481 288.373733 275.442116 209.453809 275.442116 208.785389"></polyline>
                            <polyline id="path256" fill="#7BC4EE" points="275.442116 208.116968 12.9316169 288.373733 15.1221825 288.373733 275.442116 208.785389 275.442116 208.116968"></polyline>
                            <polyline id="path258" fill="#7AC4EE" points="275.442116 207.455166 10.7410513 288.373733 12.9316169 288.373733 275.442116 208.116968 275.442116 207.455166"></polyline>
                            <polyline id="path260" fill="#79C3ED" points="275.442116 206.77351 8.5571037 288.373733 10.7410513 288.373733 275.442116 207.455166 275.442116 206.77351"></polyline>
                            <polyline id="path262" fill="#78C3ED" points="275.442116 206.118325 6.37315612 288.373733 8.5571037 288.373733 275.442116 206.77351 275.442116 206.118325"></polyline>
                            <polyline id="path264" fill="#78C2ED" points="275.442116 205.449905 4.16935447 288.373733 6.37315612 288.373733 275.442116 206.118325 275.442116 205.449905"></polyline>
                            <polyline id="path266" fill="#77C2ED" points="275.442116 204.774867 2.05158712 288.353879 2.05820514 288.373733 4.16935447 288.373733 275.442116 205.449905 275.442116 204.774867"></polyline>
                            <polyline id="path268" fill="#76C2ED" points="275.442116 204.106446 1.8729005 287.745021 2.05158712 288.353879 275.442116 204.774867 275.442116 204.106446"></polyline>
                            <polyline id="path270" fill="#75C1ED" points="275.442116 203.438026 1.68097783 287.129545 1.8729005 287.745021 275.442116 204.106446 275.442116 203.438026"></polyline>
                            <polyline id="path272" fill="#74C1ED" points="275.442116 202.762988 1.48905517 286.520687 1.68097783 287.129545 275.442116 203.438026 275.442116 202.762988"></polyline>
                            <polyline id="path274" fill="#73C0ED" points="275.442116 202.094567 1.31036855 285.911828 1.48905517 286.520687 275.442116 202.762988 275.442116 202.094567"></polyline>
                            <polyline id="path276" fill="#72C0EC" points="275.442116 201.426147 1.11844588 285.289734 1.31036855 285.911828 275.442116 202.094567 275.442116 201.426147"></polyline>
                            <polyline id="path278" fill="#71C0EC" points="275.442116 200.757727 0.926523216 284.680876 1.11844588 285.289734 275.442116 201.426147 275.442116 200.757727"></polyline>
                            <polyline id="path280" fill="#70BFEC" points="275.442116 200.082689 0.741218573 284.072018 0.926523216 284.680876 275.442116 200.757727 275.442116 200.082689"></polyline>
                            <polyline id="path282" fill="#6FBFEC" points="275.442116 199.414268 0.562531953 283.46316 0.741218573 284.072018 275.442116 200.082689 275.442116 199.414268"></polyline>
                            <polyline id="path284" fill="#6EBFEC" points="275.442116 198.745848 0.370609286 282.847684 0.562531953 283.46316 275.442116 199.414268 275.442116 198.745848"></polyline>
                            <polyline id="path286" fill="#6DBEEC" points="275.442116 198.077428 0.17868662 282.232208 0.370609286 282.847684 275.442116 198.745848 275.442116 198.077428"></polyline>
                            <polyline id="path288" fill="#6CBEEC" points="275.442116 197.415625 7.10542736e-15 281.62335 7.10542736e-15 281.629968 0.17868662 282.232208 275.442116 198.077428 275.442116 197.415625"></polyline>
                            <polyline id="path290" fill="#6BBDEC" points="275.442116 196.747205 7.10542736e-15 280.948311 7.10542736e-15 281.62335 275.442116 197.415625 275.442116 196.747205"></polyline>
                            <polyline id="path292" fill="#6ABDEB" points="275.442116 196.072167 7.10542736e-15 280.279891 7.10542736e-15 280.948311 275.442116 196.747205 275.442116 196.072167"></polyline>
                            <polyline id="path294" fill="#69BDEB" points="275.442116 195.403746 7.10542736e-15 279.611471 7.10542736e-15 280.279891 275.442116 196.072167 275.442116 195.403746"></polyline>
                            <polyline id="path296" fill="#68BCEB" points="275.442116 194.735326 7.10542736e-15 278.94305 7.10542736e-15 279.611471 275.442116 195.403746 275.442116 194.735326"></polyline>
                            <polyline id="path298" fill="#68BCEB" points="275.442116 194.05367 7.10542736e-15 278.268012 7.10542736e-15 278.94305 275.442116 194.735326 275.442116 194.05367"></polyline>
                            <polyline id="path300" fill="#67BAEA" points="275.442116 193.385249 7.10542736e-15 277.599592 7.10542736e-15 278.268012 275.442116 194.05367 275.442116 193.385249"></polyline>
                            <polyline id="path302" fill="#65B8E8" points="275.442116 192.710211 7.10542736e-15 276.917935 7.10542736e-15 277.599592 275.442116 193.385249 275.442116 192.710211"></polyline>
                            <polyline id="path304" fill="#64B5E7" points="275.442116 192.035173 7.10542736e-15 276.249515 7.10542736e-15 276.917935 275.442116 192.710211 275.442116 192.035173"></polyline>
                            <polyline id="path306" fill="#62B3E5" points="275.442116 191.360134 7.10542736e-15 275.567859 7.10542736e-15 276.249515 275.442116 192.035173 275.442116 191.360134"></polyline>
                            <polyline id="path308" fill="#61B1E4" points="275.442116 190.691714 7.10542736e-15 274.899438 7.10542736e-15 275.567859 275.442116 191.360134 275.442116 190.691714"></polyline>
                            <polyline id="path310" fill="#60AFE2" points="275.442116 190.016676 7.10542736e-15 274.231018 7.10542736e-15 274.899438 275.442116 190.691714 275.442116 190.016676"></polyline>
                            <polyline id="path312" fill="#5EADE1" points="275.442116 189.341637 5.68434189e-15 273.549362 5.68434189e-15 274.231018 275.442116 190.016676 275.442116 189.341637"></polyline>
                            <polyline id="path314" fill="#5DAADF" points="275.442116 188.673217 7.10542736e-15 272.880941 7.10542736e-15 273.549362 275.442116 189.341637 275.442116 188.673217"></polyline>
                            <polyline id="path316" fill="#5CA8DE" points="275.442116 187.991561 8.52651283e-15 272.205903 8.52651283e-15 272.880941 275.442116 188.673217 275.442116 187.991561"></polyline>
                            <polyline id="path318" fill="#5AA6DC" points="275.442116 187.32314 8.52651283e-15 271.530865 8.52651283e-15 272.205903 275.442116 187.991561 275.442116 187.32314"></polyline>
                            <polyline id="path320" fill="#59A4DB" points="275.442116 186.65472 8.52651283e-15 270.855826 8.52651283e-15 271.530865 275.442116 187.32314 275.442116 186.65472"></polyline>
                            <polyline id="path322" fill="#58A2D9" points="275.442116 185.973064 8.52651283e-15 270.187406 8.52651283e-15 270.855826 275.442116 186.65472 275.442116 185.973064"></polyline>
                            <polyline id="path324" fill="#57A1D8" points="275.442116 185.304643 8.52651283e-15 269.505749 8.52651283e-15 270.187406 275.442116 185.973064 275.442116 185.304643"></polyline>
                            <polyline id="path326" fill="#559FD7" points="275.442116 184.622987 8.52651283e-15 268.837329 8.52651283e-15 269.505749 275.442116 185.304643 275.442116 184.622987"></polyline>
                            <polyline id="path328" fill="#549DD5" points="275.442116 183.954567 9.9475983e-15 268.168909 9.9475983e-15 268.837329 275.442116 184.622987 275.442116 183.954567"></polyline>
                            <polyline id="path330" fill="#539BD4" points="275.442116 183.279528 9.9475983e-15 267.487252 9.9475983e-15 268.168909 275.442116 183.954567 275.442116 183.279528"></polyline>
                            <polyline id="path332" fill="#5299D3" points="275.442116 182.60449 9.9475983e-15 266.818832 9.9475983e-15 267.487252 275.442116 183.279528 275.442116 182.60449"></polyline>
                            <polyline id="path334" fill="#5197D1" points="275.442116 181.929451 9.9475983e-15 266.150412 9.9475983e-15 266.818832 275.442116 182.60449 275.442116 181.929451"></polyline>
                            <polyline id="path336" fill="#5096D0" points="275.442116 181.254413 9.9475983e-15 265.468755 9.9475983e-15 266.150412 275.442116 181.929451 275.442116 181.254413"></polyline>
                            <polyline id="path338" fill="#4F94CF" points="275.442116 180.579375 9.9475983e-15 264.793717 9.9475983e-15 265.468755 275.442116 181.254413 275.442116 180.579375"></polyline>
                            <polyline id="path340" fill="#4E92CE" points="275.442116 179.910954 9.9475983e-15 264.118679 9.9475983e-15 264.793717 275.442116 180.579375 275.442116 179.910954"></polyline>
                            <polyline id="path342" fill="#4C91CC" points="275.442116 179.229298 7.10542736e-15 263.44364 7.10542736e-15 264.118679 275.442116 179.910954 275.442116 179.229298"></polyline>
                            <polyline id="path344" fill="#4B8FCB" points="275.442116 178.560878 7.10542736e-15 262.768602 7.10542736e-15 263.44364 275.442116 179.229298 275.442116 178.560878"></polyline>
                            <polyline id="path346" fill="#4A8DCA" points="275.442116 177.892457 5.68434189e-15 262.093564 5.68434189e-15 262.768602 275.442116 178.560878 275.442116 177.892457"></polyline>
                            <polyline id="path348" fill="#498CC9" points="275.442116 177.210801 7.10542736e-15 261.425143 7.10542736e-15 262.093564 275.442116 177.892457 275.442116 177.210801"></polyline>
                            <polyline id="path350" fill="#488AC8" points="275.442116 176.542381 7.10542736e-15 260.743487 7.10542736e-15 261.425143 275.442116 177.210801 275.442116 176.542381"></polyline>
                            <polyline id="path352" fill="#4789C6" points="275.442116 175.867342 7.10542736e-15 260.075067 7.10542736e-15 260.743487 275.442116 176.542381 275.442116 175.867342"></polyline>
                            <polyline id="path354" fill="#4687C5" points="275.442116 175.192304 7.10542736e-15 259.406646 7.10542736e-15 260.075067 275.442116 175.867342 275.442116 175.192304"></polyline>
                            <polyline id="path356" fill="#4586C4" points="275.442116 174.517266 7.10542736e-15 258.72499 7.10542736e-15 259.406646 275.442116 175.192304 275.442116 174.517266"></polyline>
                            <polyline id="path358" fill="#4584C3" points="275.442116 173.848845 7.10542736e-15 258.05657 7.10542736e-15 258.72499 275.442116 174.517266 275.442116 173.848845"></polyline>
                            <polyline id="path360" fill="#4483C2" points="275.442116 173.167189 7.10542736e-15 257.381531 7.10542736e-15 258.05657 275.442116 173.848845 275.442116 173.167189"></polyline>
                            <polyline id="path362" fill="#4381C1" points="275.442116 172.498769 7.10542736e-15 256.706493 7.10542736e-15 257.381531 275.442116 173.167189 275.442116 172.498769"></polyline>
                            <polyline id="path364" fill="#4280C0" points="275.442116 171.817112 7.10542736e-15 256.038073 7.10542736e-15 256.706493 275.442116 172.498769 275.442116 171.817112"></polyline>
                            <polyline id="path366" fill="#417FBF" points="275.442116 171.148692 7.10542736e-15 255.363034 7.10542736e-15 256.038073 275.442116 171.817112 275.442116 171.148692"></polyline>
                            <polyline id="path368" fill="#407DBD" points="275.442116 170.480272 7.10542736e-15 254.687996 7.10542736e-15 255.363034 275.442116 171.148692 275.442116 170.480272"></polyline>
                            <polyline id="path370" fill="#3F7CBC" points="275.442116 169.798615 9.9475983e-15 254.012958 9.9475983e-15 254.687996 275.442116 170.480272 275.442116 169.798615"></polyline>
                            <polyline id="path372" fill="#3E7BBB" points="275.442116 169.130195 9.9475983e-15 253.344537 9.9475983e-15 254.012958 275.442116 169.798615 275.442116 169.130195"></polyline>
                            <polyline id="path374" fill="#3E79BA" points="275.442116 168.461775 9.9475983e-15 252.662881 9.9475983e-15 253.344537 275.442116 169.130195 275.442116 168.461775"></polyline>
                            <polyline id="path376" fill="#3D78B9" points="275.442116 167.780118 9.9475983e-15 251.994461 9.9475983e-15 252.662881 275.442116 168.461775 275.442116 167.780118"></polyline>
                            <polyline id="path378" fill="#3C77B8" points="275.442116 167.10508 9.9475983e-15 251.312804 9.9475983e-15 251.994461 275.442116 167.780118 275.442116 167.10508"></polyline>
                            <polyline id="path380" fill="#3B76B7" points="275.442116 166.43666 9.9475983e-15 250.644384 9.9475983e-15 251.312804 275.442116 167.10508 275.442116 166.43666"></polyline>
                            <polyline id="path382" fill="#3A75B6" points="275.442116 165.755003 8.52651283e-15 249.975964 8.52651283e-15 250.644384 275.442116 166.43666 275.442116 165.755003"></polyline>
                            <polyline id="path384" fill="#3A73B5" points="275.442116 165.086583 8.52651283e-15 249.294307 8.52651283e-15 249.975964 275.442116 165.755003 275.442116 165.086583"></polyline>
                            <polyline id="path386" fill="#3972B4" points="275.442116 164.411545 8.52651283e-15 248.625887 8.52651283e-15 249.294307 275.442116 165.086583 275.442116 164.411545"></polyline>
                            <polyline id="path388" fill="#3871B3" points="275.442116 163.736506 8.52651283e-15 247.950849 8.52651283e-15 248.625887 275.442116 164.411545 275.442116 163.736506"></polyline>
                            <polyline id="path390" fill="#3770B2" points="275.442116 163.068086 8.52651283e-15 247.27581 8.52651283e-15 247.950849 275.442116 163.736506 275.442116 163.068086"></polyline>
                            <polyline id="path392" fill="#376FB2" points="275.442116 162.38643 8.52651283e-15 246.600772 8.52651283e-15 247.27581 275.442116 163.068086 275.442116 162.38643"></polyline>
                            <polyline id="path394" fill="#366EB1" points="275.442116 161.718009 8.52651283e-15 245.925734 8.52651283e-15 246.600772 275.442116 162.38643 275.442116 161.718009"></polyline>
                            <polyline id="path396" fill="#356DB0" points="275.442116 161.049589 7.10542736e-15 245.250695 7.10542736e-15 245.925734 275.442116 161.718009 275.442116 161.049589"></polyline>
                            <polyline id="path398" fill="#356CAF" points="275.442116 160.367933 7.10542736e-15 244.582275 7.10542736e-15 245.250695 275.442116 161.049589 275.442116 160.367933"></polyline>
                            <polyline id="path400" fill="#346BAE" points="275.442116 159.699512 7.10542736e-15 243.900619 7.10542736e-15 244.582275 275.442116 160.367933 275.442116 159.699512"></polyline>
                            <polyline id="path402" fill="#336AAD" points="275.442116 159.031092 7.10542736e-15 243.232198 7.10542736e-15 243.900619 275.442116 159.699512 275.442116 159.031092"></polyline>
                            <polyline id="path404" fill="#3369AC" points="275.442116 158.349436 7.10542736e-15 242.563778 7.10542736e-15 243.232198 275.442116 159.031092 275.442116 158.349436"></polyline>
                            <polyline id="path406" fill="#3268AB" points="275.442116 157.681015 7.10542736e-15 241.882122 7.10542736e-15 242.563778 275.442116 158.349436 275.442116 157.681015"></polyline>
                            <polyline id="path408" fill="#3167AB" points="275.442116 157.005977 7.10542736e-15 241.213701 7.10542736e-15 241.882122 275.442116 157.681015 275.442116 157.005977"></polyline>
                            <polyline id="path410" fill="#3166AA" points="275.442116 156.324321 7.10542736e-15 240.545281 7.10542736e-15 241.213701 275.442116 157.005977 275.442116 156.324321"></polyline>
                            <polyline id="path412" fill="#3065A9" points="275.442116 155.6559 7.10542736e-15 239.863625 7.10542736e-15 240.545281 275.442116 156.324321 275.442116 155.6559"></polyline>
                            <polyline id="path414" fill="#3064A8" points="275.442116 154.974244 7.10542736e-15 239.195204 7.10542736e-15 239.863625 275.442116 155.6559 275.442116 154.974244"></polyline>
                            <polyline id="path416" fill="#2F63A7" points="275.442116 154.305824 5.68434189e-15 238.520166 5.68434189e-15 239.195204 275.442116 154.974244 275.442116 154.305824"></polyline>
                            <polyline id="path418" fill="#2E62A7" points="275.442116 153.637403 7.10542736e-15 237.83851 7.10542736e-15 238.520166 275.442116 154.305824 275.442116 153.637403"></polyline>
                            <polyline id="path420" fill="#2E62A6" points="275.442116 152.955747 7.10542736e-15 237.170089 7.10542736e-15 237.83851 275.442116 153.637403 275.442116 152.955747"></polyline>
                            <polyline id="path422" fill="#2D61A5" points="275.442116 152.287327 7.10542736e-15 236.501669 7.10542736e-15 237.170089 275.442116 152.955747 275.442116 152.287327"></polyline>
                            <polyline id="path424" fill="#2D60A4" points="275.442116 151.60567 7.10542736e-15 235.820013 7.10542736e-15 236.501669 275.442116 152.287327 275.442116 151.60567"></polyline>
                            <polyline id="path426" fill="#2C5FA4" points="275.442116 150.93725 8.52651283e-15 235.151592 8.52651283e-15 235.820013 275.442116 151.60567 275.442116 150.93725"></polyline>
                            <polyline id="path428" fill="#2C5EA3" points="275.442116 150.26883 8.52651283e-15 234.469936 8.52651283e-15 235.151592 275.442116 150.93725 275.442116 150.26883"></polyline>
                            <polyline id="path430" fill="#2B5EA2" points="275.442116 149.587173 8.52651283e-15 233.801516 8.52651283e-15 234.469936 275.442116 150.26883 275.442116 149.587173"></polyline>
                            <polyline id="path432" fill="#2B5DA1" points="275.442116 148.912135 9.9475983e-15 233.119859 9.9475983e-15 233.801516 275.442116 149.587173 275.442116 148.912135"></polyline>
                            <polyline id="path434" fill="#2A5CA1" points="275.442116 148.243715 9.9475983e-15 232.451439 9.9475983e-15 233.119859 275.442116 148.912135 275.442116 148.243715"></polyline>
                            <polyline id="path436" fill="#2A5BA0" points="275.442116 147.562058 9.9475983e-15 231.783019 9.9475983e-15 232.451439 275.442116 148.243715 275.442116 147.562058"></polyline>
                            <polyline id="path438" fill="#295B9F" points="275.442116 146.893638 9.9475983e-15 231.101362 9.9475983e-15 231.783019 275.442116 147.562058 275.442116 146.893638"></polyline>
                            <polyline id="path440" fill="#295A9F" points="275.442116 146.225218 9.9475983e-15 230.432942 9.9475983e-15 231.101362 275.442116 146.893638 275.442116 146.225218"></polyline>
                            <polyline id="path442" fill="#28599E" points="275.442116 145.543561 9.9475983e-15 229.757904 9.9475983e-15 230.432942 275.442116 146.225218 275.442116 145.543561"></polyline>
                            <polyline id="path444" fill="#28599D" points="275.442116 144.875141 9.9475983e-15 229.082865 9.9475983e-15 229.757904 275.442116 145.543561 275.442116 144.875141"></polyline>
                            <polyline id="path446" fill="#27589D" points="275.442116 144.206721 9.9475983e-15 228.414445 9.9475983e-15 229.082865 275.442116 144.875141 275.442116 144.206721"></polyline>
                            <polyline id="path448" fill="#27579C" points="275.442116 143.525064 9.9475983e-15 227.739407 9.9475983e-15 228.414445 275.442116 144.206721 275.442116 143.525064"></polyline>
                            <polyline id="path450" fill="#27579C" points="275.442116 142.856644 8.52651283e-15 227.05775 8.52651283e-15 227.739407 275.442116 143.525064 275.442116 142.856644"></polyline>
                            <polyline id="path452" fill="#26569B" points="275.442116 142.174988 7.10542736e-15 226.38933 7.10542736e-15 227.05775 275.442116 142.856644 275.442116 142.174988"></polyline>
                            <polyline id="path454" fill="#26559A" points="275.442116 141.506567 7.10542736e-15 225.720909 7.10542736e-15 226.38933 275.442116 142.174988 275.442116 141.506567"></polyline>
                            <polyline id="path456" fill="#25559A" points="275.442116 140.831529 7.10542736e-15 225.039253 7.10542736e-15 225.720909 275.442116 141.506567 275.442116 140.831529"></polyline>
                            <polyline id="path458" fill="#255499" points="275.442116 140.15649 7.10542736e-15 224.370833 7.10542736e-15 225.039253 275.442116 140.831529 275.442116 140.15649"></polyline>
                            <polyline id="path460" fill="#255499" points="275.442116 139.481452 7.10542736e-15 223.702412 7.10542736e-15 224.370833 275.442116 140.15649 275.442116 139.481452"></polyline>
                            <polyline id="path462" fill="#245398" points="275.442116 138.813032 7.10542736e-15 223.020756 7.10542736e-15 223.702412 275.442116 139.481452 275.442116 138.813032"></polyline>
                            <polyline id="path464" fill="#245397" points="275.442116 138.131375 7.10542736e-15 222.352336 7.10542736e-15 223.020756 275.442116 138.813032 275.442116 138.131375"></polyline>
                            <polyline id="path466" fill="#235297" points="275.442116 137.462955 7.10542736e-15 221.670679 7.10542736e-15 222.352336 275.442116 138.131375 275.442116 137.462955"></polyline>
                            <polyline id="path468" fill="#235296" points="275.442116 136.794535 7.10542736e-15 221.002259 7.10542736e-15 221.670679 275.442116 137.462955 275.442116 136.794535"></polyline>
                            <polyline id="path470" fill="#235196" points="275.442116 136.112878 7.10542736e-15 220.327221 7.10542736e-15 221.002259 275.442116 136.794535 275.442116 136.112878"></polyline>
                            <polyline id="path472" fill="#225095" points="275.442116 135.444458 7.10542736e-15 219.645564 7.10542736e-15 220.327221 275.442116 136.112878 275.442116 135.444458"></polyline>
                            <polyline id="path474" fill="#225095" points="275.442116 134.762802 7.10542736e-15 218.977144 7.10542736e-15 219.645564 275.442116 135.444458 275.442116 134.762802"></polyline>
                            <polyline id="path476" fill="#225094" points="275.442116 134.094381 7.10542736e-15 218.308724 7.10542736e-15 218.977144 275.442116 134.762802 275.442116 134.094381"></polyline>
                            <polyline id="path478" fill="#214F94" points="275.442116 133.419343 7.10542736e-15 217.627067 7.10542736e-15 218.308724 275.442116 134.094381 275.442116 133.419343"></polyline>
                            <polyline id="path480" fill="#214F93" points="275.442116 132.744305 9.9475983e-15 216.958647 9.9475983e-15 217.627067 275.442116 133.419343 275.442116 132.744305"></polyline>
                            <polyline id="path482" fill="#214E93" points="275.442116 132.069266 9.9475983e-15 216.276991 9.9475983e-15 216.958647 275.442116 132.744305 275.442116 132.069266"></polyline>
                            <polyline id="path484" fill="#204E92" points="275.442116 131.400846 8.52651283e-15 215.60857 8.52651283e-15 216.276991 275.442116 132.069266 275.442116 131.400846"></polyline>
                            <polyline id="path486" fill="#204D92" points="275.442116 130.725808 8.52651283e-15 214.94015 8.52651283e-15 215.60857 275.442116 131.400846 275.442116 130.725808"></polyline>
                            <polyline id="path488" fill="#204D92" points="275.442116 130.050769 8.52651283e-15 214.258494 8.52651283e-15 214.94015 275.442116 130.725808 275.442116 130.050769"></polyline>
                            <polyline id="path490" fill="#204C91" points="275.442116 129.382349 8.52651283e-15 213.590073 8.52651283e-15 214.258494 275.442116 130.050769 275.442116 129.382349"></polyline>
                            <polyline id="path492" fill="#1F4C91" points="275.442116 128.700693 8.52651283e-15 212.915035 8.52651283e-15 213.590073 275.442116 129.382349 275.442116 128.700693"></polyline>
                            <polyline id="path494" fill="#1F4C90" points="275.442116 128.032272 8.52651283e-15 212.239997 8.52651283e-15 212.915035 275.442116 128.700693 275.442116 128.032272"></polyline>
                            <polyline id="path496" fill="#1F4B90" points="275.442116 127.363852 8.52651283e-15 211.564958 8.52651283e-15 212.239997 275.442116 128.032272 275.442116 127.363852"></polyline>
                            <polyline id="path498" fill="#1E4B8F" points="275.442116 126.682196 8.52651283e-15 210.896538 8.52651283e-15 211.564958 275.442116 127.363852 275.442116 126.682196"></polyline>
                            <polyline id="path500" fill="#1E4A8F" points="275.442116 126.013775 9.9475983e-15 210.214882 9.9475983e-15 210.896538 275.442116 126.682196 275.442116 126.013775"></polyline>
                            <polyline id="path502" fill="#1E4A8F" points="275.442116 125.332119 9.9475983e-15 209.546461 9.9475983e-15 210.214882 275.442116 126.013775 275.442116 125.332119"></polyline>
                            <polyline id="path504" fill="#1E4A8E" points="275.442116 124.663699 9.9475983e-15 208.878041 9.9475983e-15 209.546461 275.442116 125.332119 275.442116 124.663699"></polyline>
                            <polyline id="path506" fill="#1D498E" points="275.442116 123.98866 7.10542736e-15 208.196385 7.10542736e-15 208.878041 275.442116 124.663699 275.442116 123.98866"></polyline>
                            <polyline id="path508" fill="#1D498E" points="275.442116 123.313622 7.10542736e-15 207.527964 7.10542736e-15 208.196385 275.442116 123.98866 275.442116 123.313622"></polyline>
                            <polyline id="path510" fill="#1D498D" points="275.442116 122.638584 7.10542736e-15 206.852926 7.10542736e-15 207.527964 275.442116 123.313622 275.442116 122.638584"></polyline>
                            <polyline id="path512" fill="#1D488D" points="275.442116 121.956927 7.10542736e-15 206.177888 7.10542736e-15 206.852926 275.442116 122.638584 275.442116 121.956927"></polyline>
                            <polyline id="path514" fill="#1D488D" points="275.442116 121.288507 7.10542736e-15 205.502849 7.10542736e-15 206.177888 275.442116 121.956927 275.442116 121.288507"></polyline>
                            <polyline id="path516" fill="#1C488C" points="275.442116 120.620087 7.10542736e-15 204.827811 7.10542736e-15 205.502849 275.442116 121.288507 275.442116 120.620087"></polyline>
                            <polyline id="path518" fill="#1C488C" points="275.442116 119.93843 5.68434189e-15 204.152773 5.68434189e-15 204.827811 275.442116 120.620087 275.442116 119.93843"></polyline>
                            <polyline id="path520" fill="#1C478C" points="275.442116 119.27001 7.10542736e-15 203.477734 7.10542736e-15 204.152773 275.442116 119.93843 275.442116 119.27001"></polyline>
                            <polyline id="path522" fill="#1C478B" points="275.442116 118.60159 7.10542736e-15 202.802696 7.10542736e-15 203.477734 275.442116 119.27001 275.442116 118.60159"></polyline>
                            <polyline id="path524" fill="#1C478B" points="275.442116 117.919933 7.10542736e-15 202.134276 7.10542736e-15 202.802696 275.442116 118.60159 275.442116 117.919933"></polyline>
                            <polyline id="path526" fill="#1B468B" points="275.442116 117.251513 7.10542736e-15 201.452619 7.10542736e-15 202.134276 275.442116 117.919933 275.442116 117.251513"></polyline>
                            <polyline id="path528" fill="#1B468A" points="275.442116 116.576475 7.10542736e-15 200.784199 7.10542736e-15 201.452619 275.442116 117.251513 275.442116 116.576475"></polyline>
                            <polyline id="path530" fill="#1B468A" points="275.442116 115.901436 7.10542736e-15 200.115779 7.10542736e-15 200.784199 275.442116 116.576475 275.442116 115.901436"></polyline>
                            <polyline id="path532" fill="#1B468A" points="275.442116 115.226398 7.10542736e-15 199.434122 7.10542736e-15 200.115779 275.442116 115.901436 275.442116 115.226398"></polyline>
                            <polyline id="path534" fill="#1B458A" points="275.442116 114.557978 7.10542736e-15 198.765702 7.10542736e-15 199.434122 275.442116 115.226398 275.442116 114.557978"></polyline>
                            <polyline id="path536" fill="#1B4589" points="275.442116 113.876321 9.9475983e-15 198.090664 9.9475983e-15 198.765702 275.442116 114.557978 275.442116 113.876321"></polyline>
                            <polyline id="path538" fill="#1A4589" points="275.442116 113.207901 9.9475983e-15 197.415625 9.9475983e-15 198.090664 275.442116 113.876321 275.442116 113.207901"></polyline>
                            <polyline id="path540" fill="#1A4589" points="275.442116 112.526245 9.9475983e-15 196.747205 9.9475983e-15 197.415625 275.442116 113.207901 275.442116 112.526245"></polyline>
                            <polyline id="path542" fill="#1A4589" points="275.442116 111.857824 9.9475983e-15 196.072167 9.9475983e-15 196.747205 275.442116 112.526245 275.442116 111.857824"></polyline>
                            <polyline id="path544" fill="#1A4488" points="275.442116 111.189404 9.9475983e-15 195.397128 9.9475983e-15 196.072167 275.442116 111.857824 275.442116 111.189404"></polyline>
                            <polyline id="path546" fill="#1A4488" points="275.442116 110.507748 9.9475983e-15 194.72209 9.9475983e-15 195.397128 275.442116 111.189404 275.442116 110.507748"></polyline>
                            <polyline id="path548" fill="#1A4488" points="275.442116 109.839327 9.9475983e-15 194.05367 9.9475983e-15 194.72209 275.442116 110.507748 275.442116 109.839327"></polyline>
                            <polyline id="path550" fill="#1A4488" points="275.442116 109.170907 9.9475983e-15 193.372013 9.9475983e-15 194.05367 275.442116 109.839327 275.442116 109.170907"></polyline>
                            <polyline id="path552" fill="#1A4488" points="275.442116 108.489251 9.9475983e-15 192.703593 9.9475983e-15 193.372013 275.442116 109.170907 275.442116 108.489251"></polyline>
                            <polyline id="path554" fill="#194488" points="275.442116 107.82083 8.52651283e-15 192.021937 8.52651283e-15 192.703593 275.442116 108.489251 275.442116 107.82083"></polyline>
                            <polyline id="path556" fill="#194387" points="275.442116 107.139174 8.52651283e-15 191.353516 8.52651283e-15 192.021937 275.442116 107.82083 275.442116 107.139174"></polyline>
                            <polyline id="path558" fill="#194387" points="275.442116 106.470754 8.52651283e-15 190.685096 8.52651283e-15 191.353516 275.442116 107.139174 275.442116 106.470754"></polyline>
                            <polyline id="path560" fill="#194387" points="275.442116 105.795715 8.52651283e-15 190.00344 8.52651283e-15 190.685096 275.442116 106.470754 275.442116 105.795715"></polyline>
                            <polyline id="path562" fill="#194387" points="275.442116 105.120677 7.10542736e-15 189.335019 7.10542736e-15 190.00344 275.442116 105.795715 275.442116 105.120677"></polyline>
                            <polyline id="path564" fill="#194387" points="275.442116 104.445639 7.10542736e-15 188.659981 7.10542736e-15 189.335019 275.442116 105.120677 275.442116 104.445639"></polyline>
                            <polyline id="path566" fill="#194387" points="275.442116 103.777218 7.10542736e-15 187.984943 7.10542736e-15 188.659981 275.442116 104.445639 275.442116 103.777218"></polyline>
                            <polyline id="path568" fill="#194386" points="275.442116 103.095562 7.10542736e-15 187.309904 7.10542736e-15 187.984943 275.442116 103.777218 275.442116 103.095562"></polyline>
                            <polyline id="path570" fill="#194386" points="275.442116 102.427142 7.10542736e-15 186.634866 7.10542736e-15 187.309904 275.442116 103.095562 275.442116 102.427142"></polyline>
                            <polyline id="path572" fill="#194286" points="275.442116 101.758721 7.10542736e-15 185.959827 7.10542736e-15 186.634866 275.442116 102.427142 275.442116 101.758721"></polyline>
                            <polyline id="path574" fill="#194286" points="275.442116 101.077065 7.10542736e-15 185.291407 7.10542736e-15 185.959827 275.442116 101.758721 275.442116 101.077065"></polyline>
                            <polyline id="path576" fill="#194286" points="275.442116 100.408645 7.10542736e-15 184.609751 7.10542736e-15 185.291407 275.442116 101.077065 275.442116 100.408645"></polyline>
                            <polyline id="path578" fill="#184286" points="275.442116 99.7402242 7.10542736e-15 183.94133 7.10542736e-15 184.609751 275.442116 100.408645 275.442116 99.7402242"></polyline>
                            <polyline id="path580" fill="#184286" points="275.442116 99.0585678 7.10542736e-15 183.27291 7.10542736e-15 183.94133 275.442116 99.7402242 275.442116 99.0585678"></polyline>
                            <polyline id="path582" fill="#184286" points="275.442116 98.3835295 7.10542736e-15 182.591254 7.10542736e-15 183.27291 275.442116 99.0585678 275.442116 98.3835295"></polyline>
                            <polyline id="path584" fill="#184286" points="275.442116 97.7151092 7.10542736e-15 181.922833 7.10542736e-15 182.591254 275.442116 98.3835295 275.442116 97.7151092"></polyline>
                            <polyline id="path586" fill="#184286" points="275.442116 97.0334528 7.10542736e-15 181.254413 7.10542736e-15 181.922833 275.442116 97.7151092 275.442116 97.0334528"></polyline>
                            <polyline id="path588" fill="#184286" points="275.442116 96.3650325 5.68434189e-15 180.572757 5.68434189e-15 181.254413 275.442116 97.0334528 275.442116 96.3650325"></polyline>
                            <polyline id="path590" fill="#184286" points="275.442116 95.6833761 8.52651283e-15 179.904336 8.52651283e-15 180.572757 275.442116 96.3650325 275.442116 95.6833761"></polyline>
                            <polyline id="path592" fill="#184286" points="275.442116 95.0149558 8.52651283e-15 179.229298 8.52651283e-15 179.904336 275.442116 95.6833761 275.442116 95.0149558"></polyline>
                            <polyline id="path594" fill="#184286" points="275.442116 94.3332994 8.52651283e-15 178.547642 8.52651283e-15 179.229298 275.442116 95.0149558 275.442116 94.3332994"></polyline>
                            <polyline id="path596" fill="#184286" points="275.442116 93.6648791 8.52651283e-15 177.879221 8.52651283e-15 178.547642 275.442116 94.3332994 275.442116 93.6648791"></polyline>
                            <polyline id="path598" fill="#184285" points="275.442116 92.9964588 8.52651283e-15 177.197565 8.52651283e-15 177.879221 275.442116 93.6648791 275.442116 92.9964588"></polyline>
                            <polyline id="path600" fill="#184285" points="275.442116 92.3148024 8.52651283e-15 176.529145 8.52651283e-15 177.197565 275.442116 92.9964588 275.442116 92.3148024"></polyline>
                            <polyline id="path602" fill="#184285" points="275.442116 91.6463821 8.52651283e-15 175.860724 8.52651283e-15 176.529145 275.442116 92.3148024 275.442116 91.6463821"></polyline>
                            <polyline id="path604" fill="#184285" points="275.442116 60.0056143 257.096956 0 8.52651283e-15 0 8.52651283e-15 175.860724 275.442116 91.6463821 275.442116 60.0056143"></polyline>
                        </g>
                    </g>
                </g>
                <path d="M66.3125853,61.031292 C65.7354505,57.5105657 61.9977379,54.8567653 57.7024681,54.8567653 C49.8601646,54.8567653 46.9746945,60.7863666 46.9746945,67.0073903 C46.9746945,72.9174139 49.8601646,78.9000382 57.7024681,78.9000382 C63.0035431,78.9000382 65.9818034,75.5977258 66.6105337,70.931907 L75.0220186,70.931907 C74.1287852,79.7802197 67.3714135,85.4848812 57.7024681,85.4848812 C45.4922942,85.4848812 38.2985026,77.2587728 38.2985026,67.0073903 C38.2985026,56.4517375 45.4922942,48.2586665 57.7024681,48.2586665 C66.3721342,48.2586665 73.658716,52.8249653 74.7242741,61.031292 L66.3125853,61.031292" id="path606" fill="#FFFFFF" fill-rule="nonzero"></path>
                <path d="M50.8463922,117.291127 L61.0910448,117.291127 L56.10097,104.319869 L55.9786093,104.319869 L50.8463922,117.291127 Z M51.6804845,95.557617 L60.6018058,95.557617 L75.3201709,131.04998 L66.3660161,131.04998 L63.3349368,123.148128 L48.5900602,123.148128 L45.5192136,131.04998 L36.7437055,131.04998 L51.6804845,95.557617" id="path608" fill="#FFFFFF" fill-rule="nonzero"></path>
                <path d="M48.5896523,157.495602 L58.0997327,157.495602 C61.9712264,157.495602 64.0558454,156.000762 64.0558454,152.432927 C64.0558454,149.018042 61.9712264,147.515656 58.0997327,147.515656 L48.5896523,147.515656 L48.5896523,157.495602 Z M39.9397679,141.433716 L61.1836311,141.433716 C68.2715807,141.433716 72.7255115,145.854609 72.7255115,151.254797 C72.7255115,155.417509 70.8860217,158.514867 66.5244733,160.096583 L66.5244733,160.239338 C70.7599902,161.205987 71.9842093,164.984283 72.2491203,168.564762 C72.412268,170.741967 72.3510876,174.964229 73.9030296,176.962991 L65.207056,176.962991 C64.1547537,174.686266 64.2934292,171.284637 63.8304978,168.458716 C63.2533629,164.699794 61.620051,163.078311 57.2786921,163.078311 L48.5892444,163.078311 L48.5892444,176.962991 L39.9393601,176.962991 L39.9393601,141.437387" id="path610" fill="#FFFFFF" fill-rule="nonzero"></path>
                <polyline id="path612" fill="#FFFFFF" fill-rule="nonzero" points="51.8654532 194.166095 40.0193024 194.166095 40.0193024 187.581252 72.3549624 187.581252 72.3549624 194.166095 60.5020818 194.166095 60.5020818 223.14642 51.8654532 223.14642 51.8654532 194.166095"></polyline>
                <polyline id="path614" fill="#FFFFFF" fill-rule="nonzero" points="41.5084326 267.976946 71.4880366 267.976946 71.4880366 261.418411 50.1844206 261.418411 50.1844206 252.715707 69.2973715 252.715707 69.2973715 246.633767 50.1844206 246.633767 50.1844206 239.029659 71.0179674 239.029659 71.0179674 232.471327 41.5084326 232.471327 41.5084326 267.976946"></polyline>
                <path d="M106.364925,301.139765 L106.364925,282.179153 C106.364925,257.877903 125.431379,238.169463 148.190884,238.169463 L733.965378,238.169463 L733.965378,257.917466 C733.965378,281.001227 716.996595,299.76341 697.738238,300.981104 L106.364925,301.144251" id="path616" fill="#68BCEB" fill-rule="nonzero"></path>
                <path d="M788.332496,281.623227 C788.332496,257.295466 769.993681,238.03038 747.168305,238.03038 L733.985159,238.03038 L733.985159,257.05727 C733.985159,279.359962 718.359897,297.566016 698.115517,300.180253 L106.503805,300.180253 L106.489325,322.350591 C106.489325,346.671826 125.125681,366.380266 147.924749,366.380266 L746.862607,366.380266 C769.747735,366.380266 788.332496,346.671826 788.332496,322.350591 L788.332496,281.623227" id="path618" fill="#B3DCF5" fill-rule="nonzero"></path>
                <path d="M545.801688,46.948183 L545.801688,119.150806 C545.801688,132.512599 548.303354,146.496595 516.675755,146.496595 C486.907835,146.496595 487.662189,133.93545 487.662189,119.150806 L487.662189,46.2466481 L459.350361,46.2466481 L459.350361,119.150806 C459.350361,148.455387 475.194037,171.241199 516.450611,171.241199 C562.042221,171.241199 574.034185,145.093526 574.034185,119.150806 L574.034185,46.948183 L545.801688,46.948183" id="path620" fill="#FFFFFF"></path>
                <path d="M327.658395,169.798566 L327.658395,146.972987 L276.514259,146.972987 C272.470644,146.911806 269.188114,144.233126 268.870384,140.692414 L268.870384,46.306197 L237.322319,46.306197 L237.322319,145.338247 L237.403893,145.338247 C237.403893,158.898672 249.706857,169.758799 264.928328,169.798566 L327.653909,169.798566" id="path622" fill="#FFFFFF"></path>
                <path d="M435.426186,70.131056 L435.426186,46.2466481 L344.071049,46.2466481 L344.071049,144.934661 C344.071049,158.455318 356.54593,169.461054 371.846936,169.461054 L435.121916,169.461054 L435.121916,147.634754 L375.625843,147.634754 L375.625843,116.993383 L435.121916,116.993383 L435.121916,95.5773986 L375.625843,95.5773986 L375.625843,70.131056 L435.426186,70.131056" id="path624" fill="#FFFFFF" fill-rule="nonzero"></path>
                <path d="M689.955484,70.131056 L689.955484,46.2466481 L598.474519,46.2466481 L598.474519,144.934661 C598.474519,158.455318 611.002422,169.461054 626.329736,169.461054 L689.697302,169.461054 L689.697302,147.634754 L630.049095,147.634754 L630.049095,116.993383 L689.697302,116.993383 L689.697302,95.5773986 L630.049095,95.5773986 L630.049095,70.131056 L689.955484,70.131056" id="path626" fill="#FFFFFF" fill-rule="nonzero"></path>
                <path d="M118.535536,119.011927 L118.535536,147.833386 L173.901933,147.833386 C184.656219,147.833386 192.915364,143.352944 192.915364,132.611915 C192.915364,120.911169 183.458307,119.011927 173.901933,119.011927 L118.535536,119.011927 Z M117.636184,94.167803 L173.002582,94.167803 C179.951448,94.167803 185.815179,90.3756398 185.815179,83.1553367 C185.815179,74.7836191 179.686945,72.6392472 173.002582,72.6392472 L117.636184,72.6392472 L117.636184,94.167803 Z M172.155438,47.8350944 C195.371552,47.8350944 209.587015,59.045989 209.587015,81.9706808 C209.587015,89.6278118 206.767823,98.4695986 201.301357,103.94932 C207.932494,109.210628 215.73503,117.046202 215.73503,132.889878 C215.73503,157.654467 197.992315,171.519366 172.155438,171.519366 L101.091177,171.519366 L101.091177,47.8350944 L172.155438,47.8350944" id="path628" fill="#184285"></path>
                <path d="M125.980779,117.25136 L125.980779,146.112791 L170.983222,146.112791 C181.605154,146.112791 189.944038,141.632348 189.944038,130.891115 C189.944038,119.210355 180.486777,117.25136 170.983222,117.25136 L125.980779,117.25136 Z M125.980779,92.4139657 L170.983222,92.4139657 C177.832976,92.4139657 183.73627,88.6880813 183.73627,81.428011 C183.73627,73.0828048 177.608036,70.9584185 170.983222,70.9584185 L125.980779,70.9584185 L125.980779,92.4139657 Z M170.983222,46.0877831 C194.186081,46.0877831 208.368506,57.3251892 208.368506,80.2303033 C208.368506,87.9204716 205.516073,96.7290171 200.129142,102.208739 C206.72724,107.503084 214.549762,115.352117 214.549762,131.129515 C214.549762,155.973434 196.800114,169.838333 170.983222,169.838333 L101.322031,169.838333 L101.322031,46.0877831 L170.983222,46.0877831" id="path630" fill="#FFFFFF"></path>
            </g>
        </g>
    </g>
</svg>