<?xml version="1.0" encoding="UTF-8"?>
<svg width="980px" height="680px" viewBox="0 0 980 680" version="1.1" xmlns="http://www.w3.org/2000/svg" xmlns:xlink="http://www.w3.org/1999/xlink">
    <title>FR sodexo</title>
    <defs>
        <linearGradient x1="50%" y1="0%" x2="50%" y2="100%" id="linearGradient-1">
            <stop stop-color="#FFFFFF" offset="0%"></stop>
            <stop stop-color="#EDEDED" offset="100%"></stop>
        </linearGradient>
        <rect id="path-2" x="-2.84217094e-14" y="0" width="900" height="600" rx="80"></rect>
        <filter x="-6.7%" y="-10.0%" width="113.3%" height="120.0%" filterUnits="objectBoundingBox" id="filter-3">
            <feMorphology radius="2.5" operator="dilate" in="SourceAlpha" result="shadowSpreadOuter1"></feMorphology>
            <feOffset dx="0" dy="0" in="shadowSpreadOuter1" result="shadowOffsetOuter1"></feOffset>
            <feGaussianBlur stdDeviation="17.5" in="shadowOffsetOuter1" result="shadowBlurOuter1"></feGaussianBlur>
            <feColorMatrix values="0 0 0 0 0   0 0 0 0 0   0 0 0 0 0  0 0 0 0.5 0" type="matrix" in="shadowBlurOuter1"></feColorMatrix>
        </filter>
    </defs>
    <g id="FR-sodexo" stroke="none" stroke-width="1" fill="none" fill-rule="evenodd">
        <g transform="translate(40, 40)">
            <g id="Rectangle">
                <use fill="black" fill-opacity="1" filter="url(#filter-3)" xlink:href="#path-2"></use>
                <use fill="url(#linearGradient-1)" fill-rule="evenodd" xlink:href="#path-2"></use>
            </g>
            <g id="Logo" transform="translate(50, 171)" fill-rule="nonzero">
                <path d="M379.639029,159.729055 L370.759205,204.075047 C366.850565,222.054793 356.020216,234.053939 333.896552,234.053939 C308.501774,234.053939 301.800164,218.305534 307.370925,196.143922 C315.256512,164.707828 340.901747,155.342271 379.639029,159.729055 M419.628594,96.3255959 L392.632412,98.0484335 L384.09412,141.468495 C373.772274,141.104194 370.523928,140.777842 358.388169,140.777842 C320.394667,140.777842 287.235735,156.746345 278.477345,194.208576 C270.584168,227.982265 289.770659,254.196719 331.612085,254.196719 C374.470516,254.196719 393.118146,231.837778 399.819757,200.394094 L419.628594,96.3255959 Z" id="path5955" fill="#2B3797"></path>
                <path d="M126.746202,161.621111 C87.1588855,158.016054 53.1043819,161.302348 52.5503416,174.743517 C51.6927176,194.924244 117.798072,177.316389 116.523021,214.444678 C114.66357,268.991082 22.7460101,256.445485 0,249.501007 L4.12873857,233.312406 C43.3441654,239.535872 84.7150366,240.051964 85.6257877,218.421624 C86.5972556,195.432747 20.2186756,216.099209 21.7745422,178.872255 C22.9357499,151.139883 64.420465,136.188385 132.324553,146.16111 L126.746202,161.621111 Z" id="path5959" fill="#2B3797"></path>
                <path d="M233.487027,198.726691 C227.772063,221.49547 209.716422,235.794263 188.215105,235.794263 C165.734731,235.794263 155.617803,222.762932 161.64394,198.726691 C167.366493,175.957912 185.634643,160.672472 207.128371,160.672472 C228.606919,160.672472 239.20199,175.957912 233.487027,198.726691 M210.589225,142.032432 C171.222006,142.032432 139.573404,164.8088 131.794071,198.726691 C123.991969,232.667351 145.189703,255.43613 184.541742,255.43613 C223.893781,255.43613 255.549974,232.667351 263.336896,198.726691 C271.138998,164.8088 249.948854,142.032432 210.589225,142.032432" id="path5963" fill="#2B3797"></path>
                <path d="M665.449439,254.86011 L631.227964,254.86011 C610.478017,235.347267 570.776856,190.515541 541.549334,143.072995 L566.663297,143.072995 C594.418438,181.370081 665.449439,254.86011 665.449439,254.86011" id="path5967" fill="#2B3797"></path>
                <polygon id="path5971" fill="#2B3797" points="701.311783 32.8249895 717.052599 0 721.545638 33.3714402 753.649616 22.1388426 731.214779 50.9033999 755.547014 69.7559488 723.071146 72.2681041 721.280002 106.967723 703.224361 81.3224885 676.683554 105.791336 686.63351 71.3118154 655.334029 67.0692329 685.798655 49.7118338 673.298596 20.0137566"></polygon>
                <path d="M768.045556,199.07053 C762.239517,222.19602 743.903061,236.722501 722.067802,236.722501 C699.238306,236.722501 688.946818,223.486251 695.079209,199.07053 C700.885248,175.94504 719.434213,160.416733 741.261883,160.416733 C763.104731,160.416733 773.859184,175.94504 768.045556,199.07053 M744.783454,141.46552 C704.809068,141.46552 672.667141,164.606189 664.743606,199.07053 C656.827661,233.542461 678.359336,256.675541 718.333722,256.675541 C758.315698,256.675541 790.465214,233.542461 798.37357,199.07053 C806.297105,164.606189 784.765429,141.46552 744.783454,141.46552" id="path5975" fill="#2B3797"></path>
                <path d="M515.614966,245.331285 C580.247939,209.43251 636.388159,154.263759 676.210753,106.570757 C647.582808,196.173491 578.669304,244.397765 515.614966,245.331285" id="path5979" fill="#ED1C24"></path>
                <path d="M490.032695,158.661169 C502.411321,158.661169 509.150879,163.154208 509.150879,171.738038 C509.150879,194.521996 464.728992,193.019257 445.140252,189.027131 C452.031603,171.973315 467.590268,158.661169 490.032695,158.661169 M535.775171,170.493345 C535.775171,153.970801 522.607227,141.827452 492.727,141.827452 C444.267449,141.827452 412.778228,173.286315 412.778228,212.228516 C412.778228,237.380427 433.657198,258.282166 471.794903,258.282166 C498.070073,258.282166 515.617212,245.334321 515.617212,245.334321 C482.177466,248.916609 441.110178,245.334321 441.110178,209.55698 C441.110178,208.137726 441.186074,206.718472 441.299918,205.299218 C486.928551,214.77103 535.775171,203.310745 535.775171,170.493345" id="path5983" fill="#2B3797"></path>
            </g>
        </g>
    </g>
</svg>