<?xml version="1.0" encoding="UTF-8"?>
<svg width="980px" height="680px" viewBox="0 0 980 680" version="1.1" xmlns="http://www.w3.org/2000/svg" xmlns:xlink="http://www.w3.org/1999/xlink">
    <title>IT PostePay</title>
    <defs>
        <rect id="path-1" x="0" y="0" width="900" height="600" rx="80"></rect>
        <filter x="-6.7%" y="-10.0%" width="113.3%" height="120.0%" filterUnits="objectBoundingBox" id="filter-2">
            <feMorphology radius="2.5" operator="dilate" in="SourceAlpha" result="shadowSpreadOuter1"></feMorphology>
            <feOffset dx="0" dy="0" in="shadowSpreadOuter1" result="shadowOffsetOuter1"></feOffset>
            <feGaussianBlur stdDeviation="17.5" in="shadowOffsetOuter1" result="shadowBlurOuter1"></feGaussianBlur>
            <feColorMatrix values="0 0 0 0 0   0 0 0 0 0   0 0 0 0 0  0 0 0 0.5 0" type="matrix" in="shadowBlurOuter1"></feColorMatrix>
        </filter>
    </defs>
    <g id="IT-PostePay" stroke="none" stroke-width="1" fill="none" fill-rule="evenodd">
        <g transform="translate(40, 40)">
            <g id="Rectangle">
                <use fill="black" fill-opacity="1" filter="url(#filter-2)" xlink:href="#path-1"></use>
                <use fill="#EEDC00" fill-rule="evenodd" xlink:href="#path-1"></use>
            </g>
            <g id="Logo" transform="translate(50, 218)" fill="#0047BB">
                <path d="M0,163.295195 L25.2631579,52.3569794 C25.9954233,47.9633867 26.7276888,43.9359268 27.4599542,39.5423341 C27.826087,35.1487414 28.1922197,31.1212815 28.5583524,26.7276888 L46.1327231,26.7276888 L44.6681922,41.7391304 C50.1601831,36.2471396 55.6521739,31.8535469 61.1441648,29.2906178 C62.2425629,28.5583524 63.7070938,28.1922197 64.805492,27.826087 L64.805492,38.0778032 C62.2425629,38.8100686 59.6796339,40.2745995 57.1167048,41.7391304 C52.3569794,45.0343249 48.3295195,49.7940503 45.4004577,55.6521739 C42.1052632,61.5102975 39.5423341,68.4668192 37.7116705,76.1556064 C35.8810069,84.2105263 35.5148741,90.4347826 35.8810069,95.5606407 C36.2471396,101.418764 38.4439359,105.812357 42.1052632,109.473684 C45.7665904,112.768879 50.5263158,114.599542 56.3844394,114.599542 C59.3135011,114.599542 62.2425629,114.23341 64.805492,113.501144 L64.805492,128.146453 L61.5102975,128.146453 C54.5537757,128.146453 49.0617849,126.681922 43.9359268,124.118993 C39.1762014,121.556064 34.7826087,117.528604 31.1212815,112.402746 L19.4050343,163.295195 L0,163.295195 Z M64.805492,27.826087 C69.1990847,25.9954233 74.3249428,25.2631579 79.0846682,25.2631579 C88.604119,25.2631579 96.6590389,28.1922197 102.517162,34.0503432 C108.741419,39.9084668 112.036613,48.3295195 113.135011,58.5812357 C113.867277,65.9038902 113.135011,73.9588101 110.938215,82.3798627 C109.107551,90.8009153 106.17849,98.1235698 102.15103,104.347826 C97.7574371,112.036613 91.8993135,117.894737 84.576659,121.922197 C78.7185355,125.583524 72.1281465,127.414188 64.805492,128.146453 L64.805492,113.501144 C67.3684211,112.768879 69.9313501,111.670481 72.1281465,110.572082 C76.8878719,107.643021 80.9153318,103.249428 84.2105263,97.3913043 C87.5057208,91.5331808 90.0686499,85.3089245 91.8993135,78.3524027 C93.7299771,71.395881 94.0961098,64.805492 93.7299771,58.5812357 C92.9977117,51.9908467 90.8009153,46.8649886 87.1395881,42.8375286 C83.1121281,38.8100686 77.98627,36.979405 72.1281465,36.979405 C69.5652174,36.979405 67.0022883,37.3455378 64.805492,38.0778032 L64.805492,27.826087 Z" id="Fill-1"></path>
                <path d="M528.329519,43.2036613 C522.471396,45.0343249 517.345538,49.7940503 513.318078,56.7505721 C507.459954,66.6361556 505.263158,77.6201373 506.361556,89.7025172 C507.093822,95.9267735 508.558352,100.686499 511.853547,103.981693 C514.782609,107.276888 518.810069,109.107551 523.935927,109.107551 C525.400458,109.107551 526.864989,108.741419 528.329519,108.375286 L528.329519,127.414188 C522.837529,127.048055 518.077803,125.583524 514.050343,123.386728 C508.924485,120.823799 504.897025,116.430206 501.967963,110.938215 L490.251716,163.295195 L459.8627,163.295195 L483.295195,57.1167048 C486.224256,43.5697941 488.05492,33.3180778 488.787185,26.7276888 L516.24714,26.7276888 L515.514874,38.8100686 C519.908467,34.7826087 523.935927,31.4874142 528.329519,28.9244851 L528.329519,43.2036613 Z M534.553776,42.4713959 C532.356979,42.4713959 530.526316,42.8375286 528.329519,43.2036613 L528.329519,28.9244851 C529.427918,28.5583524 530.160183,28.1922197 530.892449,27.826087 C536.018307,25.2631579 541.87643,24.1647597 548.100686,24.1647597 C557.620137,24.1647597 565.308924,27.0938215 570.800915,32.5858124 C576.292906,38.0778032 579.588101,46.1327231 580.320366,56.7505721 C582.15103,76.5217391 578.489703,93.3638444 568.970252,106.910755 C559.816934,120.823799 547.368421,127.78032 531.990847,127.78032 C530.892449,127.78032 529.427918,127.414188 528.329519,127.414188 L528.329519,108.375286 C530.526316,108.009153 532.723112,106.910755 534.553776,105.446224 C537.84897,102.883295 540.411899,99.221968 542.974828,94.0961098 C545.537757,88.604119 547.734554,82.3798627 549.199085,75.7894737 C550.663616,69.1990847 551.029748,63.7070938 550.663616,58.9473684 C550.297483,53.4553776 548.466819,49.4279176 545.90389,46.8649886 C542.974828,43.9359268 539.313501,42.4713959 534.553776,42.4713959 L534.553776,42.4713959 Z" id="Fill-3"></path>
                <path d="M630.480549,25.9954233 L630.480549,46.4988558 C629.016018,48.3295195 628.283753,50.8924485 627.551487,53.8215103 L598.627002,53.8215103 C599.359268,44.6681922 603.75286,37.7116705 611.075515,32.5858124 C616.567506,29.2906178 622.791762,27.0938215 630.480549,25.9954233 L630.480549,25.9954233 Z M630.480549,79.8169336 C626.453089,80.9153318 623.157895,82.3798627 620.228833,84.576659 C614.004577,88.604119 611.441648,93.7299771 612.173913,99.5881007 C612.173913,102.883295 613.272311,105.446224 615.469108,107.276888 C617.299771,109.107551 619.8627,109.839817 623.157895,109.839817 C625.720824,109.839817 628.283753,109.473684 630.480549,108.375286 L630.480549,123.75286 L629.748284,124.118993 C624.988558,126.681922 619.8627,128.146453 613.638444,128.146453 C604.851259,128.146453 597.894737,125.583524 592.402746,120.823799 C586.910755,116.064073 583.981693,109.839817 583.249428,101.784897 C582.15103,89.3363844 586.910755,79.8169336 597.162471,73.2265446 C605.217391,68.1006865 616.201373,64.805492 630.480549,63.7070938 L630.480549,79.8169336 Z M648.787185,78.7185355 C648.05492,78.3524027 647.322654,78.3524027 646.590389,78.3524027 L643.295195,78.3524027 C638.535469,78.3524027 634.141876,78.7185355 630.480549,79.8169336 L630.480549,63.7070938 C634.508009,63.3409611 639.267735,63.3409611 644.02746,63.3409611 L649.153318,63.3409611 L652.448513,63.3409611 C653.180778,59.6796339 653.913043,57.1167048 653.913043,54.9199085 C654.279176,53.0892449 654.279176,51.624714 654.279176,50.1601831 C653.913043,47.2311213 652.814645,45.0343249 650.617849,43.5697941 C648.787185,42.1052632 645.858124,41.3729977 642.196796,41.3729977 C637.803204,41.3729977 634.508009,42.4713959 632.311213,44.3020595 C631.578947,45.0343249 630.846682,45.4004577 630.480549,46.4988558 L630.480549,25.9954233 C634.141876,25.2631579 638.169336,25.2631579 642.196796,25.2631579 C655.011442,25.2631579 664.530892,27.0938215 671.487414,31.4874142 C678.077803,35.8810069 681.73913,42.1052632 682.471396,50.5263158 C682.837529,53.0892449 682.837529,55.6521739 682.471396,58.5812357 C682.105263,61.1441648 681.372998,64.4393593 680.640732,67.7345538 L672.951945,101.418764 C671.853547,105.446224 671.487414,109.473684 670.755149,113.867277 C670.389016,118.26087 670.389016,122.28833 670.389016,126.681922 L642.562929,126.681922 L642.562929,119.7254 C642.562929,117.162471 642.929062,114.965675 642.929062,112.402746 C639.267735,117.528604 634.874142,121.556064 630.480549,123.75286 L630.480549,108.375286 C633.409611,106.910755 636.338673,104.713959 639.267735,101.418764 C644.02746,95.5606407 647.322654,87.8718535 648.787185,78.7185355 L648.787185,78.7185355 Z" id="Fill-4"></path>
                <polygon id="Fill-5" points="687.597254 162.929062 711.762014 126.315789 694.187643 25.9954233 724.210526 25.9954233 732.631579 94.8283753 771.441648 25.9954233 800 25.9954233 737.757437 130.343249 719.816934 162.929062"></polygon>
                <path d="M163.295195,37.3455378 C160.732265,38.0778032 157.803204,39.1762014 155.240275,40.6407323 C150.846682,43.9359268 146.819222,48.3295195 143.524027,54.187643 C140.228833,59.6796339 137.665904,66.2700229 135.83524,74.3249428 C134.004577,82.3798627 133.638444,89.3363844 134.004577,95.194508 C134.370709,101.784897 136.933638,106.544622 140.594966,110.20595 C144.622426,113.867277 149.748284,115.697941 156.338673,115.697941 C158.901602,115.697941 161.098398,115.331808 163.295195,114.965675 L163.295195,127.78032 C160.732265,127.78032 157.803204,128.146453 154.874142,128.146453 C143.157895,128.146453 133.638444,125.217391 126.681922,118.993135 C119.359268,113.135011 115.331808,104.713959 114.599542,94.0961098 C113.867277,85.3089245 114.599542,76.5217391 117.528604,67.0022883 C120.091533,57.4828375 123.75286,49.4279176 128.878719,42.4713959 C133.638444,36.2471396 139.496568,31.8535469 146.819222,28.5583524 C151.578947,26.7276888 157.437071,25.2631579 163.295195,24.5308924 L163.295195,37.3455378 Z M170.617849,36.2471396 C168.05492,36.2471396 165.858124,36.6132723 163.295195,37.3455378 L163.295195,24.5308924 C166.224256,24.1647597 169.519451,24.1647597 172.814645,24.1647597 C184.530892,24.1647597 193.684211,27.0938215 200.640732,32.5858124 C207.963387,38.4439359 211.624714,46.4988558 212.723112,56.7505721 C213.455378,64.805492 212.723112,73.5926773 210.160183,82.7459954 C207.963387,91.8993135 204.668192,99.9542334 200.2746,106.544622 C195.148741,114.23341 189.290618,119.7254 181.967963,123.020595 C176.842105,125.583524 170.617849,127.048055 163.295195,127.78032 L163.295195,114.965675 C166.224256,114.23341 169.153318,113.135011 171.350114,111.670481 C175.743707,109.107551 179.405034,105.080092 182.700229,99.5881007 C186.361556,93.3638444 188.924485,86.4073227 190.755149,78.7185355 C192.585812,70.6636156 193.318078,64.0732265 192.951945,58.215103 C192.21968,50.5263158 190.022883,45.0343249 186.361556,41.7391304 C182.700229,38.0778032 177.574371,36.2471396 170.617849,36.2471396 L170.617849,36.2471396 Z" id="Fill-6"></path>
                <path d="M232.860412,93.7299771 C232.128146,95.5606407 231.762014,97.0251716 231.762014,98.4897025 C231.395881,99.9542334 231.395881,101.052632 231.762014,102.15103 C232.128146,106.17849 233.592677,109.107551 236.521739,110.938215 C239.450801,113.135011 243.478261,113.867277 249.336384,113.867277 C257.025172,113.867277 262.883295,112.402746 267.276888,109.473684 C271.670481,106.17849 273.501144,102.15103 273.135011,97.3913043 C273.135011,94.4622426 271.670481,91.8993135 269.107551,89.7025172 C266.544622,87.5057208 261.418764,84.576659 253.363844,80.9153318 C243.112128,76.1556064 235.789474,71.7620137 231.762014,67.7345538 C227.368421,64.0732265 225.171625,59.3135011 224.805492,54.187643 C224.073227,45.4004577 227.368421,38.4439359 234.324943,32.5858124 C241.647597,27.0938215 251.533181,24.1647597 263.981693,24.1647597 C275.331808,24.1647597 283.75286,25.9954233 289.244851,29.2906178 C295.102975,32.5858124 298.032037,37.3455378 298.764302,44.3020595 L298.764302,47.9633867 C298.764302,49.0617849 298.764302,50.8924485 298.398169,53.4553776 L280.457666,53.4553776 L280.457666,50.5263158 L280.457666,47.9633867 C280.091533,44.3020595 278.627002,41.3729977 275.697941,39.5423341 C273.135011,37.7116705 269.107551,36.6132723 263.615561,36.6132723 C257.391304,36.6132723 252.631579,38.0778032 249.336384,40.6407323 C245.675057,43.2036613 244.210526,46.8649886 244.576659,51.2585812 C244.942792,53.8215103 246.04119,56.3844394 248.604119,58.215103 C250.800915,60.4118993 256.292906,63.3409611 264.713959,67.3684211 C276.430206,72.8604119 284.485126,77.6201373 287.78032,81.2814645 C291.075515,84.9427918 293.272311,89.7025172 293.638444,95.194508 C294.370709,104.347826 290.709382,112.402746 281.922197,118.627002 C273.501144,124.851259 262.15103,128.146453 248.237986,128.146453 C237.254005,128.146453 228.832952,125.949657 222.242563,122.28833 C216.018307,118.26087 212.723112,112.768879 211.990847,105.446224 C211.624714,103.981693 211.624714,102.15103 211.990847,99.9542334 C212.356979,98.1235698 212.723112,95.9267735 213.089245,93.7299771 L232.860412,93.7299771 Z" id="Fill-7"></path>
                <path d="M353.318078,126.681922 C349.656751,127.048055 346.361556,127.414188 343.432494,127.78032 C340.503432,127.78032 337.574371,128.146453 335.011442,128.146453 C327.688787,128.146453 322.196796,127.048055 318.901602,124.485126 C315.240275,122.28833 313.409611,118.26087 313.043478,112.768879 C312.677346,110.938215 313.043478,107.643021 313.409611,103.615561 C313.775744,99.221968 314.874142,94.8283753 315.606407,90.0686499 L326.956522,40.2745995 L308.649886,40.2745995 L311.94508,27.4599542 L329.885584,27.4599542 L335.011442,4.7597254 L354.416476,0 L348.558352,27.4599542 L370.160183,27.4599542 L367.231121,40.2745995 L345.629291,40.2745995 L334.645309,92.2654462 C333.546911,96.2929062 332.814645,99.221968 332.814645,101.052632 C332.448513,103.249428 332.08238,104.713959 332.448513,105.812357 C332.448513,108.741419 333.546911,110.572082 335.377574,111.670481 C337.208238,113.135011 340.503432,113.867277 344.897025,113.867277 C346.361556,113.867277 348.558352,113.501144 350.755149,113.135011 C352.585812,113.135011 354.782609,112.402746 356.613272,112.036613 L353.318078,126.681922 Z" id="Fill-8"></path>
                <path d="M391.029748,65.1716247 L416.659039,65.1716247 L416.659039,78.7185355 L387.734554,78.7185355 C386.636156,81.6475973 386.270023,84.2105263 385.90389,87.1395881 C385.537757,89.7025172 385.537757,92.2654462 385.537757,94.4622426 C386.270023,100.686499 388.466819,105.446224 392.128146,108.741419 C396.155606,112.036613 401.281465,113.867277 408.237986,113.867277 C411.167048,113.867277 414.09611,113.501144 416.659039,112.402746 L416.659039,127.414188 C413.363844,127.78032 409.702517,128.146453 406.04119,128.146453 C394.324943,128.146453 385.171625,125.217391 378.215103,119.7254 C371.624714,114.23341 367.597254,106.17849 366.864989,95.9267735 C366.132723,88.2379863 366.864989,79.4508009 369.427918,69.5652174 C371.624714,60.0457666 375.286041,51.624714 379.313501,44.6681922 C383.707094,38.0778032 389.565217,32.5858124 396.521739,29.2906178 C402.379863,25.9954233 408.970252,24.5308924 416.659039,23.798627 L416.659039,35.8810069 C410.800915,36.6132723 405.675057,38.8100686 401.647597,43.2036613 C396.521739,47.9633867 392.860412,55.2860412 391.029748,65.1716247 L391.029748,65.1716247 Z M416.659039,127.414188 L416.659039,112.402746 C418.855835,111.670481 421.052632,110.572082 422.883295,109.473684 C427.276888,106.544622 430.572082,102.15103 432.402746,96.6590389 L454.004577,96.6590389 C451.441648,106.544622 445.949657,114.23341 437.528604,119.7254 C431.670481,123.75286 424.713959,126.315789 416.659039,127.414188 L416.659039,127.414188 Z M416.659039,65.1716247 L441.556064,65.1716247 C441.922197,61.8764302 442.28833,59.3135011 442.28833,57.4828375 C442.654462,55.6521739 442.654462,54.187643 442.28833,52.7231121 C441.922197,47.2311213 439.7254,43.2036613 436.064073,40.2745995 C432.036613,37.3455378 426.910755,35.5148741 420.320366,35.5148741 C419.221968,35.5148741 417.757437,35.8810069 416.659039,35.8810069 L416.659039,23.798627 L420.686499,23.798627 C433.501144,23.798627 443.386728,26.3615561 449.977117,31.1212815 C456.201373,35.8810069 460.228833,43.5697941 460.961098,54.187643 C461.327231,57.8489703 461.327231,61.8764302 460.961098,65.9038902 C460.961098,69.9313501 460.228833,74.3249428 459.130435,78.7185355 L416.659039,78.7185355 L416.659039,65.1716247 Z" id="Fill-9"></path>
            </g>
        </g>
    </g>
</svg>