<?xml version="1.0" encoding="UTF-8"?>
<svg width="980px" height="680px" viewBox="0 0 980 680" version="1.1" xmlns="http://www.w3.org/2000/svg" xmlns:xlink="http://www.w3.org/1999/xlink">
    <title>JP JCB</title>
    <defs>
        <linearGradient x1="50%" y1="0%" x2="50%" y2="100%" id="linearGradient-1">
            <stop stop-color="#FFFFFF" offset="0%"></stop>
            <stop stop-color="#EDEDED" offset="100%"></stop>
        </linearGradient>
        <rect id="path-2" x="-2.84217094e-14" y="0" width="900" height="600" rx="80"></rect>
        <filter x="-6.7%" y="-10.0%" width="113.3%" height="120.0%" filterUnits="objectBoundingBox" id="filter-3">
            <feMorphology radius="2.5" operator="dilate" in="SourceAlpha" result="shadowSpreadOuter1"></feMorphology>
            <feOffset dx="0" dy="0" in="shadowSpreadOuter1" result="shadowOffsetOuter1"></feOffset>
            <feGaussianBlur stdDeviation="17.5" in="shadowOffsetOuter1" result="shadowBlurOuter1"></feGaussianBlur>
            <feColorMatrix values="0 0 0 0 0   0 0 0 0 0   0 0 0 0 0  0 0 0 0.5 0" type="matrix" in="shadowBlurOuter1"></feColorMatrix>
        </filter>
        <linearGradient x1="-57.5270968%" y1="50.1241953%" x2="232.39121%" y2="50.1241953%" id="linearGradient-4">
            <stop stop-color="#007940" offset="0%"></stop>
            <stop stop-color="#00873F" offset="22.85%"></stop>
            <stop stop-color="#40A737" offset="74.33%"></stop>
            <stop stop-color="#5CB531" offset="100%"></stop>
        </linearGradient>
        <linearGradient x1="0.182516704%" y1="49.95997%" x2="100.273441%" y2="49.95997%" id="linearGradient-5">
            <stop stop-color="#007940" offset="0%"></stop>
            <stop stop-color="#00873F" offset="22.85%"></stop>
            <stop stop-color="#40A737" offset="74.33%"></stop>
            <stop stop-color="#5CB531" offset="100%"></stop>
        </linearGradient>
        <linearGradient x1="-62.8015845%" y1="49.8578253%" x2="253.671294%" y2="49.8578253%" id="linearGradient-6">
            <stop stop-color="#007940" offset="0%"></stop>
            <stop stop-color="#00873F" offset="22.85%"></stop>
            <stop stop-color="#40A737" offset="74.33%"></stop>
            <stop stop-color="#5CB531" offset="100%"></stop>
        </linearGradient>
        <linearGradient x1="0.175556793%" y1="50.0058048%" x2="101.808162%" y2="50.0058048%" id="linearGradient-7">
            <stop stop-color="#1F286F" offset="0%"></stop>
            <stop stop-color="#004E94" offset="47.51%"></stop>
            <stop stop-color="#0066B1" offset="82.61%"></stop>
            <stop stop-color="#006FBC" offset="100%"></stop>
        </linearGradient>
        <linearGradient x1="-0.575855512%" y1="49.9142191%" x2="98.13299%" y2="49.9142191%" id="linearGradient-8">
            <stop stop-color="#6C2C2F" offset="0%"></stop>
            <stop stop-color="#882730" offset="17.35%"></stop>
            <stop stop-color="#BE1833" offset="57.31%"></stop>
            <stop stop-color="#DC0436" offset="85.85%"></stop>
            <stop stop-color="#E60039" offset="100%"></stop>
        </linearGradient>
    </defs>
    <g id="JP-JCB" stroke="none" stroke-width="1" fill="none" fill-rule="evenodd">
        <g transform="translate(40, 40)">
            <g id="Rectangle">
                <use fill="black" fill-opacity="1" filter="url(#filter-3)" xlink:href="#path-2"></use>
                <use fill="url(#linearGradient-1)" fill-rule="evenodd" xlink:href="#path-2"></use>
            </g>
            <g id="Logo" transform="translate(125, 50)" fill-rule="nonzero">
                <path d="M649.206349,399.206349 C649.206349,454.761905 603.968254,500 548.412698,500 L0,500 L0,100.793651 C0,45.2380952 45.2380952,0 100.793651,0 L649.206349,0 L649.206349,399.206349 Z" id="path6325" fill="#FFFFFF"></path>
                <g id="g6327" transform="translate(434.9206, 33.7302)">
                    <path d="M35.7142857,263.095238 L77.3809524,263.095238 C78.5714286,263.095238 81.3492063,262.698413 82.5396825,262.698413 C90.4761905,261.111111 97.2222222,253.968254 97.2222222,244.047619 C97.2222222,234.52381 90.4761905,227.380952 82.5396825,225.396825 C81.3492063,225 78.968254,225 77.3809524,225 L35.7142857,225 L35.7142857,263.095238 Z" id="path6338" fill="url(#linearGradient-4)"></path>
                    <path d="M72.6190476,0 C32.9365079,0 0.396825397,32.1428571 0.396825397,72.2222222 L0.396825397,147.222222 L102.380952,147.222222 C104.761905,147.222222 107.539683,147.222222 109.52381,147.619048 C132.539683,148.809524 149.603175,160.714286 149.603175,181.349206 C149.603175,197.619048 138.095238,211.507937 116.666667,214.285714 L116.666667,215.079365 C140.079365,216.666667 157.936508,229.761905 157.936508,250 C157.936508,271.825397 138.095238,286.111111 111.904762,286.111111 L2.47671868e-13,286.111111 L2.47671868e-13,432.936508 L105.952381,432.936508 C145.634921,432.936508 178.174603,400.793651 178.174603,360.714286 L178.174603,0 L72.6190476,0 Z" id="path6349" fill="url(#linearGradient-5)"></path>
                    <path d="M92.0634921,186.111111 C92.0634921,176.587302 85.3174603,170.238095 77.3809524,169.047619 C76.5873016,169.047619 74.6031746,168.650794 73.4126984,168.650794 L35.7142857,168.650794 L35.7142857,203.571429 L73.4126984,203.571429 C74.6031746,203.571429 76.984127,203.571429 77.3809524,203.174603 C85.3174603,201.984127 92.0634921,195.634921 92.0634921,186.111111 L92.0634921,186.111111 Z" id="path6360" fill="url(#linearGradient-6)"></path>
                </g>
                <path d="M108.333333,33.7301587 C68.6507937,33.7301587 36.1111111,65.8730159 36.1111111,105.952381 L36.1111111,284.126984 C56.3492063,294.047619 77.3809524,300.396825 98.4126984,300.396825 C123.412698,300.396825 136.904762,285.31746 136.904762,264.68254 L136.904762,180.555556 L198.809524,180.555556 L198.809524,264.285714 C198.809524,296.825397 178.571429,323.412698 109.920635,323.412698 C68.2539683,323.412698 35.7142857,314.285714 35.7142857,314.285714 L35.7142857,466.269841 L141.666667,466.269841 C181.349206,466.269841 213.888889,434.126984 213.888889,394.047619 L213.888889,33.7301587 L108.333333,33.7301587 Z" id="path6371" fill="url(#linearGradient-7)"></path>
                <path d="M307.936508,33.7301587 C268.253968,33.7301587 235.714286,65.8730159 235.714286,105.952381 L235.714286,200.396825 C253.968254,184.920635 285.714286,175 336.904762,177.380952 C364.285714,178.571429 393.650794,186.111111 393.650794,186.111111 L393.650794,216.666667 C378.968254,209.126984 361.507937,202.380952 338.888889,200.793651 C300,198.015873 276.587302,217.063492 276.587302,250.396825 C276.587302,284.126984 300,303.174603 338.888889,300 C361.507937,298.412698 378.968254,291.269841 393.650794,284.126984 L393.650794,314.68254 C393.650794,314.68254 364.68254,322.222222 336.904762,323.412698 C285.714286,325.793651 253.968254,315.873016 235.714286,300.396825 L235.714286,467.063492 L341.666667,467.063492 C381.349206,467.063492 413.888889,434.920635 413.888889,394.84127 L413.888889,33.7301587 L307.936508,33.7301587 Z" id="path6384" fill="url(#linearGradient-8)"></path>
            </g>
        </g>
    </g>
</svg>