<?xml version="1.0" encoding="UTF-8"?>
<svg width="980px" height="680px" viewBox="0 0 980 680" version="1.1" xmlns="http://www.w3.org/2000/svg" xmlns:xlink="http://www.w3.org/1999/xlink">
    <title>NL iDeal</title>
    <defs>
        <linearGradient x1="50%" y1="0%" x2="50%" y2="100%" id="linearGradient-1">
            <stop stop-color="#FFFFFF" offset="0%"></stop>
            <stop stop-color="#EDEDED" offset="100%"></stop>
        </linearGradient>
        <rect id="path-2" x="-2.84217094e-14" y="0" width="900" height="600" rx="80"></rect>
        <filter x="-6.7%" y="-10.0%" width="113.3%" height="120.0%" filterUnits="objectBoundingBox" id="filter-3">
            <feMorphology radius="2.5" operator="dilate" in="SourceAlpha" result="shadowSpreadOuter1"></feMorphology>
            <feOffset dx="0" dy="0" in="shadowSpreadOuter1" result="shadowOffsetOuter1"></feOffset>
            <feGaussianBlur stdDeviation="17.5" in="shadowOffsetOuter1" result="shadowBlurOuter1"></feGaussianBlur>
            <feColorMatrix values="0 0 0 0 0   0 0 0 0 0   0 0 0 0 0  0 0 0 0.5 0" type="matrix" in="shadowBlurOuter1"></feColorMatrix>
        </filter>
    </defs>
    <g id="NL-iDeal" stroke="none" stroke-width="1" fill="none" fill-rule="evenodd">
        <g transform="translate(40, 40)">
            <g id="Rectangle">
                <use fill="black" fill-opacity="1" filter="url(#filter-3)" xlink:href="#path-2"></use>
                <use fill="url(#linearGradient-1)" fill-rule="evenodd" xlink:href="#path-2"></use>
            </g>
            <g id="Logo" transform="translate(161, 50)" fill-rule="nonzero">
                <polygon id="Path-2" fill="#FFFFFF" points="414.827367 27.8942475 322.829328 20.1772836 13.7506852 15.5276414 13.7506852 491.113915 343.673421 491.113915 453.614034 461.215657 528.451617 396.340531 565.05764 294.297105 565.05764 176.401648 510.314419 81.6787112"></polygon>
                <path d="M23.514366,23.5086821 L23.514366,476.480245 L298.720668,476.480245 C464.905613,476.480245 555.308406,399.068496 555.308406,249.415549 C555.308406,95.6236514 457.316207,23.5086821 298.720668,23.5086821 L23.514366,23.5086821 Z M298.720668,0 C542.429307,0 578.819155,156.27955 578.819155,249.415549 C578.819155,411.009965 479.350974,500 298.720668,500 C298.720668,500 5.89665835,500 0,500 C0,494.079831 0,5.90540573 0,0 C5.89665835,0 298.720668,0 298.720668,0 Z" id="Fill-4" fill="#0A0B09"></path>
                <path d="M193.303418,179.186619 C193.303418,193.350366 193.303418,216.140064 193.303418,230.298275 C201.064486,230.298275 208.991718,230.298275 208.991718,230.298275 C219.861873,230.298275 229.901025,227.156599 229.901025,204.341433 C229.901025,182.044835 218.729142,179.186619 208.991718,179.186619 C208.991718,179.186619 201.064486,179.186619 193.303418,179.186619 L193.303418,179.186619 Z M455.009187,153.764585 L480.386154,153.764585 C480.386154,153.764585 480.386154,211.623905 480.386154,230.298275 C486.013637,230.298275 501.468859,230.298275 517.991778,230.298275 C507.678061,91.4271225 398.430897,61.4232323 299.163278,61.4232323 L193.32512,61.4232323 L193.32512,153.816996 L208.991718,153.816996 C237.553656,153.816996 255.299622,173.18525 255.299622,204.341433 C255.299622,236.486033 237.980026,255.673434 208.991718,255.673434 L193.32512,255.673434 L193.32512,440.547328 L299.163278,440.547328 C460.562593,440.547328 516.729018,365.596287 518.712607,255.673434 L455.009187,255.673434 L455.009187,153.764585 L455.009187,153.764585 Z M384.301697,210.628475 L402.661899,210.628475 L394.266737,181.818954 L392.741998,181.818954 L384.301697,210.628475 Z M344.699788,255.704068 L375.431408,153.760895 L411.535804,153.760895 L442.258419,255.704068 L415.840882,255.704068 L410.081524,235.983704 L376.885725,235.983704 L371.110091,255.704068 L344.699788,255.704068 Z M332.512617,230.298275 L332.512617,255.673434 L269.730551,255.673434 L269.730551,153.802601 L330.485661,153.802601 L330.485661,179.168534 C330.485661,179.168534 308.864568,179.168534 295.111099,179.168534 C295.111099,182.666379 295.111099,186.676888 295.111099,190.978238 L328.567068,190.978238 L328.567068,216.337157 L295.111099,216.337157 C295.111099,221.429832 295.111099,226.231665 295.111099,230.298275 C309.262001,230.298275 332.512617,230.298275 332.512617,230.298275 L332.512617,230.298275 Z" id="Fill-7" fill="#D50172"></path>
                <path d="M160.093187,204.695388 C160.093187,234.939554 135.587008,259.45843 105.343137,259.45843 C75.1137344,259.45843 50.5840815,234.939554 50.5840815,204.695388 C50.5840815,174.475212 75.1137344,149.945633 105.343137,149.945633 C135.587008,149.945633 160.093187,174.475212 160.093187,204.695388 M61.4235276,440.464283 L149.522917,440.464283 L149.522917,283.631839 L61.4235276,283.631839 L61.4235276,440.464283 Z" id="Fill-6" fill="#000000"></path>
            </g>
        </g>
    </g>
</svg>