<?xml version="1.0" encoding="UTF-8"?>
<svg width="980px" height="680px" viewBox="0 0 980 680" version="1.1" xmlns="http://www.w3.org/2000/svg" xmlns:xlink="http://www.w3.org/1999/xlink">
    <title>PL Przelewy24</title>
    <defs>
        <linearGradient x1="50%" y1="0%" x2="50%" y2="100%" id="linearGradient-1">
            <stop stop-color="#FFFFFF" offset="0%"></stop>
            <stop stop-color="#EDEDED" offset="100%"></stop>
        </linearGradient>
        <rect id="path-2" x="-2.84217094e-14" y="0" width="900" height="600" rx="80"></rect>
        <filter x="-6.7%" y="-10.0%" width="113.3%" height="120.0%" filterUnits="objectBoundingBox" id="filter-3">
            <feMorphology radius="2.5" operator="dilate" in="SourceAlpha" result="shadowSpreadOuter1"></feMorphology>
            <feOffset dx="0" dy="0" in="shadowSpreadOuter1" result="shadowOffsetOuter1"></feOffset>
            <feGaussianBlur stdDeviation="17.5" in="shadowOffsetOuter1" result="shadowBlurOuter1"></feGaussianBlur>
            <feColorMatrix values="0 0 0 0 0   0 0 0 0 0   0 0 0 0 0  0 0 0 0.5 0" type="matrix" in="shadowBlurOuter1"></feColorMatrix>
        </filter>
    </defs>
    <g id="PL-Przelewy24" stroke="none" stroke-width="1" fill="none" fill-rule="evenodd">
        <g transform="translate(40, 40)">
            <g id="Rectangle">
                <use fill="black" fill-opacity="1" filter="url(#filter-3)" xlink:href="#path-2"></use>
                <use fill="url(#linearGradient-1)" fill-rule="evenodd" xlink:href="#path-2"></use>
            </g>
            <g id="Logo" transform="translate(49.5268, 164.8307)">
                <path d="M89.5550565,126.168484 C91.8351004,127.097391 93.9040291,128.279636 95.3396123,129.799665 C96.4374112,130.939687 97.2820342,132.121932 97.9998258,133.430846 C100.026531,137.146473 100.406539,141.030992 100.364316,143.606597 C100.364316,145.464411 100.110978,146.646656 100.110978,146.646656 C100.110978,146.646656 99.9843085,147.660009 99.7731933,149.264484 C99.2665169,152.937888 98.2953871,159.862466 97.3242573,165.647021 C96.4374112,170.882678 95.3818353,175.189427 95.3818353,175.189427 C95.3818353,175.189427 92.8062302,186.800762 83.1793783,191.909749 C73.5525264,197.018736 59.9567092,196.469837 59.9567092,196.469837 L25.0804826,196.300945 L17.9870128,239.36844 L0,239.36844 L19.2537038,123.086202 L40.7452284,123.086202 L69.6257841,123.086202 C69.6257841,123.086202 70.9769213,123.086202 73.088073,123.170649 C75.3681169,123.255095 78.5770675,123.508433 81.8704642,124.099555 C84.4882923,124.564009 87.1483435,125.239577 89.5550565,126.168484 Z M77.7748298,170.924901 C79.8859816,159.862466 81.4904569,150.531175 81.4904569,150.32006 C81.4904569,150.298948 81.4987391,150.237238 81.5117308,150.141424 L81.5118932,150.1398 L81.5118932,150.1398 L81.5118932,150.1398 C81.5766893,149.659107 81.7575988,148.319338 81.617126,146.773325 C81.4904569,145.506634 81.1526726,144.071051 80.2659889,142.973252 C79.5904203,142.128791 77.4792686,141.579892 74.8192174,141.242107 C71.7369359,140.819877 67.9790858,140.693208 65.1501425,140.650985 C62.6589834,140.608762 60.885616,140.650985 60.885616,140.650985 L34.4962193,140.566539 L28.078318,179.200616 L57.212212,179.285062 C57.212212,179.285062 63.8412284,179.5384 70.0057915,178.229486 C73.7214185,177.427248 76.9725922,175.147204 77.7748298,170.924901 Z M233.620213,155.429047 L167.583387,155.513493 L164.923336,171.896031 L207.188593,171.896031 L154.240908,222.605895 L151.369742,239.36844 L219.644389,239.326217 L222.346663,223.112572 L175.985771,223.197018 L231.2135,170.460447 L233.620213,155.429047 Z M323.17527,123.086202 L340.486714,123.086202 L321.106341,239.36844 L303.752674,239.326217 L323.17527,123.086202 Z M432.152922,155.47127 L415.559269,155.513493 L424.003876,239.36844 L444.102041,239.283994 L469.900315,180.593976 L475.81154,239.283994 L496.247489,239.283994 L532.812637,155.47127 L515.585639,155.47127 L490.082926,214.710188 L484.045032,155.429047 L463.56686,155.386824 L438.021924,214.499073 L432.152922,155.47127 Z M270.818707,154.373471 C277.9544,154.289025 286.356783,154.626809 291.212432,156.189062 C305.65271,160.918042 307.637193,172.951606 304.850473,188.743021 L302.44376,202.676623 L246.076008,202.845515 C246.076008,202.845515 244.978209,205.42112 244.513756,215.30131 C244.471533,215.554648 244.471533,215.723541 244.471533,215.85021 C243.685535,223.937545 252.609211,224.103189 255.360204,224.155156 C255.568071,224.158404 255.741835,224.161652 255.871752,224.168147 L256.440139,224.197379 C258.705568,224.314304 263.803187,224.57901 272.634297,223.577025 C282.345595,222.479226 283.316725,210.614553 283.316725,210.614553 L301.261515,210.57233 L300.163716,215.090195 L300.136108,215.203872 C299.991576,215.829098 299.398829,218.3706 297.757003,221.888104 C295.983635,225.688177 293.492476,228.897127 293.492476,228.897127 C293.492476,228.897127 287.919036,236.328381 277.363277,238.81954 C266.807518,241.3107 252.789471,240.212901 252.789471,240.212901 C252.789471,240.212901 246.118231,240.381793 238.264747,237.341734 C230.411263,234.343899 228.257888,227.883775 227.03342,220.959197 C225.808952,213.992396 229.946809,193.17644 229.946809,193.17644 C229.946809,193.17644 232.015738,174.344967 238.982539,165.731467 C245.949339,157.117968 258.194019,155.344601 258.194019,155.344601 C260.769624,154.795702 263.936352,154.457917 270.818707,154.373471 Z M248.820506,186.716316 L287.454582,186.758539 C287.454582,186.758539 288.890166,179.833961 287.539028,175.273873 C286.947906,173.331614 284.752308,172.0227 282.430041,171.558246 C275.46324,170.122663 266.891964,170.756009 263.683014,171.05157 C260.474063,171.347131 257.053997,171.727138 254.351723,173.753844 C251.691672,175.78055 250.340535,180.593976 250.340535,180.593976 L248.820506,186.716316 Z M397.572257,156.231285 C392.716608,154.669032 384.314224,154.331248 377.178531,154.415694 C370.296176,154.50014 367.129449,154.837925 364.553844,155.386824 C364.553844,155.386824 352.309164,157.160191 345.342363,165.773691 C338.375562,174.38719 336.306633,193.218663 336.306633,193.218663 C336.306633,193.218663 332.168776,214.034619 333.393244,221.00142 C334.617712,227.925998 336.771087,234.386122 344.624571,237.383957 C352.478056,240.424016 359.149295,240.255124 359.149295,240.255124 C359.149295,240.255124 373.167343,241.352923 383.723101,238.861764 C394.27886,236.370604 399.852301,228.93935 399.852301,228.93935 C399.852301,228.93935 402.34346,225.7304 404.116827,221.930327 C405.758654,218.412823 406.3514,215.871321 406.495933,215.246095 L406.52354,215.132418 L407.621339,210.614553 L389.676549,210.656776 C389.676549,210.656776 388.705419,222.521449 378.994121,223.619248 C370.570626,224.575762 365.544461,224.379263 363.132876,224.283449 C362.775604,224.270457 362.476795,224.257465 362.231577,224.252594 C362.104908,224.247722 361.939263,224.24285 361.74114,224.239602 L361.739516,224.239602 L361.737892,224.239602 C359.009634,224.184387 350.043735,224.000879 350.831357,215.934656 C350.831357,215.807987 350.831357,215.639094 350.87358,215.385756 C351.338034,205.505566 352.435833,202.929961 352.435833,202.929961 L408.803584,202.761069 L411.210297,188.827467 C413.997017,172.993829 412.012535,160.918042 397.572257,156.231285 Z M393.645514,186.758539 L355.011438,186.716316 L356.531467,180.593976 C356.531467,180.593976 357.882604,175.78055 360.542655,173.753844 C363.202706,171.727138 366.664995,171.347131 369.873946,171.05157 C373.082897,170.756009 381.654173,170.122663 388.620973,171.558246 C390.94324,172.0227 393.138838,173.331614 393.729961,175.273873 C395.081098,179.791738 393.645514,186.758539 393.645514,186.758539 Z M552.741909,155.513493 L563.846567,216.821339 L595.218282,155.47127 L612.86751,155.640162 L567.64664,243.252959 C567.64664,243.252959 559.455372,259.12882 554.388607,263.140008 C549.321843,267.151197 546.197339,268.966787 542.059481,269.389018 L540.950315,269.504319 C537.582216,269.858343 535.857567,270.038603 532.263737,269.389018 L528.041434,268.629003 L530.659262,252.964257 C530.659262,252.964257 537.668286,254.273171 541.806143,252.626473 C545.986224,250.979774 549.321843,243.886305 549.321843,243.886305 L551.432995,240.33957 L535.092681,155.47127 L552.741909,155.513493 Z M126.373705,161.255826 C131.989369,158.173544 138.576162,155.429047 145.542963,155.429047 L155.592045,155.429047 L152.720879,171.642692 L143.178473,171.684915 C129.49821,171.684915 122.489186,183.29625 120.800265,192.669764 L112.608996,238.903987 L94.1151442,238.903987 L108.893369,155.429047 L127.344835,155.429047 L126.373705,161.255826 Z" id="Shape" fill="#D13239"></path>
                <path d="M484.213924,43.1579979 L505.663225,0.0482795106 C505.663225,0.0482795106 552.657463,-0.880627252 593.191576,5.41060491 C633.72569,11.659614 670.797514,21.2864659 669.995276,21.7086963 L567.22441,75.4586194 C567.22441,75.4586194 543.199503,60.2583269 513.390041,50.9270363 C496.500827,45.9447182 484.213924,43.1579979 484.213924,43.1579979 Z M348.340198,22.8909413 L352.81584,48.0136469 C352.81584,48.0136469 373.505127,42.5246524 398.290048,39.5690399 C430.126216,35.2200674 464.031313,39.8646012 464.031313,39.8646012 L476.78267,1.06163234 C476.78267,1.06163234 438.233039,3.63723746 409.141368,9.04178589 C380.09192,14.4463343 348.340198,22.8909413 348.340198,22.8909413 Z M252.662802,89.1811057 L226.948974,71.8696615 C226.948974,71.8696615 250.213866,58.6538516 281.16335,46.3247255 C312.070612,33.9955994 328.579818,28.8443891 328.579818,28.8443891 L333.815474,53.3759723 C333.815474,53.3759723 304.048235,63.3406085 286.990129,71.4052081 C269.3409,78.9209082 252.662802,89.1811057 252.662802,89.1811057 Z M188.948242,132.670831 L133.509398,132.670831 C133.509398,132.670831 155.127592,116.119402 166.021135,108.983709 C177.252462,101.256894 203.726305,84.8743561 203.726305,84.8743561 L235.055796,99.5257492 C235.055796,99.5257492 219.011043,109.701501 210.186429,116.161625 C201.361815,122.621749 188.948242,132.670831 188.948242,132.670831 Z M619.285412,163.831431 L637.48354,163.873654 L638.581339,156.822407 C638.581339,156.822407 640.523598,144.071051 644.872571,141.622115 C646.265931,140.819877 648.503752,140.102085 651.079357,139.637632 C655.85056,138.793171 661.888454,138.708725 666.828549,138.877617 L667.237787,138.892233 C674.493653,139.134204 677.398923,139.231641 684.942231,140.102085 C692.626823,140.988769 690.684563,148.420023 690.684563,148.420023 L689.164534,159.524681 C689.164534,159.524681 688.488965,164.506999 686.715598,167.589281 C685.153346,170.333778 680.846596,172.191592 678.355437,172.993829 C672.359766,174.936089 651.839371,180.171745 651.839371,180.171745 L635.710172,184.816279 C635.710172,184.816279 625.787759,187.687446 620.256541,193.809786 C614.683101,199.974349 612.487503,206.941149 611.727488,210.57233 C610.967474,214.203511 606.702947,239.326217 606.702947,239.326217 L693.766845,239.36844 L696.680234,221.97255 L627.814465,222.056996 L629.038933,214.963526 C629.038933,214.963526 629.84117,207.658941 632.796783,205.252228 C632.939691,205.135303 633.072856,205.011881 633.214141,204.88034 C633.988772,204.157677 635.037852,203.180051 639.679137,201.536601 C642.972534,200.354356 654.203861,197.35652 654.203861,197.35652 L680.171028,190.263051 C680.171028,190.263051 694.357967,186.63187 699.931408,178.862831 C705.504848,171.136016 707.658223,156.315731 707.658223,156.315731 C707.658223,156.315731 709.178252,141.917676 707.996007,137.399811 C706.855986,132.881947 702.591459,127.477398 697.398026,125.155131 C692.204593,122.832864 686.800044,121.481727 671.135298,121.692842 C655.470552,121.903958 647.701514,122.621749 639.763583,125.577362 C631.825653,128.490751 627.223342,133.810853 624.309953,141.326553 C621.143225,148.462246 619.285412,163.831431 619.285412,163.831431 Z M783.195232,196.174275 L795.397689,123.043979 L773.779495,123.043979 L706.475978,195.329815 L703.43592,213.654612 L762.29483,213.654612 L757.988081,239.326217 L776.059539,239.36844 L780.324066,213.654612 L797.002165,213.696835 L800,196.174275 L783.195232,196.174275 Z M765.208219,196.216499 L727.165265,196.174275 L773.483934,146.815548 L765.208219,196.216499 Z M608.222977,104.296952 L585.633653,87.1544 L714.329463,37.5001112 L715.324952,37.9531969 C731.709113,45.3909468 740.830913,49.5320522 756.890282,59.9627657 C763.308183,64.1428461 771.837236,70.8140856 773.990611,72.9252373 C779.859612,78.7942391 785.475276,84.4521258 788.557558,89.7722282 C793.497653,98.3012812 793.87766,104.296952 793.87766,104.296952 L608.222977,104.296952 Z" id="Shape" fill="#B3B2B1"></path>
            </g>
        </g>
    </g>
</svg>