<?xml version="1.0" encoding="UTF-8"?>
<svg width="980px" height="680px" viewBox="0 0 980 680" version="1.1" xmlns="http://www.w3.org/2000/svg" xmlns:xlink="http://www.w3.org/1999/xlink">
    <title>PT Multibanco</title>
    <defs>
        <linearGradient x1="50%" y1="0%" x2="50%" y2="100%" id="linearGradient-1">
            <stop stop-color="#FFFFFF" offset="0%"></stop>
            <stop stop-color="#EDEDED" offset="100%"></stop>
        </linearGradient>
        <rect id="path-2" x="-2.84217094e-14" y="0" width="900" height="600" rx="80"></rect>
        <filter x="-6.7%" y="-10.0%" width="113.3%" height="120.0%" filterUnits="objectBoundingBox" id="filter-3">
            <feMorphology radius="2.5" operator="dilate" in="SourceAlpha" result="shadowSpreadOuter1"></feMorphology>
            <feOffset dx="0" dy="0" in="shadowSpreadOuter1" result="shadowOffsetOuter1"></feOffset>
            <feGaussianBlur stdDeviation="17.5" in="shadowOffsetOuter1" result="shadowBlurOuter1"></feGaussianBlur>
            <feColorMatrix values="0 0 0 0 0   0 0 0 0 0   0 0 0 0 0  0 0 0 0.5 0" type="matrix" in="shadowBlurOuter1"></feColorMatrix>
        </filter>
    </defs>
    <g id="PT-Multibanco" stroke="none" stroke-width="1" fill="none" fill-rule="evenodd">
        <g transform="translate(40, 40)">
            <g id="Rectangle">
                <use fill="black" fill-opacity="1" filter="url(#filter-3)" xlink:href="#path-2"></use>
                <use fill="url(#linearGradient-1)" fill-rule="evenodd" xlink:href="#path-2"></use>
            </g>
            <g id="Logo" transform="translate(239, 50)">
                <g id="g20" transform="translate(0.8326, 0)" fill="#3D73B9">
                    <path d="M208.532243,402.647423 L381.754692,402.647423 C421.283252,402.647423 421.695294,360.619141 417.657283,339.879695 C415.459726,325.925207 391.753577,326.144962 389.143978,339.879695 L389.143978,356.05921 C389.128866,363.486715 383.111445,369.504136 375.68394,369.519248 L43.6330425,369.519248 C36.2055373,369.504136 30.1881164,363.486715 30.1730045,356.05921 L30.1730045,339.879695 C27.5634052,326.144962 3.85725664,325.925207 1.65969941,339.879695 C-2.378312,360.619141 -1.96627002,402.647423 37.5622906,402.647423 L208.532243,402.647423 Z M86.1008359,0 L353.158978,0 C371.920623,0 387.276054,16.2619235 387.276054,36.1223469 L387.276054,53.3731712 C387.276054,77.7660564 354.312696,77.6561786 354.312696,53.537988 L354.312696,44.1434308 C354.312696,38.0750441 349.393296,33.1556447 343.32491,33.1556447 L75.717378,33.1556447 C69.6489913,33.1556447 64.7295919,38.0750441 64.7295919,44.1434308 L64.7295919,53.3731712 C64.7295919,77.6287091 33.2495846,77.4638923 33.2495846,53.895091 L33.2495846,36.1498164 C33.331993,16.289393 48.6599546,0 67.4215995,0 L86.1008359,0 Z" id="path22"></path>
                </g>
                <g id="g24" transform="translate(254.4697, 104.6858)" fill="#1D1D1B">
                    <path d="M126.90893,93.6711762 C145.629718,102.03139 157.817626,120.473901 158.169182,140.973596 C158.169182,170.03629 132.787396,193.824847 101.774369,193.824847 L14.7785724,193.824847 C6.92558353,194.057625 0.342053779,187.939103 0,180.090114 L0,14.5041771 C0.0302066036,6.49573489 6.52286219,0.0153527501 14.5313472,0.000149235158 L86.9683273,0.000149235158 C109.17192,-0.0512593609 129.252995,13.1832075 137.961838,33.6076598 C146.67068,54.032112 142.318082,77.6849252 126.90893,93.6711762 M61.9985833,80.2111382 L89.605396,80.2111382 L89.605396,79.9089741 C102.402419,77.9006864 111.851558,66.903844 111.910602,53.9503293 L111.910602,53.9503293 C111.865361,39.465666 100.134456,27.7347618 85.649793,27.6895204 L30.0241256,27.6895204 L30.0241256,165.036847 L100.538243,165.036847 C110.435313,165.351835 119.718415,160.251626 124.76012,151.72916 C129.801825,143.206695 129.801825,132.614806 124.76012,124.09234 C119.718415,115.569874 110.435313,110.469666 100.538243,110.784653 L89.5504571,110.784653 L89.5504571,110.784653 L61.9985833,110.784653 C56.5518716,110.784653 51.5189023,107.878867 48.7955464,103.161877 C46.0721904,98.444886 46.0721904,92.6333137 48.7955464,87.916323 C51.5189023,83.1993323 56.5518716,80.2935464 61.9985833,80.2935466" id="path26"></path>
                </g>
                <g id="g28" transform="translate(65.4385, 448.4657)" fill="#1D1D1B" fill-rule="nonzero">
                    <path d="M32.5101609,5.00023421 C32.5101609,2.42116985 34.6009056,0.330425096 37.17997,0.330425096 C39.7590344,0.330425096 41.8497791,2.42116985 41.8497791,5.00023421 L41.8497791,30.2172034 L41.8497791,30.2172034 C41.8346899,41.7605069 32.4887897,51.1186882 20.945516,51.148936 L20.945516,51.148936 C9.40221252,51.1338468 0.0440312129,41.7879466 0.0137833731,30.2446729 L0.0137833731,30.2446729 L0.0137833731,5.02770367 C-0.120642265,3.27887639 0.736235124,1.60220463 2.23231117,0.686659126 C3.72838722,-0.228886375 5.61132829,-0.228886375 7.10740433,0.686659126 C8.60348038,1.60220463 9.46035777,3.27887639 9.32593213,5.02770367 L9.32593213,30.2446729 L9.32593213,30.2446729 C9.38576056,36.6477403 14.5697946,41.8195478 20.9729854,41.8642567 L20.9729854,41.8642567 C27.3884791,41.8340834 32.5775448,36.6327504 32.5925693,30.2172034 L32.5925693,30.2172034 L32.5101609,5.00023421 Z" id="path30"></path>
                </g>
                <g id="g32" transform="translate(111.6559, 448.8236)" fill="#1D1D1B" fill-rule="nonzero">
                    <path d="M30.4636371,41.4788927 C33.0427014,41.4788927 35.1334462,43.5696374 35.1334462,46.1487018 C35.1334462,48.7277662 33.0427014,50.8185109 30.4636371,50.8185109 L17.4980494,50.8185109 C7.83414358,50.8185109 0,42.9843673 0,33.3204615 L0,33.3204615 L0,4.64233965 C0,2.07844626 2.07844626,0 4.64233965,0 C7.20623304,0 9.28467929,2.07844626 9.28467929,4.64233965 L9.28467929,33.2655226 L9.28467929,33.2655226 C9.28467929,37.8168126 12.9742289,41.5063622 17.5255189,41.5063622 L30.4636371,41.5063622 L30.4636371,41.4788927 Z" id="path34"></path>
                </g>
                <g id="g36" transform="translate(8.6016, 100.9232)" fill="#1D1D1B" fill-rule="nonzero">
                    <path d="M232.050957,181.078301 C232.966778,187.412354 230.345955,193.740193 225.219782,197.571813 C220.093608,201.403433 213.282668,202.125479 207.467065,199.453826 C201.651463,196.782173 197.762143,191.144491 197.329553,184.759209 L182.963023,53.1530005 L132.391737,181.847446 L132.391737,181.847446 L132.391737,181.847446 L132.391737,182.177079 L132.391737,182.451774 L132.391737,182.451774 L132.391737,182.726469 L132.391737,182.891285 L132.391737,183.138511 L132.391737,183.138511 L132.391737,183.413205 L132.391737,183.413205 C131.282635,185.353432 129.797809,187.053046 128.024092,188.412648 L128.024092,188.412648 L127.749398,188.632404 C126.829707,189.462652 125.815521,190.181802 124.727756,190.775022 L124.727756,190.775022 L124.398123,190.939839 L124.398123,190.939839 L124.095959,191.104656 L124.095959,191.104656 L123.903672,191.104656 L123.683917,191.104656 L123.49163,191.104656 L123.271875,191.104656 L123.107058,191.104656 L122.914772,191.104656 L122.749955,191.104656 L122.749955,191.104656 L122.585138,191.104656 L122.365382,191.104656 L122.365382,191.104656 C120.72326,191.691192 118.99906,192.015639 117.256062,192.066087 L115.992466,192.066087 C114.033431,192.010082 112.099474,191.610274 110.278818,190.8849 L110.031592,190.8849 L110.031592,190.8849 L109.784367,190.8849 L109.564611,190.8849 L109.399795,190.8849 L109.180039,190.8849 L108.987753,190.8849 L108.850405,190.8849 L108.548241,190.720083 L108.548241,190.720083 L108.273547,190.555266 L108.10873,190.555266 C107.133703,190.035412 106.213424,189.418825 105.361783,188.714812 L105.361783,188.714812 L104.784924,188.192892 L104.784924,188.192892 L104.345413,187.78085 L103.301573,187.506156 L103.301573,187.506156 L102.779653,186.929297 L102.779653,186.929297 C102.07564,186.077656 101.459053,185.157378 100.939199,184.18235 L100.939199,184.017533 L100.774383,183.742839 L100.774383,183.742839 L100.609566,183.440675 L100.609566,183.440675 L100.609566,183.248388 L100.609566,183.028633 L100.609566,182.863816 L100.609566,182.616591 L100.609566,182.396835 L100.609566,182.396835 L100.609566,182.14961 L49.1043182,53.1530005 L34.7927267,184.759209 C33.7762719,194.339675 25.1857707,201.282177 15.6053052,200.265722 C6.02483963,199.249267 -0.917662802,190.658766 0.0987919743,181.078301 L16.9650437,25.9307603 L16.9650437,25.9307603 L16.9650437,25.9307603 C17.3723204,22.2769191 18.4724227,18.7342167 20.2064406,15.4923635 C24.5968816,7.27543657 32.6730968,1.67320124 41.9073183,0.439096492 L41.9073183,0.439096492 L42.8412801,0.439096492 C44.3134479,0.329771902 45.7916962,0.329771902 47.263864,0.439096492 L47.263864,0.439096492 C49.040546,0.509770435 50.8065102,0.748911418 52.5380013,1.15330259 C61.7898432,3.27204825 69.3919229,9.83514281 72.8379362,18.6788215 L116.074875,127.952355 L159.229405,18.3217184 C163.376212,7.70317062 173.413325,0.544585354 184.803477,0.0819934428 L184.803477,0.0819934428 C186.275645,-0.0273311476 187.753893,-0.0273311476 189.226061,0.0819934428 L190.160023,0.0819934428 L190.160023,0.0819934428 C199.390883,1.32476798 207.463516,6.9245191 211.8609,15.1352605 C212.703173,16.759289 213.410602,18.4497684 213.976049,20.1896421 C214.531432,21.9793923 214.908679,23.8196231 215.102297,25.6835352 L215.102297,25.6835352 L215.102297,25.6835352 L232.050957,181.078301 Z" id="path38"></path>
                </g>
                <g id="g40" transform="translate(0, 448.6313)" fill="#1D1D1B" fill-rule="nonzero">
                    <path d="M63.6392834,45.8190682 C63.948871,47.527755 63.2847716,49.2671149 61.9151907,50.3346838 C60.5456099,51.4022527 58.6967606,51.6217007 57.1153259,50.9044007 C55.5338911,50.1871007 54.4810758,48.651529 54.3820736,46.9178468 L50.3990011,13.3226907 L36.1423486,46.2860491 C35.1233711,48.6501292 32.3833744,49.7436705 30.0166578,48.7308315 C28.9244291,48.2600805 28.0577247,47.3835272 27.5993449,46.2860491 L27.5993449,46.2860491 L13.3426924,13.3226907 L9.33215042,46.9178468 C9.23314823,48.651529 8.18033289,50.1871007 6.59889814,50.9044007 C5.01746339,51.6217007 3.16861418,51.4022527 1.7990333,50.3346838 C0.429452421,49.2671149 -0.234646994,47.527755 0.0749405968,45.8190682 L4.77221917,6.81242741 C5.07840372,4.31634977 6.61532192,2.13990855 8.86516951,1.01637022 C9.15705063,0.857440278 9.45999831,0.719736787 9.77166187,0.604328238 L10.1287649,0.604328238 C10.5731324,0.450011514 11.0341349,0.348590951 11.5022382,0.302164119 L11.5022382,0.302164119 C13.8719008,-0.0271645906 16.2637137,0.729738237 18.0125015,2.36237402 C18.3590673,2.68715024 18.6719732,3.04607171 18.9464633,3.43368317 C19.1491517,3.71400307 19.3326982,4.00767747 19.4958526,4.31270606 C19.5980742,4.4808587 19.6898137,4.65516374 19.7705473,4.8346259 L31.857112,32.8534806 L43.9436768,4.61487018 C44.9513369,2.33844957 46.9984634,0.690512736 49.4375698,0.192286258 C49.8908884,0.0993328763 50.3496264,0.0351095623 50.8110431,0 L52.2394553,0 C54.6488762,0.271253532 56.7980598,1.63983739 58.062982,3.70837782 L58.062982,3.70837782 C58.3232544,4.13200691 58.535179,4.58349843 58.6947797,5.05438163 C58.8095448,5.3467767 58.8924327,5.65069902 58.9420049,5.96087398 C58.9550531,6.16210543 58.9550531,6.36397077 58.9420049,6.56520222 L58.9420049,6.56520222 L63.6392834,45.8190682 Z" id="path42"></path>
                </g>
                <g id="g44" transform="translate(135.1698, 448.7961)" fill="#1D1D1B" fill-rule="nonzero">
                    <path d="M27.2771791,46.1761713 C27.2771791,48.7552356 25.1864343,50.8459804 22.60737,50.8459804 C20.0283056,50.8459804 17.9375609,48.7552356 17.9375609,46.1761713 L17.9375609,9.33961822 L4.66980911,9.33961822 C2.09074475,9.33961822 0,7.24887347 0,4.66980911 C0,2.09074475 2.09074475,0 4.66980911,0 L40.5449309,0 C43.1239952,0 45.21474,2.09074475 45.21474,4.66980911 C45.21474,7.24887347 43.1239952,9.33961822 40.5449309,9.33961822 L27.2771791,9.33961822 L27.2771791,46.1761713 Z" id="path46"></path>
                </g>
                <g id="g48" transform="translate(182.225, 448.7961)" fill="#1D1D1B" fill-rule="nonzero">
                    <path d="M9.33961822,46.1761713 C9.33961822,48.7552356 7.24887347,50.8459804 4.66980911,50.8459804 C2.09074475,50.8459804 0,48.7552356 0,46.1761713 L0,4.66980911 C0,2.09074475 2.09074475,0 4.66980911,0 C7.24887347,0 9.33961822,2.09074475 9.33961822,4.66980911 L9.33961822,46.1761713 Z" id="path50"></path>
                </g>
                <g id="g52" transform="translate(240.7619, 448.906)" fill="#1D1D1B" fill-rule="nonzero">
                    <path d="M46.4238876,45.5443736 C46.5874341,48.0182034 44.7893115,50.1886333 42.3282286,50.4880529 C39.8671457,50.7874725 37.6010633,49.1115007 37.1666778,46.6706216 L35.5185099,33.4852783 L19.4763421,33.4852783 C17.7275148,33.6197039 16.0508431,32.7628265 15.1352976,31.2667505 C14.2197521,29.7706744 14.2197521,27.8877334 15.1352976,26.3916573 C16.0508431,24.8955813 17.7275148,24.0387039 19.4763421,24.1731295 L34.4746702,24.1731295 L34.0351588,20.7394463 L34.0351588,20.7394463 C34.0351588,20.7394463 34.0351588,20.5196906 34.0351588,20.4098128 C33.9138229,19.6026072 33.7394726,18.8042661 33.5132389,18.0199693 C33.2619355,17.1795059 32.9403227,16.3616906 32.5518076,15.5751869 C30.8841779,11.8268327 27.2038542,9.37684978 23.1023115,9.28467929 L23.1023115,9.28467929 C22.3072342,9.29050137 21.5151374,9.38260565 20.7399375,9.55937395 C20.0145125,9.73989975 19.3135443,10.0073745 18.6522582,10.3559884 C14.9011224,12.5258539 12.472036,16.4165092 12.1694643,20.7394463 L9.257701,46.6706216 C9.07614401,48.319356 8.0287891,49.7459899 6.51016473,50.4131241 C4.99154037,51.0802583 3.23236174,50.8865392 1.89529444,49.904939 C0.558227141,48.9233387 -0.153596488,47.3029858 0.0279606393,45.6542514 L2.93972397,19.7230761 C3.56738275,12.2694336 7.88933924,5.62661745 14.44943,2.03274044 C15.7607432,1.37353203 17.1432185,0.86662441 18.5698498,0.521919842 C20.0559356,0.176317555 21.576569,0.00121431517 23.1023115,0 L23.1023115,0 C30.7417713,0.0421428487 37.6636554,4.51029405 40.8475862,11.4547671 C41.4841394,12.7283257 42.0169429,14.0511483 42.4408152,15.4103701 C42.7987068,16.6620923 43.0649494,17.9382205 43.2374297,19.2286258 C43.2634127,19.3647442 43.2634127,19.5045493 43.2374297,19.6406677 L43.2374297,19.6406677 L46.4238876,45.5443736 Z" id="path54"></path>
                </g>
                <g id="g56" transform="translate(292.1092, 448.7961)" fill="#1D1D1B" fill-rule="nonzero">
                    <path d="M9.33328642,46.1761713 C9.46771206,47.9249985 8.61083467,49.6016703 7.11475863,50.5172158 C5.61868258,51.4327613 3.73574151,51.4327613 2.23966546,50.5172158 C0.743589417,49.6016703 -0.113287973,47.9249985 0.0211376659,46.1761713 L0.0211376659,7.71891977 L0.0211376659,7.71891977 C-0.00704588864,7.45412943 -0.00704588864,7.1870956 0.0211376659,6.92230527 C0.0814941505,6.40660937 0.201325555,5.89963035 0.378240716,5.41148468 L0.378240716,5.41148468 L0.762813231,4.58740072 L0.762813231,4.58740072 C1.5666903,3.15838189 2.86648798,2.07358834 4.41625212,1.53829006 L5.04804983,1.37347327 L5.5425002,1.37347327 L5.5425002,1.37347327 L6.64127882,1.37347327 L6.77862614,1.37347327 C8.70874224,1.45477275 10.5060782,2.37854321 11.6956604,3.90066408 L36.4181793,35.5729576 L36.4181793,4.66980911 C36.4181793,2.09074475 38.508924,0 41.0879884,0 C43.6670527,0 45.7577975,2.09074475 45.7577975,4.66980911 L45.7577975,43.1270606 C45.7489604,45.1025621 44.8510213,46.9690646 43.3130151,48.2089117 C43.0149553,48.4596936 42.6929243,48.6805148 42.3515838,48.8681789 C42.1674946,48.9760488 41.9745028,49.0679497 41.774725,49.1428735 L41.774725,49.1428735 L41.3901525,49.3076903 L41.3901525,49.3076903 C39.7528161,49.8801464 37.9554719,49.7813912 36.3907098,49.0329957 L35.7863816,48.7308315 C35.4599817,48.5252473 35.1561417,48.2858582 34.8798892,48.0166254 C34.6648624,47.8292409 34.4629455,47.627324 34.275561,47.4122972 L34.1107442,47.220011 L34.1107442,47.220011 L34.1107442,47.220011 L9.33328642,15.4378395 L9.33328642,46.1761713 Z" id="path58"></path>
                </g>
                <g id="g60" transform="translate(342.1797, 448.8511)" fill="#1D1D1B" fill-rule="nonzero">
                    <path d="M32.111805,41.4514232 C34.6908694,41.4514232 36.7816141,43.542168 36.7816141,46.1212323 C36.7816141,48.7002967 34.6908694,50.7910415 32.111805,50.7910415 L18.3770723,50.7910415 C8.22769553,50.7910415 0,42.5633459 0,32.4139691 L0,32.4139691 L0,18.3770723 L0,18.3770723 C0.0301694083,8.24021841 8.24021841,0.0301694083 18.3770723,0 L32.111805,0 C34.6908694,0 36.7816141,2.09074475 36.7816141,4.66980911 C36.7816141,7.24887347 34.6908694,9.33961822 32.111805,9.33961822 L18.3770723,9.33961822 C15.9552883,9.36820351 13.6436883,10.3560668 11.9492174,12.0865648 C10.2126377,13.7655539 9.22295113,16.0715235 9.2022709,18.4869502 L9.2022709,18.4869502 L9.2022709,32.523847 L9.2022709,32.523847 C9.23226639,37.5329599 13.2855511,41.5862445 18.2946639,41.61624 L32.0293966,41.61624 L32.111805,41.4514232 Z" id="path62"></path>
                </g>
                <g id="g64" transform="translate(379.5656, 448.7958)" fill="#1D1D1B" fill-rule="nonzero">
                    <path d="M21.7283471,9.31233929 L21.7283471,9.31233929 C18.4449359,9.29966172 15.2843634,10.5599523 12.9106487,12.828527 C10.635337,14.9682574 9.33502446,17.9460725 9.31214876,21.0693666 L9.31214876,21.0693666 L9.31214876,29.7771871 L9.31214876,29.7771871 C9.32466758,32.8970594 10.6153129,35.8754717 12.8831793,38.0180268 C15.2568939,40.2866015 18.4174664,41.5468921 21.7008776,41.5342145 L21.7008776,41.5342145 C24.9842889,41.5468921 28.1448614,40.2866015 30.518576,38.0180268 C32.7938877,35.8782963 34.0942003,32.9004813 34.117076,29.7771871 L34.117076,29.7771871 L34.117076,21.0693666 L34.117076,21.0693666 C34.0918248,17.9521746 32.8032496,14.9785394 30.5460455,12.828527 C28.1576601,10.5655555 24.9910741,9.30678846 21.7008776,9.31233929 M21.7008776,0.000142344491 L21.7008776,0.000142344491 C27.3892747,-0.0203180866 32.8640438,2.16565086 36.9739004,6.09850801 C41.0776147,9.98800494 43.4102665,15.3878457 43.4292247,21.0418972 L43.4292247,21.0418972 L43.4292247,29.7497177 L43.4292247,29.7497177 C43.4102665,35.4037691 41.0776147,40.8036099 36.9739004,44.6931068 C32.8640438,48.625964 27.3892747,50.8119329 21.7008776,50.7914725 L21.7008776,50.7914725 C16.0124805,50.8119329 10.5377115,48.625964 6.42785489,44.6931068 C2.34229486,40.7933266 0.0213790927,35.3976934 0,29.7497177 L0,29.7497177 L0,21.0418972 L0,21.0418972 C0.0213790927,15.3939215 2.34229486,9.99828822 6.42785489,6.09850801 C10.5377115,2.16565086 16.0124805,-0.0203180866 21.7008776,0.000142344491 L21.7008776,0.000142344491 L21.7008776,0.000142344491 Z" id="path66"></path>
                </g>
                <g id="g68" transform="translate(195.4377, 448.8785)" fill="#1D1D1B" fill-rule="nonzero">
                    <path d="M9.33969779,9.25720983 L9.33969779,41.4239538 L27.3596671,41.4239538 C28.9162189,41.4239538 30.4086207,40.8037591 31.5066884,39.7005362 C32.6047561,38.5973132 33.2179709,37.1020228 33.2107278,35.5454882 L33.2107278,35.5454882 C33.2137359,34.0803938 32.664461,32.6679726 31.6723731,31.5898852 L31.4800869,31.4250684 C30.4013494,30.3052615 28.9145391,29.6708891 27.3596671,29.6670226 L21.1515679,29.6670226 C18.5725035,29.6670226 16.4817588,27.5762778 16.4817588,24.9972135 C16.4817588,22.4181491 18.5725035,20.3274044 21.1515679,20.3274044 L23.2667167,20.3274044 C24.5910471,20.2105785 25.8337838,19.6377546 26.7828083,18.7067059 L26.7828083,18.7067059 C27.8381357,17.6722792 28.4322423,16.256325 28.4309762,14.7785724 L28.4309762,14.7785724 C28.4309762,11.744379 25.9712765,9.28467929 22.9370831,9.28467929 L9.33969779,9.28467929 L9.33969779,9.25720983 Z M3.91855321e-05,25.0521524 L3.91855321e-05,4.77968697 L3.91855321e-05,4.77968697 C-0.00260341422,4.14598204 0.128441092,3.51884048 0.384652081,2.93923279 C0.64264153,2.33964808 1.00541554,1.79083611 1.45596123,1.31853434 L1.45596123,1.31853434 L1.45596123,1.31853434 C2.28903991,0.522563071 3.38161135,0.0543181676 4.53254135,0 L22.7997358,0 C31.0072289,0 37.6607166,6.65348772 37.6607166,14.8609808 L37.6607166,14.8609808 C37.6521154,17.6588905 36.8624816,20.3988248 35.3807509,22.7721868 C36.3739343,23.3596855 37.2957257,24.0602469 38.1276975,24.8598662 L38.4298616,25.1894997 C41.0960423,27.9997207 42.5809292,31.7266884 42.577756,35.6004271 L42.577756,35.6004271 C42.5626323,43.9685305 35.7827094,50.7484534 27.414606,50.763572 L4.66988868,50.763572 C2.09082432,50.763572 3.91855321e-05,48.6728272 3.91855321e-05,46.0937629 L3.91855321e-05,25.0521524 Z" id="path70"></path>
                </g>
            </g>
        </g>
    </g>
</svg>