<?xml version="1.0" encoding="UTF-8"?>
<svg width="980px" height="680px" viewBox="0 0 980 680" version="1.1" xmlns="http://www.w3.org/2000/svg" xmlns:xlink="http://www.w3.org/1999/xlink">
    <title>UK paysafe</title>
    <defs>
        <linearGradient x1="50%" y1="0%" x2="50%" y2="100%" id="linearGradient-1">
            <stop stop-color="#FFFFFF" offset="0%"></stop>
            <stop stop-color="#EDEDED" offset="100%"></stop>
        </linearGradient>
        <rect id="path-2" x="-2.84217094e-14" y="0" width="900" height="600" rx="80"></rect>
        <filter x="-6.7%" y="-10.0%" width="113.3%" height="120.0%" filterUnits="objectBoundingBox" id="filter-4">
            <feMorphology radius="2.5" operator="dilate" in="SourceAlpha" result="shadowSpreadOuter1"></feMorphology>
            <feOffset dx="0" dy="0" in="shadowSpreadOuter1" result="shadowOffsetOuter1"></feOffset>
            <feGaussianBlur stdDeviation="17.5" in="shadowOffsetOuter1" result="shadowBlurOuter1"></feGaussianBlur>
            <feColorMatrix values="0 0 0 0 0   0 0 0 0 0   0 0 0 0 0  0 0 0 0.5 0" type="matrix" in="shadowBlurOuter1"></feColorMatrix>
        </filter>
        <polygon id="path-5" points="0 0 45.83024 0 45.83024 45.6440976 0 45.6440976"></polygon>
        <polygon id="path-7" points="0 0 45.83024 0 45.83024 45.6440976 0 45.6440976"></polygon>
        <polygon id="path-9" points="0 0 731.29744 0 731.29744 191.620276 0 191.620276"></polygon>
    </defs>
    <g id="UK-paysafe" stroke="none" stroke-width="1" fill="none" fill-rule="evenodd">
        <g transform="translate(40, 40)">
            <mask id="mask-3" fill="white">
                <use xlink:href="#path-2"></use>
            </mask>
            <g id="Rectangle">
                <use fill="black" fill-opacity="1" filter="url(#filter-4)" xlink:href="#path-2"></use>
                <use fill="url(#linearGradient-1)" fill-rule="evenodd" xlink:href="#path-2"></use>
            </g>
            <g id="Logo" mask="url(#mask-3)">
                <g transform="translate(50, 204)">
                    <g id="Fill-1-Clipped" transform="translate(754.1698, 45.8181)">
                        <mask id="mask-6" fill="white">
                            <use xlink:href="#path-5"></use>
                        </mask>
                        <g id="path-1"></g>
                        <path d="M45.8304,22.8220488 C45.8304,35.4266016 35.5712,45.6440976 22.9152,45.6440976 C10.2608,45.6440976 0,35.4266016 0,22.8220488 C0,10.2174959 10.2608,0 22.9152,0 C35.5712,0 45.8304,10.2174959 45.8304,22.8220488" id="Fill-1" fill="#7887E6" fill-rule="nonzero" mask="url(#mask-6)"></path>
                    </g>
                    <g id="Fill-4-Clipped" transform="translate(754.1698, 117.2415)">
                        <mask id="mask-8" fill="white">
                            <use xlink:href="#path-7"></use>
                        </mask>
                        <g id="path-3"></g>
                        <path d="M45.8304,22.8220488 C45.8304,35.4266016 35.5712,45.6440976 22.9152,45.6440976 C10.2608,45.6440976 0,35.4266016 0,22.8220488 C0,10.2174959 10.2608,0 22.9152,0 C35.5712,0 45.8304,10.2174959 45.8304,22.8220488" id="Fill-4" fill="#FF5073" fill-rule="nonzero" mask="url(#mask-8)"></path>
                    </g>
                    <g id="Fill-7-Clipped">
                        <mask id="mask-10" fill="white">
                            <use xlink:href="#path-9"></use>
                        </mask>
                        <g id="path-5"></g>
                        <path d="M54.36144,78.694 L36.09744,78.694 L36.09744,35.2999186 L54.36144,35.2999186 C67.35664,35.2999186 74.61424,44.2776748 74.61424,57.2200488 C74.61424,71.0356584 66.46864,78.694 54.36144,78.694 L54.36144,78.694 Z M58.33104,8.98811382 L-0.00016,8.98811382 L-0.00016,160.253902 L36.09744,160.253902 L36.09744,105.005805 L58.33104,105.005805 C87.59984,105.005805 109.61904,86.8160488 109.61904,55.8990406 C109.61904,29.1585854 93.10224,8.98811382 58.33104,8.98811382 L58.33104,8.98811382 Z M299.43984,48.4494472 L275.22224,115.256764 L247.41424,48.4494472 L211.36144,48.4494472 L258.84464,154.992179 L244.03344,191.620276 L277.54704,191.620276 L334.43184,48.4494472 L299.43984,48.4494472 Z M559.58704,43.8442438 L559.58704,48.4478536 L540.87824,48.4478536 L540.87824,72.3439186 L559.58704,72.3439186 L559.58704,160.253902 L594.58544,160.253902 L594.58544,72.3439186 L618.79984,72.3439186 L618.79984,48.4478536 L594.58544,48.4478536 L594.58544,42.5296098 C594.58544,32.6642764 598.54864,25.6481138 609.33584,25.6481138 C612.63664,25.6481138 616.81904,26.3062276 619.67984,27.1842438 L619.67984,2.19185366 C614.83664,0.87562602 609.33584,-0.000796748 602.95024,-0.000796748 C574.55664,-0.000796748 559.58704,17.3189106 559.58704,43.8442438 L559.58704,43.8442438 Z M495.57104,135.701317 C492.27024,138.112276 487.20784,140.086618 481.70384,140.086618 C472.89904,140.086618 466.95664,135.043203 466.95664,126.932309 C466.95664,117.725089 474.24144,108.71865 495.57104,112.243463 L495.57104,135.701317 Z M488.74704,45.8185854 C466.95664,45.8185854 449.78704,52.6148454 439.22064,59.1912032 L448.90704,79.1417724 C455.28944,76.291008 468.71664,71.249187 480.16304,71.249187 C488.30704,71.249187 495.57104,74.0983576 495.57104,82.6490568 L495.57104,90.1034308 C447.02544,86.6614796 433.07344,107.933057 433.07344,127.576081 C433.07344,146.771333 449.38864,162.884764 470.86704,162.884764 C479.34224,162.884764 488.53584,159.696179 495.57104,155.29813 L495.57104,160.253902 L530.79024,160.253902 L530.79024,82.4291544 C530.79024,57.2184552 514.72144,45.8185854 488.74704,45.8185854 L488.74704,45.8185854 Z M175.29744,135.701317 C171.99664,138.112276 166.93264,140.086618 161.43024,140.086618 C152.62544,140.086618 146.68144,135.043203 146.68144,126.932309 C146.68144,117.725089 153.96624,108.71865 175.29744,112.243463 L175.29744,135.701317 Z M167.15984,45.8185854 C145.36784,45.8185854 128.19824,52.6148454 117.63344,59.1912032 L127.31824,79.1417724 C133.70224,76.291008 147.12944,71.249187 158.57584,71.249187 C166.71984,71.249187 173.98384,74.0983576 173.98384,82.6490568 L173.98384,90.1034308 C125.43824,86.6614796 111.48464,107.933057 111.48464,127.576081 C111.48464,146.771333 127.79984,162.884764 149.27824,162.884764 C157.75344,162.884764 166.94704,159.696179 173.98384,155.29813 L173.98384,160.253902 L209.20304,160.253902 L209.20304,82.4291544 C209.20304,57.2184552 193.13424,45.8185854 167.15984,45.8185854 L167.15984,45.8185854 Z M370.66544,80.018195 C370.66544,74.7564716 375.94864,71.4690894 384.75344,71.4690894 C393.99824,71.4690894 403.68304,74.7564716 410.72624,77.8255446 L420.63344,54.8074958 C411.38704,50.2038862 397.30064,45.8185854 382.99184,45.8185854 C356.79824,45.8185854 335.66704,57.6582602 335.66704,81.3328292 C335.66704,118.601512 388.49584,111.805252 388.49584,128.246943 C388.49584,134.385089 382.33264,137.454163 371.98704,137.454163 C361.42064,137.454163 351.29584,133.946878 343.37104,130.001382 L332.14544,152.581219 C345.35184,159.595789 360.75984,162.884764 375.06864,162.884764 C400.60144,162.884764 422.61264,149.730455 422.61264,125.617675 C422.61264,88.7872032 370.66544,94.9253496 370.66544,80.018195 L370.66544,80.018195 Z M677.02064,70.3727642 C686.70704,70.3727642 694.41104,78.0454472 695.73104,92.9526016 L658.31184,92.9526016 C659.63184,78.0454472 667.33584,70.3727642 677.02064,70.3727642 L677.02064,70.3727642 Z M731.29744,111.367041 L731.29744,102.633089 C731.29744,69.848504 708.27824,45.8185854 677.02064,45.8185854 C645.76304,45.8185854 621.55184,70.5910732 621.55184,105.010585 C621.55184,140.304927 644.44464,162.884764 680.98224,162.884764 L680.98384,162.884764 C691.16944,162.884764 711.31824,161.053837 726.85424,150.340764 L717.03504,128.607073 C706.50704,134.557187 695.83184,137.235854 686.26704,137.235854 C677.06384,137.516309 667.36464,133.660049 662.55504,125.515691 C660.33424,121.796472 658.86064,117.117967 658.31184,111.368634 L658.31184,111.367041 L658.31184,111.367041 L731.29744,111.367041 Z" id="Fill-7" fill="#2D2341" fill-rule="nonzero" mask="url(#mask-10)"></path>
                    </g>
                </g>
            </g>
        </g>
    </g>
</svg>