<?xml version="1.0" encoding="UTF-8"?>
<svg width="980px" height="680px" viewBox="0 0 980 680" version="1.1" xmlns="http://www.w3.org/2000/svg" xmlns:xlink="http://www.w3.org/1999/xlink">
    <title>UK solo</title>
    <defs>
        <rect id="path-1" x="-2.84217094e-14" y="0" width="900" height="600" rx="80"></rect>
        <filter x="-6.7%" y="-10.0%" width="113.3%" height="120.0%" filterUnits="objectBoundingBox" id="filter-2">
            <feMorphology radius="2.5" operator="dilate" in="SourceAlpha" result="shadowSpreadOuter1"></feMorphology>
            <feOffset dx="0" dy="0" in="shadowSpreadOuter1" result="shadowOffsetOuter1"></feOffset>
            <feGaussianBlur stdDeviation="17.5" in="shadowOffsetOuter1" result="shadowBlurOuter1"></feGaussianBlur>
            <feColorMatrix values="0 0 0 0 0   0 0 0 0 0   0 0 0 0 0  0 0 0 0.5 0" type="matrix" in="shadowBlurOuter1"></feColorMatrix>
        </filter>
    </defs>
    <g id="UK-solo" stroke="none" stroke-width="1" fill="none" fill-rule="evenodd">
        <g transform="translate(40, 40)">
            <g id="Rectangle">
                <use fill="black" fill-opacity="1" filter="url(#filter-2)" xlink:href="#path-1"></use>
                <use fill="#992685" fill-rule="evenodd" xlink:href="#path-1"></use>
            </g>
            <g id="Logo" transform="translate(253, 50)">
                <path d="M220.699105,185.814395 C236.96922,227.776652 230.782326,257.636682 201.86686,278.01565 C190.05981,286.363235 176.469895,290.235947 162.159751,289.763665 C139.136003,288.9844 121.09483,277.992036 107.363231,259.372318 C97.1147113,266.291249 87.5864218,272.726092 77.3969376,279.633216 C99.877561,311.524058 129.725784,328.030315 167.343046,326.743346 C208.83302,325.350114 240.25158,305.289936 258.233718,267.495568 C274.503833,233.420422 271.622913,199.652258 251.586348,166.073008 C240.346037,173.263501 230.4045,179.603887 220.699105,185.814395 Z M394.250935,194.268243 C395.266342,304.581513 307.929592,393.004512 197.155847,393.854619 C89.7234979,394.681113 0.296900054,305.809446 0.000859564213,197.869394 C-0.317066554,88.8903207 87.5982289,0.703463132 197.22669,0.0034051116 C304.045072,-0.630733535 393.329986,87.3908254 394.250935,194.268243 Z M379.645614,199.309854 C381.404865,98.6665583 301.175959,16.454068 199.056782,14.1871144 C100.054667,12.0028101 16.6260504,93.3297716 14.7605365,193.795961 C12.8596014,295.619962 93.3010341,378.033172 196.258511,379.816036 C295.189785,381.516252 377.86275,300.153869 379.645614,199.309854 Z M301.943417,439.949343 C307.197555,444.990953 309.865948,451.626516 309.865948,459.891451 C309.865948,466.786768 308.142119,473.445944 304.706267,479.892594 C301.246801,486.362857 296.606631,491.321818 290.72672,494.804898 C284.823195,498.264364 278.164018,500 270.760998,500 C264.302541,500 258.90672,498.630382 254.50269,495.843918 C250.157695,493.092876 247.052441,489.668831 245.245963,485.571785 C243.41587,481.474738 242.518534,477.365885 242.518534,473.197996 C242.518534,469.348898 243.108886,465.263658 244.33682,461.001313 C245.942578,455.286701 248.386638,450.292319 251.680805,446.077202 C254.963165,441.850278 259.119246,438.497076 264.113629,436.041209 C269.119818,433.608957 274.810816,432.35741 281.210237,432.35741 C289.782156,432.428252 296.665666,434.931347 301.943417,439.949343 Z M295.662067,460.127592 C295.662067,455.003332 294.2098,450.988935 291.281651,448.060786 C288.329889,445.132638 284.622475,443.680371 280.100375,443.680371 C273.134215,443.680371 267.490445,446.738397 263.121836,452.842642 C258.765035,458.970501 256.568924,465.700519 256.568924,472.973662 C256.568924,477.460341 257.997577,481.203176 260.902111,484.249395 C263.783031,487.272 267.596708,488.806916 272.35495,488.806916 C276.168627,488.806916 279.876041,487.59079 283.429963,485.205766 C286.960271,482.820742 289.888419,479.195978 292.202601,474.331473 C294.493169,469.466968 295.662067,464.767762 295.662067,460.127592 Z M217.192411,433.538115 L203.012144,433.538115 L188.501279,498.866523 L237.97282,498.866523 L240.369651,487.956809 L205.172834,487.956809 L217.192411,433.538115 Z M83.5602177,443.090018 C87.5510007,443.090018 90.5736055,443.904705 92.6280323,445.581306 C94.6706519,447.2461 95.863164,449.642931 96.2055684,452.736378 L109.866325,452.146026 C109.417658,446.195272 106.973598,441.40161 102.510533,437.812267 C98.0710824,434.211117 91.7779246,432.416445 83.6546741,432.416445 C75.6494941,432.416445 69.5688633,434.211117 65.3537464,437.847688 C61.1386295,441.484259 59.0133605,446.018167 59.0133605,451.532059 C59.0133605,454.684542 59.7335905,457.41197 61.1386295,459.761573 C62.5554755,462.087562 64.5036388,463.988497 66.9595052,465.464378 C69.4271787,466.94026 73.3589264,468.758545 78.7311342,470.966464 C84.0797279,473.186189 87.3738949,474.756527 88.566407,475.736512 C90.2784293,477.058902 91.1167298,478.700082 91.1167298,480.636438 C91.1167298,482.856163 90.0659024,484.768905 87.9996686,486.327436 C85.9216278,487.897774 82.5448114,488.688846 77.9046407,488.688846 C72.2844848,488.688846 68.4590006,487.508141 66.3691527,485.205766 C65.1057983,483.777113 64.3501471,481.02607 64.1730414,476.988059 L50.6067408,477.661061 C50.4886703,482.017863 51.3269708,485.866961 53.1216424,489.255584 C54.9281211,492.585173 57.9861471,495.229952 62.3311416,497.11908 C66.7115572,498.972787 71.8358169,499.917351 77.7865702,499.917351 C86.4175239,499.917351 93.1475425,497.886538 97.988433,493.777685 C102.817517,489.716059 105.226155,484.804326 105.226155,479.018872 C105.226155,474.34328 103.596782,470.553217 100.36165,467.542419 C98.1891529,465.523414 93.1357354,462.902248 85.1659766,459.678924 C79.8764181,457.494619 76.4641806,455.794404 74.917457,454.542857 C73.3707335,453.314924 72.6268893,451.7682 72.6268893,449.890879 C72.6268893,447.907295 73.4533828,446.230694 75.141791,444.920111 C76.8183921,443.727599 79.616663,443.090018 83.5602177,443.090018 Z M176.835914,439.949343 C182.125472,444.990953 184.746638,451.626516 184.746638,459.891451 C184.746638,466.786768 183.022808,473.445944 179.622378,479.892594 C176.186526,486.362857 171.510934,491.321818 165.631023,494.804898 C159.762919,498.264364 153.080129,500 145.665302,500 C139.218652,500 133.799216,498.630382 129.430608,495.843918 C125.050192,493.092876 121.944938,489.668831 120.126652,485.571785 C118.308366,481.474738 117.399223,477.365885 117.399223,473.197996 C117.399223,469.348898 118.024997,465.263658 119.229316,461.001313 C120.835075,455.286701 123.290941,450.292319 126.573301,446.077202 C129.867468,441.850278 134.02355,438.497076 139.029739,436.041209 C144.024122,433.608957 149.726927,432.35741 156.090927,432.35741 C164.662845,432.428252 171.56997,434.931347 176.835914,439.949343 Z M170.554563,460.127592 C170.554563,455.003332 169.102296,450.988935 166.174148,448.060786 C163.245999,445.132638 159.514971,443.668564 154.992871,443.668564 C148.038519,443.668564 142.382942,446.72659 138.002526,452.830835 C133.657532,458.958694 131.46142,465.688712 131.46142,472.961855 C131.46142,477.436727 132.925494,481.191369 135.818222,484.237588 C138.710949,487.260193 142.501012,488.795109 147.247446,488.795109 C151.072931,488.795109 154.768537,487.578983 158.310652,485.193959 C161.876381,482.797128 164.780916,479.184171 167.083291,474.319666 C169.397472,469.466968 170.554563,464.767762 170.554563,460.127592 Z" id="Shape" fill="#FFFFFF" fill-rule="nonzero"></path>
                <path d="M320.456872,122.882818 C310.668827,129.553801 300.762712,136.272013 291.04551,142.883961 C255.140271,109.859642 225.032293,104.357556 196.057792,124.67749 C173.872344,140.215568 154.697695,174.975523 177.579758,216.93778 C167.36666,223.41985 157.63765,229.58313 147.932255,235.734603 C119.300159,197.586024 122.865888,128.786343 176.469895,92.6921909 C223.910623,60.7659273 293.147165,74.8871592 320.456872,122.882818 Z" id="Path" fill="#000000"></path>
            </g>
        </g>
    </g>
</svg>