<?xml version="1.0" encoding="UTF-8"?>
<svg width="980px" height="680px" viewBox="0 0 980 680" version="1.1" xmlns="http://www.w3.org/2000/svg" xmlns:xlink="http://www.w3.org/1999/xlink">
    <title>UK sage pay</title>
    <defs>
        <linearGradient x1="50%" y1="0%" x2="50%" y2="100%" id="linearGradient-1">
            <stop stop-color="#FFFFFF" offset="0%"></stop>
            <stop stop-color="#EDEDED" offset="100%"></stop>
        </linearGradient>
        <rect id="path-2" x="-2.84217094e-14" y="0" width="900" height="600" rx="80"></rect>
        <filter x="-6.7%" y="-10.0%" width="113.3%" height="120.0%" filterUnits="objectBoundingBox" id="filter-3">
            <feMorphology radius="2.5" operator="dilate" in="SourceAlpha" result="shadowSpreadOuter1"></feMorphology>
            <feOffset dx="0" dy="0" in="shadowSpreadOuter1" result="shadowOffsetOuter1"></feOffset>
            <feGaussianBlur stdDeviation="17.5" in="shadowOffsetOuter1" result="shadowBlurOuter1"></feGaussianBlur>
            <feColorMatrix values="0 0 0 0 0   0 0 0 0 0   0 0 0 0 0  0 0 0 0.5 0" type="matrix" in="shadowBlurOuter1"></feColorMatrix>
        </filter>
        <polygon id="path-4" points="0 0 419.794321 0 419.794321 178.729905 0 178.729905"></polygon>
    </defs>
    <g id="UK-sage-pay" stroke="none" stroke-width="1" fill="none" fill-rule="evenodd">
        <g transform="translate(40, 40)">
            <g id="Rectangle">
                <use fill="black" fill-opacity="1" filter="url(#filter-3)" xlink:href="#path-2"></use>
                <use fill="url(#linearGradient-1)" fill-rule="evenodd" xlink:href="#path-2"></use>
            </g>
            <g id="Logo" transform="translate(50, 209)">
                <g id="Group-3" transform="translate(0, 2.9792)">
                    <mask id="mask-5" fill="white">
                        <use xlink:href="#path-4"></use>
                    </mask>
                    <g id="Clip-2"></g>
                    <path d="M331.443074,53.917431 C331.443074,46.372163 333.327936,40.3362396 336.425222,35.6422795 C342.613972,26.2820135 353.649509,22.2692233 364.260042,22.2909671 C374.704649,22.3157991 385.468009,26.2543591 391.870716,34.8330262 C395.487612,39.6725355 397.71597,45.9922797 397.71597,53.917431 L331.443074,53.917431 Z M74.9156042,51.7472932 C61.0898902,50.9715162 48.3718053,50.6906063 41.462587,44.8846506 C37.4861842,41.5428421 38.2750606,31.9249541 43.8481377,28.4390519 C51.864985,23.4263391 61.5672915,23.5951761 67.1592899,23.8993738 C78.4786475,24.5121358 91.5154851,28.3997536 101.778156,35.5782378 L113.791783,23.8993738 C113.791783,23.8993738 126.472025,36.0978483 126.472025,35.5782378 C141.259819,24.7653913 146.477756,24.737737 160.252528,24.7493809 C179.088044,24.7653913 184.495195,28.6064334 187.263539,32.9525311 C189.015951,35.6946771 187.285372,52.4386516 187.285372,52.4386516 C187.285372,52.4386516 170.657837,52.975728 158.664587,52.3440447 C149.135484,51.8433556 143.805474,51.8055128 134.219606,53.4473073 C125.651128,54.9158982 119.760754,57.5459714 113.791783,62.7406206 C113.791783,62.7406206 108.683008,58.989819 103.117208,56.3160811 C92.9971754,51.4561949 85.7546496,52.3556886 74.9156042,51.7472932 L74.9156042,51.7472932 Z M177.337087,103.241128 C171.130871,105.280271 161.208786,106.318037 150.644828,104.98044 C141.853659,103.8699 133.483128,103.216384 130.058356,94.9229937 C128.20406,90.4298914 128.592676,86.3050284 131.478916,82.4668973 C136.012772,76.4367959 146.508321,75.2680362 152.803322,75.1981726 L187.285372,75.1981726 C188.203787,84.6283022 191.079838,98.7276486 177.337087,103.241128 L177.337087,103.241128 Z M230.190351,62.9982426 C230.429052,56.0904799 231.052002,48.7024049 231.755004,41.4453242 C232.0985,37.9055688 236.16951,33.6293347 241.895414,30.3515678 C247.092974,27.3779986 253.657241,25.2267821 260.027927,25.1898735 C264.874714,25.164196 269.849584,26.1262759 274.249535,27.906342 C281.922886,31.003628 287.870025,36.579616 288.485698,43.71298 C289.053339,50.3558433 289.706855,56.6392002 290.00232,62.6605686 C290.370559,70.1825488 290.194445,77.2999024 288.637069,84.1960212 C287.640057,88.5901501 285.564526,92.3176639 281.275193,95.8865291 C276.429861,99.9138742 268.923891,103.491472 260.027927,102.968951 C247.580564,102.238294 236.45042,97.0581998 233.161009,89.8171295 C230.397031,83.7200755 229.814834,73.9639158 230.190351,62.9982426 L230.190351,62.9982426 Z M419.794321,54.2682045 C419.794321,35.5112852 405.93222,0.509625046 361.105992,0.366986877 C341.663536,0.305856233 327.011103,9.31680426 320.273632,15.2508432 L320.273632,1.94182871 L290.290507,1.9258183 L290.290507,15.2508432 C282.944641,8.587603 274.016656,2.57496752 265.034818,1.15440779 C255.485338,-0.357847902 245.935858,0.0918989787 234.126,3.8310567 C224.305799,6.93853111 218.044274,11.5276959 211.982152,18.7090911 C199.46638,4.0028047 179.690617,1.06416732 163.929099,0.461593826 C145.984344,-0.225398174 127.889674,2.09902179 113.791783,12.9118683 C100.201858,5.6169448 83.028514,-0.111869835 63.967397,4.5690448e-14 C47.2059566,0.102087419 31.1475186,4.06830182 19.7713969,14.3833703 C15.6698217,18.1050621 13.8271695,21.0582544 11.7953033,26.3358666 C7.76941376,36.7877513 9.4446845,48.859598 13.9334204,55.1589653 C22.3054076,66.9091484 31.6802285,71.4735698 48.5231764,73.4603157 C63.3167923,75.2069056 73.6755255,75.211272 84.6208217,77.3290122 C89.7936386,78.3289349 94.538541,82.3460915 94.538541,88.3019628 C94.538541,95.2504793 85.2816149,106.638245 62.9354535,105.109979 C44.3168059,103.84079 37.2838709,101.085545 19.7713969,89.1272265 L0,105.907588 C0,105.907588 3.37382935,108.735608 5.67205047,110.320639 C7.88585308,111.847449 10.1884407,113.28693 12.5638028,114.627438 L12.6220225,114.627438 C32.5608009,125.923508 57.7961129,130.646578 80.6385969,126.809902 C91.8444261,124.920674 102.475336,120.977748 111.621645,114.733689 C119.015542,120.041866 128.784801,129.14451 152.433627,128.029604 C167.318939,127.325146 178.369031,127.886966 188.705932,115.413403 L188.705932,127.878233 L217.66148,127.878233 L217.654203,115.413403 C217.654203,115.413403 222.220079,119.289377 225.430894,121.3096 C243.819574,132.893857 273.067676,128.512827 290.361826,114.694391 L290.40258,130.821237 C289.907713,140.770977 281.203873,147.582677 272.053198,151.417897 C256.250927,158.038928 241.856116,152.104889 228.999759,142.585975 L207.058224,157.987986 C212.980619,164.21749 218.396503,167.854763 226.835443,171.914129 C250.567232,183.31936 278.329278,179.430287 297.485002,167.502534 C310.115757,159.632691 315.003298,149.985694 318.052552,135.15569 C319.67397,127.269837 319.834074,121.497358 320.081508,114.598328 C320.088785,114.39747 320.088785,114.216989 320.097518,114.040875 C320.352229,114.228633 320.608395,114.414936 320.855829,114.598328 C326.964527,119.073965 332.370222,122.39103 340.633048,125.031291 C353.975539,129.287149 369.15486,129.479273 386.098237,124.837711 C393.98409,122.673395 400.941339,119.216603 407.157743,114.598328 L407.169387,114.598328 C410.531573,112.08615 413.67689,109.242119 416.640271,106.083703 L397.71597,91.9406916 C391.30453,97.4322611 381.762327,102.971862 370.88835,104.414254 C358.327458,106.083703 344.082563,103.702519 336.369913,94.9229937 C332.201385,90.1810024 330.748805,88.687668 330.748805,76.668219 L419.794321,76.7730144 L419.794321,54.2682045 Z" id="Fill-1" fill="#009986" mask="url(#mask-5)"></path>
                </g>
                <path d="M452.595569,3.69010766 L466.862297,3.69010766 L466.862297,27.7959583 C470.634931,19.1037629 476.579158,12.29934 484.696435,7.37977867 C492.813711,2.46021732 502.118668,0.000436647457 512.614217,0.000436647457 C531.145536,0.000436647457 545.288547,6.34346871 555.046162,19.0295328 C564.803777,31.7141415 569.681129,47.7143598 569.681129,67.0287323 C569.681129,86.1786343 564.763023,102.138099 554.922445,114.907126 C545.083322,127.673242 530.979609,134.058483 512.614217,134.058483 C502.610624,134.058483 493.592399,131.659833 485.558085,126.865444 C477.520861,122.0696 471.863366,115.284098 468.584143,106.507484 L468.092187,177.350623 L452.595569,177.350623 L452.595569,3.69010766 Z M512.614217,13.0372742 C496.873077,13.0372742 485.515876,18.0674529 478.546983,28.1307213 C471.578089,38.1925342 468.092187,51.1580527 468.092187,67.0287323 C468.092187,82.0828811 471.700351,94.8446308 478.915222,105.315437 C486.130094,115.786243 497.363577,121.021646 512.614217,121.021646 C526.225974,121.021646 536.557053,115.662526 543.607454,104.947197 C550.65931,94.2304134 554.185966,81.590925 554.185966,67.0287323 C554.185966,52.3035246 550.700064,39.6232824 543.729715,28.9894613 C536.760822,18.3541848 526.388989,13.0372742 512.614217,13.0372742 L512.614217,13.0372742 Z" id="Fill-4" fill="#6F7982"></path>
                <path d="M582.414351,42.5542057 C582.414351,28.2874778 587.130144,17.6289133 596.560273,10.5770569 C605.987492,3.52665596 618.410112,0 633.825223,0 C647.435524,0 658.626798,2.95173681 667.401957,8.85521043 C676.174204,14.7586841 680.561056,25.418704 680.561056,40.8323592 L680.561056,108.23035 C680.561056,114.461309 683.5943,117.577516 689.662244,117.577516 C691.302583,117.577516 692.941466,117.250031 694.58035,116.593604 L694.58035,129.630442 C691.465598,130.285413 688.103413,130.614354 684.496705,130.614354 C677.115907,130.614354 672.238555,128.851754 669.860282,125.325098 C667.482009,121.799897 666.294328,116.184611 666.294328,108.476328 C660.061913,117.408679 653.625729,123.905993 646.984322,127.966815 C640.342914,132.027636 631.202427,134.058047 619.558495,134.058047 C607.095121,134.058047 596.886303,130.947661 588.932042,124.731257 C580.980692,118.513397 577.002834,109.26666 577.002834,96.9910442 C577.002834,85.862356 580.037533,77.6373734 586.104022,72.3204628 C592.171966,67.0020968 599.14086,63.5234721 607.012158,61.8874996 C614.884912,60.2500716 624.641071,58.7363605 636.285003,57.346366 C647.928936,55.9563716 655.635763,54.524168 659.405486,53.0512106 C663.17812,51.5767976 665.064437,46.9134028 665.064437,39.0566596 C665.064437,29.2393692 662.153454,22.4480458 656.331488,18.6826892 C650.509522,14.9187881 642.351492,13.0368376 631.857398,13.0368376 C621.689334,13.0368376 613.492006,15.4558645 607.259591,20.2939183 C601.027177,25.1305167 597.910969,32.5506124 597.910969,42.5542057 L582.414351,42.5542057 Z M665.064437,61.2485388 C664.24354,62.5555702 662.850635,63.6166235 660.88281,64.4331543 C658.914986,65.249685 653.584976,66.4329996 644.894236,67.9845536 C636.20204,69.5361076 625.297498,71.4544454 612.177697,73.7439336 C599.060808,77.8236763 592.500907,85.2568715 592.500907,96.0347862 C592.500907,103.548033 595.288174,109.591234 600.864162,114.161478 C606.438694,118.734632 613.080102,121.021209 620.788385,121.021209 C633.085833,121.021209 643.540629,117.386847 652.149861,110.119578 C660.759093,102.852309 665.064437,93.2562529 665.064437,81.3343219 L665.064437,61.2485388 Z" id="Fill-6" fill="#6F7982"></path>
                <path d="M687.096067,3.69010766 L703.759989,3.61733308 L745.439445,111.576961 L784.491738,3.68574119 L800,3.69010766 L744.893635,150.042691 C740.480585,160.771119 736.149042,168.003457 731.900463,171.74407 C727.650427,175.481772 720.867837,177.350623 711.552691,177.350623 C705.829698,177.350623 701.907149,177.021682 699.783587,176.365256 L699.783587,163.329874 C703.867696,163.984845 707.381252,164.313786 710.321345,164.313786 C717.510018,164.313786 722.410658,162.277553 725.026176,158.207999 C727.638783,154.138445 730.089831,149.57839 732.374953,144.5322 L737.769004,130.122834 L687.096067,3.69010766 Z" id="Fill-8" fill="#6F7982"></path>
            </g>
        </g>
    </g>
</svg>