<?xml version="1.0" encoding="UTF-8"?>
<svg width="980px" height="680px" viewBox="0 0 980 680" version="1.1" xmlns="http://www.w3.org/2000/svg" xmlns:xlink="http://www.w3.org/1999/xlink">
    <title>UK sage pay alt</title>
    <defs>
        <linearGradient x1="50%" y1="0%" x2="50%" y2="100%" id="linearGradient-1">
            <stop stop-color="#FFFFFF" offset="0%"></stop>
            <stop stop-color="#EDEDED" offset="100%"></stop>
        </linearGradient>
        <rect id="path-2" x="-2.84217094e-14" y="0" width="900" height="600" rx="80"></rect>
        <filter x="-6.7%" y="-10.0%" width="113.3%" height="120.0%" filterUnits="objectBoundingBox" id="filter-3">
            <feMorphology radius="2.5" operator="dilate" in="SourceAlpha" result="shadowSpreadOuter1"></feMorphology>
            <feOffset dx="0" dy="0" in="shadowSpreadOuter1" result="shadowOffsetOuter1"></feOffset>
            <feGaussianBlur stdDeviation="17.5" in="shadowOffsetOuter1" result="shadowBlurOuter1"></feGaussianBlur>
            <feColorMatrix values="0 0 0 0 0   0 0 0 0 0   0 0 0 0 0  0 0 0 0.5 0" type="matrix" in="shadowBlurOuter1"></feColorMatrix>
        </filter>
        <polygon id="path-4" points="0 0 393.557176 0 393.557176 167.559286 0 167.559286"></polygon>
    </defs>
    <g id="UK-sage-pay-alt" stroke="none" stroke-width="1" fill="none" fill-rule="evenodd">
        <g transform="translate(40, 40)">
            <g id="Rectangle">
                <use fill="black" fill-opacity="1" filter="url(#filter-3)" xlink:href="#path-2"></use>
                <use fill="url(#linearGradient-1)" fill-rule="evenodd" xlink:href="#path-2"></use>
            </g>
            <path d="M820,0 C864.18278,0 900,35.81722 900,80 L900,520 C900,564.18278 864.18278,600 820,600 L80,600 C35.81722,600 0,564.18278 0,520 L0,80 C0,35.81722 35.81722,0 80,0 L820,0 Z M80,30 C52.3857625,30 30,52.3857625 30,80 L30,520 C30,547.614237 52.3857625,570 80,570 L820,570 C847.614237,570 870,547.614237 870,520 L870,80 C870,52.3857625 847.614237,30 820,30 L80,30 Z" id="Rectangle" fill="#009986" fill-rule="nonzero"></path>
            <g id="Logo" transform="translate(75, 215)">
                <g id="Group-3" transform="translate(0, 2.793)">
                    <mask id="mask-5" fill="white">
                        <use xlink:href="#path-4"></use>
                    </mask>
                    <g id="Clip-2"></g>
                    <path d="M310.727882,50.5475916 C310.727882,43.4739028 312.49494,37.8152246 315.398645,33.414637 C321.200599,24.6393876 331.546414,20.8773969 341.493789,20.8977817 C351.285608,20.9210616 361.376258,24.6134617 367.378796,32.655962 C370.769637,37.193002 372.858722,43.1177622 372.858722,50.5475916 L310.727882,50.5475916 Z M70.233379,48.5130873 C57.2717721,47.7857964 45.3485675,47.5224434 38.8711754,42.07936 C35.1432977,38.9464145 35.8828693,29.9296445 41.107629,26.6616112 C48.6234234,21.9621929 57.7193358,22.1204776 62.9618343,22.405663 C73.573732,22.9801273 85.7957672,26.624769 95.4170211,33.354598 L106.679796,22.405663 C106.679796,22.405663 118.567523,33.8417328 118.567523,33.354598 C132.43108,23.2175543 137.322896,23.1916284 150.236745,23.2025446 C167.895041,23.2175543 172.964245,26.8185313 175.559568,30.8929979 C177.202454,33.4637598 175.580036,49.1612359 175.580036,49.1612359 C175.580036,49.1612359 159.991722,49.664745 148.74805,49.0725419 C139.814516,48.6031459 134.817631,48.5676683 125.830881,50.1068506 C117.797932,51.4836546 112.275706,53.9493482 106.679796,58.8193319 C106.679796,58.8193319 101.89032,55.3029553 96.6723825,52.796326 C87.184852,48.2401827 80.394984,49.0834581 70.233379,48.5130873 L70.233379,48.5130873 Z M166.253519,96.7885573 C160.435192,98.7002545 151.133237,99.6731596 141.229526,98.4191627 C132.987806,97.3780314 125.140432,96.7653604 121.929709,88.9903066 C120.191306,84.7780232 120.555634,80.9109641 123.261484,77.3127162 C127.511974,71.6594961 137.351551,70.5637839 143.253115,70.4982868 L175.580036,70.4982868 C176.44105,79.3390333 179.137348,92.5571705 166.253519,96.7885573 L166.253519,96.7885573 Z M215.803454,59.0608525 C216.027236,52.5848249 216.611252,45.6585046 217.270317,38.8549914 C217.592344,35.5364707 221.408916,31.5275013 226.77695,28.4545948 C231.649663,25.6668737 237.803663,23.6501082 243.776182,23.6155064 C248.320044,23.5914337 252.983985,24.4933836 257.108939,26.1621956 C264.302706,29.0659012 269.878148,34.29339 270.455341,40.9809187 C270.987506,47.2086031 271.600176,53.0992502 271.877175,58.7442831 C272.222399,65.7961395 272.057292,72.4686585 270.597252,78.9337699 C269.662553,83.0532657 267.716743,86.5478099 263.695493,89.8936211 C259.152995,93.669257 252.116148,97.0232553 243.776182,96.5333915 C232.106778,95.8484008 221.672269,90.9920623 218.588446,84.2035589 C215.997216,78.4875708 215.451407,69.3411711 215.803454,59.0608525 L215.803454,59.0608525 Z M393.557176,50.8764417 C393.557176,33.2918299 380.561456,0.477773481 338.536867,0.344050197 C320.309565,0.286740218 306.572909,8.73450399 300.25653,14.2976655 L300.25653,1.82046441 L272.14735,1.80545466 L272.14735,14.2976655 C265.260601,8.05087782 256.890615,2.41403205 248.470142,1.0822573 C239.517505,-0.335482408 230.564867,0.0861552925 219.493125,3.59161566 C210.286686,6.50487291 204.416507,10.8072149 198.733268,17.5397729 C186.999732,3.75262941 168.459954,0.997656859 153.683531,0.432744212 C136.860323,-0.211310788 119.896569,1.96783293 106.679796,12.1048766 C93.9392423,5.26588575 77.8392319,-0.10487797 59.9694347,6.03961325e-14 C44.2555843,0.0957069557 29.2007987,3.81403296 18.5356846,13.4844096 C14.6904579,16.9734957 12.9629714,19.7421135 11.0580969,24.689875 C7.2838254,34.4885168 8.85439172,45.8058731 13.0625816,51.71153 C20.9113196,62.7273266 29.7002142,67.0064717 45.4904779,68.869046 C59.3594928,70.506474 69.0708051,70.5105675 79.3320204,72.4959489 C84.1815362,73.4333764 88.6298822,77.1994608 88.6298822,82.7830901 C88.6298822,89.2973244 79.9515139,99.9733547 59.0019877,98.5406052 C41.5470056,97.3507409 34.9536289,94.7676983 18.5356846,83.5567748 L0,99.288364 C0,99.288364 3.16296502,101.939633 5.31754731,103.425599 C7.39298726,104.856984 9.55166313,106.206497 11.7785652,107.463223 L11.8331461,107.463223 C30.5257508,118.053288 54.1838559,122.481167 75.5986846,118.884283 C86.1041495,117.113132 96.0706277,113.416638 104.645292,107.562833 C111.577071,112.53925 120.735751,121.072979 142.906526,120.027754 C156.861505,119.367324 167.220966,119.89403 176.911811,108.200066 L176.911811,119.885843 L204.057637,119.885843 L204.050815,108.200066 C204.050815,108.200066 208.331324,111.833791 211.341463,113.72775 C228.58085,124.587991 256.000946,120.480775 272.214212,107.525991 L272.252419,122.644909 C271.788481,131.972791 263.628631,138.35876 255.049873,141.954279 C240.235244,148.161495 226.740108,142.598334 214.687274,133.674351 L194.117085,148.113737 C199.669331,153.953897 204.746722,157.36384 212.658228,161.169496 C234.90678,171.8619 260.933698,168.215894 278.892189,157.033626 C290.733522,149.655648 295.315591,140.611588 298.174268,126.70846 C299.694347,119.315473 299.844444,113.903773 300.076413,107.435933 C300.083236,107.247628 300.083236,107.078428 300.091423,106.91332 C300.330215,107.089344 300.570371,107.264003 300.80234,107.435933 C306.529244,111.631842 311.597084,114.74159 319.343482,117.216836 C331.852067,121.206702 346.082681,121.386819 361.967097,117.035354 C369.360084,115.006308 375.882505,111.765565 381.710384,107.435933 L381.721301,107.435933 C384.873349,105.080765 387.822084,102.414487 390.600254,99.4534713 L372.858722,86.1943984 C366.847997,91.3427448 357.902182,96.5361205 347.707828,97.8883631 C335.931992,99.4534713 322.577403,97.2211112 315.346794,88.9903066 C311.438799,84.5446897 310.077005,83.1446888 310.077005,71.8764554 L393.557176,71.974701 L393.557176,50.8764417 Z" id="Fill-1" fill="#009986" mask="url(#mask-5)"></path>
                </g>
                <path d="M424.308346,3.45947593 L437.683403,3.45947593 L437.683403,26.0587109 C441.220248,17.9097777 446.792961,11.5306313 454.402907,6.91854251 C462.012854,2.30645374 470.736251,0.000409356991 480.575829,0.000409356991 C497.94894,0.000409356991 511.208012,5.94700191 520.355777,17.840187 C529.503541,29.7320076 534.076059,44.7322123 534.076059,62.8394365 C534.076059,80.7924697 529.465334,95.7544677 520.239792,107.725431 C511.015615,119.693665 497.793384,125.679828 480.575829,125.679828 C471.19746,125.679828 462.742874,123.431094 455.210705,118.936354 C447.675807,114.44025 442.371905,108.078842 439.297634,99.8507666 L438.836425,166.266209 L424.308346,166.266209 L424.308346,3.45947593 Z M480.575829,12.2224446 C465.818509,12.2224446 455.171134,16.9382371 448.637796,26.3725512 C442.104459,35.8055008 438.836425,47.9606744 438.836425,62.8394365 C438.836425,76.9527011 442.219079,88.9168414 448.983021,98.733222 C455.746963,108.549603 466.278354,113.457793 480.575829,113.457793 C493.336851,113.457793 503.022237,108.433618 509.631988,98.3879977 C516.243103,88.3410126 519.549343,76.4914922 519.549343,62.8394365 C519.549343,49.0345543 516.28131,37.1468273 509.746608,27.17762 C503.21327,17.2070482 493.489677,12.2224446 480.575829,12.2224446 L480.575829,12.2224446 Z" id="Fill-4" fill="#6F7982"></path>
                <path d="M546.013454,39.8945678 C546.013454,26.5195104 550.43451,16.5271063 559.275256,9.91599085 C568.113274,3.30623997 579.75948,0 594.211146,0 C606.970804,0 617.462623,2.76725326 625.689334,8.30175978 C633.913316,13.8362663 638.02599,23.830035 638.02599,38.2803368 L638.02599,101.465953 C638.02599,107.307477 640.869656,110.228922 646.558354,110.228922 C648.096172,110.228922 649.632625,109.921904 651.169078,109.306504 L651.169078,121.528539 C648.248998,122.142574 645.096949,122.450957 641.715661,122.450957 C634.796163,122.450957 630.223645,120.798519 627.994014,117.492279 C625.764383,114.187404 624.650932,108.923073 624.650932,101.696557 C618.808043,110.070637 612.774121,116.161869 606.547802,119.968889 C600.321482,123.775909 591.752275,125.679419 580.836089,125.679419 C569.151676,125.679419 559.580909,122.763433 552.12379,116.935554 C544.669399,111.10631 540.940157,102.437493 540.940157,90.9291039 C540.940157,80.4959587 543.785188,72.7850375 549.472521,67.8004339 C555.161218,62.8144658 561.694556,59.5532551 569.073898,58.0195309 C576.454605,56.4844422 585.601004,55.0653379 596.517191,53.7622182 C607.433377,52.4590984 614.658528,51.1164075 618.192643,49.7355099 C621.729488,48.3532478 623.49791,43.9813151 623.49791,36.6156183 C623.49791,27.4119086 620.768863,21.0450429 615.31077,17.5150211 C609.852677,13.9863639 602.204524,12.2220352 592.366311,12.2220352 C582.833751,12.2220352 575.148756,14.489873 569.305867,19.0255484 C563.462978,23.5598594 560.541534,30.5161992 560.541534,39.8945678 L546.013454,39.8945678 Z M623.49791,57.4205051 C622.728319,58.6458471 621.42247,59.6405846 619.577635,60.4060821 C617.732799,61.1715797 612.735915,62.2809372 604.588346,63.735519 C596.439413,65.1901008 586.216404,66.9885426 573.916591,69.1349377 C561.619507,72.9596965 555.469601,79.928317 555.469601,90.0326121 C555.469601,97.0762814 558.082663,102.741782 563.310152,107.026385 C568.536276,111.313718 574.762596,113.457384 581.989111,113.457384 C593.517968,113.457384 603.319339,110.050169 611.390495,103.237104 C619.46165,96.4240393 623.49791,87.4277371 623.49791,76.2509267 L623.49791,57.4205051 Z" id="Fill-6" fill="#6F7982"></path>
                <path d="M644.152563,3.45947593 L659.77499,3.39124977 L698.849479,104.603401 L735.461004,3.45538236 L750,3.45947593 L698.337783,140.665023 C694.200549,150.722924 690.139727,157.503241 686.156684,161.010066 C682.172276,164.514161 675.813597,166.266209 667.080648,166.266209 C661.715342,166.266209 658.037952,165.957827 656.047112,165.342427 L656.047112,153.121756 C659.875965,153.735792 663.169924,154.044174 665.926261,154.044174 C672.665642,154.044174 677.259992,152.135206 679.71204,148.319999 C682.161359,144.504792 684.459217,140.22974 686.601518,135.498938 L691.658442,121.990157 L644.152563,3.45947593 Z" id="Fill-8" fill="#6F7982"></path>
            </g>
        </g>
    </g>
</svg>