<?xml version="1.0" encoding="UTF-8"?>
<svg width="980px" height="680px" viewBox="0 0 980 680" version="1.1" xmlns="http://www.w3.org/2000/svg" xmlns:xlink="http://www.w3.org/1999/xlink">
    <title>UK switch</title>
    <defs>
        <rect id="path-1" x="-2.84217094e-14" y="0" width="900" height="600" rx="80"></rect>
        <filter x="-6.7%" y="-10.0%" width="113.3%" height="120.0%" filterUnits="objectBoundingBox" id="filter-3">
            <feMorphology radius="2.5" operator="dilate" in="SourceAlpha" result="shadowSpreadOuter1"></feMorphology>
            <feOffset dx="0" dy="0" in="shadowSpreadOuter1" result="shadowOffsetOuter1"></feOffset>
            <feGaussianBlur stdDeviation="17.5" in="shadowOffsetOuter1" result="shadowBlurOuter1"></feGaussianBlur>
            <feColorMatrix values="0 0 0 0 0   0 0 0 0 0   0 0 0 0 0  0 0 0 0.5 0" type="matrix" in="shadowBlurOuter1"></feColorMatrix>
        </filter>
    </defs>
    <g id="UK-switch" stroke="none" stroke-width="1" fill="none" fill-rule="evenodd">
        <g transform="translate(40, 40)">
            <mask id="mask-2" fill="white">
                <use xlink:href="#path-1"></use>
            </mask>
            <g id="Rectangle">
                <use fill="black" fill-opacity="1" filter="url(#filter-3)" xlink:href="#path-1"></use>
                <use fill="#992685" fill-rule="evenodd" xlink:href="#path-1"></use>
            </g>
            <g id="Logo" mask="url(#mask-2)">
                <rect id="Rectangle" fill="#000000" x="0" y="455" width="900" height="145"></rect>
                <rect id="Rectangle" fill="#0C9E6F" x="0" y="0" width="900" height="455"></rect>
                <path d="M527.902692,184.477226 C573.641822,254.70911 553.780538,348.727743 483.546584,394.464803 C413.312629,440.201863 319.296066,420.34472 273.559006,350.108696 L317.163561,320.810559 C346.863354,366.417184 407.913043,379.313665 453.517598,349.611801 C499.124224,319.914079 512.020704,258.862319 482.318841,213.257764 L527.902692,184.477226 Z" id="Path" fill="#FFFFFF" fill-rule="nonzero"></path>
                <path d="M629.378882,120.011387 C583.550725,49.8374741 489.509317,30.0983437 419.333333,75.9285714 C349.15735,121.756729 329.42236,215.798137 375.250518,285.97619 L419.643892,257.887164 C389.884058,212.319876 402.699793,151.253623 448.269151,121.493789 C493.836439,91.7339545 554.902692,104.549689 584.662526,150.119048 L629.378882,120.011387 Z" id="Path" fill="#000000" fill-rule="nonzero"></path>
                <g id="Group" transform="translate(281.8861, 484.0259)" fill="#FFFFFF" fill-rule="nonzero">
                    <path d="M0,45.0248447 L7.35196687,38.5279503 C12.0165631,42.8074534 17.1242236,45.2463768 24.1884058,45.2463768 C30.4306418,45.2463768 34.8944099,42.5879917 35.6459627,38.7494824 L35.6749482,38.6004141 C36.3995859,34.9130435 34.4906832,32.9192547 24.2463768,30.7039337 C12.5300207,28.047619 6.26708075,24.7991718 8.13457557,15.2795031 L8.16356108,15.1325052 C9.90062112,6.27536232 19.3167702,0.149068323 30.7329193,0.149068323 C39.1118012,0.149068323 45.3146998,2.43478261 50.3229814,6.64389234 L43.5548654,13.5072464 C39.0600414,10.0372671 34.2463768,8.19254658 28.989648,8.19254658 C23.0766046,8.19254658 19.0910973,10.9254658 18.4244306,14.320911 L18.3954451,14.4679089 C17.6149068,18.4534161 19.8964803,20.2236025 30.5196687,22.5879917 C42.1552795,25.2443064 47.6293996,29.1552795 45.9503106,37.7204969 L45.9213251,37.8674948 C44.0248447,47.5362319 34.436853,53.2919255 22.3623188,53.2919255 C13.573499,53.2898551 5.8136646,50.5590062 0,45.0248447 Z" id="Path"></path>
                    <polygon id="Path" points="58.1821946 0.881987578 69.1055901 0.881987578 75.3084886 39.1925466 96.9792961 0.734989648 105.521739 0.734989648 112.10766 39.1925466 133.339545 0.881987578 143.933747 0.881987578 113.768116 52.9213251 104.979296 52.9213251 98.1345756 15.7929607 76.7225673 52.9213251 68.0165631 52.9213251"></polygon>
                    <polygon id="Path" points="154.438923 0.881987578 164.542443 0.881987578 154.405797 52.552795 144.302277 52.552795"></polygon>
                    <polygon id="Path" points="191.964803 9.30020704 173.728778 9.30020704 175.380952 0.884057971 222.035197 0.884057971 220.383023 9.30020704 202.149068 9.30020704 193.662526 52.5548654 183.478261 52.5548654"></polygon>
                    <path d="M221.536232,26.8654244 L221.565217,26.7184265 C224.447205,12.0289855 239.043478,0 256.459627,0 C267.05383,0 272.809524,3.32091097 277.387164,8.04347826 L269.57971,14.7619048 C265.732919,10.9233954 261.310559,8.33954451 254.73913,8.33954451 C243.813665,8.33954451 234.171843,16.4596273 232.188406,26.5714286 L232.15735,26.7184265 C230.173913,36.8302277 236.534161,45.0248447 247.542443,45.0248447 C254.604555,45.0248447 259.614907,42.5134576 265.356108,38.3809524 L270.6853,44.2877847 C263.590062,49.8964803 256.322981,53.4389234 245.563147,53.4389234 C228.807453,53.436853 218.623188,41.7018634 221.536232,26.8654244 Z" id="Path"></path>
                    <polygon id="Path" points="289.378882 0.881987578 299.480331 0.881987578 295.269151 22.3623188 322.701863 22.3623188 326.917184 0.881987578 337.018634 0.881987578 326.881988 52.552795 316.780538 52.552795 321.05176 30.7763975 293.616977 30.7763975 289.345756 52.552795 279.244306 52.552795"></polygon>
                </g>
            </g>
        </g>
    </g>
</svg>