<?xml version="1.0" encoding="UTF-8"?>
<svg width="980px" height="680px" viewBox="0 0 980 680" version="1.1" xmlns="http://www.w3.org/2000/svg" xmlns:xlink="http://www.w3.org/1999/xlink">
    <title>WW Accor Services</title>
    <defs>
        <linearGradient x1="50%" y1="0%" x2="50%" y2="100%" id="linearGradient-1">
            <stop stop-color="#FFFFFF" offset="0%"></stop>
            <stop stop-color="#EDEDED" offset="100%"></stop>
        </linearGradient>
        <rect id="path-2" x="0" y="0" width="900" height="600" rx="80"></rect>
        <filter x="-6.7%" y="-10.0%" width="113.3%" height="120.0%" filterUnits="objectBoundingBox" id="filter-3">
            <feMorphology radius="2.5" operator="dilate" in="SourceAlpha" result="shadowSpreadOuter1"></feMorphology>
            <feOffset dx="0" dy="0" in="shadowSpreadOuter1" result="shadowOffsetOuter1"></feOffset>
            <feGaussianBlur stdDeviation="17.5" in="shadowOffsetOuter1" result="shadowBlurOuter1"></feGaussianBlur>
            <feColorMatrix values="0 0 0 0 0   0 0 0 0 0   0 0 0 0 0  0 0 0 0.5 0" type="matrix" in="shadowBlurOuter1"></feColorMatrix>
        </filter>
        <radialGradient cx="40.0420446%" cy="38.2492167%" fx="40.0420446%" fy="38.2492167%" r="45.2132223%" gradientTransform="translate(0.4004, 0.3825), scale(1, 0.9908), rotate(53.0789), scale(1, 1.0035), translate(-0.4004, -0.3825)" id="radialGradient-4">
            <stop stop-color="#FFFFFF" stop-opacity="0" offset="0%"></stop>
            <stop stop-color="#ED212A" stop-opacity="0.185412214" offset="33.201189%"></stop>
            <stop stop-color="#ED212A" offset="100%"></stop>
        </radialGradient>
    </defs>
    <g id="WW-Accor-Services" stroke="none" stroke-width="1" fill="none" fill-rule="evenodd">
        <g transform="translate(40, 40)">
            <g id="Rectangle">
                <use fill="black" fill-opacity="1" filter="url(#filter-3)" xlink:href="#path-2"></use>
                <use fill="url(#linearGradient-1)" fill-rule="evenodd" xlink:href="#path-2"></use>
            </g>
            <g id="Logo" transform="translate(50, 162)">
                <path d="M33.7239731,146.501308 L8.46512686,146.501308 C8.46512686,146.501308 42.9627944,112.003641 59.8020253,95.1188986 C17.7039481,94.2996928 0.86471726,97.667539 0.86471726,97.667539 L0,96.8483331 C13.4713847,90.1126408 26.1235635,85.8800774 38.730231,83.3769485 C50.5176926,80.8738195 63.12436,80.0091023 77.4604619,80.0091023 C84.1961543,80.0091023 93.4349755,80.8738195 106.90636,82.5577426 C116.145181,84.2416657 125.429514,85.106383 133.84913,85.9255888 L143.133462,37.9565366 L103.584025,76.6867676 C93.480487,75.8675617 85.0608715,75.0028445 80.0091023,75.0028445 L154.966435,0 L181.909205,0 C181.909205,0 167.618614,78.2796678 165.934691,88.3832063 L192.87746,88.3832063 C202.116282,56.3886677 229.923768,34.4976675 266.970076,35.3623848 C277.073615,35.3623848 288.041871,37.0463079 296.415975,40.4141541 C292.228923,44.6012061 287.996359,48.8337695 284.628513,53.0663329 C277.073615,48.8792809 270.337922,46.3306406 264.421436,46.3306406 C229.923768,47.1498464 226.555922,86.7447946 226.555922,86.7447946 L222.36887,88.4287177 C199.658664,99.3514621 174.399818,104.403231 146.592331,104.403231 C137.35351,104.403231 128.069177,103.584025 117.965639,101.900102 L99.4424849,99.3514621 L85.9711002,97.667539 L82.6032541,97.667539 L33.7694846,146.501308 L33.7239731,146.501308 Z M155.785641,146.501308 L122.926385,146.501308 L129.662078,109.455001 C144.817385,110.319718 154.920924,110.319718 162.521333,109.455001 L155.785641,146.501308 L155.785641,146.501308 Z M280.395949,127.113437 L283.763796,133.84913 C269.427694,144.817385 253.45318,149.823643 236.613949,149.823643 C197.883718,149.823643 191.148026,119.513028 191.148026,103.538514 C203.305326,99.7282831 215.131924,94.9337165 226.510411,89.2024121 C224.826488,98.4867448 223.96177,153.191489 280.395949,127.067926 L280.395949,127.113437 Z M390.715667,40.4141541 C386.528615,44.6012061 382.296052,48.8337695 378.109,53.0663329 C371.373308,48.0145637 365.456821,46.3306406 359.585846,46.3306406 C347.798384,46.3306406 338.559563,50.5176926 330.959153,59.8020253 C323.404255,69.0408465 320.036409,80.8283081 320.036409,95.1644101 C320.036409,121.287974 330.139948,133.894641 349.482307,133.894641 C357.082717,133.894641 365.456821,132.210718 374.741154,127.158949 L378.109,133.894641 C334.327,163.340539 284.628513,150.733872 284.628513,102.76482 C287.177153,53.9310502 327.591307,34.5886904 360.405052,34.5886904 C373.057231,34.5886904 383.115258,37.1373308 390.715667,40.4596655 L390.715667,40.4141541 Z" id="Shape" fill="#0086C8"></path>
                <path d="M469.860052,85.8800774 C469.860052,132.165207 448.833769,140.584822 437.865514,139.765616 C430.310616,139.765616 415.155308,136.39777 414.290591,97.667539 C414.290591,54.750256 433.63295,44.6467175 446.285129,44.6467175 C462.259643,44.6467175 469.860052,58.1181022 469.860052,85.8800774 Z M378.928206,104.403231 C378.928206,143.99818 414.290591,149.869155 431.129821,149.869155 C477.414951,149.869155 506.087154,115.371487 505.222437,80.8283081 C505.222437,66.4922062 501.035385,54.7047446 491.751052,47.1498464 C482.512231,38.730231 469.040847,35.3623848 452.201616,34.543179 C422.755717,33.6784617 379.792923,55.6149733 378.973717,104.403231 L378.928206,104.403231 Z M561.611105,48.8337695 C563.295028,46.2851291 567.527591,45.4659233 572.533849,45.4659233 C589.37308,44.6012061 590.237797,54.7047446 590.237797,60.6212311 C590.237797,79.144385 580.134259,88.3832063 560.791899,88.3832063 L553.191489,88.3832063 L556.559336,62.3051542 C558.243259,55.5694618 559.107976,50.5176926 561.611105,48.8337695 Z M551.507566,95.1188986 C554.875412,96.8028217 559.062464,100.170668 562.430311,105.222437 L580.953465,130.481283 C586.005234,137.216976 590.192286,141.404028 593.560132,143.087951 C596.927978,144.771874 601.979747,145.636591 609.534646,145.636591 L626.373876,145.636591 C621.322107,140.584822 614.586415,131.300489 606.166799,119.558539 C606.166799,119.558539 591.830697,99.3514621 590.192286,97.667539 C588.508363,95.9836159 586.82444,94.2996928 584.275799,93.480487 L584.275799,92.6157697 C596.927978,91.7965639 620.45739,85.8800774 620.45739,62.3051542 C620.45739,45.4659233 606.986005,37.8655137 580.043236,37.8655137 L530.390261,37.8655137 L511.867107,146.455797 L542.996928,146.455797 L551.416543,95.0733872 L551.507566,95.1188986 Z M261.05359,247.536694 C267.789282,250.039823 275.389692,252.588463 282.94459,252.588463 C289.680282,252.588463 296.415975,250.039823 296.415975,242.484924 C296.415975,229.832745 268.653999,224.780976 268.653999,206.303334 C268.653999,195.335078 277.892821,179.360564 302.332461,179.360564 C309.887359,179.360564 318.306975,181.044487 325.907384,183.593128 L323.404255,197.883718 C316.668563,195.335078 309.068153,192.831949 302.377972,192.831949 C297.326203,192.831949 290.590511,194.515872 290.590511,201.251564 C290.590511,212.174309 320.036409,218.910001 320.036409,238.297872 C320.036409,247.582205 313.300717,266.059848 280.486972,266.059848 C272.932074,266.059848 262.828536,264.375924 257.776766,263.556719 L261.144613,247.582205 L261.05359,247.536694 Z M391.534873,258.459438 C380.566617,262.64649 370.463079,265.19513 359.540335,265.19513 C346.888156,265.19513 333.416771,259.278644 333.416771,244.988053 C333.416771,226.464899 348.572079,201.206053 377.198771,201.206053 C384.799181,201.206053 394.038002,205.393105 394.038002,214.677438 C394.038002,232.335874 370.463079,243.30413 355.307771,243.30413 C355.307771,250.039823 360.35954,252.542951 366.230515,252.542951 C374.650131,252.542951 387.256798,247.491182 394.857208,243.30413 L391.489362,258.459438 L391.534873,258.459438 Z M373.830925,218.86449 C373.830925,216.315849 372.147002,214.677438 369.643873,214.677438 C362.088975,214.677438 357.856411,224.780976 357.037206,230.651951 C367.140744,230.651951 373.876436,227.284105 373.876436,218.86449 L373.830925,218.86449 Z M437.000796,228.148822 L437.820002,228.148822 C442.871772,218.045284 454.659233,201.206053 467.311412,201.206053 C469.814541,201.206053 471.498464,201.206053 472.363181,202.025259 L464.808283,221.41313 C463.12436,220.548413 461.440437,219.729207 459.756514,219.729207 C448.833769,219.729207 439.549437,237.387644 435.362385,244.988053 L431.129821,264.330413 L409.238821,264.330413 L421.845489,202.025259 L442.917283,202.025259 L437.046308,228.148822 L437.000796,228.148822 Z M485.01536,202.07077 L506.90636,202.07077 L514.461258,243.30413 L539.720105,202.07077 L555.74013,202.07077 L518.693822,264.375924 L495.938104,264.375924 L485.01536,202.07077 Z M570.895437,202.07077 L592.786438,202.07077 L580.134259,264.375924 L558.243259,264.375924 L570.849926,202.07077 L570.895437,202.07077 Z M575.947207,174.308795 L597.838207,174.308795 L594.470361,192.831949 L572.579361,192.831949 L575.947207,174.308795 L575.947207,174.308795 Z M660.143361,218.910001 C655.956309,216.361361 650.90454,213.858232 644.988053,213.858232 C633.200592,213.858232 627.329617,230.697463 627.329617,240.801001 C627.329617,247.536694 630.697463,250.90454 637.433155,250.90454 C642.484924,250.90454 651.769257,247.536694 656.821026,245.033565 L654.272386,260.188872 C646.671976,263.556719 635.749232,265.240642 629.832745,265.240642 C617.226078,265.240642 603.754693,259.324155 603.754693,245.033565 C603.754693,226.510411 618.910001,201.251564 647.536694,201.251564 C648.355899,201.251564 656.821026,202.935488 663.511207,204.619411 L660.143361,218.955513 L660.143361,218.910001 Z M727.500284,258.459438 C716.532029,262.64649 705.609284,265.19513 694.641029,265.19513 C682.853567,265.19513 668.517465,259.278644 668.517465,244.988053 C669.382182,226.464899 684.491979,201.206053 713.164183,201.206053 C720.764592,201.206053 730.003413,205.393105 730.003413,214.677438 C730.003413,232.335874 706.42849,243.30413 691.273182,243.30413 C691.273182,250.039823 696.324952,252.542951 702.195927,252.542951 C710.615542,252.542951 723.267721,247.491182 730.822619,243.30413 L727.454773,258.459438 L727.500284,258.459438 Z M709.796336,218.86449 C709.796336,216.315849 708.112413,214.677438 705.609284,214.677438 C698.054386,214.677438 693.821823,224.780976 692.1379,230.651951 C703.060644,230.651951 709.796336,227.284105 709.796336,218.86449 Z M797.360337,216.361361 C793.173285,214.677438 788.121516,212.993515 783.888952,212.993515 C779.656389,212.993515 774.650131,214.677438 774.650131,218.86449 C774.650131,226.464899 794.038002,231.516669 794.038002,244.988053 C794.038002,253.407669 788.121516,265.19513 765.41131,265.19513 C756.991694,265.19513 750.256002,264.330413 742.701104,261.827284 L745.249744,247.536694 C751.120719,250.039823 759.585846,253.407669 765.456821,253.407669 C768.005461,253.407669 772.192513,250.859028 772.192513,247.536694 C772.192513,239.117078 754.534077,233.200592 754.534077,219.729207 C754.534077,212.993515 759.585846,201.206053 783.160769,201.206053 C788.212538,201.206053 794.948231,202.025259 800,202.889976 L797.45136,216.361361 L797.360337,216.361361 Z M139.811128,266.879053 C139.811128,271.930823 160.83741,276.163386 186.960974,276.163386 C213.084537,276.163386 234.930026,271.976334 234.930026,266.879053 C234.930026,261.008078 213.903743,256.775515 186.960974,256.775515 C160.018205,256.775515 139.811128,261.008078 139.811128,266.879053 Z" id="Shape" fill="#0086C8"></path>
                <path d="M234.930026,219.729207 C234.930026,245.807259 213.903743,266.879053 187.78018,266.879053 C161.656616,266.879053 141.495051,245.852771 141.495051,219.729207 C141.495051,193.605643 162.521333,172.579361 187.78018,172.579361 C213.039026,172.579361 234.930026,193.605643 234.930026,219.729207 Z" id="Path" fill="url(#radialGradient-4)"></path>
            </g>
        </g>
    </g>
</svg>