<?xml version="1.0" encoding="UTF-8"?>
<svg width="980px" height="680px" viewBox="0 0 980 680" version="1.1" xmlns="http://www.w3.org/2000/svg" xmlns:xlink="http://www.w3.org/1999/xlink">
    <title>WW American Express SafeKey</title>
    <defs>
        <linearGradient x1="50%" y1="0%" x2="50%" y2="100%" id="linearGradient-1">
            <stop stop-color="#FFFFFF" offset="0%"></stop>
            <stop stop-color="#EDEDED" offset="100%"></stop>
        </linearGradient>
        <rect id="path-2" x="-2.84217094e-14" y="0" width="900" height="600" rx="80"></rect>
        <filter x="-6.7%" y="-10.0%" width="113.3%" height="120.0%" filterUnits="objectBoundingBox" id="filter-3">
            <feMorphology radius="2.5" operator="dilate" in="SourceAlpha" result="shadowSpreadOuter1"></feMorphology>
            <feOffset dx="0" dy="0" in="shadowSpreadOuter1" result="shadowOffsetOuter1"></feOffset>
            <feGaussianBlur stdDeviation="17.5" in="shadowOffsetOuter1" result="shadowBlurOuter1"></feGaussianBlur>
            <feColorMatrix values="0 0 0 0 0   0 0 0 0 0   0 0 0 0 0  0 0 0 0.5 0" type="matrix" in="shadowBlurOuter1"></feColorMatrix>
        </filter>
    </defs>
    <g id="WW-American-SafeKey" stroke="none" stroke-width="1" fill="none" fill-rule="evenodd">
        <g id="WW-American-Express-SafeKey" transform="translate(40, 40)">
            <g id="Rectangle">
                <use fill="black" fill-opacity="1" filter="url(#filter-3)" xlink:href="#path-2"></use>
                <use fill="url(#linearGradient-1)" fill-rule="evenodd" xlink:href="#path-2"></use>
            </g>
            <g id="Logo" transform="translate(50.01, 199.12)" fill-rule="nonzero">
                <path d="M268.611493,127.710249 L281.999789,120.691963 C287.947011,132.445478 297.135609,138.139027 309.565585,138.139027 C321.741888,138.139027 329.972166,134.221189 329.972166,125.173519 C329.972166,116.520452 323.743086,112.461685 307.254342,107.585527 C287.918825,101.920163 272.360216,96.6212169 272.360216,77.567558 C272.360216,60.543283 286.284043,49.2971145 306.577881,49.2971145 C326.308001,49.2971145 337.948772,59.0212451 344.036924,70.8029454 L331.747877,79.315083 C325.800655,69.3090935 317.288518,64.7147941 306.465138,64.7147941 C295.388084,64.7147941 289.018074,68.7735616 289.018074,76.0737061 C289.018074,85.4032343 296.177289,88.5036818 312.553289,93.37984 C331.466018,98.9324596 346.630025,105.133354 346.630025,123.93334 C346.630025,140.281154 332.706197,153.133918 308.91731,153.133918 C289.04626,153.133918 274.981503,142.84607 268.611493,127.710249 Z" id="Path" fill="#474C55"></path>
                <path d="M354.352958,133.93933 C354.352958,118.380721 367.600324,107.980129 401.141528,104.20322 L401.141528,102.032907 C401.141528,94.873692 397.36462,91.7732445 389.388014,91.7732445 C379.382024,91.7732445 371.264489,96.6494028 365.176338,101.497375 L357.058803,91.0967833 C364.781736,84.0784977 376.788923,78.1312758 391.671071,78.1312758 C410.865659,78.1312758 417.489342,87.3198746 417.489342,104.090477 L417.489342,133.713843 C417.489342,142.36691 418.024874,147.63767 419.518726,151.301836 L402.748124,151.301836 C401.789804,148.342318 401.113342,146.172004 401.113342,142.113237 C393.813198,149.554311 385.30106,152.401085 374.61861,152.401085 C363.006025,152.316527 354.352958,145.833774 354.352958,133.93933 Z M401.141528,131.233485 L401.141528,115.421203 C381.270479,118.127048 370.728957,123.003206 370.728957,130.838882 C370.728957,136.504245 374.646796,139.491949 380.734947,139.491949 C389.247085,139.463764 395.870768,136.222387 401.141528,131.233485 Z" id="Shape" fill="#474C55"></path>
                <path d="M440.629955,151.217278 L440.629955,92.7033788 L428.199979,92.7033788 L428.199979,79.4560124 L440.629955,79.4560124 L440.629955,72.1558679 C440.629955,60.1204947 445.647042,50.7909664 463.88331,50.7909664 C466.983758,50.7909664 472.536377,51.3264983 473.748371,51.4674277 L473.748371,64.3201917 C472.677307,64.0383328 469.971462,63.7846598 468.083007,63.7846598 C462.135786,63.7846598 457.259627,65.4194412 457.259627,73.1141881 L457.259627,79.4560124 L472.93098,79.4560124 L472.93098,92.7033788 L457.259627,92.7033788 L457.259627,151.245464 L440.629955,151.245464 L440.629955,151.217278 Z" id="Path" fill="#474C55"></path>
                <path d="M478.906388,115.393017 C478.906388,88.0808935 498.241905,78.074904 513.124053,78.074904 C529.218194,78.074904 544.635874,87.6862911 544.635874,116.886869 L544.635874,120.804707 L495.564246,120.804707 C496.240707,133.770215 504.217313,139.463764 514.758835,139.463764 C524.088363,139.463764 529.500053,136.363316 534.911743,131.092555 L543.705739,139.745622 C536.264665,148.004087 526.399605,152.71113 513.546841,152.71113 C495.53606,152.71113 478.906388,141.775006 478.906388,115.393017 Z M529.330938,108.374731 C528.372617,97.4104217 522.989113,91.6041292 512.983124,91.6041292 C504.865589,91.6041292 497.424515,96.1984286 495.817919,108.374731 L529.330938,108.374731 Z" id="Shape" fill="#474C55"></path>
                <g id="Group" transform="translate(559.4898, 51.1574)" fill="#878A8F">
                    <polygon id="Path" points="0 100.059895 0 0 11.8944439 0 11.8944439 51.6647289 57.1891625 0.0281858859 71.5075926 0.0281858859 37.1771835 38.1636895 76.2428214 100.088081 62.5726667 100.088081 29.3133214 47.2395448 11.866258 66.2932037 11.866258 100.088081 0 100.088081"></polygon>
                    <path d="M79.6533136,64.3765634 C79.6533136,38.4173625 96.9594476,27.1993799 111.954339,27.1993799 C128.86587,27.1993799 141.690449,39.0938238 141.690449,64.9120953 L141.690449,67.3360815 L91.2940845,67.3360815 C91.6886869,83.4302223 101.018215,92.0832893 112.799915,92.0832893 C123.059578,92.0832893 128.894056,87.8835923 134.305746,80.4707043 L141.070359,86.4179262 C134.446676,95.8883839 125.399006,101.553747 112.010711,101.553747 C95.0709932,101.553747 79.6533136,89.2647007 79.6533136,64.3765634 Z M130.641581,58.2884121 C129.683261,45.5765775 123.623296,36.9235106 111.841595,36.9235106 C102.230208,36.9235106 93.1825388,43.5471937 91.5477575,58.2884121 L130.641581,58.2884121 Z" id="Shape"></path>
                    <path d="M147.017581,125.765423 L149.723426,116.435895 C151.75281,116.971427 155.276046,117.647888 160.264947,117.647888 C167.565092,117.647888 171.088328,114.54744 173.906916,107.500969 L176.612761,100.482683 L149.046965,28.6932319 L161.336011,28.6932319 L182.278124,86.4179262 L182.559983,86.4179262 L203.530282,28.6932319 L215.283797,28.6932319 L184.730296,108.205616 C179.854138,120.776521 174.329704,127.541134 160.405877,127.541134 C154.035867,127.512948 150.118028,126.695557 147.017581,125.765423 Z" id="Path"></path>
                    <path d="M219.173449,38.8401508 C219.173449,32.7801853 223.852306,28.1013283 229.912271,28.1013283 C235.887679,28.1013283 240.510165,32.7238136 240.510165,38.7555931 C240.510165,44.8155586 235.831307,49.4944157 229.771342,49.4944157 C223.767748,49.4944157 219.173449,44.8719304 219.173449,38.8401508 Z M238.339851,38.8401508 C238.339851,33.8794349 234.675686,30.1025262 229.771342,30.1025262 C224.951556,30.1025262 221.343762,33.7948772 221.343762,38.7555931 C221.343762,43.7163091 224.951556,47.4650319 229.912271,47.4650319 C234.732058,47.4650319 238.339851,43.8008667 238.339851,38.8401508 Z M225.628017,32.7519994 L230.165944,32.7519994 C232.984533,32.7519994 234.6475,33.9921784 234.6475,36.5852799 C234.6475,38.3891766 233.858295,39.3756826 232.561745,39.9675862 L234.872987,44.4209562 L231.913469,44.4209562 L229.827714,40.3058169 L228.446605,40.3058169 L228.446605,44.4209562 L225.628017,44.4209562 L225.628017,32.7519994 L225.628017,32.7519994 Z M229.968643,38.1918754 C231.208822,38.1918754 231.913469,37.7690871 231.913469,36.6980235 C231.913469,35.6833316 231.208822,35.2041715 229.968643,35.2041715 L228.446605,35.2041715 L228.446605,38.1636895 L229.968643,38.1636895 L229.968643,38.1918754 Z" id="Shape"></path>
                </g>
                <g id="Group" transform="translate(0, 0)">
                    <polygon id="Path" fill="#FFFFFF" points="202.402847 202.402847 102.258394 202.402847 1.00136382e-14 202.402847 1.00136382e-14 105.809816 1.00136382e-14 -1.00136382e-14 100.595427 -1.00136382e-14 202.402847 -1.00136382e-14 202.402847 106.11986"></polygon>
                    <g transform="translate(0, 0)" fill="#006FCF">
                        <path d="M194.56717,145.439171 L126.413698,145.439171 L122.664976,140.563013 L122.664976,145.439171 L107.021809,145.439171 L107.021809,136.222387 C104.851496,137.096149 102.342952,137.575309 99.6089208,137.575309 L98.7633443,137.575309 L98.7633443,145.439171 L76.581052,145.439171 L73.0860022,140.534827 L69.67551,145.439171 L33.9358066,145.439171 L33.9358066,110.206814 L69.8446253,110.206814 L73.2833034,114.998415 L76.7219815,110.206814 L202.402847,110.206814 L202.402847,0 L-1.00136382e-14,0 L-1.00136382e-14,79.2305253 L6.93372794,63.0518268 L21.3367156,63.0518268 L24.5499066,70.4647148 L24.5499066,63.0800127 L42.3633865,63.0800127 L44.6182574,69.4782088 L46.8449424,63.0800127 L123.45418,63.0800127 L123.45418,65.9267872 C126.329141,63.981961 129.908748,63.0800127 133.713843,63.0800127 L157.418173,63.0800127 L160.631364,70.4929007 L160.631364,63.0800127 L175.175281,63.0800127 L178.557587,68.5762604 L178.557587,63.0800127 L194.369869,63.0800127 L194.369869,98.3123701 L179.43135,98.3123701 L176.274531,93.1261671 L176.274531,98.3123701 L154.430469,98.3123701 L152.401085,93.1261671 L148.145016,93.1261671 L146.20019,98.3123701 L133.347426,98.3123701 C130.190607,98.3123701 126.526442,97.7204665 123.45418,95.7192686 L123.45418,98.3123701 L101.525561,98.3123701 L97.7768382,93.4362118 L97.7768382,98.3123701 L18.3490117,98.3123701 L16.3196279,93.1261671 L12.0917451,93.1261671 L10.118733,98.3123701 L0.0281858859,98.3123701 L0.0281858859,202.431033 L202.431033,202.431033 L202.431033,143.353416 C200.260719,144.678152 197.554874,145.439171 194.56717,145.439171 L194.56717,145.439171 Z" id="Path"></path>
                        <path d="M194.7081,134.925836 L182.278124,134.925836 L182.278124,139.999295 L194.510799,139.999295 C199.781559,139.999295 202.910193,136.786104 202.910193,132.276363 C202.910193,127.879364 200.063418,125.314449 195.328189,125.314449 L189.803756,125.314449 C188.366276,125.314449 187.37977,124.384315 187.37977,122.97502 C187.37977,121.622098 188.394461,120.720149 189.803756,120.720149 L200.260719,120.720149 L202.51559,115.64669 L190.029243,115.64669 C184.814854,115.64669 181.629849,118.859881 181.629849,123.228693 C181.629849,127.766621 184.617553,130.303351 189.211852,130.303351 L194.736286,130.303351 C196.173766,130.303351 197.160272,131.205299 197.160272,132.670965 C197.132086,134.023888 196.117394,134.925836 194.7081,134.925836 M172.272135,134.925836 L159.842159,134.925836 L159.842159,139.999295 L172.074834,139.999295 C177.345594,139.999295 180.474228,136.786104 180.474228,132.276363 C180.474228,127.879364 177.627453,125.314449 172.892224,125.314449 L167.367791,125.314449 C165.93031,125.314449 164.943804,124.384315 164.943804,122.97502 C164.943804,121.622098 165.958496,120.720149 167.367791,120.720149 L177.824754,120.720149 L180.079625,115.64669 L167.593278,115.64669 C162.378889,115.64669 159.193884,118.859881 159.193884,123.228693 C159.193884,127.766621 162.181588,130.303351 166.775887,130.303351 L172.300321,130.303351 C173.737801,130.303351 174.724307,131.205299 174.724307,132.670965 C174.724307,134.023888 173.709615,134.925836 172.272135,134.925836 M156.600782,120.663778 L156.600782,115.64669 L137.208893,115.64669 L137.208893,140.027481 L156.600782,140.027481 L156.600782,135.094951 L142.958813,135.094951 L142.958813,130.246979 L156.290737,130.246979 L156.290737,125.342635 L142.958813,125.342635 L142.958813,120.691963 L156.600782,120.691963 L156.600782,120.663778 Z M125.088962,120.720149 C127.174717,120.720149 128.217595,121.960328 128.217595,123.510552 C128.217595,125.03259 127.174717,126.300955 125.088962,126.300955 L118.18342,126.300955 L118.18342,120.720149 L125.088962,120.720149 L125.088962,120.720149 Z M118.211606,131.06437 L120.917451,131.06437 L128.330339,139.999295 L135.489554,139.999295 L127.456576,130.838882 C131.571715,130.077864 133.995702,127.146531 133.995702,123.285065 C133.995702,118.803509 130.782511,115.618504 125.596308,115.618504 L112.433499,115.618504 L112.433499,139.999295 L118.18342,139.999295 L118.18342,131.06437 L118.211606,131.06437 Z M103.470387,123.820597 C103.470387,125.483564 102.427509,126.836487 100.341754,126.836487 L93.2670965,126.836487 L93.2670965,120.720149 L100.341754,120.720149 C102.427509,120.720149 103.470387,122.073072 103.470387,123.820597 M87.5171758,115.64669 L87.5171758,140.027481 L93.2670965,140.027481 L93.2670965,131.938132 L100.651799,131.938132 C105.978931,131.938132 109.248494,128.443082 109.248494,123.792411 C109.248494,118.944439 106.035303,115.64669 100.8491,115.64669 L87.5171758,115.64669 L87.5171758,115.64669 Z M79.2023394,140.027481 L86.3615545,140.027481 L76.5528662,127.738435 L86.3051827,115.64669 L79.3432689,115.64669 L73.2833034,123.538738 L67.2515238,115.64669 L60.0923088,115.64669 L69.8728112,127.822993 L60.1204947,139.999295 L67.0824085,139.999295 L73.142374,132.02269 L79.2023394,140.027481 L79.2023394,140.027481 Z M59.0212451,120.663778 L59.0212451,115.64669 L39.6293556,115.64669 L39.6293556,140.027481 L59.0212451,140.027481 L59.0212451,135.094951 L45.3792763,135.094951 L45.3792763,130.246979 L58.7112004,130.246979 L58.7112004,125.342635 L45.3792763,125.342635 L45.3792763,120.691963 L59.0212451,120.691963 L59.0212451,120.663778 Z" id="Shape"></path>
                        <path d="M171.031956,79.315083 L170.86284,75.2281295 L173.202269,79.2023394 L181.770778,92.8443082 L188.422647,92.8443082 L188.422647,68.4635169 L182.982771,68.4635169 L182.982771,81.4290244 L183.151887,85.5441638 L180.784272,81.5135821 L172.525808,68.4917028 L165.535708,68.4917028 L165.535708,92.8724941 L171.031956,92.8724941 L171.031956,79.315083 L171.031956,79.315083 Z M148.060459,77.342071 L149.83617,72.5786562 L151.640066,77.342071 L154.035867,83.261107 L145.692844,83.261107 L148.060459,77.342071 L148.060459,77.342071 Z M157.897333,92.8724941 L164.295529,92.8724941 L153.894937,68.4917028 L146.312934,68.4917028 L135.85597,92.8724941 L141.803192,92.8724941 L143.860762,87.714477 L155.811577,87.714477 L157.897333,92.8724941 L157.897333,92.8724941 Z M132.558221,92.8724941 L132.84008,92.8724941 L135.207695,87.7426629 L133.46017,87.7426629 C129.429588,87.7426629 127.061974,85.234119 127.061974,80.8371208 L127.061974,80.4988902 C127.061974,76.5528662 129.232287,73.6497199 133.403798,73.6497199 L139.661065,73.6497199 L139.661065,68.4917028 L132.952824,68.4917028 C125.455378,68.4917028 121.312053,73.5369764 121.312053,80.4425184 L121.312053,80.9216785 C121.312053,88.1090794 125.51175,92.8161223 132.558221,92.8724941 M112.010711,92.8724941 L117.760631,92.8724941 L117.760631,80.6961914 L117.760631,68.5198887 L112.010711,68.5198887 L112.010711,80.6961914 L112.010711,92.8724941 L112.010711,92.8724941 Z M99.8907797,73.5933481 C101.976535,73.5933481 103.019413,74.861713 103.019413,76.3837508 C103.019413,77.9057887 101.976535,79.1741535 99.8907797,79.1741535 L92.9852376,79.1741535 L92.9852376,73.5933481 L99.8907797,73.5933481 L99.8907797,73.5933481 Z M93.0134235,83.9375683 L95.7192686,83.9375683 L103.132157,92.8724941 L110.291372,92.8724941 L102.258394,83.7120812 C106.373533,82.9510623 108.79752,80.0197301 108.79752,76.1582637 C108.79752,71.6767079 105.584329,68.4917028 100.398126,68.4917028 L87.2353169,68.4917028 L87.2353169,92.8724941 L92.9852376,92.8724941 L92.9852376,83.9375683 L93.0134235,83.9375683 Z M83.2329211,73.5087905 L83.2329211,68.4917028 L63.8410316,68.4917028 L63.8410316,92.8724941 L83.2329211,92.8724941 L83.2329211,87.9399641 L69.5909523,87.9399641 L69.5909523,83.0919917 L82.9228764,83.0919917 L82.9228764,78.1876475 L69.5909523,78.1876475 L69.5909523,73.5087905 L83.2329211,73.5087905 L83.2329211,73.5087905 Z M35.091428,76.8910968 L34.8941268,71.2821055 L36.6698376,76.8910968 L41.7996688,92.8724941 L47.1268013,92.8724941 L52.2848184,76.8910968 L54.0605292,71.2539196 L53.863228,76.8910968 L53.8068562,92.8724941 L59.1621745,92.8724941 L59.1621745,68.4917028 L50.1145052,68.4917028 L45.9711799,81.2599091 L44.477328,86.727971 L42.983476,81.2599091 L38.8401508,68.4917028 L29.7642955,68.4917028 L29.7642955,92.8724941 L35.2041715,92.8724941 L35.091428,76.8910968 L35.091428,76.8910968 Z M12.2608604,77.342071 L14.0365712,72.5786562 L15.8404679,77.342071 L18.2362682,83.261107 L9.89324596,83.261107 L12.2608604,77.342071 L12.2608604,77.342071 Z M22.1259204,92.8724941 L28.5241165,92.8724941 L18.1235246,68.4917028 L10.5415213,68.4917028 L0.0845576578,92.8724941 L6.03177959,92.8724941 L8.08934926,87.714477 L20.0401649,87.714477 L22.1259204,92.8724941 L22.1259204,92.8724941 Z" id="Shape"></path>
                    </g>
                </g>
            </g>
        </g>
    </g>
</svg>