<?xml version="1.0" encoding="UTF-8"?>
<svg width="980px" height="680px" viewBox="0 0 980 680" version="1.1" xmlns="http://www.w3.org/2000/svg" xmlns:xlink="http://www.w3.org/1999/xlink">
    <title>WW Amazon</title>
    <defs>
        <linearGradient x1="50%" y1="0%" x2="50%" y2="100%" id="linearGradient-1">
            <stop stop-color="#FFFFFF" offset="0%"></stop>
            <stop stop-color="#EDEDED" offset="100%"></stop>
        </linearGradient>
        <rect id="path-2" x="0" y="0" width="900" height="600" rx="80"></rect>
        <filter x="-6.7%" y="-10.0%" width="113.3%" height="120.0%" filterUnits="objectBoundingBox" id="filter-3">
            <feMorphology radius="2.5" operator="dilate" in="SourceAlpha" result="shadowSpreadOuter1"></feMorphology>
            <feOffset dx="0" dy="0" in="shadowSpreadOuter1" result="shadowOffsetOuter1"></feOffset>
            <feGaussianBlur stdDeviation="17.5" in="shadowOffsetOuter1" result="shadowBlurOuter1"></feGaussianBlur>
            <feColorMatrix values="0 0 0 0 0   0 0 0 0 0   0 0 0 0 0  0 0 0 0.5 0" type="matrix" in="shadowBlurOuter1"></feColorMatrix>
        </filter>
    </defs>
    <g id="WW-Amazon-Pay" stroke="none" stroke-width="1" fill="none" fill-rule="evenodd">
        <g id="WW-Amazon" transform="translate(40, 40)">
            <g id="Rectangle">
                <use fill="black" fill-opacity="1" filter="url(#filter-3)" xlink:href="#path-2"></use>
                <use fill="url(#linearGradient-1)" fill-rule="evenodd" xlink:href="#path-2"></use>
            </g>
            <g id="Group" transform="translate(50, 223)">
                <path d="M315.676288,120.053253 C286.112795,141.871229 243.251848,153.473642 206.341671,153.473642 C154.615755,153.473642 108.033878,134.352321 72.7824831,102.522732 C70.0178455,100.020961 72.4833584,96.6082203 75.8099878,98.5434666 C113.839617,120.674164 160.874713,134.003342 209.446223,134.003342 C242.213976,134.003342 278.235844,127.200521 311.379769,113.141659 C316.378778,111.025125 320.571056,116.436563 315.676288,120.053253 Z" id="Path" fill="#FF9900"></path>
                <path d="M327.981191,106.003456 C324.19681,101.163074 302.986148,103.710166 293.454947,104.852279 C290.56794,105.201258 290.119253,102.676826 292.720732,100.850353 C309.64394,88.9624111 337.376427,92.393281 340.598816,96.3770784 C343.843866,100.388069 339.742232,128.193071 323.888621,141.4588 C321.445769,143.498286 319.125287,142.41056 320.208481,139.718438 C323.779849,130.803614 331.765572,110.852902 327.981191,106.003456 Z" id="Path" fill="#FF9900"></path>
                <path d="M294.125712,16.8778857 L294.125712,5.32985865 C294.134776,3.57136787 295.458176,2.40206215 297.053508,2.40659434 L348.820214,2.40206215 C350.474464,2.40206215 351.806929,3.60309322 351.806929,5.31626207 L351.806929,15.2191032 C351.7888,16.8824179 350.388352,19.0488061 347.909243,22.4887403 L321.092258,60.7767045 C331.044954,60.5455627 341.573237,62.0366541 350.619494,67.1172422 C352.658981,68.2638869 353.207376,69.9634592 353.366003,71.6267739 L353.366003,83.949806 C353.366003,85.6493782 351.507804,87.6118177 349.549897,86.5920743 C333.619239,78.2437753 312.47656,77.3328046 294.855395,86.6917826 C293.056114,87.6526074 291.175254,85.7128289 291.175254,84.0132567 L291.175254,72.2975385 C291.175254,70.4257429 291.211512,67.2169504 293.101436,64.361669 L324.165085,19.7920857 L297.116959,19.7875535 C295.462709,19.7875535 294.134776,18.6091834 294.125712,16.8778857 Z" id="Path" fill="#000000"></path>
                <path d="M105.296434,89.0167974 L89.547064,89.0167974 C88.0469082,88.9216214 86.8504093,87.7976376 86.7280401,86.3564003 L86.7416367,5.52474294 C86.7416367,3.91128233 88.1012945,2.6196074 89.782738,2.6196074 L104.448914,2.61507521 C105.980795,2.69212248 107.213551,3.85236382 107.308727,5.32985865 L107.308727,15.8808033 L107.607852,15.8808033 C111.42849,5.6743053 118.630145,0.910970739 128.333569,0.910970739 C138.182024,0.910970739 144.359403,5.6743053 148.769226,15.8808033 C152.589865,5.6743053 161.264482,0.910970739 170.523752,0.910970739 C177.140753,0.910970739 184.342407,3.63481857 188.752231,9.75781095 C193.751239,16.5651644 192.726964,26.4272158 192.726964,35.1018327 L192.708835,86.1116619 C192.708835,87.7205903 191.353709,89.0167974 189.672266,89.0167974 L173.945557,89.0167974 C172.35929,88.9170892 171.117469,87.666204 171.117469,86.1161941 L171.112937,43.2643118 C171.112937,39.8651673 171.407529,31.3627737 170.668782,28.1313203 C169.494944,22.6836246 165.968898,21.1517435 161.414044,21.1517435 C157.588873,21.1517435 153.618673,23.703368 152.00068,27.7823414 C150.382687,31.8703793 150.532249,38.6686684 150.532249,43.2643118 L150.532249,86.1116619 C150.532249,87.7205903 149.172592,89.0167974 147.49568,89.0167974 L131.764439,89.0167974 C130.182704,88.9170892 128.936351,87.666204 128.936351,86.1161941 L128.918222,43.2643118 C128.918222,34.2497805 130.391185,20.9885845 119.21933,20.9885845 C107.897912,20.9885845 108.342067,33.909866 108.342067,43.2643118 L108.333003,86.1116619 C108.333003,87.7205903 106.973345,89.0167974 105.296434,89.0167974 Z" id="Path" fill="#000000"></path>
                <path d="M396.512478,17.4126845 C384.901,17.4126845 384.166708,33.2255049 384.166708,43.0920885 C384.166708,52.9586721 384.021755,74.051497 396.37198,74.051497 C408.572643,74.051497 409.161828,57.0421777 409.161828,46.6679886 C409.161828,39.8651673 408.862703,31.698156 406.805087,25.2352491 C405.042064,19.6198623 401.511486,17.4126845 396.512478,17.4126845 Z M396.37198,0.910970739 C419.744498,0.910970739 432.384783,20.9885845 432.384783,46.5002974 C432.384783,71.1554259 418.421097,90.7209019 396.37198,90.7209019 C373.434552,90.7209019 360.939297,70.6478203 360.939297,45.6482452 C360.939297,20.4719146 373.579582,0.910970739 396.37198,0.910970739 Z" id="Shape" fill="#000000"></path>
                <path d="M462.70062,89.0167974 L447.005637,89.0167974 C445.432966,88.9170892 444.182081,87.666204 444.182081,86.1161941 L444.154888,5.25734357 C444.290853,3.77531655 445.596125,2.6196074 447.182392,2.6196074 L461.78965,2.61507521 C463.167436,2.68759029 464.300484,3.62122199 464.590545,4.87663938 L464.590545,17.2404612 L464.885137,17.2404612 C469.299493,6.18191089 475.467807,0.910970739 486.34507,0.910970739 C493.401694,0.910970739 500.313288,3.46259525 504.723111,10.4376399 C508.838342,16.9005467 508.838342,27.7823414 508.838342,35.6094383 L508.838342,86.4742373 C508.666119,87.9064102 507.378976,89.0167974 505.819902,89.0167974 L490.034275,89.0167974 C488.574909,88.9261536 487.401071,87.8520239 487.228847,86.4742373 L487.228847,42.5890151 C487.228847,33.7421749 488.262187,20.811829 477.380393,20.811829 C473.559754,20.811829 470.029176,23.3634535 468.266153,27.2747359 C466.058975,32.2102937 465.764383,37.1413194 465.764383,42.5890151 L465.764383,86.1116619 C465.737189,87.7205903 464.377532,89.0167974 462.70062,89.0167974 Z" id="Path" fill="#000000"></path>
                <path d="M268.731836,88.817381 C267.693964,89.7510127 266.193808,89.8144634 265.015438,89.1844886 C259.785287,84.8381157 258.847123,82.8303544 255.98731,78.6879302 C247.344418,87.4939807 241.221426,90.136249 230.022378,90.136249 C216.765714,90.136249 206.450443,81.951109 206.450443,65.5898932 C206.450443,52.8045775 213.380166,44.1118319 223.24675,39.8515707 C231.789933,36.0989151 243.723196,35.4190862 252.860097,34.3948106 L252.860097,32.3507917 C252.860097,28.5936039 253.154689,24.1701838 250.942979,20.929666 C249.025862,18.0290627 245.345721,16.837096 242.105204,16.837096 C236.095516,16.837096 230.761125,19.9144549 229.446789,26.29125 C229.170325,27.7098264 228.136986,29.1193383 226.713877,29.1918534 L211.44492,27.537603 C210.157777,27.2430105 208.725604,26.2096706 209.092712,24.2426989 C212.559839,5.98249441 228.866669,0.290060335 243.686939,0.135965782 L244.856245,0.135965782 C252.443135,0.231141829 262.132963,2.31141829 268.033878,7.97212701 C275.697816,15.1329915 274.954536,24.6777894 274.954536,35.0791717 L274.954536,59.611931 C274.954536,66.994873 278.022831,70.2308586 280.900773,74.2055916 C281.911452,75.6422967 282.13353,77.341869 280.850919,78.3933377 C277.633062,81.0899924 271.917967,86.0527434 268.777158,88.8536385 L268.731836,88.817381 Z M252.860097,50.4206441 C252.860097,56.5572331 253.005127,61.6695465 249.914172,67.1263065 C247.407869,71.5542588 243.428604,74.2826389 239.009716,74.2826389 C232.972835,74.2826389 229.437725,69.6824632 229.437725,62.8615132 C229.437725,49.4462227 241.466164,47.007903 252.860097,47.007903 L252.860097,50.4206441 Z" id="Shape" fill="#000000"></path>
                <path d="M62.2859247,88.817381 C61.2435204,89.7510127 59.7388324,89.8144634 58.5649945,89.1844886 C53.3303119,84.8381157 52.392148,82.8303544 49.5368666,78.6879302 C40.8894428,87.4939807 34.7709826,90.136249 23.5719344,90.136249 C10.3152707,90.136249 0,81.951109 0,65.5898932 C0,52.8045775 6.9206583,44.1118319 16.7963063,39.8515707 C25.3394896,36.0989151 37.272753,35.4190862 46.4051214,34.3948106 L46.4051214,32.3507917 C46.4051214,28.5936039 46.7042461,24.1701838 44.492536,20.929666 C42.5754185,18.0290627 38.8907458,16.837096 35.6547602,16.837096 C29.6450727,16.837096 24.3016174,19.9144549 22.9963459,26.29125 C22.7244144,27.7098264 21.6865422,29.1193383 20.2589015,29.1918534 L4.99447639,27.537603 C3.70280146,27.2430105 2.27062856,26.2096706 2.64226836,24.2426989 C6.10033142,5.98249441 22.4116931,0.290060335 37.2364955,0.135965782 L38.4058012,0.135965782 C45.9926918,0.231141829 55.6825199,2.31141829 61.5834348,7.97212701 C69.2428406,15.1329915 68.5040931,24.6777894 68.5040931,35.0791717 L68.5040931,59.611931 C68.5040931,66.994873 71.5723876,70.2308586 74.45033,74.2055916 C75.4519446,75.6422967 75.6830864,77.341869 74.4004759,78.3933377 C71.182619,81.0899924 65.4629918,86.0527434 62.3221823,88.8536385 L62.2859247,88.817381 Z M46.4051214,50.4206441 C46.4051214,56.5572331 46.5546837,61.6695465 43.4591961,67.1263065 C40.9574257,71.5542588 36.9781605,74.2826389 32.5547404,74.2826389 C26.5178597,74.2826389 22.9827493,69.6824632 22.9827493,62.8615132 C22.9827493,49.4462227 35.015721,47.007903 46.4051214,47.007903 L46.4051214,50.4206441 Z" id="Shape" fill="#000000"></path>
                <path d="M724.122029,118.013767 C724.122029,115.965215 724.122029,114.125145 724.122029,112.076594 C724.122029,110.386086 724.951421,109.221313 726.714444,109.325553 C730.004815,109.792369 734.659377,110.259185 737.963346,109.579356 C742.277993,108.681982 745.373481,105.622752 747.204487,101.430473 C749.783305,95.5295584 751.491941,90.770756 752.570603,87.6480752 L719.807382,6.4855678 C719.254454,5.10778121 719.091295,2.55162451 721.842336,2.55162451 L733.295187,2.55162451 C735.479704,2.55162451 736.368014,3.93847548 736.857491,5.2981333 L760.610713,71.2234088 L783.285273,5.2981333 C783.747557,3.94753987 784.676656,2.55162451 786.843045,2.55162451 L797.64326,2.55162451 C800.376172,2.55162451 800.222077,5.10324902 799.678214,6.4855678 L767.17786,90.181571 C762.971985,101.321701 757.370195,119.065235 744.752571,122.147126 C738.42563,123.801377 730.444438,123.203127 725.758151,121.240688 C724.575249,120.646971 724.122029,119.060703 724.122029,118.013767 Z" id="Path" fill="#000000"></path>
                <path d="M708.844008,84.0721752 C708.844008,85.5813953 707.606719,86.818684 706.088434,86.818684 L698.012067,86.818684 C696.267173,86.818684 695.075206,85.5587344 694.853129,84.0721752 L694.041866,78.5746254 C690.33,81.7154349 685.775147,84.4755403 680.835057,86.39719 C671.335581,90.0863949 660.385803,90.6982409 651.103872,84.9967425 C644.391695,80.8769793 640.829391,72.8232728 640.829391,64.5157635 C640.829391,58.0891142 642.809959,51.7168513 647.201654,47.0894825 C653.061779,40.7670736 661.555109,37.6625216 671.811461,37.6625216 C678.006968,37.6625216 686.871937,38.3922046 693.321247,40.4996742 L693.321247,29.4365918 C693.321247,18.1876894 688.585106,13.3201144 676.098915,13.3201144 C666.554117,13.3201144 659.252755,14.7613517 649.091579,17.9202901 C647.464521,17.9746764 646.512761,16.7373878 646.512761,15.2281676 L646.512761,8.9193553 C646.512761,7.40560292 647.804436,5.94170467 649.204883,5.49754978 C656.460924,2.33407926 666.739937,0.362575419 677.667054,0 C691.911736,0 708.844008,3.21332465 708.844008,25.1219443 L708.844008,84.0721752 Z M693.321247,67.9194403 L693.321247,51.2273744 C687.900745,49.7453474 678.931536,49.1289692 675.459876,49.1289692 C669.975923,49.1289692 663.970767,50.4251763 660.83449,53.8016599 C658.491346,56.2762371 657.430813,59.8294762 657.430813,63.2648783 C657.430813,67.7064272 658.967227,72.1615727 662.556723,74.3642183 C666.726341,77.1968388 673.19378,76.8523921 679.27145,75.1256267 C685.113446,73.4668442 690.5974,70.5345155 693.321247,67.9194403 Z" id="Shape" fill="#000000"></path>
                <path d="M589.760644,13.569385 C607.680934,13.569385 612.562105,27.6599722 612.562105,43.7945784 C612.661813,54.6718409 610.663116,64.3707334 605.029601,69.9226695 C600.814662,74.0786902 596.105713,75.2117384 589.017364,75.2117384 C582.708552,75.2117384 574.410107,71.9213665 568.210067,67.3393196 L568.210067,21.2061298 C574.66391,16.2479109 582.898904,13.569385 589.760644,13.569385 Z M565.463558,120.909838 L554.645214,120.909838 C553.131462,120.909838 551.894173,119.672549 551.894173,118.163329 C551.894173,80.5914512 551.894173,43.0150412 551.894173,5.44316347 C551.894173,3.93394329 553.131462,2.69665468 554.645214,2.69665468 L562.92553,2.69665468 C564.665892,2.69665468 565.857859,3.95660425 566.079937,5.44316347 L566.950118,11.3486106 C574.704699,4.46420984 584.68912,0.04985412 594.202192,0.04985412 C620.846954,0.04985412 629.607682,22.0037957 629.607682,44.8324505 C629.607682,69.2564371 616.205988,88.8808317 593.540492,88.8808317 C583.995694,88.8808317 575.071807,85.3593179 568.210067,79.2408577 L568.210067,118.163329 C568.210067,119.672549 566.972779,120.909838 565.463558,120.909838 Z" id="Shape" fill="#000000"></path>
            </g>
        </g>
    </g>
</svg>