<?xml version="1.0" encoding="UTF-8"?>
<svg width="980px" height="680px" viewBox="0 0 980 680" version="1.1" xmlns="http://www.w3.org/2000/svg" xmlns:xlink="http://www.w3.org/1999/xlink">
    <title>WW Bitcoin</title>
    <defs>
        <linearGradient x1="50%" y1="0%" x2="50%" y2="100%" id="linearGradient-1">
            <stop stop-color="#FFFFFF" offset="0%"></stop>
            <stop stop-color="#EDEDED" offset="100%"></stop>
        </linearGradient>
        <rect id="path-2" x="0" y="-2.84217094e-14" width="900" height="600" rx="80"></rect>
        <filter x="-6.7%" y="-10.0%" width="113.3%" height="120.0%" filterUnits="objectBoundingBox" id="filter-3">
            <feMorphology radius="2.5" operator="dilate" in="SourceAlpha" result="shadowSpreadOuter1"></feMorphology>
            <feOffset dx="0" dy="0" in="shadowSpreadOuter1" result="shadowOffsetOuter1"></feOffset>
            <feGaussianBlur stdDeviation="17.5" in="shadowOffsetOuter1" result="shadowBlurOuter1"></feGaussianBlur>
            <feColorMatrix values="0 0 0 0 0   0 0 0 0 0   0 0 0 0 0  0 0 0 0.5 0" type="matrix" in="shadowBlurOuter1"></feColorMatrix>
        </filter>
    </defs>
    <g id="WW-Bitcoin" stroke="none" stroke-width="1" fill="none" fill-rule="evenodd">
        <g transform="translate(40, 40)">
            <g id="Rectangle">
                <use fill="black" fill-opacity="1" filter="url(#filter-3)" xlink:href="#path-2"></use>
                <use fill="url(#linearGradient-1)" fill-rule="evenodd" xlink:href="#path-2"></use>
            </g>
            <g id="Logo" transform="translate(200, 50)" fill-rule="nonzero">
                <path d="M492.459538,310.478065 C459.069252,444.406394 323.422191,525.913379 189.478238,492.51528 C55.5889715,459.124994 -25.9180138,323.470121 7.48789715,189.549605 C40.8625584,55.6056519 176.509619,-25.9091459 310.41451,7.48114029 C444.350651,40.8714264 525.849824,176.541925 492.459538,310.478065 Z" id="Path" fill="#F7931A"></path>
                <path d="M360.195255,214.385291 C365.171767,181.120003 339.843899,163.237372 305.211438,151.307806 L316.445699,106.245763 L289.01629,99.4098949 L278.078901,143.28445 C270.868037,141.487593 263.461862,139.792298 256.102562,138.112627 L267.118075,93.9490128 L239.704291,87.1131446 L228.462217,132.159562 C222.493528,130.800201 216.634212,129.456465 210.94677,128.042417 L210.97802,127.901793 L173.150278,118.456577 L165.853477,147.753154 C165.853477,147.753154 186.204833,152.417169 185.77515,152.706229 C196.884413,155.479638 198.892205,162.831126 198.556271,168.659192 L185.759525,219.994609 C186.525143,220.189919 187.51732,220.471166 188.611059,220.908662 C187.697006,220.682102 186.720453,220.432104 185.712651,220.189919 L167.775333,292.103252 C166.415972,295.478218 162.970694,300.540666 155.205148,298.618811 C155.478583,299.017244 135.26785,293.642299 135.26785,293.642299 L121.650801,325.040418 L157.345751,333.938765 C163.986309,335.60281 170.494055,337.34498 176.90024,338.985589 L165.548793,384.563251 L192.946953,391.399119 L204.189026,346.305827 C211.673325,348.337056 218.938876,350.212037 226.048179,351.977644 L214.845168,396.860001 L242.274577,403.695869 L253.626024,358.204143 C300.398987,367.055616 335.570505,363.48534 350.375042,321.181082 C362.304609,287.118927 349.781298,267.470689 325.172173,254.658319 C343.093866,250.525549 356.593729,238.736606 360.195255,214.385291 L360.195255,214.385291 Z M297.524016,302.267211 C289.04754,336.329365 231.696559,317.91549 213.102998,313.298349 L228.165345,252.916149 C246.758906,257.556727 306.383301,266.744134 297.524016,302.267211 Z M306.008305,213.893108 C298.274009,244.877169 250.540118,229.135141 235.0559,225.275805 L248.712012,170.510736 C264.196229,174.370072 314.062911,181.573124 306.008305,213.893108 L306.008305,213.893108 Z" id="Shape" fill="#FFFFFF"></path>
            </g>
        </g>
    </g>
</svg>