<?xml version="1.0" encoding="UTF-8"?>
<svg width="980px" height="680px" viewBox="0 0 980 680" version="1.1" xmlns="http://www.w3.org/2000/svg" xmlns:xlink="http://www.w3.org/1999/xlink">
    <title>WW bitpay alt</title>
    <defs>
        <rect id="path-1" x="0" y="2.84217094e-14" width="900" height="600" rx="80"></rect>
        <filter x="-6.7%" y="-10.0%" width="113.3%" height="120.0%" filterUnits="objectBoundingBox" id="filter-3">
            <feMorphology radius="2.5" operator="dilate" in="SourceAlpha" result="shadowSpreadOuter1"></feMorphology>
            <feOffset dx="0" dy="0" in="shadowSpreadOuter1" result="shadowOffsetOuter1"></feOffset>
            <feGaussianBlur stdDeviation="17.5" in="shadowOffsetOuter1" result="shadowBlurOuter1"></feGaussianBlur>
            <feColorMatrix values="0 0 0 0 0   0 0 0 0 0   0 0 0 0 0  0 0 0 0.5 0" type="matrix" in="shadowBlurOuter1"></feColorMatrix>
        </filter>
    </defs>
    <g id="WW-bitpay-alt" stroke="none" stroke-width="1" fill="none" fill-rule="evenodd">
        <g transform="translate(40, 40)">
            <mask id="mask-2" fill="white">
                <use xlink:href="#path-1"></use>
            </mask>
            <g id="Rectangle">
                <use fill="black" fill-opacity="1" filter="url(#filter-3)" xlink:href="#path-1"></use>
                <use fill="#002855" fill-rule="evenodd" xlink:href="#path-1"></use>
            </g>
            <g id="Logo" mask="url(#mask-2)" fill="#FFFFFF" fill-rule="nonzero">
                <g transform="translate(50, 159)" id="Shape">
                    <path d="M800,66.5488 L758.384,66.5488 L734.2992,168.1584 L730.9216,182.1024 C728.5984,182.736 726.2752,183.368 723.9504,183.7936 C719.7248,184.6368 715.2896,185.0592 710.6448,185.0592 C705.3616,185.0592 701.1392,184.216 697.9696,182.736 C695.0096,181.2576 692.6864,179.1472 691.4192,176.1872 C690.1504,173.44 689.728,170.0608 689.9392,166.2592 C690.1504,162.4576 690.9952,158.2304 692.0512,154.0096 L704.7264,101.1936 L712.9632,66.128 L670.5024,66.128 L651.28,147.2448 C648.9552,156.96 647.688,166.2576 647.2656,175.1312 C646.8416,184.0016 648.3216,191.608 651.28,198.5792 C654.2384,205.3392 659.5168,210.6192 666.7008,214.632 C673.8832,218.6464 684.2352,220.544 697.3344,220.544 C706.4192,220.544 714.4448,219.704 721.2064,218.2224 C721.4176,218.2224 721.84,218.0128 722.0512,218.0128 C720.1504,226.4608 716.3472,233.2192 710.4304,238.504 C704.304,243.7856 695.4304,246.5312 683.6,246.5312 C678.5296,246.5312 673.8832,246.32 669.6576,245.6896 L661.4192,280.1232 C666.9136,280.7568 673.04,281.1792 679.7984,281.1792 C692.4736,281.1792 703.4576,279.7008 712.9632,276.952 C722.4704,273.9936 730.5008,269.7712 737.4688,263.8544 C744.2288,257.9392 749.9328,250.5456 754.5792,241.8864 C759.2256,233.0144 762.816,222.6592 765.5632,210.408 L794.2928,89.5744 L800,66.5488 Z M625.72,153.3696 C623.184,163.9328 622.3392,174.7056 623.3952,185.2688 C624.4512,196.0416 628.6768,212.3072 632.6912,220.5456 L592.5536,220.5456 C587.696,212.3104 587.9088,208.296 586.8528,205.7616 C581.5696,209.9872 575.8688,213.5776 569.5312,216.3248 C563.1936,219.072 556.2208,220.5504 548.1936,220.5504 C538.8976,220.5504 530.872,218.8592 524.3232,215.6912 C517.7744,212.5248 512.2816,208.088 508.056,202.5936 C503.8288,197.0992 500.8752,190.7616 498.9696,183.368 C497.0688,175.9744 496.224,168.1584 496.224,159.7104 C496.224,146.8208 498.5488,134.7824 502.9872,123.376 C507.632,111.968 513.9696,102.0368 522,93.5888 C530.0272,85.1392 549.6736,66.3392 581.7824,66.3392 L646.2144,66.3392 L625.72,153.3696 L625.72,153.3696 Z M596.3568,101.6144 C576.9232,101.6144 573.3296,101.6144 565.3056,105.6304 C559.6016,108.5872 554.952,113.024 550.9392,118.0928 C546.9264,123.1616 543.5456,129.0768 541.2224,135.8384 C538.8992,142.5984 537.6304,149.568 537.6304,156.752 C537.6304,165.624 539.112,172.8048 542.0672,178.0864 C545.0224,183.368 550.5168,185.9024 558.544,185.9024 C562.7712,185.9024 566.7808,185.0592 570.1648,183.368 C573.5424,181.6768 577.344,178.9344 581.1488,174.92 C581.5728,170.2736 582.2048,165.4128 583.0496,160.3472 C583.8928,155.2736 584.9504,150.416 585.7968,146.1904 L596.3568,101.6144 M484.8176,127.5984 C484.8176,141.3296 482.4928,153.792 478.056,165.2 C473.6208,176.6064 467.2832,186.3248 459.2544,194.5648 C451.2256,202.8048 441.7216,209.1408 430.5248,213.7904 C419.3296,218.4336 407.288,220.7584 394.1904,220.7584 C387.8528,220.7584 381.5152,220.1248 374.9648,219.0688 L362.2928,269.9792 L320.6736,269.9792 L369.0496,66.7568 L424.608,66.7568 C435.1744,66.7568 444.2544,68.448 451.648,71.6128 C459.2528,74.7808 465.3792,79.2192 470.4496,84.7136 C475.3088,90.2064 478.8976,96.7536 481.2208,104.1472 C483.7616,111.3312 484.8176,119.1488 484.8176,127.5984 L484.8176,127.5984 Z M382.7824,185.2688 C385.9488,186.112 389.9648,186.3248 394.6128,186.3248 C402.0064,186.3248 408.5568,185.056 414.68,182.3088 C420.5936,179.5632 425.8768,175.76 430.1008,170.904 C434.328,166.0448 437.4944,160.1296 440.0304,153.3696 C442.3536,146.6064 443.6224,139.0032 443.6224,130.7664 C443.6224,122.736 441.9312,115.7664 438.3408,110.272 C434.7488,104.5712 428.6256,101.6128 419.7536,101.6128 L403.2736,101.6128 L382.7824,185.2688 L382.7824,185.2688 Z M295.3264,185.2688 C290.0432,185.2688 285.8224,184.424 282.6512,182.9456 C279.6928,181.4672 277.368,179.3552 276.1024,176.3952 C274.8336,173.6496 274.4112,170.2704 274.624,166.4672 C274.8336,162.664 275.6784,158.4384 276.7344,154.2144 L289.408,101.4032 L336.728,101.4032 L345.3904,66.336 L297.8576,66.336 L308.8416,21.9728 L264.4784,28.9408 L236.3824,147.664 C234.0576,157.3792 232.7904,166.6784 232.368,175.5472 C231.944,184.4192 233.424,192.0288 236.3824,198.9968 C239.3392,205.7568 244.6208,211.0368 251.8032,215.0512 C258.9856,219.0656 269.3376,220.9648 282.4352,220.9648 C291.52,220.9648 299.5456,220.1216 306.3072,218.6416 C306.9408,218.4272 307.9968,218.2176 308.6288,218.008 L317.2912,181.8832 C314.3328,182.9392 311.376,183.576 308.6288,183.9936 C304.4096,184.8448 299.9712,185.2688 295.3264,185.2688 L295.3264,185.2688 Z M189.4912,66.5488 L152.7328,220.7568 L194.3488,220.7568 L230.8944,66.5488 L189.4912,66.5488 Z M235.3312,48.8016 L241.6688,21.9728 L200.0528,21.9728 L193.7152,48.8016 L235.3312,48.8016 Z M97.3856,66.7568 C106.2576,66.7568 114.0736,68.448 120.6224,71.6128 C127.1712,74.7808 132.4528,79.0064 136.888,84.5008 C141.1136,89.9952 144.2816,96.3328 146.3936,103.5152 C148.5056,110.6944 149.5616,118.5136 149.5616,126.9632 C149.5616,139.8496 147.2384,151.8912 142.3792,163.5088 C137.52,174.9168 131.1824,185.056 122.9456,193.504 C114.7072,201.9536 104.9888,208.7168 93.7936,213.5744 C82.5968,218.432 70.5552,220.9664 57.4592,220.9664 C55.768,220.9664 52.8112,220.9664 48.5872,220.7568 C44.3616,220.7568 39.504,220.3328 34.2224,219.488 C28.7296,218.6448 23.0256,217.5872 17.1104,216.1104 C11.2075497,214.675027 5.47240853,212.621552 0,209.984 L48.3744,6.7632 L91.6816,0 L74.5696,72.0336 C78.3712,70.3456 81.752,69.0768 85.5552,68.2336 C89.1456,67.1808 93.16,66.7568 97.3856,66.7568 L97.3856,66.7568 Z M61.0496,186.3248 C67.5984,186.3248 73.7248,184.8448 79.4288,181.4672 C85.2088308,178.263282 90.3044494,173.956957 94.4272,168.792 C98.6528,163.5088 102.032,157.3824 104.3568,150.832 C106.68,144.072 107.9472,137.104 107.9472,129.9216 C107.9472,121.048 106.4688,114.08 103.5104,109.008 C100.5536,103.9376 94.4272,101.6144 86.4,101.6144 C83.864,101.6144 81.1184,101.8272 76.8928,102.8832 C72.6672,103.7264 69.0768,105.8416 65.6976,108.7968 L47.5296,185.48 C53.0224,186.3248 54.712,186.5344 56.192,186.5344 C57.248,186.3248 58.9376,186.3248 61.0496,186.3248 L61.0496,186.3248 Z"></path>
                </g>
            </g>
        </g>
    </g>
</svg>