<?xml version="1.0" encoding="UTF-8"?>
<svg width="980px" height="680px" viewBox="0 0 980 680" version="1.1" xmlns="http://www.w3.org/2000/svg" xmlns:xlink="http://www.w3.org/1999/xlink">
    <title>WW Credit Card</title>
    <defs>
        <rect id="path-1" x="0" y="1.42108547e-13" width="900" height="600" rx="80"></rect>
        <filter x="-6.7%" y="-10.0%" width="113.3%" height="120.0%" filterUnits="objectBoundingBox" id="filter-2">
            <feMorphology radius="2.5" operator="dilate" in="SourceAlpha" result="shadowSpreadOuter1"></feMorphology>
            <feOffset dx="0" dy="0" in="shadowSpreadOuter1" result="shadowOffsetOuter1"></feOffset>
            <feGaussianBlur stdDeviation="17.5" in="shadowOffsetOuter1" result="shadowBlurOuter1"></feGaussianBlur>
            <feColorMatrix values="0 0 0 0 0   0 0 0 0 0   0 0 0 0 0  0 0 0 0.5 0" type="matrix" in="shadowBlurOuter1"></feColorMatrix>
        </filter>
        <path d="M11.259,0 C4.825,0 -1.42108547e-14,4.825 -1.42108547e-14,11.26 L-1.42108547e-14,11.26 C-1.42108547e-14,17.694 4.825,22.52 11.259,22.52 L11.259,22.52 L250.938,22.52 C257.373,22.52 262.198,17.694 262.198,11.26 L262.198,11.26 C262.198,4.825 257.373,0 250.938,0 L250.938,0 L11.259,0 Z" id="path-3"></path>
        <path d="M11.259,0 C6.434,0 1.609,4.825 -1.42108547e-14,11.26 L-1.42108547e-14,11.26 C-1.42108547e-14,17.694 4.825,22.52 11.259,22.52 L11.259,22.52 L250.938,22.52 C257.373,22.52 262.198,17.694 262.198,11.26 L262.198,11.26 C262.198,4.825 257.373,0 250.938,0 L250.938,0 L11.259,0 Z" id="path-5"></path>
        <path d="M11.26,0 C4.825,0 7.10542736e-15,4.826 7.10542736e-15,11.26 L7.10542736e-15,11.26 C7.10542736e-15,17.694 4.825,22.52 9.65,22.52 L9.65,22.52 L202.681,22.52 C209.115,22.52 213.94,17.694 213.94,11.26 L213.94,11.26 C213.94,6.434 209.115,1.608 204.289,0 L204.289,0 L11.26,0 Z" id="path-7"></path>
    </defs>
    <g id="WW-Credit-Card" stroke="none" stroke-width="1" fill="none" fill-rule="evenodd">
        <g transform="translate(40, 40)">
            <g id="Rectangle">
                <use fill="black" fill-opacity="1" filter="url(#filter-2)" xlink:href="#path-1"></use>
                <use fill="#CB4127" fill-rule="evenodd" xlink:href="#path-1"></use>
            </g>
            <g id="Logo">
                <path d="M900,520 L900,80 C900,35.817 864.183,0 820,0 L80,0 C35.817,0 0,35.817 0,80 L0,520 C0,558.693 27.47,590.968 63.971,598.391 L836.029,598.391 C872.53,590.968 900,558.693 900,520" id="Fill-1" fill="#EF5724"></path>
                <g id="Group-5" transform="translate(46.247, 321.716)">
                    <mask id="mask-4" fill="white">
                        <use xlink:href="#path-3"></use>
                    </mask>
                    <g id="Clip-4"></g>
                    <polygon id="Fill-3" fill="#EFEFEF" mask="url(#mask-4)" points="-1 23.52 263.198 23.52 263.198 -1 -1 -1"></polygon>
                </g>
                <g id="Group-8" transform="translate(46.247, 379.625)">
                    <mask id="mask-6" fill="white">
                        <use xlink:href="#path-5"></use>
                    </mask>
                    <g id="Clip-7"></g>
                    <polygon id="Fill-6" fill="#EFEFEF" mask="url(#mask-6)" points="-1 23.52 263.198 23.52 263.198 -1 -1 -1"></polygon>
                </g>
                <g id="Group-11" transform="translate(47.856, 437.534)">
                    <mask id="mask-8" fill="white">
                        <use xlink:href="#path-7"></use>
                    </mask>
                    <g id="Clip-10"></g>
                    <polygon id="Fill-9" fill="#EFEFEF" mask="url(#mask-8)" points="-1.001 23.52 214.94 23.52 214.94 -1 -1.001 -1"></polygon>
                </g>
                <g id="Group-22" transform="translate(0, 0.0003)">
                    <path d="M886.4126,564.611 L13.5876,564.611 C25.1026,581.72 43.0526,594.137 63.9706,598.391 L836.0296,598.391 C856.9476,594.137 874.8976,581.72 886.4126,564.611" id="Fill-12" fill="#CB4127"></path>
                    <path d="M877.2742,575.8281 C880.6412,572.3741 883.7092,568.6271 886.4122,564.6111 L858.5792,564.6111 L877.2742,575.8281 Z" id="Fill-14" fill="#F05825"></path>
                    <path d="M900,79.9997 C900,65.5117 896.129,51.9357 889.394,40.2137 L10.606,40.2137 C3.871,51.9357 0,65.5117 0,79.9997 L0,234.8527 L900,234.8527 L900,79.9997 Z" id="Fill-16" fill="#334449"></path>
                    <path d="M1.7366,63.395 L875.9726,577.136 C890.7936,562.616 899.9996,542.387 899.9996,520 L899.9996,80 C899.9996,35.817 864.1826,0 819.9996,0 L79.9996,0 C41.5116,0 9.3826,27.183 1.7366,63.395" id="Fill-18" fill="#F3764E"></path>
                    <path d="M900,234.8522 L900,79.9992 C900,65.5112 896.129,51.9352 889.394,40.2142 L10.606,40.2142 C6.546,47.2792 3.528,55.0152 1.776,63.2252 L293.968,234.8522 L900,234.8522 Z" id="Fill-20" fill="#010202"></path>
                </g>
                <g id="50north" transform="translate(380.2, 357.6)" fill="#EFEFEF" fill-rule="nonzero">
                    <path d="M34.8,88.8 C30.88,88.8 27.38,88.42 24.3,87.66 C21.22,86.9 18.5,85.88 16.14,84.6 C13.78,83.32 11.74,81.88 10.02,80.28 C8.3,78.68 6.84,77.04 5.64,75.36 C2.84,71.44 0.96,66.92 0,61.8 L18.6,61.8 C19.16,63.8 20.12,65.52 21.48,66.96 C22.6,68.24 24.22,69.4 26.34,70.44 C28.46,71.48 31.28,72 34.8,72 C39.6,72 43.3,70.8 45.9,68.4 C48.5,66 49.8,63 49.8,59.4 C49.8,55.48 48.5,52.3 45.9,49.86 C43.3,47.42 39.6,46.2 34.8,46.2 C32.24,46.2 30.12,46.5 28.44,47.1 C26.76,47.7 25.4,48.32 24.36,48.96 C23.16,49.76 22.24,50.64 21.6,51.6 L3,51.6 L6.6,2.4 L61.8,2.4 L61.8,19.2 L22.2,19.2 L21,36 L21.6,36 C22.72,34.88 24.08,33.88 25.68,33 C27.04,32.28 28.78,31.6 30.9,30.96 C33.02,30.32 35.52,30 38.4,30 C42.72,30 46.76,30.78 50.52,32.34 C54.28,33.9 57.52,36 60.24,38.64 C62.96,41.28 65.1,44.38 66.66,47.94 C68.22,51.5 69,55.32 69,59.4 C69,63.48 68.2,67.3 66.6,70.86 C65,74.42 62.72,77.52 59.76,80.16 C56.8,82.8 53.22,84.9 49.02,86.46 C44.82,88.02 40.08,88.8 34.8,88.8 Z" id="Path"></path>
                    <path d="M118.2,88.8 C112.52,88.8 107.2,87.72 102.24,85.56 C97.28,83.4 92.96,80.38 89.28,76.5 C85.6,72.62 82.7,67.96 80.58,62.52 C78.46,57.08 77.4,51.04 77.4,44.4 C77.4,37.84 78.46,31.82 80.58,26.34 C82.7,20.86 85.6,16.18 89.28,12.3 C92.96,8.42 97.28,5.4 102.24,3.24 C107.2,1.08 112.52,0 118.2,0 C123.88,0 129.2,1.08 134.16,3.24 C139.12,5.4 143.44,8.42 147.12,12.3 C150.8,16.18 153.7,20.86 155.82,26.34 C157.94,31.82 159,37.84 159,44.4 C159,51.04 157.94,57.08 155.82,62.52 C153.7,67.96 150.8,72.62 147.12,76.5 C143.44,80.38 139.12,83.4 134.16,85.56 C129.2,87.72 123.88,88.8 118.2,88.8 Z M118.2,72 C121.32,72 124.2,71.44 126.84,70.32 C129.48,69.2 131.76,67.5 133.68,65.22 C135.6,62.94 137.1,60.06 138.18,56.58 C139.26,53.1 139.8,49.04 139.8,44.4 C139.8,39.76 139.26,35.7 138.18,32.22 C137.1,28.74 135.6,25.86 133.68,23.58 C131.76,21.3 129.48,19.6 126.84,18.48 C124.2,17.36 121.32,16.8 118.2,16.8 C115.08,16.8 112.2,17.36 109.56,18.48 C106.92,19.6 104.64,21.3 102.72,23.58 C100.8,25.86 99.3,28.74 98.22,32.22 C97.14,35.7 96.6,39.76 96.6,44.4 C96.6,49.04 97.14,53.1 98.22,56.58 C99.3,60.06 100.8,62.94 102.72,65.22 C104.64,67.5 106.92,69.2 109.56,70.32 C112.2,71.44 115.08,72 118.2,72 Z" id="Shape"></path>
                    <path d="M170.4,25.2 L187.2,25.2 L187.2,33.6 L187.8,33.6 C188.92,31.68 190.4,30 192.24,28.56 C193.84,27.28 195.82,26.1 198.18,25.02 C200.54,23.94 203.48,23.4 207,23.4 C214.52,23.4 220.4,25.58 224.64,29.94 C228.88,34.3 231,40.72 231,49.2 L231,86.4 L214.2,86.4 L214.2,51.6 C214.2,47.04 213.08,43.6 210.84,41.28 C208.6,38.96 205.52,37.8 201.6,37.8 C199.68,37.8 197.84,38.2 196.08,39 C194.32,39.8 192.78,40.9 191.46,42.3 C190.14,43.7 189.1,45.4 188.34,47.4 C187.58,49.4 187.2,51.6 187.2,54 L187.2,86.4 L170.4,86.4 L170.4,25.2 Z" id="Path"></path>
                    <path d="M273.6,88.2 C268.8,88.2 264.34,87.36 260.22,85.68 C256.1,84 252.54,81.7 249.54,78.78 C246.54,75.86 244.2,72.42 242.52,68.46 C240.84,64.5 240,60.28 240,55.8 C240,51.32 240.84,47.1 242.52,43.14 C244.2,39.18 246.54,35.74 249.54,32.82 C252.54,29.9 256.1,27.6 260.22,25.92 C264.34,24.24 268.8,23.4 273.6,23.4 C278.4,23.4 282.84,24.24 286.92,25.92 C291,27.6 294.54,29.9 297.54,32.82 C300.54,35.74 302.9,39.18 304.62,43.14 C306.34,47.1 307.2,51.32 307.2,55.8 C307.2,60.28 306.34,64.5 304.62,68.46 C302.9,72.42 300.54,75.86 297.54,78.78 C294.54,81.7 291,84 286.92,85.68 C282.84,87.36 278.4,88.2 273.6,88.2 Z M273.6,73.8 C275.84,73.8 277.94,73.36 279.9,72.48 C281.86,71.6 283.58,70.38 285.06,68.82 C286.54,67.26 287.7,65.38 288.54,63.18 C289.38,60.98 289.8,58.52 289.8,55.8 C289.8,53.08 289.38,50.62 288.54,48.42 C287.7,46.22 286.54,44.34 285.06,42.78 C283.58,41.22 281.86,40 279.9,39.12 C277.94,38.24 275.84,37.8 273.6,37.8 C271.36,37.8 269.26,38.24 267.3,39.12 C265.34,40 263.62,41.22 262.14,42.78 C260.66,44.34 259.5,46.22 258.66,48.42 C257.82,50.62 257.4,53.08 257.4,55.8 C257.4,58.52 257.82,60.98 258.66,63.18 C259.5,65.38 260.66,67.26 262.14,68.82 C263.62,70.38 265.34,71.6 267.3,72.48 C269.26,73.36 271.36,73.8 273.6,73.8 Z" id="Shape"></path>
                    <path d="M316.8,25.2 L333.6,25.2 L333.6,34.2 L334.2,34.2 C334.92,32.28 336,30.6 337.44,29.16 C338.64,27.88 340.24,26.7 342.24,25.62 C344.24,24.54 346.76,24 349.8,24 L357,24 L357,40.2 L348,40.2 C343.44,40.2 339.9,41.44 337.38,43.92 C334.86,46.4 333.6,49.76 333.6,54 L333.6,86.4 L316.8,86.4 L316.8,25.2 Z" id="Path"></path>
                    <polygon id="Path" points="368.4 39.6 360.6 39.6 360.6 25.2 368.4 25.2 368.4 12 385.2 12 385.2 25.2 402.6 25.2 402.6 39.6 385.2 39.6 385.2 72 403.2 72 403.2 86.4 368.4 86.4"></polygon>
                    <path d="M412.8,2.4 L429.6,2.4 L429.6,33.6 L430.2,33.6 C431.32,31.68 432.8,30 434.64,28.56 C436.24,27.28 438.22,26.1 440.58,25.02 C442.94,23.94 445.88,23.4 449.4,23.4 C456.92,23.4 462.8,25.58 467.04,29.94 C471.28,34.3 473.4,40.72 473.4,49.2 L473.4,86.4 L456.6,86.4 L456.6,51.6 C456.6,47.04 455.48,43.6 453.24,41.28 C451,38.96 447.92,37.8 444,37.8 C442.08,37.8 440.24,38.2 438.48,39 C436.72,39.8 435.18,40.9 433.86,42.3 C432.54,43.7 431.5,45.4 430.74,47.4 C429.98,49.4 429.6,51.6 429.6,54 L429.6,86.4 L412.8,86.4 L412.8,2.4 Z" id="Path"></path>
                </g>
            </g>
        </g>
    </g>
</svg>