<?xml version="1.0" encoding="UTF-8"?>
<svg width="980px" height="680px" viewBox="0 0 980 680" version="1.1" xmlns="http://www.w3.org/2000/svg" xmlns:xlink="http://www.w3.org/1999/xlink">
    <title>WW Cirrus</title>
    <defs>
        <linearGradient x1="50%" y1="0%" x2="50%" y2="100%" id="linearGradient-1">
            <stop stop-color="#FFFFFF" offset="0%"></stop>
            <stop stop-color="#EDEDED" offset="100%"></stop>
        </linearGradient>
        <rect id="path-2" x="0" y="0" width="900" height="600" rx="80"></rect>
        <filter x="-6.7%" y="-10.0%" width="113.3%" height="120.0%" filterUnits="objectBoundingBox" id="filter-3">
            <feMorphology radius="2.5" operator="dilate" in="SourceAlpha" result="shadowSpreadOuter1"></feMorphology>
            <feOffset dx="0" dy="0" in="shadowSpreadOuter1" result="shadowOffsetOuter1"></feOffset>
            <feGaussianBlur stdDeviation="17.5" in="shadowOffsetOuter1" result="shadowBlurOuter1"></feGaussianBlur>
            <feColorMatrix values="0 0 0 0 0   0 0 0 0 0   0 0 0 0 0  0 0 0 0.5 0" type="matrix" in="shadowBlurOuter1"></feColorMatrix>
        </filter>
    </defs>
    <g id="WW-Cirrus" stroke="none" stroke-width="1" fill="none" fill-rule="evenodd">
        <g transform="translate(40, 40)">
            <g id="Rectangle">
                <use fill="black" fill-opacity="1" filter="url(#filter-3)" xlink:href="#path-2"></use>
                <use fill="url(#linearGradient-1)" fill-rule="evenodd" xlink:href="#path-2"></use>
            </g>
            <g id="Logo" transform="translate(128, 50)" fill-rule="nonzero">
                <g id="g5502" transform="translate(0, -0)">
                    <polygon id="path3624" fill="#2271CE" points="409.551914 355.908591 235.211217 355.908591 235.211217 42.5969989 409.551914 42.5969989"></polygon>
                    <g id="g3626" transform="translate(161.1847, 199.2592) scale(-1, 1) rotate(-180) translate(-161.1847, -199.2592)translate(0, 0)" fill="#005EB6">
                        <path d="M246.271121,199.25918 C246.271121,262.815878 276.028881,319.430366 322.369404,355.914976 C288.481788,382.594348 245.713717,398.51836 199.233843,398.51836 C89.1972717,398.51836 0,309.30842 0,199.25918 C0,89.2099399 89.1972717,0 199.233843,0 C245.713717,0 288.481788,15.9240123 322.369404,42.6033837 C276.028881,79.0879942 246.271121,135.702482 246.271121,199.25918" id="path3628"></path>
                    </g>
                    <g id="g3630" transform="translate(483.5642, 199.2592) scale(-1, 1) rotate(-180) translate(-483.5642, -199.2592)translate(322.3795, 0)" fill="#0099DF">
                        <path d="M322.369404,199.25918 C322.369404,89.2099399 233.172132,-1.14027028e-13 123.13556,-1.14027028e-13 C76.6556868,-1.14027028e-13 33.8876156,15.9240123 -1.14027028e-13,42.6033837 C46.3405226,79.0879942 76.0982831,135.702482 76.0982831,199.25918 C76.0982831,262.815878 46.3405226,319.430366 -1.14027028e-13,355.914976 C33.8876156,382.594348 76.6556868,398.51836 123.13556,398.51836 C233.172132,398.51836 322.369404,309.30842 322.369404,199.25918" id="path3632"></path>
                    </g>
                </g>
                <g id="g5410" transform="translate(185.806, 419.3893)" fill="#231F20">
                    <g id="g3638" transform="translate(249.6239, 52.7988) scale(-1, 1) rotate(-180) translate(-249.6239, -52.7988)translate(226.1053, 25.0173)">
                        <path d="M45.7071092,50.0269885 C40.1710763,53.6754495 32.532111,55.5630214 24.1330496,55.5630214 C10.7300226,55.5630214 2.10293241,49.1402098 2.10293241,38.6255477 C2.10293241,29.9984575 8.52574405,24.6904534 20.3579059,23.0182421 L25.7925927,22.2454778 C32.0887217,21.3586991 35.0784328,19.699156 35.0784328,16.7221131 C35.0784328,12.6175945 30.872568,10.2993015 23.0182421,10.2993015 C15.0499018,10.2993015 9.29850837,12.8456233 5.4220185,15.8353344 L0,6.866201 C6.30879723,2.21694682 14.2771375,-1.14027028e-13 22.9042277,-1.14027028e-13 C38.1821583,-1.14027028e-13 47.0372773,7.19557596 47.0372773,17.2668486 C47.0372773,26.565357 40.0697302,31.4299717 28.554275,33.1021831 L23.1322565,33.8749474 C18.1536274,34.5336973 14.1631231,35.5344904 14.1631231,39.0689371 C14.1631231,42.9454269 17.9255986,45.2637199 24.2343958,45.2637199 C30.9865824,45.2637199 37.5234084,42.7173981 40.7284801,40.7284801 L45.7071092,50.0269885 Z" id="path3640"></path>
                    </g>
                    <g id="g3642" transform="translate(23.6263, 52.7963) scale(-1, 1) rotate(-180) translate(-23.6263, -52.7963)translate(0, 25.0148)">
                        <path d="M0,27.7815107 C0,11.7308157 11.173412,0 28.2249001,0 C36.1932403,0 41.5012444,1.77355745 47.2526379,6.30879723 L41.716605,15.6073056 C37.409394,12.5035801 32.8741542,10.844037 27.8828568,10.844037 C18.6983629,10.9580514 11.9588445,17.5962236 11.9588445,27.7815107 C11.9588445,37.9667978 18.6983629,44.60497 27.8828568,44.7189844 C32.8741542,44.7189844 37.409394,43.0594413 41.716605,39.9557158 L47.2526379,49.2542242 C41.5012444,53.7894639 36.1932403,55.5630214 28.2249001,55.5630214 C11.173412,55.5630214 0,43.8322057 0,27.7815107" id="path3644"></path>
                    </g>
                    <g id="g3646" transform="translate(102.3773, 52.1349) scale(-1, 1) rotate(-180) translate(-102.3773, -52.1349)translate(85.6172, 25.0185)">
                        <path d="M25.3365351,54.2328533 C18.6983629,54.2328533 14.3784836,51.1291278 11.3887725,46.4798736 L11.3887725,52.9026852 L0,52.9026852 L0,0 L11.5027869,0 L11.5027869,29.6690826 C11.5027869,38.4101872 15.2652624,43.2748019 22.7902133,43.2748019 C25.1211745,43.2748019 27.5534819,42.9454269 29.9857892,41.9446338 L33.5202359,52.7886708 C30.9865824,53.7894639 27.654828,54.2328533 25.3365351,54.2328533" id="path3648"></path>
                    </g>
                    <g id="g3650" transform="translate(145.1231, 52.1349) scale(-1, 1) rotate(-180) translate(-145.1231, -52.1349)translate(128.363, 25.0185)">
                        <path d="M25.3365351,54.2328533 C18.6983629,54.2328533 14.3784836,51.1291278 11.3887725,46.4798736 L11.3887725,52.9026852 L0,52.9026852 L0,-1.14027028e-13 L11.5027869,-1.14027028e-13 L11.5027869,29.6690826 C11.5027869,38.4101872 15.2652624,43.2748019 22.7902133,43.2748019 C25.1211745,43.2748019 27.5534819,42.9454269 29.9857892,41.9446338 L33.5202359,52.7886708 C30.9865824,53.7894639 27.654828,54.2328533 25.3365351,54.2328533" id="path3652"></path>
                    </g>
                    <path d="M73.0573921,79.2273451 L61.4785956,79.2273451 L61.4785956,26.4006695 L73.0573921,26.4006695 L73.0573921,79.2273451 Z M67.2046525,0 C68.3447966,0 69.4089311,0.20269228 70.4092175,0.633413377 C71.4024096,1.05095947 72.2587845,1.63369978 72.993544,2.36896603 C73.7232363,3.10372554 74.3110439,3.96516774 74.7296034,4.9532926 C75.1653918,5.95357901 75.3579495,7.01822021 75.3579495,8.15836429 C75.3579495,9.29850837 75.1552572,10.3626428 74.7296034,11.3507677 C74.3140843,12.3510541 73.7262766,13.2003348 72.993544,13.922426 C72.2638518,14.631849 71.3973423,15.201921 70.4092175,15.5946373 C69.4058907,16.0000219 68.3447966,16.2027142 67.2046525,16.2027142 C66.0645084,16.2027142 65.000374,16.0000219 64.0122491,15.5946373 C63.0089223,15.2024278 62.162682,14.631849 61.4400841,13.922426 C60.7306611,13.2008415 60.1732573,12.3515608 59.7678727,11.3507677 C59.3624882,10.3626428 59.1597959,9.29850837 59.1597959,8.15836429 C59.1597959,7.01822021 59.3624882,5.95408574 59.7678727,4.9532926 C60.1732573,3.96516774 60.7306611,3.10372554 61.4400841,2.36896603 C62.1596417,1.63420651 63.0109492,1.05146621 64.0122491,0.633413377 C65.0054413,0.20269228 66.0645084,0 67.2046525,0" id="path3654"></path>
                    <g id="g3656" transform="translate(194.7992, 53.507) scale(-1, 1) rotate(-180) translate(-194.7992, -53.507)translate(170.6218, 26.4032)">
                        <path d="M48.3547772,23.7656699 C48.3547772,19.5724733 47.6580224,15.9746854 46.2898496,12.9596377 C44.9090084,9.94459001 43.0974461,7.48694611 40.8424945,5.57403771 C38.5875429,3.66112932 36.0158846,2.25495162 33.1148513,1.35550463 C30.2011498,0.456057631 27.2241069,-1.14027028e-13 24.1837227,-1.14027028e-13 C21.1306702,-1.14027028e-13 18.1536274,0.456057631 15.2525941,1.35550463 C12.3388926,2.25495162 9.754566,3.66112932 7.48694611,5.57403771 C5.21932622,7.48694611 3.40776397,9.94459001 2.03959107,12.9596377 C0.684086447,15.9746854 0,19.5724733 0,23.7656699 L0,54.2075168 L11.4394456,54.2075168 L11.4394456,24.8171361 C11.4394456,22.2834826 11.7688205,20.1172088 12.4149022,18.3309831 C13.0736521,16.5574257 13.9730991,15.1132432 15.1132432,14.0111039 C16.2533872,12.9089646 17.6088919,12.0981955 19.1670888,11.6041331 C20.7252857,11.1100706 22.397497,10.8567053 24.1837227,10.8567053 C25.9572802,10.8567053 27.6294915,11.1100706 29.1876884,11.6041331 C30.7458853,12.0981955 32.1013899,12.9089646 33.241534,14.0111039 C34.3943463,15.1132432 35.2811251,16.5574257 35.939875,18.3309831 C36.5986249,20.1172088 36.9153316,22.2834826 36.9153316,24.8171361 L36.9153316,54.2075168 L48.3547772,54.2075168 L48.3547772,23.7656699 Z" id="path3658"></path>
                    </g>
                </g>
            </g>
        </g>
    </g>
</svg>