<?xml version="1.0" encoding="UTF-8"?>
<svg width="980px" height="680px" viewBox="0 0 980 680" version="1.1" xmlns="http://www.w3.org/2000/svg" xmlns:xlink="http://www.w3.org/1999/xlink">
    <title>WW Diners Club text</title>
    <defs>
        <linearGradient x1="50%" y1="0%" x2="50%" y2="100%" id="linearGradient-1">
            <stop stop-color="#FFFFFF" offset="0%"></stop>
            <stop stop-color="#EDEDED" offset="100%"></stop>
        </linearGradient>
        <rect id="path-2" x="2.84217094e-14" y="0" width="900" height="600" rx="80"></rect>
        <filter x="-6.7%" y="-10.0%" width="113.3%" height="120.0%" filterUnits="objectBoundingBox" id="filter-3">
            <feMorphology radius="2.5" operator="dilate" in="SourceAlpha" result="shadowSpreadOuter1"></feMorphology>
            <feOffset dx="0" dy="0" in="shadowSpreadOuter1" result="shadowOffsetOuter1"></feOffset>
            <feGaussianBlur stdDeviation="17.5" in="shadowOffsetOuter1" result="shadowBlurOuter1"></feGaussianBlur>
            <feColorMatrix values="0 0 0 0 0   0 0 0 0 0   0 0 0 0 0  0 0 0 0.5 0" type="matrix" in="shadowBlurOuter1"></feColorMatrix>
        </filter>
    </defs>
    <g id="WW-Diners-Club-text" stroke="none" stroke-width="1" fill="none" fill-rule="evenodd">
        <g transform="translate(40, 40)">
            <g id="Rectangle">
                <use fill="black" fill-opacity="1" filter="url(#filter-3)" xlink:href="#path-2"></use>
                <use fill="url(#linearGradient-1)" fill-rule="evenodd" xlink:href="#path-2"></use>
            </g>
            <g id="Logo" transform="translate(50, 194)">
                <path d="M270.25942,175.712362 L271.117849,175.712362 C273.301882,175.712362 275.631906,175.420379 275.631906,172.266963 L275.631906,140.516737 C275.631906,137.351642 273.301882,137.071338 271.117849,137.071338 L270.265259,137.071338 L270.265259,135.220166 C272.64784,135.220166 276.297627,135.471271 279.293372,135.471271 C282.341674,135.471271 285.997301,135.220166 288.858734,135.220166 L288.858734,137.065498 L288.006143,137.065498 C285.816271,137.065498 283.492087,137.357481 283.492087,140.510897 L283.492087,172.261123 C283.492087,175.426218 285.816271,175.712362 288.006143,175.712362 L288.858734,175.712362 L288.858734,177.540175 C285.938904,177.540175 282.271598,177.306589 279.223296,177.306589 C276.233391,177.306589 272.64784,177.540175 270.265259,177.540175 L270.265259,175.712362 L270.25942,175.712362 Z M330.758287,165.598072 L330.87508,165.481279 L330.87508,142.753326 C330.87508,137.783776 327.400483,137.065498 325.56099,137.065498 L324.229548,137.065498 L324.229548,135.226006 C327.090981,135.226006 329.905697,135.471271 332.76713,135.471271 C335.260664,135.471271 337.771718,135.226006 340.259412,135.226006 L340.259412,137.065498 L339.360105,137.065498 C336.790655,137.065498 333.917543,137.532671 333.917543,144.75049 L333.917543,172.331199 C333.917543,174.450995 333.987618,176.564952 334.291281,178.445322 L331.972936,178.445322 L300.56725,143.664313 L300.56725,168.623016 C300.56725,173.913747 301.59503,175.712362 306.290116,175.712362 L307.329575,175.712362 L307.329575,177.540175 C304.713408,177.540175 302.085561,177.306589 299.457715,177.306589 C296.730594,177.306589 293.915878,177.540175 291.177078,177.540175 L291.177078,175.712362 L292.029668,175.712362 C296.234223,175.712362 297.518948,172.880127 297.518948,168.021531 L297.518948,142.502221 C297.518948,139.109379 294.704232,137.065498 291.971272,137.065498 L291.177078,137.065498 L291.177078,135.226006 C293.483743,135.226006 295.866324,135.471271 298.178829,135.471271 C300.018322,135.471271 301.793578,135.226006 303.609712,135.226006 L330.758287,165.598072 Z M349.392639,138.262628 C344.814346,138.262628 344.650836,139.354645 343.72817,143.775267 L341.900356,143.775267 C342.151462,142.081765 342.443445,140.388264 342.636153,138.618848 C342.86974,136.925347 343.004052,135.226006 343.004052,133.479948 L344.463967,133.479948 C344.960338,135.296082 346.478649,135.226006 348.125433,135.226006 L379.595355,135.226006 C381.23046,135.226006 382.76629,135.167609 382.888923,133.357315 L384.337159,133.602581 C384.115252,135.226006 383.869986,136.87279 383.677277,138.507894 C383.554644,140.142999 383.554644,141.778103 383.554644,143.413208 L381.732671,144.096448 C381.610038,141.842339 381.294696,138.256789 377.212775,138.256789 L367.215278,138.256789 L367.215278,170.509226 C367.215278,175.186792 369.352594,175.712362 372.278263,175.712362 L373.428675,175.712362 L373.428675,177.540175 C371.057774,177.540175 366.783144,177.300749 363.489576,177.300749 C359.839789,177.300749 355.559319,177.540175 353.182578,177.540175 L353.182578,175.712362 L354.33883,175.712362 C357.702474,175.712362 359.395975,175.420379 359.395975,170.637698 L359.395975,138.262628 L349.392639,138.262628 Z M386.293444,175.712362 L387.146035,175.712362 C389.335907,175.712362 391.654251,175.420379 391.654251,172.266963 L391.654251,140.516737 C391.654251,137.351642 389.335907,137.071338 387.146035,137.071338 L386.293444,137.071338 L386.293444,135.220166 C390.001628,135.220166 396.366856,135.471271 401.476558,135.471271 C406.603778,135.471271 412.939808,135.220166 417.068447,135.220166 C416.969173,137.836333 417.033409,141.848179 417.214439,144.511064 L415.369107,144.995755 C415.077124,141.059825 414.347166,137.912249 407.94106,137.912249 L399.485234,137.912249 L399.485234,153.772763 L406.720572,153.772763 C410.387877,153.772763 411.182071,151.728882 411.53829,148.458673 L413.360264,148.458673 C413.243471,150.817895 413.185074,153.177118 413.185074,155.542179 C413.185074,157.848845 413.243471,160.14967 413.360264,162.444656 L411.53829,162.812555 C411.182071,159.174447 410.995202,156.809385 406.778968,156.809385 L399.479394,156.809385 L399.479394,170.929681 C399.479394,174.871451 403.006548,174.871451 406.895761,174.871451 C414.230373,174.871451 417.453865,174.386759 419.281678,167.478443 L420.986859,167.910577 C420.192665,171.128229 419.468547,174.316683 418.91378,177.546015 C415.018727,177.546015 407.993617,177.300749 402.510177,177.300749 C397.020898,177.300749 389.768041,177.540175 386.293444,177.540175 L386.293444,175.712362 Z M437.028402,155.717369 L440.006628,155.717369 C446.109072,155.717369 449.3968,153.422383 449.3968,146.262961 C449.3968,140.884635 445.922203,137.415878 440.497159,137.415878 C438.651827,137.415878 437.875152,137.608587 437.028402,137.661144 L437.028402,155.717369 Z M429.226617,141.65547 C429.226617,137.229009 426.78564,137.059659 424.89359,137.059659 L423.784055,137.059659 L423.784055,135.226006 C425.734501,135.226006 429.5186,135.471271 433.244303,135.471271 C436.89409,135.471271 439.825599,135.226006 443.066609,135.226006 C450.734082,135.226006 457.560643,137.287405 457.560643,145.906742 C457.560643,151.355144 453.916696,154.68375 449.093137,156.581639 L459.534448,172.080094 C461.233789,174.649544 462.442598,175.361982 465.432503,175.712362 L465.432503,177.540175 C463.423661,177.540175 461.473215,177.300749 459.464372,177.300749 C457.560643,177.300749 455.616037,177.540175 453.729827,177.540175 C449.034741,171.426052 445.005376,164.868115 441.046087,157.895562 L437.028402,157.895562 L437.028402,170.865445 C437.028402,175.548851 439.218274,175.712362 442.015471,175.712362 L443.125006,175.712362 L443.125006,177.540175 C439.638729,177.540175 436.105736,177.300749 432.631139,177.300749 C429.711309,177.300749 426.838197,177.540175 423.784055,177.540175 L423.784055,175.712362 L424.89359,175.712362 C427.13602,175.712362 429.226617,174.696261 429.226617,172.442153 L429.226617,141.65547 Z M506.835686,165.598072 L506.952479,165.481279 L506.952479,142.753326 C506.952479,137.783776 503.477882,137.065498 501.655908,137.065498 L500.312787,137.065498 L500.312787,135.226006 C503.180059,135.226006 505.971416,135.471271 508.850368,135.471271 C511.361422,135.471271 513.849116,135.226006 516.35433,135.226006 L516.35433,137.065498 L515.449183,137.065498 C512.879733,137.065498 510.01246,137.532671 510.01246,144.75049 L510.01246,172.331199 C510.01246,174.450995 510.065017,176.564952 510.36284,178.445322 L508.062014,178.445322 L476.656328,143.664313 L476.656328,168.623016 C476.656328,173.913747 477.695787,175.712362 482.390873,175.712362 L483.436172,175.712362 L483.436172,177.540175 C480.808326,177.540175 478.174639,177.306589 475.552632,177.306589 C472.807993,177.306589 470.004956,177.540175 467.266156,177.540175 L467.266156,175.712362 L468.107067,175.712362 C472.329141,175.712362 473.596347,172.880127 473.596347,168.021531 L473.596347,142.502221 C473.596347,139.109379 470.79331,137.065498 468.06035,137.065498 L467.266156,137.065498 L467.266156,135.226006 C469.572822,135.226006 471.972922,135.471271 474.273747,135.471271 C476.095721,135.471271 477.865137,135.226006 479.69879,135.226006 L506.835686,165.598072 Z M535.070437,142.023369 L534.953644,142.023369 L529.277495,159.174447 L540.67067,159.174447 L535.070437,142.023369 Z M526.176637,168.874121 C525.557633,170.929681 524.810156,172.523908 524.810156,173.592566 C524.810156,175.420379 527.391286,175.712362 529.394289,175.712362 L530.071689,175.712362 L530.071689,177.534335 C527.619032,177.417542 525.125498,177.300749 522.678681,177.300749 C520.482969,177.300749 518.298937,177.417542 516.109064,177.534335 L516.109064,175.712362 L516.459444,175.712362 C518.842025,175.712362 520.868386,174.316683 521.756015,171.776432 L531.525764,143.973815 C532.314118,141.719707 533.429493,138.700603 533.785712,136.440655 C535.736158,135.780773 538.177136,134.571964 539.333388,133.842007 C539.526097,133.77777 539.625371,133.731053 539.82392,133.731053 C539.999109,133.731053 540.115903,133.731053 540.250215,133.906243 C540.431244,134.390935 540.612274,134.934023 540.804982,135.424554 L552.017128,167.122223 C552.747085,169.24202 553.482882,171.490288 554.265396,173.312262 C555.007033,174.999923 556.291758,175.712362 558.300601,175.712362 L558.65682,175.712362 L558.65682,177.534335 C555.92386,177.417542 553.17338,177.300749 550.253551,177.300749 C547.275325,177.300749 544.215343,177.417542 541.114484,177.534335 L541.114484,175.712362 L541.786045,175.712362 C543.175884,175.712362 545.558465,175.484615 545.558465,173.966304 C545.558465,173.17211 545.015377,171.537006 544.326297,169.598239 L541.949556,162.567289 L528.109564,162.567289 L526.182476,168.874121 L526.176637,168.874121 Z M561.354742,138.262628 C556.77061,138.262628 556.59542,139.354645 555.678594,143.775267 L553.839101,143.775267 C554.090207,142.081765 554.399709,140.388264 554.580738,138.618848 C554.826004,136.925347 554.948637,135.226006 554.948637,133.479948 L556.408551,133.479948 C556.893243,135.296082 558.423234,135.226006 560.064178,135.226006 L591.5341,135.226006 C593.175045,135.226006 594.687516,135.167609 594.815989,133.357315 L596.281743,133.602581 C596.048157,135.226006 595.81457,136.87279 595.616022,138.507894 C595.464191,140.142999 595.464191,141.778103 595.464191,143.413208 L593.653897,144.096448 C593.554622,141.842339 593.233441,138.256789 589.157359,138.256789 L579.148184,138.256789 L579.148184,170.509226 C579.148184,175.186792 581.285499,175.712362 584.217008,175.712362 L585.36742,175.712362 L585.36742,177.540175 C582.996519,177.540175 578.727728,177.300749 575.428321,177.300749 C571.778534,177.300749 567.498064,177.540175 565.109643,177.540175 L565.109643,175.712362 L566.277575,175.712362 C569.647058,175.712362 571.358078,175.420379 571.358078,170.637698 L571.358078,138.262628 L561.354742,138.262628 Z M598.530012,175.712362 L599.382602,175.712362 C601.589993,175.712362 603.896658,175.420379 603.896658,172.266963 L603.896658,140.516737 C603.896658,137.351642 601.589993,137.071338 599.382602,137.071338 L598.530012,137.071338 L598.530012,135.220166 C600.906753,135.220166 604.56238,135.471271 607.546445,135.471271 C610.600587,135.471271 614.256214,135.220166 617.141005,135.220166 L617.141005,137.065498 L616.288415,137.065498 C614.075184,137.065498 611.751,137.357481 611.751,140.510897 L611.751,172.261123 C611.751,175.426218 614.075184,175.712362 616.288415,175.712362 L617.141005,175.712362 L617.141005,177.540175 C614.203657,177.540175 610.54219,177.306589 607.493888,177.306589 C604.498143,177.306589 600.906753,177.540175 598.530012,177.540175 L598.530012,175.712362 Z M642.368332,175.782438 C654.217,175.782438 656.260881,165.417043 656.260881,156.581639 C656.260881,147.722876 651.466521,136.995422 641.334712,136.995422 C630.671495,136.995422 627.494721,146.44983 627.494721,154.561117 C627.494721,165.417043 632.499308,175.782438 642.368332,175.782438 M641.457345,134.326698 C654.450587,134.326698 664.815981,142.327031 664.815981,155.244357 C664.815981,169.183623 654.760089,178.445322 641.766847,178.445322 C628.820323,178.445322 618.968818,169.732551 618.968818,156.680913 C618.968818,144.096448 628.779446,134.326698 641.451506,134.326698 M705.915502,165.598072 L706.038134,165.481279 L706.038134,142.753326 C706.038134,137.783776 702.557698,137.065498 700.712365,137.065498 L699.398442,137.065498 L699.398442,135.226006 C702.248196,135.226006 705.062911,135.471271 707.924344,135.471271 C710.441237,135.471271 712.934772,135.226006 715.428306,135.226006 L715.428306,137.065498 L714.517319,137.065498 C711.94203,137.065498 709.074757,137.532671 709.074757,144.75049 L709.074757,172.331199 C709.074757,174.450995 709.144833,176.564952 709.448495,178.445322 L707.124311,178.445322 L675.724464,143.664313 L675.724464,168.623016 C675.724464,173.913747 676.758084,175.712362 681.45901,175.712362 L682.492629,175.712362 L682.492629,177.540175 C679.870622,177.540175 677.254455,177.306589 674.626609,177.306589 C671.881969,177.306589 669.073093,177.540175 666.322613,177.540175 L666.322613,175.712362 L667.186883,175.712362 C671.408956,175.712362 672.658643,172.880127 672.658643,168.021531 L672.658643,142.502221 C672.658643,139.109379 669.873126,137.065498 667.110967,137.065498 L666.322613,137.065498 L666.322613,135.226006 C668.646798,135.226006 671.017699,135.471271 673.347723,135.471271 C675.169697,135.471271 676.939114,135.226006 678.766927,135.226006 L705.921341,165.598072 L705.915502,165.598072 Z M734.132734,142.023369 L734.015941,142.023369 L728.333953,159.174447 L739.762165,159.174447 L734.132734,142.023369 Z M725.227254,168.874121 C724.631609,170.929681 723.889972,172.523908 723.889972,173.592566 C723.889972,175.420379 726.471101,175.712362 728.456585,175.712362 L729.139826,175.712362 L729.139826,177.534335 C726.693008,177.417542 724.199474,177.300749 721.758497,177.300749 C719.539426,177.300749 717.361233,177.417542 715.18304,177.534335 L715.18304,175.712362 L715.515901,175.712362 C717.910161,175.712362 719.936523,174.316683 720.83583,171.776432 L730.60558,143.973815 C731.399774,141.719707 732.48595,138.700603 732.853849,136.440655 C734.804295,135.780773 737.239433,134.571964 738.401525,133.842007 C738.588394,133.77777 738.711027,133.731053 738.897896,133.731053 C739.073086,133.731053 739.184039,133.731053 739.318351,133.906243 C739.50522,134.390935 739.68041,134.934023 739.884798,135.424554 L751.096943,167.122223 C751.809382,169.24202 752.556858,171.490288 753.351052,173.312262 C754.06933,174.999923 755.365734,175.712362 757.374577,175.712362 L757.736636,175.712362 L757.736636,177.534335 C754.997836,177.417542 752.247356,177.300749 749.327527,177.300749 C746.331782,177.300749 743.27764,177.417542 740.165102,177.534335 L740.165102,175.712362 L740.848342,175.712362 C742.238181,175.712362 744.632441,175.484615 744.632441,173.966304 C744.632441,173.17211 744.071834,171.537006 743.400273,169.598239 L741.035211,162.567289 L727.201059,162.567289 L725.227254,168.874121 Z M773.112458,171.601242 C773.112458,174.0247 774.805959,174.754658 776.762245,174.999923 C779.255779,175.180953 782.000419,175.180953 784.820974,174.88313 C787.367066,174.585308 789.574457,173.119553 790.660633,171.601242 C791.635856,170.25812 792.173105,168.576298 792.558523,167.233177 L794.327939,167.233177 C793.644699,170.690255 792.792109,174.094776 792.050472,177.540175 C786.695505,177.540175 781.323019,177.300749 775.973891,177.300749 C770.601405,177.300749 765.228918,177.540175 759.868111,177.540175 L759.868111,175.712362 L760.703183,175.712362 C762.922253,175.712362 765.293155,175.420379 765.293155,171.653799 L765.293155,140.510897 C765.293155,137.351642 762.922253,137.065498 760.703183,137.065498 L759.868111,137.065498 L759.868111,135.226006 C763.097443,135.226006 766.274217,135.471271 769.491869,135.471271 C772.610247,135.471271 775.658549,135.226006 778.776927,135.226006 L778.776927,137.065498 L777.241097,137.065498 C774.928592,137.065498 773.112458,137.123895 773.112458,140.335707 L773.112458,171.601242 Z" id="path2432" fill="#231F20"></path>
                <path d="M675.085139,25.8543335 C674.758118,25.8543335 673.847832,26.4143568 672.621503,27.0860928 C670.262281,28.4292144 665.552246,30.4224068 661.079067,31.8764819 L661.079067,33.6557092 C665.342018,34.8820376 667.021387,35.1053461 667.021387,42.3582026 L667.021387,104.35897 C667.021387,108.049634 664.779659,108.054364 661.637922,108.054364 L659.493658,108.054364 L659.493658,110.951361 C663.657335,110.852087 667.696919,110.734709 671.720444,110.734709 C675.767328,110.734709 679.695257,110.951361 683.491036,110.951361 L683.491036,108.042977 L681.586314,108.042977 C678.450417,108.042977 675.98614,108.048817 675.98614,104.35897 L675.98614,27.4282968 C675.98614,26.5231496 675.76832,25.8543335 675.085139,25.8543335 L675.085139,25.8543335 Z M752.871207,25.8543335 C752.526667,25.8543335 751.6339,26.4201965 750.407572,27.0860928 C748.048349,28.4408937 743.350285,30.4226404 738.853748,31.8650361 L738.853748,33.6557092 C743.110859,34.8761979 744.784622,35.1053461 744.784622,42.3582026 L744.784622,90.2388494 C744.784622,97.0245331 744.220511,103.503518 743.233492,110.073134 L745.583021,111.293565 L748.947657,108.738714 C751.867486,109.959203 756.223989,112.627985 764.516305,112.627985 C780.557848,112.627985 791.308018,98.0227061 791.308018,83.4410775 C791.308018,71.3121057 783.457706,60.0596667 770.458625,60.0596667 C764.303624,60.0596667 758.245679,64.2939451 753.760821,68.0663648 L753.760821,27.4282968 C753.760821,26.5231496 753.543001,25.8543335 752.871207,25.8543335 Z M627.900227,31.5342778 C605.92559,31.5342778 585.437204,47.9136455 585.437204,70.7467099 C585.437204,95.8046868 601.999528,112.616598 628.219539,112.616598 C635.618445,112.616598 648.297163,109.628036 653.003928,106.719885 L655.581553,90.4555591 L653.003928,89.7940425 C650.761499,101.496719 641.573204,109.069472 630.477852,109.069472 C613.239179,109.069472 597.059527,92.9108437 597.059527,70.3931185 C597.059527,43.6766809 615.781533,35.1042366 628.687179,35.1042366 C641.224927,35.1042366 650.541928,40.3421188 652.661724,53.3645584 L655.456118,53.3645584 L654.349736,37.4309903 C645.71872,34.4294056 636.980896,31.5342778 627.900227,31.5342778 L627.900227,31.5342778 Z M363.746871,31.9792599 C360.932156,31.9792599 358.249416,34.5484763 358.249416,37.3398333 C358.249416,40.2304645 360.815362,42.9057875 363.746871,42.9057875 C366.765975,42.9057875 369.244385,40.341418 369.244385,37.3398333 C369.244385,34.3207295 366.643342,31.9792599 363.746871,31.9792599 Z M270.392155,33.2224649 L270.392155,36.0966283 C275.425941,36.2134214 280.691445,35.5482843 280.691445,45.5632995 L280.691445,99.5915305 C280.358584,107.165568 277.101923,107.38876 270.392155,108.054481 L270.392155,110.951478 C275.425941,110.852203 280.356482,110.734826 285.401947,110.734826 C290.66348,110.734826 295.955379,110.951478 301.654886,110.951478 C341.32953,110.951478 347.824691,83.220572 347.824691,72.1952957 C347.824691,52.4689299 332.023858,33.2224649 303.000753,33.2224649 C294.708437,33.2224649 288.31804,33.4163416 283.611274,33.4163416 C279.23737,33.4163416 274.75438,33.4210133 270.392155,33.2224649 L270.392155,33.2224649 Z M300.411681,36.7809779 C322.041778,36.7809779 335.483856,51.8217789 335.483856,72.6401609 C335.483856,89.2423115 327.548577,107.392965 303.331511,107.392965 C297.842231,107.392965 291.675026,106.396544 291.675026,97.8122447 L291.675026,37.2143974 C293.701388,37.0976042 295.81587,36.7809779 300.411681,36.7809779 L300.411681,36.7809779 Z M367.442266,60.0594915 C366.875819,60.0594915 366.20601,60.1754088 365.423496,60.6069596 C364.968002,60.9573391 358.698019,63.0508569 353.424807,64.6217251 L353.424807,66.4123982 C357.588484,68.6256289 359.253078,69.2915253 359.253078,74.1909992 L359.253078,104.358794 C359.253078,108.049459 357.016956,108.054189 353.881059,108.054189 L351.748182,108.054189 L351.748182,110.951186 C355.89434,110.851911 359.928377,110.734534 363.963581,110.734534 C367.992946,110.734534 371.920876,110.951186 375.734173,110.951186 L375.734173,108.054189 L373.829393,108.054189 C370.699336,108.054189 368.217889,108.049459 368.217889,104.358794 L368.217889,61.6106218 C368.217889,60.7171539 367.99715,60.0594915 367.442266,60.0594915 L367.442266,60.0594915 Z M394.678844,60.0597835 C389.294679,62.3839678 384.697641,63.8383933 379.885762,65.3975822 L379.885762,67.5304593 C385.147294,69.6385762 386.37555,70.7530751 386.37555,74.8641951 L386.37555,104.370474 C386.37555,108.061138 384.139428,108.054481 381.003531,108.054481 L378.984761,108.054481 L378.984761,110.951478 C383.014125,110.852203 387.05698,110.734826 391.074665,110.734826 C395.115709,110.734826 399.057829,110.951478 402.98208,110.951478 L402.98208,108.054481 L400.96331,108.054481 C397.827413,108.054481 395.340361,108.060321 395.340361,104.370474 L395.340361,71.4197306 C399.054384,68.9612342 404.757161,66.0705445 408.342712,66.0705445 C414.737139,66.0705445 418.653389,69.1777687 418.653389,75.5371574 L418.653389,104.370474 C418.653389,108.061138 416.423048,108.054481 413.281312,108.054481 L411.262542,108.054481 L411.262542,110.951478 C415.297746,110.852203 419.334235,110.734826 423.375279,110.734826 C427.392965,110.734826 431.312544,110.951478 435.248474,110.951478 L435.248474,108.054481 L433.229704,108.054481 C430.099646,108.054481 427.629588,108.060321 427.629588,104.370474 L427.629588,75.6512059 C427.629588,66.950114 424.259871,60.0597835 414.741226,60.0597835 C407.231425,60.0597835 401.734788,63.8417803 395.340361,68.420073 L395.340361,61.1547196 C395.340361,60.2729311 395.017428,60.0597835 394.678844,60.0597835 L394.678844,60.0597835 Z M457.420958,60.0597835 C449.589976,60.0597835 434.803667,66.5111468 434.803667,88.3456319 C434.803667,95.4641762 438.377655,112.616715 456.211974,112.616715 C465.397757,112.616715 471.78506,106.839248 476.947318,100.047725 L475.373355,98.485207 C471.238876,102.602167 466.404807,105.944437 460.238127,105.944437 C451.28009,105.944437 444.42252,97.2676965 443.768478,86.6803947 C443.534892,82.890456 443.534892,81.2234086 443.768478,80.2248269 L475.259306,80.2248269 L476.274356,79.551923 C476.37947,78.8745225 476.377134,78.2222326 476.377134,77.5331528 C476.27202,65.731202 466.507585,60.0597835 457.421075,60.0597835 L457.420958,60.0597835 Z M495.219027,60.0597835 C494.208766,60.0597835 489.707849,62.9497724 481.532327,66.4126902 L481.532327,68.0664816 C483.214148,68.9657891 487.349211,69.6395689 487.349211,73.0849678 L487.349211,104.359086 C487.349211,108.049751 485.124476,108.054481 481.988579,108.054481 L478.954701,108.054481 L478.954701,110.951478 C482.995745,110.852203 487.691707,110.734826 492.299198,110.734826 C497.116917,110.734826 501.815214,110.846364 507.981894,110.951478 L507.981894,108.054481 L501.697428,108.054481 C498.561531,108.054481 496.325409,108.049751 496.325409,104.359086 L496.325409,78.2174441 C496.325409,71.5193552 502.610868,68.967541 504.514597,68.967541 C508.427168,68.967541 508.419168,71.6478277 511.905444,71.6478277 C515.05302,71.6478277 517.163415,68.963862 517.163415,65.9564376 C517.163415,61.9387522 513.590711,60.0597835 510.787675,60.0597835 C503.949434,60.0597835 499.242202,67.1893648 496.450845,71.5223918 L496.211419,71.5223918 L496.211419,61.5083109 C496.211419,60.3812567 495.884982,60.0597835 495.219144,60.0597835 L495.219027,60.0597835 Z M538.252292,60.0597835 C525.924772,60.0597835 520.881643,68.0682919 520.881643,74.316727 C520.881643,92.2386406 545.289549,88.0148736 545.289549,101.154106 C545.289549,105.049159 542.832629,109.069589 536.222135,109.069589 C528.040772,109.069589 523.562221,102.820395 522.090627,95.4741037 L520.083244,96.032959 L521.315004,108.852821 C525.233415,111.077731 530.505167,112.628102 535.001704,112.628102 C548.327806,112.628102 554.265747,104.827778 554.265747,97.4814865 C554.265747,79.9975473 528.272432,84.0034366 528.272432,70.963478 C528.272432,66.1749576 532.524229,63.6069092 537.009087,63.6069092 C544.180189,63.6069092 548.114659,67.6340548 549.235873,74.6474853 L551.80217,74.6474853 L551.015159,63.2761509 C546.647094,61.0512408 541.832003,60.0597835 538.252292,60.0597835 L538.252292,60.0597835 Z M697.953302,61.7362912 C696.487547,61.7362912 687.543467,62.3893403 683.502423,62.5119731 L683.502423,64.6220171 C689.756698,65.1709451 690.220308,67.9641124 690.220308,70.8722626 L690.220308,99.386208 C690.220308,108.735502 696.482876,112.628102 702.526923,112.628102 C710.492218,112.628102 715.668433,108.741167 722.384041,103.286925 L722.384041,112.297344 L722.931801,112.628102 C725.074956,111.956308 734.258228,109.621378 739.093466,109.183404 L739.093466,106.833817 C737.633551,106.833817 735.942503,106.936595 734.611119,106.936595 C732.695652,106.936595 731.463134,106.841409 731.463134,104.826551 L731.463134,63.7322283 C731.463134,62.5058999 731.466988,61.7362912 730.57352,61.7362912 C729.458145,61.7362912 723.173855,62.6044733 713.088764,63.2760341 L713.088764,65.2834169 C717.118128,66.4104711 722.486936,67.6265801 722.486936,69.8456505 L722.486936,99.8309565 C717.78601,103.70265 712.732895,106.605837 708.937116,106.605837 C699.190725,106.605837 699.19674,97.0177591 699.19674,93.6833138 L699.19674,64.9526586 C699.19674,62.5058415 699.197383,61.7362912 697.953535,61.7362912 L697.953302,61.7362912 Z M456.987539,63.6182965 C463.259333,63.6182965 466.727915,68.1782527 466.727915,73.8719202 C466.727915,75.2033625 466.405566,76.6434808 463.61415,76.6434808 L444.099236,76.6434808 C445.448197,68.6139496 450.155138,63.6182965 456.987539,63.6182965 Z M764.425031,66.0705445 C773.161161,66.0705445 782.354653,76.0880708 782.354653,88.1060891 C782.354653,98.0218301 777.315202,109.731106 765.314703,109.731106 C757.793222,109.731106 753.760821,102.610751 753.760821,98.3711585 L753.760821,71.3170694 C756.791604,68.7476194 760.249675,66.0705445 764.425031,66.0705445 Z" id="path2441" fill="#231F20"></path>
                <path d="M107.473085,211.793888 C48.5217268,212.061378 0,164.602469 0,106.819043 C0,43.6689725 48.5217268,-0.0116769822 107.473085,0 L135.106351,0 C193.35695,-0.0116769822 246.527045,43.6456139 246.527045,106.819043 C246.527045,164.573271 193.35695,211.793888 135.106351,211.793888 L107.473085,211.793888 Z" id="path2446" fill="#004C97"></path>
                <path d="M107.473085,211.793888 C48.5217268,212.061378 0,164.602469 0,106.819043 C0,43.6689725 48.5217268,-0.0116769822 107.473085,0 L109.020594,0 C167.265353,-0.0116769822 218.263096,43.6456139 218.263096,106.819043 C218.263096,164.573271 167.265353,211.793888 109.020594,211.793888 L107.473085,211.793888 Z" id="path2453" fill="#004C97"></path>
                <path d="M107.712511,8.7623523 C53.8416562,8.77987128 10.190205,52.1685378 10.190205,105.712369 C10.190205,159.244523 53.8416562,202.62735 107.712511,202.63319 C161.589205,202.63319 205.246496,159.244523 205.264015,105.712369 C205.246496,52.1626982 161.583365,8.77403162 107.712511,8.7623523" id="path2457" fill="#FEFEFE"></path>
                <path d="M85.5685237,163.034462 L85.5685237,48.3669198 C62.3850773,57.2432015 45.9464372,79.5390173 45.8880406,105.712369 C45.9464372,131.874041 62.390917,154.181539 85.5685237,163.034462 M169.54866,105.712369 C169.501943,79.527338 153.039944,57.2023239 129.833139,48.3552405 L129.833139,163.06366 C153.039944,154.204898 169.501943,131.90324 169.54282,105.712369" id="path2459" fill="#004C97"></path>
            </g>
        </g>
    </g>
</svg>