<?xml version="1.0" encoding="UTF-8"?>
<svg width="980px" height="680px" viewBox="0 0 980 680" version="1.1" xmlns="http://www.w3.org/2000/svg" xmlns:xlink="http://www.w3.org/1999/xlink">
    <title>WW Diners Club text alt</title>
    <defs>
        <linearGradient x1="50%" y1="0%" x2="50%" y2="100%" id="linearGradient-1">
            <stop stop-color="#FFFFFF" offset="0%"></stop>
            <stop stop-color="#EDEDED" offset="100%"></stop>
        </linearGradient>
        <rect id="path-2" x="2.84217094e-14" y="0" width="900" height="600" rx="80"></rect>
        <filter x="-6.7%" y="-10.0%" width="113.3%" height="120.0%" filterUnits="objectBoundingBox" id="filter-3">
            <feMorphology radius="2.5" operator="dilate" in="SourceAlpha" result="shadowSpreadOuter1"></feMorphology>
            <feOffset dx="0" dy="0" in="shadowSpreadOuter1" result="shadowOffsetOuter1"></feOffset>
            <feGaussianBlur stdDeviation="17.5" in="shadowOffsetOuter1" result="shadowBlurOuter1"></feGaussianBlur>
            <feColorMatrix values="0 0 0 0 0   0 0 0 0 0   0 0 0 0 0  0 0 0 0.5 0" type="matrix" in="shadowBlurOuter1"></feColorMatrix>
        </filter>
    </defs>
    <g id="WW-Diners-Club-text-alt" stroke="none" stroke-width="1" fill="none" fill-rule="evenodd">
        <g transform="translate(40, 40)">
            <g id="Rectangle">
                <use fill="black" fill-opacity="1" filter="url(#filter-3)" xlink:href="#path-2"></use>
                <use fill="url(#linearGradient-1)" fill-rule="evenodd" xlink:href="#path-2"></use>
            </g>
            <g id="Logo" transform="translate(106.2594, 50)">
                <path d="M0,496.454801 L1.11355597,496.454801 C3.94668475,496.454801 6.9691938,496.076041 6.9691938,491.985427 L6.9691938,450.799007 C6.9691938,446.693243 3.94668475,446.329633 1.11355597,446.329633 L0.00757521065,446.329633 L0.00757521065,443.928291 C3.09826116,443.928291 7.83276782,444.254025 11.7188509,444.254025 C15.6731108,444.254025 20.4151927,443.928291 24.1270459,443.928291 L24.1270459,446.322057 L23.0210652,446.322057 C20.1803612,446.322057 17.1654273,446.700818 17.1654273,450.791432 L17.1654273,491.977852 C17.1654273,496.083616 20.1803612,496.454801 23.0210652,496.454801 L24.1270459,496.454801 L24.1270459,498.825842 C20.3394406,498.825842 15.5822083,498.522834 11.6279484,498.522834 C7.7494405,498.522834 3.09826116,498.825842 0.00757521065,498.825842 L0.00757521065,496.454801 L0,496.454801 Z M78.4791824,483.334537 L78.6306866,483.183032 L78.6306866,453.700312 C78.6306866,447.253808 74.1234363,446.322057 71.7372449,446.322057 L70.0100969,446.322057 L70.0100969,443.935866 C73.7219501,443.935866 77.3732016,444.254025 81.0850548,444.254025 C84.3196698,444.254025 87.5770104,443.935866 90.8040501,443.935866 L90.8040501,446.322057 L89.6374677,446.322057 C86.304375,446.322057 82.5773713,446.928074 82.5773713,456.291035 L82.5773713,492.068754 C82.5773713,494.818556 82.6682739,497.560782 83.0621848,500 L80.0548262,500 L39.3153433,454.882045 L39.3153433,487.258496 C39.3153433,494.121637 40.6485804,496.454801 46.7390497,496.454801 L48.0874372,496.454801 L48.0874372,498.825842 C44.6937429,498.825842 41.2848981,498.522834 37.8760533,498.522834 C34.3384299,498.522834 30.6871784,498.825842 27.1344046,498.825842 L27.1344046,496.454801 L28.2403853,496.454801 C33.694537,496.454801 35.3610833,492.780824 35.3610833,486.478249 L35.3610833,453.374578 C35.3610833,448.973381 31.7098318,446.322057 28.1646332,446.322057 L27.1344046,446.322057 L27.1344046,443.935866 C30.1266128,443.935866 33.2172987,444.254025 36.2170821,444.254025 C38.6032735,444.254025 40.9061375,443.935866 43.262028,443.935866 L78.4791824,483.334537 Z M102.65168,447.874975 C96.7127144,447.874975 96.5006085,449.29154 95.3037252,455.025974 L92.9326843,455.025974 C93.2584184,452.829163 93.6371789,450.632352 93.8871608,448.337063 C94.1901693,446.140252 94.3643991,443.935866 94.3643991,441.670878 L96.2582018,441.670878 C96.9020947,444.026768 98.8716495,443.935866 101.007859,443.935866 L141.830669,443.935866 C143.951728,443.935866 145.944008,443.860114 146.103088,441.511799 L147.98174,441.829957 C147.693882,443.935866 147.375723,446.072075 147.125741,448.193134 C146.966662,450.314193 146.966662,452.435252 146.966662,454.556311 L144.603196,455.442611 C144.444117,452.51858 144.035055,447.8674 138.739983,447.8674 L125.771222,447.8674 L125.771222,489.705289 C125.771222,495.773032 128.54375,496.454801 132.33893,496.454801 L133.831247,496.454801 L133.831247,498.825842 C130.755711,498.825842 125.210657,498.515259 120.938238,498.515259 C116.203731,498.515259 110.651102,498.825842 107.567991,498.825842 L107.567991,496.454801 L109.067883,496.454801 C113.431204,496.454801 115.628015,496.076041 115.628015,489.871943 L115.628015,447.874975 L102.65168,447.874975 Z M150.519436,496.454801 L151.625416,496.454801 C154.46612,496.454801 157.473479,496.076041 157.473479,491.985427 L157.473479,450.799007 C157.473479,446.693243 154.46612,446.329633 151.625416,446.329633 L150.519436,446.329633 L150.519436,443.928291 C155.329694,443.928291 163.586674,444.254025 170.214983,444.254025 C176.866018,444.254025 185.085122,443.928291 190.440796,443.928291 C190.312017,447.321985 190.395345,452.526155 190.630176,455.980451 L188.23641,456.609193 C187.857649,451.503501 186.910748,447.420463 178.600742,447.420463 L167.631837,447.420463 L167.631837,467.994735 L177.017523,467.994735 C181.774755,467.994735 182.804984,465.343411 183.267071,461.101293 L185.630537,461.101293 C185.479033,464.161678 185.403281,467.222063 185.403281,470.290024 C185.403281,473.282232 185.479033,476.266865 185.630537,479.243923 L183.267071,479.721161 C182.804984,475.001805 182.562577,471.933845 177.093275,471.933845 L167.624261,471.933845 L167.624261,490.250704 C167.624261,495.363971 172.199689,495.363971 177.244779,495.363971 C186.759243,495.363971 190.94076,494.735229 193.311801,485.773754 L195.523762,486.33432 C194.493534,490.508261 193.554207,494.644326 192.834562,498.833418 C187.781897,498.833418 178.668918,498.515259 171.555796,498.515259 C164.435098,498.515259 155.026686,498.825842 150.519436,498.825842 L150.519436,496.454801 Z M216.332866,470.51728 L220.196223,470.51728 C228.112318,470.51728 232.377162,467.540222 232.377162,458.253014 C232.377162,451.276245 227.869912,446.77657 220.832541,446.77657 C218.438774,446.77657 217.431271,447.026552 216.332866,447.094729 L216.332866,470.51728 Z M206.212384,452.276173 C206.212384,446.534163 203.045946,446.314482 200.591578,446.314482 L199.152288,446.314482 L199.152288,443.935866 C201.682408,443.935866 206.591145,444.254025 211.424129,444.254025 C216.158636,444.254025 219.961392,443.935866 224.165634,443.935866 C234.111885,443.935866 242.967307,446.609915 242.967307,457.790926 C242.967307,464.858598 238.240375,469.176468 231.983251,471.638411 L245.527728,491.74302 C247.732114,495.076113 249.300183,496.000289 253.17869,496.454801 L253.17869,498.825842 C250.572818,498.825842 248.042698,498.515259 245.436825,498.515259 C242.967307,498.515259 240.444761,498.825842 237.997968,498.825842 C231.907499,490.894597 226.680604,482.387635 221.544611,473.342834 L216.332866,473.342834 L216.332866,490.167377 C216.332866,496.242696 219.17357,496.454801 222.802096,496.454801 L224.241386,496.454801 L224.241386,498.825842 C219.718985,498.825842 215.135983,498.515259 210.628732,498.515259 C206.841127,498.515259 203.114123,498.825842 199.152288,498.825842 L199.152288,496.454801 L200.591578,496.454801 C203.500459,496.454801 206.212384,495.136715 206.212384,492.212683 L206.212384,452.276173 Z M306.886934,483.334537 L307.038438,483.183032 L307.038438,453.700312 C307.038438,447.253808 302.531188,446.322057 300.167722,446.322057 L298.425424,446.322057 L298.425424,443.935866 C302.144852,443.935866 305.765803,444.254025 309.500382,444.254025 C312.757722,444.254025 315.984762,443.935866 319.234527,443.935866 L319.234527,446.322057 L318.06037,446.322057 C314.727277,446.322057 311.007849,446.928074 311.007849,456.291035 L311.007849,492.068754 C311.007849,494.818556 311.076026,497.560782 311.462361,500 L308.477728,500 L267.738245,454.882045 L267.738245,487.258496 C267.738245,494.121637 269.086633,496.454801 275.177102,496.454801 L276.533065,496.454801 L276.533065,498.825842 C273.12422,498.825842 269.7078,498.522834 266.306531,498.522834 C262.746182,498.522834 259.11008,498.825842 255.557307,498.825842 L255.557307,496.454801 L256.648137,496.454801 C262.125014,496.454801 263.768835,492.780824 263.768835,486.478249 L263.768835,453.374578 C263.768835,448.973381 260.132734,446.322057 256.587535,446.322057 L255.557307,446.322057 L255.557307,443.935866 C258.549515,443.935866 261.662926,444.254025 264.647559,444.254025 C267.011025,444.254025 269.306314,443.935866 271.68493,443.935866 L306.886934,483.334537 Z M343.513078,452.753411 L343.361573,452.753411 L335.998469,475.001805 L350.777705,475.001805 L343.513078,452.753411 Z M331.976032,487.58423 C331.173059,490.250704 330.203432,492.318736 330.203432,493.705 C330.203432,496.076041 333.551676,496.454801 336.149973,496.454801 L337.028697,496.454801 L337.028697,498.818267 C333.847109,498.666763 330.612494,498.515259 327.438481,498.515259 C324.590201,498.515259 321.757073,498.666763 318.916369,498.818267 L318.916369,496.454801 L319.370881,496.454801 C322.461567,496.454801 325.090165,494.644326 326.241597,491.349109 L338.914925,455.283532 C339.937578,452.3595 341.384443,448.443116 341.846531,445.51151 C344.376652,444.655511 347.54309,443.087442 349.042981,442.140541 C349.292963,442.057214 349.421742,441.996612 349.679299,441.996612 C349.906555,441.996612 350.05806,441.996612 350.232289,442.223868 C350.467121,442.852611 350.701952,443.557105 350.951934,444.193423 L365.496339,485.311667 C366.44324,488.061468 367.397717,490.977924 368.412795,493.34139 C369.374847,495.530626 371.041393,496.454801 373.647266,496.454801 L374.109353,496.454801 L374.109353,498.818267 C370.564155,498.666763 366.996231,498.515259 363.208625,498.515259 C359.345268,498.515259 355.375857,498.666763 351.353421,498.818267 L351.353421,496.454801 L352.22457,496.454801 C354.02747,496.454801 357.118156,496.159368 357.118156,494.189813 C357.118156,493.159585 356.413661,491.038526 355.519786,488.523556 L352.436676,479.403002 L334.483426,479.403002 L331.983607,487.58423 L331.976032,487.58423 Z M377.609101,447.874975 C371.66256,447.874975 371.435304,449.29154 370.245996,455.025974 L367.859805,455.025974 C368.185539,452.829163 368.587025,450.632352 368.821856,448.337063 C369.140015,446.140252 369.299095,443.935866 369.299095,441.670878 L371.192897,441.670878 C371.82164,444.026768 373.806345,443.935866 375.934979,443.935866 L416.757789,443.935866 C418.886424,443.935866 420.848403,443.860114 421.015058,441.511799 L422.916436,441.829957 C422.613427,443.935866 422.310419,446.072075 422.052862,448.193134 C421.855906,450.314193 421.855906,452.435252 421.855906,454.556311 L419.507591,455.442611 C419.378812,452.51858 418.962176,447.8674 413.674679,447.8674 L400.690768,447.8674 L400.690768,489.705289 C400.690768,495.773032 403.463295,496.454801 407.26605,496.454801 L408.758367,496.454801 L408.758367,498.825842 C405.682831,498.825842 400.145352,498.515259 395.865358,498.515259 C391.130852,498.515259 385.578222,498.825842 382.479961,498.825842 L382.479961,496.454801 L383.995003,496.454801 C388.3659,496.454801 390.585437,496.076041 390.585437,489.871943 L390.585437,447.874975 L377.609101,447.874975 Z M425.832892,496.454801 L426.938872,496.454801 C429.802302,496.454801 432.79451,496.076041 432.79451,491.985427 L432.79451,450.799007 C432.79451,446.693243 429.802302,446.329633 426.938872,446.329633 L425.832892,446.329633 L425.832892,443.928291 C428.916002,443.928291 433.658084,444.254025 437.529017,444.254025 C441.490852,444.254025 446.232934,443.928291 449.975088,443.928291 L449.975088,446.322057 L448.869107,446.322057 C445.998102,446.322057 442.983169,446.700818 442.983169,450.791432 L442.983169,491.977852 C442.983169,496.083616 445.998102,496.454801 448.869107,496.454801 L449.975088,496.454801 L449.975088,498.825842 C446.164757,498.825842 441.4151,498.522834 437.46084,498.522834 C433.574757,498.522834 428.916002,498.825842 425.832892,498.825842 L425.832892,496.454801 Z M482.699998,496.545704 C498.070101,496.545704 500.721424,483.099705 500.721424,471.638411 C500.721424,460.146817 494.502176,446.231155 481.359186,446.231155 C467.526851,446.231155 463.405937,458.495421 463.405937,469.017388 C463.405937,483.099705 469.897892,496.545704 482.699998,496.545704 M481.518265,442.769284 C498.373109,442.769284 511.819108,453.147322 511.819108,469.903688 C511.819108,487.985716 498.774595,500 481.919751,500 C465.125509,500 452.346129,488.697786 452.346129,471.76719 C452.346129,455.442611 465.072483,442.769284 481.51069,442.769284 M565.13344,483.334537 L565.29252,483.183032 L565.29252,453.700312 C565.29252,447.253808 560.777694,446.322057 558.383928,446.322057 L556.679505,446.322057 L556.679505,443.935866 C560.376208,443.935866 564.02746,444.254025 567.739313,444.254025 C571.004229,444.254025 574.238844,443.935866 577.473459,443.935866 L577.473459,446.322057 L576.291726,446.322057 C572.951058,446.322057 569.231629,446.928074 569.231629,456.291035 L569.231629,492.068754 C569.231629,494.818556 569.322532,497.560782 569.716443,500 L566.701509,500 L525.969601,454.882045 L525.969601,487.258496 C525.969601,494.121637 527.310414,496.454801 533.408458,496.454801 L534.74927,496.454801 L534.74927,498.825842 C531.348001,498.825842 527.954307,498.522834 524.545462,498.522834 C520.985113,498.522834 517.341436,498.825842 513.773512,498.825842 L513.773512,496.454801 L514.894643,496.454801 C520.371521,496.454801 521.992616,492.780824 521.992616,486.478249 L521.992616,453.374578 C521.992616,448.973381 518.37924,446.322057 514.796166,446.322057 L513.773512,446.322057 L513.773512,443.935866 C516.788446,443.935866 519.863982,444.254025 522.886491,444.254025 C525.249956,444.254025 527.545245,443.935866 529.916286,443.935866 L565.141016,483.334537 L565.13344,483.334537 Z M601.736858,452.753411 L601.585354,452.753411 L594.214674,475.001805 L609.039361,475.001805 L601.736858,452.753411 Z M590.184662,487.58423 C589.411991,490.250704 588.449939,492.318736 588.449939,493.705 C588.449939,496.076041 591.798182,496.454801 594.373754,496.454801 L595.260053,496.454801 L595.260053,498.818267 C592.08604,498.666763 588.851425,498.515259 585.684987,498.515259 C582.806407,498.515259 579.980853,498.666763 577.1553,498.818267 L577.1553,496.454801 L577.587087,496.454801 C580.692923,496.454801 583.321521,494.644326 584.488104,491.349109 L597.161431,455.283532 C598.19166,452.3595 599.600649,448.443116 600.077887,445.51151 C602.608008,444.655511 605.76687,443.087442 607.274337,442.140541 C607.516744,442.057214 607.675823,441.996612 607.91823,441.996612 C608.145487,441.996612 608.289416,441.996612 608.463645,442.223868 C608.706052,442.852611 608.933308,443.557105 609.198441,444.193423 L623.742845,485.311667 C624.667021,488.061468 625.636648,490.977924 626.666877,493.34139 C627.598627,495.530626 629.280324,496.454801 631.886197,496.454801 L632.35586,496.454801 L632.35586,498.818267 C628.803086,498.666763 625.235162,498.515259 621.447556,498.515259 C617.561473,498.515259 613.599638,498.666763 609.562051,498.818267 L609.562051,496.454801 L610.448351,496.454801 C612.251251,496.454801 615.357087,496.159368 615.357087,494.189813 C615.357087,493.159585 614.629867,491.038526 613.758718,488.523556 L610.690757,479.403002 L592.745083,479.403002 L590.184662,487.58423 Z M652.301389,491.121853 C652.301389,494.265566 654.498201,495.212467 657.035896,495.530626 C660.270511,495.765457 663.83086,495.765457 667.489687,495.379122 C670.792479,494.992786 673.655908,493.091408 675.064897,491.121853 C676.329958,489.379555 677.026877,487.197894 677.526841,485.455596 L679.82213,485.455596 C678.93583,489.94012 677.829849,494.356468 676.867798,498.825842 C669.921329,498.825842 662.952136,498.515259 656.013243,498.515259 C649.044049,498.515259 642.074855,498.825842 635.120812,498.825842 L635.120812,496.454801 L636.204067,496.454801 C639.082647,496.454801 642.158182,496.076041 642.158182,491.19003 L642.158182,450.791432 C642.158182,446.693243 639.082647,446.322057 636.204067,446.322057 L635.120812,446.322057 L635.120812,443.935866 C639.309903,443.935866 643.430818,444.254025 647.604759,444.254025 C651.649921,444.254025 655.604181,443.935866 659.649344,443.935866 L659.649344,446.322057 L657.657063,446.322057 C654.65728,446.322057 652.301389,446.397809 652.301389,450.564175 L652.301389,491.121853 Z" id="path2432" fill="#231F20"></path>
                <path d="M525.140267,302.05884 C524.716055,302.05884 523.535232,302.785302 521.944437,303.656679 C518.884052,305.398977 512.77419,307.984548 506.971579,309.870776 L506.971579,312.178791 C512.501483,313.769585 514.679962,314.059261 514.679962,323.467673 L514.679962,403.89512 C514.679962,408.682654 511.77199,408.68879 507.696527,408.68879 L504.914985,408.68879 L504.914985,412.446776 C510.31611,412.317997 515.556262,412.165735 520.775582,412.165735 C526.025203,412.165735 531.120517,412.446776 536.044404,412.446776 L536.044404,408.674018 L533.573598,408.674018 C529.50571,408.674018 526.309047,408.681593 526.309047,403.89512 L526.309047,304.100586 C526.309047,302.926428 526.026491,302.05884 525.140267,302.05884 L525.140267,302.05884 Z M626.044422,302.05884 C625.597484,302.05884 624.439386,302.792878 622.848592,303.656679 C619.788207,305.414128 613.693874,307.984851 607.860962,309.855928 L607.860962,312.178791 C613.38329,313.76201 615.554497,314.059261 615.554497,323.467673 L615.554497,385.578488 C615.554497,394.380883 614.822732,402.785428 613.54237,411.30754 L616.59018,412.890683 L620.954789,409.576528 C624.742394,411.159747 630.393653,414.621695 641.150452,414.621695 C661.959556,414.621695 675.904685,395.675714 675.904685,376.760413 C675.904685,361.0267 665.721254,346.430027 648.858835,346.430027 C640.874563,346.430027 633.016191,351.922736 627.198429,356.816323 L627.198429,304.100586 C627.198429,302.926428 626.915874,302.05884 626.044422,302.05884 Z M463.931959,309.426868 C435.426441,309.426868 408.848891,330.674198 408.848891,360.293268 C408.848891,392.798497 430.333552,414.606923 464.346172,414.606923 C473.944039,414.606923 490.390882,410.730157 496.496502,406.957702 L499.8402,385.859604 L496.496502,385.001485 C493.587621,400.182207 481.668557,410.005588 467.275657,410.005588 C444.913635,410.005588 423.925378,389.044602 423.925378,359.834589 C423.925378,325.178004 448.211579,314.057822 464.952795,314.057822 C481.216772,314.057822 493.302793,320.852407 496.052595,337.745127 L499.677484,337.745127 L498.242285,317.076089 C487.046124,313.18243 475.711412,309.426868 463.931959,309.426868 L463.931959,309.426868 Z M121.272002,310.004099 C117.62075,310.004099 114.140699,313.336889 114.140699,316.95784 C114.140699,320.707569 117.469246,324.178 121.272002,324.178 C125.188386,324.178 128.403381,320.851498 128.403381,316.95784 C128.403381,313.041456 125.029306,310.004099 121.272002,310.004099 Z M0.172184538,311.616786 L0.172184538,315.345153 C6.70201612,315.496657 13.5324321,314.633841 13.5324321,327.625327 L13.5324321,397.710794 C13.1006451,407.535842 8.87610158,407.825367 0.172184538,408.688941 L0.172184538,412.446927 C6.70201612,412.318149 13.097918,412.165887 19.6429,412.165887 C26.4681648,412.165887 33.3328207,412.446927 40.7262263,412.446927 C92.1922075,412.446927 100.617736,376.474373 100.617736,362.172375 C100.617736,336.583317 80.120882,311.616786 42.4720851,311.616786 C31.7152859,311.616786 23.4256572,311.868283 17.3200374,311.868283 C11.6462046,311.868283 5.8308669,311.874343 0.172184538,311.616786 L0.172184538,311.616786 Z M39.1135397,316.232892 C67.1721199,316.232892 84.6091943,335.743832 84.6091943,362.749455 C84.6091943,384.285779 74.3155436,407.830821 42.901145,407.830821 C35.780447,407.830821 27.7803428,406.538263 27.7803428,395.402703 L27.7803428,316.795124 C30.4089409,316.64362 33.1518489,316.232892 39.1135397,316.232892 L39.1135397,316.232892 Z M126.065671,346.4298 C125.330875,346.4298 124.461999,346.580168 123.446921,347.139976 C122.856054,347.594488 114.722626,350.310201 107.882211,352.347933 L107.882211,354.670796 C113.283336,357.5418 115.44265,358.405602 115.44265,364.761203 L115.44265,403.894893 C115.44265,408.682426 112.54195,408.688562 108.474062,408.688562 L105.707292,408.688562 L105.707292,412.446549 C111.085692,412.31777 116.318647,412.165508 121.553118,412.165508 C126.780013,412.165508 131.875327,412.446549 136.82194,412.446549 L136.82194,408.688562 L134.351058,408.688562 C130.290745,408.688562 127.07181,408.682426 127.07181,403.894893 L127.07181,348.441927 C127.07181,347.28292 126.785467,346.4298 126.065671,346.4298 L126.065671,346.4298 Z M161.396984,346.430178 C154.412639,349.445112 148.449358,351.331794 142.207384,353.354376 L142.207384,356.121145 C149.032649,358.855797 150.625943,360.301525 150.625943,365.634474 L150.625943,403.910044 C150.625943,408.697577 147.725243,408.688941 143.657355,408.688941 L141.038605,408.688941 L141.038605,412.446927 C146.2655,412.318149 151.509894,412.165887 156.721639,412.165887 C161.963685,412.165887 167.077407,412.446927 172.167948,412.446927 L172.167948,408.688941 L169.549198,408.688941 C165.48131,408.688941 162.255104,408.696516 162.255104,403.910044 L162.255104,361.166312 C167.072938,357.977148 174.470585,354.227343 179.121765,354.227343 C187.41662,354.227343 192.496784,358.258037 192.496784,366.507441 L192.496784,403.910044 C192.496784,408.697577 189.603584,408.688941 185.52812,408.688941 L182.90937,408.688941 L182.90937,412.446927 C188.14384,412.318149 193.379978,412.165887 198.622023,412.165887 C203.833768,412.165887 208.91825,412.446927 214.023942,412.446927 L214.023942,408.688941 L211.405191,408.688941 C207.344878,408.688941 204.140716,408.696516 204.140716,403.910044 L204.140716,366.655385 C204.140716,355.368321 199.769516,346.430178 187.421923,346.430178 C177.680202,346.430178 170.549959,351.336188 162.255104,357.275153 L162.255104,347.85053 C162.255104,346.706674 161.836194,346.430178 161.396984,346.430178 L161.396984,346.430178 Z M242.786107,346.430178 C232.62775,346.430178 213.446938,354.798892 213.446938,383.122605 C213.446938,392.356787 218.083118,414.607074 241.217812,414.607074 C253.133618,414.607074 261.419232,407.11254 268.115718,398.30257 L266.073972,396.275671 C260.710722,401.616194 254.439963,405.95179 246.440541,405.95179 C234.820167,405.95179 225.924522,394.696315 225.076098,380.962458 C224.77309,376.046146 224.77309,373.883651 225.076098,372.58829 L265.926028,372.58829 L267.242751,371.715398 C267.379105,370.836674 267.376075,369.990523 267.376075,369.096648 C267.239721,353.787147 254.573287,346.430178 242.786259,346.430178 L242.786107,346.430178 Z M291.817795,346.430178 C290.507283,346.430178 284.66869,350.179074 274.063395,354.671174 L274.063395,356.816474 C276.245055,357.983056 281.609062,358.857084 281.609062,363.326459 L281.609062,403.895272 C281.609062,408.682805 278.723134,408.688941 274.655246,408.688941 L270.719697,408.688941 L270.719697,412.446927 C275.961743,412.318149 282.053348,412.165887 288.030189,412.165887 C294.279738,412.165887 300.374374,412.310574 308.373796,412.446927 L308.373796,408.688941 L300.221582,408.688941 C296.153694,408.688941 293.252994,408.682805 293.252994,403.895272 L293.252994,369.984311 C293.252994,361.295545 301.406496,357.985329 303.876015,357.985329 C308.951406,357.985329 308.941028,361.462199 313.463429,361.462199 C317.546467,361.462199 320.284073,357.980557 320.284073,354.079323 C320.284073,348.867578 315.649559,346.430178 312.013458,346.430178 C303.142886,346.430178 297.03666,355.678677 293.41571,361.299484 L293.105126,361.299484 L293.105126,348.309209 C293.105126,346.847194 292.681672,346.430178 291.817946,346.430178 L291.817795,346.430178 Z M347.640583,346.430178 C331.649313,346.430178 325.107361,356.818822 325.107361,364.924298 C325.107361,388.172619 356.769317,382.693545 356.769317,399.737769 C356.769317,404.790435 353.582199,410.00574 345.007061,410.00574 C334.39419,410.00574 328.58461,401.89928 326.675657,392.369665 L324.071678,393.094612 L325.669517,409.724548 C330.752484,412.610703 337.591005,414.621846 343.423917,414.621846 C360.710548,414.621846 368.413249,404.503258 368.413249,394.973643 C368.413249,372.293463 334.694699,377.489906 334.694699,360.57446 C334.694699,354.362788 340.210134,351.031513 346.027896,351.031513 C355.330255,351.031513 360.434053,356.25553 361.888493,365.353358 L365.217495,365.353358 L364.196584,350.602453 C358.530327,347.716298 352.284187,346.430178 347.640583,346.430178 L347.640583,346.430178 Z M554.804868,348.604946 C552.90349,348.604946 541.301222,349.452082 536.059176,349.611161 L536.059176,352.348312 C544.172227,353.060382 544.773623,356.683681 544.773623,360.456136 L544.773623,397.44445 C544.773623,409.572362 552.89743,414.621846 560.737773,414.621846 C571.07036,414.621846 577.784951,409.57971 586.496444,402.504463 L586.496444,414.192786 L587.206998,414.621846 C589.987101,413.750394 601.89965,410.721522 608.171924,410.153381 L608.171924,407.105495 C606.278121,407.105495 604.084492,407.238818 602.35742,407.238818 C599.872675,407.238818 598.273851,407.115343 598.273851,404.501668 L598.273851,351.194077 C598.273851,349.603283 598.27885,348.604946 597.119843,348.604946 C595.672978,348.604946 587.520991,349.731152 574.438602,350.602301 L574.438602,353.20628 C579.665497,354.668296 586.629919,356.245833 586.629919,359.124413 L586.629919,398.021378 C580.531874,403.043743 573.976969,406.809759 569.053082,406.809759 C556.410055,406.809759 556.417858,394.372096 556.417858,390.046651 L556.417858,352.77722 C556.417858,349.603207 556.418691,348.604946 554.805171,348.604946 L554.804868,348.604946 Z M242.223875,351.046285 C250.359652,351.046285 254.859099,356.961464 254.859099,364.347294 C254.859099,366.074442 254.440948,367.942565 250.819921,367.942565 L225.505158,367.942565 C227.255032,357.52665 233.360879,351.046285 242.223875,351.046285 Z M641.032052,354.227343 C652.364567,354.227343 664.290372,367.222086 664.290372,382.81187 C664.290372,395.674578 657.753193,410.86386 642.186135,410.86386 C632.429264,410.86386 627.198429,401.62733 627.198429,396.127727 L627.198429,361.033139 C631.129963,357.700047 635.615776,354.227343 641.032052,354.227343 Z" id="path2441" fill="#231F20"></path>
                <path d="M319.388576,274.739212 C242.916824,275.0862 179.974399,213.522463 179.974399,138.565753 C179.974399,56.6474283 242.916824,-0.0151473912 319.388576,0 L355.234473,0 C430.797199,-0.0151473912 499.769492,56.6171275 499.769492,138.565753 C499.769492,213.484587 430.797199,274.739212 355.234473,274.739212 L319.388576,274.739212 Z" id="path2446" fill="#004C97"></path>
                <path d="M319.388576,274.739212 C242.916824,275.0862 179.974399,213.522463 179.974399,138.565753 C179.974399,56.6474283 242.916824,-0.0151473912 319.388576,0 L321.396007,0 C396.951158,-0.0151473912 463.105472,56.6171275 463.105472,138.565753 C463.105472,213.484587 396.951158,274.739212 321.396007,274.739212 L319.388576,274.739212 Z" id="path2453" fill="#004C97"></path>
                <path d="M319.69916,11.3665309 C249.817841,11.3892565 193.193142,67.6730717 193.193142,137.130175 C193.193142,206.572131 249.817841,262.848371 319.69916,262.855946 C389.588053,262.855946 446.220328,206.572131 446.243054,137.130175 C446.220328,67.6654964 389.580478,11.3816813 319.69916,11.3665309" id="path2457" fill="#FEFEFE"></path>
                <path d="M290.973961,211.488443 L290.973961,62.7416095 C260.900374,74.2559297 239.576156,103.178081 239.500404,137.130175 C239.576156,171.067119 260.90795,200.004424 290.973961,211.488443 M399.913065,137.130175 C399.852463,103.162931 378.497945,74.2029032 348.394058,62.7264591 L348.394058,211.526319 C378.497945,200.034724 399.852463,171.104995 399.90549,137.130175" id="path2459" fill="#004C97"></path>
            </g>
        </g>
    </g>
</svg>