<?xml version="1.0" encoding="UTF-8"?>
<svg width="980px" height="680px" viewBox="0 0 980 680" version="1.1" xmlns="http://www.w3.org/2000/svg" xmlns:xlink="http://www.w3.org/1999/xlink">
    <title>WW Discover</title>
    <defs>
        <linearGradient x1="50%" y1="0%" x2="50%" y2="100%" id="linearGradient-1">
            <stop stop-color="#FFFFFF" offset="0%"></stop>
            <stop stop-color="#EDEDED" offset="100%"></stop>
        </linearGradient>
        <rect id="path-2" x="-2.84217094e-14" y="0" width="900" height="600" rx="80"></rect>
        <filter x="-6.7%" y="-10.0%" width="113.3%" height="120.0%" filterUnits="objectBoundingBox" id="filter-3">
            <feMorphology radius="2.5" operator="dilate" in="SourceAlpha" result="shadowSpreadOuter1"></feMorphology>
            <feOffset dx="0" dy="0" in="shadowSpreadOuter1" result="shadowOffsetOuter1"></feOffset>
            <feGaussianBlur stdDeviation="17.5" in="shadowOffsetOuter1" result="shadowBlurOuter1"></feGaussianBlur>
            <feColorMatrix values="0 0 0 0 0   0 0 0 0 0   0 0 0 0 0  0 0 0 0.5 0" type="matrix" in="shadowBlurOuter1"></feColorMatrix>
        </filter>
        <linearGradient x1="84.4542844%" y1="16.628325%" x2="20.9016855%" y2="91.910132%" id="linearGradient-4">
            <stop stop-color="#F59314" offset="0%"></stop>
            <stop stop-color="#E7521C" offset="50.2222021%"></stop>
            <stop stop-color="#E0481E" offset="100%"></stop>
        </linearGradient>
        <path d="M0,68.234343 C0,68.234343 0,68.234343 0,68.2756972 C0,105.948406 30.5597959,136.51004 68.234343,136.51004 C105.948866,136.51004 136.509581,105.948406 136.509581,68.2756972 C136.509581,68.234343 136.509581,68.234343 136.509581,68.234343 C136.509581,30.5597959 105.948866,0 68.234343,0 C30.5597959,0 0,30.5597959 0,68.234343" id="path-5"></path>
    </defs>
    <g id="WW-Discover" stroke="none" stroke-width="1" fill="none" fill-rule="evenodd">
        <g transform="translate(40, 40)">
            <g id="Rectangle">
                <use fill="black" fill-opacity="1" filter="url(#filter-3)" xlink:href="#path-2"></use>
                <use fill="url(#linearGradient-1)" fill-rule="evenodd" xlink:href="#path-2"></use>
            </g>
            <g id="Logo" transform="translate(50.2539, 231.9985)">
                <g id="g10" transform="translate(400, 68.255) scale(-1, 1) rotate(-180) translate(-400, -68.255)translate(0, -0)">
                    <g id="g12" transform="translate(0, -0)">
                        <g id="g14" transform="translate(0, 1.2618)" fill="#201D1C" fill-rule="nonzero">
                            <g id="g16">
                                <path d="M65.9707778,35.2102995 C58.1075165,28.1097924 47.8930421,25.0119073 31.7227894,25.0119073 L25.0063245,25.0119073 L25.0063245,109.854076 L31.7227894,109.854076 C47.8930421,109.854076 57.7054623,106.960664 65.9707778,99.4778608 C74.6257414,91.7708262 79.832688,79.829127 79.832688,67.5377554 C79.832688,55.2215714 74.6257414,42.9141176 65.9707778,35.2102995 L65.9707778,35.2102995 Z M36.7359229,131.592113 L0,131.592113 L0,3.29179012 L36.5420638,3.29179012 C55.9736425,3.29179012 70.0041857,7.8761271 82.3208292,18.1030077 C96.9560619,30.215178 105.611025,48.4707366 105.611025,67.3530402 C105.611025,105.215978 77.3220318,131.592113 36.7359229,131.592113" id="path22"></path>
                                <polygon id="path24" points="117.127237 3.29179012 142.153296 3.29179012 142.153296 131.592113 117.127237 131.592113"></polygon>
                                <path d="M203.346039,82.3581628 C188.32851,87.9152412 183.91832,91.5805972 183.91832,98.5124712 C183.91832,106.592612 191.774689,112.733243 202.561688,112.733243 C210.060574,112.733243 216.222801,109.653279 222.743431,102.342325 L235.837073,119.489133 C225.076724,128.901337 212.202259,133.713581 198.135416,133.713581 C175.435665,133.713581 158.120224,117.94892 158.120224,96.9506629 C158.120224,79.2745219 166.182905,70.224856 189.687223,61.7656354 C199.483561,58.3102667 204.469493,56.0077596 206.986123,54.4588171 C211.986758,51.1936774 214.490522,46.5716622 214.490522,41.1836763 C214.490522,30.7877032 206.225206,23.085723 195.059127,23.085723 C183.122942,23.085723 173.508102,29.0554239 167.746551,40.1980691 L151.577998,24.6309896 C163.108453,7.70565611 176.956119,0.204473284 195.997866,0.204473284 C222.005949,0.204473284 240.249101,17.4964802 240.249101,42.3342406 C240.249101,62.7186188 231.814693,71.9461075 203.346039,82.3581628" id="path26"></path>
                                <path d="M248.144527,67.3530402 C248.144527,29.6408148 277.756853,0.398378286 315.865619,0.398378286 C326.638374,0.398378286 335.864025,2.51662961 347.24193,7.8761271 L347.24193,37.3354432 C337.237442,27.3217661 328.376168,23.2833039 317.02859,23.2833039 C291.825075,23.2833039 273.935271,41.5567826 273.935271,67.5377554 C273.935271,92.1710425 292.390248,111.602437 315.865619,111.602437 C327.801805,111.602437 336.837226,107.34296 347.24193,97.166164 L347.24193,126.611236 C336.257349,132.184396 327.223765,134.492417 316.456064,134.492417 C278.541204,134.492417 248.144527,104.658157 248.144527,67.3530402" id="path28"></path>
                                <polyline id="path30" points="545.671994 45.4123676 511.45833 131.592113 484.118643 131.592113 538.563676 0 552.031343 0 607.459685 131.592113 580.331364 131.592113 545.671994 45.4123676"></polyline>
                                <polyline id="path32" points="618.776937 3.29179012 689.749843 3.29179012 689.749843 25.0119073 643.782411 25.0119073 643.782411 59.6441677 688.054323 59.6441677 688.054323 81.3766911 643.782411 81.3766911 643.782411 109.854076 689.749843 109.854076 689.749843 131.592113 618.776937 131.592113 618.776937 3.29179012"></polyline>
                                <path d="M738.630445,72.5241466 L731.319951,72.5241466 L731.319951,111.38326 L739.025607,111.38326 C754.611526,111.38326 763.084531,104.85344 763.084531,92.3667854 C763.084531,79.4684269 754.611526,72.5241466 738.630445,72.5241466 L738.630445,72.5241466 Z M788.838975,93.7144712 C788.838975,117.733879 772.292721,131.592113 743.432121,131.592113 L706.323667,131.592113 L706.323667,3.29179012 L731.319951,3.29179012 L731.319951,54.8319234 L734.582334,54.8319234 L769.223325,3.29179012 L800,3.29179012 L759.610783,57.3430391 C778.459084,61.1751901 788.838975,74.0694132 788.838975,93.7144712" id="path34"></path>
                            </g>
                        </g>
                        <g id="g74-Clipped" transform="translate(355.4158, 0)">
                            <mask id="mask-6" fill="white">
                                <use xlink:href="#path-5"></use>
                            </mask>
                            <use id="path78" fill="url(#linearGradient-4)" xlink:href="#path-5"></use>
                        </g>
                    </g>
                </g>
            </g>
        </g>
    </g>
</svg>