<?xml version="1.0" encoding="UTF-8"?>
<svg width="980px" height="680px" viewBox="0 0 980 680" version="1.1" xmlns="http://www.w3.org/2000/svg" xmlns:xlink="http://www.w3.org/1999/xlink">
    <title>WW Kontaktlos</title>
    <defs>
        <linearGradient x1="50%" y1="0%" x2="50%" y2="100%" id="linearGradient-1">
            <stop stop-color="#FFFFFF" offset="0%"></stop>
            <stop stop-color="#EDEDED" offset="100%"></stop>
        </linearGradient>
        <rect id="path-2" x="0" y="-2.84217094e-14" width="900" height="600" rx="80"></rect>
        <filter x="-6.7%" y="-10.0%" width="113.3%" height="120.0%" filterUnits="objectBoundingBox" id="filter-3">
            <feMorphology radius="2.5" operator="dilate" in="SourceAlpha" result="shadowSpreadOuter1"></feMorphology>
            <feOffset dx="0" dy="0" in="shadowSpreadOuter1" result="shadowOffsetOuter1"></feOffset>
            <feGaussianBlur stdDeviation="17.5" in="shadowOffsetOuter1" result="shadowBlurOuter1"></feGaussianBlur>
            <feColorMatrix values="0 0 0 0 0   0 0 0 0 0   0 0 0 0 0  0 0 0 0.5 0" type="matrix" in="shadowBlurOuter1"></feColorMatrix>
        </filter>
    </defs>
    <g id="WW-Kontaktlos" stroke="none" stroke-width="1" fill="none" fill-rule="evenodd">
        <g transform="translate(40, 40)">
            <g id="Rectangle">
                <use fill="black" fill-opacity="1" filter="url(#filter-3)" xlink:href="#path-2"></use>
                <use fill="url(#linearGradient-1)" fill-rule="evenodd" xlink:href="#path-2"></use>
            </g>
            <g id="Logo" transform="translate(249.9997, 50)" fill="#000000" fill-rule="nonzero">
                <path d="M299.10474,3.59301353 C311.91592,-3.8035249 328.297513,0.585909655 335.694052,13.39709 C420.22413,159.80748 420.22413,340.19252 335.694052,486.60291 C328.297513,499.41409 311.91592,503.803525 299.10474,496.406986 C286.29356,489.010448 281.904125,472.628855 289.300664,459.817675 C364.261299,329.982046 364.261299,170.017954 289.300664,40.1823251 C281.904125,27.3711447 286.29356,10.989552 299.10474,3.59301353 Z M200.892211,52.6992779 C213.703392,45.3027394 230.084985,49.692174 237.481523,62.5033544 C304.467623,178.526682 304.467623,321.473318 237.481523,437.496646 C230.084985,450.307826 213.703392,454.697261 200.892211,447.300722 C188.081031,439.904184 183.691597,423.522591 191.088135,410.711411 C248.504792,311.262844 248.504792,188.737156 191.088135,89.2885894 C183.691597,76.4774091 188.081031,60.0958163 200.892211,52.6992779 Z M107.250038,97.7267948 C120.094886,90.3888808 136.456248,94.8531335 143.794162,107.697982 C193.473982,194.661358 193.473982,301.767277 143.794162,388.730653 C136.456248,401.575502 120.094886,406.039755 107.250038,398.701841 C94.4051887,391.363927 89.940936,375.002565 97.27885,362.157716 C137.551793,291.660861 137.551793,204.767775 97.27885,134.27092 C89.940936,121.426071 94.4051887,105.064709 107.250038,97.7267948 Z M12.0221373,147.296751 C24.3643448,139.141689 40.9806648,142.536041 49.1357269,154.878249 C87.5452806,213.008853 87.5452806,286.991147 49.1357269,345.121751 C40.9806648,357.463959 24.3643448,360.858311 12.0221373,352.703249 C-0.320070217,344.548187 -3.71442228,327.931867 4.44063977,315.589659 C31.0163494,275.368883 31.0163494,224.631117 4.44063977,184.410341 C-3.71442228,172.068133 -0.320070217,155.451813 12.0221373,147.296751 Z" id="Shape"></path>
            </g>
        </g>
    </g>
</svg>