<?xml version="1.0" encoding="UTF-8"?>
<svg width="980px" height="680px" viewBox="0 0 980 680" version="1.1" xmlns="http://www.w3.org/2000/svg" xmlns:xlink="http://www.w3.org/1999/xlink">
    <title>WW Masterpass</title>
    <defs>
        <linearGradient x1="50%" y1="0%" x2="50%" y2="100%" id="linearGradient-1">
            <stop stop-color="#FFFFFF" offset="0%"></stop>
            <stop stop-color="#EDEDED" offset="100%"></stop>
        </linearGradient>
        <rect id="path-2" x="0" y="0" width="900" height="600" rx="80"></rect>
        <filter x="-6.7%" y="-10.0%" width="113.3%" height="120.0%" filterUnits="objectBoundingBox" id="filter-3">
            <feMorphology radius="2.5" operator="dilate" in="SourceAlpha" result="shadowSpreadOuter1"></feMorphology>
            <feOffset dx="0" dy="0" in="shadowSpreadOuter1" result="shadowOffsetOuter1"></feOffset>
            <feGaussianBlur stdDeviation="17.5" in="shadowOffsetOuter1" result="shadowBlurOuter1"></feGaussianBlur>
            <feColorMatrix values="0 0 0 0 0   0 0 0 0 0   0 0 0 0 0  0 0 0 0.5 0" type="matrix" in="shadowBlurOuter1"></feColorMatrix>
        </filter>
        <polygon id="path-4" points="0 0 113.56621 0 113.56621 140.383188 0 140.383188"></polygon>
        <polygon id="path-6" points="0 0 113.56621 0 113.56621 140.383188 0 140.383188"></polygon>
    </defs>
    <g id="WW-Masterpass" stroke="none" stroke-width="1" fill="none" fill-rule="evenodd">
        <g transform="translate(40, 40)">
            <g id="Rectangle">
                <use fill="black" fill-opacity="1" filter="url(#filter-3)" xlink:href="#path-2"></use>
                <use fill="url(#linearGradient-1)" fill-rule="evenodd" xlink:href="#path-2"></use>
            </g>
            <g id="Logo" transform="translate(50, 230)">
                <polygon id="Fill-1" fill="#FF5F00" points="82.8549713 125.375521 144.277449 125.375521 144.277449 15.0076664 82.8549713 15.0076664"></polygon>
                <g id="Group-10">
                    <g id="Group-4">
                        <mask id="mask-5" fill="white">
                            <use xlink:href="#path-4"></use>
                        </mask>
                        <g id="Clip-3"></g>
                        <path d="M86.7562616,70.1915938 C86.7562616,47.8031079 97.24054,27.8573217 113.56621,15.0076664 C101.208609,5.2649846 85.9232834,-0.0246027318 70.1880791,-8.54368357e-05 C31.4212032,-8.54368357e-05 0,31.4282325 0,70.1915938 C0,108.95847 31.4212032,140.383188 70.1880791,140.383188 C86.5629544,140.383188 101.626856,134.777279 113.56621,125.375521 C97.24054,112.522351 86.7562616,92.5835944 86.7562616,70.1951084" id="Fill-2" fill="#EB001B" mask="url(#mask-5)"></path>
                    </g>
                    <g id="Group-7" transform="translate(113.5662, 0)">
                        <mask id="mask-7" fill="white">
                            <use xlink:href="#path-6"></use>
                        </mask>
                        <g id="Clip-6"></g>
                        <path d="M113.56621,70.1915938 C113.56621,108.95847 82.1414921,140.383273 43.3781308,140.383273 C27.6429265,140.40779 12.3576007,135.118203 0,125.375521 C16.3256699,112.525866 26.8099483,92.5835944 26.8099483,70.1915938 C26.8099483,47.8031079 16.3256699,27.8608364 0,15.0076664 C12.3576007,5.2649846 27.6429265,-0.0246027318 43.3781308,-8.54368357e-05 C82.1414921,-8.54368357e-05 113.56621,31.4247178 113.56621,70.1915938" id="Fill-5" fill="#F79E1B" mask="url(#mask-7)"></path>
                    </g>
                    <path d="M347.299191,76.2262924 L347.299191,47.2126423 C347.299191,36.282 340.347162,28.9363273 329.152919,28.8379163 C323.265837,28.7430201 317.185447,30.5811956 312.939719,37.0587434 C309.751908,31.9343459 304.736465,28.8379163 297.693055,28.8379163 C292.772508,28.8379163 287.946858,30.2894775 284.18264,35.7091078 L284.18264,29.9977594 L274.144726,29.9977594 L274.144726,76.2227777 L284.277536,76.2227777 L284.277536,50.5937606 C284.277536,42.5697553 288.716572,38.3134827 295.57019,38.3134827 C302.226987,38.3134827 305.60459,42.6646516 305.60459,50.4988643 L305.60459,76.2227777 L315.740916,76.2227777 L315.740916,50.5937606 C315.740916,42.5697553 320.369744,38.3134827 327.030055,38.3134827 C333.883673,38.3134827 337.162866,42.6646516 337.162866,50.4988643 L337.162866,76.2227777 L347.299191,76.2227777 L347.299191,76.2262924 Z M497.263385,29.9942447 L480.856878,29.9942447 L480.856878,15.977717 L470.727582,15.977717 L470.727582,30.0012741 L461.364485,30.0012741 L461.364485,39.1851224 L470.727582,39.1851224 L470.727582,60.2696635 C470.727582,70.9999692 474.8749,77.3861355 486.74396,77.3861355 C491.0881,77.3861355 496.107057,76.0294706 499.291353,73.8081953 L496.39526,65.1972392 C493.404271,66.9405185 490.121564,67.8086435 487.517189,67.8086435 C482.498232,67.8086435 480.856878,64.7157286 480.856878,60.0763563 L480.856878,39.1851224 L497.263385,39.1851224 L497.263385,29.9977594 L497.263385,29.9942447 Z M582.863319,28.8344016 C577.074647,28.8344016 573.310429,31.5407021 570.70254,35.6071822 L570.70254,29.9977594 L560.763036,29.9977594 L560.763036,76.2227777 L570.797436,76.2227777 L570.797436,50.3055571 C570.797436,42.6646516 574.080143,38.4118937 580.642043,38.4118937 C582.673526,38.4118937 584.789361,38.7000971 586.91574,39.5717367 L590.008655,30.0961703 C587.783865,29.2245307 584.891287,28.8344016 582.863319,28.8344016 Z M453.449435,33.6705958 C448.623785,30.47927 441.963474,28.8344016 434.63186,28.8344016 C422.952591,28.8344016 415.42767,34.4438245 415.42767,43.6311875 C415.42767,51.1736821 421.026549,55.8165691 431.352667,57.2681302 L436.079906,57.9464627 C441.580374,58.7196914 444.184749,60.1677379 444.184749,62.7791422 C444.184749,66.3570823 440.518942,68.388565 433.668838,68.388565 C426.716809,68.388565 421.701367,66.1637751 418.323763,63.5523709 L413.596524,71.3865836 C419.093477,75.449549 426.045506,77.3791061 433.570428,77.3791061 C446.891049,77.3791061 454.609278,71.0948655 454.609278,62.2941169 C454.609278,54.1752154 448.528888,49.9189428 438.494489,48.4708963 L433.76022,47.7890491 C429.419595,47.2091276 425.947095,46.337488 425.947095,43.2445731 C425.947095,39.8599402 429.229803,37.8319721 434.730271,37.8319721 C440.617353,37.8319721 446.307613,40.0532473 449.105295,41.7965266 L453.449435,33.6705958 Z M528.529943,28.8344016 C515.019528,28.8344016 505.561535,38.7000971 505.561535,53.1102686 C505.561535,67.8051288 515.406143,77.3791061 529.208275,77.3791061 C536.153275,77.3791061 542.521868,75.6428562 548.120747,70.905073 L543.2002,63.4539599 C539.337571,66.5468748 534.417025,68.2901541 529.784682,68.2901541 C523.317678,68.2901541 517.434111,65.2956501 515.986064,56.9728975 L550.243611,56.9728975 C550.342022,55.7216728 550.436918,54.4634188 550.436918,53.1067539 C550.342022,38.6965824 541.460436,28.8344016 528.529943,28.8344016 Z M528.34015,37.8319721 C534.803639,37.8319721 538.954472,41.8914229 540.015904,49.0437885 L516.080961,49.0437885 C517.142393,42.3729335 521.198329,37.8319721 528.34015,37.8319721 Z M403.850328,53.1102686 L403.850328,29.9977594 L393.812413,29.9977594 L393.812413,35.6071822 C390.628117,31.4493206 385.798952,28.8344016 379.240566,28.8344016 C366.306559,28.8344016 356.173748,38.9918152 356.173748,53.1102686 C356.173748,67.2287219 366.310074,77.3791061 379.240566,77.3791061 C385.802466,77.3791061 390.628117,74.7712166 393.812413,70.6133549 L393.812413,76.2227777 L403.850328,76.2227777 L403.850328,53.1067539 L403.850328,53.1102686 Z M366.499866,53.1102686 C366.499866,44.9843377 371.807027,38.3134827 380.491791,38.3134827 C388.793456,38.3134827 394.38882,44.6961343 394.38882,53.1102686 C394.38882,61.5208882 388.793456,67.9070544 380.491791,67.9070544 C371.810541,67.9070544 366.503381,61.2291701 366.503381,53.1102686 L366.499866,53.1102686 Z M701.08296,53.1102686 L701.08296,29.9977594 L691.045045,29.9977594 L691.045045,35.6071822 C687.860749,31.4493206 683.035098,28.8344016 676.473198,28.8344016 C663.542706,28.8344016 653.409895,38.9918152 653.409895,53.1102686 C653.409895,67.2287219 663.542706,77.3791061 676.473198,77.3791061 C683.035098,77.3791061 687.860749,74.7712166 691.045045,70.6133549 L691.045045,76.2227777 L701.08296,76.2227777 L701.08296,53.1067539 L701.08296,53.1102686 Z M663.736013,53.1102686 C663.736013,44.9843377 669.043173,38.3134827 677.724423,38.3134827 C686.029602,38.3134827 691.624967,44.6961343 691.624967,53.1102686 C691.624967,61.5208882 686.029602,67.9070544 677.727938,67.9070544 C669.043173,67.9070544 663.736013,61.2291701 663.736013,53.1102686 L663.736013,53.1102686 Z M598.401701,53.0118576 L598.401701,92.8542244 L608.436101,92.8542244 L608.436101,70.514944 C611.620397,74.6728056 616.449562,77.2842099 623.011462,77.2842099 C635.941955,77.2842099 646.074766,67.130311 646.074766,53.0118576 C646.074766,38.8934043 635.941955,28.7395054 623.011462,28.7395054 C616.449562,28.7395054 611.623912,31.3509096 608.436101,35.5087713 L608.436101,29.8993485 L598.401701,29.8993485 L598.401701,53.0118576 Z M635.748648,53.0118576 C635.748648,61.1377885 630.441487,67.8086435 621.756723,67.8086435 C613.455058,67.8086435 607.856179,61.4224772 607.856179,53.0118576 C607.856179,44.5977234 613.455058,38.2150718 621.756723,38.2150718 C630.437973,38.2150718 635.748648,44.8929562 635.748648,53.0118576 L635.748648,53.0118576 Z M750.685581,33.7690067 C745.863446,30.5776809 739.203135,28.9328126 731.864492,28.9328126 C720.188738,28.9328126 712.663817,34.5422354 712.663817,43.7295984 C712.663817,51.272093 718.259181,55.9114653 728.585299,57.3665412 L733.316053,58.0413589 C738.816521,58.8145877 741.420896,60.2661488 741.420896,62.8775531 C741.420896,66.4519785 737.755089,68.4869759 730.90147,68.4869759 C723.952956,68.4869759 718.933999,66.2586714 715.556395,63.6507818 L710.829156,71.4814799 C716.329624,75.5444453 723.278138,77.4775171 730.806574,77.4775171 C744.123681,77.4775171 751.845425,71.1932764 751.845425,62.3925278 C751.845425,54.266597 745.765035,50.0173537 735.727121,48.5657925 L730.999881,47.8874601 C726.655742,47.3075385 723.179727,46.4358989 723.179727,43.342984 C723.179727,39.9548364 726.462435,37.9268684 731.966417,37.9268684 C737.849985,37.9268684 743.54376,40.1516583 746.341442,41.8914229 L750.685581,33.7725214 L750.685581,33.7690067 Z M798.840157,33.7690067 C794.014507,30.5776809 787.357711,28.9328126 780.022582,28.9328126 C768.346828,28.9328126 760.818392,34.5422354 760.818392,43.7295984 C760.818392,51.272093 766.417271,55.9114653 776.739874,57.3665412 L781.470628,58.0413589 C786.971096,58.8145877 789.575471,60.2661488 789.575471,62.8775531 C789.575471,66.4519785 785.909664,68.4869759 779.059561,68.4869759 C772.107532,68.4869759 767.092089,66.2586714 763.714485,63.6507818 L758.987246,71.4814799 C764.484199,75.5444453 771.436228,77.4775171 778.96115,77.4775171 C792.281772,77.4775171 800,71.1932764 800,62.3925278 C800,54.266597 793.919611,50.0173537 783.885211,48.5657925 L779.154457,47.8874601 C774.810317,47.3075385 771.337817,46.4358989 771.337817,43.342984 C771.337817,39.9548364 774.620525,37.9268684 780.120993,37.9268684 C786.008075,37.9268684 791.698335,40.1516583 794.499532,41.8914229 L798.840157,33.7725214 L798.840157,33.7690067 Z M367.965486,121.544524 L367.965486,107.946243 C367.965486,102.828875 364.710896,99.3844924 359.466999,99.3388016 C356.704464,99.2931108 353.854062,100.154206 351.86827,103.187372 C350.378047,100.786848 348.023214,99.3388016 344.722934,99.3388016 C342.413792,99.3388016 340.153855,100.017134 338.389488,102.55473 L338.389488,99.8835764 L333.690366,99.8835764 L333.690366,121.544524 L338.435178,121.544524 L338.435178,109.534877 C338.435178,105.774173 340.515867,103.777837 343.724766,103.777837 C346.849313,103.777837 348.427402,105.816349 348.427402,109.489186 L348.427402,121.544524 L353.175729,121.544524 L353.175729,109.534877 C353.175729,105.774173 355.351314,103.777837 358.468831,103.777837 C361.681245,103.777837 363.217159,105.816349 363.217159,109.489186 L363.217159,121.544524 L367.965486,121.544524 Z M438.244947,99.8835764 L430.561865,99.8835764 L430.561865,93.3111323 L425.813538,93.3111323 L425.813538,99.8835764 L421.420193,99.8835764 L421.420193,104.18554 L425.813538,104.18554 L425.813538,114.068809 C425.813538,119.094795 427.757153,122.085784 433.317371,122.085784 C435.355883,122.085784 437.700172,121.453143 439.197424,120.409284 L437.840759,116.377951 C436.434888,117.193356 434.90249,117.597543 433.679382,117.597543 C431.328064,117.597543 430.561865,116.149497 430.561865,113.973912 L430.561865,104.18554 L438.244947,104.18554 L438.244947,99.887091 L438.244947,99.8835764 Z M478.361458,99.3388016 C475.644614,99.3388016 473.883761,100.604085 472.660654,102.509039 L472.660654,99.8835764 L468.003708,99.8835764 L468.003708,121.544524 L472.706344,121.544524 L472.706344,109.401319 C472.706344,105.816349 474.245773,103.823528 477.321114,103.823528 C478.270076,103.823528 479.26473,103.964115 480.259383,104.368303 L481.710944,99.9292671 C480.635453,99.5426528 479.503728,99.3423163 478.361458,99.3388016 L478.361458,99.3388016 Z M417.71221,101.605768 C415.452273,100.108516 412.334755,99.3388016 408.893888,99.3388016 C403.425052,99.3388016 399.896317,101.964265 399.896317,106.273257 C399.896317,109.805507 402.518265,111.981091 407.354459,112.659424 L409.57222,112.979259 C412.148477,113.341271 413.375099,114.019603 413.375099,115.246225 C413.375099,116.919211 411.652908,117.871688 408.444009,117.871688 C405.189419,117.871688 402.834586,116.831344 401.252982,115.604722 L399.035221,119.277558 C401.614994,121.182513 404.869584,122.089299 408.398318,122.089299 C414.640383,122.089299 418.256984,119.140486 418.256984,115.017771 C418.256984,111.211377 415.410097,109.218556 410.703946,108.536709 L408.4897,108.220388 C406.451188,107.946243 404.823893,107.542055 404.823893,106.090494 C404.823893,104.501861 406.363321,103.552898 408.939578,103.552898 C411.702114,103.552898 414.366238,104.596757 415.677212,105.412162 L417.715724,101.605768 L417.71221,101.605768 Z M543.713343,99.3388016 C540.996499,99.3388016 539.232131,100.604085 538.012539,102.509039 L538.012539,99.8835764 L533.352078,99.8835764 L533.352078,121.544524 L538.058229,121.544524 L538.058229,109.401319 C538.058229,105.816349 539.597657,103.823528 542.669484,103.823528 C543.621961,103.823528 544.6131,103.964115 545.611268,104.368303 L547.0558,99.9292671 C545.983824,99.5426528 544.852098,99.3423163 543.713343,99.3388016 L543.713343,99.3388016 Z M483.109785,110.712293 C483.109785,117.284737 487.678864,122.085784 494.637922,122.085784 C497.899542,122.085784 500.068097,121.361761 502.419415,119.506012 L500.159478,115.696104 C498.398626,116.968416 496.539362,117.646749 494.504365,117.646749 C490.754206,117.597543 487.995185,114.880699 487.995185,110.712293 C487.995185,106.543887 490.754206,103.823528 494.504365,103.777837 C496.539362,103.777837 498.398626,104.45617 500.162993,105.728482 L502.419415,101.922088 C500.064582,100.062825 497.899542,99.3388016 494.641437,99.3388016 C487.682379,99.3388016 483.1133,104.143364 483.1133,110.712293 L483.109785,110.712293 Z M527.159219,110.712293 L527.159219,99.887091 L522.456583,99.887091 L522.456583,102.512554 C520.96636,100.565423 518.702909,99.3423163 515.627567,99.3423163 C509.564751,99.3423163 504.816424,104.101188 504.816424,110.715808 C504.816424,117.333943 509.564751,122.089299 515.627567,122.089299 C518.702909,122.089299 520.96636,120.866192 522.456583,118.919061 L522.456583,121.548039 L527.159219,121.548039 L527.159219,110.712293 Z M509.656133,110.712293 C509.656133,106.902384 512.144523,103.777837 516.214518,103.777837 C520.10175,103.777837 522.723698,106.768827 522.723698,110.712293 C522.723698,114.655759 520.10175,117.646749 516.214518,117.646749 C512.144523,117.646749 509.656133,114.518687 509.656133,110.712293 L509.656133,110.712293 Z M452.897631,99.3388016 C446.567699,99.3388016 442.135693,103.9606 442.135693,110.712293 C442.135693,117.601058 446.750462,122.085784 453.217466,122.085784 C456.472056,122.085784 459.456016,121.273894 462.081479,119.052619 L459.775852,115.562546 C457.990396,117.000048 455.77615,117.79788 453.484582,117.829512 C450.458446,117.829512 447.69591,116.423641 447.017578,112.522351 L463.072618,112.522351 C463.118308,111.9354 463.163999,111.348449 463.163999,110.712293 C463.118308,103.964115 458.956932,99.3388016 452.901145,99.3388016 L452.897631,99.3388016 Z M452.809764,103.552898 C455.839414,103.552898 457.78303,105.454338 458.282114,108.810853 L447.063269,108.810853 C447.562353,105.682792 449.460278,103.552898 452.809764,103.552898 L452.809764,103.552898 Z M570.800951,110.712293 L570.800951,91.1812387 L566.098314,91.1812387 L566.098314,102.509039 C564.604577,100.561909 562.34464,99.3388016 559.269299,99.3388016 C553.209997,99.3388016 548.46167,104.097673 548.46167,110.712293 C548.46167,117.330428 553.206483,122.085784 559.269299,122.085784 C562.34464,122.085784 564.604577,120.862677 566.098314,118.915547 L566.098314,121.544524 L570.797436,121.544524 L570.797436,110.712293 L570.800951,110.712293 Z M553.297864,110.712293 C553.297864,106.902384 555.786255,103.777837 559.85625,103.777837 C563.743481,103.777837 566.368944,106.768827 566.368944,110.712293 C566.368944,114.655759 563.743481,117.646749 559.85625,117.646749 C555.786255,117.646749 553.297864,114.518687 553.297864,110.712293 L553.297864,110.712293 Z M394.469657,110.712293 L394.469657,99.887091 L389.767021,99.887091 L389.767021,102.512554 C388.273284,100.565423 386.013347,99.3423163 382.934491,99.3423163 C376.875189,99.3423163 372.126862,104.101188 372.126862,110.715808 C372.126862,117.333943 376.875189,122.089299 382.934491,122.089299 C386.013347,122.089299 388.273284,120.866192 389.767021,118.919061 L389.767021,121.548039 L394.469657,121.548039 L394.469657,110.712293 Z M376.966571,110.712293 C376.966571,106.902384 379.454962,103.777837 383.521442,103.777837 C387.415703,103.777837 390.034136,106.768827 390.034136,110.712293 C390.034136,114.655759 387.415703,117.646749 383.521442,117.646749 C379.454962,117.646749 376.966571,114.518687 376.966571,110.712293 L376.966571,110.712293 Z M286.087595,99.3352869 C288.969629,99.3177135 291.739193,100.474042 293.749588,102.540671 C294.733697,103.549383 295.496382,104.754917 296.051701,106.146729 C296.610534,107.542055 296.888194,109.06391 296.888194,110.722837 C296.888194,112.378249 296.60702,113.900104 296.051701,115.29543 C295.531529,116.638037 294.751271,117.864659 293.753103,118.901488 C291.742708,120.968117 288.976658,122.127961 286.091109,122.110584 C284.541137,122.110584 283.21259,121.822184 282.105467,121.249292 C281.022946,120.697487 280.073984,119.920744 279.321843,118.968267 L279.321843,121.544524 L274.612177,121.544524 L274.612177,91.177724 L279.321843,91.177724 L279.321843,102.473893 C280.073984,101.52493 281.005373,100.76576 282.105467,100.192868 C283.21259,99.6199757 284.541137,99.3352869 286.087595,99.3352869 L286.087595,99.3352869 Z M285.525246,103.784867 C282.815431,103.714573 280.372731,105.405132 279.480004,107.963816 C279.163683,108.807339 279.009037,109.728184 279.009037,110.722837 C279.009037,111.713976 279.167198,112.631306 279.480004,113.478343 C279.796325,114.321865 280.239174,115.052918 280.815581,115.671501 C281.384958,116.290084 282.066805,116.771594 282.864637,117.123062 C283.662468,117.481559 284.551681,117.657293 285.525246,117.657293 C286.530444,117.657293 287.440745,117.471015 288.252635,117.105489 C289.064525,116.732933 289.749887,116.237364 290.305206,115.611751 C290.860524,114.986139 291.2858,114.255086 291.588062,113.408049 C291.893839,112.546954 292.04497,111.636653 292.041516,110.722837 C292.041516,109.773875 291.890325,108.877632 291.584548,108.03411 C291.303374,107.22222 290.871069,106.473594 290.305206,105.830408 C289.732313,105.194252 289.032893,104.688138 288.252635,104.340185 C287.395054,103.9606 286.463665,103.770808 285.525246,103.784867 L285.525246,103.784867 Z M305.277725,128.633626 L300.047887,128.633626 L306.669537,117.09143 L297.092045,99.8976351 L302.388662,99.8976351 L309.333661,112.325529 L316.029119,99.8976351 L321.213266,99.8976351 L305.277725,128.63714 L305.277725,128.633626 Z" id="Fill-8" fill="#211F1C"></path>
                </g>
            </g>
        </g>
    </g>
</svg>