<?xml version="1.0" encoding="UTF-8"?>
<svg width="980px" height="680px" viewBox="0 0 980 680" version="1.1" xmlns="http://www.w3.org/2000/svg" xmlns:xlink="http://www.w3.org/1999/xlink">
    <title>WW Mastercard+VISA alt2</title>
    <defs>
        <linearGradient x1="50%" y1="0%" x2="50%" y2="100%" id="linearGradient-1">
            <stop stop-color="#FFFFFF" offset="0%"></stop>
            <stop stop-color="#EDEDED" offset="100%"></stop>
        </linearGradient>
        <rect id="path-2" x="0" y="0" width="900" height="600" rx="80"></rect>
        <filter x="-6.7%" y="-10.0%" width="113.3%" height="120.0%" filterUnits="objectBoundingBox" id="filter-3">
            <feMorphology radius="2.5" operator="dilate" in="SourceAlpha" result="shadowSpreadOuter1"></feMorphology>
            <feOffset dx="0" dy="0" in="shadowSpreadOuter1" result="shadowOffsetOuter1"></feOffset>
            <feGaussianBlur stdDeviation="17.5" in="shadowOffsetOuter1" result="shadowBlurOuter1"></feGaussianBlur>
            <feColorMatrix values="0 0 0 0 0   0 0 0 0 0   0 0 0 0 0  0 0 0 0.5 0" type="matrix" in="shadowBlurOuter1"></feColorMatrix>
        </filter>
    </defs>
    <g id="WW-Mastercard+VISA-alt2" stroke="none" stroke-width="1" fill="none" fill-rule="evenodd">
        <g transform="translate(40, 40)">
            <g id="Rectangle">
                <use fill="black" fill-opacity="1" filter="url(#filter-3)" xlink:href="#path-2"></use>
                <use fill="url(#linearGradient-1)" fill-rule="evenodd" xlink:href="#path-2"></use>
            </g>
            <g id="Logo" transform="translate(248, 25)" fill-rule="nonzero">
                <g id="Group">
                    <rect id="rect19" fill="#FF5A00" x="147.249191" y="26.7394822" width="109.385113" height="196.521036"></rect>
                    <path d="M154.530744,125 C154.530744,85.0728155 173.300971,49.6359223 202.10356,26.7394822 C180.906149,10.0728155 154.166667,0 125,0 C55.9061489,0 0,55.9061489 0,125 C0,194.093851 55.9061489,250 125,250 C154.166667,250 180.906149,239.927184 202.10356,223.260518 C173.260518,200.687702 154.530744,164.927184 154.530744,125 Z" id="XMLID_330_" fill="#EB001B"></path>
                    <path d="M404.20712,125 C404.20712,194.093851 348.300971,250 279.20712,250 C250.040453,250 223.300971,239.927184 202.10356,223.260518 C231.270227,200.323625 249.676375,164.927184 249.676375,125 C249.676375,85.0728155 230.906149,49.6359223 202.10356,26.7394822 C223.260518,10.0728155 250,0 279.166667,0 C348.300971,0 404.20712,56.2702265 404.20712,125 Z" id="path22" fill="#F79E1B"></path>
                </g>
            </g>
            <g id="Logo" transform="translate(64.5, 324.5)" fill="#1434CB" fill-rule="nonzero">
                <path d="M502.562702,0 C447.777149,0 398.818129,28.3964497 398.818129,80.8610701 C398.818129,141.028083 485.648811,145.183794 485.648811,175.410032 C485.648811,188.137017 471.0637,199.529666 446.152916,199.529666 C410.799648,199.529666 384.376499,183.610713 384.376499,183.610713 L373.070424,236.553308 C373.070424,236.553308 403.509394,250 443.921848,250 C503.819995,250 550.952717,220.209295 550.952717,166.847564 C550.952717,103.270259 463.760246,99.2380566 463.760246,71.1830671 C463.760246,61.2132975 475.73337,50.2894401 500.572834,50.2894401 C528.5993,50.2894401 551.465263,61.8668603 551.465263,61.8668603 L562.530145,10.7332391 C562.530145,10.7332391 537.650001,0 502.562702,0 L502.562702,0 Z M1.32657976,3.85914777 L0,11.5774279 C0,11.5774279 23.0484366,15.795661 43.807283,24.2100841 C70.5360342,33.8589383 72.4400769,39.4759992 76.94163,56.922339 L125.994932,246.020264 L191.751085,246.020264 L293.053543,3.85914777 L227.448139,3.85914777 L162.35528,168.505788 L135.793531,28.9435659 C133.357587,12.9707797 121.018752,3.85914777 105.915341,3.85914777 L1.32657976,3.85914777 Z M319.434389,3.85914777 L267.969125,246.020264 L330.529425,246.020264 L381.813795,3.85914777 L319.434389,3.85914777 Z M668.35503,3.85914777 C653.269453,3.85914777 645.276583,11.9356713 639.411471,26.0492031 L547.756864,246.020264 L613.362268,246.020264 L626.055223,209.358418 L705.981661,209.358418 L713.699941,246.020264 L771.587065,246.020264 L721.086577,3.85914777 L668.35503,3.85914777 L668.35503,3.85914777 Z M676.887353,69.2836499 L696.33381,160.154367 L644.235396,160.154367 L676.887353,69.2836499 L676.887353,69.2836499 Z" id="path3789"></path>
            </g>
        </g>
    </g>
</svg>