<?xml version="1.0" encoding="UTF-8"?>
<svg width="980px" height="680px" viewBox="0 0 980 680" version="1.1" xmlns="http://www.w3.org/2000/svg" xmlns:xlink="http://www.w3.org/1999/xlink">
    <title>WW Mastercard+VISA alt</title>
    <defs>
        <linearGradient x1="50%" y1="0%" x2="50%" y2="100%" id="linearGradient-1">
            <stop stop-color="#FFFFFF" offset="0%"></stop>
            <stop stop-color="#EDEDED" offset="100%"></stop>
        </linearGradient>
        <rect id="path-2" x="0" y="0" width="900" height="600" rx="80"></rect>
        <filter x="-6.7%" y="-10.0%" width="113.3%" height="120.0%" filterUnits="objectBoundingBox" id="filter-3">
            <feMorphology radius="2.5" operator="dilate" in="SourceAlpha" result="shadowSpreadOuter1"></feMorphology>
            <feOffset dx="0" dy="0" in="shadowSpreadOuter1" result="shadowOffsetOuter1"></feOffset>
            <feGaussianBlur stdDeviation="17.5" in="shadowOffsetOuter1" result="shadowBlurOuter1"></feGaussianBlur>
            <feColorMatrix values="0 0 0 0 0   0 0 0 0 0   0 0 0 0 0  0 0 0 0.5 0" type="matrix" in="shadowBlurOuter1"></feColorMatrix>
        </filter>
    </defs>
    <g id="WW-Mastercard+VISA-alt" stroke="none" stroke-width="1" fill="none" fill-rule="evenodd">
        <g transform="translate(40, 40)">
            <g id="Rectangle">
                <use fill="black" fill-opacity="1" filter="url(#filter-3)" xlink:href="#path-2"></use>
                <use fill="url(#linearGradient-1)" fill-rule="evenodd" xlink:href="#path-2"></use>
            </g>
            <g id="Logo" transform="translate(86, 25)" fill-rule="nonzero">
                <path d="M480.344072,143.45232 L480.344072,126.860825 C480.344072,120.514175 476.478093,116.358247 469.841495,116.358247 C466.523196,116.358247 462.914948,117.453608 460.434278,121.061856 C458.501289,118.033505 455.73067,116.358247 451.574742,116.358247 C448.804124,116.358247 446.033505,117.195876 443.842784,120.224227 L443.842784,116.905928 L438.043814,116.905928 L438.043814,143.45232 L443.842784,143.45232 L443.842784,128.793814 C443.842784,124.090206 446.323454,121.867268 450.189433,121.867268 C454.055412,121.867268 455.988402,124.347938 455.988402,128.793814 L455.988402,143.45232 L461.787371,143.45232 L461.787371,128.793814 C461.787371,124.090206 464.55799,121.867268 468.134021,121.867268 C472,121.867268 473.93299,124.347938 473.93299,128.793814 L473.93299,143.45232 L480.344072,143.45232 Z M566.362113,116.905928 L556.954897,116.905928 L556.954897,108.884021 L551.155928,108.884021 L551.155928,116.905928 L545.904639,116.905928 L545.904639,122.157216 L551.155928,122.157216 L551.155928,134.335052 C551.155928,140.423969 553.636598,144 560.273196,144 C562.753866,144 565.524485,143.162371 567.457474,142.06701 L565.782216,137.073454 C564.106959,138.168814 562.173969,138.458763 560.78866,138.458763 C558.018041,138.458763 556.92268,136.783505 556.92268,134.045103 L556.92268,122.157216 L566.329897,122.157216 L566.329897,116.905928 L566.362113,116.905928 Z M615.588918,116.326031 C612.270619,116.326031 610.04768,118.001289 608.662371,120.19201 L608.662371,116.873711 L602.863402,116.873711 L602.863402,143.420103 L608.662371,143.420103 L608.662371,128.471649 C608.662371,124.05799 610.595361,121.545103 614.203608,121.545103 C615.298969,121.545103 616.684278,121.835052 617.811856,122.092784 L619.487113,116.551546 C618.32732,116.326031 616.684278,116.326031 615.588918,116.326031 L615.588918,116.326031 Z M541.201031,119.096649 C538.430412,117.16366 534.564433,116.326031 530.408505,116.326031 C523.771907,116.326031 519.358247,119.64433 519.358247,124.895619 C519.358247,129.309278 522.676546,131.822165 528.475515,132.627577 L531.246134,132.917526 C534.274485,133.465206 535.949742,134.302835 535.949742,135.688144 C535.949742,137.621134 533.726804,139.006443 529.860825,139.006443 C525.994845,139.006443 522.934278,137.621134 521.001289,136.235825 L518.23067,140.649485 C521.259021,142.872423 525.414948,143.967784 529.570876,143.967784 C537.302835,143.967784 541.748711,140.359536 541.748711,135.398196 C541.748711,130.694588 538.140464,128.213918 532.631443,127.376289 L529.860825,127.08634 C527.380155,126.796392 525.447165,126.248711 525.447165,124.60567 C525.447165,122.67268 527.380155,121.57732 530.440722,121.57732 C533.759021,121.57732 537.07732,122.962629 538.752577,123.800258 L541.201031,119.096649 L541.201031,119.096649 Z M695.485825,116.326031 C692.167526,116.326031 689.944588,118.001289 688.559278,120.19201 L688.559278,116.873711 L682.760309,116.873711 L682.760309,143.420103 L688.559278,143.420103 L688.559278,128.471649 C688.559278,124.05799 690.492268,121.545103 694.100515,121.545103 C695.195876,121.545103 696.581186,121.835052 697.708763,122.092784 L699.384021,116.615979 C698.256443,116.326031 696.613402,116.326031 695.485825,116.326031 L695.485825,116.326031 Z M621.387887,130.179124 C621.387887,138.201031 626.929124,144 635.498711,144 C639.364691,144 642.135309,143.162371 644.905928,140.971649 L642.135309,136.268041 C639.912371,137.943299 637.721649,138.748711 635.208763,138.748711 C630.505155,138.748711 627.186856,135.430412 627.186856,130.179124 C627.186856,125.185567 630.505155,121.867268 635.208763,121.609536 C637.689433,121.609536 639.912371,122.447165 642.135309,124.090206 L644.905928,119.386598 C642.135309,117.16366 639.364691,116.358115 635.498711,116.358115 C626.929124,116.326031 621.387887,122.157216 621.387887,130.179124 L621.387887,130.179124 L621.387887,130.179124 Z M675.028351,130.179124 L675.028351,116.905928 L669.229381,116.905928 L669.229381,120.224227 C667.296392,117.743557 664.525773,116.358247 660.917526,116.358247 C653.443299,116.358247 647.64433,122.157216 647.64433,130.179124 C647.64433,138.201031 653.443299,144 660.917526,144 C664.783505,144 667.554124,142.614691 669.229381,140.134021 L669.229381,143.45232 L675.028351,143.45232 L675.028351,130.179124 L675.028351,130.179124 Z M653.733247,130.179124 C653.733247,125.475515 656.761598,121.609536 661.755155,121.609536 C666.458763,121.609536 669.777062,125.217784 669.777062,130.179124 C669.777062,134.882732 666.458763,138.748711 661.755155,138.748711 C656.793814,138.458763 653.733247,134.850515 653.733247,130.179124 L653.733247,130.179124 Z M584.338918,116.326031 C576.606959,116.326031 571.065722,121.867268 571.065722,130.146907 C571.065722,138.458763 576.606959,143.967784 584.628866,143.967784 C588.494845,143.967784 592.360825,142.872423 595.421392,140.359536 L592.650773,136.203608 C590.427835,137.878866 587.657216,138.974227 584.918814,138.974227 C581.310567,138.974227 577.734536,137.298969 576.896907,132.627577 L596.516753,132.627577 C596.516753,131.789948 596.516753,131.242268 596.516753,130.404639 C596.774485,121.867268 591.780928,116.326031 584.338918,116.326031 L584.338918,116.326031 L584.338918,116.326031 Z M584.338918,121.319588 C587.947165,121.319588 590.427835,123.542526 590.975515,127.666237 L577.154639,127.666237 C577.70232,124.090206 580.18299,121.319588 584.338918,121.319588 L584.338918,121.319588 Z M728.411082,130.179124 L728.411082,106.403351 L722.612113,106.403351 L722.612113,120.224227 C720.679124,117.743557 717.908505,116.358247 714.300258,116.358247 C706.826031,116.358247 701.027062,122.157216 701.027062,130.179124 C701.027062,138.201031 706.826031,144 714.300258,144 C718.166237,144 720.936856,142.614691 722.612113,140.134021 L722.612113,143.45232 L728.411082,143.45232 L728.411082,130.179124 L728.411082,130.179124 Z M707.115979,130.179124 C707.115979,125.475515 710.14433,121.609536 715.137887,121.609536 C719.841495,121.609536 723.159794,125.217784 723.159794,130.179124 C723.159794,134.882732 719.841495,138.748711 715.137887,138.748711 C710.14433,138.458763 707.115979,134.850515 707.115979,130.179124 L707.115979,130.179124 Z M512.979381,130.179124 L512.979381,116.905928 L507.180412,116.905928 L507.180412,120.224227 C505.247423,117.743557 502.476804,116.358247 498.868557,116.358247 C491.39433,116.358247 485.595361,122.157216 485.595361,130.179124 C485.595361,138.201031 491.39433,144 498.868557,144 C502.734536,144 505.505155,142.614691 507.180412,140.134021 L507.180412,143.45232 L512.979381,143.45232 L512.979381,130.179124 L512.979381,130.179124 Z M491.426546,130.179124 C491.426546,125.475515 494.454897,121.609536 499.448454,121.609536 C504.152062,121.609536 507.470361,125.217784 507.470361,130.179124 C507.470361,134.882732 504.152062,138.748711 499.448454,138.748711 C494.454897,138.458763 491.426546,134.850515 491.426546,130.179124 Z" id="XMLID_1775_" fill="#000000"></path>
                <g id="Group">
                    <rect id="rect19" fill="#FF5A00" x="147.249191" y="26.7394822" width="109.385113" height="196.521036"></rect>
                    <path d="M154.530744,125 C154.530744,85.0728155 173.300971,49.6359223 202.10356,26.7394822 C180.906149,10.0728155 154.166667,0 125,0 C55.9061489,0 0,55.9061489 0,125 C0,194.093851 55.9061489,250 125,250 C154.166667,250 180.906149,239.927184 202.10356,223.260518 C173.260518,200.687702 154.530744,164.927184 154.530744,125 Z" id="XMLID_330_" fill="#EB001B"></path>
                    <path d="M404.20712,125 C404.20712,194.093851 348.300971,250 279.20712,250 C250.040453,250 223.300971,239.927184 202.10356,223.260518 C231.270227,200.323625 249.676375,164.927184 249.676375,125 C249.676375,85.0728155 230.906149,49.6359223 202.10356,26.7394822 C223.260518,10.0728155 250,0 279.166667,0 C348.300971,0 404.20712,56.2702265 404.20712,125 Z" id="path22" fill="#F79E1B"></path>
                </g>
            </g>
            <g id="Logo" transform="translate(64.5, 324.5)" fill="#1434CB" fill-rule="nonzero">
                <path d="M502.562702,0 C447.777149,0 398.818129,28.3964497 398.818129,80.8610701 C398.818129,141.028083 485.648811,145.183794 485.648811,175.410032 C485.648811,188.137017 471.0637,199.529666 446.152916,199.529666 C410.799648,199.529666 384.376499,183.610713 384.376499,183.610713 L373.070424,236.553308 C373.070424,236.553308 403.509394,250 443.921848,250 C503.819995,250 550.952717,220.209295 550.952717,166.847564 C550.952717,103.270259 463.760246,99.2380566 463.760246,71.1830671 C463.760246,61.2132975 475.73337,50.2894401 500.572834,50.2894401 C528.5993,50.2894401 551.465263,61.8668603 551.465263,61.8668603 L562.530145,10.7332391 C562.530145,10.7332391 537.650001,0 502.562702,0 L502.562702,0 Z M1.32657976,3.85914777 L0,11.5774279 C0,11.5774279 23.0484366,15.795661 43.807283,24.2100841 C70.5360342,33.8589383 72.4400769,39.4759992 76.94163,56.922339 L125.994932,246.020264 L191.751085,246.020264 L293.053543,3.85914777 L227.448139,3.85914777 L162.35528,168.505788 L135.793531,28.9435659 C133.357587,12.9707797 121.018752,3.85914777 105.915341,3.85914777 L1.32657976,3.85914777 Z M319.434389,3.85914777 L267.969125,246.020264 L330.529425,246.020264 L381.813795,3.85914777 L319.434389,3.85914777 Z M668.35503,3.85914777 C653.269453,3.85914777 645.276583,11.9356713 639.411471,26.0492031 L547.756864,246.020264 L613.362268,246.020264 L626.055223,209.358418 L705.981661,209.358418 L713.699941,246.020264 L771.587065,246.020264 L721.086577,3.85914777 L668.35503,3.85914777 L668.35503,3.85914777 Z M676.887353,69.2836499 L696.33381,160.154367 L644.235396,160.154367 L676.887353,69.2836499 L676.887353,69.2836499 Z" id="path3789"></path>
            </g>
        </g>
    </g>
</svg>