<?xml version="1.0" encoding="UTF-8"?>
<svg width="980px" height="680px" viewBox="0 0 980 680" version="1.1" xmlns="http://www.w3.org/2000/svg" xmlns:xlink="http://www.w3.org/1999/xlink">
    <title>WW Mastercard+VISA alt5</title>
    <defs>
        <rect id="path-1" x="0" y="0" width="900" height="600" rx="80"></rect>
        <filter x="-6.7%" y="-10.0%" width="113.3%" height="120.0%" filterUnits="objectBoundingBox" id="filter-3">
            <feMorphology radius="2.5" operator="dilate" in="SourceAlpha" result="shadowSpreadOuter1"></feMorphology>
            <feOffset dx="0" dy="0" in="shadowSpreadOuter1" result="shadowOffsetOuter1"></feOffset>
            <feGaussianBlur stdDeviation="17.5" in="shadowOffsetOuter1" result="shadowBlurOuter1"></feGaussianBlur>
            <feColorMatrix values="0 0 0 0 0   0 0 0 0 0   0 0 0 0 0  0 0 0 0.5 0" type="matrix" in="shadowBlurOuter1"></feColorMatrix>
        </filter>
    </defs>
    <g id="WW-Mastercard+VISA-alt5" stroke="none" stroke-width="1" fill="none" fill-rule="evenodd">
        <g transform="translate(40, 40)">
            <mask id="mask-2" fill="white">
                <use xlink:href="#path-1"></use>
            </mask>
            <g id="Rectangle">
                <use fill="black" fill-opacity="1" filter="url(#filter-3)" xlink:href="#path-1"></use>
                <use fill="#141413" fill-rule="evenodd" xlink:href="#path-1"></use>
            </g>
            <g id="Logo" mask="url(#mask-2)">
                <g transform="translate(248, 25)" id="Group">
                    <g transform="translate(0, 0)">
                        <rect id="rect19" fill="#FF5A00" fill-rule="nonzero" x="147.249191" y="26.7394822" width="109.385113" height="196.521036"></rect>
                        <path d="M154.530744,125 C154.530744,85.0728155 173.300971,49.6359223 202.10356,26.7394822 C180.906149,10.0728155 154.166667,0 125,0 C55.9061489,0 -5.68434189e-14,55.9061489 -5.68434189e-14,125 C-5.68434189e-14,194.093851 55.9061489,250 125,250 C154.166667,250 180.906149,239.927184 202.10356,223.260518 C173.260518,200.687702 154.530744,164.927184 154.530744,125 Z" id="XMLID_330_" fill="#EB001B" fill-rule="nonzero"></path>
                        <path d="M404.20712,125 C404.20712,194.093851 348.300971,250 279.20712,250 C250.040453,250 223.300971,239.927184 202.10356,223.260518 C231.270227,200.323625 249.676375,164.927184 249.676375,125 C249.676375,85.0728155 230.906149,49.6359223 202.10356,26.7394822 C223.260518,10.0728155 250,0 279.166667,0 C348.300971,0 404.20712,56.2702265 404.20712,125 Z" id="path22" fill="#F79E1B" fill-rule="nonzero"></path>
                    </g>
                </g>
            </g>
            <g id="Logo" mask="url(#mask-2)">
                <g transform="translate(0, 300)">
                    <rect id="Rectangle" fill="#1434CB" fill-rule="evenodd" x="0" y="0" width="900" height="300"></rect>
                    <path d="M567.062695,24.5 C512.277142,24.5 463.318122,52.8964497 463.318122,105.36107 C463.318122,165.528083 550.148804,169.683794 550.148804,199.910032 C550.148804,212.637017 535.563693,224.029666 510.652909,224.029666 C475.29964,224.029666 448.876492,208.110713 448.876492,208.110713 L437.570417,261.053308 C437.570417,261.053308 468.009386,274.5 508.42184,274.5 C568.319987,274.5 615.45271,244.709295 615.45271,191.347564 C615.45271,127.770259 528.260239,123.738057 528.260239,95.6830671 C528.260239,85.7132975 540.233362,74.7894401 565.072826,74.7894401 C593.099293,74.7894401 615.965255,86.3668603 615.965255,86.3668603 L627.030138,35.2332391 C627.030138,35.2332391 602.149993,24.5 567.062695,24.5 L567.062695,24.5 Z M65.8265723,28.3591478 L64.4999925,36.0774279 C64.4999925,36.0774279 87.5484292,40.295661 108.307276,48.7100841 C135.036027,58.3589383 136.940069,63.9759992 141.441623,81.422339 L190.494925,270.520264 L256.251078,270.520264 L357.553535,28.3591478 L291.948131,28.3591478 L226.855272,193.005788 L200.293524,53.4435659 C197.85758,37.4707797 185.518744,28.3591478 170.415334,28.3591478 L65.8265723,28.3591478 Z M383.934382,28.3591478 L332.469117,270.520264 L395.029417,270.520264 L446.313788,28.3591478 L383.934382,28.3591478 Z M732.855022,28.3591478 C717.769445,28.3591478 709.776576,36.4356713 703.911464,50.5492031 L612.256857,270.520264 L677.862261,270.520264 L690.555215,233.858418 L770.481653,233.858418 L778.199933,270.520264 L836.087057,270.520264 L785.58657,28.3591478 L732.855022,28.3591478 L732.855022,28.3591478 Z M741.387346,93.7836499 L760.833803,184.654367 L708.735389,184.654367 L741.387346,93.7836499 L741.387346,93.7836499 Z" id="path3789" fill="#FFFFFF" fill-rule="nonzero"></path>
                </g>
            </g>
        </g>
    </g>
</svg>