<?xml version="1.0" encoding="UTF-8"?>
<svg width="980px" height="680px" viewBox="0 0 980 680" version="1.1" xmlns="http://www.w3.org/2000/svg" xmlns:xlink="http://www.w3.org/1999/xlink">
    <title>WW Mastercard Securecode</title>
    <defs>
        <linearGradient x1="50%" y1="0%" x2="50%" y2="100%" id="linearGradient-1">
            <stop stop-color="#FFFFFF" offset="0%"></stop>
            <stop stop-color="#EDEDED" offset="100%"></stop>
        </linearGradient>
        <rect id="path-2" x="0" y="-2.84217094e-14" width="900" height="600" rx="80"></rect>
        <filter x="-6.7%" y="-10.0%" width="113.3%" height="120.0%" filterUnits="objectBoundingBox" id="filter-3">
            <feMorphology radius="2.5" operator="dilate" in="SourceAlpha" result="shadowSpreadOuter1"></feMorphology>
            <feOffset dx="0" dy="0" in="shadowSpreadOuter1" result="shadowOffsetOuter1"></feOffset>
            <feGaussianBlur stdDeviation="17.5" in="shadowOffsetOuter1" result="shadowBlurOuter1"></feGaussianBlur>
            <feColorMatrix values="0 0 0 0 0   0 0 0 0 0   0 0 0 0 0  0 0 0 0.5 0" type="matrix" in="shadowBlurOuter1"></feColorMatrix>
        </filter>
    </defs>
    <g id="WW-Mastercard-Securecode" stroke="none" stroke-width="1" fill="none" fill-rule="evenodd">
        <g transform="translate(40, 40)">
            <g id="Rectangle">
                <use fill="black" fill-opacity="1" filter="url(#filter-3)" xlink:href="#path-2"></use>
                <use fill="url(#linearGradient-1)" fill-rule="evenodd" xlink:href="#path-2"></use>
            </g>
            <g id="Logo" transform="translate(50, 174)" fill-rule="nonzero">
                <path d="M70.5659583,170.504612 C66.1897749,167.764514 61.8135914,165.572436 56.890385,163.928378 C51.9671786,162.284319 47.0439722,161.7363 42.1207658,161.7363 C38.8386282,161.7363 36.1035136,162.284319 32.821376,162.832339 C30.0862613,163.380358 27.8981696,164.476397 25.7100778,165.572436 C24.069009,166.668475 22.4279402,168.312534 21.3338944,170.504612 C20.2398485,172.148671 19.6928256,174.340749 19.6928256,176.532827 C19.6928256,178.724905 20.2398485,180.368964 21.3338944,182.013022 C22.4279402,183.657081 23.5219861,184.75312 25.7100778,185.849159 C27.8981696,186.945198 30.0862613,188.041237 32.274353,188.589257 C35.0094677,189.685296 38.2916053,190.233315 41.02672,190.233315 L48.1380181,191.329354 C51.9671786,191.877374 56.3433621,192.973413 60.1725226,194.069452 C64.0016831,195.165491 67.2838207,196.80955 70.5659583,199.001628 C73.301073,201.193706 76.0361877,203.933804 77.6772565,207.221921 C79.8653482,211.058058 80.4123711,214.894194 80.4123711,219.278351 C80.4123711,224.210526 79.3183253,228.594683 77.1302335,232.978839 C74.9421418,236.814976 72.2070271,240.103093 68.3778666,242.84319 C64.5487061,245.583288 60.1725226,247.775366 55.7963392,248.871405 C50.3261098,249.419425 44.8558805,250.515464 39.9326741,250.515464 C36.6505365,250.515464 32.821376,249.967444 29.5392384,249.419425 C25.7100778,248.871405 22.4279402,247.775366 18.5987797,246.679327 C15.3166421,245.583288 12.0345045,243.93923 8.75236693,242.295171 C5.47022933,240.651112 2.73511466,238.459034 0,236.266956 L8.75236693,223.114487 C10.3934357,224.758546 12.5815275,226.402604 14.7696192,227.498644 C19.6928256,230.238741 25.1630549,232.430819 31.1803072,233.526858 C33.9154218,234.074878 37.1975594,234.074878 39.9326741,234.622897 C43.2148117,234.622897 45.9499264,234.622897 49.232064,233.526858 C51.9671786,232.978839 54.1552704,231.8828 56.890385,230.786761 C59.0784768,229.690722 60.7195456,228.046663 61.8135914,226.402604 C62.9076373,224.758546 63.4546602,222.566468 63.4546602,219.82637 C63.4546602,215.990233 61.2665685,212.702116 57.9844309,211.058058 C52.5142016,208.31796 47.0439722,207.221921 41.02672,206.673901 L33.3683989,205.577862 C29.5392384,205.029843 26.2571008,203.933804 22.4279402,202.837765 C19.1458027,201.741725 15.8636651,200.097667 13.1285504,197.905589 C10.3934357,195.713511 8.20534399,192.973413 6.56427519,189.685296 C4.9232064,185.849159 3.82916053,182.013022 3.82916053,177.628866 C3.82916053,173.24471 4.9232064,168.312534 7.11129813,164.476397 C8.20534399,160.64026 11.4874816,157.352143 14.7696192,154.612046 C18.5987797,151.871948 22.9749632,149.67987 27.3511466,148.583831 C32.274353,146.939772 37.7445824,146.391753 42.6677888,146.391753 C49.232064,146.391753 55.7963392,147.487792 62.3606143,149.13185 C68.3778666,150.775909 73.8480959,153.516007 78.7713023,156.804124 L70.5659583,170.504612 Z M126.01478,178.350515 C130.43571,178.350515 134.856639,179.451205 139.277569,181.10224 C143.145882,182.753275 146.461579,185.505 149.777276,188.256724 C152.540357,191.558794 154.750822,195.411208 156.40867,199.813968 C158.066519,204.767072 159.171751,209.720177 158.619135,214.673281 C158.619135,215.773971 158.619135,216.324316 158.619135,217.425006 C158.619135,218.525696 158.619135,219.076041 158.619135,220.17673 L107.22583,220.17673 C107.778446,222.928455 108.331063,225.68018 109.988911,228.431905 C111.094144,230.633284 112.751992,232.284319 114.409841,233.935354 C116.067689,235.586389 118.278154,236.687079 120.488619,237.237423 C122.699083,237.787768 124.909548,238.338113 127.672629,238.338113 C130.988326,238.338113 134.856639,237.787768 138.172336,236.687079 C141.488033,235.586389 144.80373,233.385009 147.566811,231.183629 L155.303438,241.640183 C151.435124,244.942253 147.014195,247.693977 142.040649,249.345012 C137.067104,250.996047 132.093558,251.546392 127.120013,251.546392 C122.146467,251.546392 117.172921,250.445702 112.751992,248.794667 C108.331063,247.143632 105.015366,244.391908 101.699669,241.640183 C98.3839714,238.338113 96.1735067,234.485699 94.5156582,230.082939 C92.8578097,225.129835 91.7525773,220.17673 91.7525773,215.223626 C91.7525773,210.270522 92.3051935,205.317417 94.5156582,200.364313 C96.1735067,195.961553 98.3839714,192.109139 101.699669,188.807069 C105.015366,185.505 108.331063,183.30362 112.751992,181.652585 C116.620305,179.451205 121.041235,178.350515 126.01478,178.350515 L126.01478,178.350515 Z M125.55115,191.752577 C123.394132,191.752577 120.697859,192.302405 118.540841,192.852234 C116.383822,193.402062 114.766059,195.051546 113.148295,196.151203 C111.530531,197.800687 110.452022,199.450172 109.373513,201.649485 C108.295004,203.848797 107.755749,206.04811 107.216495,208.247423 L142.268041,208.247423 C141.728787,203.848797 140.111023,199.450172 136.875496,195.601375 C134.179223,193.402062 129.865186,191.752577 125.55115,191.752577 L125.55115,191.752577 Z M205.085911,178.350515 C210.034364,178.350515 214.982818,179.451205 219.381443,181.10224 C223.780069,182.753275 227.628866,185.505 230.378007,189.357414 L220.4811,199.813968 C218.281787,197.612588 215.532646,195.961553 212.783505,194.310519 C210.034364,193.209829 206.735395,192.659484 203.986254,192.659484 C201.237113,192.659484 198.487973,193.209829 195.738832,194.310519 C193.539519,195.411208 191.340206,197.062243 189.690722,199.263623 C188.041237,201.465003 186.391753,203.666382 185.292096,206.418107 C183.092784,212.471901 183.092784,218.525696 185.292096,224.029145 C186.391753,226.78087 187.491409,228.982249 189.690722,231.183629 C191.340206,233.385009 193.539519,234.485699 196.28866,235.586389 C199.037801,236.687079 201.786942,237.237423 204.536082,237.237423 C207.835052,237.237423 211.134021,236.687079 213.883162,235.036044 C216.632302,233.935354 219.381443,231.733974 221.580756,230.082939 L230.927835,240.539493 C227.628866,244.391908 223.780069,247.143632 219.381443,248.794667 C214.982818,250.445702 210.034364,251.546392 205.085911,251.546392 C200.137457,251.546392 195.189003,250.445702 190.24055,248.794667 C181.443299,245.492597 174.845361,238.338113 171.546392,229.532594 C168.247423,220.17673 168.247423,210.270522 171.546392,200.914658 C174.845361,192.109139 181.443299,185.505 190.24055,181.652585 C194.639175,179.451205 200.137457,178.350515 205.085911,178.350515 L205.085911,178.350515 Z M308.247423,219.084152 C308.247423,224.046991 307.69641,229.00983 305.492357,233.421242 C303.839317,237.281228 301.635265,240.589787 298.329186,243.346919 C295.57412,246.104052 291.717028,247.758331 288.410949,248.861184 C280.696765,251.06689 272.431568,251.06689 264.717384,248.861184 C260.860292,247.758331 257.554213,246.104052 254.248134,243.346919 C250.942055,240.589787 248.738002,237.281228 247.084963,233.421242 C245.431923,229.00983 244.329897,224.046991 244.329897,219.084152 L244.329897,179.381443 L259.207252,179.381443 L259.207252,217.981299 C259.207252,220.738432 259.758265,223.495565 260.309278,226.252697 C260.860292,228.458403 262.513331,230.112683 264.16637,231.766962 C265.81941,233.421242 267.472449,234.524095 269.676502,235.075521 C274.084607,236.178374 278.492712,236.178374 282.900818,235.075521 C285.10487,234.524095 286.75791,233.421242 288.410949,231.766962 C290.063989,230.112683 291.166015,228.458403 292.268041,226.252697 C293.370068,223.495565 293.921081,220.738432 293.370068,217.981299 L293.370068,179.381443 L308.247423,179.381443 L308.247423,219.084152 Z M362.510612,177.319588 C364.742268,177.319588 366.973924,177.319588 368.647665,177.874703 C370.321407,178.429818 372.553062,178.429818 374.226804,179.540048 L370.321407,194.528152 C368.647665,193.417922 366.41601,192.862807 364.742268,192.862807 C362.510612,192.307692 360.836871,192.307692 358.605215,192.307692 C356.37356,192.307692 354.141904,192.862807 351.910249,193.417922 C349.678593,193.973037 348.004851,195.638382 346.889024,197.303727 C345.215282,198.969072 344.099454,201.189532 343.54154,203.409992 C342.425713,206.185567 342.425713,208.406027 342.425713,211.181602 L342.425713,249.484536 L326.804124,249.484536 L326.804124,178.984933 L341.867799,178.984933 L341.867799,186.756542 C344.099454,183.425852 346.889024,181.205393 350.794421,179.540048 C354.699818,177.874703 358.605215,177.319588 362.510612,177.319588 L362.510612,177.319588 Z M412.060102,178.350515 C416.481032,178.350515 420.901961,179.451205 425.322891,181.10224 C429.191204,182.753275 432.506901,185.505 435.822598,188.256724 C439.138295,191.558794 441.34876,195.411208 443.006608,199.813968 C444.664457,204.767072 445.769689,209.720177 445.217073,214.673281 C445.217073,215.773971 445.217073,216.324316 445.217073,217.425006 C445.217073,218.525696 445.217073,219.076041 445.217073,220.17673 L393.823768,220.17673 C394.376385,222.928455 394.929001,225.68018 396.586849,228.431905 C397.692082,230.633284 399.34993,232.284319 401.007779,233.935354 C402.665627,235.586389 404.876092,236.687079 407.086557,237.237423 C409.297021,237.787768 411.507486,238.338113 414.270567,238.338113 C417.586264,238.338113 421.454577,237.787768 424.770274,236.687079 C428.085971,235.586389 431.401668,233.385009 434.164749,231.183629 L441.901376,241.640183 C438.033063,244.942253 433.612133,247.693977 428.638588,249.345012 C423.665042,250.996047 418.691496,251.546392 413.717951,251.546392 C408.744405,251.546392 403.77086,250.445702 399.34993,248.794667 C394.929001,247.143632 391.613304,244.391908 388.297607,241.640183 C384.98191,238.338113 382.771445,234.485699 381.113596,230.082939 C379.455748,225.129835 378.350515,220.17673 378.350515,215.223626 C378.350515,210.270522 378.903132,205.317417 381.113596,200.364313 C382.771445,195.961553 384.98191,192.109139 388.297607,188.807069 C391.613304,185.505 394.929001,183.30362 399.34993,181.652585 C402.665627,179.451205 407.086557,178.350515 412.060102,178.350515 L412.060102,178.350515 Z M412.149088,191.752577 C409.99207,191.752577 407.295797,192.302405 405.138779,192.852234 C402.981761,193.402062 401.363997,195.051546 399.746233,196.151203 C398.128469,197.800687 397.04996,199.450172 395.971451,201.649485 C394.892942,203.848797 394.353688,206.04811 393.814433,208.247423 L428.865979,208.247423 C428.326725,203.848797 426.708961,199.450172 423.473434,195.601375 C420.777161,193.402062 416.463125,191.752577 412.149088,191.752577 L412.149088,191.752577 Z M509.338028,146.391753 C513.730288,146.391753 518.122548,146.940216 521.965775,148.037142 C525.809002,149.134069 529.65223,150.230995 533.495457,152.424848 C536.789652,154.070238 540.083847,156.264091 543.378042,159.006407 C546.123204,161.748723 548.868366,164.491039 550.515464,167.781818 L536.789652,176.55723 C534.04449,172.169524 529.65223,168.330281 524.710937,166.136429 C519.769645,163.394112 513.730288,162.297186 508.239963,162.297186 C503.298671,162.297186 498.357378,163.394112 493.965119,165.039502 C489.572859,166.684892 486.278664,169.427208 482.984469,172.717987 C479.690274,176.008766 477.494144,179.848009 475.847047,184.235715 C472.003819,193.55959 472.003819,204.528854 475.847047,213.852729 C477.494144,218.240434 480.239307,222.079677 482.984469,225.370456 C486.278664,228.661236 489.572859,230.855089 493.965119,233.048941 C498.357378,234.694331 503.298671,235.791258 508.239963,235.791258 C519.220613,235.791258 529.65223,230.855089 536.240619,221.531214 L549.417399,231.403552 C547.221269,234.694331 544.476107,237.436647 541.730944,239.6305 C538.985782,242.372816 535.691587,244.566669 532.397392,246.212059 C528.554165,247.857448 525.25997,249.502838 520.86771,250.051301 C509.338028,252.793617 497.808346,251.696691 486.827696,247.308985 C474.199949,242.372816 464.317365,232.500478 459.376072,219.885824 C454.43478,206.722707 454.43478,191.9142 459.376072,178.202619 C464.317365,165.587965 474.199949,155.715627 486.827696,150.779458 C495.063183,147.488679 502.200606,146.391753 509.338028,146.391753 Z M597.42268,177.319588 C602.320546,177.319588 607.218411,178.42652 612.116276,180.086918 C616.469934,181.747315 620.279385,184.514645 623.544629,187.835441 C626.809872,191.156237 629.530909,195.030499 631.16353,199.458227 C634.972981,208.867149 634.972981,218.829536 631.16353,228.238458 C629.530909,232.666186 626.809872,236.540448 623.544629,239.861244 C620.279385,243.18204 616.469934,245.94937 612.116276,247.609768 C602.864753,251.484029 592.524815,251.484029 582.729084,247.609768 C578.375426,245.94937 574.565976,243.18204 571.300732,239.861244 C568.035488,236.540448 565.314452,232.666186 563.68183,228.791924 C559.87238,219.383002 559.87238,209.420615 563.68183,200.011693 C565.314452,195.583965 568.035488,191.709703 571.300732,188.388907 C574.565976,185.068111 578.375426,182.300781 582.729084,180.640384 C587.62695,178.42652 592.524815,177.319588 597.42268,177.319588 L597.42268,177.319588 Z M597.938144,191.752577 C595.162569,191.752577 591.831879,192.306701 589.056305,193.414948 C586.28073,194.523196 584.06027,196.185567 582.394925,197.847938 C580.174465,200.064433 579.064235,202.280928 577.954005,205.051546 C575.733545,210.592784 575.733545,217.242268 577.954005,222.783505 C579.064235,225.554124 580.72958,227.770619 582.394925,229.987113 C584.615385,232.203608 586.835845,233.311856 589.056305,234.420103 C594.607454,236.636598 600.713719,236.636598 606.264869,234.420103 C611.260904,232.203608 615.701824,228.324742 617.922284,223.337629 C620.142744,217.796392 620.142744,211.146907 617.922284,205.60567 C616.812054,202.835052 615.146709,200.618557 613.481364,198.402062 C611.260904,196.185567 609.040444,195.07732 606.819984,193.969072 C604.044409,192.860825 601.268834,192.306701 597.938144,191.752577 L597.938144,191.752577 Z M680.206186,178.393696 C688.453608,177.843148 696.701031,181.696983 701.649485,188.303557 L701.649485,145.360825 L716.494845,145.360825 L716.494845,248.86382 L701.649485,248.86382 L701.649485,240.605603 C699.450172,243.90889 696.151203,246.111081 692.852234,247.762725 C689.003436,249.414368 684.604811,250.515464 680.206186,250.515464 C670.859107,250.515464 662.061856,246.661629 656.013746,240.605603 C652.714777,237.302316 650.515464,233.448481 648.865979,229.044098 C645.56701,219.684784 645.56701,209.224375 648.865979,199.865062 C650.515464,195.460679 653.264605,191.606844 656.013746,188.303557 C662.061856,181.696983 670.859107,178.393696 680.206186,178.393696 L680.206186,178.393696 Z M682.268726,192.783505 C679.528719,192.783505 676.24071,193.330788 673.500702,194.425353 C671.308696,195.519919 668.568689,197.161767 666.924684,199.350897 C665.28068,201.540028 663.636675,203.729159 663.088673,206.465572 C661.444669,211.938399 661.444669,217.958508 663.088673,223.431335 C664.184677,226.167749 665.28068,228.356879 666.924684,230.54601 C668.568689,232.735141 670.760695,234.376989 673.500702,235.471554 C678.980717,237.660685 685.008734,237.660685 690.488749,235.471554 C693.228756,234.376989 695.420762,232.735141 697.064767,231.093293 C698.708771,229.451445 700.352776,227.262314 701.448779,224.5259 C703.640785,219.053074 703.640785,212.485682 701.448779,207.012855 C700.352776,204.276441 699.256773,202.087311 697.064767,199.89818 C695.420762,197.709049 693.228756,196.614484 690.488749,195.519919 C687.748741,193.878071 685.008734,193.330788 682.268726,192.783505 L682.268726,192.783505 Z M767.214972,178.350515 C771.640886,178.350515 776.0668,179.451205 780.492713,181.10224 C784.365388,182.753275 787.684823,185.505 791.004259,188.256724 C793.770455,191.558794 795.983412,195.411208 797.643129,199.813968 C799.302847,204.767072 800.409325,209.720177 799.856086,214.673281 C799.856086,215.773971 799.856086,216.324316 799.856086,217.425006 C799.856086,218.525696 799.856086,219.076041 799.856086,220.17673 L748.958078,220.17673 C749.511317,222.928455 750.064556,225.68018 751.724274,228.431905 C752.830752,230.633284 754.49047,232.284319 756.703427,233.935354 C758.363144,235.586389 760.576101,236.687079 762.789058,237.237423 C765.002015,237.787768 767.214972,238.338113 769.981168,238.338113 C773.300603,238.338113 777.173278,237.787768 780.492713,236.687079 C783.812149,235.586389 787.131584,233.385009 789.89778,231.183629 L797.643129,241.640183 C793.770455,244.942253 789.344541,247.693977 784.365388,249.345012 C779.386235,250.996047 774.407082,251.546392 769.427929,251.546392 C764.448776,251.546392 759.469623,250.445702 755.043709,248.794667 C750.617795,247.143632 747.29836,244.391908 743.978925,241.640183 C740.659489,238.338113 738.446532,234.485699 736.786815,230.082939 C735.127097,225.129835 734.020619,220.17673 734.020619,215.223626 C734.020619,210.270522 734.573858,205.317417 736.786815,200.364313 C738.446532,195.961553 740.659489,192.109139 743.978925,188.807069 C747.29836,185.505 750.617795,183.30362 755.043709,181.652585 C757.809905,179.451205 762.789058,178.350515 767.214972,178.350515 L767.214972,178.350515 Z M765.757335,191.752577 C763.600317,191.752577 760.904044,192.302405 758.747026,192.852234 C756.590008,193.402062 754.972244,195.051546 753.354481,196.151203 C751.736717,197.800687 750.658208,199.450172 749.579699,201.649485 C748.50119,203.848797 747.961935,206.04811 747.42268,208.247423 L782.474227,208.247423 C781.934972,203.298969 780.317209,198.900344 777.081681,195.601375 C774.385408,193.402062 770.071372,191.752577 765.757335,191.752577 L765.757335,191.752577 Z" id="Shape" fill="#F79E1B"></path>
                <path d="M120.618557,107.216495 L103.542551,107.216495 L103.542551,21.7254476 L73.246412,96.8041237 L55.6195674,96.8041237 L25.3234283,22.2734672 L25.3234283,106.668475 L8.24742268,106.668475 L8.24742268,3.09278351 L34.1368506,3.09278351 L64.4329897,77.0754205 L94.7291288,3.09278351 L120.618557,3.09278351 L120.618557,107.216495 Z M208.247423,108.111972 L192.981244,108.111972 L192.981244,99.8720746 C190.25514,103.168034 187.529037,105.36534 183.712492,107.562646 C179.895947,109.759952 174.988961,110.309278 170.627196,110.309278 C161.358444,110.309278 152.089693,106.463993 145.547044,99.8720746 C142.27572,96.5761156 139.549617,92.1815035 137.913955,87.7868914 C134.09741,77.8990142 134.09741,67.4618105 137.913955,57.5739333 C139.549617,53.1793212 142.27572,49.3340357 145.547044,45.4887501 C152.089693,38.896832 161.358444,35.0515464 170.627196,35.0515464 C174.988961,35.0515464 179.350727,36.1501994 183.712492,37.7981789 C187.529037,39.4461585 190.25514,42.192791 192.981244,45.4887501 L192.981244,36.6995259 L208.247423,36.6995259 L208.247423,108.111972 Z M172.164948,48.4536082 C168.834259,48.4536082 166.058684,49.006789 163.283109,50.1131506 C160.507534,51.2195122 158.287074,52.8790546 156.621729,55.0917777 C154.956384,57.3045009 153.291039,59.517224 152.180809,62.283128 C149.960349,67.8149359 149.960349,74.4531054 152.180809,79.9849133 C153.291039,82.7508172 154.401269,84.9635404 156.621729,87.1762635 C158.287074,89.3889867 161.062649,91.048529 163.283109,92.1548906 C168.834259,94.3676138 175.495638,94.3676138 181.046788,92.1548906 C183.822363,91.048529 186.042823,89.3889867 187.708168,87.1762635 C189.373513,84.9635404 191.038858,82.7508172 192.149088,79.9849133 C194.369548,73.8999246 194.369548,67.8149359 192.149088,61.7299472 C191.038858,58.9640432 189.373513,56.7513201 187.708168,54.5385969 C186.042823,52.3258738 183.267248,50.6663314 181.046788,49.5599698 C178.271213,49.006789 175.495638,48.4536082 172.164948,48.4536082 Z M280.457194,54.6545622 C279.363514,54.1083244 277.722994,53.0158486 276.629314,52.4696107 C274.988794,51.9233728 272.801434,50.8308971 271.160914,50.2846592 C268.973554,49.7384213 267.333035,49.1921834 265.145675,48.6459455 C262.958315,48.0997076 260.770955,48.0997076 258.583595,48.0997076 C255.302555,48.0997076 251.474675,48.6459455 248.740475,50.2846592 C246.553115,51.3771349 245.459435,54.1083244 245.459435,56.2932759 C245.459435,57.3857517 246.006275,58.4782274 246.553115,59.5707032 C247.099955,60.663179 248.193635,61.2094168 248.740475,61.7556547 C249.834155,62.3018926 250.927835,62.8481305 252.568355,62.8481305 C254.208875,63.3943684 255.302555,63.3943684 256.943075,63.9406062 L264.051995,65.033082 C270.614074,65.5793199 276.629314,68.3105093 282.097714,71.5879366 C286.472434,75.4116018 288.659794,80.8739806 288.659794,86.3363594 C288.659794,89.6137867 288.112954,92.891214 286.472434,95.6224034 C284.831914,98.3535929 282.644554,101.084782 279.910354,102.723496 C276.629314,104.908447 273.348274,106.547161 270.067234,107.639637 C265.692515,108.732113 260.770955,109.278351 256.396235,109.278351 C254.755715,109.278351 252.568355,109.278351 249.834155,108.732113 C247.099955,108.732113 244.912595,108.185875 242.178395,107.639637 C239.444195,107.093399 236.709996,106.000923 233.975796,104.908447 C231.241596,103.815972 228.507396,102.177258 225.773196,100.538544 L232.882116,89.0675489 C233.975796,90.1600246 235.616316,91.2525004 237.256835,91.7987383 C238.897355,92.891214 240.537875,93.4374519 242.178395,93.9836898 C244.365755,94.5299277 246.553115,95.0761656 248.740475,95.6224034 C251.474675,96.1686413 254.208875,96.1686413 256.396235,96.1686413 C260.770955,96.1686413 264.598835,95.6224034 268.426714,93.9836898 C271.160914,92.891214 272.254594,90.1600246 272.801434,87.9750731 C272.801434,85.7901216 271.707754,84.1514079 270.067234,83.0589321 C267.333035,81.4202185 264.051995,80.3277427 260.770955,80.3277427 L253.662035,79.235267 C247.099955,78.6890291 241.084715,76.5040776 235.616316,72.1341745 C231.788436,68.8567472 229.054236,63.3943684 229.601076,58.4782274 C229.601076,55.2008001 230.147916,51.9233728 231.788436,49.1921834 C232.882116,46.460994 235.069476,43.7298046 237.803675,42.0910909 C240.537875,39.9061394 243.818915,38.2674258 247.099955,37.7211879 C250.927835,36.6287121 255.302555,36.0824742 259.130435,36.0824742 C264.598835,36.0824742 269.520394,36.6287121 274.988794,38.2674258 C279.363514,39.3599015 283.738234,40.9986152 288.112954,43.7298046 L280.457194,54.6545622 Z M353.313697,50.2493106 L325.699558,50.2493106 L325.699558,81.1064487 C325.699558,83.31053 326.251841,85.5146113 326.804124,87.1676722 C327.356406,88.8207332 327.908689,89.9227739 329.013255,91.5758348 C330.11782,92.6778755 331.222386,93.2288958 332.879234,93.7799161 C334.536082,94.3309364 335.640648,94.3309364 337.297496,94.3309364 C340.05891,94.3309364 342.268041,93.7799161 344.477172,92.6778755 C346.686303,91.5758348 349.447717,90.4737942 351.656848,89.3717535 L357.731959,102.045221 C354.418262,104.249302 351.656848,105.902363 347.790869,107.004404 C343.92489,108.657465 339.506627,109.208485 335.640648,109.208485 C328.460972,109.759505 321.833579,107.004404 316.863034,102.596241 C311.892489,96.5350177 309.131075,89.3717535 310.235641,81.657469 L310.235641,50.2493106 L295.876289,50.2493106 L295.876289,35.9227823 L310.235641,35.9227823 L310.235641,14.4329897 L325.699558,14.4329897 L325.699558,35.9227823 L353.313697,35.9227823 L353.313697,50.2493106 Z M401.270887,35.0515464 C406.233755,35.0515464 410.645193,36.1512027 415.056631,37.8006873 C418.91664,39.4501718 422.776648,42.1993127 425.533797,45.4982818 C428.842376,48.7972509 431.048095,53.1958763 432.702384,57.0446735 C434.356673,61.9931271 435.459533,66.9415808 434.908103,72.4398625 C434.908103,73.5395189 434.908103,74.6391753 434.908103,75.1890034 C434.908103,75.7388316 434.908103,76.838488 434.908103,77.9381443 L381.970845,77.9381443 C382.522275,80.6872852 383.073704,83.4364261 384.727994,86.185567 C385.830853,88.3848797 387.485143,90.0343643 389.690862,91.6838488 C391.345151,93.3333333 393.55087,94.4329897 396.308019,94.9828179 C398.513738,95.532646 401.270887,96.0824742 403.476606,96.0824742 C407.336614,96.0824742 411.196623,95.532646 414.505202,93.8831615 C417.81378,92.7835052 421.673789,90.5841924 424.430937,88.3848797 L432.150954,99.3814433 C428.290946,102.680412 423.328078,105.429553 418.36521,107.079038 C413.402342,108.728522 407.888044,109.278351 402.925176,109.278351 C397.962308,109.278351 392.448011,108.728522 388.036572,107.079038 C383.625134,105.429553 379.765126,102.680412 376.456547,99.3814433 C373.147969,96.0824742 370.39082,92.233677 368.73653,87.2852234 C367.082241,82.3367698 365.979381,77.3883162 365.979381,71.8900344 C365.979381,66.9415808 366.530811,61.443299 368.73653,56.4948454 C370.39082,52.0962199 372.596539,48.2474227 375.905117,44.3986254 C379.213696,41.0996564 382.522275,38.3505155 386.933713,36.7010309 C391.345151,35.6013746 396.308019,35.0515464 401.270887,35.0515464 L401.270887,35.0515464 Z M400.784736,48.4536082 C398.092014,48.4536082 395.937837,49.0012887 393.783659,49.5489691 C391.629481,50.0966495 390.013848,51.7396907 388.398215,53.382732 C386.782582,55.0257732 385.705493,56.6688144 384.628404,58.8595361 C383.551316,61.0502577 383.012771,63.7886598 382.474227,65.9793814 L418.556701,65.9793814 C418.018157,61.0502577 415.863979,56.6688144 412.632713,52.8350515 C409.401446,50.0966495 405.631636,48.4536082 400.784736,48.4536082 Z M489.809219,34.0206186 C492.036971,34.0206186 494.264723,34.0206186 496.492475,34.5751328 C498.163289,35.129647 500.391042,35.6841612 502.061856,36.2386754 L498.163289,51.2105592 C496.492475,50.1015308 494.264723,49.5470166 492.593909,48.9925023 C490.366157,48.4379881 488.695343,48.4379881 486.467591,48.4379881 C484.239839,48.4379881 482.012087,48.9925023 479.784335,49.5470166 C477.556583,50.1015308 475.885768,51.7650734 474.214954,53.4286161 C472.54414,55.0921587 471.430264,57.3102156 470.873326,59.5282724 C469.75945,62.3008435 469.75945,65.0734146 469.75945,67.8459856 L469.75945,107.216495 L453.608247,107.216495 L453.608247,35.129647 L469.202512,35.129647 L469.202512,43.4473602 C471.430264,40.1202749 474.214954,37.9022181 478.113521,36.2386754 C481.455149,34.5751328 485.910653,34.0206186 489.809219,34.0206186 L489.809219,34.0206186 Z M542.737047,35.1965504 C547.674882,35.1965504 553.161365,36.2868619 557.550551,37.9223292 C561.939737,39.5577965 565.780275,42.8287311 569.072165,46.0996656 L559.196496,56.4576251 C557.001903,54.2770021 554.258661,52.6415348 551.51542,51.0060675 C548.772178,49.915756 545.480288,48.8254445 542.188399,48.8254445 C539.445157,48.8254445 536.701916,49.3706002 533.958674,50.4609117 C531.215433,51.5512233 529.02084,53.1866906 527.374895,55.3673136 C525.180302,57.5479367 524.083005,59.7285597 522.985709,62.4543385 C520.791115,68.4510519 520.791115,74.9929211 522.985709,80.9896345 C524.083005,83.7154133 525.72895,85.8960364 527.374895,88.0766594 C529.02084,90.2572825 531.764081,91.8927498 533.958674,92.4379055 C536.701916,93.5282171 539.445157,94.0733728 542.188399,94.0733728 C545.480288,94.0733728 548.772178,93.5282171 551.51542,91.8927498 C554.258661,90.2572825 557.001903,88.6218152 559.196496,86.4411921 L568.523517,97.3443074 C565.231627,101.160398 561.391089,103.886177 557.001903,105.521644 C552.064068,107.702267 547.126233,108.247423 542.188399,108.247423 C536.701916,108.247423 531.764081,107.157111 526.826247,105.521644 C518.047874,102.250709 510.915446,94.6185286 507.623556,85.8960364 C504.331667,76.6283884 504.331667,65.7252731 507.623556,56.4576251 C510.915446,47.7351329 518.047874,40.648108 526.826247,36.8320177 C532.31273,35.7417061 537.250564,34.6513946 542.737047,35.1965504 L542.737047,35.1965504 Z M651.546392,108.111972 L636.280213,108.111972 L636.280213,99.8720746 C633.554109,103.168034 630.828006,105.36534 627.011461,107.562646 C623.194916,109.759952 618.28793,110.309278 613.926165,110.309278 C604.657413,110.309278 595.388662,106.463993 588.846014,99.8720746 C585.574689,96.5761156 582.848586,92.1815035 581.212924,87.7868914 C577.396379,77.8990142 577.396379,67.4618105 581.212924,57.5739333 C582.848586,53.1793212 585.574689,49.3340357 588.846014,45.4887501 C595.388662,38.896832 604.657413,35.0515464 613.926165,35.0515464 C618.28793,35.0515464 622.649696,36.1501994 627.011461,37.7981789 C630.828006,39.4461585 633.554109,42.192791 636.280213,45.4887501 L636.280213,36.6995259 L651.546392,36.6995259 L651.546392,108.111972 Z M615.463918,48.4536082 C612.133228,48.4536082 609.357653,49.006789 606.582078,50.1131506 C603.806503,51.2195122 601.586043,52.8790546 599.920698,55.0917777 C598.255353,57.3045009 596.590008,59.517224 595.479778,62.283128 C593.259318,67.8149359 593.259318,74.4531054 595.479778,79.9849133 C596.590008,82.7508172 597.700238,84.9635404 599.920698,87.1762635 C601.586043,89.3889867 604.361618,91.048529 606.582078,92.1548906 C612.133228,94.3676138 618.794607,94.3676138 624.345757,92.1548906 C627.121332,91.048529 629.341792,89.3889867 631.007137,87.1762635 C632.672482,84.9635404 634.337827,82.7508172 635.448057,79.9849133 C637.668517,73.8999246 637.668517,67.8149359 635.448057,61.7299472 C634.337827,58.9640432 632.672482,56.7513201 631.007137,54.5385969 C629.341792,52.3258738 626.566217,50.6663314 624.345757,49.5599698 C621.570182,49.006789 618.794607,48.4536082 615.463918,48.4536082 L615.463918,48.4536082 Z M710.549029,34.0206186 C712.754735,34.0206186 714.960441,34.0206186 717.166147,34.5709635 C718.820427,35.1213084 721.026133,35.6716534 722.680412,36.2219983 L718.820427,51.6316565 C717.166147,50.5309666 714.960441,49.9806217 713.306162,49.4302767 C711.100456,48.8799318 709.446176,48.8799318 707.24047,48.8799318 C705.034764,48.8799318 702.829058,49.4302767 700.623352,49.9806217 C698.417646,50.5309666 696.763366,52.1820014 695.109087,53.8330362 C693.454807,55.484071 692.351954,57.6854507 691.800527,59.8868305 C690.697674,62.6385552 690.697674,65.3902798 690.697674,68.1420045 L690.697674,107.216495 L675.257732,107.216495 L675.257732,35.6716534 L690.697674,35.6716534 L690.697674,43.9268274 C692.90338,40.6247578 695.660513,37.8730331 699.520499,36.7723432 C702.277631,34.5709635 706.689043,34.0206186 710.549029,34.0206186 L710.549029,34.0206186 Z M761.348845,34.0465213 C765.710611,34.0465213 770.072376,35.1447961 774.434142,36.7922085 C778.250686,38.4396208 780.97679,41.185308 783.702893,44.4801326 L783.702893,0 L798.969072,0 L798.969072,107.081801 L783.702893,107.081801 L783.702893,98.8447392 C780.97679,102.139564 778.250686,104.336114 774.434142,106.532663 C770.617597,108.729213 765.710611,109.278351 761.348845,109.278351 C752.080094,109.278351 742.811342,105.434388 736.268694,98.8447392 C732.99737,95.5499145 730.271266,91.156815 728.635604,86.7637155 C724.81906,76.8792416 724.81906,66.4456302 728.635604,56.5611563 C730.271266,52.1680568 732.99737,48.3240947 736.268694,44.4801326 C742.811342,37.3413459 751.534873,34.0465213 761.348845,34.0465213 L761.348845,34.0465213 Z M762.612554,49.7125194 C759.324025,49.7125194 756.583583,50.2629199 753.843142,51.363721 C751.102701,52.464522 748.910348,54.1157235 747.266084,56.3173255 C745.621819,58.5189275 743.977554,60.7205295 742.881378,63.4725321 C740.689025,68.9765371 740.689025,75.5813432 742.881378,81.0853482 C743.977554,83.8373507 745.073731,86.0389527 747.266084,88.2405548 C748.910348,90.4421568 751.65079,92.0933583 753.843142,93.1941593 C759.324025,95.3957613 765.901083,95.3957613 771.381965,93.1941593 C774.122406,92.0933583 776.314759,90.4421568 777.959024,88.2405548 C780.151377,86.0389527 781.795641,83.2869502 782.891818,80.5349477 C785.084171,74.4805421 785.084171,68.4261366 782.891818,62.371731 C781.795641,59.6197285 780.151377,57.4181265 778.507112,55.2165245 C776.862847,53.0149225 774.122406,51.363721 771.930054,50.2629199 C768.641524,49.7125194 765.901083,49.1621189 762.612554,49.7125194 L762.612554,49.7125194 Z" id="Shape" fill="#EB001B"></path>
            </g>
        </g>
    </g>
</svg>