<?xml version="1.0" encoding="UTF-8"?>
<svg width="980px" height="680px" viewBox="0 0 980 680" version="1.1" xmlns="http://www.w3.org/2000/svg" xmlns:xlink="http://www.w3.org/1999/xlink">
    <title>WW Mastercard+VISA</title>
    <defs>
        <linearGradient x1="50%" y1="0%" x2="50%" y2="100%" id="linearGradient-1">
            <stop stop-color="#FFFFFF" offset="0%"></stop>
            <stop stop-color="#EDEDED" offset="100%"></stop>
        </linearGradient>
        <rect id="path-2" x="0" y="0" width="900" height="600" rx="80"></rect>
        <filter x="-6.7%" y="-10.0%" width="113.3%" height="120.0%" filterUnits="objectBoundingBox" id="filter-4">
            <feMorphology radius="2.5" operator="dilate" in="SourceAlpha" result="shadowSpreadOuter1"></feMorphology>
            <feOffset dx="0" dy="0" in="shadowSpreadOuter1" result="shadowOffsetOuter1"></feOffset>
            <feGaussianBlur stdDeviation="17.5" in="shadowOffsetOuter1" result="shadowBlurOuter1"></feGaussianBlur>
            <feColorMatrix values="0 0 0 0 0   0 0 0 0 0   0 0 0 0 0  0 0 0 0.5 0" type="matrix" in="shadowBlurOuter1"></feColorMatrix>
        </filter>
    </defs>
    <g id="WW-Mastercard+VISA" stroke="none" stroke-width="1" fill="none" fill-rule="evenodd">
        <g transform="translate(40, 40)">
            <mask id="mask-3" fill="white">
                <use xlink:href="#path-2"></use>
            </mask>
            <g id="Rectangle">
                <use fill="black" fill-opacity="1" filter="url(#filter-4)" xlink:href="#path-2"></use>
                <use fill="url(#linearGradient-1)" fill-rule="evenodd" xlink:href="#path-2"></use>
            </g>
            <rect id="Rectangle" fill="#1434CB" mask="url(#mask-3)" transform="translate(601.9723, 541.0277) rotate(-34) translate(-601.9723, -541.0277)" x="78.4723484" y="241.027652" width="1047" height="600"></rect>
            <g id="Logo" mask="url(#mask-3)" fill="#FFFFFF" fill-rule="nonzero">
                <g transform="translate(341, 385)" id="path3789">
                    <path d="M331.530202,0 C295.389308,0 263.092057,18.7416568 263.092057,53.3683063 C263.092057,93.078535 320.372459,95.821304 320.372459,115.770621 C320.372459,124.170431 310.750963,131.689579 294.317835,131.689579 C270.996016,131.689579 253.565212,121.18307 253.565212,121.18307 L246.106829,156.125183 C246.106829,156.125183 266.186787,165 292.846045,165 C332.359612,165 363.452092,145.338135 363.452092,110.119392 C363.452092,68.1583711 305.933026,65.4971174 305.933026,46.9808243 C305.933026,40.4007764 313.831447,33.1910305 330.217527,33.1910305 C348.706006,33.1910305 363.790208,40.8321278 363.790208,40.8321278 L371.089482,7.08393778 C371.089482,7.08393778 354.676566,0 331.530202,0 L331.530202,0 Z M0.875117181,2.54703753 L0,7.64110241 C0,7.64110241 15.2045761,10.4251363 28.8987569,15.9786555 C46.5311603,22.3468993 47.7872179,26.0541595 50.7567992,37.5687438 L83.1162462,162.373374 L126.494218,162.373374 L193.32135,2.54703753 L150.042825,2.54703753 L107.102414,111.21382 L89.5801791,19.1027535 C87.9732371,8.56071459 79.8335632,2.54703753 69.8701561,2.54703753 L0.875117181,2.54703753 Z M210.724248,2.54703753 L176.77368,162.373374 L218.043413,162.373374 L251.87465,2.54703753 L210.724248,2.54703753 Z M440.899965,2.54703753 C430.948323,2.54703753 425.675592,7.87754309 421.8065,17.1924741 L361.343854,162.373374 L404.62238,162.373374 L412.995659,138.176556 L465.721474,138.176556 L470.813064,162.373374 L509,162.373374 L475.685875,2.54703753 L440.899965,2.54703753 L440.899965,2.54703753 Z M446.528562,45.727209 L459.356987,105.701882 L424.988743,105.701882 L446.528562,45.727209 L446.528562,45.727209 Z"></path>
                </g>
            </g>
            <g id="Logo" mask="url(#mask-3)">
                <g transform="translate(50, 50)" id="Group" fill-rule="nonzero">
                    <rect id="rect19" fill="#FF5A00" x="145.716573" y="26.4611689" width="108.246597" height="194.47558"></rect>
                    <path d="M152.922338,123.698959 C152.922338,84.1873499 171.497198,49.1192954 200,26.4611689 C179.023219,9.96797438 152.56205,0 123.698959,0 C55.3242594,0 0,55.3242594 0,123.698959 C0,192.073659 55.3242594,247.397918 123.698959,247.397918 C152.56205,247.397918 179.023219,237.429944 200,220.936749 C171.457166,198.598879 152.922338,163.210568 152.922338,123.698959 Z" id="XMLID_330_" fill="#EB001B"></path>
                    <path d="M400,123.698959 C400,192.073659 344.675741,247.397918 276.301041,247.397918 C247.43795,247.397918 220.976781,237.429944 200,220.936749 C228.86309,198.238591 247.077662,163.210568 247.077662,123.698959 C247.077662,84.1873499 228.502802,49.1192954 200,26.4611689 C220.936749,9.96797438 247.397918,0 276.261009,0 C344.675741,0 400,55.6845476 400,123.698959 Z" id="path22" fill="#F79E1B"></path>
                </g>
            </g>
        </g>
    </g>
</svg>