<?xml version="1.0" encoding="UTF-8"?>
<svg width="980px" height="680px" viewBox="0 0 980 680" version="1.1" xmlns="http://www.w3.org/2000/svg" xmlns:xlink="http://www.w3.org/1999/xlink">
    <title>WW paysafecard</title>
    <defs>
        <linearGradient x1="50%" y1="0%" x2="50%" y2="100%" id="linearGradient-1">
            <stop stop-color="#FFFFFF" offset="0%"></stop>
            <stop stop-color="#EDEDED" offset="100%"></stop>
        </linearGradient>
        <rect id="path-2" x="0" y="-2.84217094e-14" width="900" height="600" rx="80"></rect>
        <filter x="-6.7%" y="-10.0%" width="113.3%" height="120.0%" filterUnits="objectBoundingBox" id="filter-3">
            <feMorphology radius="2.5" operator="dilate" in="SourceAlpha" result="shadowSpreadOuter1"></feMorphology>
            <feOffset dx="0" dy="0" in="shadowSpreadOuter1" result="shadowOffsetOuter1"></feOffset>
            <feGaussianBlur stdDeviation="17.5" in="shadowOffsetOuter1" result="shadowBlurOuter1"></feGaussianBlur>
            <feColorMatrix values="0 0 0 0 0   0 0 0 0 0   0 0 0 0 0  0 0 0 0.5 0" type="matrix" in="shadowBlurOuter1"></feColorMatrix>
        </filter>
    </defs>
    <g id="WW-paysafecard" stroke="none" stroke-width="1" fill="none" fill-rule="evenodd">
        <g transform="translate(40, 40)">
            <g id="Rectangle">
                <use fill="black" fill-opacity="1" filter="url(#filter-3)" xlink:href="#path-2"></use>
                <use fill="url(#linearGradient-1)" fill-rule="evenodd" xlink:href="#path-2"></use>
            </g>
            <g id="Logo" transform="translate(50, 232)" fill-rule="nonzero">
                <path d="M144.108087,60.5481463 C144.018306,57.7732236 142.709943,56.3408583 140.170171,56.2467946 L126.603388,56.2467946 C123.392342,56.4434772 121.733363,58.2050654 121.656401,61.5187308 L121.656401,85.9201324 C121.733363,89.34069 123.567649,91.0851765 127.133576,91.1835135 L139.567295,91.1835135 C140.858564,91.1835135 141.931759,90.7046398 142.786905,89.7255 C143.680519,88.9900834 144.108087,88.0451557 144.108087,86.8736153 L144.108087,60.5481463 Z M104.237219,57.0848301 C104.32701,50.9791403 105.686677,46.3400018 108.324787,43.1674407 C109.705829,41.8376943 111.433214,40.7260142 113.536854,39.8067434 C115.721746,38.8276036 117.838205,38.3530032 119.89054,38.3530032 L144.792199,38.3530032 C155.776468,38.4470669 161.360526,44.4544197 161.535825,56.3878901 L161.535825,93.1161274 C161.454598,97.3533455 159.79562,101.030446 156.588847,104.10467 C153.412004,107.3371 149.619465,108.983241 145.202666,109.081587 L121.656401,109.081587 L121.656401,135.560971 L104.237219,135.560971 L104.237219,57.0848301" id="path2491" fill="#008AC9"></path>
                <path d="M192.979306,87.6389621 C192.979306,88.6608517 193.449625,89.4689571 194.368913,90.0761066 C195.189847,90.8029767 196.224556,91.1835135 197.532919,91.1835135 L210.911583,91.1835135 C213.934502,91.1835135 215.503672,90.011973 215.593463,87.6389621 L215.593463,82.6449524 C215.593463,79.9170528 213.998627,78.5402834 210.783307,78.5402834 L197.532919,78.5402834 C195.788432,78.5402834 194.582688,78.8310297 193.911405,79.3783189 C193.291427,80.023945 192.979306,81.3023776 192.979306,83.1965149 L192.979306,87.6389621 Z M215.593463,60.1163044 C215.683253,57.4397187 214.122621,56.1612774 210.907301,56.2467946 L175.825205,56.2467946 L175.825205,38.3530032 L215.3241,38.3530032 C226.830002,38.5411306 232.670602,44.0995399 232.867276,55.0752542 L232.867276,92.5089779 C232.768939,97.2421801 231.319481,101.145893 228.506073,104.250048 C225.564398,107.465367 221.771841,109.081587 217.124165,109.081587 L193.248678,109.081587 C181.627328,108.983241 175.735423,103.677102 175.555842,93.1289558 L175.555842,78.6856521 C175.645632,67.662906 181.276722,62.0617468 192.423462,61.8693374 L215.593463,61.8693374 L215.593463,60.1163044" id="path2493" fill="#008AC9"></path>
                <path d="M281.789809,117.662907 C283.170851,117.577398 284.368049,117.081414 285.338633,116.192065 C286.270741,115.362584 286.74106,114.409093 286.74106,113.327351 L286.74106,109.081587 L264.439024,109.081587 C261.531553,109.081587 259.205574,108.709597 257.469651,107.969898 C255.635365,107.298615 253.809652,106.045839 251.971102,104.267149 C250.23088,102.381567 248.978104,100.410468 248.217031,98.349587 C247.426027,96.4639962 247.024115,94.065337 247.024115,91.1835135 L247.024115,38.3530032 L264.439024,38.3530032 L264.439024,85.5139388 C264.439024,89.2936581 265.982555,91.1835135 269.108093,91.1835135 L281.40499,91.1835135 C282.867285,91.1835135 284.137171,90.7046398 285.201811,89.7255 C286.227974,88.8960197 286.74106,87.9126067 286.74106,86.7581679 L286.74106,38.3530032 L304.014873,38.3530032 L304.014873,116.290402 C303.916536,122.058331 302.437148,126.676086 299.585263,130.17787 C296.690611,133.679662 292.731311,135.471181 287.681723,135.560971 L247.024115,135.560971 L247.024115,117.662907 L281.789809,117.662907" id="path2495" fill="#008AC9"></path>
                <path d="M317.692839,91.1835135 L348.730126,91.1835135 C351.569183,91.0851765 353.044298,89.9478395 353.13408,87.7672291 L353.13408,86.1595737 C353.13408,85.6935197 352.992993,85.1761606 352.719348,84.6203162 C352.02669,83.2692036 351.175817,82.5979118 350.162474,82.5979118 L334.774252,82.5979118 C330.207802,82.5081214 326.312644,80.9346693 323.037455,77.8989217 C319.723798,75.0940689 318.026344,71.6435812 317.927998,67.5944992 L317.927998,54.2500471 C318.10757,43.8387237 323.764325,38.5411306 334.906792,38.3530032 L370.903886,38.3530032 L370.903886,56.2467946 L340.405341,56.2467946 C336.826586,56.2467946 335.022239,57.3456462 335.022239,59.5348031 L335.022239,61.2664612 C335.022239,63.536862 336.865054,64.6741903 340.537881,64.6741903 L355.87909,64.6741903 C359.966648,64.7682627 363.451348,66.3331683 366.354547,69.3860088 C369.287675,72.4602418 370.809813,76.1159585 370.903886,80.3617231 L370.903886,93.4154289 C370.809813,97.0839741 369.112368,100.743973 365.850007,104.395416 C364.259453,106.186935 362.630405,107.418336 361.001366,108.115276 C359.31674,108.756628 357.029246,109.081587 354.108946,109.081587 L317.692839,109.081587 L317.692839,91.1835135" id="path2497" fill="#008AC9"></path>
                <path d="M400.709764,87.6389621 C400.709764,88.6608517 401.180083,89.4689571 402.120746,90.0761066 C402.933133,90.8029767 403.972124,91.1835135 405.263377,91.1835135 L418.667698,91.1835135 C421.690617,91.1835135 423.25124,90.011973 423.341031,87.6389621 L423.341031,82.6449524 C423.341031,79.9170528 421.72482,78.5402834 418.52232,78.5402834 L405.263377,78.5402834 C403.523172,78.5402834 402.321702,78.8310297 401.654692,79.3783189 C401.034714,80.023945 400.709764,81.3023776 400.709764,83.1965149 L400.709764,87.6389621 Z M423.341031,60.1163044 C423.417993,57.4397187 421.857361,56.1612774 418.637759,56.2467946 L383.564218,56.2467946 L383.564218,38.3530032 L423.075933,38.3530032 C434.569006,38.5411306 440.413889,44.0995399 440.593469,55.0752542 L440.593469,92.5089779 C440.499397,97.2421801 439.03711,101.145893 436.240813,104.250048 C433.320513,107.465367 429.523691,109.081587 424.871733,109.081587 L400.974853,109.081587 C389.362068,108.983241 383.465881,103.677102 383.303402,93.1289558 L383.303402,78.6856521 C383.380372,67.662906 389.00718,62.0617468 400.162475,61.8693374 L423.341031,61.8693374 L423.341031,60.1163044" id="path2499" fill="#008AC9"></path>
                <path d="M454.754573,28.2067779 C454.861466,23.3752387 456.640155,19.4971824 460.12912,16.5897107 C463.515474,13.6351984 467.962194,12.1173246 473.460743,12.0318161 L484.521975,12.0318161 L484.521975,29.318458 L477.821964,29.318458 C474.14059,29.4039665 472.263555,31.1655547 472.182311,34.5690106 L472.182311,38.3572764 L484.521975,38.3572764 L484.521975,56.2681783 L472.182311,56.2681783 L472.182311,109.090133 L454.754573,109.090133 L454.754573,28.2067779" id="path2501" fill="#008AC9"></path>
                <path d="M534.060195,59.7827995 L534.060195,59.3680506 C534.060195,58.4487799 533.688213,57.6663227 532.939959,57.0848301 C532.12759,56.5204392 531.13563,56.2467946 529.942706,56.2467946 L517.816826,56.2467946 C516.260476,56.2467946 515.007691,56.6829184 514.037107,57.576541 C512.831363,58.401748 512.21994,59.4877712 512.21994,60.8260641 L512.21994,68.0092393 L534.060195,59.7827995 Z M512.497858,85.0778237 L512.497858,86.193777 C512.497858,87.6261336 512.869848,88.7634706 513.62664,89.5886777 C514.173929,90.6447795 514.909354,91.1835135 515.888485,91.1835135 L551.671804,91.1835135 L551.671804,109.081587 L513.62664,109.081587 C510.154777,109.081587 507.448261,108.756628 505.537031,108.10672 C503.446211,107.418336 501.569184,106.293827 499.931581,104.728921 C498.016069,102.834793 496.711988,100.906452 496.057807,98.9225244 C495.339483,96.8530881 494.984603,94.1080956 494.984603,90.6875381 L494.834953,54.8700251 C495.027371,44.0482348 500.679835,38.5411306 511.788098,38.3530032 L535.27022,38.3530032 C546.117668,38.5411306 551.611943,44.2406354 551.787251,55.4814479 L551.787251,69.6297233 L512.497858,85.0778237" id="path2503" fill="#008AC9"></path>
                <path d="M588.660857,109.081587 C586.022748,109.081587 583.615534,108.837864 581.43065,108.393193 C579.143148,108.021212 576.8642,106.960837 574.533939,105.169318 C572.143835,103.087054 570.489139,100.752528 569.582697,98.1742793 C568.624941,95.6387891 568.16316,92.7655208 568.16316,89.5330994 L568.16316,56.1356292 C568.064823,53.4120116 568.338468,51.0218902 568.975539,48.9481807 C569.561313,46.8787445 570.792714,44.8520669 572.652648,42.8681391 C574.773398,40.7858745 576.936898,39.4005498 579.220118,38.7207115 C581.417822,38.169149 583.893452,37.8912312 586.668374,37.8912312 L613.365834,37.8912312 L613.365834,42.0771355 L587.288352,42.0771355 C582.683426,42.0771355 579.066186,43.0220631 576.41953,44.9162004 C573.713005,46.9813634 572.331971,50.5430165 572.331971,55.5626831 L572.331971,88.9815282 C572.331971,91.3331642 572.691124,93.6206667 573.405175,95.8269253 C574.136309,97.9946984 575.354873,99.8973822 577.103642,101.560633 C579.002052,103.001545 580.891916,103.899441 582.734731,104.267149 C584.654525,104.690445 586.715406,104.891401 588.900281,104.891401 L613.784847,104.891401 L613.784847,109.081587 L588.660857,109.081587" id="path2505" fill="#008AC9"></path>
                <path d="M682.029245,65.751667 L647.028384,65.751667 C642.838207,65.8457394 639.554472,67.1412737 637.190007,69.6382785 C634.744316,72.1737687 633.53429,75.6499046 633.53429,80.0667036 L633.53429,90.7260147 C633.53429,92.7911777 633.748075,94.681033 634.192745,96.3827609 C634.633151,98.1742793 635.732002,99.7733883 637.467934,101.145893 C640.490853,103.651445 643.838722,104.891401 647.49872,104.891401 L668.706177,104.891401 C677.569697,104.797337 682.029245,100.128277 682.029245,90.8585638 L682.029245,65.751667 Z M686.189502,89.8152904 C686.189502,92.5047046 685.984273,94.8648872 685.63793,96.9428786 C685.073548,99.2004422 683.914828,101.376779 682.157513,103.446216 C678.501796,107.298615 673.969567,109.175651 668.5608,109.081587 L647.750981,109.081587 C642.342223,109.081587 637.959636,107.465367 634.564744,104.250048 C631.097146,101.073205 629.339831,96.6564055 629.339831,90.9911041 L629.339831,80.2249008 C629.51513,68.0776461 635.56525,61.856509 647.485883,61.5743179 L682.157513,61.5743179 L682.157513,56.8624993 C682.157513,52.980161 681.033013,49.5809872 678.796815,46.656405 C677.377287,44.7579945 675.696934,43.4881171 673.789977,42.8339358 C671.861637,42.3294052 669.698137,42.0771355 667.286649,42.0771355 L629.463833,42.0771355 L629.463833,37.8912312 L665.319823,37.8912312 C668.599276,37.8912312 671.562344,38.1221172 674.247476,38.5753427 C675.628527,38.8489873 676.881303,39.3877213 678.040015,40.1658965 C679.267151,40.9055951 680.413026,41.987345 681.473401,43.4068819 C684.68873,47.5543008 686.257908,52.3388081 686.189502,57.726183 L686.189502,89.8152904" id="path2507" fill="#008AC9"></path>
                <path d="M725.329226,42.0771355 C715.623398,42.2567164 710.838891,47.5543008 711.018472,57.9784527 L711.018472,109.081587 L706.849669,109.081587 L706.849669,57.9955544 C706.652987,44.5869688 713.036603,37.8912312 726.00051,37.8912312 L730.635375,37.8912312 L730.635375,42.0771355 L725.329226,42.0771355" id="path2509" fill="#008AC9"></path>
                <path d="M795.835471,42.0985104 L762.844194,42.0985104 C760.466901,42.0985104 758.337605,42.3636086 756.417819,42.8681391 C754.408243,43.3213647 752.467074,44.5399369 750.649908,46.5238647 C748.909703,48.3324848 747.815125,50.1239944 747.357617,51.9155128 C746.746194,53.7241329 746.468277,55.8919148 746.566613,58.4188497 L746.566613,90.9996593 C746.566613,96.4169643 748.135801,100.10262 751.316917,102.082266 C752.886096,103.001545 754.609199,103.68993 756.541822,104.151702 C758.46588,104.664788 760.61227,104.917057 762.976743,104.917057 L777.402945,104.917057 C782.79032,104.917057 787.198564,103.677102 790.584918,101.175815 C793.988365,98.8284607 795.720023,94.7793787 795.835471,89.0071851 L795.835471,42.0985104 Z M800,89.2936581 C799.632292,102.779206 792.496148,109.389435 778.595861,109.111508 L763.130667,109.111508 C759.864034,109.111508 756.943733,108.825044 754.361211,108.282028 C751.701727,107.593643 749.157691,105.973151 746.707718,103.446216 C744.864894,101.175815 743.680525,98.8797658 743.205916,96.5281385 C742.568837,94.1807756 742.290919,91.5683322 742.389264,88.7164388 L742.389264,58.3119576 C742.568837,44.6168989 749.465539,37.8099872 763.096464,37.9126061 L795.835471,37.9126061 L795.835471,14.8281225 L800,14.8281225 L800,89.2936581" id="path2511" fill="#008AC9"></path>
                <path d="M7.47819477,35.663589 C8.84641779,35.0607215 10.2146408,34.5903943 11.5828638,34.295366 C14.0969703,22.2892068 24.7306333,13.2845918 37.4764823,13.2845918 C50.2308865,13.2845918 60.8688227,22.3020352 63.378656,34.3039212 C67.2909157,35.047893 70.5276191,36.6299003 73.0502808,38.9858096 C73.1528997,36.6812054 73.0588361,34.4621184 72.7851914,32.3713073 C71.173254,14.2338014 55.9645948,0 37.420904,0 C18.3299152,0 2.78775112,15.1316972 1.97964577,34.0473783 C1.86848038,35.6806907 1.834277,37.3824186 1.8941373,39.1611085 C3.49751955,37.8099872 5.32752331,36.5956882 7.47819477,35.663589" id="path2513" fill="#E3001B"></path>
                <path d="M58.2007834,38.3530032 L15.6576027,38.3530032 C13.6095414,38.3530032 11.4888001,38.8276036 9.30391654,39.8067434 C7.19599494,40.7260142 5.46861885,41.8376943 4.08329413,43.1674407 C1.44518502,46.3400018 0.0940636908,50.9791403 0,57.0848301 L0,90.3412047 C0.0940636908,96.4597229 1.44518502,101.09458 4.08329413,104.250048 C5.46861885,105.601169 7.19599494,106.712849 9.30391654,107.640675 C11.4888001,108.598431 13.6095414,109.081587 15.6576027,109.081587 L58.2007834,109.081587 C69.1893262,108.983241 74.7776657,102.954505 74.9529646,91.0381447 L74.9529646,56.3878901 C74.7776657,44.4544197 69.1893262,38.4470669 58.2007834,38.3530032" id="path2515" fill="#E3001B"></path>
            </g>
        </g>
    </g>
</svg>