<?xml version="1.0" encoding="UTF-8"?>
<svg width="980px" height="680px" viewBox="0 0 980 680" version="1.1" xmlns="http://www.w3.org/2000/svg" xmlns:xlink="http://www.w3.org/1999/xlink">
    <title>WW PayPal PLUS</title>
    <defs>
        <linearGradient x1="50%" y1="0%" x2="50%" y2="100%" id="linearGradient-1">
            <stop stop-color="#FFFFFF" offset="0%"></stop>
            <stop stop-color="#EDEDED" offset="100%"></stop>
        </linearGradient>
        <rect id="path-2" x="2.84217094e-14" y="0" width="900" height="600" rx="80"></rect>
        <filter x="-6.7%" y="-10.0%" width="113.3%" height="120.0%" filterUnits="objectBoundingBox" id="filter-3">
            <feMorphology radius="2.5" operator="dilate" in="SourceAlpha" result="shadowSpreadOuter1"></feMorphology>
            <feOffset dx="0" dy="0" in="shadowSpreadOuter1" result="shadowOffsetOuter1"></feOffset>
            <feGaussianBlur stdDeviation="17.5" in="shadowOffsetOuter1" result="shadowBlurOuter1"></feGaussianBlur>
            <feColorMatrix values="0 0 0 0 0   0 0 0 0 0   0 0 0 0 0  0 0 0 0.5 0" type="matrix" in="shadowBlurOuter1"></feColorMatrix>
        </filter>
    </defs>
    <g id="WW-PayPal-PLUS" stroke="none" stroke-width="1" fill="none" fill-rule="evenodd">
        <g transform="translate(40, 40)">
            <g id="Rectangle">
                <use fill="black" fill-opacity="1" filter="url(#filter-3)" xlink:href="#path-2"></use>
                <use fill="url(#linearGradient-1)" fill-rule="evenodd" xlink:href="#path-2"></use>
            </g>
            <g id="Logo" transform="translate(50.4145, 146.4134)" fill-rule="nonzero">
                <path d="M31.6252628,0 C29.3005217,0 27.3259927,1.68768865 26.9624392,3.98574691 L0.0528107062,174.639086 C-0.145070817,175.900631 0.218834454,177.185605 1.04881817,178.156058 C1.87880188,179.12651 3.09178822,179.685476 4.36875757,179.685476 L36.2814157,179.685476 C38.6028214,179.685476 40.5806858,177.994452 40.9442393,175.699729 L48.849026,125.586049 C49.2092442,123.291326 51.1871085,121.600302 53.5118496,121.600302 L82.5260859,121.600302 C116.426614,121.600302 145.204041,96.8653237 150.460557,63.3483607 C155.760433,29.5478928 129.354443,0.0733777674 91.9284462,0 L31.6252628,0 Z M62.6473817,38.0964027 L85.861439,38.0964027 C104.973012,38.0964027 111.196781,49.3732314 109.228923,61.8441165 C107.261064,74.3416844 97.5952111,83.5472589 79.107349,83.5472589 L55.4797079,83.5472589 L62.6473817,38.0964027 Z M215.366528,49.6963415 C207.308315,49.7267788 198.036033,51.3777786 187.626396,55.7137376 C163.748604,65.6664311 152.28166,86.2355535 147.412044,101.231301 C147.412044,101.231301 131.912659,146.982339 166.930531,172.11756 C166.930531,172.11756 199.406863,196.315546 235.965668,170.626657 L235.335287,174.639086 C235.137584,175.89948 235.500638,177.183325 236.329124,178.153526 C237.157611,179.123727 238.368759,179.683357 239.644563,179.685476 L269.939575,179.685476 C272.264316,179.685476 274.238845,177.994452 274.602398,175.699729 L293.030224,58.835628 C293.230087,57.5741949 292.868025,56.2884655 292.039287,55.3166873 C291.21055,54.344909 289.998115,53.7843818 288.720948,53.7825682 L258.425936,53.7825682 C256.101195,53.7825682 254.12333,55.4735922 253.763112,57.7683151 L252.772512,64.0587909 C252.772512,64.0587909 239.541167,49.6067061 215.363192,49.6963415 L215.366528,49.6963415 Z M216.357128,86.609113 C219.835901,86.609113 223.017828,87.0894038 225.87289,88.0066259 C238.944139,92.2025001 246.355293,104.760104 244.210661,118.37168 C241.565726,135.131829 227.820736,147.472636 210.193395,147.472636 C206.717957,147.472636 203.53603,146.99568 200.677633,146.078458 C187.60972,141.882584 180.15187,129.32498 182.296502,115.713404 C184.941437,98.9532547 198.729787,86.6057777 216.357128,86.6057777 L216.357128,86.609113 Z" id="Shape" fill="#003087"></path>
                <path d="M467.889444,0 C465.564702,0 463.590173,1.68768865 463.22662,3.98574691 L436.316991,174.639086 C436.11911,175.900631 436.483015,177.185605 437.312999,178.156058 C438.142983,179.12651 439.355969,179.685476 440.632938,179.685476 L472.545596,179.685476 C474.867002,179.685476 476.844867,177.994452 477.20842,175.699729 L485.113207,125.586049 C485.473425,123.291326 487.451289,121.600302 489.77603,121.600302 L518.790267,121.600302 C552.690795,121.600302 581.464886,96.8653237 586.718067,63.3483607 C592.021279,29.5478928 565.618624,0.0733777674 528.192627,0 L467.889444,0 Z M498.911562,38.0964027 L522.12562,38.0964027 C541.237193,38.0964027 547.460962,49.3732314 545.493103,61.8441165 C543.525245,74.3416844 533.862727,83.5472589 515.37153,83.5472589 L491.743889,83.5472589 L498.911562,38.0964027 Z M651.627373,49.6963415 C643.56916,49.7267788 634.296879,51.3777786 623.887242,55.7137376 C600.009449,65.6664311 588.542505,86.2355535 583.67289,101.231301 C583.67289,101.231301 568.180175,146.982339 603.198047,172.11756 C603.198047,172.11756 635.667709,196.315546 672.229849,170.626657 L671.599467,174.639086 C671.401586,175.900631 671.765491,177.185605 672.595475,178.156058 C673.425458,179.12651 674.638445,179.685304 675.915414,179.685476 L706.207091,179.685476 C708.531832,179.685476 710.506361,177.994452 710.869914,175.699729 L729.304411,58.835628 C729.504455,57.5730447 729.141543,56.2861836 728.311307,55.3141532 C727.481071,54.3421229 726.266796,53.782432 724.988464,53.7825682 L694.693452,53.7825682 C692.368711,53.7825682 690.390846,55.4735922 690.030628,57.7683151 L689.040028,64.0587909 C689.040028,64.0587909 675.808683,49.6067061 651.630708,49.6963415 L651.627373,49.6963415 Z M652.617973,86.609113 C656.096746,86.609113 659.278673,87.0894038 662.133735,88.0066259 C675.204984,92.2025001 682.616138,104.760104 680.471506,118.37168 C677.826571,135.131829 664.081581,147.472636 646.454241,147.472636 C642.978803,147.472636 639.796876,146.99568 636.938478,146.078458 C623.870565,141.882584 616.412715,129.32498 618.557347,115.713404 C621.202282,98.9532547 634.990632,86.6057777 652.617973,86.6057777 L652.617973,86.609113 Z" id="Shape" fill="#0070E0"></path>
                <path d="M307.405596,53.7825682 C305.004141,53.7825682 303.296441,56.1273214 304.030218,58.4120382 L337.243664,161.477783 L307.212145,210.047195 C305.754596,212.405289 307.448955,215.450467 310.220634,215.450467 L345.715461,215.450467 C347.779918,215.448665 349.693464,214.36858 350.76185,212.602075 L443.521354,59.1524866 C444.94555,56.794392 443.24452,53.7792328 440.489518,53.7792328 L404.998026,53.7792328 C402.912752,53.7810185 400.983105,54.8827683 399.921619,56.6776546 L363.409509,118.32165 L344.874952,57.134598 C344.271253,55.1433922 342.433473,53.7792328 340.355548,53.7792328 L307.405596,53.7825682 Z" id="Path" fill="#003087"></path>
                <path d="M763.725254,0 C761.403849,0 759.425984,1.691024 759.062431,3.98574691 L732.146131,174.632416 C731.946087,175.894999 732.308999,177.18186 733.139235,178.153891 C733.969471,179.125921 735.183746,179.685476 736.462078,179.685476 L768.374736,179.685476 C770.696142,179.685476 772.674007,177.994452 773.03756,175.699729 L799.947189,5.04638919 C800.144891,3.78599518 799.781837,2.50215057 798.953351,1.53194955 C798.124864,0.561748538 796.913716,0.00211872924 795.637912,0 L763.725254,0 Z" id="Path" fill="#0070E0"></path>
                <g id="PLUS" transform="translate(481.6155, 208.0866)" fill="#87858A">
                    <path d="M24.6231156,46.1055276 L32.7889447,46.1055276 C41.8341709,46.1055276 46.3567839,42.1691792 46.3567839,34.2964824 C46.3567839,26.4237856 41.8341709,22.4874372 32.7889447,22.4874372 L24.6231156,22.4874372 L24.6231156,46.1055276 Z M24.6231156,97.361809 L-5.95094419e-14,97.361809 L-5.95094419e-14,2.63819095 L39.1959799,2.63819095 C49.8324958,2.63819095 57.9773869,5.40201005 63.6306533,10.9296482 C69.2839196,16.4572864 72.1105528,24.2462312 72.1105528,34.2964824 C72.1105528,44.3467337 69.2839196,52.1356784 63.6306533,57.6633166 C57.9773869,63.1909548 49.8324958,65.9547739 39.1959799,65.9547739 L24.6231156,65.9547739 L24.6231156,97.361809 Z" id="Shape"></path>
                    <polygon id="Path" points="109.798995 2.63819095 109.798995 76.5075377 139.321608 76.5075377 139.321608 97.361809 85.1758794 97.361809 85.1758794 2.63819095"></polygon>
                    <path d="M174.874372,2.63819095 L174.874372,54.1457286 C174.874372,56.9095477 174.979062,59.7361809 175.188442,62.6256281 C175.397822,65.5150754 176.025963,68.1323283 177.072864,70.4773869 C178.119765,72.8224456 179.773869,74.7278057 182.035176,76.1934673 C184.296482,77.659129 187.479062,78.3919598 191.582915,78.3919598 C195.686767,78.3919598 198.848409,77.659129 201.067839,76.1934673 C203.28727,74.7278057 204.941374,72.8224456 206.030151,70.4773869 C207.118928,68.1323283 207.768007,65.5150754 207.977387,62.6256281 C208.186767,59.7361809 208.291457,56.9095477 208.291457,54.1457286 L208.291457,2.63819095 L232.788945,2.63819095 L232.788945,57.5376884 C232.788945,72.278057 229.417923,83.040201 222.675879,89.8241206 C215.933836,96.6080402 205.569514,100 191.582915,100 C177.596315,100 167.211055,96.6080402 160.427136,89.8241206 C153.643216,83.040201 150.251256,72.278057 150.251256,57.5376884 L150.251256,2.63819095 L174.874372,2.63819095 Z" id="Path"></path>
                    <path d="M304.648241,26.8844221 C301.968174,24.7068677 299.288107,23.0946399 296.60804,22.0477387 C293.927973,21.0008375 291.331658,20.4773869 288.819095,20.4773869 C285.636516,20.4773869 283.040201,21.2311558 281.030151,22.7386935 C279.020101,24.2462312 278.015075,26.2144054 278.015075,28.6432161 C278.015075,30.318258 278.517588,31.7001675 279.522613,32.7889447 C280.527638,33.8777219 281.846734,34.819933 283.479899,35.6155779 C285.113065,36.4112228 286.955611,37.1021776 289.007538,37.6884422 C291.059464,38.2747069 293.090452,38.9028476 295.100503,39.5728643 C303.140704,42.2529313 309.024288,45.8333333 312.751256,50.3140704 C316.478224,54.7948074 318.341709,60.6365159 318.341709,67.839196 C318.341709,72.6968174 317.525126,77.0938023 315.89196,81.0301508 C314.258794,84.9664992 311.871859,88.3375209 308.731156,91.1432161 C305.590452,93.9489112 301.737856,96.1264657 297.173367,97.6758794 C292.608878,99.2252931 287.437186,100 281.658291,100 C269.681742,100 258.58459,96.440536 248.366834,89.321608 L258.919598,69.4723618 C262.60469,72.7386935 266.247906,75.1675042 269.849246,76.758794 C273.450586,78.3500838 277.01005,79.1457286 280.527638,79.1457286 C284.547739,79.1457286 287.541876,78.2244556 289.51005,76.3819095 C291.478224,74.5393635 292.462312,72.4455611 292.462312,70.1005025 C292.462312,68.6767169 292.211055,67.4413735 291.708543,66.3944724 C291.20603,65.3475712 290.368509,64.3844221 289.19598,63.5050251 C288.023451,62.6256281 286.494975,61.8090452 284.610553,61.0552764 C282.726131,60.3015075 280.443886,59.4639866 277.763819,58.5427136 C274.58124,57.5376884 271.461474,56.4279732 268.404523,55.2135678 C265.347571,53.9991625 262.625628,52.3869347 260.238693,50.3768844 C257.851759,48.3668342 255.925461,45.8333333 254.459799,42.7763819 C252.994137,39.7194305 252.261307,35.8458961 252.261307,31.1557789 C252.261307,26.4656616 253.036013,22.2152429 254.585427,18.4045226 C256.134841,14.5938023 258.312395,11.3274707 261.11809,8.60552764 C263.923786,5.88358459 267.357621,3.76884422 271.419598,2.26130653 C275.481575,0.753768844 280.025126,0 285.050251,0 C289.740369,0 294.639866,0.649078727 299.748744,1.94723618 C304.857621,3.24539363 309.757119,5.15075377 314.447236,7.66331658 L304.648241,26.8844221 Z" id="Path"></path>
                </g>
            </g>
        </g>
    </g>
</svg>