<?xml version="1.0" encoding="UTF-8"?>
<svg width="980px" height="680px" viewBox="0 0 980 680" version="1.1" xmlns="http://www.w3.org/2000/svg" xmlns:xlink="http://www.w3.org/1999/xlink">
    <title>WW sumup text alt</title>
    <defs>
        <linearGradient x1="50%" y1="0%" x2="50%" y2="100%" id="linearGradient-1">
            <stop stop-color="#FFFFFF" offset="0%"></stop>
            <stop stop-color="#EDEDED" offset="100%"></stop>
        </linearGradient>
        <rect id="path-2" x="0" y="2.84217094e-14" width="900" height="600" rx="80"></rect>
        <filter x="-6.7%" y="-10.0%" width="113.3%" height="120.0%" filterUnits="objectBoundingBox" id="filter-4">
            <feMorphology radius="2.5" operator="dilate" in="SourceAlpha" result="shadowSpreadOuter1"></feMorphology>
            <feOffset dx="0" dy="0" in="shadowSpreadOuter1" result="shadowOffsetOuter1"></feOffset>
            <feGaussianBlur stdDeviation="17.5" in="shadowOffsetOuter1" result="shadowBlurOuter1"></feGaussianBlur>
            <feColorMatrix values="0 0 0 0 0   0 0 0 0 0   0 0 0 0 0  0 0 0 0.5 0" type="matrix" in="shadowBlurOuter1"></feColorMatrix>
        </filter>
    </defs>
    <g id="WW-sumup-text-alt" stroke="none" stroke-width="1" fill="none" fill-rule="evenodd">
        <g transform="translate(40, 40)">
            <mask id="mask-3" fill="white">
                <use xlink:href="#path-2"></use>
            </mask>
            <g id="Rectangle">
                <use fill="black" fill-opacity="1" filter="url(#filter-4)" xlink:href="#path-2"></use>
                <use fill="url(#linearGradient-1)" fill-rule="evenodd" xlink:href="#path-2"></use>
            </g>
            <g id="Logo" mask="url(#mask-3)" fill="#000000" fill-rule="nonzero">
                <g transform="translate(181.0712, 50)">
                    <path d="M390.985831,0 L146.713129,0 C135.672555,0 126.472077,9.20047842 126.472077,20.2410525 L126.472077,263.133683 C126.472077,274.174257 135.672555,283.374735 146.713129,283.374735 L390.985831,283.374735 C402.026405,283.374735 411.226884,274.174257 411.226884,263.133683 L411.226884,20.2410525 C411.226884,8.7404545 402.026405,0 390.985831,0 Z M304.961358,212.991076 C280.120066,237.832367 240.558009,238.752415 214.336646,216.211243 L213.876622,215.751219 C212.49655,214.371147 212.036526,211.611004 213.876622,209.770908 L302.201214,121.906339 C304.04131,120.526267 306.34143,120.526267 308.181525,121.906339 C331.182722,148.587727 330.262674,188.149784 304.961358,212.991076 Z M323.362315,72.6837796 L235.037722,160.548349 C233.197626,161.92842 230.897507,161.92842 229.057411,160.548349 C206.056215,134.326985 206.976263,94.7649278 231.817555,69.923636 C256.658846,45.0823443 296.220903,44.1622964 322.442267,66.7034686 C322.442267,66.7034686 322.902291,66.7034686 322.902291,67.1634925 C325.202411,68.5435643 325.202411,71.3037078 323.362315,72.6837796 Z" id="path10273"></path>
                    <path d="M42.7822247,362.912871 C30.3615788,357.852608 22.5411721,354.632441 22.5411721,347.272058 C22.5411721,341.291747 27.1414114,335.77146 37.7219615,335.77146 C44.1622964,335.77146 49.6825835,338.531604 53.8227988,344.051891 C56.5829423,347.272058 59.3430858,349.112154 62.5632533,349.112154 C69.0035882,349.112154 74.0638513,344.051891 74.0638513,338.07158 C74.0638513,335.77146 73.6038274,333.471341 72.2237556,332.091269 C65.3233968,321.510719 51.0626553,314.150336 37.7219615,314.150336 C19.3210047,314.150336 0.460023921,325.650934 0.460023921,347.732082 C0.460023921,370.273254 18.8609808,377.633637 34.0417702,383.153924 C46.0023921,387.754163 56.5829423,391.894379 56.5829423,401.554881 C56.5829423,408.915264 49.6825835,416.275646 36.8019137,416.275646 C32.6616984,416.275646 25.3013157,415.355598 20.2410525,409.375288 C17.480909,406.15512 14.2607416,404.775048 11.500598,404.775048 C5.52028705,404.775048 0,409.835311 0,415.815622 C0,418.115742 0.920047842,420.415862 2.30011961,422.255957 C9.20047842,432.836507 24.8412917,437.896771 36.8019137,437.896771 C57.0429662,437.896771 79.1241145,425.016101 79.1241145,401.554881 C78.6640905,376.713589 58.8830619,368.893182 42.7822247,362.912871 L42.7822247,362.912871 Z M499.125955,313.690312 L498.665931,313.690312 C476.584782,313.690312 459.103873,331.171221 459.103873,352.792345 L459.103873,488.959426 C459.103873,494.939737 464.164137,500 470.144448,500 C476.124758,500 481.185022,494.939737 481.185022,488.959426 L481.185022,432.376484 C485.325237,436.056675 492.225596,437.896771 498.665931,437.896771 L499.125955,437.896771 C521.207103,437.896771 537.767964,419.03579 537.767964,397.414666 L537.767964,351.872297 C537.767964,330.251173 521.207103,313.690312 499.125955,313.690312 L499.125955,313.690312 Z M516.606864,398.334713 C516.606864,410.295335 508.786457,415.355598 499.585978,415.355598 L499.125955,415.355598 C489.465452,415.355598 482.105069,410.295335 482.105069,398.334713 L482.105069,352.792345 C482.105069,343.591867 489.925476,335.77146 499.125955,335.77146 L499.585978,335.77146 C509.246481,335.77146 516.606864,343.131843 516.606864,352.792345 L516.606864,398.334713 Z M295.335357,313.690312 L294.875334,313.690312 C283.834759,313.690312 274.174257,318.290551 267.273898,325.19091 C260.373539,318.290551 250.253013,313.690312 239.672463,313.690312 L239.212439,313.690312 C218.051339,313.690312 200.57043,330.711197 200.57043,352.332321 L200.57043,427.31622 C201.030454,433.296531 205.630693,437.896771 211.611004,437.896771 C217.591315,437.896771 222.191554,433.296531 222.651578,427.31622 L222.651578,352.332321 C222.651578,343.131843 230.011961,335.77146 239.212439,335.77146 L239.672463,335.77146 C248.872941,335.77146 255.7733,342.671819 256.233324,351.872297 L256.233324,427.31622 C256.789953,432.753703 260.617352,437.896771 266.813874,437.896771 C272.794185,437.896771 277.394425,433.296531 277.854448,427.31622 L277.854448,351.412273 C278.314472,342.671819 285.674855,335.311436 294.41531,335.311436 L294.875334,335.311436 C304.075812,335.311436 311.436195,342.671819 311.436195,351.872297 L311.436195,427.31622 C311.896219,433.296531 316.496458,437.896771 322.476769,437.896771 C328.45708,437.896771 333.057319,433.296531 333.517343,427.31622 L333.517343,352.332321 C333.977367,331.171221 316.496458,313.690312 295.335357,313.690312 Z M164.688564,313.690312 C158.708253,313.690312 154.108014,318.290551 153.64799,324.270862 L153.64799,399.254761 C153.64799,408.45524 146.287607,415.815622 136.627105,415.815622 L136.167081,415.815622 C126.966602,415.815622 119.146196,408.45524 119.146196,399.254761 L119.146196,323.810838 C118.686172,317.830527 114.085932,313.230288 108.105621,313.230288 C102.125311,313.230288 97.5250713,317.830527 97.0650474,323.810838 L97.0650474,398.794737 C97.0650474,419.955838 114.545956,437.436747 136.167081,437.436747 L136.627105,437.436747 C158.248229,437.436747 175.729138,419.955838 175.729138,398.794737 L175.729138,324.270862 C175.729138,318.290551 170.668875,313.690312 164.688564,313.690312 L164.688564,313.690312 Z M425.982151,313.690312 C420.00184,313.690312 415.401601,318.290551 414.941577,324.270862 L414.941577,399.254761 C414.941577,408.45524 407.581194,415.815622 397.920692,415.815622 L397.460668,415.815622 C388.26019,415.815622 380.439783,408.45524 380.439783,399.254761 L380.439783,323.810838 C379.979759,317.830527 375.37952,313.230288 369.399209,313.230288 C363.418898,313.230288 358.818659,317.830527 358.358635,323.810838 L358.358635,398.794737 C358.358635,419.955838 375.839544,437.436747 397.460668,437.436747 L397.920692,437.436747 C419.541816,437.436747 437.022725,419.955838 437.022725,398.794737 L437.022725,324.270862 C436.562701,318.290551 431.962462,313.690312 425.982151,313.690312 L425.982151,313.690312 Z" id="path10279"></path>
                </g>
            </g>
        </g>
    </g>
</svg>