<?xml version="1.0" encoding="UTF-8"?>
<svg width="980px" height="680px" viewBox="0 0 980 680" version="1.1" xmlns="http://www.w3.org/2000/svg" xmlns:xlink="http://www.w3.org/1999/xlink">
    <title>WW sumup text</title>
    <defs>
        <linearGradient x1="50%" y1="0%" x2="50%" y2="100%" id="linearGradient-1">
            <stop stop-color="#FFFFFF" offset="0%"></stop>
            <stop stop-color="#EDEDED" offset="100%"></stop>
        </linearGradient>
        <rect id="path-2" x="0" y="2.84217094e-14" width="900" height="600" rx="80"></rect>
        <filter x="-6.7%" y="-10.0%" width="113.3%" height="120.0%" filterUnits="objectBoundingBox" id="filter-4">
            <feMorphology radius="2.5" operator="dilate" in="SourceAlpha" result="shadowSpreadOuter1"></feMorphology>
            <feOffset dx="0" dy="0" in="shadowSpreadOuter1" result="shadowOffsetOuter1"></feOffset>
            <feGaussianBlur stdDeviation="17.5" in="shadowOffsetOuter1" result="shadowBlurOuter1"></feGaussianBlur>
            <feColorMatrix values="0 0 0 0 0   0 0 0 0 0   0 0 0 0 0  0 0 0 0.5 0" type="matrix" in="shadowBlurOuter1"></feColorMatrix>
        </filter>
    </defs>
    <g id="WW-sumup-text" stroke="none" stroke-width="1" fill="none" fill-rule="evenodd">
        <g transform="translate(40, 40)">
            <mask id="mask-3" fill="white">
                <use xlink:href="#path-2"></use>
            </mask>
            <g id="Rectangle">
                <use fill="black" fill-opacity="1" filter="url(#filter-4)" xlink:href="#path-2"></use>
                <use fill="url(#linearGradient-1)" fill-rule="evenodd" xlink:href="#path-2"></use>
            </g>
            <g id="Logo" mask="url(#mask-3)" fill="#000000" fill-rule="nonzero">
                <g transform="translate(50, 175)">
                    <path d="M234.096692,0 L17.913486,0 C8.14249364,0 0,8.14249364 0,17.913486 L0,232.875318 C0,242.64631 8.14249364,250.788804 17.913486,250.788804 L234.096692,250.788804 C243.867684,250.788804 252.010178,242.64631 252.010178,232.875318 L252.010178,17.913486 C252.010178,7.73536896 243.867684,0 234.096692,0 Z M157.964377,188.498728 C135.979644,210.483461 100.966921,211.29771 77.7608142,191.348601 L77.3536896,190.941476 C76.1323155,189.720102 75.7251908,187.277354 77.3536896,185.648855 L155.521628,107.888041 C157.150127,106.666667 159.185751,106.666667 160.814249,107.888041 C181.170483,131.501272 180.356234,166.513995 157.964377,188.498728 Z M174.249364,64.3256997 L96.0814249,142.086514 C94.4529262,143.307888 92.4173028,143.307888 90.7888041,142.086514 C70.43257,118.880407 71.2468193,83.8676845 93.2315522,61.8829517 C115.216285,39.8982188 150.229008,39.0839695 173.435115,59.0330789 C173.435115,59.0330789 173.842239,59.0330789 173.842239,59.4402036 C175.877863,60.6615776 175.877863,63.1043257 174.249364,64.3256997 Z" id="path10273"></path>
                    <path d="M361.933842,113.180662 C350.941476,108.70229 344.020356,105.852417 344.020356,99.3384224 C344.020356,94.0458015 348.091603,89.1603053 357.455471,89.1603053 C363.155216,89.1603053 368.040712,91.6030534 371.704835,96.4885496 C374.147583,99.3384224 376.590331,100.966921 379.440204,100.966921 C385.139949,100.966921 389.618321,96.4885496 389.618321,91.1959288 C389.618321,89.1603053 389.211196,87.1246819 387.989822,85.9033079 C381.882952,76.5394402 369.262087,70.0254453 357.455471,70.0254453 C341.170483,70.0254453 324.478372,80.2035623 324.478372,99.7455471 C324.478372,119.694656 340.763359,126.208651 354.198473,131.094148 C364.783715,135.165394 374.147583,138.829517 374.147583,147.379135 C374.147583,153.89313 368.040712,160.407125 356.641221,160.407125 C352.977099,160.407125 346.463104,159.592875 341.984733,154.300254 C339.541985,151.450382 336.692112,150.229008 334.249364,150.229008 C328.956743,150.229008 324.071247,154.707379 324.071247,160 C324.071247,162.035623 324.885496,164.071247 326.10687,165.699746 C332.21374,175.063613 346.05598,179.541985 356.641221,179.541985 C374.554707,179.541985 394.096692,168.142494 394.096692,147.379135 C393.689567,125.394402 376.183206,118.473282 361.933842,113.180662 L361.933842,113.180662 Z M765.801527,69.6183206 L765.394402,69.6183206 C745.852417,69.6183206 730.381679,85.0890585 730.381679,104.223919 L730.381679,224.732824 C730.381679,230.025445 734.860051,234.503817 740.152672,234.503817 C745.445293,234.503817 749.923664,230.025445 749.923664,224.732824 L749.923664,174.656489 C753.587786,177.913486 759.694656,179.541985 765.394402,179.541985 L765.801527,179.541985 C785.343511,179.541985 800,162.849873 800,143.715013 L800,103.409669 C800,84.2748092 785.343511,69.6183206 765.801527,69.6183206 L765.801527,69.6183206 Z M781.272265,144.529262 C781.272265,155.114504 774.351145,159.592875 766.208651,159.592875 L765.801527,159.592875 C757.251908,159.592875 750.737913,155.114504 750.737913,144.529262 L750.737913,104.223919 C750.737913,96.0814249 757.659033,89.1603053 765.801527,89.1603053 L766.208651,89.1603053 C774.75827,89.1603053 781.272265,95.6743003 781.272265,104.223919 L781.272265,144.529262 Z M585.445293,69.6183206 L585.038168,69.6183206 C575.267176,69.6183206 566.717557,73.6895674 560.610687,79.7964377 C554.503817,73.6895674 545.547074,69.6183206 536.183206,69.6183206 L535.776081,69.6183206 C517.048346,69.6183206 501.577608,84.6819338 501.577608,103.816794 L501.577608,170.178117 C501.984733,175.470738 506.05598,179.541985 511.348601,179.541985 C516.641221,179.541985 520.712468,175.470738 521.119593,170.178117 L521.119593,103.816794 C521.119593,95.6743003 527.633588,89.1603053 535.776081,89.1603053 L536.183206,89.1603053 C544.3257,89.1603053 550.43257,95.2671756 550.839695,103.409669 L550.839695,170.178117 C551.332316,174.990331 554.719593,179.541985 560.203562,179.541985 C565.496183,179.541985 569.56743,175.470738 569.974555,170.178117 L569.974555,103.002545 C570.381679,95.2671756 576.895674,88.7531807 584.631043,88.7531807 L585.038168,88.7531807 C593.180662,88.7531807 599.694656,95.2671756 599.694656,103.409669 L599.694656,170.178117 C600.101781,175.470738 604.173028,179.541985 609.465649,179.541985 C614.75827,179.541985 618.829517,175.470738 619.236641,170.178117 L619.236641,103.816794 C619.643766,85.0890585 604.173028,69.6183206 585.445293,69.6183206 Z M469.821883,69.6183206 C464.529262,69.6183206 460.458015,73.6895674 460.050891,78.9821883 L460.050891,145.343511 C460.050891,153.486005 453.536896,160 444.987277,160 L444.580153,160 C436.437659,160 429.516539,153.486005 429.516539,145.343511 L429.516539,78.5750636 C429.109415,73.2824427 425.038168,69.2111959 419.745547,69.2111959 C414.452926,69.2111959 410.381679,73.2824427 409.974555,78.5750636 L409.974555,144.936387 C409.974555,163.664122 425.445293,179.13486 444.580153,179.13486 L444.987277,179.13486 C464.122137,179.13486 479.592875,163.664122 479.592875,144.936387 L479.592875,78.9821883 C479.592875,73.6895674 475.114504,69.6183206 469.821883,69.6183206 L469.821883,69.6183206 Z M701.068702,69.6183206 C695.776081,69.6183206 691.704835,73.6895674 691.29771,78.9821883 L691.29771,145.343511 C691.29771,153.486005 684.783715,160 676.234097,160 L675.826972,160 C667.684478,160 660.763359,153.486005 660.763359,145.343511 L660.763359,78.5750636 C660.356234,73.2824427 656.284987,69.2111959 650.992366,69.2111959 C645.699746,69.2111959 641.628499,73.2824427 641.221374,78.5750636 L641.221374,144.936387 C641.221374,163.664122 656.692112,179.13486 675.826972,179.13486 L676.234097,179.13486 C695.368957,179.13486 710.839695,163.664122 710.839695,144.936387 L710.839695,78.9821883 C710.43257,73.6895674 706.361323,69.6183206 701.068702,69.6183206 L701.068702,69.6183206 Z" id="path10279"></path>
                </g>
            </g>
        </g>
    </g>
</svg>