<?xml version="1.0" encoding="UTF-8"?>
<svg width="980px" height="680px" viewBox="0 0 980 680" version="1.1" xmlns="http://www.w3.org/2000/svg" xmlns:xlink="http://www.w3.org/1999/xlink">
    <title>WW V Pay</title>
    <defs>
        <linearGradient x1="50%" y1="0%" x2="50%" y2="100%" id="linearGradient-1">
            <stop stop-color="#FFFFFF" offset="0%"></stop>
            <stop stop-color="#EDEDED" offset="100%"></stop>
        </linearGradient>
        <rect id="path-2" x="0" y="2.84217094e-14" width="900" height="600" rx="80"></rect>
        <filter x="-6.7%" y="-10.0%" width="113.3%" height="120.0%" filterUnits="objectBoundingBox" id="filter-4">
            <feMorphology radius="2.5" operator="dilate" in="SourceAlpha" result="shadowSpreadOuter1"></feMorphology>
            <feOffset dx="0" dy="0" in="shadowSpreadOuter1" result="shadowOffsetOuter1"></feOffset>
            <feGaussianBlur stdDeviation="17.5" in="shadowOffsetOuter1" result="shadowBlurOuter1"></feGaussianBlur>
            <feColorMatrix values="0 0 0 0 0   0 0 0 0 0   0 0 0 0 0  0 0 0 0.5 0" type="matrix" in="shadowBlurOuter1"></feColorMatrix>
        </filter>
    </defs>
    <g id="WW-V-Pay" stroke="none" stroke-width="1" fill="none" fill-rule="evenodd">
        <g transform="translate(40, 40)">
            <mask id="mask-3" fill="white">
                <use xlink:href="#path-2"></use>
            </mask>
            <g id="Rectangle">
                <use fill="black" fill-opacity="1" filter="url(#filter-4)" xlink:href="#path-2"></use>
                <use fill="url(#linearGradient-1)" fill-rule="evenodd" xlink:href="#path-2"></use>
            </g>
            <path d="M820,0 C864.18278,0 900,35.81722 900,80 L900,520 C900,564.18278 864.18278,600 820,600 L80,600 C35.81722,600 0,564.18278 0,520 L0,80 C0,35.81722 35.81722,0 80,0 L820,0 Z M80,30 C52.3857625,30 30,52.3857625 30,80 L30,520 C30,547.614237 52.3857625,570 80,570 L820,570 C847.614237,570 870,547.614237 870,520 L870,80 C870,52.3857625 847.614237,30 820,30 L80,30 Z" id="Rectangle" fill="#1434CB" fill-rule="nonzero" mask="url(#mask-3)"></path>
            <g id="Logo" mask="url(#mask-3)">
                <g transform="translate(0, 118.3924)">
                    <rect id="Rectangle" fill="#1434CB" fill-rule="evenodd" x="0" y="256.60758" width="900" height="225"></rect>
                    <path d="M560.65997,0 L474.640647,205.345135 L418.43592,205.345135 L376.097751,41.4316249 C373.546094,31.3591437 371.296557,27.6658643 363.507137,23.368255 C350.681426,16.4853737 329.596331,9.97174566 311.062874,5.90921495 L312.305153,0 L402.689217,0 C414.205512,0 424.580196,7.65507462 427.199087,20.8837205 L449.593579,139.705845 L504.858185,0 L560.65997,0" id="path8685" fill="#1434CB" fill-rule="nonzero"></path>
                    <path d="M348.729492,367.556578 C350.777558,368.127286 353.497175,368.294898 356.888246,368.294898 C369.378231,368.294898 376.999767,361.882013 376.999767,350.701523 C376.999767,340.091838 369.948939,334.417622 358.365604,334.417622 C353.799391,334.417622 350.508969,334.854249 348.729492,335.290547 L348.729492,367.556578 Z M332.177002,323.103127 C338.153337,321.961594 346.446444,321.122179 357.72766,321.122179 C369.948939,321.122179 378.879989,323.808189 384.721972,328.911599 C390.161206,333.578556 393.686533,341.065837 393.686533,350.030398 C393.686533,359.062096 390.967013,366.5493 385.796387,371.686318 C379.148579,378.602715 368.70668,381.85953 356.888246,381.85953 C353.799391,381.85953 350.911911,381.69188 348.729492,381.288802 L348.729492,417.281282 L332.177002,417.281282 L332.177002,323.103127 Z" id="path8687" fill="#FFFFFF" fill-rule="nonzero"></path>
                    <path d="M456.539088,377.058336 L449.353984,353.555725 C447.574527,347.747253 446.097266,341.23372 444.720654,335.693838 L444.451619,335.693838 C443.108615,341.23372 441.732099,347.915117 440.120486,353.555725 L433.069658,377.058336 L456.539088,377.058336 Z M430.350563,390.219756 L422.460418,417.281205 L405.236358,417.281205 L434.547441,321.827338 L455.867614,321.827338 L485.615073,417.281205 L467.686048,417.281205 L459.392941,390.219756 L430.350563,390.219756 Z" id="path8689" fill="#FFFFFF" fill-rule="nonzero"></path>
                    <path d="M520.768236,417.281205 L520.768236,377.461182 L491.860094,321.827338 L510.830004,321.827338 L521.842632,346.303523 C524.965113,353.421469 527.248161,358.75988 529.732796,365.307021 L529.96743,365.307021 C532.284105,359.196352 534.902976,353.253605 537.99185,346.303523 L549.004478,321.827338 L567.873739,321.827338 L537.454652,377.058336 L537.454652,417.281205 L520.768236,417.281205 Z" id="path8691" fill="#FFFFFF" fill-rule="nonzero"></path>
                </g>
            </g>
        </g>
    </g>
</svg>