<?xml version="1.0" encoding="UTF-8"?>
<svg width="980px" height="680px" viewBox="0 0 980 680" version="1.1" xmlns="http://www.w3.org/2000/svg" xmlns:xlink="http://www.w3.org/1999/xlink">
    <title>WW VISA Verified by VISA</title>
    <defs>
        <linearGradient x1="50%" y1="0%" x2="50%" y2="100%" id="linearGradient-1">
            <stop stop-color="#FFFFFF" offset="0%"></stop>
            <stop stop-color="#EDEDED" offset="100%"></stop>
        </linearGradient>
        <rect id="path-2" x="0" y="-2.84217094e-14" width="900" height="600" rx="80"></rect>
        <filter x="-6.7%" y="-10.0%" width="113.3%" height="120.0%" filterUnits="objectBoundingBox" id="filter-3">
            <feMorphology radius="2.5" operator="dilate" in="SourceAlpha" result="shadowSpreadOuter1"></feMorphology>
            <feOffset dx="0" dy="0" in="shadowSpreadOuter1" result="shadowOffsetOuter1"></feOffset>
            <feGaussianBlur stdDeviation="17.5" in="shadowOffsetOuter1" result="shadowBlurOuter1"></feGaussianBlur>
            <feColorMatrix values="0 0 0 0 0   0 0 0 0 0   0 0 0 0 0  0 0 0 0.5 0" type="matrix" in="shadowBlurOuter1"></feColorMatrix>
        </filter>
    </defs>
    <g id="WW-VISA-Verified-by-VISA" stroke="none" stroke-width="1" fill="none" fill-rule="evenodd">
        <g transform="translate(40, 40)">
            <g id="Rectangle">
                <use fill="black" fill-opacity="1" filter="url(#filter-3)" xlink:href="#path-2"></use>
                <use fill="url(#linearGradient-1)" fill-rule="evenodd" xlink:href="#path-2"></use>
            </g>
            <g id="Logo" transform="translate(50, 128)" fill="#1434CB" fill-rule="nonzero">
                <path d="M323.516484,184.175824 L283.516484,292.197802 L279.230769,270.21978 C269.230769,243.296703 247.582418,215.054945 222.417582,203.516484 L259.120879,342.307692 L302.527473,342.307692 L367.032967,183.956044 L323.516484,183.956044 L323.516484,184.175824 Z" id="Path"></path>
                <polygon id="Path" points="357.912088 342.637363 383.516484 183.956044 424.505495 183.956044 398.901099 342.637363"></polygon>
                <path d="M547.472527,187.912088 C539.340659,184.725275 526.593407,181.208791 510.769231,181.208791 C470.21978,181.208791 441.758242,202.747253 441.538462,233.516484 C441.318681,256.373626 461.868132,269.010989 477.362637,276.593407 C493.406593,284.395604 498.681319,289.340659 498.681319,296.263736 C498.571429,306.923077 485.934066,311.758242 474.175824,311.758242 C457.802198,311.758242 449.120879,309.340659 435.604396,303.516484 L430.32967,300.989011 L424.615385,336.483516 C434.175824,340.879121 451.868132,344.725275 470.32967,344.945055 C513.296703,344.945055 541.318681,323.626374 541.648352,290.769231 C541.868132,272.637363 530.879121,259.010989 507.252747,247.692308 C492.967033,240.32967 484.175824,235.494505 484.285714,228.021978 C484.285714,221.428571 491.648352,214.395604 507.802198,214.395604 C521.208791,214.175824 530.879121,217.252747 538.461538,220.549451 L542.087912,222.417582 L547.472527,187.912088 L547.472527,187.912088 Z" id="Path"></path>
                <path d="M652.527473,184.175824 L620.879121,184.175824 C611.098901,184.175824 603.736264,186.923077 599.340659,197.362637 L538.571429,342.747253 L581.538462,342.747253 C581.538462,342.747253 588.571429,323.186813 590.21978,318.901099 C594.945055,318.901099 636.703297,319.010989 642.637363,319.010989 C643.956044,324.505495 647.582418,342.747253 647.582418,342.747253 L685.714286,342.747253 L652.527473,184.175824 L652.527473,184.175824 Z M601.978022,286.373626 C605.384615,277.252747 618.241758,241.978022 618.241758,241.978022 C618.021978,242.417582 621.648352,232.857143 623.736264,226.813187 L626.483516,240.43956 C626.483516,240.43956 634.395604,278.351648 636.043956,286.263736 C629.67033,286.373626 610,286.373626 601.978022,286.373626 L601.978022,286.373626 Z" id="Shape"></path>
                <path d="M246.263736,184.065934 L180.21978,184.065934 L179.78022,186.813187 C231.098901,200 265.054945,232.197802 279.120879,270.32967 L264.835165,197.362637 C262.417582,187.362637 255.164835,184.395604 246.263736,184.065934 L246.263736,184.065934 Z" id="Path"></path>
                <polygon id="Path" points="56.2637363 145.714286 30.2197802 145.714286 0 9.89010989 28.9010989 5.05494505 49.5604396 111.318681 102.087912 6.48351648 129.78022 6.48351648"></polygon>
                <path d="M192.197802,101.318681 L129.89011,101.318681 C128.131868,120.21978 136.923077,128.461538 151.868132,128.461538 C164.285714,128.461538 175.274725,123.846154 187.032967,116.373626 L186.923077,135.274725 C175.384615,142.527473 161.978022,147.142857 146.263736,147.142857 C119.120879,147.142857 101.208791,131.648352 106.593407,96.7032967 C111.428571,65.1648352 133.296703,46.043956 158.571429,46.043956 C187.692308,46.043956 197.362637,67.9120879 193.186813,95.4945055 C192.967033,97.4725275 192.307692,99.8901099 192.197802,101.318681 L192.197802,101.318681 Z M155.494505,62.7472527 C145.824176,62.7472527 136.813187,70.3296703 132.637363,86.2637363 L171.208791,86.2637363 C171.868132,71.2087912 167.142857,62.7472527 155.494505,62.7472527 L155.494505,62.7472527 Z" id="Shape"></path>
                <path d="M232.747253,89.4505495 L224.175824,145.054945 L200.10989,145.054945 L215.054945,48.021978 L235.604396,48.021978 L235.604396,67.4725275 C243.736264,56.2637363 254.835165,46.8131868 270.10989,45.9340659 L270.21978,69.8901099 C254.835165,70.989011 241.208791,79.010989 232.747253,89.4505495 L232.747253,89.4505495 Z" id="Path"></path>
                <path d="M269.78022,145.054945 L284.725275,48.021978 L308.791209,48.021978 L293.956044,145.054945 L269.78022,145.054945 L269.78022,145.054945 Z M299.450549,31.7582418 C291.428571,31.7582418 285.824176,26.1538462 287.142857,18.1318681 C288.461538,9.89010989 295.714286,4.06593407 303.736264,4.06593407 C311.538462,4.06593407 317.142857,9.89010989 315.824176,18.1318681 C314.615385,26.1538462 307.362637,31.7582418 299.450549,31.7582418 L299.450549,31.7582418 Z" id="Shape"></path>
                <path d="M375.604396,21.5384615 C367.362637,21.5384615 362.417582,25.1648352 361.098901,33.8461538 L358.901099,48.1318681 L377.362637,48.1318681 L377.362637,67.8021978 L355.824176,67.8021978 L343.956044,145.054945 L320,145.054945 L331.868132,67.6923077 L317.802198,67.6923077 L320.879121,48.021978 L334.945055,48.021978 L337.472527,31.3186813 C340.769231,9.78021978 355.714286,1.75824176 375.604396,1.75824176 C379.78022,1.75824176 382.967033,2.1978022 385.384615,2.52747253 L385.604396,22.1978022 C383.186813,21.978022 379.67033,21.5384615 375.604396,21.5384615 L375.604396,21.5384615 Z" id="Path"></path>
                <path d="M375.824176,145.054945 L390.769231,48.021978 L414.835165,48.021978 L400,145.054945 L375.824176,145.054945 L375.824176,145.054945 Z M405.604396,31.7582418 C397.582418,31.7582418 391.978022,26.1538462 393.186813,18.1318681 C394.505495,9.89010989 401.758242,4.06593407 409.78022,4.06593407 C417.582418,4.06593407 423.186813,9.89010989 421.868132,18.1318681 C420.659341,26.1538462 413.406593,31.7582418 405.604396,31.7582418 L405.604396,31.7582418 Z" id="Shape"></path>
                <path d="M508.461538,101.318681 L446.153846,101.318681 C444.505495,120.21978 453.186813,128.461538 468.131868,128.461538 C480.549451,128.461538 491.538462,123.846154 503.296703,116.373626 L503.186813,135.274725 C491.648352,142.527473 478.241758,147.142857 462.527473,147.142857 C435.384615,147.142857 417.472527,131.648352 422.857143,96.7032967 C427.692308,65.1648352 449.56044,46.043956 474.835165,46.043956 C503.956044,46.043956 513.626374,67.9120879 509.450549,95.4945055 C509.230769,97.4725275 508.571429,99.8901099 508.461538,101.318681 L508.461538,101.318681 Z M471.758242,62.7472527 C462.087912,62.7472527 453.076923,70.3296703 448.901099,86.2637363 L487.472527,86.2637363 C488.131868,71.2087912 483.406593,62.7472527 471.758242,62.7472527 L471.758242,62.7472527 Z" id="Shape"></path>
                <path d="M579.78022,145.054945 L579.89011,131.538462 C571.758242,139.78022 561.208791,147.032967 547.802198,147.032967 C527.472527,147.032967 513.516484,131.978022 518.571429,99.2307692 C524.175824,63.0769231 546.483516,47.032967 569.010989,47.032967 C578.241758,47.032967 585.494505,48.6813187 590.989011,50.6593407 L598.241758,3.84615385 L622.967033,0 L600.659341,145.054945 L579.78022,145.054945 L579.78022,145.054945 Z M587.912088,70.5494505 C582.307692,67.6923077 577.912088,66.3736264 569.67033,66.3736264 C557.032967,66.3736264 546.153846,76.5934066 542.967033,97.9120879 C540.10989,116.813187 546.703297,125.604396 557.362637,125.604396 C566.153846,125.604396 573.846154,120.32967 581.538462,112.307692 L587.912088,70.5494505 L587.912088,70.5494505 Z" id="Shape"></path>
                <path d="M674.395604,146.043956 C662.967033,146.043956 653.626374,144.175824 645.054945,141.208791 L660.879121,38.1318681 L679.56044,35.2747253 L672.747253,79.8901099 C678.241758,75.0549451 685.824176,70.1098901 695.054945,70.1098901 C710.549451,70.1098901 720.989011,81.6483516 717.142857,106.373626 C712.967033,133.406593 696.263736,146.043956 674.395604,146.043956 L674.395604,146.043956 Z M687.912088,86.1538462 C681.868132,86.1538462 675.714286,90.2197802 670.32967,95.7142857 L665.164835,129.010989 C668.791209,130.32967 671.208791,130.989011 676.373626,130.989011 C687.912088,130.989011 696.043956,123.956044 698.571429,107.252747 C700.769231,93.1868132 696.043956,86.1538462 687.912088,86.1538462 L687.912088,86.1538462 Z" id="Shape"></path>
                <path d="M760.21978,149.120879 C750.879121,167.252747 741.648352,172.857143 727.472527,172.857143 C724.285714,172.857143 722.527473,172.527473 720.879121,172.087912 L720.769231,157.032967 C723.076923,157.692308 725.604396,158.131868 729.120879,158.131868 C734.395604,158.131868 739.120879,155.714286 742.197802,150.32967 L744.615385,145.494505 L729.120879,73.0769231 L748.571429,70.6593407 L757.582418,122.967033 L781.868132,71.6483516 L800,71.6483516 L760.21978,149.120879 L760.21978,149.120879 Z" id="Path"></path>
            </g>
        </g>
    </g>
</svg>