<?xml version="1.0" encoding="UTF-8"?>
<svg width="980px" height="680px" viewBox="0 0 980 680" version="1.1" xmlns="http://www.w3.org/2000/svg" xmlns:xlink="http://www.w3.org/1999/xlink">
    <title>WW VISA Electron</title>
    <defs>
        <linearGradient x1="50%" y1="0%" x2="50%" y2="100%" id="linearGradient-1">
            <stop stop-color="#FFFFFF" offset="0%"></stop>
            <stop stop-color="#EDEDED" offset="100%"></stop>
        </linearGradient>
        <rect id="path-2" x="0" y="2.84217094e-14" width="900" height="600" rx="80"></rect>
        <filter x="-6.7%" y="-10.0%" width="113.3%" height="120.0%" filterUnits="objectBoundingBox" id="filter-4">
            <feMorphology radius="2.5" operator="dilate" in="SourceAlpha" result="shadowSpreadOuter1"></feMorphology>
            <feOffset dx="0" dy="0" in="shadowSpreadOuter1" result="shadowOffsetOuter1"></feOffset>
            <feGaussianBlur stdDeviation="17.5" in="shadowOffsetOuter1" result="shadowBlurOuter1"></feGaussianBlur>
            <feColorMatrix values="0 0 0 0 0   0 0 0 0 0   0 0 0 0 0  0 0 0 0.5 0" type="matrix" in="shadowBlurOuter1"></feColorMatrix>
        </filter>
    </defs>
    <g id="WW-VISA-Electron" stroke="none" stroke-width="1" fill="none" fill-rule="evenodd">
        <g transform="translate(40, 40)">
            <mask id="mask-3" fill="white">
                <use xlink:href="#path-2"></use>
            </mask>
            <g id="Rectangle">
                <use fill="black" fill-opacity="1" filter="url(#filter-4)" xlink:href="#path-2"></use>
                <use fill="url(#linearGradient-1)" fill-rule="evenodd" xlink:href="#path-2"></use>
            </g>
            <g id="Logo" mask="url(#mask-3)">
                <g transform="translate(0.2221, -1.1123)" id="g4145">
                    <g transform="translate(450, 303.5558) scale(-1, 1) rotate(-180) translate(-450, -303.5558)translate(0, 0)">
                        <polygon id="path4149" fill="#F7B600" fill-rule="nonzero" points="5.77255893e-13 99 900 99 900 0 4.54747351e-13 0"></polygon>
                        <polygon id="path4151" fill="#1434CB" fill-rule="nonzero" points="1.79351961e-13 498.111582 900 498.111582 900 607.111582 5.68434189e-14 607.111582"></polygon>
                        <g id="g4153" transform="translate(97.8535, 128.6033)" fill="#1434CB" fill-rule="nonzero">
                            <g id="g4155">
                                <g id="g4161" transform="translate(0, 82.4943)">
                                    <path d="M334.261822,214.161534 L289.157942,3.31037654 L234.605695,3.31037654 L279.709576,214.161534 L334.261822,214.161534 Z M563.746779,78.0136783 L592.471192,157.195471 L608.97135,78.0136783 L563.746779,78.0136783 Z M624.639604,3.31037654 L675.075432,3.31037654 L631.010355,214.161534 L584.475426,214.161534 C573.979636,214.161534 565.160586,208.070959 561.246755,198.70449 L479.392523,3.31037654 L536.677554,3.31037654 L548.039732,34.8063679 L618.027472,34.8063679 L624.639604,3.31037654 Z M482.237378,72.1515532 C482.465828,127.790017 405.305606,130.876254 405.809922,155.738561 C405.995268,163.294668 413.193613,171.342158 428.952385,173.398213 C436.758494,174.406843 458.323356,175.212885 482.750314,163.958467 L492.30644,208.695965 C479.181314,213.4417 462.293221,218.010709 441.284399,218.010709 C387.357159,218.010709 349.42145,189.368193 349.119723,148.320386 C348.766272,117.958026 376.21481,101.035451 396.85725,90.9232847 C418.120384,80.5955996 425.249763,73.957605 425.150624,64.7290683 C424.999761,50.5823811 408.172013,44.31939 392.525312,44.0866292 C365.089704,43.6512802 349.184379,51.5004933 336.498913,57.4100327 L326.597956,11.1897624 C339.361009,5.3405684 362.882786,0.258623167 387.245089,0 C444.573224,0 482.069273,28.3149264 482.237378,72.1515532 M256.30849,214.161534 L167.928333,3.31037654 L110.263987,3.31037654 L66.7678809,171.58785 C64.134235,181.928467 61.8411096,185.734538 53.8151706,190.105269 C40.6986657,197.230337 19.0389755,203.894194 0,208.040786 L1.28449506,214.161534 L94.1172808,214.161534 C105.932049,214.161534 116.570082,206.295079 119.272694,192.674259 L142.255673,70.6515388 L198.993285,214.161534 L256.30849,214.161534 Z" id="path4163"></path>
                                </g>
                                <g id="g4165" transform="translate(374.4419, 0.9341)">
                                    <polygon id="path4167" points="29.6339045 26.8321536 7.46989914 26.8321536 7.46989914 6.20264562 32.2632401 6.20264562 32.2632401 0 0 0 0 57.2333068 30.9916762 57.2333068 30.9916762 51.0306612 7.46989914 51.0306612 7.46989914 32.9485915 29.6339045 32.9485915"></polygon>
                                </g>
                                <polygon id="path4169" points="418.155729 61.220845 425.625629 61.220845 425.625629 0.935784826 418.155729 0.935784826"></polygon>
                                <g id="g4171" transform="translate(437.34, 0.0017)">
                                    <path d="M29.0347609,25.4743819 C29.1209686,30.1425301 27.082156,37.5305319 18.676903,37.5305319 C11.0345885,37.5305319 7.80610925,30.6511557 7.21127597,25.4743819 L29.0347609,25.4743819 Z M7.12937863,20.1251928 C7.29748369,10.0173373 13.6682344,5.85781473 21.2200308,5.85781473 C26.5735304,5.85781473 29.8839069,6.79316852 32.6037606,7.9785247 L33.9615322,2.62933553 C31.3278863,1.44397935 26.7459458,0 20.2027797,0 C7.55610686,0 0,8.40525292 0,20.8019234 C0,33.1985939 7.29748369,42.8797211 19.2717363,42.8797211 C32.7718656,42.8797211 36.2546576,31.1597812 36.2546576,23.6036744 C36.2546576,22.0777977 36.1684499,20.9743388 35.9960344,20.1251928 L7.12937863,20.1251928 Z" id="path4173"></path>
                                </g>
                                <g id="g4175" transform="translate(481.9844, 0)">
                                    <path d="M32.2632401,2.37933314 C30.3106352,1.44397935 25.9786971,0 20.4614029,0 C8.06473242,0 0,8.40525292 0,20.9743388 C0,33.6253221 8.65525532,42.8797211 22.0734873,42.8797211 C26.4873227,42.8797211 30.3925325,41.7805726 32.4313451,40.6728034 L30.7373634,34.9830937 C28.9485531,35.9184475 26.1468022,36.940009 22.0734873,36.940009 C12.6466729,36.940009 7.55610686,29.8925277 7.55610686,21.3967567 C7.55610686,11.8880449 13.6682344,6.03023017 21.8191745,6.03023017 C26.0649048,6.03023017 28.8666558,7.0474813 30.9873658,7.98283508 L32.2632401,2.37933314 Z" id="path4177"></path>
                                </g>
                                <g id="g4179" transform="translate(521.5334, 0.0017)">
                                    <path d="M13.6725448,51.8798073 L13.6725448,42.030575 L24.3666127,42.030575 L24.3666127,36.3451757 L13.6725448,36.3451757 L13.6725448,14.1811703 C13.6725448,9.08198354 15.1165241,6.19833523 19.2760467,6.19833523 C21.310549,6.19833523 22.5045259,6.36644029 23.6079848,6.71127118 L23.9485053,1.01725112 C22.5045259,0.508625562 20.2114005,0 17.3234418,0 C13.8406498,0 11.0388988,1.18966657 9.25870937,3.13796109 C7.21989674,5.43539689 6.37075068,9.08198354 6.37075068,13.9225472 L6.37075068,36.3451757 L0,36.3451757 L0,42.030575 L6.37075068,42.030575 L6.37075068,49.6728896 L13.6725448,51.8798073 Z" id="path4181"></path>
                                </g>
                                <g id="g4183" transform="translate(555.9967, 0.9336)">
                                    <path d="M0.340520503,28.2761329 C0.340520503,33.1166965 0.250002395,37.2762191 7.7764211e-16,41.0995316 L6.53885574,41.0995316 L6.87937624,32.9485915 L7.12937863,32.9485915 C9.00008621,38.4658857 13.5820266,41.9486777 18.5906953,41.9486777 C19.357944,41.9486777 19.9527773,41.8624699 20.6338183,41.7805726 L20.6338183,34.7287809 C19.8665696,34.9011964 19.1079416,34.9011964 18.0820698,34.9011964 C12.8233987,34.9011964 9.08198354,30.9959866 8.06473242,25.3881742 C7.89662736,24.3709231 7.81041964,23.0993592 7.81041964,21.9053822 L7.81041964,0 L0.340520503,0 L0.340520503,28.2761329 Z" id="path4185"></path>
                                </g>
                                <g id="g4187" transform="translate(582.3948, 0.0004)">
                                    <path d="M7.6380042,21.3967567 C7.6380042,12.3966705 12.7328806,5.60350195 20.0346747,5.60350195 C27.1683637,5.60350195 32.5132425,12.3147731 32.5132425,21.5691721 C32.5132425,28.5304457 29.0347609,37.2805295 20.2027797,37.2805295 C11.4613167,37.2805295 7.6380042,29.125279 7.6380042,21.3967567 M40.1598674,21.8234849 C40.1598674,6.62506346 29.5433864,0 19.6941542,0 C8.65525532,0 0,8.15525053 0,21.1424439 C0,34.8149886 9.08198354,42.8797211 20.3751952,42.8797211 C32.1770323,42.8797211 40.1598674,34.3063631 40.1598674,21.8234849" id="path4189"></path>
                                </g>
                                <g id="g4191" transform="translate(633.6634, 0.9362)">
                                    <path d="M0.340520503,29.974425 C0.340520503,34.3020527 0.250002395,37.698637 0,41.0952212 L6.62075307,41.0952212 L7.0474813,34.3020527 L7.21558636,34.3020527 C9.25439899,38.1253652 14.0087549,41.9443673 20.8019234,41.9443673 C26.4873227,41.9443673 35.3193038,38.547783 35.3193038,24.4571308 L35.3193038,0 L27.8494047,0 L27.8494047,23.6898821 C27.8494047,30.3106352 25.3881742,35.8322398 18.3406929,35.8322398 C13.5001293,35.8322398 9.67681683,32.3494478 8.32335559,28.1899252 C7.9785247,27.2545714 7.81041964,25.9830075 7.81041964,24.7071332 L7.81041964,0 L0.340520503,0 L0.340520503,29.974425 Z" id="path4193"></path>
                                </g>
                            </g>
                        </g>
                    </g>
                </g>
            </g>
        </g>
    </g>
</svg>