<?xml version="1.0" encoding="UTF-8"?>
<svg width="980px" height="680px" viewBox="0 0 980 680" version="1.1" xmlns="http://www.w3.org/2000/svg" xmlns:xlink="http://www.w3.org/1999/xlink">
    <title>WW Western Union</title>
    <defs>
        <rect id="path-1" x="0" y="2.84217094e-14" width="900" height="600" rx="80"></rect>
        <filter x="-6.7%" y="-10.0%" width="113.3%" height="120.0%" filterUnits="objectBoundingBox" id="filter-3">
            <feMorphology radius="2.5" operator="dilate" in="SourceAlpha" result="shadowSpreadOuter1"></feMorphology>
            <feOffset dx="0" dy="0" in="shadowSpreadOuter1" result="shadowOffsetOuter1"></feOffset>
            <feGaussianBlur stdDeviation="17.5" in="shadowOffsetOuter1" result="shadowBlurOuter1"></feGaussianBlur>
            <feColorMatrix values="0 0 0 0 0   0 0 0 0 0   0 0 0 0 0  0 0 0 0.5 0" type="matrix" in="shadowBlurOuter1"></feColorMatrix>
        </filter>
    </defs>
    <g id="WW-Western-Union" stroke="none" stroke-width="1" fill="none" fill-rule="evenodd">
        <g transform="translate(40, 40)">
            <mask id="mask-2" fill="white">
                <use xlink:href="#path-1"></use>
            </mask>
            <g id="Rectangle">
                <use fill="black" fill-opacity="1" filter="url(#filter-3)" xlink:href="#path-1"></use>
                <use fill="#000000" fill-rule="evenodd" xlink:href="#path-1"></use>
            </g>
            <g id="Logo" mask="url(#mask-2)" fill="#FFDE38" fill-rule="nonzero">
                <g transform="translate(49.5132, 207.1836)" id="path6">
                    <path d="M265.715894,0 C241.630325,0 227.885205,9.74591856 227.885157,26.8718334 C227.885157,37.4884594 232.328815,45.1747044 244.999062,48.9397636 L268.117846,55.6952524 C271.204354,56.607994 273.672407,58.3193845 273.672359,61.3998874 C273.672359,65.0568587 270.513792,68.1553762 265.715894,68.1553762 C262.635391,68.1553762 260.6717,67.0504785 259.410771,65.4531807 C258.155752,63.7417902 257.609308,61.4299118 257.609308,59.1480578 L226.383937,59.1480578 C226.383937,80.6094952 244.650683,86.770501 264.514918,86.770501 C287.801839,86.770501 304.14712,78.3036217 304.14712,58.097204 C304.14712,48.1651342 299.66748,40.8151623 289.285044,36.4796397 C280.950272,32.942766 269.444972,30.6489022 263.163821,28.823419 C259.735035,27.7965847 257.75943,26.5355601 257.75943,23.5691499 C257.75943,21.0531056 260.011403,18.7652468 265.265528,18.7652468 C269.486958,18.7652468 272.357434,20.5306812 272.471383,25.6708576 L301.745168,25.6708576 C301.745168,6.49127416 286.26459,0 265.715894,0 L265.715894,0 Z M715.781573,0.600487896 L715.781573,183.599174 L726.139989,183.599174 L726.139989,0.600487896 L715.781573,0.600487896 Z M0,2.25182961 L17.8645149,84.6687934 L53.2933008,84.6687934 L60.9495215,31.2253706 L61.0996435,31.2253706 L68.7558641,84.6687934 L104.18465,84.6687934 L122.049165,2.25182961 L92.77538,2.25182961 L85.8697692,54.0439107 L85.5695252,54.0439107 L77.9133046,2.25182961 L44.1358604,2.25182961 L36.4796397,54.0439107 L36.3295177,54.0439107 L29.273785,2.25182961 L0,2.25182961 Z M142.015388,2.25182961 L142.015388,84.6687934 L205.667105,84.6687934 L205.667105,63.2013511 L173.240758,63.2013511 L173.240758,53.8937887 L202.214299,53.8937887 L202.214299,32.4263464 L173.240758,32.4263464 L173.240758,23.7192719 L204.616251,23.7192719 L204.616251,2.25182961 L142.015388,2.25182961 Z M322.762244,2.25182961 L322.762244,24.3197598 L343.178833,24.3197598 L343.178833,84.6687934 L375.755301,84.6687934 L375.755301,24.3197598 L396.17189,24.3197598 L396.17189,2.25182961 L322.762244,2.25182961 Z M418.23982,2.25182961 L418.23982,84.6687934 L482.041659,84.6687934 L482.041659,63.2013511 L449.615312,63.2013511 L449.615312,53.8937887 L478.588853,53.8937887 L478.588853,32.4263464 L449.615312,32.4263464 L449.615312,23.7192719 L480.990805,23.7192719 L480.990805,2.25182961 L418.23982,2.25182961 Z M506.211297,2.25182961 L506.211297,84.6687934 L538.187277,84.6687934 L538.187277,55.2448865 L541.940327,55.2448865 C547.188591,55.2448865 549.212235,56.8421843 549.896791,60.9495215 C551.037718,68.0292738 552.010605,78.5017827 553.950084,84.6687934 L585.926065,84.6687934 C582.161006,72.2206793 582.497183,60.5171702 580.671796,53.4434228 C579.074498,47.1623194 574.696797,43.6194408 566.710452,42.9348846 L566.710452,42.7847626 C579.038469,39.8123475 583.073795,32.594483 583.073747,23.118784 C583.073747,7.59016701 572.697365,2.25182961 555.000938,2.25182961 L506.211297,2.25182961 Z M608.744605,2.25182961 L608.744605,84.6687934 L635.166072,84.6687934 L635.166072,34.3779321 L635.466316,34.3779321 L652.880465,84.6687934 L692.062301,84.6687934 L692.062301,2.25182961 L665.490711,2.25182961 L665.490711,52.092325 L665.340829,52.092325 L647.92668,2.25182961 L608.744605,2.25182961 L608.744605,2.25182961 Z M789.641584,2.25182961 L789.641584,183.29893 L800,183.29893 L800,2.25182961 L789.641584,2.25182961 Z M538.187277,21.0170764 L541.189717,21.0170764 C547.584913,21.0170764 551.698255,22.176018 551.698255,28.2229311 C551.698255,34.3899418 547.170576,36.6297617 540.889473,36.6297617 L538.187277,36.6297617 L538.187277,21.0170764 L538.187277,21.0170764 Z M541.489961,98.630137 C513.062864,98.630137 498.85532,116.33252 498.85532,142.015388 C498.85532,167.70426 513.062767,185.400638 541.489961,185.400638 C569.917058,185.400638 583.974479,167.70426 583.974479,142.015388 C583.974479,116.33252 569.916962,98.630137 541.489961,98.630137 Z M225.182961,100.731845 L225.182961,155.526365 C225.182961,175.390505 239.474717,185.400638 264.364796,185.400638 C289.249015,185.400638 303.546632,175.390505 303.546632,155.526365 L303.546632,100.731845 L270.820041,100.731845 L270.820041,154.175267 C270.820041,160.678551 267.787722,163.182586 264.364796,163.182586 C260.942015,163.182586 257.9096,160.678551 257.909552,154.175267 L257.909552,100.731845 L225.182961,100.731845 Z M330.568587,100.731845 L330.568587,183.148808 L357.140176,183.148808 L357.140176,133.008069 L357.290298,133.008069 L374.704447,183.148808 L413.886283,183.148808 L413.886283,100.731845 L387.464815,100.731845 L387.464815,150.722462 L387.164571,150.722462 L369.750422,100.731845 L330.568587,100.731845 Z M441.508726,100.731845 L441.508726,183.148808 L474.235316,183.148808 L474.235316,100.731845 L441.508726,100.731845 Z M608.744605,100.731845 L608.744605,183.148808 L635.166072,183.148808 L635.166072,133.008069 L635.466316,133.008069 L652.880465,183.148808 L692.062301,183.148808 L692.062301,100.731845 L665.490711,100.731845 L665.490711,150.722462 L665.340829,150.722462 L647.92668,100.731845 L608.744605,100.731845 L608.744605,100.731845 Z M541.489961,120.097579 C546.74423,120.097579 550.197035,123.412272 550.197035,142.015388 C550.197035,161.080878 546.509943,163.933196 541.489961,163.933196 C536.469882,163.933196 532.632764,161.080878 532.632764,142.015388 C532.632764,123.412272 536.2416,120.097579 541.489961,120.097579 Z"></path>
                </g>
            </g>
        </g>
    </g>
</svg>